<?xml version="1.0" encoding="UTF-8" standalone="no"?>
<!DOCTYPE svg PUBLIC "-//W3C//DTD SVG 1.1//EN"
 "http://www.w3.org/Graphics/SVG/1.1/DTD/svg11.dtd">
<!-- Generated by graphviz version 2.38.0 (20140413.2041)
 -->
<!-- Title: Modules/Example/src/BenchmarkTask.cxx Pages: 1 -->
<svg width="1840pt" height="341pt"
 viewBox="0.00 0.00 1839.50 341.00" xmlns="http://www.w3.org/2000/svg" xmlns:xlink="http://www.w3.org/1999/xlink">
<g id="graph0" class="graph" transform="scale(1 1) rotate(0) translate(4 337)">
<title>Modules/Example/src/BenchmarkTask.cxx</title>
<!-- Node1 -->
<g id="node1" class="node"><title>Node1</title>
<polygon fill="#bfbfbf" stroke="black" points="1556,-302.5 1556,-332.5 1667,-332.5 1667,-302.5 1556,-302.5"/>
<text text-anchor="start" x="1564" y="-320.5" font-family="Helvetica,sans-Serif" font-size="10.00">Modules/Example/src</text>
<text text-anchor="middle" x="1611.5" y="-309.5" font-family="Helvetica,sans-Serif" font-size="10.00">/BenchmarkTask.cxx</text>
</g>
<!-- Node2 -->
<g id="node2" class="node"><title>Node2</title>
<g id="a_node2"><a xlink:href="BenchmarkTask_8h.html" target="_top" xlink:title="Example/BenchmarkTask.h">
<polygon fill="none" stroke="black" points="1167,-241 1167,-260 1304,-260 1304,-241 1167,-241"/>
<text text-anchor="middle" x="1235.5" y="-248" font-family="Helvetica,sans-Serif" font-size="10.00">Example/BenchmarkTask.h</text>
</a>
</g>
</g>
<!-- Node1&#45;&gt;Node2 -->
<g id="edge1" class="edge"><title>Node1&#45;&gt;Node2</title>
<path fill="none" stroke="midnightblue" d="M1555.79,-307.412C1495.7,-297.535 1397.23,-281.132 1312.5,-266 1305.14,-264.686 1297.4,-263.269 1289.77,-261.853"/>
<polygon fill="midnightblue" stroke="midnightblue" points="1290.33,-258.396 1279.86,-260 1289.04,-265.277 1290.33,-258.396"/>
</g>
<!-- Node21 -->
<g id="node21" class="node"><title>Node21</title>
<polygon fill="none" stroke="#bfbfbf" points="1322,-235.5 1322,-265.5 1457,-265.5 1457,-235.5 1322,-235.5"/>
<text text-anchor="start" x="1330" y="-253.5" font-family="Helvetica,sans-Serif" font-size="10.00">Configuration/Configuration</text>
<text text-anchor="middle" x="1389.5" y="-242.5" font-family="Helvetica,sans-Serif" font-size="10.00">Factory.h</text>
</g>
<!-- Node1&#45;&gt;Node21 -->
<g id="edge28" class="edge"><title>Node1&#45;&gt;Node21</title>
<path fill="none" stroke="midnightblue" d="M1563.6,-302.476C1529.58,-292.515 1483.72,-279.086 1447.6,-268.512"/>
<polygon fill="midnightblue" stroke="midnightblue" points="1448.27,-265.062 1437.69,-265.611 1446.31,-271.78 1448.27,-265.062"/>
</g>
<!-- Node22 -->
<g id="node22" class="node"><title>Node22</title>
<g id="a_node22"><a xlink:href="QcInfoLogger_8h.html" target="_top" xlink:title="QualityControl/QcInfoLogger.h">
<polygon fill="none" stroke="black" points="1475,-241 1475,-260 1624,-260 1624,-241 1475,-241"/>
<text text-anchor="middle" x="1549.5" y="-248" font-family="Helvetica,sans-Serif" font-size="10.00">QualityControl/QcInfoLogger.h</text>
</a>
</g>
</g>
<!-- Node1&#45;&gt;Node22 -->
<g id="edge29" class="edge"><title>Node1&#45;&gt;Node22</title>
<path fill="none" stroke="midnightblue" d="M1598.05,-302.396C1588.28,-292.161 1575.06,-278.296 1564.88,-267.622"/>
<polygon fill="midnightblue" stroke="midnightblue" points="1567.23,-265.015 1557.79,-260.195 1562.16,-269.846 1567.23,-265.015"/>
</g>
<!-- Node25 -->
<g id="node25" class="node"><title>Node25</title>
<polygon fill="none" stroke="#bfbfbf" points="1642,-241 1642,-260 1707,-260 1707,-241 1642,-241"/>
<text text-anchor="middle" x="1674.5" y="-248" font-family="Helvetica,sans-Serif" font-size="10.00">TCanvas.h</text>
</g>
<!-- Node1&#45;&gt;Node25 -->
<g id="edge32" class="edge"><title>Node1&#45;&gt;Node25</title>
<path fill="none" stroke="midnightblue" d="M1625.17,-302.396C1635.09,-292.161 1648.53,-278.296 1658.87,-267.622"/>
<polygon fill="midnightblue" stroke="midnightblue" points="1661.63,-269.811 1666.07,-260.195 1656.6,-264.939 1661.63,-269.811"/>
</g>
<!-- Node26 -->
<g id="node26" class="node"><title>Node26</title>
<polygon fill="none" stroke="#bfbfbf" points="1725.5,-241 1725.5,-260 1769.5,-260 1769.5,-241 1725.5,-241"/>
<text text-anchor="middle" x="1747.5" y="-248" font-family="Helvetica,sans-Serif" font-size="10.00">TH1.h</text>
</g>
<!-- Node1&#45;&gt;Node26 -->
<g id="edge33" class="edge"><title>Node1&#45;&gt;Node26</title>
<path fill="none" stroke="midnightblue" d="M1641.01,-302.396C1664.66,-291.092 1697.58,-275.361 1720.53,-264.39"/>
<polygon fill="midnightblue" stroke="midnightblue" points="1722.19,-267.477 1729.7,-260.007 1719.17,-261.161 1722.19,-267.477"/>
</g>
<!-- Node27 -->
<g id="node27" class="node"><title>Node27</title>
<polygon fill="none" stroke="#bfbfbf" points="1787.5,-241 1787.5,-260 1831.5,-260 1831.5,-241 1787.5,-241"/>
<text text-anchor="middle" x="1809.5" y="-248" font-family="Helvetica,sans-Serif" font-size="10.00">thread</text>
</g>
<!-- Node1&#45;&gt;Node27 -->
<g id="edge34" class="edge"><title>Node1&#45;&gt;Node27</title>
<path fill="none" stroke="midnightblue" d="M1664.81,-302.494C1697.93,-293.273 1741.16,-280.293 1778.5,-266 1779.92,-265.456 1781.37,-264.875 1782.82,-264.271"/>
<polygon fill="midnightblue" stroke="midnightblue" points="1784.58,-267.321 1792.31,-260.076 1781.75,-260.919 1784.58,-267.321"/>
</g>
<!-- Node3 -->
<g id="node3" class="node"><title>Node3</title>
<g id="a_node3"><a xlink:href="TaskInterface_8h.html" target="_top" xlink:title="QualityControl/TaskInterface.h">
<polygon fill="none" stroke="black" points="859.5,-179.5 859.5,-198.5 1009.5,-198.5 1009.5,-179.5 859.5,-179.5"/>
<text text-anchor="middle" x="934.5" y="-186.5" font-family="Helvetica,sans-Serif" font-size="10.00">QualityControl/TaskInterface.h</text>
</a>
</g>
</g>
<!-- Node2&#45;&gt;Node3 -->
<g id="edge2" class="edge"><title>Node2&#45;&gt;Node3</title>
<path fill="none" stroke="midnightblue" d="M1192.37,-240.975C1138.39,-230.305 1045.96,-212.034 987.663,-200.509"/>
<polygon fill="midnightblue" stroke="midnightblue" points="988.035,-197.015 977.546,-198.509 986.677,-203.882 988.035,-197.015"/>
</g>
<!-- Node5 -->
<g id="node5" class="node"><title>Node5</title>
<polygon fill="none" stroke="#bfbfbf" points="1142.5,-62 1142.5,-81 1194.5,-81 1194.5,-62 1142.5,-62"/>
<text text-anchor="middle" x="1168.5" y="-69" font-family="Helvetica,sans-Serif" font-size="10.00">memory</text>
</g>
<!-- Node2&#45;&gt;Node5 -->
<g id="edge26" class="edge"><title>Node2&#45;&gt;Node5</title>
<path fill="none" stroke="midnightblue" d="M1238.37,-240.586C1242.29,-226.979 1248.12,-200.355 1241.5,-179 1230.3,-142.84 1202.11,-108.043 1184.22,-88.5454"/>
<polygon fill="midnightblue" stroke="midnightblue" points="1186.67,-86.0417 1177.26,-81.1668 1181.57,-90.8438 1186.67,-86.0417"/>
</g>
<!-- Node6 -->
<g id="node6" class="node"><title>Node6</title>
<polygon fill="none" stroke="#bfbfbf" points="691,-0.5 691,-19.5 732,-19.5 732,-0.5 691,-0.5"/>
<text text-anchor="middle" x="711.5" y="-7.5" font-family="Helvetica,sans-Serif" font-size="10.00">string</text>
</g>
<!-- Node2&#45;&gt;Node6 -->
<g id="edge27" class="edge"><title>Node2&#45;&gt;Node6</title>
<path fill="none" stroke="midnightblue" d="M1240.54,-240.926C1245.97,-231.161 1254.26,-214.541 1257.5,-199 1268.54,-146.002 1248.51,-76.1474 1224.5,-56 1187.5,-24.9542 847.408,-14.2565 742.301,-11.6761"/>
<polygon fill="midnightblue" stroke="midnightblue" points="742.129,-8.17114 732.049,-11.4321 741.963,-15.1692 742.129,-8.17114"/>
</g>
<!-- Node20 -->
<g id="node20" class="node"><title>Node20</title>
<polygon fill="none" stroke="#bfbfbf" points="1188.5,-179.5 1188.5,-198.5 1232.5,-198.5 1232.5,-179.5 1188.5,-179.5"/>
<text text-anchor="middle" x="1210.5" y="-186.5" font-family="Helvetica,sans-Serif" font-size="10.00">vector</text>
</g>
<!-- Node2&#45;&gt;Node20 -->
<g id="edge25" class="edge"><title>Node2&#45;&gt;Node20</title>
<path fill="none" stroke="midnightblue" d="M1231.92,-240.975C1228.32,-232.404 1222.65,-218.927 1218.06,-207.983"/>
<polygon fill="midnightblue" stroke="midnightblue" points="1221.18,-206.373 1214.08,-198.509 1214.72,-209.084 1221.18,-206.373"/>
</g>
<!-- Node4 -->
<g id="node4" class="node"><title>Node4</title>
<polygon fill="none" stroke="#bfbfbf" points="0,-0.5 0,-19.5 35,-19.5 35,-0.5 0,-0.5"/>
<text text-anchor="middle" x="17.5" y="-7.5" font-family="Helvetica,sans-Serif" font-size="10.00">map</text>
</g>
<!-- Node3&#45;&gt;Node4 -->
<g id="edge3" class="edge"><title>Node3&#45;&gt;Node4</title>
<path fill="none" stroke="midnightblue" d="M859.317,-184.169C682.696,-174.308 246.162,-144.687 112.5,-87 80.2116,-73.0647 49.7376,-45.1076 32.3761,-27.2627"/>
<polygon fill="midnightblue" stroke="midnightblue" points="34.7816,-24.7128 25.3625,-19.862 29.7008,-29.5279 34.7816,-24.7128"/>
</g>
<!-- Node3&#45;&gt;Node5 -->
<g id="edge4" class="edge"><title>Node3&#45;&gt;Node5</title>
<path fill="none" stroke="midnightblue" d="M1009.53,-183.101C1068.68,-177.534 1144.41,-166.038 1164.5,-143 1176.69,-129.022 1175.87,-106.945 1173.16,-91.2222"/>
<polygon fill="midnightblue" stroke="midnightblue" points="1176.51,-90.1581 1171.01,-81.1033 1169.66,-91.6122 1176.51,-90.1581"/>
</g>
<!-- Node3&#45;&gt;Node6 -->
<g id="edge5" class="edge"><title>Node3&#45;&gt;Node6</title>
<path fill="none" stroke="midnightblue" d="M1009.61,-182.651C1073.11,-176.678 1157.74,-164.84 1183.5,-143 1213.76,-117.341 1230.25,-85.3044 1203.5,-56 1172.33,-21.8498 844.639,-13.3032 742.036,-11.4566"/>
<polygon fill="midnightblue" stroke="midnightblue" points="742.07,-7.95681 732.012,-11.2849 741.95,-14.9558 742.07,-7.95681"/>
</g>
<!-- Node7 -->
<g id="node7" class="node"><title>Node7</title>
<polygon fill="none" stroke="#bfbfbf" points="573,-0.5 573,-19.5 656,-19.5 656,-0.5 573,-0.5"/>
<text text-anchor="middle" x="614.5" y="-7.5" font-family="Helvetica,sans-Serif" font-size="10.00">unordered_map</text>
</g>
<!-- Node3&#45;&gt;Node7 -->
<g id="edge6" class="edge"><title>Node3&#45;&gt;Node7</title>
<path fill="none" stroke="midnightblue" d="M859.387,-185.13C746.667,-180.04 544.537,-167.575 522.5,-143 508.481,-127.366 504.355,-98.4205 534.5,-56 544.972,-41.2628 561.875,-30.7498 577.452,-23.6112"/>
<polygon fill="midnightblue" stroke="midnightblue" points="579.073,-26.7252 586.909,-19.5949 576.337,-20.2821 579.073,-26.7252"/>
</g>
<!-- Node8 -->
<g id="node8" class="node"><title>Node8</title>
<polygon fill="none" stroke="#bfbfbf" points="711,-123.5 711,-142.5 836,-142.5 836,-123.5 711,-123.5"/>
<text text-anchor="middle" x="773.5" y="-130.5" font-family="Helvetica,sans-Serif" font-size="10.00">Framework/InitContext.h</text>
</g>
<!-- Node3&#45;&gt;Node8 -->
<g id="edge7" class="edge"><title>Node3&#45;&gt;Node8</title>
<path fill="none" stroke="midnightblue" d="M908.989,-179.444C881.904,-170.359 838.91,-155.939 808.631,-145.783"/>
<polygon fill="midnightblue" stroke="midnightblue" points="809.486,-142.378 798.892,-142.516 807.26,-149.015 809.486,-142.378"/>
</g>
<!-- Node9 -->
<g id="node9" class="node"><title>Node9</title>
<polygon fill="none" stroke="#bfbfbf" points="854.5,-123.5 854.5,-142.5 1014.5,-142.5 1014.5,-123.5 854.5,-123.5"/>
<text text-anchor="middle" x="934.5" y="-130.5" font-family="Helvetica,sans-Serif" font-size="10.00">Framework/ProcessingContext.h</text>
</g>
<!-- Node3&#45;&gt;Node9 -->
<g id="edge8" class="edge"><title>Node3&#45;&gt;Node9</title>
<path fill="none" stroke="midnightblue" d="M934.5,-179.083C934.5,-172.006 934.5,-161.861 934.5,-152.986"/>
<polygon fill="midnightblue" stroke="midnightblue" points="938,-152.751 934.5,-142.751 931,-152.751 938,-152.751"/>
</g>
<!-- Node10 -->
<g id="node10" class="node"><title>Node10</title>
<g id="a_node10"><a xlink:href="Activity_8h.html" target="_top" xlink:title="QualityControl/Activity.h">
<polygon fill="none" stroke="black" points="1033,-123.5 1033,-142.5 1156,-142.5 1156,-123.5 1033,-123.5"/>
<text text-anchor="middle" x="1094.5" y="-130.5" font-family="Helvetica,sans-Serif" font-size="10.00">QualityControl/Activity.h</text>
</a>
</g>
</g>
<!-- Node3&#45;&gt;Node10 -->
<g id="edge9" class="edge"><title>Node3&#45;&gt;Node10</title>
<path fill="none" stroke="midnightblue" d="M959.852,-179.444C986.769,-170.359 1029.5,-155.939 1059.59,-145.783"/>
<polygon fill="midnightblue" stroke="midnightblue" points="1060.91,-149.031 1069.27,-142.516 1058.67,-142.398 1060.91,-149.031"/>
</g>
<!-- Node11 -->
<g id="node11" class="node"><title>Node11</title>
<g id="a_node11"><a xlink:href="ObjectsManager_8h.html" target="_top" xlink:title="QualityControl/ObjectsManager.h">
<polygon fill="none" stroke="black" points="532,-123.5 532,-142.5 693,-142.5 693,-123.5 532,-123.5"/>
<text text-anchor="middle" x="612.5" y="-130.5" font-family="Helvetica,sans-Serif" font-size="10.00">QualityControl/ObjectsManager.h</text>
</a>
</g>
</g>
<!-- Node3&#45;&gt;Node11 -->
<g id="edge10" class="edge"><title>Node3&#45;&gt;Node11</title>
<path fill="none" stroke="midnightblue" d="M883.478,-179.444C826.482,-169.885 734.261,-154.419 673.5,-144.23"/>
<polygon fill="midnightblue" stroke="midnightblue" points="673.724,-140.719 663.283,-142.516 672.567,-147.622 673.724,-140.719"/>
</g>
<!-- Node11&#45;&gt;Node5 -->
<g id="edge24" class="edge"><title>Node11&#45;&gt;Node5</title>
<path fill="none" stroke="midnightblue" d="M692.161,-123.475C814.503,-110.383 1043.78,-85.8471 1132.32,-76.3716"/>
<polygon fill="midnightblue" stroke="midnightblue" points="1132.83,-79.8368 1142.41,-75.2925 1132.09,-72.8765 1132.83,-79.8368"/>
</g>
<!-- Node11&#45;&gt;Node6 -->
<g id="edge23" class="edge"><title>Node11&#45;&gt;Node6</title>
<path fill="none" stroke="midnightblue" d="M638.938,-123.429C656.635,-116.364 679.065,-104.611 692.5,-87 705.101,-70.4828 709.429,-46.6186 710.87,-30.0555"/>
<polygon fill="midnightblue" stroke="midnightblue" points="714.372,-30.1257 711.473,-19.9352 707.384,-29.7093 714.372,-30.1257"/>
</g>
<!-- Node12 -->
<g id="node12" class="node"><title>Node12</title>
<g id="a_node12"><a xlink:href="MonitorObject_8h.html" target="_top" xlink:title="QualityControl/MonitorObject.h">
<polygon fill="none" stroke="black" points="122,-62 122,-81 273,-81 273,-62 122,-62"/>
<text text-anchor="middle" x="197.5" y="-69" font-family="Helvetica,sans-Serif" font-size="10.00">QualityControl/MonitorObject.h</text>
</a>
</g>
</g>
<!-- Node11&#45;&gt;Node12 -->
<g id="edge11" class="edge"><title>Node11&#45;&gt;Node12</title>
<path fill="none" stroke="midnightblue" d="M553.041,-123.475C477.385,-112.628 346.943,-93.9262 266.842,-82.4418"/>
<polygon fill="midnightblue" stroke="midnightblue" points="267.245,-78.9638 256.849,-81.0091 266.251,-85.893 267.245,-78.9638"/>
</g>
<!-- Node16 -->
<g id="node16" class="node"><title>Node16</title>
<g id="a_node16"><a xlink:href="MonitorObjectCollection_8h.html" target="_top" xlink:title="QualityControl/MonitorObject\lCollection.h">
<polygon fill="none" stroke="black" points="332,-56.5 332,-86.5 475,-86.5 475,-56.5 332,-56.5"/>
<text text-anchor="start" x="340" y="-74.5" font-family="Helvetica,sans-Serif" font-size="10.00">QualityControl/MonitorObject</text>
<text text-anchor="middle" x="403.5" y="-63.5" font-family="Helvetica,sans-Serif" font-size="10.00">Collection.h</text>
</a>
</g>
</g>
<!-- Node11&#45;&gt;Node16 -->
<g id="edge17" class="edge"><title>Node11&#45;&gt;Node16</title>
<path fill="none" stroke="midnightblue" d="M582.555,-123.475C551.339,-114.588 501.603,-100.429 462.462,-89.2859"/>
<polygon fill="midnightblue" stroke="midnightblue" points="463.333,-85.8949 452.757,-86.523 461.417,-92.6274 463.333,-85.8949"/>
</g>
<!-- Node19 -->
<g id="node19" class="node"><title>Node19</title>
<g id="a_node19"><a xlink:href="TaskConfig_8h.html" target="_top" xlink:title="QualityControl/TaskConfig.h">
<polygon fill="none" stroke="black" points="543.5,-62 543.5,-81 683.5,-81 683.5,-62 543.5,-62"/>
<text text-anchor="middle" x="613.5" y="-69" font-family="Helvetica,sans-Serif" font-size="10.00">QualityControl/TaskConfig.h</text>
</a>
</g>
</g>
<!-- Node11&#45;&gt;Node19 -->
<g id="edge20" class="edge"><title>Node11&#45;&gt;Node19</title>
<path fill="none" stroke="midnightblue" d="M612.643,-123.475C612.784,-115.08 613.005,-101.981 613.186,-91.1631"/>
<polygon fill="midnightblue" stroke="midnightblue" points="616.688,-91.0665 613.357,-81.0091 609.689,-90.9488 616.688,-91.0665"/>
</g>
<!-- Node12&#45;&gt;Node4 -->
<g id="edge13" class="edge"><title>Node12&#45;&gt;Node4</title>
<path fill="none" stroke="midnightblue" d="M171.504,-61.9453C142.9,-52.527 95.3156,-36.8426 44.9787,-20.1519"/>
<polygon fill="midnightblue" stroke="midnightblue" points="45.8097,-16.7401 35.2163,-16.9137 43.6058,-23.3841 45.8097,-16.7401"/>
</g>
<!-- Node12&#45;&gt;Node6 -->
<g id="edge12" class="edge"><title>Node12&#45;&gt;Node6</title>
<path fill="none" stroke="midnightblue" d="M269.863,-61.9738C287.109,-59.9784 305.454,-57.8858 322.5,-56 474.413,-39.1941 513.309,-42.3924 664.5,-20 669.809,-19.2138 675.43,-18.2513 680.87,-17.2516"/>
<polygon fill="midnightblue" stroke="midnightblue" points="681.809,-20.6355 690.974,-15.3198 680.494,-13.7601 681.809,-20.6355"/>
</g>
<!-- Node13 -->
<g id="node13" class="node"><title>Node13</title>
<polygon fill="none" stroke="#bfbfbf" points="53.5,-0.5 53.5,-19.5 109.5,-19.5 109.5,-0.5 53.5,-0.5"/>
<text text-anchor="middle" x="81.5" y="-7.5" font-family="Helvetica,sans-Serif" font-size="10.00">Rtypes.h</text>
</g>
<!-- Node12&#45;&gt;Node13 -->
<g id="edge14" class="edge"><title>Node12&#45;&gt;Node13</title>
<path fill="none" stroke="midnightblue" d="M180.88,-61.9751C161.585,-52.078 129.541,-35.6416 107.069,-24.1151"/>
<polygon fill="midnightblue" stroke="midnightblue" points="108.584,-20.9589 98.0891,-19.5091 105.39,-27.1873 108.584,-20.9589"/>
</g>
<!-- Node14 -->
<g id="node14" class="node"><title>Node14</title>
<polygon fill="none" stroke="#bfbfbf" points="128,-0.5 128,-19.5 187,-19.5 187,-0.5 128,-0.5"/>
<text text-anchor="middle" x="157.5" y="-7.5" font-family="Helvetica,sans-Serif" font-size="10.00">TObject.h</text>
</g>
<!-- Node12&#45;&gt;Node14 -->
<g id="edge15" class="edge"><title>Node12&#45;&gt;Node14</title>
<path fill="none" stroke="midnightblue" d="M191.769,-61.9751C185.828,-53.1384 176.383,-39.0886 168.912,-27.975"/>
<polygon fill="midnightblue" stroke="midnightblue" points="171.704,-25.8554 163.22,-19.5091 165.895,-29.7608 171.704,-25.8554"/>
</g>
<!-- Node15 -->
<g id="node15" class="node"><title>Node15</title>
<polygon fill="none" stroke="#bfbfbf" points="205.5,-0.5 205.5,-19.5 321.5,-19.5 321.5,-0.5 205.5,-0.5"/>
<text text-anchor="middle" x="263.5" y="-7.5" font-family="Helvetica,sans-Serif" font-size="10.00">Common/Exceptions.h</text>
</g>
<!-- Node12&#45;&gt;Node15 -->
<g id="edge16" class="edge"><title>Node12&#45;&gt;Node15</title>
<path fill="none" stroke="midnightblue" d="M206.956,-61.9751C217.248,-52.6966 233.916,-37.6706 246.494,-26.331"/>
<polygon fill="midnightblue" stroke="midnightblue" points="248.978,-28.8046 254.061,-19.5091 244.29,-23.6054 248.978,-28.8046"/>
</g>
<!-- Node17 -->
<g id="node17" class="node"><title>Node17</title>
<polygon fill="none" stroke="#bfbfbf" points="486,-0.5 486,-19.5 555,-19.5 555,-0.5 486,-0.5"/>
<text text-anchor="middle" x="520.5" y="-7.5" font-family="Helvetica,sans-Serif" font-size="10.00">TObjArray.h</text>
</g>
<!-- Node16&#45;&gt;Node17 -->
<g id="edge18" class="edge"><title>Node16&#45;&gt;Node17</title>
<path fill="none" stroke="midnightblue" d="M431.227,-56.3993C450.332,-46.6837 475.558,-33.8551 494.32,-24.3137"/>
<polygon fill="midnightblue" stroke="midnightblue" points="496.148,-27.3106 503.475,-19.6578 492.975,-21.071 496.148,-27.3106"/>
</g>
<!-- Node18 -->
<g id="node18" class="node"><title>Node18</title>
<polygon fill="none" stroke="#bfbfbf" points="339.5,-0.5 339.5,-19.5 467.5,-19.5 467.5,-0.5 339.5,-0.5"/>
<text text-anchor="middle" x="403.5" y="-7.5" font-family="Helvetica,sans-Serif" font-size="10.00">Mergers/MergeInterface.h</text>
</g>
<!-- Node16&#45;&gt;Node18 -->
<g id="edge19" class="edge"><title>Node16&#45;&gt;Node18</title>
<path fill="none" stroke="midnightblue" d="M403.5,-56.3993C403.5,-48.4664 403.5,-38.458 403.5,-29.8583"/>
<polygon fill="midnightblue" stroke="midnightblue" points="407,-29.6577 403.5,-19.6578 400,-29.6578 407,-29.6577"/>
</g>
<!-- Node19&#45;&gt;Node6 -->
<g id="edge21" class="edge"><title>Node19&#45;&gt;Node6</title>
<path fill="none" stroke="midnightblue" d="M627.541,-61.9751C643.551,-52.2548 669.95,-36.2266 688.874,-24.7372"/>
<polygon fill="midnightblue" stroke="midnightblue" points="690.754,-27.6907 697.485,-19.5091 687.121,-21.7072 690.754,-27.6907"/>
</g>
<!-- Node19&#45;&gt;Node7 -->
<g id="edge22" class="edge"><title>Node19&#45;&gt;Node7</title>
<path fill="none" stroke="midnightblue" d="M613.643,-61.9751C613.784,-53.5803 614.005,-40.4806 614.186,-29.6631"/>
<polygon fill="midnightblue" stroke="midnightblue" points="617.688,-29.5665 614.357,-19.5091 610.689,-29.4488 617.688,-29.5665"/>
</g>
<!-- Node23 -->
<g id="node23" class="node"><title>Node23</title>
<polygon fill="none" stroke="#bfbfbf" points="1392.5,-179.5 1392.5,-198.5 1522.5,-198.5 1522.5,-179.5 1392.5,-179.5"/>
<text text-anchor="middle" x="1457.5" y="-186.5" font-family="Helvetica,sans-Serif" font-size="10.00">InfoLogger/InfoLogger.hxx</text>
</g>
<!-- Node22&#45;&gt;Node23 -->
<g id="edge30" class="edge"><title>Node22&#45;&gt;Node23</title>
<path fill="none" stroke="midnightblue" d="M1536.32,-240.975C1521.43,-231.343 1496.96,-215.517 1479.23,-204.052"/>
<polygon fill="midnightblue" stroke="midnightblue" points="1480.95,-201.001 1470.66,-198.509 1477.15,-206.879 1480.95,-201.001"/>
</g>
<!-- Node24 -->
<g id="node24" class="node"><title>Node24</title>
<polygon fill="none" stroke="#bfbfbf" points="1540.5,-179.5 1540.5,-198.5 1702.5,-198.5 1702.5,-179.5 1540.5,-179.5"/>
<text text-anchor="middle" x="1621.5" y="-186.5" font-family="Helvetica,sans-Serif" font-size="10.00">InfoLogger/InfoLoggerMacros.hxx</text>
</g>
<!-- Node22&#45;&gt;Node24 -->
<g id="edge31" class="edge"><title>Node22&#45;&gt;Node24</title>
<path fill="none" stroke="midnightblue" d="M1559.82,-240.975C1571.15,-231.608 1589.57,-216.384 1603.34,-205.008"/>
<polygon fill="midnightblue" stroke="midnightblue" points="1605.72,-207.577 1611.2,-198.509 1601.27,-202.181 1605.72,-207.577"/>
</g>
</g>
</svg>
