<?xml version="1.0" encoding="UTF-8" standalone="no"?>
<!DOCTYPE svg PUBLIC "-//W3C//DTD SVG 1.1//EN"
 "http://www.w3.org/Graphics/SVG/1.1/DTD/svg11.dtd">
<!-- Generated by graphviz version 2.38.0 (20140413.2041)
 -->
<!-- Title: Modules/TPC/src/Clusters.cxx Pages: 1 -->
<svg width="3522pt" height="330pt"
 viewBox="0.00 0.00 3521.50 330.00" xmlns="http://www.w3.org/2000/svg" xmlns:xlink="http://www.w3.org/1999/xlink">
<g id="graph0" class="graph" transform="scale(1 1) rotate(0) translate(4 326)">
<title>Modules/TPC/src/Clusters.cxx</title>
<!-- Node1 -->
<g id="node1" class="node"><title>Node1</title>
<polygon fill="#bfbfbf" stroke="black" points="1377,-302.5 1377,-321.5 1529,-321.5 1529,-302.5 1377,-302.5"/>
<text text-anchor="middle" x="1453" y="-309.5" font-family="Helvetica,sans-Serif" font-size="10.00">Modules/TPC/src/Clusters.cxx</text>
</g>
<!-- Node2 -->
<g id="node2" class="node"><title>Node2</title>
<polygon fill="none" stroke="#bfbfbf" points="0,-241 0,-260 110,-260 110,-241 0,-241"/>
<text text-anchor="middle" x="55" y="-248" font-family="Helvetica,sans-Serif" font-size="10.00">Framework/PartRef.h</text>
</g>
<!-- Node1&#45;&gt;Node2 -->
<g id="edge1" class="edge"><title>Node1&#45;&gt;Node2</title>
<path fill="none" stroke="midnightblue" d="M1376.92,-310.325C1131.88,-307.852 364.913,-297.715 119,-266 111.776,-265.068 104.168,-263.697 96.8185,-262.165"/>
<polygon fill="midnightblue" stroke="midnightblue" points="97.5369,-258.739 87.0175,-260.001 96.0278,-265.575 97.5369,-258.739"/>
</g>
<!-- Node3 -->
<g id="node3" class="node"><title>Node3</title>
<polygon fill="none" stroke="#bfbfbf" points="128,-241 128,-260 268,-260 268,-241 128,-241"/>
<text text-anchor="middle" x="198" y="-248" font-family="Helvetica,sans-Serif" font-size="10.00">Framework/WorkflowSpec.h</text>
</g>
<!-- Node1&#45;&gt;Node3 -->
<g id="edge2" class="edge"><title>Node1&#45;&gt;Node3</title>
<path fill="none" stroke="midnightblue" d="M1376.62,-309.509C1151.22,-304.881 491.253,-289.639 277,-266 267.737,-264.978 257.927,-263.502 248.487,-261.877"/>
<polygon fill="midnightblue" stroke="midnightblue" points="248.892,-258.394 238.431,-260.072 247.655,-265.284 248.892,-258.394"/>
</g>
<!-- Node4 -->
<g id="node4" class="node"><title>Node4</title>
<polygon fill="none" stroke="#bfbfbf" points="286,-241 286,-260 420,-260 420,-241 286,-241"/>
<text text-anchor="middle" x="353" y="-248" font-family="Helvetica,sans-Serif" font-size="10.00">Framework/DataRefUtils.h</text>
</g>
<!-- Node1&#45;&gt;Node4 -->
<g id="edge3" class="edge"><title>Node1&#45;&gt;Node4</title>
<path fill="none" stroke="midnightblue" d="M1376.91,-311.407C1206.52,-311.5 781.614,-307.166 429,-266 420.179,-264.97 410.845,-263.505 401.851,-261.898"/>
<polygon fill="midnightblue" stroke="midnightblue" points="402.359,-258.433 391.887,-260.04 401.075,-265.314 402.359,-258.433"/>
</g>
<!-- Node5 -->
<g id="node5" class="node"><title>Node5</title>
<polygon fill="none" stroke="#bfbfbf" points="438,-241 438,-260 578,-260 578,-241 438,-241"/>
<text text-anchor="middle" x="508" y="-248" font-family="Helvetica,sans-Serif" font-size="10.00">Framework/DataSpecUtils.h</text>
</g>
<!-- Node1&#45;&gt;Node5 -->
<g id="edge4" class="edge"><title>Node1&#45;&gt;Node5</title>
<path fill="none" stroke="midnightblue" d="M1376.85,-310.353C1225.73,-308.339 877.454,-300.057 587,-266 577.846,-264.927 568.153,-263.441 558.81,-261.828"/>
<polygon fill="midnightblue" stroke="midnightblue" points="559.311,-258.362 548.85,-260.04 558.075,-265.252 559.311,-258.362"/>
</g>
<!-- Node6 -->
<g id="node6" class="node"><title>Node6</title>
<polygon fill="none" stroke="#bfbfbf" points="596.5,-241 596.5,-260 737.5,-260 737.5,-241 596.5,-241"/>
<text text-anchor="middle" x="667" y="-248" font-family="Helvetica,sans-Serif" font-size="10.00">Framework/ControlService.h</text>
</g>
<!-- Node1&#45;&gt;Node6 -->
<g id="edge5" class="edge"><title>Node1&#45;&gt;Node6</title>
<path fill="none" stroke="midnightblue" d="M1376.99,-309.037C1247.33,-305.044 975.282,-293.869 747,-266 737.842,-264.882 728.146,-263.39 718.783,-261.787"/>
<polygon fill="midnightblue" stroke="midnightblue" points="719.253,-258.316 708.796,-260.017 718.032,-265.209 719.253,-258.316"/>
</g>
<!-- Node7 -->
<g id="node7" class="node"><title>Node7</title>
<polygon fill="none" stroke="#bfbfbf" points="756,-241 756,-260 926,-260 926,-241 756,-241"/>
<text text-anchor="middle" x="841" y="-248" font-family="Helvetica,sans-Serif" font-size="10.00">Framework/ConfigParamRegistry.h</text>
</g>
<!-- Node1&#45;&gt;Node7 -->
<g id="edge6" class="edge"><title>Node1&#45;&gt;Node7</title>
<path fill="none" stroke="midnightblue" d="M1376.63,-305.903C1275.61,-298.807 1092.1,-284.687 936,-266 925.219,-264.709 913.781,-263.138 902.715,-261.512"/>
<polygon fill="midnightblue" stroke="midnightblue" points="903.095,-258.03 892.687,-260.01 902.058,-264.953 903.095,-258.03"/>
</g>
<!-- Node8 -->
<g id="node8" class="node"><title>Node8</title>
<polygon fill="none" stroke="#bfbfbf" points="944.5,-241 944.5,-260 1105.5,-260 1105.5,-241 944.5,-241"/>
<text text-anchor="middle" x="1025" y="-248" font-family="Helvetica,sans-Serif" font-size="10.00">Framework/InputRecordWalker.h</text>
</g>
<!-- Node1&#45;&gt;Node8 -->
<g id="edge7" class="edge"><title>Node1&#45;&gt;Node8</title>
<path fill="none" stroke="midnightblue" d="M1384.95,-302.496C1316.63,-293.828 1208.42,-279.741 1115,-266 1105.7,-264.632 1095.88,-263.119 1086.27,-261.602"/>
<polygon fill="midnightblue" stroke="midnightblue" points="1086.79,-258.141 1076.36,-260.024 1085.69,-265.054 1086.79,-258.141"/>
</g>
<!-- Node9 -->
<g id="node9" class="node"><title>Node9</title>
<polygon fill="none" stroke="#bfbfbf" points="1124,-235.5 1124,-265.5 1270,-265.5 1270,-235.5 1124,-235.5"/>
<text text-anchor="start" x="1132" y="-253.5" font-family="Helvetica,sans-Serif" font-size="10.00">DataFormatsTPC/TPCSector</text>
<text text-anchor="middle" x="1197" y="-242.5" font-family="Helvetica,sans-Serif" font-size="10.00">Header.h</text>
</g>
<!-- Node1&#45;&gt;Node9 -->
<g id="edge8" class="edge"><title>Node1&#45;&gt;Node9</title>
<path fill="none" stroke="midnightblue" d="M1416.32,-302.475C1377.52,-293.456 1315.35,-279.008 1267.1,-267.792"/>
<polygon fill="midnightblue" stroke="midnightblue" points="1267.87,-264.378 1257.33,-265.523 1266.28,-271.196 1267.87,-264.378"/>
</g>
<!-- Node10 -->
<g id="node10" class="node"><title>Node10</title>
<polygon fill="none" stroke="#bfbfbf" points="1288.5,-241 1288.5,-260 1329.5,-260 1329.5,-241 1288.5,-241"/>
<text text-anchor="middle" x="1309" y="-248" font-family="Helvetica,sans-Serif" font-size="10.00">bitset</text>
</g>
<!-- Node1&#45;&gt;Node10 -->
<g id="edge9" class="edge"><title>Node1&#45;&gt;Node10</title>
<path fill="none" stroke="midnightblue" d="M1429.65,-302.364C1406.46,-293.651 1369.99,-279.582 1339,-266 1337.81,-265.477 1336.59,-264.935 1335.37,-264.38"/>
<polygon fill="midnightblue" stroke="midnightblue" points="1336.57,-261.078 1326.03,-260.003 1333.6,-267.416 1336.57,-261.078"/>
</g>
<!-- Node11 -->
<g id="node11" class="node"><title>Node11</title>
<polygon fill="none" stroke="#bfbfbf" points="1347.5,-241 1347.5,-260 1412.5,-260 1412.5,-241 1347.5,-241"/>
<text text-anchor="middle" x="1380" y="-248" font-family="Helvetica,sans-Serif" font-size="10.00">TCanvas.h</text>
</g>
<!-- Node1&#45;&gt;Node11 -->
<g id="edge10" class="edge"><title>Node1&#45;&gt;Node11</title>
<path fill="none" stroke="midnightblue" d="M1442.54,-302.475C1431.05,-293.108 1412.37,-277.884 1398.41,-266.508"/>
<polygon fill="midnightblue" stroke="midnightblue" points="1400.4,-263.614 1390.44,-260.009 1395.98,-269.04 1400.4,-263.614"/>
</g>
<!-- Node12 -->
<g id="node12" class="node"><title>Node12</title>
<polygon fill="none" stroke="#bfbfbf" points="1431,-241 1431,-260 1475,-260 1475,-241 1431,-241"/>
<text text-anchor="middle" x="1453" y="-248" font-family="Helvetica,sans-Serif" font-size="10.00">TH1.h</text>
</g>
<!-- Node1&#45;&gt;Node12 -->
<g id="edge11" class="edge"><title>Node1&#45;&gt;Node12</title>
<path fill="none" stroke="midnightblue" d="M1453,-302.475C1453,-294.08 1453,-280.981 1453,-270.163"/>
<polygon fill="midnightblue" stroke="midnightblue" points="1456.5,-270.009 1453,-260.009 1449.5,-270.009 1456.5,-270.009"/>
</g>
<!-- Node13 -->
<g id="node13" class="node"><title>Node13</title>
<polygon fill="none" stroke="#bfbfbf" points="1493,-241 1493,-260 1537,-260 1537,-241 1493,-241"/>
<text text-anchor="middle" x="1515" y="-248" font-family="Helvetica,sans-Serif" font-size="10.00">TH2.h</text>
</g>
<!-- Node1&#45;&gt;Node13 -->
<g id="edge12" class="edge"><title>Node1&#45;&gt;Node13</title>
<path fill="none" stroke="midnightblue" d="M1461.88,-302.475C1471.46,-293.285 1486.91,-278.456 1498.69,-267.156"/>
<polygon fill="midnightblue" stroke="midnightblue" points="1501.34,-269.458 1506.13,-260.009 1496.49,-264.408 1501.34,-269.458"/>
</g>
<!-- Node14 -->
<g id="node14" class="node"><title>Node14</title>
<polygon fill="none" stroke="#bfbfbf" points="2012,-123.5 2012,-142.5 2172,-142.5 2172,-123.5 2012,-123.5"/>
<text text-anchor="middle" x="2092" y="-130.5" font-family="Helvetica,sans-Serif" font-size="10.00">Framework/ProcessingContext.h</text>
</g>
<!-- Node1&#45;&gt;Node14 -->
<g id="edge13" class="edge"><title>Node1&#45;&gt;Node14</title>
<path fill="none" stroke="midnightblue" d="M1474.06,-302.492C1493.41,-294.288 1522.56,-280.944 1546,-266 1564.38,-254.285 1564.28,-244.289 1584,-235 1720.59,-170.652 1896.54,-147.265 2001.46,-138.789"/>
<polygon fill="midnightblue" stroke="midnightblue" points="2002,-142.258 2011.7,-137.991 2001.46,-135.279 2002,-142.258"/>
</g>
<!-- Node15 -->
<g id="node15" class="node"><title>Node15</title>
<polygon fill="none" stroke="#bfbfbf" points="1593,-241 1593,-260 1719,-260 1719,-241 1593,-241"/>
<text text-anchor="middle" x="1656" y="-248" font-family="Helvetica,sans-Serif" font-size="10.00">DataFormatsTPC/Defs.h</text>
</g>
<!-- Node1&#45;&gt;Node15 -->
<g id="edge14" class="edge"><title>Node1&#45;&gt;Node15</title>
<path fill="none" stroke="midnightblue" d="M1482.08,-302.475C1517.58,-292.07 1577.75,-274.437 1617.17,-262.88"/>
<polygon fill="midnightblue" stroke="midnightblue" points="1618.36,-266.181 1626.97,-260.009 1616.39,-259.463 1618.36,-266.181"/>
</g>
<!-- Node16 -->
<g id="node16" class="node"><title>Node16</title>
<polygon fill="none" stroke="#bfbfbf" points="1737.5,-241 1737.5,-260 1838.5,-260 1838.5,-241 1737.5,-241"/>
<text text-anchor="middle" x="1788" y="-248" font-family="Helvetica,sans-Serif" font-size="10.00">TPCBase/Painter.h</text>
</g>
<!-- Node1&#45;&gt;Node16 -->
<g id="edge15" class="edge"><title>Node1&#45;&gt;Node16</title>
<path fill="none" stroke="midnightblue" d="M1513.05,-302.498C1568.92,-294.275 1654.39,-280.896 1728,-266 1733.38,-264.911 1739.02,-263.676 1744.58,-262.399"/>
<polygon fill="midnightblue" stroke="midnightblue" points="1745.53,-265.772 1754.46,-260.074 1743.93,-258.958 1745.53,-265.772"/>
</g>
<!-- Node17 -->
<g id="node17" class="node"><title>Node17</title>
<polygon fill="none" stroke="#bfbfbf" points="1856.5,-241 1856.5,-260 2021.5,-260 2021.5,-241 1856.5,-241"/>
<text text-anchor="middle" x="1939" y="-248" font-family="Helvetica,sans-Serif" font-size="10.00">DataFormatsTPC/ClusterNative.h</text>
</g>
<!-- Node1&#45;&gt;Node17 -->
<g id="edge16" class="edge"><title>Node1&#45;&gt;Node17</title>
<path fill="none" stroke="midnightblue" d="M1529.22,-303.335C1608.86,-295.087 1737.39,-281.106 1848,-266 1857.75,-264.669 1868.06,-263.14 1878.11,-261.586"/>
<polygon fill="midnightblue" stroke="midnightblue" points="1878.7,-265.036 1888.04,-260.03 1877.62,-258.121 1878.7,-265.036"/>
</g>
<!-- Node18 -->
<g id="node18" class="node"><title>Node18</title>
<polygon fill="none" stroke="#bfbfbf" points="2039.5,-235.5 2039.5,-265.5 2196.5,-265.5 2196.5,-235.5 2039.5,-235.5"/>
<text text-anchor="start" x="2047.5" y="-253.5" font-family="Helvetica,sans-Serif" font-size="10.00">DataFormatsTPC/ClusterNative</text>
<text text-anchor="middle" x="2118" y="-242.5" font-family="Helvetica,sans-Serif" font-size="10.00">Helper.h</text>
</g>
<!-- Node1&#45;&gt;Node18 -->
<g id="edge17" class="edge"><title>Node1&#45;&gt;Node18</title>
<path fill="none" stroke="midnightblue" d="M1529.41,-307.184C1638.24,-301.274 1844.3,-288.332 2029.14,-266.162"/>
<polygon fill="midnightblue" stroke="midnightblue" points="2029.82,-269.606 2039.32,-264.929 2028.98,-262.657 2029.82,-269.606"/>
</g>
<!-- Node19 -->
<g id="node19" class="node"><title>Node19</title>
<polygon fill="none" stroke="#bfbfbf" points="2215,-235.5 2215,-265.5 2329,-265.5 2329,-235.5 2215,-235.5"/>
<text text-anchor="start" x="2223" y="-253.5" font-family="Helvetica,sans-Serif" font-size="10.00">SimulationDataFormat</text>
<text text-anchor="middle" x="2272" y="-242.5" font-family="Helvetica,sans-Serif" font-size="10.00">/MCTruthContainer.h</text>
</g>
<!-- Node1&#45;&gt;Node19 -->
<g id="edge18" class="edge"><title>Node1&#45;&gt;Node19</title>
<path fill="none" stroke="midnightblue" d="M1529,-310.382C1663.5,-308.428 1952.28,-300.372 2204.76,-266.018"/>
<polygon fill="midnightblue" stroke="midnightblue" points="2205.43,-269.459 2214.86,-264.627 2204.48,-262.524 2205.43,-269.459"/>
</g>
<!-- Node20 -->
<g id="node20" class="node"><title>Node20</title>
<polygon fill="none" stroke="#bfbfbf" points="2347,-241 2347,-260 2497,-260 2497,-241 2347,-241"/>
<text text-anchor="middle" x="2422" y="-248" font-family="Helvetica,sans-Serif" font-size="10.00">DataFormatsTPC/Constants.h</text>
</g>
<!-- Node1&#45;&gt;Node20 -->
<g id="edge19" class="edge"><title>Node1&#45;&gt;Node20</title>
<path fill="none" stroke="midnightblue" d="M1529.01,-310.206C1682.42,-307.928 2039.85,-299.192 2338,-266 2347.93,-264.895 2358.46,-263.364 2368.59,-261.71"/>
<polygon fill="midnightblue" stroke="midnightblue" points="2369.27,-265.144 2378.54,-260.025 2368.1,-258.243 2369.27,-265.144"/>
</g>
<!-- Node21 -->
<g id="node21" class="node"><title>Node21</title>
<g id="a_node21"><a xlink:href="QcInfoLogger_8h.html" target="_top" xlink:title="QualityControl/QcInfoLogger.h">
<polygon fill="none" stroke="black" points="2514.5,-241 2514.5,-260 2663.5,-260 2663.5,-241 2514.5,-241"/>
<text text-anchor="middle" x="2589" y="-248" font-family="Helvetica,sans-Serif" font-size="10.00">QualityControl/QcInfoLogger.h</text>
</a>
</g>
</g>
<!-- Node1&#45;&gt;Node21 -->
<g id="edge20" class="edge"><title>Node1&#45;&gt;Node21</title>
<path fill="none" stroke="midnightblue" d="M1529.24,-311.138C1703.03,-310.71 2141.71,-305.435 2506,-266 2515.93,-264.926 2526.46,-263.393 2536.57,-261.724"/>
<polygon fill="midnightblue" stroke="midnightblue" points="2537.24,-265.161 2546.5,-260.021 2536.05,-258.261 2537.24,-265.161"/>
</g>
<!-- Node24 -->
<g id="node24" class="node"><title>Node24</title>
<g id="a_node24"><a xlink:href="Clusters_8h.html" target="_top" xlink:title="TPC/Clusters.h">
<polygon fill="none" stroke="black" points="2714.5,-241 2714.5,-260 2799.5,-260 2799.5,-241 2714.5,-241"/>
<text text-anchor="middle" x="2757" y="-248" font-family="Helvetica,sans-Serif" font-size="10.00">TPC/Clusters.h</text>
</a>
</g>
</g>
<!-- Node1&#45;&gt;Node24 -->
<g id="edge23" class="edge"><title>Node1&#45;&gt;Node24</title>
<path fill="none" stroke="midnightblue" d="M1529.27,-311.729C1721.67,-312.8 2242.16,-310.926 2673,-266 2683.16,-264.941 2693.94,-263.399 2704.28,-261.712"/>
<polygon fill="midnightblue" stroke="midnightblue" points="2705.15,-265.114 2714.42,-259.989 2703.98,-258.213 2705.15,-265.114"/>
</g>
<!-- Node22 -->
<g id="node22" class="node"><title>Node22</title>
<polygon fill="none" stroke="#bfbfbf" points="2491,-179.5 2491,-198.5 2621,-198.5 2621,-179.5 2491,-179.5"/>
<text text-anchor="middle" x="2556" y="-186.5" font-family="Helvetica,sans-Serif" font-size="10.00">InfoLogger/InfoLogger.hxx</text>
</g>
<!-- Node21&#45;&gt;Node22 -->
<g id="edge21" class="edge"><title>Node21&#45;&gt;Node22</title>
<path fill="none" stroke="midnightblue" d="M2584.27,-240.975C2579.42,-232.227 2571.73,-218.369 2565.6,-207.309"/>
<polygon fill="midnightblue" stroke="midnightblue" points="2568.63,-205.557 2560.72,-198.509 2562.51,-208.952 2568.63,-205.557"/>
</g>
<!-- Node23 -->
<g id="node23" class="node"><title>Node23</title>
<polygon fill="none" stroke="#bfbfbf" points="2311,-179.5 2311,-198.5 2473,-198.5 2473,-179.5 2311,-179.5"/>
<text text-anchor="middle" x="2392" y="-186.5" font-family="Helvetica,sans-Serif" font-size="10.00">InfoLogger/InfoLoggerMacros.hxx</text>
</g>
<!-- Node21&#45;&gt;Node23 -->
<g id="edge22" class="edge"><title>Node21&#45;&gt;Node23</title>
<path fill="none" stroke="midnightblue" d="M2560.77,-240.975C2526.4,-230.592 2468.19,-213.012 2429.92,-201.454"/>
<polygon fill="midnightblue" stroke="midnightblue" points="2430.76,-198.05 2420.17,-198.509 2428.73,-204.751 2430.76,-198.05"/>
</g>
<!-- Node25 -->
<g id="node25" class="node"><title>Node25</title>
<polygon fill="none" stroke="#bfbfbf" points="2707,-179.5 2707,-198.5 2807,-198.5 2807,-179.5 2707,-179.5"/>
<text text-anchor="middle" x="2757" y="-186.5" font-family="Helvetica,sans-Serif" font-size="10.00">TPCQC/Clusters.h</text>
</g>
<!-- Node24&#45;&gt;Node25 -->
<g id="edge24" class="edge"><title>Node24&#45;&gt;Node25</title>
<path fill="none" stroke="midnightblue" d="M2757,-240.975C2757,-232.58 2757,-219.481 2757,-208.663"/>
<polygon fill="midnightblue" stroke="midnightblue" points="2760.5,-208.509 2757,-198.509 2753.5,-208.509 2760.5,-208.509"/>
</g>
<!-- Node26 -->
<g id="node26" class="node"><title>Node26</title>
<polygon fill="none" stroke="#bfbfbf" points="2825,-179.5 2825,-198.5 2957,-198.5 2957,-179.5 2825,-179.5"/>
<text text-anchor="middle" x="2891" y="-186.5" font-family="Helvetica,sans-Serif" font-size="10.00">TPCQC/CalPadWrapper.h</text>
</g>
<!-- Node24&#45;&gt;Node26 -->
<g id="edge25" class="edge"><title>Node24&#45;&gt;Node26</title>
<path fill="none" stroke="midnightblue" d="M2776.2,-240.975C2798.79,-230.945 2836.5,-214.2 2862.5,-202.655"/>
<polygon fill="midnightblue" stroke="midnightblue" points="2864.12,-205.766 2871.84,-198.509 2861.28,-199.369 2864.12,-205.766"/>
</g>
<!-- Node27 -->
<g id="node27" class="node"><title>Node27</title>
<g id="a_node27"><a xlink:href="TaskInterface_8h.html" target="_top" xlink:title="QualityControl/TaskInterface.h">
<polygon fill="none" stroke="black" points="2975,-179.5 2975,-198.5 3125,-198.5 3125,-179.5 2975,-179.5"/>
<text text-anchor="middle" x="3050" y="-186.5" font-family="Helvetica,sans-Serif" font-size="10.00">QualityControl/TaskInterface.h</text>
</a>
</g>
</g>
<!-- Node24&#45;&gt;Node27 -->
<g id="edge26" class="edge"><title>Node24&#45;&gt;Node27</title>
<path fill="none" stroke="midnightblue" d="M2798.98,-240.975C2851.52,-230.305 2941.5,-212.034 2998.25,-200.509"/>
<polygon fill="midnightblue" stroke="midnightblue" points="2998.99,-203.929 3008.1,-198.509 2997.6,-197.069 2998.99,-203.929"/>
</g>
<!-- Node43 -->
<g id="node43" class="node"><title>Node43</title>
<polygon fill="none" stroke="#bfbfbf" points="2639,-179.5 2639,-198.5 2689,-198.5 2689,-179.5 2639,-179.5"/>
<text text-anchor="middle" x="2664" y="-186.5" font-family="Helvetica,sans-Serif" font-size="10.00">TH2F.h</text>
</g>
<!-- Node24&#45;&gt;Node43 -->
<g id="edge49" class="edge"><title>Node24&#45;&gt;Node43</title>
<path fill="none" stroke="midnightblue" d="M2743.68,-240.975C2728.62,-231.343 2703.88,-215.517 2685.96,-204.052"/>
<polygon fill="midnightblue" stroke="midnightblue" points="2687.61,-200.95 2677.3,-198.509 2683.84,-206.847 2687.61,-200.95"/>
</g>
<!-- Node27&#45;&gt;Node14 -->
<g id="edge32" class="edge"><title>Node27&#45;&gt;Node14</title>
<path fill="none" stroke="midnightblue" d="M2974.91,-179.747C2971.9,-179.482 2968.92,-179.232 2966,-179 2680.33,-156.359 2341.18,-142.654 2182.42,-137.007"/>
<polygon fill="midnightblue" stroke="midnightblue" points="2182.35,-133.502 2172.23,-136.646 2182.1,-140.497 2182.35,-133.502"/>
</g>
<!-- Node28 -->
<g id="node28" class="node"><title>Node28</title>
<polygon fill="none" stroke="#bfbfbf" points="3478.5,-0.5 3478.5,-19.5 3513.5,-19.5 3513.5,-0.5 3478.5,-0.5"/>
<text text-anchor="middle" x="3496" y="-7.5" font-family="Helvetica,sans-Serif" font-size="10.00">map</text>
</g>
<!-- Node27&#45;&gt;Node28 -->
<g id="edge27" class="edge"><title>Node27&#45;&gt;Node28</title>
<path fill="none" stroke="midnightblue" d="M3122.88,-179.495C3229.82,-165.571 3421.89,-134.606 3471,-87 3486.63,-71.8531 3492.49,-46.7788 3494.69,-29.6026"/>
<polygon fill="midnightblue" stroke="midnightblue" points="3498.17,-29.9343 3495.67,-19.6395 3491.21,-29.2487 3498.17,-29.9343"/>
</g>
<!-- Node29 -->
<g id="node29" class="node"><title>Node29</title>
<polygon fill="none" stroke="#bfbfbf" points="2754,-62 2754,-81 2806,-81 2806,-62 2754,-62"/>
<text text-anchor="middle" x="2780" y="-69" font-family="Helvetica,sans-Serif" font-size="10.00">memory</text>
</g>
<!-- Node27&#45;&gt;Node29 -->
<g id="edge28" class="edge"><title>Node27&#45;&gt;Node29</title>
<path fill="none" stroke="midnightblue" d="M2981.85,-179.488C2912.53,-170.241 2813.42,-155.16 2800,-143 2785.74,-130.076 2781.35,-107.807 2780.14,-91.7511"/>
<polygon fill="midnightblue" stroke="midnightblue" points="2783.62,-91.2343 2779.73,-81.3805 2776.63,-91.5111 2783.62,-91.2343"/>
</g>
<!-- Node30 -->
<g id="node30" class="node"><title>Node30</title>
<polygon fill="none" stroke="#bfbfbf" points="3133.5,-0.5 3133.5,-19.5 3174.5,-19.5 3174.5,-0.5 3133.5,-0.5"/>
<text text-anchor="middle" x="3154" y="-7.5" font-family="Helvetica,sans-Serif" font-size="10.00">string</text>
</g>
<!-- Node27&#45;&gt;Node30 -->
<g id="edge29" class="edge"><title>Node27&#45;&gt;Node30</title>
<path fill="none" stroke="midnightblue" d="M3125.12,-182.023C3179.24,-175.974 3245.68,-164.358 3263,-143 3298.33,-99.4321 3222.33,-48.3621 3179.94,-24.5297"/>
<polygon fill="midnightblue" stroke="midnightblue" points="3181.42,-21.3463 3170.97,-19.6047 3178.05,-27.4833 3181.42,-21.3463"/>
</g>
<!-- Node31 -->
<g id="node31" class="node"><title>Node31</title>
<polygon fill="none" stroke="#bfbfbf" points="2696.5,-0.5 2696.5,-19.5 2779.5,-19.5 2779.5,-0.5 2696.5,-0.5"/>
<text text-anchor="middle" x="2738" y="-7.5" font-family="Helvetica,sans-Serif" font-size="10.00">unordered_map</text>
</g>
<!-- Node27&#45;&gt;Node31 -->
<g id="edge30" class="edge"><title>Node27&#45;&gt;Node31</title>
<path fill="none" stroke="midnightblue" d="M2982.93,-179.485C2909.41,-169.714 2799.61,-153.667 2783,-143 2757.69,-126.749 2755.14,-115.316 2745,-87 2738.31,-68.3301 2737.05,-45.5126 2737.16,-29.7792"/>
<polygon fill="midnightblue" stroke="midnightblue" points="2740.66,-29.8231 2737.42,-19.7354 2733.66,-29.6409 2740.66,-29.8231"/>
</g>
<!-- Node32 -->
<g id="node32" class="node"><title>Node32</title>
<polygon fill="none" stroke="#bfbfbf" points="2987.5,-123.5 2987.5,-142.5 3112.5,-142.5 3112.5,-123.5 2987.5,-123.5"/>
<text text-anchor="middle" x="3050" y="-130.5" font-family="Helvetica,sans-Serif" font-size="10.00">Framework/InitContext.h</text>
</g>
<!-- Node27&#45;&gt;Node32 -->
<g id="edge31" class="edge"><title>Node27&#45;&gt;Node32</title>
<path fill="none" stroke="midnightblue" d="M3050,-179.083C3050,-172.006 3050,-161.861 3050,-152.986"/>
<polygon fill="midnightblue" stroke="midnightblue" points="3053.5,-152.751 3050,-142.751 3046.5,-152.751 3053.5,-152.751"/>
</g>
<!-- Node33 -->
<g id="node33" class="node"><title>Node33</title>
<g id="a_node33"><a xlink:href="Activity_8h.html" target="_top" xlink:title="QualityControl/Activity.h">
<polygon fill="none" stroke="black" points="3130.5,-123.5 3130.5,-142.5 3253.5,-142.5 3253.5,-123.5 3130.5,-123.5"/>
<text text-anchor="middle" x="3192" y="-130.5" font-family="Helvetica,sans-Serif" font-size="10.00">QualityControl/Activity.h</text>
</a>
</g>
</g>
<!-- Node27&#45;&gt;Node33 -->
<g id="edge33" class="edge"><title>Node27&#45;&gt;Node33</title>
<path fill="none" stroke="midnightblue" d="M3072.5,-179.444C3096.08,-170.478 3133.32,-156.314 3159.96,-146.183"/>
<polygon fill="midnightblue" stroke="midnightblue" points="3161.5,-149.342 3169.6,-142.516 3159.01,-142.8 3161.5,-149.342"/>
</g>
<!-- Node34 -->
<g id="node34" class="node"><title>Node34</title>
<g id="a_node34"><a xlink:href="ObjectsManager_8h.html" target="_top" xlink:title="QualityControl/ObjectsManager.h">
<polygon fill="none" stroke="black" points="2808.5,-123.5 2808.5,-142.5 2969.5,-142.5 2969.5,-123.5 2808.5,-123.5"/>
<text text-anchor="middle" x="2889" y="-130.5" font-family="Helvetica,sans-Serif" font-size="10.00">QualityControl/ObjectsManager.h</text>
</a>
</g>
</g>
<!-- Node27&#45;&gt;Node34 -->
<g id="edge34" class="edge"><title>Node27&#45;&gt;Node34</title>
<path fill="none" stroke="midnightblue" d="M3024.49,-179.444C2997.4,-170.359 2954.41,-155.939 2924.13,-145.783"/>
<polygon fill="midnightblue" stroke="midnightblue" points="2924.99,-142.378 2914.39,-142.516 2922.76,-149.015 2924.99,-142.378"/>
</g>
<!-- Node34&#45;&gt;Node29 -->
<g id="edge48" class="edge"><title>Node34&#45;&gt;Node29</title>
<path fill="none" stroke="midnightblue" d="M2873.38,-123.475C2855.41,-113.666 2825.68,-97.4346 2804.59,-85.925"/>
<polygon fill="midnightblue" stroke="midnightblue" points="2806.04,-82.7284 2795.59,-81.0091 2802.69,-88.8726 2806.04,-82.7284"/>
</g>
<!-- Node34&#45;&gt;Node30 -->
<g id="edge47" class="edge"><title>Node34&#45;&gt;Node30</title>
<path fill="none" stroke="midnightblue" d="M2956.45,-123.46C3024.71,-114.221 3122.02,-99.1777 3135,-87 3150.62,-72.346 3154.21,-46.9563 3154.67,-29.5875"/>
<polygon fill="midnightblue" stroke="midnightblue" points="3158.16,-29.5035 3154.6,-19.5255 3151.16,-29.5472 3158.16,-29.5035"/>
</g>
<!-- Node35 -->
<g id="node35" class="node"><title>Node35</title>
<g id="a_node35"><a xlink:href="MonitorObject_8h.html" target="_top" xlink:title="QualityControl/MonitorObject.h">
<polygon fill="none" stroke="black" points="3310.5,-62 3310.5,-81 3461.5,-81 3461.5,-62 3310.5,-62"/>
<text text-anchor="middle" x="3386" y="-69" font-family="Helvetica,sans-Serif" font-size="10.00">QualityControl/MonitorObject.h</text>
</a>
</g>
</g>
<!-- Node34&#45;&gt;Node35 -->
<g id="edge35" class="edge"><title>Node34&#45;&gt;Node35</title>
<path fill="none" stroke="midnightblue" d="M2960.21,-123.475C3051.37,-112.562 3208.94,-93.6974 3304.71,-82.2322"/>
<polygon fill="midnightblue" stroke="midnightblue" points="3305.41,-85.6731 3314.92,-81.0091 3304.58,-78.7227 3305.41,-85.6731"/>
</g>
<!-- Node39 -->
<g id="node39" class="node"><title>Node39</title>
<g id="a_node39"><a xlink:href="MonitorObjectCollection_8h.html" target="_top" xlink:title="QualityControl/MonitorObject\lCollection.h">
<polygon fill="none" stroke="black" points="2824.5,-56.5 2824.5,-86.5 2967.5,-86.5 2967.5,-56.5 2824.5,-56.5"/>
<text text-anchor="start" x="2832.5" y="-74.5" font-family="Helvetica,sans-Serif" font-size="10.00">QualityControl/MonitorObject</text>
<text text-anchor="middle" x="2896" y="-63.5" font-family="Helvetica,sans-Serif" font-size="10.00">Collection.h</text>
</a>
</g>
</g>
<!-- Node34&#45;&gt;Node39 -->
<g id="edge41" class="edge"><title>Node34&#45;&gt;Node39</title>
<path fill="none" stroke="midnightblue" d="M2890,-123.475C2890.83,-116.471 2892.04,-106.192 2893.15,-96.6956"/>
<polygon fill="midnightblue" stroke="midnightblue" points="2896.66,-96.8635 2894.35,-86.523 2889.71,-96.0455 2896.66,-96.8635"/>
</g>
<!-- Node42 -->
<g id="node42" class="node"><title>Node42</title>
<g id="a_node42"><a xlink:href="TaskConfig_8h.html" target="_top" xlink:title="QualityControl/TaskConfig.h">
<polygon fill="none" stroke="black" points="2986,-62 2986,-81 3126,-81 3126,-62 2986,-62"/>
<text text-anchor="middle" x="3056" y="-69" font-family="Helvetica,sans-Serif" font-size="10.00">QualityControl/TaskConfig.h</text>
</a>
</g>
</g>
<!-- Node34&#45;&gt;Node42 -->
<g id="edge44" class="edge"><title>Node34&#45;&gt;Node42</title>
<path fill="none" stroke="midnightblue" d="M2912.93,-123.475C2941.7,-113.225 2990.16,-95.9593 3022.6,-84.3994"/>
<polygon fill="midnightblue" stroke="midnightblue" points="3023.87,-87.6624 3032.12,-81.0091 3021.52,-81.0684 3023.87,-87.6624"/>
</g>
<!-- Node35&#45;&gt;Node28 -->
<g id="edge37" class="edge"><title>Node35&#45;&gt;Node28</title>
<path fill="none" stroke="midnightblue" d="M3401.76,-61.9751C3419.98,-52.1222 3450.17,-35.7883 3471.47,-24.2697"/>
<polygon fill="midnightblue" stroke="midnightblue" points="3473.14,-27.3453 3480.27,-19.5091 3469.81,-21.1883 3473.14,-27.3453"/>
</g>
<!-- Node35&#45;&gt;Node30 -->
<g id="edge36" class="edge"><title>Node35&#45;&gt;Node30</title>
<path fill="none" stroke="midnightblue" d="M3349.74,-61.973C3311.19,-52.7874 3248.22,-37.446 3184.44,-20.0226"/>
<polygon fill="midnightblue" stroke="midnightblue" points="3185.19,-16.5979 3174.62,-17.3234 3183.34,-23.3477 3185.19,-16.5979"/>
</g>
<!-- Node36 -->
<g id="node36" class="node"><title>Node36</title>
<polygon fill="none" stroke="#bfbfbf" points="3404,-0.5 3404,-19.5 3460,-19.5 3460,-0.5 3404,-0.5"/>
<text text-anchor="middle" x="3432" y="-7.5" font-family="Helvetica,sans-Serif" font-size="10.00">Rtypes.h</text>
</g>
<!-- Node35&#45;&gt;Node36 -->
<g id="edge38" class="edge"><title>Node35&#45;&gt;Node36</title>
<path fill="none" stroke="midnightblue" d="M3392.59,-61.9751C3399.49,-53.0501 3410.5,-38.8071 3419.13,-27.6425"/>
<polygon fill="midnightblue" stroke="midnightblue" points="3422.07,-29.5612 3425.42,-19.5091 3416.54,-25.2798 3422.07,-29.5612"/>
</g>
<!-- Node37 -->
<g id="node37" class="node"><title>Node37</title>
<polygon fill="none" stroke="#bfbfbf" points="3192.5,-0.5 3192.5,-19.5 3251.5,-19.5 3251.5,-0.5 3192.5,-0.5"/>
<text text-anchor="middle" x="3222" y="-7.5" font-family="Helvetica,sans-Serif" font-size="10.00">TObject.h</text>
</g>
<!-- Node35&#45;&gt;Node37 -->
<g id="edge39" class="edge"><title>Node35&#45;&gt;Node37</title>
<path fill="none" stroke="midnightblue" d="M3362.5,-61.9751C3334.37,-51.7687 3287.07,-34.608 3255.21,-23.0492"/>
<polygon fill="midnightblue" stroke="midnightblue" points="3256.05,-19.6295 3245.45,-19.5091 3253.66,-26.2098 3256.05,-19.6295"/>
</g>
<!-- Node38 -->
<g id="node38" class="node"><title>Node38</title>
<polygon fill="none" stroke="#bfbfbf" points="3270,-0.5 3270,-19.5 3386,-19.5 3386,-0.5 3270,-0.5"/>
<text text-anchor="middle" x="3328" y="-7.5" font-family="Helvetica,sans-Serif" font-size="10.00">Common/Exceptions.h</text>
</g>
<!-- Node35&#45;&gt;Node38 -->
<g id="edge40" class="edge"><title>Node35&#45;&gt;Node38</title>
<path fill="none" stroke="midnightblue" d="M3377.69,-61.9751C3368.82,-52.8733 3354.55,-38.241 3343.58,-26.983"/>
<polygon fill="midnightblue" stroke="midnightblue" points="3345.78,-24.2268 3336.29,-19.5091 3340.77,-29.113 3345.78,-24.2268"/>
</g>
<!-- Node40 -->
<g id="node40" class="node"><title>Node40</title>
<polygon fill="none" stroke="#bfbfbf" points="2955.5,-0.5 2955.5,-19.5 3024.5,-19.5 3024.5,-0.5 2955.5,-0.5"/>
<text text-anchor="middle" x="2990" y="-7.5" font-family="Helvetica,sans-Serif" font-size="10.00">TObjArray.h</text>
</g>
<!-- Node39&#45;&gt;Node40 -->
<g id="edge42" class="edge"><title>Node39&#45;&gt;Node40</title>
<path fill="none" stroke="midnightblue" d="M2918.28,-56.3993C2933.2,-46.9511 2952.78,-34.5589 2967.71,-25.1089"/>
<polygon fill="midnightblue" stroke="midnightblue" points="2969.74,-27.9636 2976.32,-19.6578 2966,-22.0489 2969.74,-27.9636"/>
</g>
<!-- Node41 -->
<g id="node41" class="node"><title>Node41</title>
<polygon fill="none" stroke="#bfbfbf" points="2809,-0.5 2809,-19.5 2937,-19.5 2937,-0.5 2809,-0.5"/>
<text text-anchor="middle" x="2873" y="-7.5" font-family="Helvetica,sans-Serif" font-size="10.00">Mergers/MergeInterface.h</text>
</g>
<!-- Node39&#45;&gt;Node41 -->
<g id="edge43" class="edge"><title>Node39&#45;&gt;Node41</title>
<path fill="none" stroke="midnightblue" d="M2890.55,-56.3993C2887.38,-48.1989 2883.35,-37.7809 2879.96,-28.9936"/>
<polygon fill="midnightblue" stroke="midnightblue" points="2883.22,-27.7232 2876.35,-19.6578 2876.69,-30.2471 2883.22,-27.7232"/>
</g>
<!-- Node42&#45;&gt;Node30 -->
<g id="edge45" class="edge"><title>Node42&#45;&gt;Node30</title>
<path fill="none" stroke="midnightblue" d="M3070.04,-61.9751C3086.05,-52.2548 3112.45,-36.2266 3131.37,-24.7372"/>
<polygon fill="midnightblue" stroke="midnightblue" points="3133.25,-27.6907 3139.99,-19.5091 3129.62,-21.7072 3133.25,-27.6907"/>
</g>
<!-- Node42&#45;&gt;Node31 -->
<g id="edge46" class="edge"><title>Node42&#45;&gt;Node31</title>
<path fill="none" stroke="midnightblue" d="M3010.44,-61.9751C2951.95,-51.0323 2850.75,-32.0954 2789.52,-20.6394"/>
<polygon fill="midnightblue" stroke="midnightblue" points="2790.15,-17.1973 2779.68,-18.7984 2788.86,-24.0779 2790.15,-17.1973"/>
</g>
</g>
</svg>
