<?xml version="1.0" encoding="UTF-8" standalone="no"?>
<!DOCTYPE svg PUBLIC "-//W3C//DTD SVG 1.1//EN"
 "http://www.w3.org/Graphics/SVG/1.1/DTD/svg11.dtd">
<!-- Generated by graphviz version 2.38.0 (20140413.2041)
 -->
<!-- Title: Modules/Daq/src/DaqTask.cxx Pages: 1 -->
<svg width="1062pt" height="319pt"
 viewBox="0.00 0.00 1061.50 319.00" xmlns="http://www.w3.org/2000/svg" xmlns:xlink="http://www.w3.org/1999/xlink">
<g id="graph0" class="graph" transform="scale(1 1) rotate(0) translate(4 315)">
<title>Modules/Daq/src/DaqTask.cxx</title>
<!-- Node1 -->
<g id="node1" class="node"><title>Node1</title>
<polygon fill="#bfbfbf" stroke="black" points="772.5,-291.5 772.5,-310.5 924.5,-310.5 924.5,-291.5 772.5,-291.5"/>
<text text-anchor="middle" x="848.5" y="-298.5" font-family="Helvetica,sans-Serif" font-size="10.00">Modules/Daq/src/DaqTask.cxx</text>
</g>
<!-- Node2 -->
<g id="node2" class="node"><title>Node2</title>
<g id="a_node2"><a xlink:href="DaqTask_8h.html" target="_top" xlink:title="Daq/DaqTask.h">
<polygon fill="none" stroke="black" points="388.5,-235.5 388.5,-254.5 474.5,-254.5 474.5,-235.5 388.5,-235.5"/>
<text text-anchor="middle" x="431.5" y="-242.5" font-family="Helvetica,sans-Serif" font-size="10.00">Daq/DaqTask.h</text>
</a>
</g>
</g>
<!-- Node1&#45;&gt;Node2 -->
<g id="edge1" class="edge"><title>Node1&#45;&gt;Node2</title>
<path fill="none" stroke="midnightblue" d="M782.425,-291.444C700.064,-280.778 560.907,-262.758 484.929,-252.919"/>
<polygon fill="midnightblue" stroke="midnightblue" points="485.007,-249.4 474.64,-251.587 484.108,-256.342 485.007,-249.4"/>
</g>
<!-- Node20 -->
<g id="node20" class="node"><title>Node20</title>
<g id="a_node20"><a xlink:href="QcInfoLogger_8h.html" target="_top" xlink:title="QualityControl/QcInfoLogger.h">
<polygon fill="none" stroke="black" points="586,-235.5 586,-254.5 735,-254.5 735,-235.5 586,-235.5"/>
<text text-anchor="middle" x="660.5" y="-242.5" font-family="Helvetica,sans-Serif" font-size="10.00">QualityControl/QcInfoLogger.h</text>
</a>
</g>
</g>
<!-- Node1&#45;&gt;Node20 -->
<g id="edge25" class="edge"><title>Node1&#45;&gt;Node20</title>
<path fill="none" stroke="midnightblue" d="M818.711,-291.444C786.671,-282.241 735.567,-267.562 700.147,-257.388"/>
<polygon fill="midnightblue" stroke="midnightblue" points="700.727,-253.913 690.15,-254.516 698.795,-260.641 700.727,-253.913"/>
</g>
<!-- Node23 -->
<g id="node23" class="node"><title>Node23</title>
<g id="a_node23"><a xlink:href="stringUtils_8h.html" target="_top" xlink:title="QualityControl/stringUtils.h">
<polygon fill="none" stroke="black" points="781.5,-235.5 781.5,-254.5 915.5,-254.5 915.5,-235.5 781.5,-235.5"/>
<text text-anchor="middle" x="848.5" y="-242.5" font-family="Helvetica,sans-Serif" font-size="10.00">QualityControl/stringUtils.h</text>
</a>
</g>
</g>
<!-- Node1&#45;&gt;Node23 -->
<g id="edge28" class="edge"><title>Node1&#45;&gt;Node23</title>
<path fill="none" stroke="midnightblue" d="M848.5,-291.083C848.5,-284.006 848.5,-273.861 848.5,-264.986"/>
<polygon fill="midnightblue" stroke="midnightblue" points="852,-264.751 848.5,-254.751 845,-264.751 852,-264.751"/>
</g>
<!-- Node28 -->
<g id="node28" class="node"><title>Node28</title>
<polygon fill="none" stroke="#bfbfbf" points="934,-235.5 934,-254.5 991,-254.5 991,-235.5 934,-235.5"/>
<text text-anchor="middle" x="962.5" y="-242.5" font-family="Helvetica,sans-Serif" font-size="10.00">TGraph.h</text>
</g>
<!-- Node1&#45;&gt;Node28 -->
<g id="edge34" class="edge"><title>Node1&#45;&gt;Node28</title>
<path fill="none" stroke="midnightblue" d="M866.564,-291.444C885.075,-282.675 914.081,-268.935 935.355,-258.858"/>
<polygon fill="midnightblue" stroke="midnightblue" points="936.982,-261.96 944.521,-254.516 933.985,-255.634 936.982,-261.96"/>
</g>
<!-- Node29 -->
<g id="node29" class="node"><title>Node29</title>
<polygon fill="none" stroke="#bfbfbf" points="1009.5,-235.5 1009.5,-254.5 1053.5,-254.5 1053.5,-235.5 1009.5,-235.5"/>
<text text-anchor="middle" x="1031.5" y="-242.5" font-family="Helvetica,sans-Serif" font-size="10.00">TH1.h</text>
</g>
<!-- Node1&#45;&gt;Node29 -->
<g id="edge35" class="edge"><title>Node1&#45;&gt;Node29</title>
<path fill="none" stroke="midnightblue" d="M877.497,-291.444C910.651,-281.66 964.778,-265.688 999.24,-255.519"/>
<polygon fill="midnightblue" stroke="midnightblue" points="1000.66,-258.75 1009.26,-252.563 998.677,-252.036 1000.66,-258.75"/>
</g>
<!-- Node3 -->
<g id="node3" class="node"><title>Node3</title>
<g id="a_node3"><a xlink:href="TaskInterface_8h.html" target="_top" xlink:title="QualityControl/TaskInterface.h">
<polygon fill="none" stroke="black" points="263.5,-179.5 263.5,-198.5 413.5,-198.5 413.5,-179.5 263.5,-179.5"/>
<text text-anchor="middle" x="338.5" y="-186.5" font-family="Helvetica,sans-Serif" font-size="10.00">QualityControl/TaskInterface.h</text>
</a>
</g>
</g>
<!-- Node2&#45;&gt;Node3 -->
<g id="edge2" class="edge"><title>Node2&#45;&gt;Node3</title>
<path fill="none" stroke="midnightblue" d="M416.558,-235.324C401.915,-226.822 379.366,-213.729 362.262,-203.797"/>
<polygon fill="midnightblue" stroke="midnightblue" points="363.81,-200.649 353.405,-198.655 360.295,-206.703 363.81,-200.649"/>
</g>
<!-- Node4 -->
<g id="node4" class="node"><title>Node4</title>
<polygon fill="none" stroke="#bfbfbf" points="1007,-0.5 1007,-19.5 1042,-19.5 1042,-0.5 1007,-0.5"/>
<text text-anchor="middle" x="1024.5" y="-7.5" font-family="Helvetica,sans-Serif" font-size="10.00">map</text>
</g>
<!-- Node3&#45;&gt;Node4 -->
<g id="edge3" class="edge"><title>Node3&#45;&gt;Node4</title>
<path fill="none" stroke="midnightblue" d="M413.92,-179.871C530.33,-167.306 741.329,-144.453 749.5,-143 851.384,-124.884 891.309,-147.17 975.5,-87 995.808,-72.486 1009.79,-46.6836 1017.47,-29.2139"/>
<polygon fill="midnightblue" stroke="midnightblue" points="1020.87,-30.168 1021.44,-19.5888 1014.39,-27.4997 1020.87,-30.168"/>
</g>
<!-- Node5 -->
<g id="node5" class="node"><title>Node5</title>
<polygon fill="none" stroke="#bfbfbf" points="50.5,-62 50.5,-81 102.5,-81 102.5,-62 50.5,-62"/>
<text text-anchor="middle" x="76.5" y="-69" font-family="Helvetica,sans-Serif" font-size="10.00">memory</text>
</g>
<!-- Node3&#45;&gt;Node5 -->
<g id="edge4" class="edge"><title>Node3&#45;&gt;Node5</title>
<path fill="none" stroke="midnightblue" d="M263.32,-183.97C198.44,-178.855 111.485,-167.534 87.5,-143 74.3994,-129.6 72.9408,-107.417 73.9397,-91.5121"/>
<polygon fill="midnightblue" stroke="midnightblue" points="77.4529,-91.555 74.97,-81.2553 70.488,-90.8553 77.4529,-91.555"/>
</g>
<!-- Node6 -->
<g id="node6" class="node"><title>Node6</title>
<polygon fill="none" stroke="#bfbfbf" points="662,-0.5 662,-19.5 703,-19.5 703,-0.5 662,-0.5"/>
<text text-anchor="middle" x="682.5" y="-7.5" font-family="Helvetica,sans-Serif" font-size="10.00">string</text>
</g>
<!-- Node3&#45;&gt;Node6 -->
<g id="edge5" class="edge"><title>Node3&#45;&gt;Node6</title>
<path fill="none" stroke="midnightblue" d="M413.579,-179.672C526.773,-167.072 728.193,-144.466 729.5,-143 759.737,-109.084 720.829,-54.3888 697.58,-27.2921"/>
<polygon fill="midnightblue" stroke="midnightblue" points="699.944,-24.683 690.689,-19.5256 694.708,-29.3287 699.944,-24.683"/>
</g>
<!-- Node7 -->
<g id="node7" class="node"><title>Node7</title>
<polygon fill="none" stroke="#bfbfbf" points="0,-0.5 0,-19.5 83,-19.5 83,-0.5 0,-0.5"/>
<text text-anchor="middle" x="41.5" y="-7.5" font-family="Helvetica,sans-Serif" font-size="10.00">unordered_map</text>
</g>
<!-- Node3&#45;&gt;Node7 -->
<g id="edge6" class="edge"><title>Node3&#45;&gt;Node7</title>
<path fill="none" stroke="midnightblue" d="M263.409,-182.4C196.099,-176.116 103.479,-163.95 73.5,-143 50.003,-126.58 48.8576,-114.705 41.5,-87 36.4312,-67.9132 37.2894,-45.1663 38.8767,-29.5634"/>
<polygon fill="midnightblue" stroke="midnightblue" points="42.3531,-29.9688 40.0871,-19.6192 35.4044,-29.123 42.3531,-29.9688"/>
</g>
<!-- Node8 -->
<g id="node8" class="node"><title>Node8</title>
<polygon fill="none" stroke="#bfbfbf" points="276,-123.5 276,-142.5 401,-142.5 401,-123.5 276,-123.5"/>
<text text-anchor="middle" x="338.5" y="-130.5" font-family="Helvetica,sans-Serif" font-size="10.00">Framework/InitContext.h</text>
</g>
<!-- Node3&#45;&gt;Node8 -->
<g id="edge7" class="edge"><title>Node3&#45;&gt;Node8</title>
<path fill="none" stroke="midnightblue" d="M338.5,-179.083C338.5,-172.006 338.5,-161.861 338.5,-152.986"/>
<polygon fill="midnightblue" stroke="midnightblue" points="342,-152.751 338.5,-142.751 335,-152.751 342,-152.751"/>
</g>
<!-- Node9 -->
<g id="node9" class="node"><title>Node9</title>
<polygon fill="none" stroke="#bfbfbf" points="419.5,-123.5 419.5,-142.5 579.5,-142.5 579.5,-123.5 419.5,-123.5"/>
<text text-anchor="middle" x="499.5" y="-130.5" font-family="Helvetica,sans-Serif" font-size="10.00">Framework/ProcessingContext.h</text>
</g>
<!-- Node3&#45;&gt;Node9 -->
<g id="edge8" class="edge"><title>Node3&#45;&gt;Node9</title>
<path fill="none" stroke="midnightblue" d="M364.011,-179.444C391.096,-170.359 434.09,-155.939 464.369,-145.783"/>
<polygon fill="midnightblue" stroke="midnightblue" points="465.74,-149.015 474.108,-142.516 463.514,-142.378 465.74,-149.015"/>
</g>
<!-- Node10 -->
<g id="node10" class="node"><title>Node10</title>
<g id="a_node10"><a xlink:href="Activity_8h.html" target="_top" xlink:title="QualityControl/Activity.h">
<polygon fill="none" stroke="black" points="598,-123.5 598,-142.5 721,-142.5 721,-123.5 598,-123.5"/>
<text text-anchor="middle" x="659.5" y="-130.5" font-family="Helvetica,sans-Serif" font-size="10.00">QualityControl/Activity.h</text>
</a>
</g>
</g>
<!-- Node3&#45;&gt;Node10 -->
<g id="edge9" class="edge"><title>Node3&#45;&gt;Node10</title>
<path fill="none" stroke="midnightblue" d="M389.363,-179.444C446.183,-169.885 538.117,-154.419 598.69,-144.23"/>
<polygon fill="midnightblue" stroke="midnightblue" points="599.594,-147.627 608.875,-142.516 598.432,-140.724 599.594,-147.627"/>
</g>
<!-- Node11 -->
<g id="node11" class="node"><title>Node11</title>
<g id="a_node11"><a xlink:href="ObjectsManager_8h.html" target="_top" xlink:title="QualityControl/ObjectsManager.h">
<polygon fill="none" stroke="black" points="97,-123.5 97,-142.5 258,-142.5 258,-123.5 97,-123.5"/>
<text text-anchor="middle" x="177.5" y="-130.5" font-family="Helvetica,sans-Serif" font-size="10.00">QualityControl/ObjectsManager.h</text>
</a>
</g>
</g>
<!-- Node3&#45;&gt;Node11 -->
<g id="edge10" class="edge"><title>Node3&#45;&gt;Node11</title>
<path fill="none" stroke="midnightblue" d="M312.989,-179.444C285.904,-170.359 242.91,-155.939 212.631,-145.783"/>
<polygon fill="midnightblue" stroke="midnightblue" points="213.486,-142.378 202.892,-142.516 211.26,-149.015 213.486,-142.378"/>
</g>
<!-- Node11&#45;&gt;Node5 -->
<g id="edge24" class="edge"><title>Node11&#45;&gt;Node5</title>
<path fill="none" stroke="midnightblue" d="M163.029,-123.475C146.529,-113.755 119.322,-97.7266 99.8186,-86.2372"/>
<polygon fill="midnightblue" stroke="midnightblue" points="101.337,-83.0693 90.944,-81.0091 97.7835,-89.1005 101.337,-83.0693"/>
</g>
<!-- Node11&#45;&gt;Node6 -->
<g id="edge23" class="edge"><title>Node11&#45;&gt;Node6</title>
<path fill="none" stroke="midnightblue" d="M237.188,-123.474C288.924,-115.598 365.621,-102.751 431.5,-87 512.36,-67.6676 605.571,-37.2471 652.373,-21.3925"/>
<polygon fill="midnightblue" stroke="midnightblue" points="653.564,-24.6842 661.903,-18.1478 651.308,-18.0578 653.564,-24.6842"/>
</g>
<!-- Node12 -->
<g id="node12" class="node"><title>Node12</title>
<g id="a_node12"><a xlink:href="MonitorObject_8h.html" target="_top" xlink:title="QualityControl/MonitorObject.h">
<polygon fill="none" stroke="black" points="816,-62 816,-81 967,-81 967,-62 816,-62"/>
<text text-anchor="middle" x="891.5" y="-69" font-family="Helvetica,sans-Serif" font-size="10.00">QualityControl/MonitorObject.h</text>
</a>
</g>
</g>
<!-- Node11&#45;&gt;Node12 -->
<g id="edge11" class="edge"><title>Node11&#45;&gt;Node12</title>
<path fill="none" stroke="midnightblue" d="M258.023,-123.784C260.884,-123.515 263.716,-123.253 266.5,-123 459.014,-105.49 685.172,-87.9738 805.672,-78.8846"/>
<polygon fill="midnightblue" stroke="midnightblue" points="806.227,-82.3528 815.935,-78.1116 805.701,-75.3726 806.227,-82.3528"/>
</g>
<!-- Node16 -->
<g id="node16" class="node"><title>Node16</title>
<g id="a_node16"><a xlink:href="MonitorObjectCollection_8h.html" target="_top" xlink:title="QualityControl/MonitorObject\lCollection.h">
<polygon fill="none" stroke="black" points="121,-56.5 121,-86.5 264,-86.5 264,-56.5 121,-56.5"/>
<text text-anchor="start" x="129" y="-74.5" font-family="Helvetica,sans-Serif" font-size="10.00">QualityControl/MonitorObject</text>
<text text-anchor="middle" x="192.5" y="-63.5" font-family="Helvetica,sans-Serif" font-size="10.00">Collection.h</text>
</a>
</g>
</g>
<!-- Node11&#45;&gt;Node16 -->
<g id="edge17" class="edge"><title>Node11&#45;&gt;Node16</title>
<path fill="none" stroke="midnightblue" d="M179.649,-123.475C181.434,-116.396 184.062,-105.97 186.477,-96.3896"/>
<polygon fill="midnightblue" stroke="midnightblue" points="189.914,-97.0752 188.965,-86.523 183.126,-95.364 189.914,-97.0752"/>
</g>
<!-- Node19 -->
<g id="node19" class="node"><title>Node19</title>
<g id="a_node19"><a xlink:href="TaskConfig_8h.html" target="_top" xlink:title="QualityControl/TaskConfig.h">
<polygon fill="none" stroke="black" points="282.5,-62 282.5,-81 422.5,-81 422.5,-62 282.5,-62"/>
<text text-anchor="middle" x="352.5" y="-69" font-family="Helvetica,sans-Serif" font-size="10.00">QualityControl/TaskConfig.h</text>
</a>
</g>
</g>
<!-- Node11&#45;&gt;Node19 -->
<g id="edge20" class="edge"><title>Node11&#45;&gt;Node19</title>
<path fill="none" stroke="midnightblue" d="M202.573,-123.475C232.852,-113.18 283.94,-95.8103 317.941,-84.2502"/>
<polygon fill="midnightblue" stroke="midnightblue" points="319.132,-87.5419 327.473,-81.0091 316.879,-80.9145 319.132,-87.5419"/>
</g>
<!-- Node12&#45;&gt;Node4 -->
<g id="edge13" class="edge"><title>Node12&#45;&gt;Node4</title>
<path fill="none" stroke="midnightblue" d="M910.556,-61.9751C933.357,-51.7745 971.686,-34.6274 997.523,-23.0688"/>
<polygon fill="midnightblue" stroke="midnightblue" points="999.056,-26.2172 1006.75,-18.9386 996.197,-19.8275 999.056,-26.2172"/>
</g>
<!-- Node12&#45;&gt;Node6 -->
<g id="edge12" class="edge"><title>Node12&#45;&gt;Node6</title>
<path fill="none" stroke="midnightblue" d="M859.885,-61.9121C825.848,-52.6047 769.876,-37.1212 712.958,-20.3787"/>
<polygon fill="midnightblue" stroke="midnightblue" points="713.656,-16.9355 703.074,-17.4613 711.674,-23.6491 713.656,-16.9355"/>
</g>
<!-- Node13 -->
<g id="node13" class="node"><title>Node13</title>
<polygon fill="none" stroke="#bfbfbf" points="932.5,-0.5 932.5,-19.5 988.5,-19.5 988.5,-0.5 932.5,-0.5"/>
<text text-anchor="middle" x="960.5" y="-7.5" font-family="Helvetica,sans-Serif" font-size="10.00">Rtypes.h</text>
</g>
<!-- Node12&#45;&gt;Node13 -->
<g id="edge14" class="edge"><title>Node12&#45;&gt;Node13</title>
<path fill="none" stroke="midnightblue" d="M901.386,-61.9751C912.146,-52.6966 929.571,-37.6706 942.721,-26.331"/>
<polygon fill="midnightblue" stroke="midnightblue" points="945.345,-28.6902 950.632,-19.5091 940.773,-23.389 945.345,-28.6902"/>
</g>
<!-- Node14 -->
<g id="node14" class="node"><title>Node14</title>
<polygon fill="none" stroke="#bfbfbf" points="721,-0.5 721,-19.5 780,-19.5 780,-0.5 721,-0.5"/>
<text text-anchor="middle" x="750.5" y="-7.5" font-family="Helvetica,sans-Serif" font-size="10.00">TObject.h</text>
</g>
<!-- Node12&#45;&gt;Node14 -->
<g id="edge15" class="edge"><title>Node12&#45;&gt;Node14</title>
<path fill="none" stroke="midnightblue" d="M871.298,-61.9751C847.426,-51.9013 807.498,-35.0525 780.127,-23.5023"/>
<polygon fill="midnightblue" stroke="midnightblue" points="781.238,-20.1724 770.664,-19.5091 778.517,-26.6217 781.238,-20.1724"/>
</g>
<!-- Node15 -->
<g id="node15" class="node"><title>Node15</title>
<polygon fill="none" stroke="#bfbfbf" points="798.5,-0.5 798.5,-19.5 914.5,-19.5 914.5,-0.5 798.5,-0.5"/>
<text text-anchor="middle" x="856.5" y="-7.5" font-family="Helvetica,sans-Serif" font-size="10.00">Common/Exceptions.h</text>
</g>
<!-- Node12&#45;&gt;Node15 -->
<g id="edge16" class="edge"><title>Node12&#45;&gt;Node15</title>
<path fill="none" stroke="midnightblue" d="M886.485,-61.9751C881.339,-53.2268 873.188,-39.3691 866.682,-28.3093"/>
<polygon fill="midnightblue" stroke="midnightblue" points="869.592,-26.3539 861.505,-19.5091 863.559,-29.903 869.592,-26.3539"/>
</g>
<!-- Node17 -->
<g id="node17" class="node"><title>Node17</title>
<polygon fill="none" stroke="#bfbfbf" points="120,-0.5 120,-19.5 189,-19.5 189,-0.5 120,-0.5"/>
<text text-anchor="middle" x="154.5" y="-7.5" font-family="Helvetica,sans-Serif" font-size="10.00">TObjArray.h</text>
</g>
<!-- Node16&#45;&gt;Node17 -->
<g id="edge18" class="edge"><title>Node16&#45;&gt;Node17</title>
<path fill="none" stroke="midnightblue" d="M183.495,-56.3993C178.087,-47.9315 171.168,-37.0991 165.446,-28.1393"/>
<polygon fill="midnightblue" stroke="midnightblue" points="168.362,-26.2018 160.029,-19.6578 162.462,-29.9695 168.362,-26.2018"/>
</g>
<!-- Node18 -->
<g id="node18" class="node"><title>Node18</title>
<polygon fill="none" stroke="#bfbfbf" points="207.5,-0.5 207.5,-19.5 335.5,-19.5 335.5,-0.5 207.5,-0.5"/>
<text text-anchor="middle" x="271.5" y="-7.5" font-family="Helvetica,sans-Serif" font-size="10.00">Mergers/MergeInterface.h</text>
</g>
<!-- Node16&#45;&gt;Node18 -->
<g id="edge19" class="edge"><title>Node16&#45;&gt;Node18</title>
<path fill="none" stroke="midnightblue" d="M211.222,-56.3993C223.412,-47.2185 239.292,-35.2579 251.693,-25.9182"/>
<polygon fill="midnightblue" stroke="midnightblue" points="254.123,-28.4697 260.005,-19.6578 249.911,-22.8782 254.123,-28.4697"/>
</g>
<!-- Node19&#45;&gt;Node6 -->
<g id="edge21" class="edge"><title>Node19&#45;&gt;Node6</title>
<path fill="none" stroke="midnightblue" d="M399.781,-61.9751C468.401,-49.6026 593.702,-27.0106 651.626,-16.5668"/>
<polygon fill="midnightblue" stroke="midnightblue" points="652.408,-19.9822 661.628,-14.7632 651.166,-13.0933 652.408,-19.9822"/>
</g>
<!-- Node19&#45;&gt;Node7 -->
<g id="edge22" class="edge"><title>Node19&#45;&gt;Node7</title>
<path fill="none" stroke="midnightblue" d="M307.941,-61.9751C251.26,-51.1308 153.542,-32.4357 93.5108,-20.9506"/>
<polygon fill="midnightblue" stroke="midnightblue" points="93.9654,-17.4742 83.4858,-19.0326 92.6499,-24.3495 93.9654,-17.4742"/>
</g>
<!-- Node21 -->
<g id="node21" class="node"><title>Node21</title>
<polygon fill="none" stroke="#bfbfbf" points="431.5,-179.5 431.5,-198.5 561.5,-198.5 561.5,-179.5 431.5,-179.5"/>
<text text-anchor="middle" x="496.5" y="-186.5" font-family="Helvetica,sans-Serif" font-size="10.00">InfoLogger/InfoLogger.hxx</text>
</g>
<!-- Node20&#45;&gt;Node21 -->
<g id="edge26" class="edge"><title>Node20&#45;&gt;Node21</title>
<path fill="none" stroke="midnightblue" d="M634.514,-235.444C606.804,-226.32 562.748,-211.813 531.884,-201.651"/>
<polygon fill="midnightblue" stroke="midnightblue" points="532.958,-198.32 522.365,-198.516 530.768,-204.968 532.958,-198.32"/>
</g>
<!-- Node22 -->
<g id="node22" class="node"><title>Node22</title>
<polygon fill="none" stroke="#bfbfbf" points="579.5,-179.5 579.5,-198.5 741.5,-198.5 741.5,-179.5 579.5,-179.5"/>
<text text-anchor="middle" x="660.5" y="-186.5" font-family="Helvetica,sans-Serif" font-size="10.00">InfoLogger/InfoLoggerMacros.hxx</text>
</g>
<!-- Node20&#45;&gt;Node22 -->
<g id="edge27" class="edge"><title>Node20&#45;&gt;Node22</title>
<path fill="none" stroke="midnightblue" d="M660.5,-235.083C660.5,-228.006 660.5,-217.861 660.5,-208.986"/>
<polygon fill="midnightblue" stroke="midnightblue" points="664,-208.751 660.5,-198.751 657,-208.751 664,-208.751"/>
</g>
<!-- Node23&#45;&gt;Node6 -->
<g id="edge29" class="edge"><title>Node23&#45;&gt;Node6</title>
<path fill="none" stroke="midnightblue" d="M857.411,-235.178C868.895,-222.685 886.387,-199.12 877.5,-179 843.619,-102.296 754.633,-47.774 709.532,-24.1285"/>
<polygon fill="midnightblue" stroke="midnightblue" points="711.105,-21.0019 700.609,-19.5546 707.912,-27.2311 711.105,-21.0019"/>
</g>
<!-- Node24 -->
<g id="node24" class="node"><title>Node24</title>
<polygon fill="none" stroke="#bfbfbf" points="925.5,-179.5 925.5,-198.5 977.5,-198.5 977.5,-179.5 925.5,-179.5"/>
<text text-anchor="middle" x="951.5" y="-186.5" font-family="Helvetica,sans-Serif" font-size="10.00">sstream</text>
</g>
<!-- Node23&#45;&gt;Node24 -->
<g id="edge30" class="edge"><title>Node23&#45;&gt;Node24</title>
<path fill="none" stroke="midnightblue" d="M865.049,-235.324C881.492,-226.703 906.935,-213.364 925.968,-203.386"/>
<polygon fill="midnightblue" stroke="midnightblue" points="927.761,-206.398 934.992,-198.655 924.511,-200.198 927.761,-206.398"/>
</g>
<!-- Node25 -->
<g id="node25" class="node"><title>Node25</title>
<polygon fill="none" stroke="#bfbfbf" points="995.5,-179.5 995.5,-198.5 1039.5,-198.5 1039.5,-179.5 995.5,-179.5"/>
<text text-anchor="middle" x="1017.5" y="-186.5" font-family="Helvetica,sans-Serif" font-size="10.00">vector</text>
</g>
<!-- Node23&#45;&gt;Node25 -->
<g id="edge31" class="edge"><title>Node23&#45;&gt;Node25</title>
<path fill="none" stroke="midnightblue" d="M875.279,-235.444C905.261,-225.863 953.815,-210.349 985.702,-200.16"/>
<polygon fill="midnightblue" stroke="midnightblue" points="986.964,-203.431 995.424,-197.054 984.834,-196.764 986.964,-203.431"/>
</g>
<!-- Node26 -->
<g id="node26" class="node"><title>Node26</title>
<polygon fill="none" stroke="#bfbfbf" points="759.5,-179.5 759.5,-198.5 809.5,-198.5 809.5,-179.5 759.5,-179.5"/>
<text text-anchor="middle" x="784.5" y="-186.5" font-family="Helvetica,sans-Serif" font-size="10.00">iomanip</text>
</g>
<!-- Node23&#45;&gt;Node26 -->
<g id="edge32" class="edge"><title>Node23&#45;&gt;Node26</title>
<path fill="none" stroke="midnightblue" d="M838.217,-235.324C828.664,-227.263 814.22,-215.077 802.716,-205.369"/>
<polygon fill="midnightblue" stroke="midnightblue" points="804.87,-202.608 794.97,-198.834 800.356,-207.958 804.87,-202.608"/>
</g>
<!-- Node27 -->
<g id="node27" class="node"><title>Node27</title>
<polygon fill="none" stroke="#bfbfbf" points="828,-179.5 828,-198.5 869,-198.5 869,-179.5 828,-179.5"/>
<text text-anchor="middle" x="848.5" y="-186.5" font-family="Helvetica,sans-Serif" font-size="10.00">bitset</text>
</g>
<!-- Node23&#45;&gt;Node27 -->
<g id="edge33" class="edge"><title>Node23&#45;&gt;Node27</title>
<path fill="none" stroke="midnightblue" d="M848.5,-235.083C848.5,-228.006 848.5,-217.861 848.5,-208.986"/>
<polygon fill="midnightblue" stroke="midnightblue" points="852,-208.751 848.5,-198.751 845,-208.751 852,-208.751"/>
</g>
</g>
</svg>
