<?xml version="1.0" encoding="UTF-8" standalone="no"?>
<!DOCTYPE svg PUBLIC "-//W3C//DTD SVG 1.1//EN"
 "http://www.w3.org/Graphics/SVG/1.1/DTD/svg11.dtd">
<!-- Generated by graphviz version 2.38.0 (20140413.2041)
 -->
<!-- Title: Framework/include/QualityControl/DatabaseInterface.h Pages: 1 -->
<!--zoomable 173 -->
<svg id="main" version="1.1" xmlns="http://www.w3.org/2000/svg" xmlns:xlink="http://www.w3.org/1999/xlink" xml:space="preserve" onload="init(evt)">
<style type="text/css"><![CDATA[
.edge:hover path { stroke: red; }
.edge:hover polygon { stroke: red; fill: red; }
]]></style>
<script type="text/javascript"><![CDATA[
var edges = document.getElementsByTagName('g');
if (edges && edges.length) {
  for (var i=0;i<edges.length;i++) {
    if (edges[i].id.substr(0,4)=='edge') {
      edges[i].setAttribute('class','edge');
    }
  }
}
]]></script>
        <defs>
                <circle id="rim" cx="0" cy="0" r="7"/>
                <circle id="rim2" cx="0" cy="0" r="3.5"/>
                <g id="zoomPlus">
                        <use xlink:href="#rim" fill="#404040">
                                <set attributeName="fill" to="#808080" begin="zoomplus.mouseover" end="zoomplus.mouseout"/>
                        </use>
                        <path d="M-4,0h8M0,-4v8" fill="none" stroke="white" stroke-width="1.5" pointer-events="none"/>
                </g>
                <g id="zoomMin">
                        <use xlink:href="#rim" fill="#404040">
                                <set attributeName="fill" to="#808080" begin="zoomminus.mouseover" end="zoomminus.mouseout"/>
                        </use>
                        <path d="M-4,0h8" fill="none" stroke="white" stroke-width="1.5" pointer-events="none"/>
                </g>
                <g id="dirArrow">
                        <path fill="none" stroke="white" stroke-width="1.5" d="M0,-3.0v7 M-2.5,-0.5L0,-3.0L2.5,-0.5"/>
                </g>
               <g id="resetDef">
                       <use xlink:href="#rim2" fill="#404040">
                               <set attributeName="fill" to="#808080" begin="reset.mouseover" end="reset.mouseout"/>
                       </use>
               </g>
        </defs>

<script type="text/javascript">
var viewWidth = 4549;
var viewHeight = 173;
var sectionId = 'dynsection-1';
</script>
<script xlink:href="svgpan.js"/>
<svg id="graph" class="graph">
<g id="viewport">
<title>Framework/include/QualityControl/DatabaseInterface.h</title>
<!-- Node1 -->
<g id="node1" class="node"><title>Node1</title>
<polygon fill="#bfbfbf" stroke="black" points="2883,-134.5 2883,-164.5 3023,-164.5 3023,-134.5 2883,-134.5"/>
<text text-anchor="start" x="2891" y="-152.5" font-family="Helvetica,sans-Serif" font-size="10.00">Framework/include/Quality</text>
<text text-anchor="middle" x="2953" y="-141.5" font-family="Helvetica,sans-Serif" font-size="10.00">Control/DatabaseInterface.h</text>
</g>
<!-- Node2 -->
<g id="node2" class="node"><title>Node2</title>
<g id="a_node2"><a xlink:href="CcdbDatabase_8h.html" target="_top" xlink:title="Framework/include/Quality\lControl/CcdbDatabase.h">
<polygon fill="none" stroke="black" points="592.5,-67.5 592.5,-97.5 725.5,-97.5 725.5,-67.5 592.5,-67.5"/>
<text text-anchor="start" x="600.5" y="-85.5" font-family="Helvetica,sans-Serif" font-size="10.00">Framework/include/Quality</text>
<text text-anchor="middle" x="659" y="-74.5" font-family="Helvetica,sans-Serif" font-size="10.00">Control/CcdbDatabase.h</text>
</a>
</g>
</g>
<!-- Node1&#45;&gt;Node2 -->
<g id="edge1" class="edge"><title>Node1&#45;&gt;Node2</title>
<path fill="none" stroke="midnightblue" d="M2872.76,-146.635C2611.54,-140.507 1761.82,-120.108 1059,-98 941.62,-94.3077 804.896,-89.1712 725.523,-86.1064"/>
<polygon fill="midnightblue" stroke="midnightblue" points="2872.83,-150.138 2882.91,-146.873 2872.99,-143.14 2872.83,-150.138"/>
</g>
<!-- Node9 -->
<g id="node9" class="node"><title>Node9</title>
<g id="a_node9"><a xlink:href="CheckRunner_8h.html" target="_top" xlink:title="Framework/include/Quality\lControl/CheckRunner.h">
<polygon fill="none" stroke="black" points="2421.5,-67.5 2421.5,-97.5 2554.5,-97.5 2554.5,-67.5 2421.5,-67.5"/>
<text text-anchor="start" x="2429.5" y="-85.5" font-family="Helvetica,sans-Serif" font-size="10.00">Framework/include/Quality</text>
<text text-anchor="middle" x="2488" y="-74.5" font-family="Helvetica,sans-Serif" font-size="10.00">Control/CheckRunner.h</text>
</a>
</g>
</g>
<!-- Node1&#45;&gt;Node9 -->
<g id="edge8" class="edge"><title>Node1&#45;&gt;Node9</title>
<path fill="none" stroke="midnightblue" d="M2872.73,-137.279C2782.75,-124.701 2638.49,-104.536 2554.54,-92.801"/>
<polygon fill="midnightblue" stroke="midnightblue" points="2872.49,-140.78 2882.88,-138.698 2873.46,-133.848 2872.49,-140.78"/>
</g>
<!-- Node20 -->
<g id="node20" class="node"><title>Node20</title>
<g id="a_node20"><a xlink:href="DatabaseFactory_8h.html" target="_top" xlink:title="Framework/include/Quality\lControl/DatabaseFactory.h">
<polygon fill="none" stroke="black" points="1345,-67.5 1345,-97.5 1479,-97.5 1479,-67.5 1345,-67.5"/>
<text text-anchor="start" x="1353" y="-85.5" font-family="Helvetica,sans-Serif" font-size="10.00">Framework/include/Quality</text>
<text text-anchor="middle" x="1412" y="-74.5" font-family="Helvetica,sans-Serif" font-size="10.00">Control/DatabaseFactory.h</text>
</a>
</g>
</g>
<!-- Node1&#45;&gt;Node20 -->
<g id="edge19" class="edge"><title>Node1&#45;&gt;Node20</title>
<path fill="none" stroke="midnightblue" d="M2872.66,-145.111C2602.32,-133.708 1728.67,-96.8572 1479.13,-86.3315"/>
<polygon fill="midnightblue" stroke="midnightblue" points="2872.64,-148.614 2882.78,-145.538 2872.94,-141.62 2872.64,-148.614"/>
</g>
<!-- Node24 -->
<g id="node24" class="node"><title>Node24</title>
<g id="a_node24"><a xlink:href="DummyDatabase_8h.html" target="_top" xlink:title="Framework/include/Quality\lControl/DummyDatabase.h">
<polygon fill="none" stroke="black" points="1068,-67.5 1068,-97.5 1204,-97.5 1204,-67.5 1068,-67.5"/>
<text text-anchor="start" x="1076" y="-85.5" font-family="Helvetica,sans-Serif" font-size="10.00">Framework/include/Quality</text>
<text text-anchor="middle" x="1136" y="-74.5" font-family="Helvetica,sans-Serif" font-size="10.00">Control/DummyDatabase.h</text>
</a>
</g>
</g>
<!-- Node1&#45;&gt;Node24 -->
<g id="edge28" class="edge"><title>Node1&#45;&gt;Node24</title>
<path fill="none" stroke="midnightblue" d="M2872.62,-147.16C2636.64,-142.974 1925.38,-128.556 1336,-98 1292.19,-95.729 1243.06,-92.1809 1204.45,-89.163"/>
<polygon fill="midnightblue" stroke="midnightblue" points="2872.76,-150.663 2882.82,-147.34 2872.89,-143.664 2872.76,-150.663"/>
</g>
<!-- Node26 -->
<g id="node26" class="node"><title>Node26</title>
<g id="a_node26"><a xlink:href="MySqlDatabase_8h.html" target="_top" xlink:title="Framework/include/Quality\lControl/MySqlDatabase.h">
<polygon fill="none" stroke="black" points="3119.5,-67.5 3119.5,-97.5 3252.5,-97.5 3252.5,-67.5 3119.5,-67.5"/>
<text text-anchor="start" x="3127.5" y="-85.5" font-family="Helvetica,sans-Serif" font-size="10.00">Framework/include/Quality</text>
<text text-anchor="middle" x="3186" y="-74.5" font-family="Helvetica,sans-Serif" font-size="10.00">Control/MySqlDatabase.h</text>
</a>
</g>
</g>
<!-- Node1&#45;&gt;Node26 -->
<g id="edge32" class="edge"><title>Node1&#45;&gt;Node26</title>
<path fill="none" stroke="midnightblue" d="M3013.17,-131.715C3051.08,-121.137 3099.49,-107.635 3135.42,-97.6109"/>
<polygon fill="midnightblue" stroke="midnightblue" points="3011.96,-128.418 3003.27,-134.476 3013.84,-135.16 3011.96,-128.418"/>
</g>
<!-- Node28 -->
<g id="node28" class="node"><title>Node28</title>
<g id="a_node28"><a xlink:href="PostProcessingRunner_8h.html" target="_top" xlink:title="Framework/include/Quality\lControl/PostProcessingRunner.h">
<polygon fill="none" stroke="black" points="2791,-67.5 2791,-97.5 2951,-97.5 2951,-67.5 2791,-67.5"/>
<text text-anchor="start" x="2799" y="-85.5" font-family="Helvetica,sans-Serif" font-size="10.00">Framework/include/Quality</text>
<text text-anchor="middle" x="2871" y="-74.5" font-family="Helvetica,sans-Serif" font-size="10.00">Control/PostProcessingRunner.h</text>
</a>
</g>
</g>
<!-- Node1&#45;&gt;Node28 -->
<g id="edge34" class="edge"><title>Node1&#45;&gt;Node28</title>
<path fill="none" stroke="midnightblue" d="M2927.35,-128.168C2914.81,-118.228 2900.03,-106.514 2888.76,-97.5765"/>
<polygon fill="midnightblue" stroke="midnightblue" points="2925.2,-130.927 2935.21,-134.396 2929.54,-125.441 2925.2,-130.927"/>
</g>
<!-- Node32 -->
<g id="node32" class="node"><title>Node32</title>
<g id="a_node32"><a xlink:href="RepositoryBenchmark_8h.html" target="_top" xlink:title="Framework/src/Repository\lBenchmark.h">
<polygon fill="none" stroke="black" points="2969,-67.5 2969,-97.5 3101,-97.5 3101,-67.5 2969,-67.5"/>
<text text-anchor="start" x="2977" y="-85.5" font-family="Helvetica,sans-Serif" font-size="10.00">Framework/src/Repository</text>
<text text-anchor="middle" x="3035" y="-74.5" font-family="Helvetica,sans-Serif" font-size="10.00">Benchmark.h</text>
</a>
</g>
</g>
<!-- Node1&#45;&gt;Node32 -->
<g id="edge39" class="edge"><title>Node1&#45;&gt;Node32</title>
<path fill="none" stroke="midnightblue" d="M2978.65,-128.168C2991.19,-118.228 3005.97,-106.514 3017.24,-97.5765"/>
<polygon fill="midnightblue" stroke="midnightblue" points="2976.46,-125.441 2970.79,-134.396 2980.8,-130.927 2976.46,-125.441"/>
</g>
<!-- Node34 -->
<g id="node34" class="node"><title>Node34</title>
<g id="a_node34"><a xlink:href="TrendingTask_8cxx.html" target="_top" xlink:title="Framework/src/TrendingTask.cxx">
<polygon fill="none" stroke="black" points="3270.5,-73 3270.5,-92 3433.5,-92 3433.5,-73 3270.5,-73"/>
<text text-anchor="middle" x="3352" y="-80" font-family="Helvetica,sans-Serif" font-size="10.00">Framework/src/TrendingTask.cxx</text>
</a>
</g>
</g>
<!-- Node1&#45;&gt;Node34 -->
<g id="edge42" class="edge"><title>Node1&#45;&gt;Node34</title>
<path fill="none" stroke="midnightblue" d="M3033.38,-135.406C3112.78,-122.47 3231.92,-103.063 3299.76,-92.0095"/>
<polygon fill="midnightblue" stroke="midnightblue" points="3032.72,-131.967 3023.41,-137.029 3033.85,-138.875 3032.72,-131.967"/>
</g>
<!-- Node35 -->
<g id="node35" class="node"><title>Node35</title>
<g id="a_node35"><a xlink:href="TrendingTaskITSFhr_8cxx.html" target="_top" xlink:title="Modules/ITS/src/Trending\lTaskITSFhr.cxx">
<polygon fill="none" stroke="black" points="3451.5,-67.5 3451.5,-97.5 3580.5,-97.5 3580.5,-67.5 3451.5,-67.5"/>
<text text-anchor="start" x="3459.5" y="-85.5" font-family="Helvetica,sans-Serif" font-size="10.00">Modules/ITS/src/Trending</text>
<text text-anchor="middle" x="3516" y="-74.5" font-family="Helvetica,sans-Serif" font-size="10.00">TaskITSFhr.cxx</text>
</a>
</g>
</g>
<!-- Node1&#45;&gt;Node35 -->
<g id="edge43" class="edge"><title>Node1&#45;&gt;Node35</title>
<path fill="none" stroke="midnightblue" d="M3033.1,-142.555C3130.36,-134.805 3299.25,-119.636 3443,-98 3445.68,-97.5961 3448.42,-97.161 3451.18,-96.7024"/>
<polygon fill="midnightblue" stroke="midnightblue" points="3032.74,-139.073 3023.04,-143.35 3033.29,-146.051 3032.74,-139.073"/>
</g>
<!-- Node36 -->
<g id="node36" class="node"><title>Node36</title>
<g id="a_node36"><a xlink:href="TrendingTaskITSThr_8cxx.html" target="_top" xlink:title="Modules/ITS/src/Trending\lTaskITSThr.cxx">
<polygon fill="none" stroke="black" points="3598.5,-67.5 3598.5,-97.5 3727.5,-97.5 3727.5,-67.5 3598.5,-67.5"/>
<text text-anchor="start" x="3606.5" y="-85.5" font-family="Helvetica,sans-Serif" font-size="10.00">Modules/ITS/src/Trending</text>
<text text-anchor="middle" x="3663" y="-74.5" font-family="Helvetica,sans-Serif" font-size="10.00">TaskITSThr.cxx</text>
</a>
</g>
</g>
<!-- Node1&#45;&gt;Node36 -->
<g id="edge44" class="edge"><title>Node1&#45;&gt;Node36</title>
<path fill="none" stroke="midnightblue" d="M3033.33,-145.149C3154.46,-139.416 3390.86,-125.575 3590,-98 3592.69,-97.6278 3595.43,-97.2191 3598.19,-96.7824"/>
<polygon fill="midnightblue" stroke="midnightblue" points="3032.87,-141.667 3023.04,-145.63 3033.19,-148.659 3032.87,-141.667"/>
</g>
<!-- Node3 -->
<g id="node3" class="node"><title>Node3</title>
<g id="a_node3"><a xlink:href="CcdbDatabase_8cxx.html" target="_top" xlink:title="Framework/src/CcdbDatabase.cxx">
<polygon fill="none" stroke="black" points="206.5,-6 206.5,-25 375.5,-25 375.5,-6 206.5,-6"/>
<text text-anchor="middle" x="291" y="-13" font-family="Helvetica,sans-Serif" font-size="10.00">Framework/src/CcdbDatabase.cxx</text>
</a>
</g>
</g>
<!-- Node2&#45;&gt;Node3 -->
<g id="edge2" class="edge"><title>Node2&#45;&gt;Node3</title>
<path fill="none" stroke="midnightblue" d="M582.271,-67.9473C509.088,-55.0209 401.116,-35.9498 339.259,-25.0241"/>
<polygon fill="midnightblue" stroke="midnightblue" points="581.902,-71.4362 592.358,-69.729 583.119,-64.5429 581.902,-71.4362"/>
</g>
<!-- Node4 -->
<g id="node4" class="node"><title>Node4</title>
<g id="a_node4"><a xlink:href="DatabaseFactory_8cxx.html" target="_top" xlink:title="Framework/src/DatabaseFactory.cxx">
<polygon fill="none" stroke="black" points="569.5,-6 569.5,-25 748.5,-25 748.5,-6 569.5,-6"/>
<text text-anchor="middle" x="659" y="-13" font-family="Helvetica,sans-Serif" font-size="10.00">Framework/src/DatabaseFactory.cxx</text>
</a>
</g>
</g>
<!-- Node2&#45;&gt;Node4 -->
<g id="edge3" class="edge"><title>Node2&#45;&gt;Node4</title>
<path fill="none" stroke="midnightblue" d="M659,-57.2495C659,-46.017 659,-33.3767 659,-25.1945"/>
<polygon fill="midnightblue" stroke="midnightblue" points="655.5,-57.3959 659,-67.396 662.5,-57.396 655.5,-57.3959"/>
</g>
<!-- Node5 -->
<g id="node5" class="node"><title>Node5</title>
<g id="a_node5"><a xlink:href="testCcdbDatabase_8cxx.html" target="_top" xlink:title="Framework/test/testCcdbDatabase.cxx">
<polygon fill="none" stroke="black" points="0,-6 0,-25 188,-25 188,-6 0,-6"/>
<text text-anchor="middle" x="94" y="-13" font-family="Helvetica,sans-Serif" font-size="10.00">Framework/test/testCcdbDatabase.cxx</text>
</a>
</g>
</g>
<!-- Node2&#45;&gt;Node5 -->
<g id="edge4" class="edge"><title>Node2&#45;&gt;Node5</title>
<path fill="none" stroke="midnightblue" d="M582.332,-73.8538C490.605,-64.5362 332.433,-47.9307 197,-31 182.486,-29.1856 166.845,-27.0677 152.243,-25.02"/>
<polygon fill="midnightblue" stroke="midnightblue" points="582.061,-77.3442 592.363,-74.8706 582.767,-70.3799 582.061,-77.3442"/>
</g>
<!-- Node6 -->
<g id="node6" class="node"><title>Node6</title>
<g id="a_node6"><a xlink:href="testCcdbDatabaseExtra_8cxx.html" target="_top" xlink:title="Framework/test/testCcdbDatabase\lExtra.cxx">
<polygon fill="none" stroke="black" points="767,-0.5 767,-30.5 937,-30.5 937,-0.5 767,-0.5"/>
<text text-anchor="start" x="775" y="-18.5" font-family="Helvetica,sans-Serif" font-size="10.00">Framework/test/testCcdbDatabase</text>
<text text-anchor="middle" x="852" y="-7.5" font-family="Helvetica,sans-Serif" font-size="10.00">Extra.cxx</text>
</a>
</g>
</g>
<!-- Node2&#45;&gt;Node6 -->
<g id="edge5" class="edge"><title>Node2&#45;&gt;Node6</title>
<path fill="none" stroke="midnightblue" d="M710.689,-64.0917C741.845,-53.5988 781.011,-40.4082 810.204,-30.5765"/>
<polygon fill="midnightblue" stroke="midnightblue" points="709.238,-60.8872 700.878,-67.396 711.472,-67.5211 709.238,-60.8872"/>
</g>
<!-- Node7 -->
<g id="node7" class="node"><title>Node7</title>
<g id="a_node7"><a xlink:href="testDbFactory_8cxx.html" target="_top" xlink:title="Framework/test/testDbFactory.cxx">
<polygon fill="none" stroke="black" points="955.5,-6 955.5,-25 1124.5,-25 1124.5,-6 955.5,-6"/>
<text text-anchor="middle" x="1040" y="-13" font-family="Helvetica,sans-Serif" font-size="10.00">Framework/test/testDbFactory.cxx</text>
</a>
</g>
</g>
<!-- Node2&#45;&gt;Node7 -->
<g id="edge6" class="edge"><title>Node2&#45;&gt;Node7</title>
<path fill="none" stroke="midnightblue" d="M735.771,-68.4026C811.547,-55.4748 925.197,-36.0859 990,-25.0302"/>
<polygon fill="midnightblue" stroke="midnightblue" points="735.07,-64.9715 725.801,-70.1035 736.247,-71.8718 735.07,-64.9715"/>
</g>
<!-- Node8 -->
<g id="node8" class="node"><title>Node8</title>
<g id="a_node8"><a xlink:href="testTriggers_8cxx.html" target="_top" xlink:title="Framework/test/testTriggers.cxx">
<polygon fill="none" stroke="black" points="393,-6 393,-25 551,-25 551,-6 393,-6"/>
<text text-anchor="middle" x="472" y="-13" font-family="Helvetica,sans-Serif" font-size="10.00">Framework/test/testTriggers.cxx</text>
</a>
</g>
</g>
<!-- Node2&#45;&gt;Node8 -->
<g id="edge7" class="edge"><title>Node2&#45;&gt;Node8</title>
<path fill="none" stroke="midnightblue" d="M608.963,-64.1075C572.584,-51.4622 524.913,-34.8923 496.474,-25.007"/>
<polygon fill="midnightblue" stroke="midnightblue" points="607.829,-67.4186 618.424,-67.396 610.127,-60.8067 607.829,-67.4186"/>
</g>
<!-- Node10 -->
<g id="node10" class="node"><title>Node10</title>
<g id="a_node10"><a xlink:href="CheckRunner_8cxx.html" target="_top" xlink:title="Framework/src/CheckRunner.cxx">
<polygon fill="none" stroke="black" points="1501,-6 1501,-25 1665,-25 1665,-6 1501,-6"/>
<text text-anchor="middle" x="1583" y="-13" font-family="Helvetica,sans-Serif" font-size="10.00">Framework/src/CheckRunner.cxx</text>
</a>
</g>
</g>
<!-- Node9&#45;&gt;Node10 -->
<g id="edge9" class="edge"><title>Node9&#45;&gt;Node10</title>
<path fill="none" stroke="midnightblue" d="M2411.24,-79.1963C2266.63,-74.3114 1944.06,-60.8236 1674,-31 1660.01,-29.4547 1644.88,-27.2584 1631.05,-25.0413"/>
<polygon fill="midnightblue" stroke="midnightblue" points="2411.23,-82.6979 2421.34,-79.5333 2411.46,-75.7018 2411.23,-82.6979"/>
</g>
<!-- Node11 -->
<g id="node11" class="node"><title>Node11</title>
<g id="a_node11"><a xlink:href="CheckRunnerFactory_8cxx.html" target="_top" xlink:title="Framework/src/CheckRunner\lFactory.cxx">
<polygon fill="none" stroke="black" points="1985.5,-0.5 1985.5,-30.5 2130.5,-30.5 2130.5,-0.5 1985.5,-0.5"/>
<text text-anchor="start" x="1993.5" y="-18.5" font-family="Helvetica,sans-Serif" font-size="10.00">Framework/src/CheckRunner</text>
<text text-anchor="middle" x="2058" y="-7.5" font-family="Helvetica,sans-Serif" font-size="10.00">Factory.cxx</text>
</a>
</g>
</g>
<!-- Node9&#45;&gt;Node11 -->
<g id="edge10" class="edge"><title>Node9&#45;&gt;Node11</title>
<path fill="none" stroke="midnightblue" d="M2411.05,-71.0291C2340.47,-61.259 2233.07,-45.9775 2140,-31 2137,-30.5176 2133.95,-30.0168 2130.86,-29.5038"/>
<polygon fill="midnightblue" stroke="midnightblue" points="2410.81,-74.5286 2421.19,-72.43 2411.77,-67.5945 2410.81,-74.5286"/>
</g>
<!-- Node12 -->
<g id="node12" class="node"><title>Node12</title>
<g id="a_node12"><a xlink:href="InfrastructureGenerator_8cxx.html" target="_top" xlink:title="Framework/src/Infrastructure\lGenerator.cxx">
<polygon fill="none" stroke="black" points="3119.5,-0.5 3119.5,-30.5 3262.5,-30.5 3262.5,-0.5 3119.5,-0.5"/>
<text text-anchor="start" x="3127.5" y="-18.5" font-family="Helvetica,sans-Serif" font-size="10.00">Framework/src/Infrastructure</text>
<text text-anchor="middle" x="3191" y="-7.5" font-family="Helvetica,sans-Serif" font-size="10.00">Generator.cxx</text>
</a>
</g>
</g>
<!-- Node9&#45;&gt;Node12 -->
<g id="edge11" class="edge"><title>Node9&#45;&gt;Node12</title>
<path fill="none" stroke="midnightblue" d="M2564.96,-77.6371C2682.71,-71.1887 2914.52,-56.373 3110,-31 3112.98,-30.6138 3116.01,-30.1935 3119.07,-29.7471"/>
<polygon fill="midnightblue" stroke="midnightblue" points="2564.75,-74.143 2554.96,-78.1796 2565.13,-81.1327 2564.75,-74.143"/>
</g>
<!-- Node13 -->
<g id="node13" class="node"><title>Node13</title>
<g id="a_node13"><a xlink:href="runBasic_8cxx.html" target="_top" xlink:title="This is an executable showing QC Task&#39;s usage in Data Processing Layer. ">
<polygon fill="none" stroke="black" points="3463,-6 3463,-25 3605,-25 3605,-6 3463,-6"/>
<text text-anchor="middle" x="3534" y="-13" font-family="Helvetica,sans-Serif" font-size="10.00">Framework/src/runBasic.cxx</text>
</a>
</g>
</g>
<!-- Node9&#45;&gt;Node13 -->
<g id="edge12" class="edge"><title>Node9&#45;&gt;Node13</title>
<path fill="none" stroke="midnightblue" d="M2564.6,-77.6256C2789.24,-66.2461 3431.99,-33.5597 3454,-31 3466.62,-29.5326 3480.25,-27.3048 3492.63,-25.0327"/>
<polygon fill="midnightblue" stroke="midnightblue" points="2564.35,-74.1335 2554.54,-78.135 2564.7,-81.1245 2564.35,-74.1335"/>
</g>
<!-- Node14 -->
<g id="node14" class="node"><title>Node14</title>
<g id="a_node14"><a xlink:href="testCheckRunner_8cxx.html" target="_top" xlink:title="Framework/test/testCheck\lRunner.cxx">
<polygon fill="none" stroke="black" points="1683.5,-0.5 1683.5,-30.5 1816.5,-30.5 1816.5,-0.5 1683.5,-0.5"/>
<text text-anchor="start" x="1691.5" y="-18.5" font-family="Helvetica,sans-Serif" font-size="10.00">Framework/test/testCheck</text>
<text text-anchor="middle" x="1750" y="-7.5" font-family="Helvetica,sans-Serif" font-size="10.00">Runner.cxx</text>
</a>
</g>
</g>
<!-- Node9&#45;&gt;Node14 -->
<g id="edge13" class="edge"><title>Node9&#45;&gt;Node14</title>
<path fill="none" stroke="midnightblue" d="M2411.26,-78.5221C2287.45,-73.0749 2036.16,-59.3581 1825,-31 1822.24,-30.6293 1819.43,-30.2219 1816.59,-29.7862"/>
<polygon fill="midnightblue" stroke="midnightblue" points="2411.25,-82.025 2421.39,-78.962 2411.55,-75.0316 2411.25,-82.025"/>
</g>
<!-- Node15 -->
<g id="node15" class="node"><title>Node15</title>
<g id="a_node15"><a xlink:href="testCheckWorkflow_8cxx.html" target="_top" xlink:title="Framework/test/testCheck\lWorkflow.cxx">
<polygon fill="none" stroke="black" points="1834.5,-0.5 1834.5,-30.5 1967.5,-30.5 1967.5,-0.5 1834.5,-0.5"/>
<text text-anchor="start" x="1842.5" y="-18.5" font-family="Helvetica,sans-Serif" font-size="10.00">Framework/test/testCheck</text>
<text text-anchor="middle" x="1901" y="-7.5" font-family="Helvetica,sans-Serif" font-size="10.00">Workflow.cxx</text>
</a>
</g>
</g>
<!-- Node9&#45;&gt;Node15 -->
<g id="edge14" class="edge"><title>Node9&#45;&gt;Node15</title>
<path fill="none" stroke="midnightblue" d="M2411.44,-76.1738C2311.1,-68.6852 2129.81,-53.4052 1976,-31 1973.24,-30.5986 1970.44,-30.1654 1967.6,-29.7085"/>
<polygon fill="midnightblue" stroke="midnightblue" points="2411.25,-79.6696 2421.48,-76.9177 2411.77,-72.6887 2411.25,-79.6696"/>
</g>
<!-- Node16 -->
<g id="node16" class="node"><title>Node16</title>
<g id="a_node16"><a xlink:href="testWorkflow_8cxx.html" target="_top" xlink:title="Framework/test/testWorkflow.cxx">
<polygon fill="none" stroke="black" points="3281,-6 3281,-25 3445,-25 3445,-6 3281,-6"/>
<text text-anchor="middle" x="3363" y="-13" font-family="Helvetica,sans-Serif" font-size="10.00">Framework/test/testWorkflow.cxx</text>
</a>
</g>
</g>
<!-- Node9&#45;&gt;Node16 -->
<g id="edge15" class="edge"><title>Node9&#45;&gt;Node16</title>
<path fill="none" stroke="midnightblue" d="M2564.89,-77.4685C2734.52,-68.424 3136.51,-46.125 3272,-31 3285.99,-29.4382 3301.12,-27.2367 3314.94,-25.0199"/>
<polygon fill="midnightblue" stroke="midnightblue" points="2564.59,-73.9795 2554.79,-78.006 2564.96,-80.9696 2564.59,-73.9795"/>
</g>
<!-- Node17 -->
<g id="node17" class="node"><title>Node17</title>
<polygon fill="none" stroke="#bfbfbf" points="2149,-6 2149,-25 2367,-25 2367,-6 2149,-6"/>
<text text-anchor="middle" x="2258" y="-13" font-family="Helvetica,sans-Serif" font-size="10.00">Modules/EMCAL/src/runQCEMCALDigits.cxx</text>
</g>
<!-- Node9&#45;&gt;Node17 -->
<g id="edge16" class="edge"><title>Node9&#45;&gt;Node17</title>
<path fill="none" stroke="midnightblue" d="M2428.73,-64.7505C2383.75,-52.038 2323.76,-35.0851 2288.18,-25.0287"/>
<polygon fill="midnightblue" stroke="midnightblue" points="2427.8,-68.1244 2438.38,-67.476 2429.71,-61.3883 2427.8,-68.1244"/>
</g>
<!-- Node18 -->
<g id="node18" class="node"><title>Node18</title>
<polygon fill="none" stroke="#bfbfbf" points="2385,-6 2385,-25 2591,-25 2591,-6 2385,-6"/>
<text text-anchor="middle" x="2488" y="-13" font-family="Helvetica,sans-Serif" font-size="10.00">Modules/PHOS/src/runQCPHOSDigits.cxx</text>
</g>
<!-- Node9&#45;&gt;Node18 -->
<g id="edge17" class="edge"><title>Node9&#45;&gt;Node18</title>
<path fill="none" stroke="midnightblue" d="M2488,-57.2495C2488,-46.017 2488,-33.3767 2488,-25.1945"/>
<polygon fill="midnightblue" stroke="midnightblue" points="2484.5,-57.3959 2488,-67.396 2491.5,-57.396 2484.5,-57.3959"/>
</g>
<!-- Node19 -->
<g id="node19" class="node"><title>Node19</title>
<polygon fill="none" stroke="#bfbfbf" points="2781,-0.5 2781,-30.5 2951,-30.5 2951,-0.5 2781,-0.5"/>
<text text-anchor="start" x="2789" y="-18.5" font-family="Helvetica,sans-Serif" font-size="10.00">Modules/TPC/run/runTPCQCTrack</text>
<text text-anchor="middle" x="2866" y="-7.5" font-family="Helvetica,sans-Serif" font-size="10.00">Reader.cxx</text>
</g>
<!-- Node9&#45;&gt;Node19 -->
<g id="edge18" class="edge"><title>Node9&#45;&gt;Node19</title>
<path fill="none" stroke="midnightblue" d="M2564.72,-68.307C2628.6,-57.3223 2719.33,-41.7218 2784.5,-30.5148"/>
<polygon fill="midnightblue" stroke="midnightblue" points="2563.97,-64.8848 2554.71,-70.0289 2565.16,-71.7835 2563.97,-64.8848"/>
</g>
<!-- Node20&#45;&gt;Node4 -->
<g id="edge21" class="edge"><title>Node20&#45;&gt;Node4</title>
<path fill="none" stroke="midnightblue" d="M1334.6,-75.8227C1173.82,-63.9863 813.96,-37.2513 758,-31 743.24,-29.3511 727.296,-27.1863 712.605,-25.034"/>
<polygon fill="midnightblue" stroke="midnightblue" points="1334.67,-79.337 1344.9,-76.5804 1335.18,-72.3559 1334.67,-79.337"/>
</g>
<!-- Node20&#45;&gt;Node6 -->
<g id="edge24" class="edge"><title>Node20&#45;&gt;Node6</title>
<path fill="none" stroke="midnightblue" d="M1334.63,-74.1929C1242.07,-65.2025 1082.48,-48.9129 946,-31 943.053,-30.6132 940.056,-30.2092 937.03,-29.7921"/>
<polygon fill="midnightblue" stroke="midnightblue" points="1334.46,-77.6929 1344.75,-75.1729 1335.13,-70.7254 1334.46,-77.6929"/>
</g>
<!-- Node20&#45;&gt;Node7 -->
<g id="edge25" class="edge"><title>Node20&#45;&gt;Node7</title>
<path fill="none" stroke="midnightblue" d="M1334.44,-67.9473C1260.46,-55.0209 1151.31,-35.9498 1088.78,-25.0241"/>
<polygon fill="midnightblue" stroke="midnightblue" points="1334.18,-71.4554 1344.63,-69.729 1335.39,-64.5599 1334.18,-71.4554"/>
</g>
<!-- Node20&#45;&gt;Node8 -->
<g id="edge27" class="edge"><title>Node20&#45;&gt;Node8</title>
<path fill="none" stroke="midnightblue" d="M1334.61,-75.5419C1297.79,-72.7886 1253.13,-69.568 1213,-67 922.93,-48.4378 848.932,-62.6744 560,-31 546.301,-29.4983 531.492,-27.2882 517.999,-25.0438"/>
<polygon fill="midnightblue" stroke="midnightblue" points="1334.54,-79.0468 1344.78,-76.3052 1335.07,-72.0664 1334.54,-79.0468"/>
</g>
<!-- Node20&#45;&gt;Node10 -->
<g id="edge20" class="edge"><title>Node20&#45;&gt;Node10</title>
<path fill="none" stroke="midnightblue" d="M1458.61,-63.7838C1491.76,-51.1807 1534.84,-34.8082 1560.62,-25.007"/>
<polygon fill="midnightblue" stroke="midnightblue" points="1457.21,-60.5712 1449.1,-67.396 1459.7,-67.1144 1457.21,-60.5712"/>
</g>
<!-- Node21 -->
<g id="node21" class="node"><title>Node21</title>
<polygon fill="none" stroke="#bfbfbf" points="2609,-0.5 2609,-30.5 2763,-30.5 2763,-0.5 2609,-0.5"/>
<text text-anchor="start" x="2617" y="-18.5" font-family="Helvetica,sans-Serif" font-size="10.00">Framework/src/PostProcessing</text>
<text text-anchor="middle" x="2686" y="-7.5" font-family="Helvetica,sans-Serif" font-size="10.00">Runner.cxx</text>
</g>
<!-- Node20&#45;&gt;Node21 -->
<g id="edge22" class="edge"><title>Node20&#45;&gt;Node21</title>
<path fill="none" stroke="midnightblue" d="M1489.35,-81.5398C1679.13,-80.9143 2182.7,-74.8765 2600,-31 2602.86,-30.6992 2605.77,-30.3631 2608.71,-29.9988"/>
<polygon fill="midnightblue" stroke="midnightblue" points="1489.19,-78.0401 1479.2,-81.569 1489.21,-85.0401 1489.19,-78.0401"/>
</g>
<!-- Node22 -->
<g id="node22" class="node"><title>Node22</title>
<g id="a_node22"><a xlink:href="RepositoryBenchmark_8cxx.html" target="_top" xlink:title="Framework/src/Repository\lBenchmark.cxx">
<polygon fill="none" stroke="black" points="2969,-0.5 2969,-30.5 3101,-30.5 3101,-0.5 2969,-0.5"/>
<text text-anchor="start" x="2977" y="-18.5" font-family="Helvetica,sans-Serif" font-size="10.00">Framework/src/Repository</text>
<text text-anchor="middle" x="3035" y="-7.5" font-family="Helvetica,sans-Serif" font-size="10.00">Benchmark.cxx</text>
</a>
</g>
</g>
<!-- Node20&#45;&gt;Node22 -->
<g id="edge23" class="edge"><title>Node20&#45;&gt;Node22</title>
<path fill="none" stroke="midnightblue" d="M1489.26,-80.5995C1760.76,-77.1817 2670.29,-63.5234 2960,-31 2962.9,-30.6745 2965.85,-30.2979 2968.83,-29.8813"/>
<polygon fill="midnightblue" stroke="midnightblue" points="1489.06,-77.1016 1479.11,-80.7263 1489.15,-84.101 1489.06,-77.1016"/>
</g>
<!-- Node23 -->
<g id="node23" class="node"><title>Node23</title>
<g id="a_node23"><a xlink:href="testTrendingTask_8cxx.html" target="_top" xlink:title="Framework/test/testTrending\lTask.cxx">
<polygon fill="none" stroke="black" points="1341,-0.5 1341,-30.5 1483,-30.5 1483,-0.5 1341,-0.5"/>
<text text-anchor="start" x="1349" y="-18.5" font-family="Helvetica,sans-Serif" font-size="10.00">Framework/test/testTrending</text>
<text text-anchor="middle" x="1412" y="-7.5" font-family="Helvetica,sans-Serif" font-size="10.00">Task.cxx</text>
</a>
</g>
</g>
<!-- Node20&#45;&gt;Node23 -->
<g id="edge26" class="edge"><title>Node20&#45;&gt;Node23</title>
<path fill="none" stroke="midnightblue" d="M1412,-57.1081C1412,-48.1539 1412,-38.3227 1412,-30.5765"/>
<polygon fill="midnightblue" stroke="midnightblue" points="1408.5,-57.3959 1412,-67.396 1415.5,-57.396 1408.5,-57.3959"/>
</g>
<!-- Node24&#45;&gt;Node4 -->
<g id="edge29" class="edge"><title>Node24&#45;&gt;Node4</title>
<path fill="none" stroke="midnightblue" d="M1057.64,-71.3249C981.169,-61.3249 861.539,-45.4981 758,-31 744.496,-29.109 729.964,-27.0144 716.306,-25.0187"/>
<polygon fill="midnightblue" stroke="midnightblue" points="1057.31,-74.8108 1067.68,-72.6359 1058.22,-67.8698 1057.31,-74.8108"/>
</g>
<!-- Node24&#45;&gt;Node7 -->
<g id="edge31" class="edge"><title>Node24&#45;&gt;Node7</title>
<path fill="none" stroke="midnightblue" d="M1106.67,-61.6409C1088.55,-49.3742 1066.23,-34.2613 1052.56,-25.007"/>
<polygon fill="midnightblue" stroke="midnightblue" points="1104.93,-64.6875 1115.17,-67.396 1108.85,-58.8912 1104.93,-64.6875"/>
</g>
<!-- Node25 -->
<g id="node25" class="node"><title>Node25</title>
<g id="a_node25"><a xlink:href="DummyDatabase_8cxx.html" target="_top" xlink:title="Framework/src/DummyDatabase.cxx">
<polygon fill="none" stroke="black" points="1143,-6 1143,-25 1323,-25 1323,-6 1143,-6"/>
<text text-anchor="middle" x="1233" y="-13" font-family="Helvetica,sans-Serif" font-size="10.00">Framework/src/DummyDatabase.cxx</text>
</a>
</g>
</g>
<!-- Node24&#45;&gt;Node25 -->
<g id="edge30" class="edge"><title>Node24&#45;&gt;Node25</title>
<path fill="none" stroke="midnightblue" d="M1165.64,-61.6409C1183.94,-49.3742 1206.49,-34.2613 1220.3,-25.007"/>
<polygon fill="midnightblue" stroke="midnightblue" points="1163.41,-58.9216 1157.05,-67.396 1167.3,-64.7367 1163.41,-58.9216"/>
</g>
<!-- Node27 -->
<g id="node27" class="node"><title>Node27</title>
<g id="a_node27"><a xlink:href="MySqlDatabase_8cxx.html" target="_top" xlink:title="Framework/src/MySqlDatabase.cxx">
<polygon fill="none" stroke="black" points="4367.5,-6 4367.5,-25 4540.5,-25 4540.5,-6 4367.5,-6"/>
<text text-anchor="middle" x="4454" y="-13" font-family="Helvetica,sans-Serif" font-size="10.00">Framework/src/MySqlDatabase.cxx</text>
</a>
</g>
</g>
<!-- Node26&#45;&gt;Node27 -->
<g id="edge33" class="edge"><title>Node26&#45;&gt;Node27</title>
<path fill="none" stroke="midnightblue" d="M3262.71,-67.0664C3748.13,-14.0146 3875.98,-75.1663 4358,-31 4373.27,-29.6004 4389.82,-27.3637 4404.8,-25.0618"/>
<polygon fill="midnightblue" stroke="midnightblue" points="3262.19,-63.6023 3252.64,-68.1781 3262.96,-70.56 3262.19,-63.6023"/>
</g>
<!-- Node28&#45;&gt;Node21 -->
<g id="edge35" class="edge"><title>Node28&#45;&gt;Node21</title>
<path fill="none" stroke="midnightblue" d="M2821.06,-63.9553C2791.26,-53.4847 2753.93,-40.3656 2726.06,-30.5765"/>
<polygon fill="midnightblue" stroke="midnightblue" points="2820.26,-67.3832 2830.86,-67.396 2822.58,-60.7789 2820.26,-67.3832"/>
</g>
<!-- Node29 -->
<g id="node29" class="node"><title>Node29</title>
<g id="a_node29"><a xlink:href="runPostProcessing_8cxx.html" target="_top" xlink:title="This is a standalone executable to run postprocessing. ">
<polygon fill="none" stroke="black" points="3623,-6 3623,-25 3809,-25 3809,-6 3623,-6"/>
<text text-anchor="middle" x="3716" y="-13" font-family="Helvetica,sans-Serif" font-size="10.00">Framework/src/runPostProcessing.cxx</text>
</a>
</g>
</g>
<!-- Node28&#45;&gt;Node29 -->
<g id="edge36" class="edge"><title>Node28&#45;&gt;Node29</title>
<path fill="none" stroke="midnightblue" d="M2961.43,-66.9225C3251.11,-36.0818 3327.55,-59.1917 3614,-31 3629.75,-29.4496 3646.8,-27.2383 3662.37,-25.0082"/>
<polygon fill="midnightblue" stroke="midnightblue" points="2961.05,-63.4437 2951.48,-67.9944 2961.8,-70.4035 2961.05,-63.4437"/>
</g>
<!-- Node30 -->
<g id="node30" class="node"><title>Node30</title>
<g id="a_node30"><a xlink:href="runPostProcessingOCC_8cxx.html" target="_top" xlink:title="This is an OCC executable to run postprocessing. ">
<polygon fill="none" stroke="black" points="3826.5,-0.5 3826.5,-30.5 3993.5,-30.5 3993.5,-0.5 3826.5,-0.5"/>
<text text-anchor="start" x="3834.5" y="-18.5" font-family="Helvetica,sans-Serif" font-size="10.00">Framework/src/runPostProcessing</text>
<text text-anchor="middle" x="3910" y="-7.5" font-family="Helvetica,sans-Serif" font-size="10.00">OCC.cxx</text>
</a>
</g>
</g>
<!-- Node28&#45;&gt;Node30 -->
<g id="edge37" class="edge"><title>Node28&#45;&gt;Node30</title>
<path fill="none" stroke="midnightblue" d="M2961.64,-66.9186C3341.45,-28.9507 3441.54,-68.4402 3818,-31 3820.74,-30.728 3823.51,-30.4281 3826.32,-30.1053"/>
<polygon fill="midnightblue" stroke="midnightblue" points="2961.07,-63.4585 2951.47,-67.9469 2961.77,-70.423 2961.07,-63.4585"/>
</g>
<!-- Node31 -->
<g id="node31" class="node"><title>Node31</title>
<g id="a_node31"><a xlink:href="testPostProcessingRunner_8cxx.html" target="_top" xlink:title="Framework/test/testPostProcessing\lRunner.cxx">
<polygon fill="none" stroke="black" points="4011.5,-0.5 4011.5,-30.5 4184.5,-30.5 4184.5,-0.5 4011.5,-0.5"/>
<text text-anchor="start" x="4019.5" y="-18.5" font-family="Helvetica,sans-Serif" font-size="10.00">Framework/test/testPostProcessing</text>
<text text-anchor="middle" x="4098" y="-7.5" font-family="Helvetica,sans-Serif" font-size="10.00">Runner.cxx</text>
</a>
</g>
</g>
<!-- Node28&#45;&gt;Node31 -->
<g id="edge38" class="edge"><title>Node28&#45;&gt;Node31</title>
<path fill="none" stroke="midnightblue" d="M2961.74,-66.9183C3423.38,-22.3794 3544.55,-73.7506 4003,-31 4005.74,-30.7444 4008.52,-30.4615 4011.33,-30.1559"/>
<polygon fill="midnightblue" stroke="midnightblue" points="2961.08,-63.466 2951.47,-67.9199 2961.76,-70.433 2961.08,-63.466"/>
</g>
<!-- Node32&#45;&gt;Node22 -->
<g id="edge40" class="edge"><title>Node32&#45;&gt;Node22</title>
<path fill="none" stroke="midnightblue" d="M3035,-57.1081C3035,-48.1539 3035,-38.3227 3035,-30.5765"/>
<polygon fill="midnightblue" stroke="midnightblue" points="3031.5,-57.3959 3035,-67.396 3038.5,-57.396 3031.5,-57.3959"/>
</g>
<!-- Node33 -->
<g id="node33" class="node"><title>Node33</title>
<g id="a_node33"><a xlink:href="runRepositoryBenchmark_8cxx.html" target="_top" xlink:title="Framework/src/runRepository\lBenchmark.cxx">
<polygon fill="none" stroke="black" points="4203,-0.5 4203,-30.5 4349,-30.5 4349,-0.5 4203,-0.5"/>
<text text-anchor="start" x="4211" y="-18.5" font-family="Helvetica,sans-Serif" font-size="10.00">Framework/src/runRepository</text>
<text text-anchor="middle" x="4276" y="-7.5" font-family="Helvetica,sans-Serif" font-size="10.00">Benchmark.cxx</text>
</a>
</g>
</g>
<!-- Node32&#45;&gt;Node33 -->
<g id="edge41" class="edge"><title>Node32&#45;&gt;Node33</title>
<path fill="none" stroke="midnightblue" d="M3111.12,-67.0093C3590.75,-14.0063 3717.84,-80.752 4194,-31 4196.88,-30.6995 4199.8,-30.3575 4202.76,-29.9822"/>
<polygon fill="midnightblue" stroke="midnightblue" points="3110.72,-63.5326 3101.17,-68.1208 3111.49,-70.4894 3110.72,-63.5326"/>
</g>
</g>
</svg>
        <g id="navigator" transform="translate(0 0)" fill="#404254">
                <rect fill="#f2f5e9" fill-opacity="0.5" stroke="#606060" stroke-width=".5" x="0" y="0" width="60" height="60"/>
                <use id="zoomplus" xlink:href="#zoomPlus" x="17" y="9" onmousedown="handleZoom(evt,'in')"/>
                <use id="zoomminus" xlink:href="#zoomMin" x="42" y="9" onmousedown="handleZoom(evt,'out')"/>
                <use id="reset" xlink:href="#resetDef" x="30" y="36" onmousedown="handleReset()"/>
                <g id="arrowUp" xlink:href="#dirArrow" transform="translate(30 24)" onmousedown="handlePan(0,-1)">
                  <use xlink:href="#rim" fill="#404040">
                        <set attributeName="fill" to="#808080" begin="arrowUp.mouseover" end="arrowUp.mouseout"/>
                  </use>
                  <path fill="none" stroke="white" stroke-width="1.5" d="M0,-3.0v7 M-2.5,-0.5L0,-3.0L2.5,-0.5"/>
                </g>
                <g id="arrowRight" xlink:href="#dirArrow" transform="rotate(90) translate(36 -43)" onmousedown="handlePan(1,0)">
                  <use xlink:href="#rim" fill="#404040">
                        <set attributeName="fill" to="#808080" begin="arrowRight.mouseover" end="arrowRight.mouseout"/>
                  </use>
                  <path fill="none" stroke="white" stroke-width="1.5" d="M0,-3.0v7 M-2.5,-0.5L0,-3.0L2.5,-0.5"/>
                </g>
                <g id="arrowDown" xlink:href="#dirArrow" transform="rotate(180) translate(-30 -48)" onmousedown="handlePan(0,1)">
                  <use xlink:href="#rim" fill="#404040">
                        <set attributeName="fill" to="#808080" begin="arrowDown.mouseover" end="arrowDown.mouseout"/>
                  </use>
                  <path fill="none" stroke="white" stroke-width="1.5" d="M0,-3.0v7 M-2.5,-0.5L0,-3.0L2.5,-0.5"/>
                </g>
                <g id="arrowLeft" xlink:href="#dirArrow" transform="rotate(270) translate(-36 17)" onmousedown="handlePan(-1,0)">
                  <use xlink:href="#rim" fill="#404040">
                        <set attributeName="fill" to="#808080" begin="arrowLeft.mouseover" end="arrowLeft.mouseout"/>
                  </use>
                  <path fill="none" stroke="white" stroke-width="1.5" d="M0,-3.0v7 M-2.5,-0.5L0,-3.0L2.5,-0.5"/>
                </g>
        </g>
        <svg viewBox="0 0 15 15" width="100%" height="30px" preserveAspectRatio="xMaxYMin meet">
         <g id="arrow_out" transform="scale(0.3 0.3)">
          <a xlink:href="DatabaseInterface_8h__dep__incl_org.svg" target="_base">
           <rect id="button" ry="5" rx="5" y="6" x="6" height="38" width="38"
                fill="#f2f5e9" fill-opacity="0.5" stroke="#606060" stroke-width="1.0"/>
           <path id="arrow"
             d="M 11.500037,31.436501 C 11.940474,20.09759 22.043105,11.32322 32.158766,21.979434 L 37.068811,17.246167 C 37.068811,17.246167 37.088388,32 37.088388,32 L 22.160133,31.978069 C 22.160133,31.978069 26.997745,27.140456 26.997745,27.140456 C 18.528582,18.264221 13.291696,25.230495 11.500037,31.436501 z"
             style="fill:#404040;"/>
          </a>
         </g>
        </svg>
</svg>
