<?xml version="1.0" encoding="UTF-8" standalone="no"?>
<!DOCTYPE svg PUBLIC "-//W3C//DTD SVG 1.1//EN"
 "http://www.w3.org/Graphics/SVG/1.1/DTD/svg11.dtd">
<!-- Generated by graphviz version 2.38.0 (20140413.2041)
 -->
<!-- Title: Modules/MUON/MCH/src/Decoding.cxx Pages: 1 -->
<svg width="1236pt" height="397pt"
 viewBox="0.00 0.00 1235.50 397.00" xmlns="http://www.w3.org/2000/svg" xmlns:xlink="http://www.w3.org/1999/xlink">
<g id="graph0" class="graph" transform="scale(1 1) rotate(0) translate(4 393)">
<title>Modules/MUON/MCH/src/Decoding.cxx</title>
<!-- Node1 -->
<g id="node1" class="node"><title>Node1</title>
<polygon fill="#bfbfbf" stroke="black" points="376.5,-358.5 376.5,-388.5 506.5,-388.5 506.5,-358.5 376.5,-358.5"/>
<text text-anchor="start" x="384.5" y="-376.5" font-family="Helvetica,sans-Serif" font-size="10.00">Modules/MUON/MCH/src</text>
<text text-anchor="middle" x="441.5" y="-365.5" font-family="Helvetica,sans-Serif" font-size="10.00">/Decoding.cxx</text>
</g>
<!-- Node2 -->
<g id="node2" class="node"><title>Node2</title>
<polygon fill="none" stroke="#bfbfbf" points="0,-302.5 0,-321.5 65,-321.5 65,-302.5 0,-302.5"/>
<text text-anchor="middle" x="32.5" y="-309.5" font-family="Helvetica,sans-Serif" font-size="10.00">TCanvas.h</text>
</g>
<!-- Node1&#45;&gt;Node2 -->
<g id="edge1" class="edge"><title>Node1&#45;&gt;Node2</title>
<path fill="none" stroke="midnightblue" d="M376.304,-365.014C304.904,-356.481 186.823,-341.392 75.1088,-321.985"/>
<polygon fill="midnightblue" stroke="midnightblue" points="75.4666,-318.495 65.0126,-320.217 74.2586,-325.39 75.4666,-318.495"/>
</g>
<!-- Node3 -->
<g id="node3" class="node"><title>Node3</title>
<polygon fill="none" stroke="#bfbfbf" points="83.5,-302.5 83.5,-321.5 127.5,-321.5 127.5,-302.5 83.5,-302.5"/>
<text text-anchor="middle" x="105.5" y="-309.5" font-family="Helvetica,sans-Serif" font-size="10.00">TH1.h</text>
</g>
<!-- Node1&#45;&gt;Node3 -->
<g id="edge2" class="edge"><title>Node1&#45;&gt;Node3</title>
<path fill="none" stroke="midnightblue" d="M376.213,-363.974C316.401,-355.646 225.287,-341.659 137.612,-322.038"/>
<polygon fill="midnightblue" stroke="midnightblue" points="138.295,-318.604 127.769,-319.807 136.748,-325.431 138.295,-318.604"/>
</g>
<!-- Node4 -->
<g id="node4" class="node"><title>Node4</title>
<polygon fill="none" stroke="#bfbfbf" points="145.5,-302.5 145.5,-321.5 189.5,-321.5 189.5,-302.5 145.5,-302.5"/>
<text text-anchor="middle" x="167.5" y="-309.5" font-family="Helvetica,sans-Serif" font-size="10.00">TH2.h</text>
</g>
<!-- Node1&#45;&gt;Node4 -->
<g id="edge3" class="edge"><title>Node1&#45;&gt;Node4</title>
<path fill="none" stroke="midnightblue" d="M376.262,-360.144C329.691,-351.033 265.38,-337.865 199.55,-321.87"/>
<polygon fill="midnightblue" stroke="midnightblue" points="200.374,-318.469 189.828,-319.49 198.709,-325.268 200.374,-318.469"/>
</g>
<!-- Node5 -->
<g id="node5" class="node"><title>Node5</title>
<polygon fill="none" stroke="#bfbfbf" points="208,-302.5 208,-321.5 349,-321.5 349,-302.5 208,-302.5"/>
<text text-anchor="middle" x="278.5" y="-309.5" font-family="Helvetica,sans-Serif" font-size="10.00">Headers/RAWDataHeader.h</text>
</g>
<!-- Node1&#45;&gt;Node5 -->
<g id="edge4" class="edge"><title>Node1&#45;&gt;Node5</title>
<path fill="none" stroke="midnightblue" d="M402.871,-358.399C375.156,-348.283 338.195,-334.791 311.783,-325.149"/>
<polygon fill="midnightblue" stroke="midnightblue" points="312.812,-321.799 302.218,-321.658 310.411,-328.375 312.812,-321.799"/>
</g>
<!-- Node6 -->
<g id="node6" class="node"><title>Node6</title>
<g id="a_node6"><a xlink:href="QcInfoLogger_8h.html" target="_top" xlink:title="QualityControl/QcInfoLogger.h">
<polygon fill="none" stroke="black" points="367,-302.5 367,-321.5 516,-321.5 516,-302.5 367,-302.5"/>
<text text-anchor="middle" x="441.5" y="-309.5" font-family="Helvetica,sans-Serif" font-size="10.00">QualityControl/QcInfoLogger.h</text>
</a>
</g>
</g>
<!-- Node1&#45;&gt;Node6 -->
<g id="edge5" class="edge"><title>Node1&#45;&gt;Node6</title>
<path fill="none" stroke="midnightblue" d="M441.5,-358.399C441.5,-350.466 441.5,-340.458 441.5,-331.858"/>
<polygon fill="midnightblue" stroke="midnightblue" points="445,-331.658 441.5,-321.658 438,-331.658 445,-331.658"/>
</g>
<!-- Node9 -->
<g id="node9" class="node"><title>Node9</title>
<g id="a_node9"><a xlink:href="Decoding_8h.html" target="_top" xlink:title="MCH/Decoding.h">
<polygon fill="none" stroke="black" points="534.5,-302.5 534.5,-321.5 626.5,-321.5 626.5,-302.5 534.5,-302.5"/>
<text text-anchor="middle" x="580.5" y="-309.5" font-family="Helvetica,sans-Serif" font-size="10.00">MCH/Decoding.h</text>
</a>
</g>
</g>
<!-- Node1&#45;&gt;Node9 -->
<g id="edge8" class="edge"><title>Node1&#45;&gt;Node9</title>
<path fill="none" stroke="midnightblue" d="M474.441,-358.399C497.659,-348.461 528.486,-335.265 550.919,-325.662"/>
<polygon fill="midnightblue" stroke="midnightblue" points="552.458,-328.811 560.274,-321.658 549.704,-322.375 552.458,-328.811"/>
</g>
<!-- Node30 -->
<g id="node30" class="node"><title>Node30</title>
<polygon fill="none" stroke="#bfbfbf" points="761.5,-246.5 761.5,-265.5 855.5,-265.5 855.5,-246.5 761.5,-246.5"/>
<text text-anchor="middle" x="808.5" y="-253.5" font-family="Helvetica,sans-Serif" font-size="10.00">MCHBase/Digit.h</text>
</g>
<!-- Node1&#45;&gt;Node30 -->
<g id="edge37" class="edge"><title>Node1&#45;&gt;Node30</title>
<path fill="none" stroke="midnightblue" d="M506.899,-359.419C545.081,-350.815 593.798,-338.154 635.5,-322 653.297,-315.106 655.945,-309.487 673.5,-302 704.633,-288.723 741.106,-276.769 768.288,-268.524"/>
<polygon fill="midnightblue" stroke="midnightblue" points="769.644,-271.772 778.22,-265.551 767.637,-265.066 769.644,-271.772"/>
</g>
<!-- Node31 -->
<g id="node31" class="node"><title>Node31</title>
<polygon fill="none" stroke="#bfbfbf" points="682.5,-302.5 682.5,-321.5 738.5,-321.5 738.5,-302.5 682.5,-302.5"/>
<text text-anchor="middle" x="710.5" y="-309.5" font-family="Helvetica,sans-Serif" font-size="10.00">cinttypes</text>
</g>
<!-- Node1&#45;&gt;Node31 -->
<g id="edge38" class="edge"><title>Node1&#45;&gt;Node31</title>
<path fill="none" stroke="midnightblue" d="M504.909,-358.475C556.964,-346.961 628.958,-331.036 672.485,-321.409"/>
<polygon fill="midnightblue" stroke="midnightblue" points="673.372,-324.797 682.38,-319.22 671.86,-317.962 673.372,-324.797"/>
</g>
<!-- Node32 -->
<g id="node32" class="node"><title>Node32</title>
<polygon fill="none" stroke="#bfbfbf" points="756.5,-302.5 756.5,-321.5 806.5,-321.5 806.5,-302.5 756.5,-302.5"/>
<text text-anchor="middle" x="781.5" y="-309.5" font-family="Helvetica,sans-Serif" font-size="10.00">fstream</text>
</g>
<!-- Node1&#45;&gt;Node32 -->
<g id="edge39" class="edge"><title>Node1&#45;&gt;Node32</title>
<path fill="none" stroke="midnightblue" d="M506.607,-363.591C566.539,-354.973 658.068,-340.763 746.395,-322.074"/>
<polygon fill="midnightblue" stroke="midnightblue" points="747.266,-325.466 756.313,-319.953 745.803,-318.621 747.266,-325.466"/>
</g>
<!-- Node7 -->
<g id="node7" class="node"><title>Node7</title>
<polygon fill="none" stroke="#bfbfbf" points="156.5,-246.5 156.5,-265.5 286.5,-265.5 286.5,-246.5 156.5,-246.5"/>
<text text-anchor="middle" x="221.5" y="-253.5" font-family="Helvetica,sans-Serif" font-size="10.00">InfoLogger/InfoLogger.hxx</text>
</g>
<!-- Node6&#45;&gt;Node7 -->
<g id="edge6" class="edge"><title>Node6&#45;&gt;Node7</title>
<path fill="none" stroke="midnightblue" d="M406.64,-302.444C368.584,-293.102 307.542,-278.119 266.04,-267.933"/>
<polygon fill="midnightblue" stroke="midnightblue" points="266.743,-264.501 256.197,-265.516 265.074,-271.299 266.743,-264.501"/>
</g>
<!-- Node8 -->
<g id="node8" class="node"><title>Node8</title>
<polygon fill="none" stroke="#bfbfbf" points="304.5,-246.5 304.5,-265.5 466.5,-265.5 466.5,-246.5 304.5,-246.5"/>
<text text-anchor="middle" x="385.5" y="-253.5" font-family="Helvetica,sans-Serif" font-size="10.00">InfoLogger/InfoLoggerMacros.hxx</text>
</g>
<!-- Node6&#45;&gt;Node8 -->
<g id="edge7" class="edge"><title>Node6&#45;&gt;Node8</title>
<path fill="none" stroke="midnightblue" d="M432.503,-302.324C424.306,-294.42 411.994,-282.548 402.028,-272.938"/>
<polygon fill="midnightblue" stroke="midnightblue" points="404.289,-270.256 394.661,-265.834 399.43,-275.295 404.289,-270.256"/>
</g>
<!-- Node10 -->
<g id="node10" class="node"><title>Node10</title>
<g id="a_node10"><a xlink:href="TaskInterface_8h.html" target="_top" xlink:title="QualityControl/TaskInterface.h">
<polygon fill="none" stroke="black" points="447.5,-185 447.5,-204 597.5,-204 597.5,-185 447.5,-185"/>
<text text-anchor="middle" x="522.5" y="-192" font-family="Helvetica,sans-Serif" font-size="10.00">QualityControl/TaskInterface.h</text>
</a>
</g>
</g>
<!-- Node9&#45;&gt;Node10 -->
<g id="edge9" class="edge"><title>Node9&#45;&gt;Node10</title>
<path fill="none" stroke="midnightblue" d="M558.041,-302.382C542.731,-295.184 523.637,-283.288 514.5,-266 505.978,-249.875 509.99,-228.819 514.888,-213.931"/>
<polygon fill="midnightblue" stroke="midnightblue" points="518.25,-214.931 518.444,-204.338 511.686,-212.497 518.25,-214.931"/>
</g>
<!-- Node27 -->
<g id="node27" class="node"><title>Node27</title>
<g id="a_node27"><a xlink:href="sampa__header_8h_source.html" target="_top" xlink:title="MCH/sampa_header.h">
<polygon fill="none" stroke="black" points="523,-246.5 523,-265.5 638,-265.5 638,-246.5 523,-246.5"/>
<text text-anchor="middle" x="580.5" y="-253.5" font-family="Helvetica,sans-Serif" font-size="10.00">MCH/sampa_header.h</text>
</a>
</g>
</g>
<!-- Node9&#45;&gt;Node27 -->
<g id="edge32" class="edge"><title>Node9&#45;&gt;Node27</title>
<path fill="none" stroke="midnightblue" d="M580.5,-302.083C580.5,-295.006 580.5,-284.861 580.5,-275.986"/>
<polygon fill="midnightblue" stroke="midnightblue" points="584,-275.751 580.5,-265.751 577,-275.751 584,-275.751"/>
</g>
<!-- Node28 -->
<g id="node28" class="node"><title>Node28</title>
<g id="a_node28"><a xlink:href="Mapping_8h_source.html" target="_top" xlink:title="MCH/Mapping.h">
<polygon fill="none" stroke="black" points="655.5,-246.5 655.5,-265.5 743.5,-265.5 743.5,-246.5 655.5,-246.5"/>
<text text-anchor="middle" x="699.5" y="-253.5" font-family="Helvetica,sans-Serif" font-size="10.00">MCH/Mapping.h</text>
</a>
</g>
</g>
<!-- Node9&#45;&gt;Node28 -->
<g id="edge33" class="edge"><title>Node9&#45;&gt;Node28</title>
<path fill="none" stroke="midnightblue" d="M599.356,-302.444C618.766,-293.636 649.23,-279.812 671.465,-269.722"/>
<polygon fill="midnightblue" stroke="midnightblue" points="673.072,-272.836 680.732,-265.516 670.18,-266.462 673.072,-272.836"/>
</g>
<!-- Node9&#45;&gt;Node30 -->
<g id="edge36" class="edge"><title>Node9&#45;&gt;Node30</title>
<path fill="none" stroke="midnightblue" d="M616.627,-302.444C656.151,-293.083 719.597,-278.056 762.613,-267.868"/>
<polygon fill="midnightblue" stroke="midnightblue" points="763.618,-271.227 772.542,-265.516 762.004,-264.415 763.618,-271.227"/>
</g>
<!-- Node11 -->
<g id="node11" class="node"><title>Node11</title>
<polygon fill="none" stroke="#bfbfbf" points="548,-0.5 548,-19.5 583,-19.5 583,-0.5 548,-0.5"/>
<text text-anchor="middle" x="565.5" y="-7.5" font-family="Helvetica,sans-Serif" font-size="10.00">map</text>
</g>
<!-- Node10&#45;&gt;Node11 -->
<g id="edge10" class="edge"><title>Node10&#45;&gt;Node11</title>
<path fill="none" stroke="midnightblue" d="M486.4,-184.843C464.656,-177.567 438.698,-164.75 425.5,-143 405.441,-109.943 402.723,-87.246 425.5,-56 451.037,-20.9681 504.292,-12.611 537.259,-10.9548"/>
<polygon fill="midnightblue" stroke="midnightblue" points="537.71,-14.4422 547.592,-10.6212 537.484,-7.4458 537.71,-14.4422"/>
</g>
<!-- Node12 -->
<g id="node12" class="node"><title>Node12</title>
<polygon fill="none" stroke="#bfbfbf" points="478.5,-62 478.5,-81 530.5,-81 530.5,-62 478.5,-62"/>
<text text-anchor="middle" x="504.5" y="-69" font-family="Helvetica,sans-Serif" font-size="10.00">memory</text>
</g>
<!-- Node10&#45;&gt;Node12 -->
<g id="edge11" class="edge"><title>Node10&#45;&gt;Node12</title>
<path fill="none" stroke="midnightblue" d="M516.551,-184.674C510.387,-174.954 501.155,-158.622 497.5,-143 493.476,-125.801 496.169,-105.712 499.31,-91.3889"/>
<polygon fill="midnightblue" stroke="midnightblue" points="502.801,-91.8508 501.805,-81.3029 496.006,-90.1698 502.801,-91.8508"/>
</g>
<!-- Node13 -->
<g id="node13" class="node"><title>Node13</title>
<polygon fill="none" stroke="#bfbfbf" points="633,-0.5 633,-19.5 674,-19.5 674,-0.5 633,-0.5"/>
<text text-anchor="middle" x="653.5" y="-7.5" font-family="Helvetica,sans-Serif" font-size="10.00">string</text>
</g>
<!-- Node10&#45;&gt;Node13 -->
<g id="edge12" class="edge"><title>Node10&#45;&gt;Node13</title>
<path fill="none" stroke="midnightblue" d="M513.824,-184.895C491.636,-161.848 436.802,-97.6581 469.5,-56 479.002,-43.8943 572.983,-25.4328 622.822,-16.3824"/>
<polygon fill="midnightblue" stroke="midnightblue" points="623.517,-19.8136 632.74,-14.5997 622.279,-12.924 623.517,-19.8136"/>
</g>
<!-- Node14 -->
<g id="node14" class="node"><title>Node14</title>
<polygon fill="none" stroke="#bfbfbf" points="383,-0.5 383,-19.5 466,-19.5 466,-0.5 383,-0.5"/>
<text text-anchor="middle" x="424.5" y="-7.5" font-family="Helvetica,sans-Serif" font-size="10.00">unordered_map</text>
</g>
<!-- Node10&#45;&gt;Node14 -->
<g id="edge13" class="edge"><title>Node10&#45;&gt;Node14</title>
<path fill="none" stroke="midnightblue" d="M479.308,-184.999C455.351,-177.933 427.29,-165.284 411.5,-143 387.182,-108.679 404.186,-56.1314 415.924,-28.8415"/>
<polygon fill="midnightblue" stroke="midnightblue" points="419.123,-30.2624 420.067,-19.7097 412.748,-27.3698 419.123,-30.2624"/>
</g>
<!-- Node15 -->
<g id="node15" class="node"><title>Node15</title>
<polygon fill="none" stroke="#bfbfbf" points="506,-123.5 506,-142.5 631,-142.5 631,-123.5 506,-123.5"/>
<text text-anchor="middle" x="568.5" y="-130.5" font-family="Helvetica,sans-Serif" font-size="10.00">Framework/InitContext.h</text>
</g>
<!-- Node10&#45;&gt;Node15 -->
<g id="edge14" class="edge"><title>Node10&#45;&gt;Node15</title>
<path fill="none" stroke="midnightblue" d="M529.091,-184.975C535.991,-176.05 547.002,-161.807 555.634,-150.643"/>
<polygon fill="midnightblue" stroke="midnightblue" points="558.574,-152.561 561.922,-142.509 553.036,-148.28 558.574,-152.561"/>
</g>
<!-- Node16 -->
<g id="node16" class="node"><title>Node16</title>
<polygon fill="none" stroke="#bfbfbf" points="649.5,-123.5 649.5,-142.5 809.5,-142.5 809.5,-123.5 649.5,-123.5"/>
<text text-anchor="middle" x="729.5" y="-130.5" font-family="Helvetica,sans-Serif" font-size="10.00">Framework/ProcessingContext.h</text>
</g>
<!-- Node10&#45;&gt;Node16 -->
<g id="edge15" class="edge"><title>Node10&#45;&gt;Node16</title>
<path fill="none" stroke="midnightblue" d="M552.158,-184.975C588.434,-174.548 649.964,-156.862 690.164,-145.307"/>
<polygon fill="midnightblue" stroke="midnightblue" points="691.253,-148.635 699.897,-142.509 689.319,-141.908 691.253,-148.635"/>
</g>
<!-- Node17 -->
<g id="node17" class="node"><title>Node17</title>
<g id="a_node17"><a xlink:href="Activity_8h.html" target="_top" xlink:title="QualityControl/Activity.h">
<polygon fill="none" stroke="black" points="828,-123.5 828,-142.5 951,-142.5 951,-123.5 828,-123.5"/>
<text text-anchor="middle" x="889.5" y="-130.5" font-family="Helvetica,sans-Serif" font-size="10.00">QualityControl/Activity.h</text>
</a>
</g>
</g>
<!-- Node10&#45;&gt;Node17 -->
<g id="edge16" class="edge"><title>Node10&#45;&gt;Node17</title>
<path fill="none" stroke="midnightblue" d="M575.082,-184.975C641.578,-174.194 755.934,-155.654 826.875,-144.153"/>
<polygon fill="midnightblue" stroke="midnightblue" points="827.704,-147.564 837.015,-142.509 826.584,-140.655 827.704,-147.564"/>
</g>
<!-- Node18 -->
<g id="node18" class="node"><title>Node18</title>
<g id="a_node18"><a xlink:href="ObjectsManager_8h.html" target="_top" xlink:title="QualityControl/ObjectsManager.h">
<polygon fill="none" stroke="black" points="969,-123.5 969,-142.5 1130,-142.5 1130,-123.5 969,-123.5"/>
<text text-anchor="middle" x="1049.5" y="-130.5" font-family="Helvetica,sans-Serif" font-size="10.00">QualityControl/ObjectsManager.h</text>
</a>
</g>
</g>
<!-- Node10&#45;&gt;Node18 -->
<g id="edge17" class="edge"><title>Node10&#45;&gt;Node18</title>
<path fill="none" stroke="midnightblue" d="M585.865,-184.976C601.433,-182.95 618.062,-180.843 633.5,-179 745.442,-165.636 874.541,-151.937 958.857,-143.221"/>
<polygon fill="midnightblue" stroke="midnightblue" points="959.325,-146.692 968.913,-142.183 958.607,-139.729 959.325,-146.692"/>
</g>
<!-- Node18&#45;&gt;Node12 -->
<g id="edge31" class="edge"><title>Node18&#45;&gt;Node12</title>
<path fill="none" stroke="midnightblue" d="M968.975,-123.805C966.115,-123.531 963.283,-123.261 960.5,-123 776.174,-105.686 726.444,-126.178 545.5,-87 542.076,-86.2586 538.545,-85.3094 535.06,-84.2523"/>
<polygon fill="midnightblue" stroke="midnightblue" points="536.077,-80.902 525.483,-81.0698 533.869,-87.5448 536.077,-80.902"/>
</g>
<!-- Node18&#45;&gt;Node13 -->
<g id="edge30" class="edge"><title>Node18&#45;&gt;Node13</title>
<path fill="none" stroke="midnightblue" d="M976.637,-123.471C892.644,-113.301 763.408,-96.4916 742.5,-87 734.225,-83.2434 694.049,-47.6194 670.601,-26.5039"/>
<polygon fill="midnightblue" stroke="midnightblue" points="672.853,-23.8209 663.085,-19.7162 668.161,-29.016 672.853,-23.8209"/>
</g>
<!-- Node19 -->
<g id="node19" class="node"><title>Node19</title>
<g id="a_node19"><a xlink:href="MonitorObject_8h.html" target="_top" xlink:title="QualityControl/MonitorObject.h">
<polygon fill="none" stroke="black" points="751,-62 751,-81 902,-81 902,-62 751,-62"/>
<text text-anchor="middle" x="826.5" y="-69" font-family="Helvetica,sans-Serif" font-size="10.00">QualityControl/MonitorObject.h</text>
</a>
</g>
</g>
<!-- Node18&#45;&gt;Node19 -->
<g id="edge18" class="edge"><title>Node18&#45;&gt;Node19</title>
<path fill="none" stroke="midnightblue" d="M1017.55,-123.475C978.304,-113.004 911.622,-95.2118 868.327,-83.6601"/>
<polygon fill="midnightblue" stroke="midnightblue" points="868.956,-80.2054 858.391,-81.0091 867.151,-86.9688 868.956,-80.2054"/>
</g>
<!-- Node23 -->
<g id="node23" class="node"><title>Node23</title>
<g id="a_node23"><a xlink:href="MonitorObjectCollection_8h.html" target="_top" xlink:title="QualityControl/MonitorObject\lCollection.h">
<polygon fill="none" stroke="black" points="978,-56.5 978,-86.5 1121,-86.5 1121,-56.5 978,-56.5"/>
<text text-anchor="start" x="986" y="-74.5" font-family="Helvetica,sans-Serif" font-size="10.00">QualityControl/MonitorObject</text>
<text text-anchor="middle" x="1049.5" y="-63.5" font-family="Helvetica,sans-Serif" font-size="10.00">Collection.h</text>
</a>
</g>
</g>
<!-- Node18&#45;&gt;Node23 -->
<g id="edge24" class="edge"><title>Node18&#45;&gt;Node23</title>
<path fill="none" stroke="midnightblue" d="M1049.5,-123.475C1049.5,-116.471 1049.5,-106.192 1049.5,-96.6956"/>
<polygon fill="midnightblue" stroke="midnightblue" points="1053,-96.5229 1049.5,-86.523 1046,-96.523 1053,-96.5229"/>
</g>
<!-- Node26 -->
<g id="node26" class="node"><title>Node26</title>
<g id="a_node26"><a xlink:href="TaskConfig_8h.html" target="_top" xlink:title="QualityControl/TaskConfig.h">
<polygon fill="none" stroke="black" points="554.5,-62 554.5,-81 694.5,-81 694.5,-62 554.5,-62"/>
<text text-anchor="middle" x="624.5" y="-69" font-family="Helvetica,sans-Serif" font-size="10.00">QualityControl/TaskConfig.h</text>
</a>
</g>
</g>
<!-- Node18&#45;&gt;Node26 -->
<g id="edge27" class="edge"><title>Node18&#45;&gt;Node26</title>
<path fill="none" stroke="midnightblue" d="M978.523,-123.467C909.465,-114.969 801.627,-101.177 708.5,-87 699.89,-85.6893 690.799,-84.2149 681.904,-82.7213"/>
<polygon fill="midnightblue" stroke="midnightblue" points="682.425,-79.2598 671.98,-81.0346 681.252,-86.1608 682.425,-79.2598"/>
</g>
<!-- Node19&#45;&gt;Node11 -->
<g id="edge20" class="edge"><title>Node19&#45;&gt;Node11</title>
<path fill="none" stroke="midnightblue" d="M789.105,-61.9751C736.032,-49.8761 640.091,-28.0045 593.034,-17.277"/>
<polygon fill="midnightblue" stroke="midnightblue" points="593.764,-13.8536 583.236,-15.0433 592.208,-20.6785 593.764,-13.8536"/>
</g>
<!-- Node19&#45;&gt;Node13 -->
<g id="edge19" class="edge"><title>Node19&#45;&gt;Node13</title>
<path fill="none" stroke="midnightblue" d="M801.713,-61.9751C770.639,-51.2877 717.394,-32.975 683.895,-21.4536"/>
<polygon fill="midnightblue" stroke="midnightblue" points="684.773,-18.0547 674.179,-18.112 682.497,-24.6741 684.773,-18.0547"/>
</g>
<!-- Node20 -->
<g id="node20" class="node"><title>Node20</title>
<polygon fill="none" stroke="#bfbfbf" points="722.5,-0.5 722.5,-19.5 778.5,-19.5 778.5,-0.5 722.5,-0.5"/>
<text text-anchor="middle" x="750.5" y="-7.5" font-family="Helvetica,sans-Serif" font-size="10.00">Rtypes.h</text>
</g>
<!-- Node19&#45;&gt;Node20 -->
<g id="edge21" class="edge"><title>Node19&#45;&gt;Node20</title>
<path fill="none" stroke="midnightblue" d="M815.611,-61.9751C803.534,-52.5199 783.833,-37.0961 769.26,-25.6871"/>
<polygon fill="midnightblue" stroke="midnightblue" points="771.4,-22.9177 761.369,-19.5091 767.085,-28.4295 771.4,-22.9177"/>
</g>
<!-- Node21 -->
<g id="node21" class="node"><title>Node21</title>
<polygon fill="none" stroke="#bfbfbf" points="797,-0.5 797,-19.5 856,-19.5 856,-0.5 797,-0.5"/>
<text text-anchor="middle" x="826.5" y="-7.5" font-family="Helvetica,sans-Serif" font-size="10.00">TObject.h</text>
</g>
<!-- Node19&#45;&gt;Node21 -->
<g id="edge22" class="edge"><title>Node19&#45;&gt;Node21</title>
<path fill="none" stroke="midnightblue" d="M826.5,-61.9751C826.5,-53.5803 826.5,-40.4806 826.5,-29.6631"/>
<polygon fill="midnightblue" stroke="midnightblue" points="830,-29.5091 826.5,-19.5091 823,-29.5091 830,-29.5091"/>
</g>
<!-- Node22 -->
<g id="node22" class="node"><title>Node22</title>
<polygon fill="none" stroke="#bfbfbf" points="874.5,-0.5 874.5,-19.5 990.5,-19.5 990.5,-0.5 874.5,-0.5"/>
<text text-anchor="middle" x="932.5" y="-7.5" font-family="Helvetica,sans-Serif" font-size="10.00">Common/Exceptions.h</text>
</g>
<!-- Node19&#45;&gt;Node22 -->
<g id="edge23" class="edge"><title>Node19&#45;&gt;Node22</title>
<path fill="none" stroke="midnightblue" d="M841.687,-61.9751C859.162,-52.1664 888.079,-35.9346 908.583,-24.425"/>
<polygon fill="midnightblue" stroke="midnightblue" points="910.334,-27.456 917.341,-19.5091 906.908,-21.3519 910.334,-27.456"/>
</g>
<!-- Node24 -->
<g id="node24" class="node"><title>Node24</title>
<polygon fill="none" stroke="#bfbfbf" points="1012,-0.5 1012,-19.5 1081,-19.5 1081,-0.5 1012,-0.5"/>
<text text-anchor="middle" x="1046.5" y="-7.5" font-family="Helvetica,sans-Serif" font-size="10.00">TObjArray.h</text>
</g>
<!-- Node23&#45;&gt;Node24 -->
<g id="edge25" class="edge"><title>Node23&#45;&gt;Node24</title>
<path fill="none" stroke="midnightblue" d="M1048.79,-56.3993C1048.39,-48.4664 1047.88,-38.458 1047.45,-29.8583"/>
<polygon fill="midnightblue" stroke="midnightblue" points="1050.94,-29.4688 1046.94,-19.6578 1043.94,-29.8214 1050.94,-29.4688"/>
</g>
<!-- Node25 -->
<g id="node25" class="node"><title>Node25</title>
<polygon fill="none" stroke="#bfbfbf" points="1099.5,-0.5 1099.5,-19.5 1227.5,-19.5 1227.5,-0.5 1099.5,-0.5"/>
<text text-anchor="middle" x="1163.5" y="-7.5" font-family="Helvetica,sans-Serif" font-size="10.00">Mergers/MergeInterface.h</text>
</g>
<!-- Node23&#45;&gt;Node25 -->
<g id="edge26" class="edge"><title>Node23&#45;&gt;Node25</title>
<path fill="none" stroke="midnightblue" d="M1076.52,-56.3993C1095.13,-46.6837 1119.71,-33.8551 1137.99,-24.3137"/>
<polygon fill="midnightblue" stroke="midnightblue" points="1139.67,-27.3876 1146.91,-19.6578 1136.43,-21.182 1139.67,-27.3876"/>
</g>
<!-- Node26&#45;&gt;Node13 -->
<g id="edge28" class="edge"><title>Node26&#45;&gt;Node13</title>
<path fill="none" stroke="midnightblue" d="M628.655,-61.9751C632.876,-53.3152 639.537,-39.6486 644.9,-28.6453"/>
<polygon fill="midnightblue" stroke="midnightblue" points="648.118,-30.0317 649.353,-19.5091 641.825,-26.9648 648.118,-30.0317"/>
</g>
<!-- Node26&#45;&gt;Node14 -->
<g id="edge29" class="edge"><title>Node26&#45;&gt;Node14</title>
<path fill="none" stroke="midnightblue" d="M595.845,-61.9751C560.944,-51.592 501.85,-34.0116 463,-22.4538"/>
<polygon fill="midnightblue" stroke="midnightblue" points="463.685,-19.0059 453.102,-19.5091 461.689,-25.7153 463.685,-19.0059"/>
</g>
<!-- Node28&#45;&gt;Node10 -->
<g id="edge35" class="edge"><title>Node28&#45;&gt;Node10</title>
<path fill="none" stroke="midnightblue" d="M674.14,-246.475C643.516,-236.18 591.843,-218.81 557.454,-207.25"/>
<polygon fill="midnightblue" stroke="midnightblue" points="558.407,-203.878 547.813,-204.009 556.176,-210.513 558.407,-203.878"/>
</g>
<!-- Node29 -->
<g id="node29" class="node"><title>Node29</title>
<polygon fill="none" stroke="#bfbfbf" points="642,-179.5 642,-209.5 757,-209.5 757,-179.5 642,-179.5"/>
<text text-anchor="start" x="650" y="-197.5" font-family="Helvetica,sans-Serif" font-size="10.00">MCHMappingInterface</text>
<text text-anchor="middle" x="699.5" y="-186.5" font-family="Helvetica,sans-Serif" font-size="10.00">/Segmentation.h</text>
</g>
<!-- Node28&#45;&gt;Node29 -->
<g id="edge34" class="edge"><title>Node28&#45;&gt;Node29</title>
<path fill="none" stroke="midnightblue" d="M699.5,-246.475C699.5,-239.471 699.5,-229.192 699.5,-219.696"/>
<polygon fill="midnightblue" stroke="midnightblue" points="703,-219.523 699.5,-209.523 696,-219.523 703,-219.523"/>
</g>
</g>
</svg>
