<?xml version="1.0" encoding="UTF-8" standalone="no"?>
<!DOCTYPE svg PUBLIC "-//W3C//DTD SVG 1.1//EN"
 "http://www.w3.org/Graphics/SVG/1.1/DTD/svg11.dtd">
<!-- Generated by graphviz version 2.38.0 (20140413.2041)
 -->
<!-- Title: Graphical Class Hierarchy Pages: 1 -->
<svg width="331pt" height="1109pt"
 viewBox="0.00 0.00 331.00 1109.00" xmlns="http://www.w3.org/2000/svg" xmlns:xlink="http://www.w3.org/1999/xlink">
<g id="graph0" class="graph" transform="scale(1 1) rotate(0) translate(4 1105)">
<title>Graphical Class Hierarchy</title>
<!-- Node1 -->
<g id="node1" class="node"><title>Node1</title>
<g id="a_node1"><a xlink:href="classo2_1_1quality__control_1_1core_1_1TaskInterface.html" target="_top" xlink:title="Skeleton of a QC task. ">
<polygon fill="none" stroke="black" points="0,-543.5 0,-573.5 107,-573.5 107,-543.5 0,-543.5"/>
<text text-anchor="start" x="8" y="-561.5" font-family="Helvetica,sans-Serif" font-size="10.00">o2::quality_control</text>
<text text-anchor="middle" x="53.5" y="-550.5" font-family="Helvetica,sans-Serif" font-size="10.00">::core::TaskInterface</text>
</a>
</g>
</g>
<!-- Node2 -->
<g id="node2" class="node"><title>Node2</title>
<g id="a_node2"><a xlink:href="classo2_1_1quality__control_1_1test_1_1TestTask.html" target="_top" xlink:title="o2::quality_control\l::test::TestTask">
<polygon fill="none" stroke="black" points="185,-1070.5 185,-1100.5 281,-1100.5 281,-1070.5 185,-1070.5"/>
<text text-anchor="start" x="193" y="-1088.5" font-family="Helvetica,sans-Serif" font-size="10.00">o2::quality_control</text>
<text text-anchor="middle" x="233" y="-1077.5" font-family="Helvetica,sans-Serif" font-size="10.00">::test::TestTask</text>
</a>
</g>
</g>
<!-- Node1&#45;&gt;Node2 -->
<g id="edge1" class="edge"><title>Node1&#45;&gt;Node2</title>
<path fill="none" stroke="midnightblue" d="M55.4524,-583.577C59.4377,-675.188 77.7361,-990.136 143,-1061.5 153.692,-1073.19 169.425,-1079.43 184.7,-1082.68"/>
<polygon fill="midnightblue" stroke="midnightblue" points="58.9477,-583.389 55.0351,-573.543 51.9537,-583.68 58.9477,-583.389"/>
</g>
<!-- Node3 -->
<g id="node3" class="node"><title>Node3</title>
<g id="a_node3"><a xlink:href="classo2_1_1quality__control__modules_1_1daq_1_1DaqTask.html" target="_top" xlink:title="Dataflow task It does only look at the header and plots sizes (e.g. payload). It also can print the h...">
<polygon fill="none" stroke="black" points="170,-1021.5 170,-1051.5 296,-1051.5 296,-1021.5 170,-1021.5"/>
<text text-anchor="start" x="178" y="-1039.5" font-family="Helvetica,sans-Serif" font-size="10.00">o2::quality_control</text>
<text text-anchor="middle" x="233" y="-1028.5" font-family="Helvetica,sans-Serif" font-size="10.00">_modules::daq::DaqTask</text>
</a>
</g>
</g>
<!-- Node1&#45;&gt;Node3 -->
<g id="edge2" class="edge"><title>Node1&#45;&gt;Node3</title>
<path fill="none" stroke="midnightblue" d="M56.0118,-584.177C61.6154,-670.619 84.0086,-949.172 143,-1012.5 150.199,-1020.23 159.602,-1025.57 169.594,-1029.23"/>
<polygon fill="midnightblue" stroke="midnightblue" points="59.4897,-583.713 55.3701,-573.952 52.5034,-584.151 59.4897,-583.713"/>
</g>
<!-- Node4 -->
<g id="node4" class="node"><title>Node4</title>
<g id="a_node4"><a xlink:href="classo2_1_1quality__control__modules_1_1emcal_1_1DigitsQcTask.html" target="_top" xlink:title="QC Task for EMCAL digits. ">
<polygon fill="none" stroke="black" points="154.5,-972.5 154.5,-1002.5 311.5,-1002.5 311.5,-972.5 154.5,-972.5"/>
<text text-anchor="start" x="162.5" y="-990.5" font-family="Helvetica,sans-Serif" font-size="10.00">o2::quality_control</text>
<text text-anchor="middle" x="233" y="-979.5" font-family="Helvetica,sans-Serif" font-size="10.00">_modules::emcal::DigitsQcTask</text>
</a>
</g>
</g>
<!-- Node1&#45;&gt;Node4 -->
<g id="edge3" class="edge"><title>Node1&#45;&gt;Node4</title>
<path fill="none" stroke="midnightblue" d="M56.6294,-583.726C63.8577,-663.434 90.0097,-907.889 143,-963.5 146.312,-966.976 150.07,-969.966 154.124,-972.538"/>
<polygon fill="midnightblue" stroke="midnightblue" points="60.1021,-583.262 55.7343,-573.61 53.1294,-583.879 60.1021,-583.262"/>
</g>
<!-- Node5 -->
<g id="node5" class="node"><title>Node5</title>
<g id="a_node5"><a xlink:href="classo2_1_1quality__control__modules_1_1emcal_1_1RawTask.html" target="_top" xlink:title="Example Quality Control DPL Task It is final because there is no reason to derive from it...">
<polygon fill="none" stroke="black" points="163.5,-923.5 163.5,-953.5 302.5,-953.5 302.5,-923.5 163.5,-923.5"/>
<text text-anchor="start" x="171.5" y="-941.5" font-family="Helvetica,sans-Serif" font-size="10.00">o2::quality_control</text>
<text text-anchor="middle" x="233" y="-930.5" font-family="Helvetica,sans-Serif" font-size="10.00">_modules::emcal::RawTask</text>
</a>
</g>
</g>
<!-- Node1&#45;&gt;Node5 -->
<g id="edge4" class="edge"><title>Node1&#45;&gt;Node5</title>
<path fill="none" stroke="midnightblue" d="M57.4836,-584.008C66.5639,-657.367 96.1375,-866.703 143,-914.5 148.714,-920.328 155.683,-924.786 163.182,-928.189"/>
<polygon fill="midnightblue" stroke="midnightblue" points="60.9272,-583.331 56.2476,-573.826 53.9782,-584.175 60.9272,-583.331"/>
</g>
<!-- Node6 -->
<g id="node6" class="node"><title>Node6</title>
<g id="a_node6"><a xlink:href="classo2_1_1quality__control__modules_1_1example_1_1BenchmarkTask.html" target="_top" xlink:title="Quality Control Task for benchmarking It publishes a number of TH1F (configurable, see example.ini in module QualityControl). The histos are reset and refilled (1000 random) at EOC. They have 1000 bins. The monitoring of data blocks is empty (sleep 100 ms). ">
<polygon fill="none" stroke="black" points="143.5,-874.5 143.5,-904.5 322.5,-904.5 322.5,-874.5 143.5,-874.5"/>
<text text-anchor="start" x="151.5" y="-892.5" font-family="Helvetica,sans-Serif" font-size="10.00">o2::quality_control</text>
<text text-anchor="middle" x="233" y="-881.5" font-family="Helvetica,sans-Serif" font-size="10.00">_modules::example::BenchmarkTask</text>
</a>
</g>
</g>
<!-- Node1&#45;&gt;Node6 -->
<g id="edge5" class="edge"><title>Node1&#45;&gt;Node6</title>
<path fill="none" stroke="midnightblue" d="M53.9869,-583.654C54.2293,-641.923 63.2822,-787.147 143,-865.5 146.424,-868.865 150.268,-871.772 154.386,-874.28"/>
<polygon fill="midnightblue" stroke="midnightblue" points="57.4874,-583.528 54.0333,-573.512 50.4875,-583.496 57.4874,-583.528"/>
</g>
<!-- Node7 -->
<g id="node7" class="node"><title>Node7</title>
<g id="a_node7"><a xlink:href="classo2_1_1quality__control__modules_1_1example_1_1ExampleTask.html" target="_top" xlink:title="Example Quality Control Task It is final because there is no reason to derive from it...">
<polygon fill="none" stroke="black" points="149.5,-825.5 149.5,-855.5 316.5,-855.5 316.5,-825.5 149.5,-825.5"/>
<text text-anchor="start" x="157.5" y="-843.5" font-family="Helvetica,sans-Serif" font-size="10.00">o2::quality_control</text>
<text text-anchor="middle" x="233" y="-832.5" font-family="Helvetica,sans-Serif" font-size="10.00">_modules::example::ExampleTask</text>
</a>
</g>
</g>
<!-- Node1&#45;&gt;Node7 -->
<g id="edge6" class="edge"><title>Node1&#45;&gt;Node7</title>
<path fill="none" stroke="midnightblue" d="M55.6276,-583.84C59.3278,-635.418 75.1702,-753.072 143,-816.5 146.624,-819.888 150.675,-822.808 154.997,-825.323"/>
<polygon fill="midnightblue" stroke="midnightblue" points="59.105,-583.366 54.9934,-573.601 52.1184,-583.798 59.105,-583.366"/>
</g>
<!-- Node8 -->
<g id="node8" class="node"><title>Node8</title>
<g id="a_node8"><a xlink:href="classo2_1_1quality__control__modules_1_1its_1_1ITSOnlineTask.html" target="_top" xlink:title="ITS Fake&#45;hit rate real&#45;time data processing task Working with the chain of &quot;Detector &#45;&gt; RU &#45;&gt; CRU &#45;&gt; ...">
<polygon fill="none" stroke="black" points="160,-776.5 160,-806.5 306,-806.5 306,-776.5 160,-776.5"/>
<text text-anchor="start" x="168" y="-794.5" font-family="Helvetica,sans-Serif" font-size="10.00">o2::quality_control</text>
<text text-anchor="middle" x="233" y="-783.5" font-family="Helvetica,sans-Serif" font-size="10.00">_modules::its::ITSOnlineTask</text>
</a>
</g>
</g>
<!-- Node1&#45;&gt;Node8 -->
<g id="edge7" class="edge"><title>Node1&#45;&gt;Node8</title>
<path fill="none" stroke="midnightblue" d="M57.9774,-583.911C65.3774,-627.987 86.8596,-718.576 143,-767.5 147.947,-771.811 153.592,-775.356 159.584,-778.271"/>
<polygon fill="midnightblue" stroke="midnightblue" points="61.3929,-583.098 56.3869,-573.761 54.4773,-584.182 61.3929,-583.098"/>
</g>
<!-- Node9 -->
<g id="node9" class="node"><title>Node9</title>
<g id="a_node9"><a xlink:href="classo2_1_1quality__control__modules_1_1its_1_1ITSRawTask.html" target="_top" xlink:title="o2::quality_control\l_modules::its::ITSRawTask">
<polygon fill="none" stroke="black" points="163.5,-727.5 163.5,-757.5 302.5,-757.5 302.5,-727.5 163.5,-727.5"/>
<text text-anchor="start" x="171.5" y="-745.5" font-family="Helvetica,sans-Serif" font-size="10.00">o2::quality_control</text>
<text text-anchor="middle" x="233" y="-734.5" font-family="Helvetica,sans-Serif" font-size="10.00">_modules::its::ITSRawTask</text>
</a>
</g>
</g>
<!-- Node1&#45;&gt;Node9 -->
<g id="edge8" class="edge"><title>Node1&#45;&gt;Node9</title>
<path fill="none" stroke="midnightblue" d="M61.5059,-583.529C72.7371,-618.981 98.1927,-683.402 143,-718.5 149.047,-723.237 155.956,-727.041 163.19,-730.096"/>
<polygon fill="midnightblue" stroke="midnightblue" points="64.8465,-582.484 58.5908,-573.933 58.1487,-584.519 64.8465,-582.484"/>
</g>
<!-- Node10 -->
<g id="node10" class="node"><title>Node10</title>
<g id="a_node10"><a xlink:href="classo2_1_1quality__control__modules_1_1mft_1_1BasicClusterQcTask.html" target="_top" xlink:title="MFT Cluster QC task. ">
<polygon fill="none" stroke="black" points="162.5,-668 162.5,-709 303.5,-709 303.5,-668 162.5,-668"/>
<text text-anchor="start" x="170.5" y="-697" font-family="Helvetica,sans-Serif" font-size="10.00">o2::quality_control</text>
<text text-anchor="start" x="170.5" y="-686" font-family="Helvetica,sans-Serif" font-size="10.00">_modules::mft::BasicCluster</text>
<text text-anchor="middle" x="233" y="-675" font-family="Helvetica,sans-Serif" font-size="10.00">QcTask</text>
</a>
</g>
</g>
<!-- Node1&#45;&gt;Node10 -->
<g id="edge9" class="edge"><title>Node1&#45;&gt;Node10</title>
<path fill="none" stroke="midnightblue" d="M69.6894,-582.262C85.4428,-605.11 112.075,-639.1 143,-659.5 148.969,-663.437 155.515,-666.878 162.264,-669.876"/>
<polygon fill="midnightblue" stroke="midnightblue" points="72.4908,-580.155 64.0065,-573.81 66.6817,-584.061 72.4908,-580.155"/>
</g>
<!-- Node11 -->
<g id="node11" class="node"><title>Node11</title>
<g id="a_node11"><a xlink:href="classo2_1_1quality__control__modules_1_1mft_1_1BasicDigitQcTask.html" target="_top" xlink:title="MFT Digit QC task. ">
<polygon fill="none" stroke="black" points="151,-619.5 151,-649.5 315,-649.5 315,-619.5 151,-619.5"/>
<text text-anchor="start" x="159" y="-637.5" font-family="Helvetica,sans-Serif" font-size="10.00">o2::quality_control</text>
<text text-anchor="middle" x="233" y="-626.5" font-family="Helvetica,sans-Serif" font-size="10.00">_modules::mft::BasicDigitQcTask</text>
</a>
</g>
</g>
<!-- Node1&#45;&gt;Node11 -->
<g id="edge10" class="edge"><title>Node1&#45;&gt;Node11</title>
<path fill="none" stroke="midnightblue" d="M85.2412,-579.324C101.795,-589.815 122.896,-602.064 143,-610.5 150.969,-613.844 159.536,-616.845 168.094,-619.499"/>
<polygon fill="midnightblue" stroke="midnightblue" points="86.8475,-576.195 76.5478,-573.712 83.051,-582.076 86.8475,-576.195"/>
</g>
<!-- Node12 -->
<g id="node12" class="node"><title>Node12</title>
<g id="a_node12"><a xlink:href="classo2_1_1quality__control__modules_1_1mft_1_1BasicTrackQcTask.html" target="_top" xlink:title="MFT Track QC task. ">
<polygon fill="none" stroke="black" points="148.5,-570.5 148.5,-600.5 317.5,-600.5 317.5,-570.5 148.5,-570.5"/>
<text text-anchor="start" x="156.5" y="-588.5" font-family="Helvetica,sans-Serif" font-size="10.00">o2::quality_control</text>
<text text-anchor="middle" x="233" y="-577.5" font-family="Helvetica,sans-Serif" font-size="10.00">_modules::mft::BasicTrackQcTask</text>
</a>
</g>
</g>
<!-- Node1&#45;&gt;Node12 -->
<g id="edge11" class="edge"><title>Node1&#45;&gt;Node12</title>
<path fill="none" stroke="midnightblue" d="M117.453,-568.076C127.407,-569.59 137.835,-571.176 148.174,-572.749"/>
<polygon fill="midnightblue" stroke="midnightblue" points="117.688,-564.572 107.275,-566.528 116.635,-571.492 117.688,-564.572"/>
</g>
<!-- Node13 -->
<g id="node13" class="node"><title>Node13</title>
<g id="a_node13"><a xlink:href="classo2_1_1quality__control__modules_1_1muonchambers_1_1PedestalsTask.html" target="_top" xlink:title="Quality Control Task for the analysis of MCH pedestal data. ">
<polygon fill="none" stroke="black" points="167.5,-511 167.5,-552 298.5,-552 298.5,-511 167.5,-511"/>
<text text-anchor="start" x="175.5" y="-540" font-family="Helvetica,sans-Serif" font-size="10.00">o2::quality_control</text>
<text text-anchor="start" x="175.5" y="-529" font-family="Helvetica,sans-Serif" font-size="10.00">_modules::muonchambers</text>
<text text-anchor="middle" x="233" y="-518" font-family="Helvetica,sans-Serif" font-size="10.00">::PedestalsTask</text>
</a>
</g>
</g>
<!-- Node1&#45;&gt;Node13 -->
<g id="edge12" class="edge"><title>Node1&#45;&gt;Node13</title>
<path fill="none" stroke="midnightblue" d="M117.234,-548.957C133.529,-546.479 151.109,-543.805 167.494,-541.312"/>
<polygon fill="midnightblue" stroke="midnightblue" points="116.635,-545.508 107.275,-550.472 117.688,-552.428 116.635,-545.508"/>
</g>
<!-- Node14 -->
<g id="node14" class="node"><title>Node14</title>
<g id="a_node14"><a xlink:href="classo2_1_1quality__control__modules_1_1muonchambers_1_1PhysicsTask.html" target="_top" xlink:title="Quality Control Task for the analysis of MCH physics data. ">
<polygon fill="none" stroke="black" points="167.5,-451 167.5,-492 298.5,-492 298.5,-451 167.5,-451"/>
<text text-anchor="start" x="175.5" y="-480" font-family="Helvetica,sans-Serif" font-size="10.00">o2::quality_control</text>
<text text-anchor="start" x="175.5" y="-469" font-family="Helvetica,sans-Serif" font-size="10.00">_modules::muonchambers</text>
<text text-anchor="middle" x="233" y="-458" font-family="Helvetica,sans-Serif" font-size="10.00">::PhysicsTask</text>
</a>
</g>
</g>
<!-- Node1&#45;&gt;Node14 -->
<g id="edge13" class="edge"><title>Node1&#45;&gt;Node14</title>
<path fill="none" stroke="midnightblue" d="M83.0468,-537.537C99.8892,-525.838 121.966,-511.626 143,-501.5 150.64,-497.822 158.848,-494.401 167.079,-491.283"/>
<polygon fill="midnightblue" stroke="midnightblue" points="80.9028,-534.766 74.7497,-543.391 84.9384,-540.486 80.9028,-534.766"/>
</g>
<!-- Node15 -->
<g id="node15" class="node"><title>Node15</title>
<g id="a_node15"><a xlink:href="classo2_1_1quality__control__modules_1_1phos_1_1DigitsQcTask.html" target="_top" xlink:title="QC Task for PHOS digits. ">
<polygon fill="none" stroke="black" points="157,-402.5 157,-432.5 309,-432.5 309,-402.5 157,-402.5"/>
<text text-anchor="start" x="165" y="-420.5" font-family="Helvetica,sans-Serif" font-size="10.00">o2::quality_control</text>
<text text-anchor="middle" x="233" y="-409.5" font-family="Helvetica,sans-Serif" font-size="10.00">_modules::phos::DigitsQcTask</text>
</a>
</g>
</g>
<!-- Node1&#45;&gt;Node15 -->
<g id="edge14" class="edge"><title>Node1&#45;&gt;Node15</title>
<path fill="none" stroke="midnightblue" d="M66.4835,-534.314C80.9651,-507.594 107.831,-465.216 143,-441.5 148.042,-438.1 153.548,-435.18 159.27,-432.674"/>
<polygon fill="midnightblue" stroke="midnightblue" points="63.2696,-532.906 61.7161,-543.386 69.4661,-536.162 63.2696,-532.906"/>
</g>
<!-- Node16 -->
<g id="node16" class="node"><title>Node16</title>
<g id="a_node16"><a xlink:href="classo2_1_1quality__control__modules_1_1phos_1_1RawTask.html" target="_top" xlink:title="PHOS Quality Control DPL Task. ">
<polygon fill="none" stroke="black" points="166,-353.5 166,-383.5 300,-383.5 300,-353.5 166,-353.5"/>
<text text-anchor="start" x="174" y="-371.5" font-family="Helvetica,sans-Serif" font-size="10.00">o2::quality_control</text>
<text text-anchor="middle" x="233" y="-360.5" font-family="Helvetica,sans-Serif" font-size="10.00">_modules::phos::RawTask</text>
</a>
</g>
</g>
<!-- Node1&#45;&gt;Node16 -->
<g id="edge15" class="edge"><title>Node1&#45;&gt;Node16</title>
<path fill="none" stroke="midnightblue" d="M61.1634,-533.317C72.0906,-496.971 97.309,-430.159 143,-393.5 149.76,-388.076 157.628,-383.828 165.836,-380.502"/>
<polygon fill="midnightblue" stroke="midnightblue" points="57.7411,-532.554 58.3392,-543.132 64.4681,-534.489 57.7411,-532.554"/>
</g>
<!-- Node17 -->
<g id="node17" class="node"><title>Node17</title>
<g id="a_node17"><a xlink:href="classo2_1_1quality__control__modules_1_1skeleton_1_1SkeletonTask.html" target="_top" xlink:title="Example Quality Control DPL Task. ">
<polygon fill="none" stroke="black" points="179.5,-294 179.5,-335 286.5,-335 286.5,-294 179.5,-294"/>
<text text-anchor="start" x="187.5" y="-323" font-family="Helvetica,sans-Serif" font-size="10.00">o2::quality_control</text>
<text text-anchor="start" x="187.5" y="-312" font-family="Helvetica,sans-Serif" font-size="10.00">_modules::skeleton::</text>
<text text-anchor="middle" x="233" y="-301" font-family="Helvetica,sans-Serif" font-size="10.00">SkeletonTask</text>
</a>
</g>
</g>
<!-- Node1&#45;&gt;Node17 -->
<g id="edge16" class="edge"><title>Node1&#45;&gt;Node17</title>
<path fill="none" stroke="midnightblue" d="M58.0067,-533.459C65.5167,-489.133 87.2509,-396.633 143,-344.5 153.123,-335.034 166.336,-328.546 179.47,-324.103"/>
<polygon fill="midnightblue" stroke="midnightblue" points="54.5413,-532.965 56.4281,-543.391 61.4545,-534.064 54.5413,-532.965"/>
</g>
<!-- Node18 -->
<g id="node18" class="node"><title>Node18</title>
<g id="a_node18"><a xlink:href="classo2_1_1quality__control__modules_1_1tof_1_1TaskCompressedData.html" target="_top" xlink:title="TOF Quality Control DPL Task for TOF Compressed data. ">
<polygon fill="none" stroke="black" points="143,-245.5 143,-275.5 323,-275.5 323,-245.5 143,-245.5"/>
<text text-anchor="start" x="151" y="-263.5" font-family="Helvetica,sans-Serif" font-size="10.00">o2::quality_control</text>
<text text-anchor="middle" x="233" y="-252.5" font-family="Helvetica,sans-Serif" font-size="10.00">_modules::tof::TaskCompressedData</text>
</a>
</g>
</g>
<!-- Node1&#45;&gt;Node18 -->
<g id="edge17" class="edge"><title>Node1&#45;&gt;Node18</title>
<path fill="none" stroke="midnightblue" d="M55.0184,-533.463C57.5312,-479.765 71.1958,-352.868 143,-284.5 146.593,-281.079 150.621,-278.135 154.925,-275.602"/>
<polygon fill="midnightblue" stroke="midnightblue" points="51.5202,-533.352 54.6425,-543.476 58.5153,-533.614 51.5202,-533.352"/>
</g>
<!-- Node19 -->
<g id="node19" class="node"><title>Node19</title>
<g id="a_node19"><a xlink:href="classo2_1_1quality__control__modules_1_1tof_1_1TaskDiagnostics.html" target="_top" xlink:title="TOF Quality Control DPL Task for TOF Compressed data. ">
<polygon fill="none" stroke="black" points="155.5,-196.5 155.5,-226.5 310.5,-226.5 310.5,-196.5 155.5,-196.5"/>
<text text-anchor="start" x="163.5" y="-214.5" font-family="Helvetica,sans-Serif" font-size="10.00">o2::quality_control</text>
<text text-anchor="middle" x="233" y="-203.5" font-family="Helvetica,sans-Serif" font-size="10.00">_modules::tof::TaskDiagnostics</text>
</a>
</g>
</g>
<!-- Node1&#45;&gt;Node19 -->
<g id="edge18" class="edge"><title>Node1&#45;&gt;Node19</title>
<path fill="none" stroke="midnightblue" d="M53.6329,-533.009C53.032,-472.625 60.2585,-319.708 143,-236.5 146.848,-232.631 151.243,-229.348 155.973,-226.565"/>
<polygon fill="midnightblue" stroke="midnightblue" points="50.1363,-533.235 53.8197,-543.169 57.1352,-533.106 50.1363,-533.235"/>
</g>
<!-- Node20 -->
<g id="node20" class="node"><title>Node20</title>
<g id="a_node20"><a xlink:href="classo2_1_1quality__control__modules_1_1tof_1_1TaskDigits.html" target="_top" xlink:title="TOF Quality Control DPL Task. ">
<polygon fill="none" stroke="black" points="168.5,-147.5 168.5,-177.5 297.5,-177.5 297.5,-147.5 168.5,-147.5"/>
<text text-anchor="start" x="176.5" y="-165.5" font-family="Helvetica,sans-Serif" font-size="10.00">o2::quality_control</text>
<text text-anchor="middle" x="233" y="-154.5" font-family="Helvetica,sans-Serif" font-size="10.00">_modules::tof::TaskDigits</text>
</a>
</g>
</g>
<!-- Node1&#45;&gt;Node20 -->
<g id="edge19" class="edge"><title>Node1&#45;&gt;Node20</title>
<path fill="none" stroke="midnightblue" d="M57.1829,-533.443C65.6987,-458.477 94.4557,-238.01 143,-187.5 150.006,-180.21 158.954,-174.994 168.464,-171.273"/>
<polygon fill="midnightblue" stroke="midnightblue" points="53.7013,-533.084 56.0734,-543.41 60.6583,-533.859 53.7013,-533.084"/>
</g>
<!-- Node21 -->
<g id="node21" class="node"><title>Node21</title>
<g id="a_node21"><a xlink:href="classo2_1_1quality__control__modules_1_1tpc_1_1Clusters.html" target="_top" xlink:title="Example Quality Control DPL Task It is final because there is no reason to derive from it...">
<polygon fill="none" stroke="black" points="172.5,-98.5 172.5,-128.5 293.5,-128.5 293.5,-98.5 172.5,-98.5"/>
<text text-anchor="start" x="180.5" y="-116.5" font-family="Helvetica,sans-Serif" font-size="10.00">o2::quality_control</text>
<text text-anchor="middle" x="233" y="-105.5" font-family="Helvetica,sans-Serif" font-size="10.00">_modules::tpc::Clusters</text>
</a>
</g>
</g>
<!-- Node1&#45;&gt;Node21 -->
<g id="edge20" class="edge"><title>Node1&#45;&gt;Node21</title>
<path fill="none" stroke="midnightblue" d="M56.4502,-533.175C63.2423,-451.466 88.4754,-196.757 143,-138.5 150.896,-130.063 161.391,-124.395 172.398,-120.604"/>
<polygon fill="midnightblue" stroke="midnightblue" points="52.9481,-533.06 55.6294,-543.309 59.9253,-533.625 52.9481,-533.06"/>
</g>
<!-- Node22 -->
<g id="node22" class="node"><title>Node22</title>
<g id="a_node22"><a xlink:href="classo2_1_1quality__control__modules_1_1tpc_1_1PID.html" target="_top" xlink:title="TPC PID QC Task It is final because there is no reason to derive from it. Just remove it if needed...">
<polygon fill="none" stroke="black" points="182.5,-49.5 182.5,-79.5 283.5,-79.5 283.5,-49.5 182.5,-49.5"/>
<text text-anchor="start" x="190.5" y="-67.5" font-family="Helvetica,sans-Serif" font-size="10.00">o2::quality_control</text>
<text text-anchor="middle" x="233" y="-56.5" font-family="Helvetica,sans-Serif" font-size="10.00">_modules::tpc::PID</text>
</a>
</g>
</g>
<!-- Node1&#45;&gt;Node22 -->
<g id="edge21" class="edge"><title>Node1&#45;&gt;Node22</title>
<path fill="none" stroke="midnightblue" d="M55.8607,-532.868C61.0534,-444.677 82.4739,-155.557 143,-89.5 153.192,-78.3768 167.899,-72.0515 182.431,-68.5004"/>
<polygon fill="midnightblue" stroke="midnightblue" points="52.3553,-532.865 55.2817,-543.048 59.344,-533.263 52.3553,-532.865"/>
</g>
<!-- Node23 -->
<g id="node23" class="node"><title>Node23</title>
<g id="a_node23"><a xlink:href="classo2_1_1quality__control__modules_1_1tpc_1_1Tracks.html" target="_top" xlink:title="Quality Control DPL Task for QC Module TPC for track related observables. ">
<polygon fill="none" stroke="black" points="176,-0.5 176,-30.5 290,-30.5 290,-0.5 176,-0.5"/>
<text text-anchor="start" x="184" y="-18.5" font-family="Helvetica,sans-Serif" font-size="10.00">o2::quality_control</text>
<text text-anchor="middle" x="233" y="-7.5" font-family="Helvetica,sans-Serif" font-size="10.00">_modules::tpc::Tracks</text>
</a>
</g>
</g>
<!-- Node1&#45;&gt;Node23 -->
<g id="edge22" class="edge"><title>Node1&#45;&gt;Node23</title>
<path fill="none" stroke="midnightblue" d="M55.3535,-533.016C59.0086,-439.179 76.3412,-114.525 143,-40.5 151.592,-30.9588 163.505,-24.9394 175.825,-21.1725"/>
<polygon fill="midnightblue" stroke="midnightblue" points="51.8459,-533.16 54.9732,-543.283 58.8411,-533.419 51.8459,-533.16"/>
</g>
</g>
</svg>
