<?xml version="1.0" encoding="UTF-8" standalone="no"?>
<!DOCTYPE svg PUBLIC "-//W3C//DTD SVG 1.1//EN"
 "http://www.w3.org/Graphics/SVG/1.1/DTD/svg11.dtd">
<!-- Generated by graphviz version 2.38.0 (20140413.2041)
 -->
<!-- Title: Modules/ITS/include/ITS/ITSOnlineTask.h Pages: 1 -->
<svg width="1164pt" height="285pt"
 viewBox="0.00 0.00 1164.00 285.00" xmlns="http://www.w3.org/2000/svg" xmlns:xlink="http://www.w3.org/1999/xlink">
<g id="graph0" class="graph" transform="scale(1 1) rotate(0) translate(4 281)">
<title>Modules/ITS/include/ITS/ITSOnlineTask.h</title>
<!-- Node1 -->
<g id="node1" class="node"><title>Node1</title>
<polygon fill="#bfbfbf" stroke="black" points="718.5,-246.5 718.5,-276.5 830.5,-276.5 830.5,-246.5 718.5,-246.5"/>
<text text-anchor="start" x="726.5" y="-264.5" font-family="Helvetica,sans-Serif" font-size="10.00">Modules/ITS/include</text>
<text text-anchor="middle" x="774.5" y="-253.5" font-family="Helvetica,sans-Serif" font-size="10.00">/ITS/ITSOnlineTask.h</text>
</g>
<!-- Node2 -->
<g id="node2" class="node"><title>Node2</title>
<g id="a_node2"><a xlink:href="TaskInterface_8h.html" target="_top" xlink:title="QualityControl/TaskInterface.h">
<polygon fill="none" stroke="black" points="64.5,-185 64.5,-204 214.5,-204 214.5,-185 64.5,-185"/>
<text text-anchor="middle" x="139.5" y="-192" font-family="Helvetica,sans-Serif" font-size="10.00">QualityControl/TaskInterface.h</text>
</a>
</g>
</g>
<!-- Node1&#45;&gt;Node2 -->
<g id="edge1" class="edge"><title>Node1&#45;&gt;Node2</title>
<path fill="none" stroke="midnightblue" d="M718.414,-256.84C618.611,-249.998 403.733,-233.777 223.5,-210 214.342,-208.792 204.655,-207.311 195.243,-205.762"/>
<polygon fill="midnightblue" stroke="midnightblue" points="195.618,-202.275 185.175,-204.064 194.453,-209.178 195.618,-202.275"/>
</g>
<!-- Node19 -->
<g id="node19" class="node"><title>Node19</title>
<polygon fill="none" stroke="#bfbfbf" points="233,-179.5 233,-209.5 352,-209.5 352,-179.5 233,-179.5"/>
<text text-anchor="start" x="241" y="-197.5" font-family="Helvetica,sans-Serif" font-size="10.00">ITSMFTReconstruction</text>
<text text-anchor="middle" x="292.5" y="-186.5" font-family="Helvetica,sans-Serif" font-size="10.00">/ChipMappingITS.h</text>
</g>
<!-- Node1&#45;&gt;Node19 -->
<g id="edge24" class="edge"><title>Node1&#45;&gt;Node19</title>
<path fill="none" stroke="midnightblue" d="M718.36,-255.247C640.487,-247.608 495.116,-232.075 362.108,-210.187"/>
<polygon fill="midnightblue" stroke="midnightblue" points="362.585,-206.718 352.147,-208.532 361.438,-213.624 362.585,-206.718"/>
</g>
<!-- Node20 -->
<g id="node20" class="node"><title>Node20</title>
<polygon fill="none" stroke="#bfbfbf" points="370,-179.5 370,-209.5 489,-209.5 489,-179.5 370,-179.5"/>
<text text-anchor="start" x="378" y="-197.5" font-family="Helvetica,sans-Serif" font-size="10.00">ITSMFTReconstruction</text>
<text text-anchor="middle" x="429.5" y="-186.5" font-family="Helvetica,sans-Serif" font-size="10.00">/PixelData.h</text>
</g>
<!-- Node1&#45;&gt;Node20 -->
<g id="edge25" class="edge"><title>Node1&#45;&gt;Node20</title>
<path fill="none" stroke="midnightblue" d="M718.435,-250.783C664.603,-241.339 580.736,-226.329 499.123,-210.292"/>
<polygon fill="midnightblue" stroke="midnightblue" points="499.672,-206.833 489.183,-208.332 498.317,-213.701 499.672,-206.833"/>
</g>
<!-- Node21 -->
<g id="node21" class="node"><title>Node21</title>
<polygon fill="none" stroke="#bfbfbf" points="507,-185 507,-204 640,-204 640,-185 507,-185"/>
<text text-anchor="middle" x="573.5" y="-192" font-family="Helvetica,sans-Serif" font-size="10.00">ITSBase/GeometryTGeo.h</text>
</g>
<!-- Node1&#45;&gt;Node21 -->
<g id="edge26" class="edge"><title>Node1&#45;&gt;Node21</title>
<path fill="none" stroke="midnightblue" d="M730.886,-246.396C694.526,-234.638 643.353,-218.089 609.345,-207.092"/>
<polygon fill="midnightblue" stroke="midnightblue" points="610.398,-203.754 599.806,-204.007 608.244,-210.414 610.398,-203.754"/>
</g>
<!-- Node22 -->
<g id="node22" class="node"><title>Node22</title>
<polygon fill="none" stroke="#bfbfbf" points="658,-179.5 658,-209.5 777,-209.5 777,-179.5 658,-179.5"/>
<text text-anchor="start" x="666" y="-197.5" font-family="Helvetica,sans-Serif" font-size="10.00">ITSMFTReconstruction</text>
<text text-anchor="middle" x="717.5" y="-186.5" font-family="Helvetica,sans-Serif" font-size="10.00">/RawPixelDecoder.h</text>
</g>
<!-- Node1&#45;&gt;Node22 -->
<g id="edge27" class="edge"><title>Node1&#45;&gt;Node22</title>
<path fill="none" stroke="midnightblue" d="M762.132,-246.396C754.662,-237.878 744.989,-226.847 736.558,-217.233"/>
<polygon fill="midnightblue" stroke="midnightblue" points="739.069,-214.787 729.844,-209.577 733.806,-219.403 739.069,-214.787"/>
</g>
<!-- Node23 -->
<g id="node23" class="node"><title>Node23</title>
<polygon fill="none" stroke="#bfbfbf" points="795.5,-185 795.5,-204 869.5,-204 869.5,-185 795.5,-185"/>
<text text-anchor="middle" x="832.5" y="-192" font-family="Helvetica,sans-Serif" font-size="10.00">THnSparse.h</text>
</g>
<!-- Node1&#45;&gt;Node23 -->
<g id="edge28" class="edge"><title>Node1&#45;&gt;Node23</title>
<path fill="none" stroke="midnightblue" d="M787.085,-246.396C796.129,-236.261 808.348,-222.567 817.833,-211.937"/>
<polygon fill="midnightblue" stroke="midnightblue" points="820.695,-213.986 824.742,-204.195 815.472,-209.326 820.695,-213.986"/>
</g>
<!-- Node24 -->
<g id="node24" class="node"><title>Node24</title>
<polygon fill="none" stroke="#bfbfbf" points="887.5,-185 887.5,-204 937.5,-204 937.5,-185 887.5,-185"/>
<text text-anchor="middle" x="912.5" y="-192" font-family="Helvetica,sans-Serif" font-size="10.00">TText.h</text>
</g>
<!-- Node1&#45;&gt;Node24 -->
<g id="edge29" class="edge"><title>Node1&#45;&gt;Node24</title>
<path fill="none" stroke="midnightblue" d="M804.444,-246.396C828.443,-235.092 861.842,-219.361 885.133,-208.39"/>
<polygon fill="midnightblue" stroke="midnightblue" points="886.884,-211.435 894.439,-204.007 883.901,-205.102 886.884,-211.435"/>
</g>
<!-- Node25 -->
<g id="node25" class="node"><title>Node25</title>
<polygon fill="none" stroke="#bfbfbf" points="955.5,-185 955.5,-204 999.5,-204 999.5,-185 955.5,-185"/>
<text text-anchor="middle" x="977.5" y="-192" font-family="Helvetica,sans-Serif" font-size="10.00">TH2.h</text>
</g>
<!-- Node1&#45;&gt;Node25 -->
<g id="edge30" class="edge"><title>Node1&#45;&gt;Node25</title>
<path fill="none" stroke="midnightblue" d="M830.202,-246.452C864.221,-237.307 908.366,-224.421 946.5,-210 947.924,-209.461 949.374,-208.885 950.829,-208.285"/>
<polygon fill="midnightblue" stroke="midnightblue" points="952.581,-211.338 960.32,-204.102 949.758,-204.932 952.581,-211.338"/>
</g>
<!-- Node26 -->
<g id="node26" class="node"><title>Node26</title>
<polygon fill="none" stroke="#bfbfbf" points="1018,-185 1018,-204 1065,-204 1065,-185 1018,-185"/>
<text text-anchor="middle" x="1041.5" y="-192" font-family="Helvetica,sans-Serif" font-size="10.00">TH2I.h</text>
</g>
<!-- Node1&#45;&gt;Node26 -->
<g id="edge31" class="edge"><title>Node1&#45;&gt;Node26</title>
<path fill="none" stroke="midnightblue" d="M830.651,-251.66C878.582,-243.341 948.996,-229.276 1008.5,-210 1010.38,-209.393 1012.29,-208.715 1014.2,-207.994"/>
<polygon fill="midnightblue" stroke="midnightblue" points="1015.67,-211.175 1023.6,-204.147 1013.02,-204.697 1015.67,-211.175"/>
</g>
<!-- Node27 -->
<g id="node27" class="node"><title>Node27</title>
<polygon fill="none" stroke="#bfbfbf" points="1083,-185 1083,-204 1156,-204 1156,-185 1083,-185"/>
<text text-anchor="middle" x="1119.5" y="-192" font-family="Helvetica,sans-Serif" font-size="10.00">TPaveText.h</text>
</g>
<!-- Node1&#45;&gt;Node27 -->
<g id="edge32" class="edge"><title>Node1&#45;&gt;Node27</title>
<path fill="none" stroke="midnightblue" d="M830.56,-253.537C891.199,-245.433 990.477,-230.494 1074.5,-210 1077.95,-209.158 1081.53,-208.185 1085.08,-207.151"/>
<polygon fill="midnightblue" stroke="midnightblue" points="1086.39,-210.409 1094.93,-204.128 1084.34,-203.717 1086.39,-210.409"/>
</g>
<!-- Node3 -->
<g id="node3" class="node"><title>Node3</title>
<polygon fill="none" stroke="#bfbfbf" points="165,-0.5 165,-19.5 200,-19.5 200,-0.5 165,-0.5"/>
<text text-anchor="middle" x="182.5" y="-7.5" font-family="Helvetica,sans-Serif" font-size="10.00">map</text>
</g>
<!-- Node2&#45;&gt;Node3 -->
<g id="edge2" class="edge"><title>Node2&#45;&gt;Node3</title>
<path fill="none" stroke="midnightblue" d="M103.4,-184.843C81.6558,-177.567 55.6977,-164.75 42.5,-143 22.4414,-109.943 19.7229,-87.246 42.5,-56 68.0368,-20.9681 121.292,-12.611 154.259,-10.9548"/>
<polygon fill="midnightblue" stroke="midnightblue" points="154.71,-14.4422 164.592,-10.6212 154.484,-7.4458 154.71,-14.4422"/>
</g>
<!-- Node4 -->
<g id="node4" class="node"><title>Node4</title>
<polygon fill="none" stroke="#bfbfbf" points="95.5,-62 95.5,-81 147.5,-81 147.5,-62 95.5,-62"/>
<text text-anchor="middle" x="121.5" y="-69" font-family="Helvetica,sans-Serif" font-size="10.00">memory</text>
</g>
<!-- Node2&#45;&gt;Node4 -->
<g id="edge3" class="edge"><title>Node2&#45;&gt;Node4</title>
<path fill="none" stroke="midnightblue" d="M133.315,-184.711C126.908,-175.022 117.309,-158.717 113.5,-143 109.293,-125.637 112.42,-105.32 115.922,-90.9689"/>
<polygon fill="midnightblue" stroke="midnightblue" points="119.303,-91.8736 118.558,-81.305 112.55,-90.0317 119.303,-91.8736"/>
</g>
<!-- Node5 -->
<g id="node5" class="node"><title>Node5</title>
<polygon fill="none" stroke="#bfbfbf" points="250,-0.5 250,-19.5 291,-19.5 291,-0.5 250,-0.5"/>
<text text-anchor="middle" x="270.5" y="-7.5" font-family="Helvetica,sans-Serif" font-size="10.00">string</text>
</g>
<!-- Node2&#45;&gt;Node5 -->
<g id="edge4" class="edge"><title>Node2&#45;&gt;Node5</title>
<path fill="none" stroke="midnightblue" d="M130.824,-184.895C108.636,-161.848 53.8023,-97.6581 86.5,-56 96.0019,-43.8943 189.983,-25.4328 239.822,-16.3824"/>
<polygon fill="midnightblue" stroke="midnightblue" points="240.517,-19.8136 249.74,-14.5997 239.279,-12.924 240.517,-19.8136"/>
</g>
<!-- Node6 -->
<g id="node6" class="node"><title>Node6</title>
<polygon fill="none" stroke="#bfbfbf" points="0,-0.5 0,-19.5 83,-19.5 83,-0.5 0,-0.5"/>
<text text-anchor="middle" x="41.5" y="-7.5" font-family="Helvetica,sans-Serif" font-size="10.00">unordered_map</text>
</g>
<!-- Node2&#45;&gt;Node6 -->
<g id="edge5" class="edge"><title>Node2&#45;&gt;Node6</title>
<path fill="none" stroke="midnightblue" d="M96.9634,-184.978C73.1589,-177.893 45.1945,-165.231 29.5,-143 5.36473,-108.813 21.5761,-56.5842 32.9904,-29.1994"/>
<polygon fill="midnightblue" stroke="midnightblue" points="36.3437,-30.2696 37.1768,-19.7075 29.939,-27.4447 36.3437,-30.2696"/>
</g>
<!-- Node7 -->
<g id="node7" class="node"><title>Node7</title>
<polygon fill="none" stroke="#bfbfbf" points="123,-123.5 123,-142.5 248,-142.5 248,-123.5 123,-123.5"/>
<text text-anchor="middle" x="185.5" y="-130.5" font-family="Helvetica,sans-Serif" font-size="10.00">Framework/InitContext.h</text>
</g>
<!-- Node2&#45;&gt;Node7 -->
<g id="edge6" class="edge"><title>Node2&#45;&gt;Node7</title>
<path fill="none" stroke="midnightblue" d="M146.091,-184.975C152.991,-176.05 164.002,-161.807 172.634,-150.643"/>
<polygon fill="midnightblue" stroke="midnightblue" points="175.574,-152.561 178.922,-142.509 170.036,-148.28 175.574,-152.561"/>
</g>
<!-- Node8 -->
<g id="node8" class="node"><title>Node8</title>
<polygon fill="none" stroke="#bfbfbf" points="266.5,-123.5 266.5,-142.5 426.5,-142.5 426.5,-123.5 266.5,-123.5"/>
<text text-anchor="middle" x="346.5" y="-130.5" font-family="Helvetica,sans-Serif" font-size="10.00">Framework/ProcessingContext.h</text>
</g>
<!-- Node2&#45;&gt;Node8 -->
<g id="edge7" class="edge"><title>Node2&#45;&gt;Node8</title>
<path fill="none" stroke="midnightblue" d="M169.158,-184.975C205.434,-174.548 266.964,-156.862 307.164,-145.307"/>
<polygon fill="midnightblue" stroke="midnightblue" points="308.253,-148.635 316.897,-142.509 306.319,-141.908 308.253,-148.635"/>
</g>
<!-- Node9 -->
<g id="node9" class="node"><title>Node9</title>
<g id="a_node9"><a xlink:href="Activity_8h.html" target="_top" xlink:title="QualityControl/Activity.h">
<polygon fill="none" stroke="black" points="445,-123.5 445,-142.5 568,-142.5 568,-123.5 445,-123.5"/>
<text text-anchor="middle" x="506.5" y="-130.5" font-family="Helvetica,sans-Serif" font-size="10.00">QualityControl/Activity.h</text>
</a>
</g>
</g>
<!-- Node2&#45;&gt;Node9 -->
<g id="edge8" class="edge"><title>Node2&#45;&gt;Node9</title>
<path fill="none" stroke="midnightblue" d="M188.341,-184.957C199.866,-182.972 212.112,-180.888 223.5,-179 298.158,-166.621 384.013,-153.065 441.399,-144.101"/>
<polygon fill="midnightblue" stroke="midnightblue" points="442.078,-147.538 451.419,-142.537 440.998,-140.621 442.078,-147.538"/>
</g>
<!-- Node10 -->
<g id="node10" class="node"><title>Node10</title>
<g id="a_node10"><a xlink:href="ObjectsManager_8h.html" target="_top" xlink:title="QualityControl/ObjectsManager.h">
<polygon fill="none" stroke="black" points="586,-123.5 586,-142.5 747,-142.5 747,-123.5 586,-123.5"/>
<text text-anchor="middle" x="666.5" y="-130.5" font-family="Helvetica,sans-Serif" font-size="10.00">QualityControl/ObjectsManager.h</text>
</a>
</g>
</g>
<!-- Node2&#45;&gt;Node10 -->
<g id="edge9" class="edge"><title>Node2&#45;&gt;Node10</title>
<path fill="none" stroke="midnightblue" d="M185.624,-184.943C197.906,-182.827 211.184,-180.686 223.5,-179 232.14,-177.817 448.797,-155.934 575.86,-143.127"/>
<polygon fill="midnightblue" stroke="midnightblue" points="576.382,-146.593 585.98,-142.108 575.68,-139.628 576.382,-146.593"/>
</g>
<!-- Node10&#45;&gt;Node4 -->
<g id="edge23" class="edge"><title>Node10&#45;&gt;Node4</title>
<path fill="none" stroke="midnightblue" d="M585.552,-123.855C582.496,-123.564 579.471,-123.278 576.5,-123 392.607,-105.811 343.007,-126.103 162.5,-87 159.076,-86.2582 155.546,-85.3089 152.061,-84.2516"/>
<polygon fill="midnightblue" stroke="midnightblue" points="153.077,-80.9013 142.484,-81.0689 150.87,-87.5441 153.077,-80.9013"/>
</g>
<!-- Node10&#45;&gt;Node5 -->
<g id="edge22" class="edge"><title>Node10&#45;&gt;Node5</title>
<path fill="none" stroke="midnightblue" d="M593.391,-123.499C509.116,-113.357 379.45,-96.5756 358.5,-87 354.356,-85.1057 312.269,-48.0657 287.832,-26.4071"/>
<polygon fill="midnightblue" stroke="midnightblue" points="290.104,-23.7443 280.302,-19.7247 285.458,-28.98 290.104,-23.7443"/>
</g>
<!-- Node11 -->
<g id="node11" class="node"><title>Node11</title>
<g id="a_node11"><a xlink:href="MonitorObject_8h.html" target="_top" xlink:title="QualityControl/MonitorObject.h">
<polygon fill="none" stroke="black" points="368,-62 368,-81 519,-81 519,-62 368,-62"/>
<text text-anchor="middle" x="443.5" y="-69" font-family="Helvetica,sans-Serif" font-size="10.00">QualityControl/MonitorObject.h</text>
</a>
</g>
</g>
<!-- Node10&#45;&gt;Node11 -->
<g id="edge10" class="edge"><title>Node10&#45;&gt;Node11</title>
<path fill="none" stroke="midnightblue" d="M634.55,-123.475C595.304,-113.004 528.622,-95.2118 485.327,-83.6601"/>
<polygon fill="midnightblue" stroke="midnightblue" points="485.956,-80.2054 475.391,-81.0091 484.151,-86.9688 485.956,-80.2054"/>
</g>
<!-- Node15 -->
<g id="node15" class="node"><title>Node15</title>
<g id="a_node15"><a xlink:href="MonitorObjectCollection_8h.html" target="_top" xlink:title="QualityControl/MonitorObject\lCollection.h">
<polygon fill="none" stroke="black" points="595,-56.5 595,-86.5 738,-86.5 738,-56.5 595,-56.5"/>
<text text-anchor="start" x="603" y="-74.5" font-family="Helvetica,sans-Serif" font-size="10.00">QualityControl/MonitorObject</text>
<text text-anchor="middle" x="666.5" y="-63.5" font-family="Helvetica,sans-Serif" font-size="10.00">Collection.h</text>
</a>
</g>
</g>
<!-- Node10&#45;&gt;Node15 -->
<g id="edge16" class="edge"><title>Node10&#45;&gt;Node15</title>
<path fill="none" stroke="midnightblue" d="M666.5,-123.475C666.5,-116.471 666.5,-106.192 666.5,-96.6956"/>
<polygon fill="midnightblue" stroke="midnightblue" points="670,-96.5229 666.5,-86.523 663,-96.523 670,-96.5229"/>
</g>
<!-- Node18 -->
<g id="node18" class="node"><title>Node18</title>
<g id="a_node18"><a xlink:href="TaskConfig_8h.html" target="_top" xlink:title="QualityControl/TaskConfig.h">
<polygon fill="none" stroke="black" points="171.5,-62 171.5,-81 311.5,-81 311.5,-62 171.5,-62"/>
<text text-anchor="middle" x="241.5" y="-69" font-family="Helvetica,sans-Serif" font-size="10.00">QualityControl/TaskConfig.h</text>
</a>
</g>
</g>
<!-- Node10&#45;&gt;Node18 -->
<g id="edge19" class="edge"><title>Node10&#45;&gt;Node18</title>
<path fill="none" stroke="midnightblue" d="M595.523,-123.467C526.465,-114.969 418.627,-101.177 325.5,-87 316.89,-85.6893 307.799,-84.2149 298.904,-82.7213"/>
<polygon fill="midnightblue" stroke="midnightblue" points="299.425,-79.2598 288.98,-81.0346 298.252,-86.1608 299.425,-79.2598"/>
</g>
<!-- Node11&#45;&gt;Node3 -->
<g id="edge12" class="edge"><title>Node11&#45;&gt;Node3</title>
<path fill="none" stroke="midnightblue" d="M406.105,-61.9751C353.032,-49.8761 257.091,-28.0045 210.034,-17.277"/>
<polygon fill="midnightblue" stroke="midnightblue" points="210.764,-13.8536 200.236,-15.0433 209.208,-20.6785 210.764,-13.8536"/>
</g>
<!-- Node11&#45;&gt;Node5 -->
<g id="edge11" class="edge"><title>Node11&#45;&gt;Node5</title>
<path fill="none" stroke="midnightblue" d="M418.713,-61.9751C387.639,-51.2877 334.394,-32.975 300.895,-21.4536"/>
<polygon fill="midnightblue" stroke="midnightblue" points="301.773,-18.0547 291.179,-18.112 299.497,-24.6741 301.773,-18.0547"/>
</g>
<!-- Node12 -->
<g id="node12" class="node"><title>Node12</title>
<polygon fill="none" stroke="#bfbfbf" points="339.5,-0.5 339.5,-19.5 395.5,-19.5 395.5,-0.5 339.5,-0.5"/>
<text text-anchor="middle" x="367.5" y="-7.5" font-family="Helvetica,sans-Serif" font-size="10.00">Rtypes.h</text>
</g>
<!-- Node11&#45;&gt;Node12 -->
<g id="edge13" class="edge"><title>Node11&#45;&gt;Node12</title>
<path fill="none" stroke="midnightblue" d="M432.611,-61.9751C420.534,-52.5199 400.833,-37.0961 386.26,-25.6871"/>
<polygon fill="midnightblue" stroke="midnightblue" points="388.4,-22.9177 378.369,-19.5091 384.085,-28.4295 388.4,-22.9177"/>
</g>
<!-- Node13 -->
<g id="node13" class="node"><title>Node13</title>
<polygon fill="none" stroke="#bfbfbf" points="414,-0.5 414,-19.5 473,-19.5 473,-0.5 414,-0.5"/>
<text text-anchor="middle" x="443.5" y="-7.5" font-family="Helvetica,sans-Serif" font-size="10.00">TObject.h</text>
</g>
<!-- Node11&#45;&gt;Node13 -->
<g id="edge14" class="edge"><title>Node11&#45;&gt;Node13</title>
<path fill="none" stroke="midnightblue" d="M443.5,-61.9751C443.5,-53.5803 443.5,-40.4806 443.5,-29.6631"/>
<polygon fill="midnightblue" stroke="midnightblue" points="447,-29.5091 443.5,-19.5091 440,-29.5091 447,-29.5091"/>
</g>
<!-- Node14 -->
<g id="node14" class="node"><title>Node14</title>
<polygon fill="none" stroke="#bfbfbf" points="491.5,-0.5 491.5,-19.5 607.5,-19.5 607.5,-0.5 491.5,-0.5"/>
<text text-anchor="middle" x="549.5" y="-7.5" font-family="Helvetica,sans-Serif" font-size="10.00">Common/Exceptions.h</text>
</g>
<!-- Node11&#45;&gt;Node14 -->
<g id="edge15" class="edge"><title>Node11&#45;&gt;Node14</title>
<path fill="none" stroke="midnightblue" d="M458.687,-61.9751C476.162,-52.1664 505.079,-35.9346 525.583,-24.425"/>
<polygon fill="midnightblue" stroke="midnightblue" points="527.334,-27.456 534.341,-19.5091 523.908,-21.3519 527.334,-27.456"/>
</g>
<!-- Node16 -->
<g id="node16" class="node"><title>Node16</title>
<polygon fill="none" stroke="#bfbfbf" points="629,-0.5 629,-19.5 698,-19.5 698,-0.5 629,-0.5"/>
<text text-anchor="middle" x="663.5" y="-7.5" font-family="Helvetica,sans-Serif" font-size="10.00">TObjArray.h</text>
</g>
<!-- Node15&#45;&gt;Node16 -->
<g id="edge17" class="edge"><title>Node15&#45;&gt;Node16</title>
<path fill="none" stroke="midnightblue" d="M665.789,-56.3993C665.389,-48.4664 664.884,-38.458 664.451,-29.8583"/>
<polygon fill="midnightblue" stroke="midnightblue" points="667.936,-29.4688 663.937,-19.6578 660.945,-29.8214 667.936,-29.4688"/>
</g>
<!-- Node17 -->
<g id="node17" class="node"><title>Node17</title>
<polygon fill="none" stroke="#bfbfbf" points="716.5,-0.5 716.5,-19.5 844.5,-19.5 844.5,-0.5 716.5,-0.5"/>
<text text-anchor="middle" x="780.5" y="-7.5" font-family="Helvetica,sans-Serif" font-size="10.00">Mergers/MergeInterface.h</text>
</g>
<!-- Node15&#45;&gt;Node17 -->
<g id="edge18" class="edge"><title>Node15&#45;&gt;Node17</title>
<path fill="none" stroke="midnightblue" d="M693.516,-56.3993C712.131,-46.6837 736.71,-33.8551 754.991,-24.3137"/>
<polygon fill="midnightblue" stroke="midnightblue" points="756.666,-27.3876 763.912,-19.6578 753.427,-21.182 756.666,-27.3876"/>
</g>
<!-- Node18&#45;&gt;Node5 -->
<g id="edge20" class="edge"><title>Node18&#45;&gt;Node5</title>
<path fill="none" stroke="midnightblue" d="M245.655,-61.9751C249.876,-53.3152 256.537,-39.6486 261.9,-28.6453"/>
<polygon fill="midnightblue" stroke="midnightblue" points="265.118,-30.0317 266.353,-19.5091 258.825,-26.9648 265.118,-30.0317"/>
</g>
<!-- Node18&#45;&gt;Node6 -->
<g id="edge21" class="edge"><title>Node18&#45;&gt;Node6</title>
<path fill="none" stroke="midnightblue" d="M212.845,-61.9751C177.944,-51.592 118.85,-34.0116 80.0003,-22.4538"/>
<polygon fill="midnightblue" stroke="midnightblue" points="80.6848,-19.0059 70.102,-19.5091 78.6888,-25.7153 80.6848,-19.0059"/>
</g>
</g>
</svg>
