<?xml version="1.0" encoding="UTF-8" standalone="no"?>
<!DOCTYPE svg PUBLIC "-//W3C//DTD SVG 1.1//EN"
 "http://www.w3.org/Graphics/SVG/1.1/DTD/svg11.dtd">
<!-- Generated by graphviz version 2.38.0 (20140413.2041)
 -->
<!-- Title: Modules/ITS/src/ITSRawTask.cxx Pages: 1 -->
<svg width="1253pt" height="330pt"
 viewBox="0.00 0.00 1253.00 330.00" xmlns="http://www.w3.org/2000/svg" xmlns:xlink="http://www.w3.org/1999/xlink">
<g id="graph0" class="graph" transform="scale(1 1) rotate(0) translate(4 326)">
<title>Modules/ITS/src/ITSRawTask.cxx</title>
<!-- Node1 -->
<g id="node1" class="node"><title>Node1</title>
<polygon fill="#bfbfbf" stroke="black" points="798,-302.5 798,-321.5 966,-321.5 966,-302.5 798,-302.5"/>
<text text-anchor="middle" x="882" y="-309.5" font-family="Helvetica,sans-Serif" font-size="10.00">Modules/ITS/src/ITSRawTask.cxx</text>
</g>
<!-- Node2 -->
<g id="node2" class="node"><title>Node2</title>
<g id="a_node2"><a xlink:href="QcInfoLogger_8h.html" target="_top" xlink:title="QualityControl/QcInfoLogger.h">
<polygon fill="none" stroke="black" points="170.5,-246.5 170.5,-265.5 319.5,-265.5 319.5,-246.5 170.5,-246.5"/>
<text text-anchor="middle" x="245" y="-253.5" font-family="Helvetica,sans-Serif" font-size="10.00">QualityControl/QcInfoLogger.h</text>
</a>
</g>
</g>
<!-- Node1&#45;&gt;Node2 -->
<g id="edge1" class="edge"><title>Node1&#45;&gt;Node2</title>
<path fill="none" stroke="midnightblue" d="M797.74,-303.857C675.887,-293.527 451.738,-274.526 329.661,-264.177"/>
<polygon fill="midnightblue" stroke="midnightblue" points="329.872,-260.682 319.612,-263.325 329.28,-267.657 329.872,-260.682"/>
</g>
<!-- Node5 -->
<g id="node5" class="node"><title>Node5</title>
<g id="a_node5"><a xlink:href="ITSRawTask_8h.html" target="_top" xlink:title="ITS QC task for raw data analysis. ">
<polygon fill="none" stroke="black" points="648.5,-246.5 648.5,-265.5 749.5,-265.5 749.5,-246.5 648.5,-246.5"/>
<text text-anchor="middle" x="699" y="-253.5" font-family="Helvetica,sans-Serif" font-size="10.00">ITS/ITSRawTask.h</text>
</a>
</g>
</g>
<!-- Node1&#45;&gt;Node5 -->
<g id="edge4" class="edge"><title>Node1&#45;&gt;Node5</title>
<path fill="none" stroke="midnightblue" d="M853.003,-302.444C821.815,-293.241 772.07,-278.562 737.592,-268.388"/>
<polygon fill="midnightblue" stroke="midnightblue" points="738.443,-264.99 727.861,-265.516 736.462,-271.704 738.443,-264.99"/>
</g>
<!-- Node29 -->
<g id="node29" class="node"><title>Node29</title>
<g id="a_node29"><a xlink:href="ITSTaskVariables_8h_source.html" target="_top" xlink:title="ITS/ITSTaskVariables.h">
<polygon fill="none" stroke="black" points="768,-246.5 768,-265.5 890,-265.5 890,-246.5 768,-246.5"/>
<text text-anchor="middle" x="829" y="-253.5" font-family="Helvetica,sans-Serif" font-size="10.00">ITS/ITSTaskVariables.h</text>
</a>
</g>
</g>
<!-- Node1&#45;&gt;Node29 -->
<g id="edge34" class="edge"><title>Node1&#45;&gt;Node29</title>
<path fill="none" stroke="midnightblue" d="M873.248,-302.083C865.53,-294.22 854.095,-282.569 844.783,-273.081"/>
<polygon fill="midnightblue" stroke="midnightblue" points="847.092,-270.436 837.589,-265.751 842.096,-275.34 847.092,-270.436"/>
</g>
<!-- Node30 -->
<g id="node30" class="node"><title>Node30</title>
<polygon fill="none" stroke="#bfbfbf" points="908,-246.5 908,-265.5 964,-265.5 964,-246.5 908,-246.5"/>
<text text-anchor="middle" x="936" y="-253.5" font-family="Helvetica,sans-Serif" font-size="10.00">TGaxis.h</text>
</g>
<!-- Node1&#45;&gt;Node30 -->
<g id="edge35" class="edge"><title>Node1&#45;&gt;Node30</title>
<path fill="none" stroke="midnightblue" d="M890.917,-302.083C898.78,-294.22 910.431,-282.569 919.919,-273.081"/>
<polygon fill="midnightblue" stroke="midnightblue" points="922.653,-275.297 927.249,-265.751 917.703,-270.347 922.653,-275.297"/>
</g>
<!-- Node31 -->
<g id="node31" class="node"><title>Node31</title>
<polygon fill="none" stroke="#bfbfbf" points="982.5,-246.5 982.5,-265.5 1035.5,-265.5 1035.5,-246.5 982.5,-246.5"/>
<text text-anchor="middle" x="1009" y="-253.5" font-family="Helvetica,sans-Serif" font-size="10.00">TStyle.h</text>
</g>
<!-- Node1&#45;&gt;Node31 -->
<g id="edge36" class="edge"><title>Node1&#45;&gt;Node31</title>
<path fill="none" stroke="midnightblue" d="M902.124,-302.444C923.024,-293.557 955.935,-279.563 979.716,-269.451"/>
<polygon fill="midnightblue" stroke="midnightblue" points="981.138,-272.65 988.971,-265.516 978.398,-266.208 981.138,-272.65"/>
</g>
<!-- Node32 -->
<g id="node32" class="node"><title>Node32</title>
<polygon fill="none" stroke="#bfbfbf" points="1054,-246.5 1054,-265.5 1102,-265.5 1102,-246.5 1054,-246.5"/>
<text text-anchor="middle" x="1078" y="-253.5" font-family="Helvetica,sans-Serif" font-size="10.00">TPad.h</text>
</g>
<!-- Node1&#45;&gt;Node32 -->
<g id="edge37" class="edge"><title>Node1&#45;&gt;Node32</title>
<path fill="none" stroke="midnightblue" d="M913.057,-302.444C948.774,-292.603 1007.22,-276.502 1044.09,-266.342"/>
<polygon fill="midnightblue" stroke="midnightblue" points="1045.17,-269.674 1053.89,-263.644 1043.31,-262.926 1045.17,-269.674"/>
</g>
<!-- Node3 -->
<g id="node3" class="node"><title>Node3</title>
<polygon fill="none" stroke="#bfbfbf" points="180,-185 180,-204 310,-204 310,-185 180,-185"/>
<text text-anchor="middle" x="245" y="-192" font-family="Helvetica,sans-Serif" font-size="10.00">InfoLogger/InfoLogger.hxx</text>
</g>
<!-- Node2&#45;&gt;Node3 -->
<g id="edge2" class="edge"><title>Node2&#45;&gt;Node3</title>
<path fill="none" stroke="midnightblue" d="M245,-246.475C245,-238.08 245,-224.981 245,-214.163"/>
<polygon fill="midnightblue" stroke="midnightblue" points="248.5,-214.009 245,-204.009 241.5,-214.009 248.5,-214.009"/>
</g>
<!-- Node4 -->
<g id="node4" class="node"><title>Node4</title>
<polygon fill="none" stroke="#bfbfbf" points="0,-185 0,-204 162,-204 162,-185 0,-185"/>
<text text-anchor="middle" x="81" y="-192" font-family="Helvetica,sans-Serif" font-size="10.00">InfoLogger/InfoLoggerMacros.hxx</text>
</g>
<!-- Node2&#45;&gt;Node4 -->
<g id="edge3" class="edge"><title>Node2&#45;&gt;Node4</title>
<path fill="none" stroke="midnightblue" d="M221.503,-246.475C193.371,-236.269 146.071,-219.108 114.211,-207.549"/>
<polygon fill="midnightblue" stroke="midnightblue" points="115.048,-204.13 104.454,-204.009 112.66,-210.71 115.048,-204.13"/>
</g>
<!-- Node6 -->
<g id="node6" class="node"><title>Node6</title>
<g id="a_node6"><a xlink:href="TaskInterface_8h.html" target="_top" xlink:title="QualityControl/TaskInterface.h">
<polygon fill="none" stroke="black" points="466,-185 466,-204 616,-204 616,-185 466,-185"/>
<text text-anchor="middle" x="541" y="-192" font-family="Helvetica,sans-Serif" font-size="10.00">QualityControl/TaskInterface.h</text>
</a>
</g>
</g>
<!-- Node5&#45;&gt;Node6 -->
<g id="edge5" class="edge"><title>Node5&#45;&gt;Node6</title>
<path fill="none" stroke="midnightblue" d="M676.362,-246.475C649.26,-236.269 603.69,-219.108 572.996,-207.549"/>
<polygon fill="midnightblue" stroke="midnightblue" points="574.187,-204.258 563.596,-204.009 571.72,-210.809 574.187,-204.258"/>
</g>
<!-- Node23 -->
<g id="node23" class="node"><title>Node23</title>
<polygon fill="none" stroke="#bfbfbf" points="634,-185 634,-204 684,-204 684,-185 634,-185"/>
<text text-anchor="middle" x="659" y="-192" font-family="Helvetica,sans-Serif" font-size="10.00">TH2F.h</text>
</g>
<!-- Node5&#45;&gt;Node23 -->
<g id="edge28" class="edge"><title>Node5&#45;&gt;Node23</title>
<path fill="none" stroke="midnightblue" d="M693.269,-246.475C687.328,-237.638 677.883,-223.589 670.412,-212.475"/>
<polygon fill="midnightblue" stroke="midnightblue" points="673.204,-210.355 664.72,-204.009 667.395,-214.261 673.204,-210.355"/>
</g>
<!-- Node24 -->
<g id="node24" class="node"><title>Node24</title>
<polygon fill="none" stroke="#bfbfbf" points="702.5,-185 702.5,-204 775.5,-204 775.5,-185 702.5,-185"/>
<text text-anchor="middle" x="739" y="-192" font-family="Helvetica,sans-Serif" font-size="10.00">TPaveText.h</text>
</g>
<!-- Node5&#45;&gt;Node24 -->
<g id="edge29" class="edge"><title>Node5&#45;&gt;Node24</title>
<path fill="none" stroke="midnightblue" d="M704.731,-246.475C710.672,-237.638 720.117,-223.589 727.588,-212.475"/>
<polygon fill="midnightblue" stroke="midnightblue" points="730.605,-214.261 733.28,-204.009 724.796,-210.355 730.605,-214.261"/>
</g>
<!-- Node25 -->
<g id="node25" class="node"><title>Node25</title>
<polygon fill="none" stroke="#bfbfbf" points="794,-185 794,-204 854,-204 854,-185 794,-185"/>
<text text-anchor="middle" x="824" y="-192" font-family="Helvetica,sans-Serif" font-size="10.00">TEllipse.h</text>
</g>
<!-- Node5&#45;&gt;Node25 -->
<g id="edge30" class="edge"><title>Node5&#45;&gt;Node25</title>
<path fill="none" stroke="midnightblue" d="M716.909,-246.475C737.887,-236.49 772.85,-219.848 797.093,-208.307"/>
<polygon fill="midnightblue" stroke="midnightblue" points="798.599,-211.467 806.124,-204.009 795.59,-205.147 798.599,-211.467"/>
</g>
<!-- Node26 -->
<g id="node26" class="node"><title>Node26</title>
<polygon fill="none" stroke="#bfbfbf" points="872.5,-179.5 872.5,-209.5 991.5,-209.5 991.5,-179.5 872.5,-179.5"/>
<text text-anchor="start" x="880.5" y="-197.5" font-family="Helvetica,sans-Serif" font-size="10.00">ITSMFTReconstruction</text>
<text text-anchor="middle" x="932" y="-186.5" font-family="Helvetica,sans-Serif" font-size="10.00">/RawPixelReader.h</text>
</g>
<!-- Node5&#45;&gt;Node26 -->
<g id="edge31" class="edge"><title>Node5&#45;&gt;Node26</title>
<path fill="none" stroke="midnightblue" d="M732.383,-246.475C767.479,-237.513 823.573,-223.188 867.374,-212.003"/>
<polygon fill="midnightblue" stroke="midnightblue" points="868.263,-215.388 877.087,-209.523 866.531,-208.606 868.263,-215.388"/>
</g>
<!-- Node27 -->
<g id="node27" class="node"><title>Node27</title>
<polygon fill="none" stroke="#bfbfbf" points="1009.5,-185 1009.5,-204 1142.5,-204 1142.5,-185 1009.5,-185"/>
<text text-anchor="middle" x="1076" y="-192" font-family="Helvetica,sans-Serif" font-size="10.00">ITSBase/GeometryTGeo.h</text>
</g>
<!-- Node5&#45;&gt;Node27 -->
<g id="edge32" class="edge"><title>Node5&#45;&gt;Node27</title>
<path fill="none" stroke="midnightblue" d="M749.738,-247.385C752.872,-246.916 755.979,-246.451 759,-246 866.546,-229.935 893.816,-228.325 1001,-210 1008.36,-208.741 1016.12,-207.335 1023.73,-205.906"/>
<polygon fill="midnightblue" stroke="midnightblue" points="1024.45,-209.332 1033.62,-204.026 1023.14,-202.456 1024.45,-209.332"/>
</g>
<!-- Node28 -->
<g id="node28" class="node"><title>Node28</title>
<polygon fill="none" stroke="#bfbfbf" points="328.5,-179.5 328.5,-209.5 447.5,-209.5 447.5,-179.5 328.5,-179.5"/>
<text text-anchor="start" x="336.5" y="-197.5" font-family="Helvetica,sans-Serif" font-size="10.00">ITSMFTReconstruction</text>
<text text-anchor="middle" x="388" y="-186.5" font-family="Helvetica,sans-Serif" font-size="10.00">/DigitPixelReader.h</text>
</g>
<!-- Node5&#45;&gt;Node28 -->
<g id="edge33" class="edge"><title>Node5&#45;&gt;Node28</title>
<path fill="none" stroke="midnightblue" d="M651.183,-246.447C604.421,-238.007 530.934,-224.542 457.684,-210.11"/>
<polygon fill="midnightblue" stroke="midnightblue" points="458.311,-206.666 447.822,-208.16 456.953,-213.533 458.311,-206.666"/>
</g>
<!-- Node7 -->
<g id="node7" class="node"><title>Node7</title>
<polygon fill="none" stroke="#bfbfbf" points="565.5,-0.5 565.5,-19.5 600.5,-19.5 600.5,-0.5 565.5,-0.5"/>
<text text-anchor="middle" x="583" y="-7.5" font-family="Helvetica,sans-Serif" font-size="10.00">map</text>
</g>
<!-- Node6&#45;&gt;Node7 -->
<g id="edge6" class="edge"><title>Node6&#45;&gt;Node7</title>
<path fill="none" stroke="midnightblue" d="M504.539,-184.945C482.576,-177.709 456.351,-164.899 443,-143 422.872,-109.985 420.223,-87.246 443,-56 468.537,-20.9681 521.792,-12.611 554.759,-10.9548"/>
<polygon fill="midnightblue" stroke="midnightblue" points="555.21,-14.4422 565.092,-10.6212 554.984,-7.4458 555.21,-14.4422"/>
</g>
<!-- Node8 -->
<g id="node8" class="node"><title>Node8</title>
<polygon fill="none" stroke="#bfbfbf" points="496,-62 496,-81 548,-81 548,-62 496,-62"/>
<text text-anchor="middle" x="522" y="-69" font-family="Helvetica,sans-Serif" font-size="10.00">memory</text>
</g>
<!-- Node6&#45;&gt;Node8 -->
<g id="edge7" class="edge"><title>Node6&#45;&gt;Node8</title>
<path fill="none" stroke="midnightblue" d="M534.58,-184.749C527.929,-175.093 517.963,-158.816 514,-143 509.658,-125.67 512.804,-105.349 516.346,-90.9876"/>
<polygon fill="midnightblue" stroke="midnightblue" points="519.729,-91.8862 519.015,-81.3154 512.981,-90.024 519.729,-91.8862"/>
</g>
<!-- Node9 -->
<g id="node9" class="node"><title>Node9</title>
<polygon fill="none" stroke="#bfbfbf" points="650.5,-0.5 650.5,-19.5 691.5,-19.5 691.5,-0.5 650.5,-0.5"/>
<text text-anchor="middle" x="671" y="-7.5" font-family="Helvetica,sans-Serif" font-size="10.00">string</text>
</g>
<!-- Node6&#45;&gt;Node9 -->
<g id="edge8" class="edge"><title>Node6&#45;&gt;Node9</title>
<path fill="none" stroke="midnightblue" d="M532.22,-184.906C509.759,-161.887 454.222,-97.7606 487,-56 496.502,-43.8943 590.483,-25.4328 640.322,-16.3824"/>
<polygon fill="midnightblue" stroke="midnightblue" points="641.017,-19.8136 650.24,-14.5997 639.779,-12.924 641.017,-19.8136"/>
</g>
<!-- Node10 -->
<g id="node10" class="node"><title>Node10</title>
<polygon fill="none" stroke="#bfbfbf" points="400.5,-0.5 400.5,-19.5 483.5,-19.5 483.5,-0.5 400.5,-0.5"/>
<text text-anchor="middle" x="442" y="-7.5" font-family="Helvetica,sans-Serif" font-size="10.00">unordered_map</text>
</g>
<!-- Node6&#45;&gt;Node10 -->
<g id="edge9" class="edge"><title>Node6&#45;&gt;Node10</title>
<path fill="none" stroke="midnightblue" d="M496.435,-184.96C472.405,-177.916 444.563,-165.302 429,-143 405.035,-108.657 421.68,-56.4938 433.33,-29.1601"/>
<polygon fill="midnightblue" stroke="midnightblue" points="436.682,-30.2423 437.599,-19.6873 430.3,-27.3662 436.682,-30.2423"/>
</g>
<!-- Node11 -->
<g id="node11" class="node"><title>Node11</title>
<polygon fill="none" stroke="#bfbfbf" points="523.5,-123.5 523.5,-142.5 648.5,-142.5 648.5,-123.5 523.5,-123.5"/>
<text text-anchor="middle" x="586" y="-130.5" font-family="Helvetica,sans-Serif" font-size="10.00">Framework/InitContext.h</text>
</g>
<!-- Node6&#45;&gt;Node11 -->
<g id="edge10" class="edge"><title>Node6&#45;&gt;Node11</title>
<path fill="none" stroke="midnightblue" d="M547.447,-184.975C554.197,-176.05 564.969,-161.807 573.413,-150.643"/>
<polygon fill="midnightblue" stroke="midnightblue" points="576.324,-152.596 579.565,-142.509 570.741,-148.374 576.324,-152.596"/>
</g>
<!-- Node12 -->
<g id="node12" class="node"><title>Node12</title>
<polygon fill="none" stroke="#bfbfbf" points="667,-123.5 667,-142.5 827,-142.5 827,-123.5 667,-123.5"/>
<text text-anchor="middle" x="747" y="-130.5" font-family="Helvetica,sans-Serif" font-size="10.00">Framework/ProcessingContext.h</text>
</g>
<!-- Node6&#45;&gt;Node12 -->
<g id="edge11" class="edge"><title>Node6&#45;&gt;Node12</title>
<path fill="none" stroke="midnightblue" d="M570.515,-184.975C606.616,-174.548 667.848,-156.862 707.854,-145.307"/>
<polygon fill="midnightblue" stroke="midnightblue" points="708.904,-148.647 717.54,-142.509 706.961,-141.922 708.904,-148.647"/>
</g>
<!-- Node13 -->
<g id="node13" class="node"><title>Node13</title>
<g id="a_node13"><a xlink:href="Activity_8h.html" target="_top" xlink:title="QualityControl/Activity.h">
<polygon fill="none" stroke="black" points="845.5,-123.5 845.5,-142.5 968.5,-142.5 968.5,-123.5 845.5,-123.5"/>
<text text-anchor="middle" x="907" y="-130.5" font-family="Helvetica,sans-Serif" font-size="10.00">QualityControl/Activity.h</text>
</a>
</g>
</g>
<!-- Node6&#45;&gt;Node13 -->
<g id="edge12" class="edge"><title>Node6&#45;&gt;Node13</title>
<path fill="none" stroke="midnightblue" d="M589.842,-184.961C601.367,-182.976 613.613,-180.891 625,-179 699.512,-166.624 785.214,-153.041 842.396,-144.07"/>
<polygon fill="midnightblue" stroke="midnightblue" points="843.041,-147.512 852.379,-142.506 841.957,-140.597 843.041,-147.512"/>
</g>
<!-- Node14 -->
<g id="node14" class="node"><title>Node14</title>
<g id="a_node14"><a xlink:href="ObjectsManager_8h.html" target="_top" xlink:title="QualityControl/ObjectsManager.h">
<polygon fill="none" stroke="black" points="986.5,-123.5 986.5,-142.5 1147.5,-142.5 1147.5,-123.5 986.5,-123.5"/>
<text text-anchor="middle" x="1067" y="-130.5" font-family="Helvetica,sans-Serif" font-size="10.00">QualityControl/ObjectsManager.h</text>
</a>
</g>
</g>
<!-- Node6&#45;&gt;Node14 -->
<g id="edge13" class="edge"><title>Node6&#45;&gt;Node14</title>
<path fill="none" stroke="midnightblue" d="M587.124,-184.945C599.406,-182.829 612.684,-180.688 625,-179 629.319,-178.408 848.128,-156.194 976.217,-143.203"/>
<polygon fill="midnightblue" stroke="midnightblue" points="976.822,-146.66 986.417,-142.169 976.115,-139.696 976.822,-146.66"/>
</g>
<!-- Node14&#45;&gt;Node8 -->
<g id="edge27" class="edge"><title>Node14&#45;&gt;Node8</title>
<path fill="none" stroke="midnightblue" d="M986.475,-123.805C983.615,-123.531 980.783,-123.261 978,-123 793.674,-105.686 743.944,-126.178 563,-87 559.576,-86.2586 556.045,-85.3094 552.56,-84.2523"/>
<polygon fill="midnightblue" stroke="midnightblue" points="553.577,-80.902 542.983,-81.0698 551.369,-87.5448 553.577,-80.902"/>
</g>
<!-- Node14&#45;&gt;Node9 -->
<g id="edge26" class="edge"><title>Node14&#45;&gt;Node9</title>
<path fill="none" stroke="midnightblue" d="M994.137,-123.471C910.144,-113.301 780.908,-96.4916 760,-87 751.725,-83.2434 711.549,-47.6194 688.101,-26.5039"/>
<polygon fill="midnightblue" stroke="midnightblue" points="690.353,-23.8209 680.585,-19.7162 685.661,-29.016 690.353,-23.8209"/>
</g>
<!-- Node15 -->
<g id="node15" class="node"><title>Node15</title>
<g id="a_node15"><a xlink:href="MonitorObject_8h.html" target="_top" xlink:title="QualityControl/MonitorObject.h">
<polygon fill="none" stroke="black" points="768.5,-62 768.5,-81 919.5,-81 919.5,-62 768.5,-62"/>
<text text-anchor="middle" x="844" y="-69" font-family="Helvetica,sans-Serif" font-size="10.00">QualityControl/MonitorObject.h</text>
</a>
</g>
</g>
<!-- Node14&#45;&gt;Node15 -->
<g id="edge14" class="edge"><title>Node14&#45;&gt;Node15</title>
<path fill="none" stroke="midnightblue" d="M1035.05,-123.475C995.804,-113.004 929.122,-95.2118 885.827,-83.6601"/>
<polygon fill="midnightblue" stroke="midnightblue" points="886.456,-80.2054 875.891,-81.0091 884.651,-86.9688 886.456,-80.2054"/>
</g>
<!-- Node19 -->
<g id="node19" class="node"><title>Node19</title>
<g id="a_node19"><a xlink:href="MonitorObjectCollection_8h.html" target="_top" xlink:title="QualityControl/MonitorObject\lCollection.h">
<polygon fill="none" stroke="black" points="995.5,-56.5 995.5,-86.5 1138.5,-86.5 1138.5,-56.5 995.5,-56.5"/>
<text text-anchor="start" x="1003.5" y="-74.5" font-family="Helvetica,sans-Serif" font-size="10.00">QualityControl/MonitorObject</text>
<text text-anchor="middle" x="1067" y="-63.5" font-family="Helvetica,sans-Serif" font-size="10.00">Collection.h</text>
</a>
</g>
</g>
<!-- Node14&#45;&gt;Node19 -->
<g id="edge20" class="edge"><title>Node14&#45;&gt;Node19</title>
<path fill="none" stroke="midnightblue" d="M1067,-123.475C1067,-116.471 1067,-106.192 1067,-96.6956"/>
<polygon fill="midnightblue" stroke="midnightblue" points="1070.5,-96.5229 1067,-86.523 1063.5,-96.523 1070.5,-96.5229"/>
</g>
<!-- Node22 -->
<g id="node22" class="node"><title>Node22</title>
<g id="a_node22"><a xlink:href="TaskConfig_8h.html" target="_top" xlink:title="QualityControl/TaskConfig.h">
<polygon fill="none" stroke="black" points="572,-62 572,-81 712,-81 712,-62 572,-62"/>
<text text-anchor="middle" x="642" y="-69" font-family="Helvetica,sans-Serif" font-size="10.00">QualityControl/TaskConfig.h</text>
</a>
</g>
</g>
<!-- Node14&#45;&gt;Node22 -->
<g id="edge23" class="edge"><title>Node14&#45;&gt;Node22</title>
<path fill="none" stroke="midnightblue" d="M996.023,-123.467C926.965,-114.969 819.127,-101.177 726,-87 717.39,-85.6893 708.299,-84.2149 699.404,-82.7213"/>
<polygon fill="midnightblue" stroke="midnightblue" points="699.925,-79.2598 689.48,-81.0346 698.752,-86.1608 699.925,-79.2598"/>
</g>
<!-- Node15&#45;&gt;Node7 -->
<g id="edge16" class="edge"><title>Node15&#45;&gt;Node7</title>
<path fill="none" stroke="midnightblue" d="M806.605,-61.9751C753.532,-49.8761 657.591,-28.0045 610.534,-17.277"/>
<polygon fill="midnightblue" stroke="midnightblue" points="611.264,-13.8536 600.736,-15.0433 609.708,-20.6785 611.264,-13.8536"/>
</g>
<!-- Node15&#45;&gt;Node9 -->
<g id="edge15" class="edge"><title>Node15&#45;&gt;Node9</title>
<path fill="none" stroke="midnightblue" d="M819.213,-61.9751C788.139,-51.2877 734.894,-32.975 701.395,-21.4536"/>
<polygon fill="midnightblue" stroke="midnightblue" points="702.273,-18.0547 691.679,-18.112 699.997,-24.6741 702.273,-18.0547"/>
</g>
<!-- Node16 -->
<g id="node16" class="node"><title>Node16</title>
<polygon fill="none" stroke="#bfbfbf" points="740,-0.5 740,-19.5 796,-19.5 796,-0.5 740,-0.5"/>
<text text-anchor="middle" x="768" y="-7.5" font-family="Helvetica,sans-Serif" font-size="10.00">Rtypes.h</text>
</g>
<!-- Node15&#45;&gt;Node16 -->
<g id="edge17" class="edge"><title>Node15&#45;&gt;Node16</title>
<path fill="none" stroke="midnightblue" d="M833.111,-61.9751C821.034,-52.5199 801.333,-37.0961 786.76,-25.6871"/>
<polygon fill="midnightblue" stroke="midnightblue" points="788.9,-22.9177 778.869,-19.5091 784.585,-28.4295 788.9,-22.9177"/>
</g>
<!-- Node17 -->
<g id="node17" class="node"><title>Node17</title>
<polygon fill="none" stroke="#bfbfbf" points="814.5,-0.5 814.5,-19.5 873.5,-19.5 873.5,-0.5 814.5,-0.5"/>
<text text-anchor="middle" x="844" y="-7.5" font-family="Helvetica,sans-Serif" font-size="10.00">TObject.h</text>
</g>
<!-- Node15&#45;&gt;Node17 -->
<g id="edge18" class="edge"><title>Node15&#45;&gt;Node17</title>
<path fill="none" stroke="midnightblue" d="M844,-61.9751C844,-53.5803 844,-40.4806 844,-29.6631"/>
<polygon fill="midnightblue" stroke="midnightblue" points="847.5,-29.5091 844,-19.5091 840.5,-29.5091 847.5,-29.5091"/>
</g>
<!-- Node18 -->
<g id="node18" class="node"><title>Node18</title>
<polygon fill="none" stroke="#bfbfbf" points="892,-0.5 892,-19.5 1008,-19.5 1008,-0.5 892,-0.5"/>
<text text-anchor="middle" x="950" y="-7.5" font-family="Helvetica,sans-Serif" font-size="10.00">Common/Exceptions.h</text>
</g>
<!-- Node15&#45;&gt;Node18 -->
<g id="edge19" class="edge"><title>Node15&#45;&gt;Node18</title>
<path fill="none" stroke="midnightblue" d="M859.187,-61.9751C876.662,-52.1664 905.579,-35.9346 926.083,-24.425"/>
<polygon fill="midnightblue" stroke="midnightblue" points="927.834,-27.456 934.841,-19.5091 924.408,-21.3519 927.834,-27.456"/>
</g>
<!-- Node20 -->
<g id="node20" class="node"><title>Node20</title>
<polygon fill="none" stroke="#bfbfbf" points="1029.5,-0.5 1029.5,-19.5 1098.5,-19.5 1098.5,-0.5 1029.5,-0.5"/>
<text text-anchor="middle" x="1064" y="-7.5" font-family="Helvetica,sans-Serif" font-size="10.00">TObjArray.h</text>
</g>
<!-- Node19&#45;&gt;Node20 -->
<g id="edge21" class="edge"><title>Node19&#45;&gt;Node20</title>
<path fill="none" stroke="midnightblue" d="M1066.29,-56.3993C1065.89,-48.4664 1065.38,-38.458 1064.95,-29.8583"/>
<polygon fill="midnightblue" stroke="midnightblue" points="1068.44,-29.4688 1064.44,-19.6578 1061.44,-29.8214 1068.44,-29.4688"/>
</g>
<!-- Node21 -->
<g id="node21" class="node"><title>Node21</title>
<polygon fill="none" stroke="#bfbfbf" points="1117,-0.5 1117,-19.5 1245,-19.5 1245,-0.5 1117,-0.5"/>
<text text-anchor="middle" x="1181" y="-7.5" font-family="Helvetica,sans-Serif" font-size="10.00">Mergers/MergeInterface.h</text>
</g>
<!-- Node19&#45;&gt;Node21 -->
<g id="edge22" class="edge"><title>Node19&#45;&gt;Node21</title>
<path fill="none" stroke="midnightblue" d="M1094.02,-56.3993C1112.63,-46.6837 1137.21,-33.8551 1155.49,-24.3137"/>
<polygon fill="midnightblue" stroke="midnightblue" points="1157.17,-27.3876 1164.41,-19.6578 1153.93,-21.182 1157.17,-27.3876"/>
</g>
<!-- Node22&#45;&gt;Node9 -->
<g id="edge24" class="edge"><title>Node22&#45;&gt;Node9</title>
<path fill="none" stroke="midnightblue" d="M646.155,-61.9751C650.376,-53.3152 657.037,-39.6486 662.4,-28.6453"/>
<polygon fill="midnightblue" stroke="midnightblue" points="665.618,-30.0317 666.853,-19.5091 659.325,-26.9648 665.618,-30.0317"/>
</g>
<!-- Node22&#45;&gt;Node10 -->
<g id="edge25" class="edge"><title>Node22&#45;&gt;Node10</title>
<path fill="none" stroke="midnightblue" d="M613.345,-61.9751C578.444,-51.592 519.35,-34.0116 480.5,-22.4538"/>
<polygon fill="midnightblue" stroke="midnightblue" points="481.185,-19.0059 470.602,-19.5091 479.189,-25.7153 481.185,-19.0059"/>
</g>
</g>
</svg>
