<?xml version="1.0" encoding="UTF-8" standalone="no"?>
<!DOCTYPE svg PUBLIC "-//W3C//DTD SVG 1.1//EN"
 "http://www.w3.org/Graphics/SVG/1.1/DTD/svg11.dtd">
<!-- Generated by graphviz version 2.38.0 (20140413.2041)
 -->
<!-- Title: Modules/MUON/MCH/src/Mapping.cxx Pages: 1 -->
<!--zoomable 341 -->
<svg id="main" version="1.1" xmlns="http://www.w3.org/2000/svg" xmlns:xlink="http://www.w3.org/1999/xlink" xml:space="preserve" onload="init(evt)">
<style type="text/css"><![CDATA[
.edge:hover path { stroke: red; }
.edge:hover polygon { stroke: red; fill: red; }
]]></style>
<script type="text/javascript"><![CDATA[
var edges = document.getElementsByTagName('g');
if (edges && edges.length) {
  for (var i=0;i<edges.length;i++) {
    if (edges[i].id.substr(0,4)=='edge') {
      edges[i].setAttribute('class','edge');
    }
  }
}
]]></script>
        <defs>
                <circle id="rim" cx="0" cy="0" r="7"/>
                <circle id="rim2" cx="0" cy="0" r="3.5"/>
                <g id="zoomPlus">
                        <use xlink:href="#rim" fill="#404040">
                                <set attributeName="fill" to="#808080" begin="zoomplus.mouseover" end="zoomplus.mouseout"/>
                        </use>
                        <path d="M-4,0h8M0,-4v8" fill="none" stroke="white" stroke-width="1.5" pointer-events="none"/>
                </g>
                <g id="zoomMin">
                        <use xlink:href="#rim" fill="#404040">
                                <set attributeName="fill" to="#808080" begin="zoomminus.mouseover" end="zoomminus.mouseout"/>
                        </use>
                        <path d="M-4,0h8" fill="none" stroke="white" stroke-width="1.5" pointer-events="none"/>
                </g>
                <g id="dirArrow">
                        <path fill="none" stroke="white" stroke-width="1.5" d="M0,-3.0v7 M-2.5,-0.5L0,-3.0L2.5,-0.5"/>
                </g>
               <g id="resetDef">
                       <use xlink:href="#rim2" fill="#404040">
                               <set attributeName="fill" to="#808080" begin="reset.mouseover" end="reset.mouseout"/>
                       </use>
               </g>
        </defs>

<script type="text/javascript">
var viewWidth = 1248;
var viewHeight = 341;
var sectionId = 'dynsection-0';
</script>
<script xlink:href="svgpan.js"/>
<svg id="graph" class="graph">
<g id="viewport">
<title>Modules/MUON/MCH/src/Mapping.cxx</title>
<!-- Node1 -->
<g id="node1" class="node"><title>Node1</title>
<polygon fill="#bfbfbf" stroke="black" points="329,-302.5 329,-332.5 459,-332.5 459,-302.5 329,-302.5"/>
<text text-anchor="start" x="337" y="-320.5" font-family="Helvetica,sans-Serif" font-size="10.00">Modules/MUON/MCH/src</text>
<text text-anchor="middle" x="394" y="-309.5" font-family="Helvetica,sans-Serif" font-size="10.00">/Mapping.cxx</text>
</g>
<!-- Node2 -->
<g id="node2" class="node"><title>Node2</title>
<g id="a_node2"><a xlink:href="QcInfoLogger_8h.html" target="_top" xlink:title="QualityControl/QcInfoLogger.h">
<polygon fill="none" stroke="black" points="154.5,-246.5 154.5,-265.5 303.5,-265.5 303.5,-246.5 154.5,-246.5"/>
<text text-anchor="middle" x="229" y="-253.5" font-family="Helvetica,sans-Serif" font-size="10.00">QualityControl/QcInfoLogger.h</text>
</a>
</g>
</g>
<!-- Node1&#45;&gt;Node2 -->
<g id="edge1" class="edge"><title>Node1&#45;&gt;Node2</title>
<path fill="none" stroke="midnightblue" d="M354.897,-302.399C326.842,-292.283 289.427,-278.791 262.691,-269.149"/>
<polygon fill="midnightblue" stroke="midnightblue" points="263.603,-265.758 253.009,-265.658 261.229,-272.343 263.603,-265.758"/>
</g>
<!-- Node5 -->
<g id="node5" class="node"><title>Node5</title>
<g id="a_node5"><a xlink:href="Mapping_8h_source.html" target="_top" xlink:title="MCH/Mapping.h">
<polygon fill="none" stroke="black" points="386,-246.5 386,-265.5 474,-265.5 474,-246.5 386,-246.5"/>
<text text-anchor="middle" x="430" y="-253.5" font-family="Helvetica,sans-Serif" font-size="10.00">MCH/Mapping.h</text>
</a>
</g>
</g>
<!-- Node1&#45;&gt;Node5 -->
<g id="edge4" class="edge"><title>Node1&#45;&gt;Node5</title>
<path fill="none" stroke="midnightblue" d="M402.531,-302.399C407.601,-294.021 414.071,-283.327 419.458,-274.423"/>
<polygon fill="midnightblue" stroke="midnightblue" points="422.58,-276.025 424.762,-265.658 416.59,-272.402 422.58,-276.025"/>
</g>
<!-- Node6 -->
<g id="node6" class="node"><title>Node6</title>
<polygon fill="none" stroke="#bfbfbf" points="328.5,-179.5 328.5,-209.5 443.5,-209.5 443.5,-179.5 328.5,-179.5"/>
<text text-anchor="start" x="336.5" y="-197.5" font-family="Helvetica,sans-Serif" font-size="10.00">MCHMappingInterface</text>
<text text-anchor="middle" x="386" y="-186.5" font-family="Helvetica,sans-Serif" font-size="10.00">/Segmentation.h</text>
</g>
<!-- Node1&#45;&gt;Node6 -->
<g id="edge30" class="edge"><title>Node1&#45;&gt;Node6</title>
<path fill="none" stroke="midnightblue" d="M387.809,-302.233C383.842,-292.289 379.064,-278.598 377,-266 374.482,-250.627 376.636,-233.27 379.467,-219.626"/>
<polygon fill="midnightblue" stroke="midnightblue" points="382.945,-220.121 381.806,-209.587 376.128,-218.532 382.945,-220.121"/>
</g>
<!-- Node24 -->
<g id="node24" class="node"><title>Node24</title>
<polygon fill="none" stroke="#bfbfbf" points="492,-246.5 492,-265.5 542,-265.5 542,-246.5 492,-246.5"/>
<text text-anchor="middle" x="517" y="-253.5" font-family="Helvetica,sans-Serif" font-size="10.00">fstream</text>
</g>
<!-- Node1&#45;&gt;Node24 -->
<g id="edge29" class="edge"><title>Node1&#45;&gt;Node24</title>
<path fill="none" stroke="midnightblue" d="M423.149,-302.399C443.418,-292.595 470.241,-279.619 490.019,-270.052"/>
<polygon fill="midnightblue" stroke="midnightblue" points="491.624,-273.163 499.102,-265.658 488.576,-266.862 491.624,-273.163"/>
</g>
<!-- Node3 -->
<g id="node3" class="node"><title>Node3</title>
<polygon fill="none" stroke="#bfbfbf" points="0,-185 0,-204 130,-204 130,-185 0,-185"/>
<text text-anchor="middle" x="65" y="-192" font-family="Helvetica,sans-Serif" font-size="10.00">InfoLogger/InfoLogger.hxx</text>
</g>
<!-- Node2&#45;&gt;Node3 -->
<g id="edge2" class="edge"><title>Node2&#45;&gt;Node3</title>
<path fill="none" stroke="midnightblue" d="M205.503,-246.475C177.371,-236.269 130.071,-219.108 98.2112,-207.549"/>
<polygon fill="midnightblue" stroke="midnightblue" points="99.0478,-204.13 88.4536,-204.009 96.6604,-210.71 99.0478,-204.13"/>
</g>
<!-- Node4 -->
<g id="node4" class="node"><title>Node4</title>
<polygon fill="none" stroke="#bfbfbf" points="148,-185 148,-204 310,-204 310,-185 148,-185"/>
<text text-anchor="middle" x="229" y="-192" font-family="Helvetica,sans-Serif" font-size="10.00">InfoLogger/InfoLoggerMacros.hxx</text>
</g>
<!-- Node2&#45;&gt;Node4 -->
<g id="edge3" class="edge"><title>Node2&#45;&gt;Node4</title>
<path fill="none" stroke="midnightblue" d="M229,-246.475C229,-238.08 229,-224.981 229,-214.163"/>
<polygon fill="midnightblue" stroke="midnightblue" points="232.5,-214.009 229,-204.009 225.5,-214.009 232.5,-214.009"/>
</g>
<!-- Node5&#45;&gt;Node6 -->
<g id="edge5" class="edge"><title>Node5&#45;&gt;Node6</title>
<path fill="none" stroke="midnightblue" d="M423.696,-246.475C418.127,-238.944 409.757,-227.626 402.318,-217.566"/>
<polygon fill="midnightblue" stroke="midnightblue" points="405.13,-215.482 396.37,-209.523 399.502,-219.644 405.13,-215.482"/>
</g>
<!-- Node7 -->
<g id="node7" class="node"><title>Node7</title>
<g id="a_node7"><a xlink:href="TaskInterface_8h.html" target="_top" xlink:title="QualityControl/TaskInterface.h">
<polygon fill="none" stroke="black" points="461,-185 461,-204 611,-204 611,-185 461,-185"/>
<text text-anchor="middle" x="536" y="-192" font-family="Helvetica,sans-Serif" font-size="10.00">QualityControl/TaskInterface.h</text>
</a>
</g>
</g>
<!-- Node5&#45;&gt;Node7 -->
<g id="edge6" class="edge"><title>Node5&#45;&gt;Node7</title>
<path fill="none" stroke="midnightblue" d="M445.187,-246.475C462.662,-236.666 491.579,-220.435 512.083,-208.925"/>
<polygon fill="midnightblue" stroke="midnightblue" points="513.834,-211.956 520.841,-204.009 510.408,-205.852 513.834,-211.956"/>
</g>
<!-- Node8 -->
<g id="node8" class="node"><title>Node8</title>
<polygon fill="none" stroke="#bfbfbf" points="560.5,-0.5 560.5,-19.5 595.5,-19.5 595.5,-0.5 560.5,-0.5"/>
<text text-anchor="middle" x="578" y="-7.5" font-family="Helvetica,sans-Serif" font-size="10.00">map</text>
</g>
<!-- Node7&#45;&gt;Node8 -->
<g id="edge7" class="edge"><title>Node7&#45;&gt;Node8</title>
<path fill="none" stroke="midnightblue" d="M499.539,-184.945C477.576,-177.709 451.351,-164.899 438,-143 417.872,-109.985 415.223,-87.246 438,-56 463.537,-20.9681 516.792,-12.611 549.759,-10.9548"/>
<polygon fill="midnightblue" stroke="midnightblue" points="550.21,-14.4422 560.092,-10.6212 549.984,-7.4458 550.21,-14.4422"/>
</g>
<!-- Node9 -->
<g id="node9" class="node"><title>Node9</title>
<polygon fill="none" stroke="#bfbfbf" points="491,-62 491,-81 543,-81 543,-62 491,-62"/>
<text text-anchor="middle" x="517" y="-69" font-family="Helvetica,sans-Serif" font-size="10.00">memory</text>
</g>
<!-- Node7&#45;&gt;Node9 -->
<g id="edge8" class="edge"><title>Node7&#45;&gt;Node9</title>
<path fill="none" stroke="midnightblue" d="M529.58,-184.749C522.929,-175.093 512.963,-158.816 509,-143 504.658,-125.67 507.804,-105.349 511.346,-90.9876"/>
<polygon fill="midnightblue" stroke="midnightblue" points="514.729,-91.8862 514.015,-81.3154 507.981,-90.024 514.729,-91.8862"/>
</g>
<!-- Node10 -->
<g id="node10" class="node"><title>Node10</title>
<polygon fill="none" stroke="#bfbfbf" points="645.5,-0.5 645.5,-19.5 686.5,-19.5 686.5,-0.5 645.5,-0.5"/>
<text text-anchor="middle" x="666" y="-7.5" font-family="Helvetica,sans-Serif" font-size="10.00">string</text>
</g>
<!-- Node7&#45;&gt;Node10 -->
<g id="edge9" class="edge"><title>Node7&#45;&gt;Node10</title>
<path fill="none" stroke="midnightblue" d="M527.22,-184.906C504.759,-161.887 449.222,-97.7606 482,-56 491.502,-43.8943 585.483,-25.4328 635.322,-16.3824"/>
<polygon fill="midnightblue" stroke="midnightblue" points="636.017,-19.8136 645.24,-14.5997 634.779,-12.924 636.017,-19.8136"/>
</g>
<!-- Node11 -->
<g id="node11" class="node"><title>Node11</title>
<polygon fill="none" stroke="#bfbfbf" points="395.5,-0.5 395.5,-19.5 478.5,-19.5 478.5,-0.5 395.5,-0.5"/>
<text text-anchor="middle" x="437" y="-7.5" font-family="Helvetica,sans-Serif" font-size="10.00">unordered_map</text>
</g>
<!-- Node7&#45;&gt;Node11 -->
<g id="edge10" class="edge"><title>Node7&#45;&gt;Node11</title>
<path fill="none" stroke="midnightblue" d="M491.435,-184.96C467.405,-177.916 439.563,-165.302 424,-143 400.035,-108.657 416.68,-56.4938 428.33,-29.1601"/>
<polygon fill="midnightblue" stroke="midnightblue" points="431.682,-30.2423 432.599,-19.6873 425.3,-27.3662 431.682,-30.2423"/>
</g>
<!-- Node12 -->
<g id="node12" class="node"><title>Node12</title>
<polygon fill="none" stroke="#bfbfbf" points="518.5,-123.5 518.5,-142.5 643.5,-142.5 643.5,-123.5 518.5,-123.5"/>
<text text-anchor="middle" x="581" y="-130.5" font-family="Helvetica,sans-Serif" font-size="10.00">Framework/InitContext.h</text>
</g>
<!-- Node7&#45;&gt;Node12 -->
<g id="edge11" class="edge"><title>Node7&#45;&gt;Node12</title>
<path fill="none" stroke="midnightblue" d="M542.447,-184.975C549.197,-176.05 559.969,-161.807 568.413,-150.643"/>
<polygon fill="midnightblue" stroke="midnightblue" points="571.324,-152.596 574.565,-142.509 565.741,-148.374 571.324,-152.596"/>
</g>
<!-- Node13 -->
<g id="node13" class="node"><title>Node13</title>
<polygon fill="none" stroke="#bfbfbf" points="662,-123.5 662,-142.5 822,-142.5 822,-123.5 662,-123.5"/>
<text text-anchor="middle" x="742" y="-130.5" font-family="Helvetica,sans-Serif" font-size="10.00">Framework/ProcessingContext.h</text>
</g>
<!-- Node7&#45;&gt;Node13 -->
<g id="edge12" class="edge"><title>Node7&#45;&gt;Node13</title>
<path fill="none" stroke="midnightblue" d="M565.515,-184.975C601.616,-174.548 662.848,-156.862 702.854,-145.307"/>
<polygon fill="midnightblue" stroke="midnightblue" points="703.904,-148.647 712.54,-142.509 701.961,-141.922 703.904,-148.647"/>
</g>
<!-- Node14 -->
<g id="node14" class="node"><title>Node14</title>
<g id="a_node14"><a xlink:href="Activity_8h.html" target="_top" xlink:title="QualityControl/Activity.h">
<polygon fill="none" stroke="black" points="840.5,-123.5 840.5,-142.5 963.5,-142.5 963.5,-123.5 840.5,-123.5"/>
<text text-anchor="middle" x="902" y="-130.5" font-family="Helvetica,sans-Serif" font-size="10.00">QualityControl/Activity.h</text>
</a>
</g>
</g>
<!-- Node7&#45;&gt;Node14 -->
<g id="edge13" class="edge"><title>Node7&#45;&gt;Node14</title>
<path fill="none" stroke="midnightblue" d="M588.439,-184.975C654.754,-174.194 768.798,-155.654 839.545,-144.153"/>
<polygon fill="midnightblue" stroke="midnightblue" points="840.35,-147.568 849.658,-142.509 839.226,-140.659 840.35,-147.568"/>
</g>
<!-- Node15 -->
<g id="node15" class="node"><title>Node15</title>
<g id="a_node15"><a xlink:href="ObjectsManager_8h.html" target="_top" xlink:title="QualityControl/ObjectsManager.h">
<polygon fill="none" stroke="black" points="981.5,-123.5 981.5,-142.5 1142.5,-142.5 1142.5,-123.5 981.5,-123.5"/>
<text text-anchor="middle" x="1062" y="-130.5" font-family="Helvetica,sans-Serif" font-size="10.00">QualityControl/ObjectsManager.h</text>
</a>
</g>
</g>
<!-- Node7&#45;&gt;Node15 -->
<g id="edge14" class="edge"><title>Node7&#45;&gt;Node15</title>
<path fill="none" stroke="midnightblue" d="M611.083,-185.007C707.682,-174.08 875.078,-155.144 976.481,-143.674"/>
<polygon fill="midnightblue" stroke="midnightblue" points="977.146,-147.121 986.689,-142.519 976.359,-140.165 977.146,-147.121"/>
</g>
<!-- Node15&#45;&gt;Node9 -->
<g id="edge28" class="edge"><title>Node15&#45;&gt;Node9</title>
<path fill="none" stroke="midnightblue" d="M981.475,-123.805C978.615,-123.531 975.783,-123.261 973,-123 788.674,-105.686 738.944,-126.178 558,-87 554.576,-86.2586 551.045,-85.3094 547.56,-84.2523"/>
<polygon fill="midnightblue" stroke="midnightblue" points="548.577,-80.902 537.983,-81.0698 546.369,-87.5448 548.577,-80.902"/>
</g>
<!-- Node15&#45;&gt;Node10 -->
<g id="edge27" class="edge"><title>Node15&#45;&gt;Node10</title>
<path fill="none" stroke="midnightblue" d="M988.891,-123.499C904.616,-113.357 774.95,-96.5756 754,-87 749.856,-85.1057 707.769,-48.0657 683.332,-26.4071"/>
<polygon fill="midnightblue" stroke="midnightblue" points="685.604,-23.7443 675.802,-19.7247 680.958,-28.98 685.604,-23.7443"/>
</g>
<!-- Node16 -->
<g id="node16" class="node"><title>Node16</title>
<g id="a_node16"><a xlink:href="MonitorObject_8h.html" target="_top" xlink:title="QualityControl/MonitorObject.h">
<polygon fill="none" stroke="black" points="763.5,-62 763.5,-81 914.5,-81 914.5,-62 763.5,-62"/>
<text text-anchor="middle" x="839" y="-69" font-family="Helvetica,sans-Serif" font-size="10.00">QualityControl/MonitorObject.h</text>
</a>
</g>
</g>
<!-- Node15&#45;&gt;Node16 -->
<g id="edge15" class="edge"><title>Node15&#45;&gt;Node16</title>
<path fill="none" stroke="midnightblue" d="M1030.05,-123.475C990.804,-113.004 924.122,-95.2118 880.827,-83.6601"/>
<polygon fill="midnightblue" stroke="midnightblue" points="881.456,-80.2054 870.891,-81.0091 879.651,-86.9688 881.456,-80.2054"/>
</g>
<!-- Node20 -->
<g id="node20" class="node"><title>Node20</title>
<g id="a_node20"><a xlink:href="MonitorObjectCollection_8h.html" target="_top" xlink:title="QualityControl/MonitorObject\lCollection.h">
<polygon fill="none" stroke="black" points="990.5,-56.5 990.5,-86.5 1133.5,-86.5 1133.5,-56.5 990.5,-56.5"/>
<text text-anchor="start" x="998.5" y="-74.5" font-family="Helvetica,sans-Serif" font-size="10.00">QualityControl/MonitorObject</text>
<text text-anchor="middle" x="1062" y="-63.5" font-family="Helvetica,sans-Serif" font-size="10.00">Collection.h</text>
</a>
</g>
</g>
<!-- Node15&#45;&gt;Node20 -->
<g id="edge21" class="edge"><title>Node15&#45;&gt;Node20</title>
<path fill="none" stroke="midnightblue" d="M1062,-123.475C1062,-116.471 1062,-106.192 1062,-96.6956"/>
<polygon fill="midnightblue" stroke="midnightblue" points="1065.5,-96.5229 1062,-86.523 1058.5,-96.523 1065.5,-96.5229"/>
</g>
<!-- Node23 -->
<g id="node23" class="node"><title>Node23</title>
<g id="a_node23"><a xlink:href="TaskConfig_8h.html" target="_top" xlink:title="QualityControl/TaskConfig.h">
<polygon fill="none" stroke="black" points="567,-62 567,-81 707,-81 707,-62 567,-62"/>
<text text-anchor="middle" x="637" y="-69" font-family="Helvetica,sans-Serif" font-size="10.00">QualityControl/TaskConfig.h</text>
</a>
</g>
</g>
<!-- Node15&#45;&gt;Node23 -->
<g id="edge24" class="edge"><title>Node15&#45;&gt;Node23</title>
<path fill="none" stroke="midnightblue" d="M991.023,-123.467C921.965,-114.969 814.127,-101.177 721,-87 712.39,-85.6893 703.299,-84.2149 694.404,-82.7213"/>
<polygon fill="midnightblue" stroke="midnightblue" points="694.925,-79.2598 684.48,-81.0346 693.752,-86.1608 694.925,-79.2598"/>
</g>
<!-- Node16&#45;&gt;Node8 -->
<g id="edge17" class="edge"><title>Node16&#45;&gt;Node8</title>
<path fill="none" stroke="midnightblue" d="M801.605,-61.9751C748.532,-49.8761 652.591,-28.0045 605.534,-17.277"/>
<polygon fill="midnightblue" stroke="midnightblue" points="606.264,-13.8536 595.736,-15.0433 604.708,-20.6785 606.264,-13.8536"/>
</g>
<!-- Node16&#45;&gt;Node10 -->
<g id="edge16" class="edge"><title>Node16&#45;&gt;Node10</title>
<path fill="none" stroke="midnightblue" d="M814.213,-61.9751C783.139,-51.2877 729.894,-32.975 696.395,-21.4536"/>
<polygon fill="midnightblue" stroke="midnightblue" points="697.273,-18.0547 686.679,-18.112 694.997,-24.6741 697.273,-18.0547"/>
</g>
<!-- Node17 -->
<g id="node17" class="node"><title>Node17</title>
<polygon fill="none" stroke="#bfbfbf" points="735,-0.5 735,-19.5 791,-19.5 791,-0.5 735,-0.5"/>
<text text-anchor="middle" x="763" y="-7.5" font-family="Helvetica,sans-Serif" font-size="10.00">Rtypes.h</text>
</g>
<!-- Node16&#45;&gt;Node17 -->
<g id="edge18" class="edge"><title>Node16&#45;&gt;Node17</title>
<path fill="none" stroke="midnightblue" d="M828.111,-61.9751C816.034,-52.5199 796.333,-37.0961 781.76,-25.6871"/>
<polygon fill="midnightblue" stroke="midnightblue" points="783.9,-22.9177 773.869,-19.5091 779.585,-28.4295 783.9,-22.9177"/>
</g>
<!-- Node18 -->
<g id="node18" class="node"><title>Node18</title>
<polygon fill="none" stroke="#bfbfbf" points="809.5,-0.5 809.5,-19.5 868.5,-19.5 868.5,-0.5 809.5,-0.5"/>
<text text-anchor="middle" x="839" y="-7.5" font-family="Helvetica,sans-Serif" font-size="10.00">TObject.h</text>
</g>
<!-- Node16&#45;&gt;Node18 -->
<g id="edge19" class="edge"><title>Node16&#45;&gt;Node18</title>
<path fill="none" stroke="midnightblue" d="M839,-61.9751C839,-53.5803 839,-40.4806 839,-29.6631"/>
<polygon fill="midnightblue" stroke="midnightblue" points="842.5,-29.5091 839,-19.5091 835.5,-29.5091 842.5,-29.5091"/>
</g>
<!-- Node19 -->
<g id="node19" class="node"><title>Node19</title>
<polygon fill="none" stroke="#bfbfbf" points="887,-0.5 887,-19.5 1003,-19.5 1003,-0.5 887,-0.5"/>
<text text-anchor="middle" x="945" y="-7.5" font-family="Helvetica,sans-Serif" font-size="10.00">Common/Exceptions.h</text>
</g>
<!-- Node16&#45;&gt;Node19 -->
<g id="edge20" class="edge"><title>Node16&#45;&gt;Node19</title>
<path fill="none" stroke="midnightblue" d="M854.187,-61.9751C871.662,-52.1664 900.579,-35.9346 921.083,-24.425"/>
<polygon fill="midnightblue" stroke="midnightblue" points="922.834,-27.456 929.841,-19.5091 919.408,-21.3519 922.834,-27.456"/>
</g>
<!-- Node21 -->
<g id="node21" class="node"><title>Node21</title>
<polygon fill="none" stroke="#bfbfbf" points="1024.5,-0.5 1024.5,-19.5 1093.5,-19.5 1093.5,-0.5 1024.5,-0.5"/>
<text text-anchor="middle" x="1059" y="-7.5" font-family="Helvetica,sans-Serif" font-size="10.00">TObjArray.h</text>
</g>
<!-- Node20&#45;&gt;Node21 -->
<g id="edge22" class="edge"><title>Node20&#45;&gt;Node21</title>
<path fill="none" stroke="midnightblue" d="M1061.29,-56.3993C1060.89,-48.4664 1060.38,-38.458 1059.95,-29.8583"/>
<polygon fill="midnightblue" stroke="midnightblue" points="1063.44,-29.4688 1059.44,-19.6578 1056.44,-29.8214 1063.44,-29.4688"/>
</g>
<!-- Node22 -->
<g id="node22" class="node"><title>Node22</title>
<polygon fill="none" stroke="#bfbfbf" points="1112,-0.5 1112,-19.5 1240,-19.5 1240,-0.5 1112,-0.5"/>
<text text-anchor="middle" x="1176" y="-7.5" font-family="Helvetica,sans-Serif" font-size="10.00">Mergers/MergeInterface.h</text>
</g>
<!-- Node20&#45;&gt;Node22 -->
<g id="edge23" class="edge"><title>Node20&#45;&gt;Node22</title>
<path fill="none" stroke="midnightblue" d="M1089.02,-56.3993C1107.63,-46.6837 1132.21,-33.8551 1150.49,-24.3137"/>
<polygon fill="midnightblue" stroke="midnightblue" points="1152.17,-27.3876 1159.41,-19.6578 1148.93,-21.182 1152.17,-27.3876"/>
</g>
<!-- Node23&#45;&gt;Node10 -->
<g id="edge25" class="edge"><title>Node23&#45;&gt;Node10</title>
<path fill="none" stroke="midnightblue" d="M641.155,-61.9751C645.376,-53.3152 652.037,-39.6486 657.4,-28.6453"/>
<polygon fill="midnightblue" stroke="midnightblue" points="660.618,-30.0317 661.853,-19.5091 654.325,-26.9648 660.618,-30.0317"/>
</g>
<!-- Node23&#45;&gt;Node11 -->
<g id="edge26" class="edge"><title>Node23&#45;&gt;Node11</title>
<path fill="none" stroke="midnightblue" d="M608.345,-61.9751C573.444,-51.592 514.35,-34.0116 475.5,-22.4538"/>
<polygon fill="midnightblue" stroke="midnightblue" points="476.185,-19.0059 465.602,-19.5091 474.189,-25.7153 476.185,-19.0059"/>
</g>
</g>
</svg>
        <g id="navigator" transform="translate(0 0)" fill="#404254">
                <rect fill="#f2f5e9" fill-opacity="0.5" stroke="#606060" stroke-width=".5" x="0" y="0" width="60" height="60"/>
                <use id="zoomplus" xlink:href="#zoomPlus" x="17" y="9" onmousedown="handleZoom(evt,'in')"/>
                <use id="zoomminus" xlink:href="#zoomMin" x="42" y="9" onmousedown="handleZoom(evt,'out')"/>
                <use id="reset" xlink:href="#resetDef" x="30" y="36" onmousedown="handleReset()"/>
                <g id="arrowUp" xlink:href="#dirArrow" transform="translate(30 24)" onmousedown="handlePan(0,-1)">
                  <use xlink:href="#rim" fill="#404040">
                        <set attributeName="fill" to="#808080" begin="arrowUp.mouseover" end="arrowUp.mouseout"/>
                  </use>
                  <path fill="none" stroke="white" stroke-width="1.5" d="M0,-3.0v7 M-2.5,-0.5L0,-3.0L2.5,-0.5"/>
                </g>
                <g id="arrowRight" xlink:href="#dirArrow" transform="rotate(90) translate(36 -43)" onmousedown="handlePan(1,0)">
                  <use xlink:href="#rim" fill="#404040">
                        <set attributeName="fill" to="#808080" begin="arrowRight.mouseover" end="arrowRight.mouseout"/>
                  </use>
                  <path fill="none" stroke="white" stroke-width="1.5" d="M0,-3.0v7 M-2.5,-0.5L0,-3.0L2.5,-0.5"/>
                </g>
                <g id="arrowDown" xlink:href="#dirArrow" transform="rotate(180) translate(-30 -48)" onmousedown="handlePan(0,1)">
                  <use xlink:href="#rim" fill="#404040">
                        <set attributeName="fill" to="#808080" begin="arrowDown.mouseover" end="arrowDown.mouseout"/>
                  </use>
                  <path fill="none" stroke="white" stroke-width="1.5" d="M0,-3.0v7 M-2.5,-0.5L0,-3.0L2.5,-0.5"/>
                </g>
                <g id="arrowLeft" xlink:href="#dirArrow" transform="rotate(270) translate(-36 17)" onmousedown="handlePan(-1,0)">
                  <use xlink:href="#rim" fill="#404040">
                        <set attributeName="fill" to="#808080" begin="arrowLeft.mouseover" end="arrowLeft.mouseout"/>
                  </use>
                  <path fill="none" stroke="white" stroke-width="1.5" d="M0,-3.0v7 M-2.5,-0.5L0,-3.0L2.5,-0.5"/>
                </g>
        </g>
        <svg viewBox="0 0 15 15" width="100%" height="30px" preserveAspectRatio="xMaxYMin meet">
         <g id="arrow_out" transform="scale(0.3 0.3)">
          <a xlink:href="Mapping_8cxx__incl_org.svg" target="_base">
           <rect id="button" ry="5" rx="5" y="6" x="6" height="38" width="38"
                fill="#f2f5e9" fill-opacity="0.5" stroke="#606060" stroke-width="1.0"/>
           <path id="arrow"
             d="M 11.500037,31.436501 C 11.940474,20.09759 22.043105,11.32322 32.158766,21.979434 L 37.068811,17.246167 C 37.068811,17.246167 37.088388,32 37.088388,32 L 22.160133,31.978069 C 22.160133,31.978069 26.997745,27.140456 26.997745,27.140456 C 18.528582,18.264221 13.291696,25.230495 11.500037,31.436501 z"
             style="fill:#404040;"/>
          </a>
         </g>
        </svg>
</svg>
