<?xml version="1.0" encoding="UTF-8" standalone="no"?>
<!DOCTYPE svg PUBLIC "-//W3C//DTD SVG 1.1//EN"
 "http://www.w3.org/Graphics/SVG/1.1/DTD/svg11.dtd">
<!-- Generated by graphviz version 2.38.0 (20140413.2041)
 -->
<!-- Title: Modules/MUON/MCH/src/PedestalsTask.cxx Pages: 1 -->
<svg width="1832pt" height="464pt"
 viewBox="0.00 0.00 1831.50 464.00" xmlns="http://www.w3.org/2000/svg" xmlns:xlink="http://www.w3.org/1999/xlink">
<g id="graph0" class="graph" transform="scale(1 1) rotate(0) translate(4 460)">
<title>Modules/MUON/MCH/src/PedestalsTask.cxx</title>
<!-- Node1 -->
<g id="node1" class="node"><title>Node1</title>
<polygon fill="#bfbfbf" stroke="black" points="620.5,-425.5 620.5,-455.5 750.5,-455.5 750.5,-425.5 620.5,-425.5"/>
<text text-anchor="start" x="628.5" y="-443.5" font-family="Helvetica,sans-Serif" font-size="10.00">Modules/MUON/MCH/src</text>
<text text-anchor="middle" x="685.5" y="-432.5" font-family="Helvetica,sans-Serif" font-size="10.00">/PedestalsTask.cxx</text>
</g>
<!-- Node2 -->
<g id="node2" class="node"><title>Node2</title>
<polygon fill="none" stroke="#bfbfbf" points="0,-364 0,-383 65,-383 65,-364 0,-364"/>
<text text-anchor="middle" x="32.5" y="-371" font-family="Helvetica,sans-Serif" font-size="10.00">TCanvas.h</text>
</g>
<!-- Node1&#45;&gt;Node2 -->
<g id="edge1" class="edge"><title>Node1&#45;&gt;Node2</title>
<path fill="none" stroke="midnightblue" d="M620.07,-439.422C507.41,-438.109 270.053,-430.159 74.5,-389 70.997,-388.263 67.3838,-387.316 63.8156,-386.261"/>
<polygon fill="midnightblue" stroke="midnightblue" points="64.5991,-382.835 54.0071,-383.08 62.4398,-389.494 64.5991,-382.835"/>
</g>
<!-- Node3 -->
<g id="node3" class="node"><title>Node3</title>
<polygon fill="none" stroke="#bfbfbf" points="83.5,-364 83.5,-383 127.5,-383 127.5,-364 83.5,-364"/>
<text text-anchor="middle" x="105.5" y="-371" font-family="Helvetica,sans-Serif" font-size="10.00">TH1.h</text>
</g>
<!-- Node1&#45;&gt;Node3 -->
<g id="edge2" class="edge"><title>Node1&#45;&gt;Node3</title>
<path fill="none" stroke="midnightblue" d="M620.442,-439.511C517.378,-438.185 310.886,-430.045 141.5,-389 138.829,-388.353 136.096,-387.544 133.388,-386.641"/>
<polygon fill="midnightblue" stroke="midnightblue" points="134.439,-383.298 123.846,-383.082 131.992,-389.856 134.439,-383.298"/>
</g>
<!-- Node4 -->
<g id="node4" class="node"><title>Node4</title>
<polygon fill="none" stroke="#bfbfbf" points="150.5,-246.5 150.5,-265.5 194.5,-265.5 194.5,-246.5 150.5,-246.5"/>
<text text-anchor="middle" x="172.5" y="-253.5" font-family="Helvetica,sans-Serif" font-size="10.00">TH2.h</text>
</g>
<!-- Node1&#45;&gt;Node4 -->
<g id="edge3" class="edge"><title>Node1&#45;&gt;Node4</title>
<path fill="none" stroke="midnightblue" d="M620.209,-436.143C546.431,-431.047 423.355,-418.593 321.5,-389 252.552,-368.968 214.264,-381.783 174.5,-322 165.52,-308.5 165.986,-289.691 168.126,-275.778"/>
<polygon fill="midnightblue" stroke="midnightblue" points="171.58,-276.349 170.052,-265.865 164.709,-275.014 171.58,-276.349"/>
</g>
<!-- Node5 -->
<g id="node5" class="node"><title>Node5</title>
<polygon fill="none" stroke="#bfbfbf" points="550,-364 550,-383 597,-383 597,-364 550,-364"/>
<text text-anchor="middle" x="573.5" y="-371" font-family="Helvetica,sans-Serif" font-size="10.00">TFile.h</text>
</g>
<!-- Node1&#45;&gt;Node5 -->
<g id="edge4" class="edge"><title>Node1&#45;&gt;Node5</title>
<path fill="none" stroke="midnightblue" d="M661.198,-425.396C642.155,-414.344 615.82,-399.061 596.989,-388.132"/>
<polygon fill="midnightblue" stroke="midnightblue" points="598.564,-384.999 588.158,-383.007 595.05,-391.054 598.564,-384.999"/>
</g>
<!-- Node6 -->
<g id="node6" class="node"><title>Node6</title>
<polygon fill="none" stroke="#bfbfbf" points="615,-364 615,-383 756,-383 756,-364 615,-364"/>
<text text-anchor="middle" x="685.5" y="-371" font-family="Helvetica,sans-Serif" font-size="10.00">Headers/RAWDataHeader.h</text>
</g>
<!-- Node1&#45;&gt;Node6 -->
<g id="edge5" class="edge"><title>Node1&#45;&gt;Node6</title>
<path fill="none" stroke="midnightblue" d="M685.5,-425.396C685.5,-416.064 685.5,-403.714 685.5,-393.517"/>
<polygon fill="midnightblue" stroke="midnightblue" points="689,-393.195 685.5,-383.195 682,-393.195 689,-393.195"/>
</g>
<!-- Node7 -->
<g id="node7" class="node"><title>Node7</title>
<polygon fill="none" stroke="#bfbfbf" points="774.5,-364 774.5,-383 922.5,-383 922.5,-364 774.5,-364"/>
<text text-anchor="middle" x="848.5" y="-371" font-family="Helvetica,sans-Serif" font-size="10.00">Framework/CallbackService.h</text>
</g>
<!-- Node1&#45;&gt;Node7 -->
<g id="edge6" class="edge"><title>Node1&#45;&gt;Node7</title>
<path fill="none" stroke="midnightblue" d="M720.869,-425.396C749.722,-413.89 790.077,-397.797 817.637,-386.807"/>
<polygon fill="midnightblue" stroke="midnightblue" points="819.175,-389.962 827.167,-383.007 816.582,-383.46 819.175,-389.962"/>
</g>
<!-- Node8 -->
<g id="node8" class="node"><title>Node8</title>
<polygon fill="none" stroke="#bfbfbf" points="941,-364 941,-383 1082,-383 1082,-364 941,-364"/>
<text text-anchor="middle" x="1011.5" y="-371" font-family="Helvetica,sans-Serif" font-size="10.00">Framework/ControlService.h</text>
</g>
<!-- Node1&#45;&gt;Node8 -->
<g id="edge7" class="edge"><title>Node1&#45;&gt;Node8</title>
<path fill="none" stroke="midnightblue" d="M750.687,-426.503C811.862,-414.305 902.206,-396.292 958.91,-384.986"/>
<polygon fill="midnightblue" stroke="midnightblue" points="959.624,-388.412 968.746,-383.024 958.255,-381.548 959.624,-388.412"/>
</g>
<!-- Node9 -->
<g id="node9" class="node"><title>Node9</title>
<polygon fill="none" stroke="#bfbfbf" points="1100.5,-364 1100.5,-383 1198.5,-383 1198.5,-364 1100.5,-364"/>
<text text-anchor="middle" x="1149.5" y="-371" font-family="Helvetica,sans-Serif" font-size="10.00">Framework/Task.h</text>
</g>
<!-- Node1&#45;&gt;Node9 -->
<g id="edge8" class="edge"><title>Node1&#45;&gt;Node9</title>
<path fill="none" stroke="midnightblue" d="M750.565,-433.859C831.06,-426.318 972.098,-411.266 1091.5,-389 1096.98,-387.977 1102.72,-386.745 1108.37,-385.436"/>
<polygon fill="midnightblue" stroke="midnightblue" points="1109.45,-388.775 1118.35,-383.025 1107.81,-381.971 1109.45,-388.775"/>
</g>
<!-- Node10 -->
<g id="node10" class="node"><title>Node10</title>
<polygon fill="none" stroke="#bfbfbf" points="1216.5,-364 1216.5,-383 1352.5,-383 1352.5,-364 1216.5,-364"/>
<text text-anchor="middle" x="1284.5" y="-371" font-family="Helvetica,sans-Serif" font-size="10.00">DPLUtils/DPLRawParser.h</text>
</g>
<!-- Node1&#45;&gt;Node10 -->
<g id="edge9" class="edge"><title>Node1&#45;&gt;Node10</title>
<path fill="none" stroke="midnightblue" d="M750.827,-435.071C849.888,-427.928 1043.89,-412.27 1207.5,-389 1215.82,-387.816 1224.62,-386.358 1233.17,-384.828"/>
<polygon fill="midnightblue" stroke="midnightblue" points="1233.85,-388.262 1243.05,-383.011 1232.59,-381.377 1233.85,-388.262"/>
</g>
<!-- Node11 -->
<g id="node11" class="node"><title>Node11</title>
<g id="a_node11"><a xlink:href="QcInfoLogger_8h.html" target="_top" xlink:title="QualityControl/QcInfoLogger.h">
<polygon fill="none" stroke="black" points="1371,-364 1371,-383 1520,-383 1520,-364 1371,-364"/>
<text text-anchor="middle" x="1445.5" y="-371" font-family="Helvetica,sans-Serif" font-size="10.00">QualityControl/QcInfoLogger.h</text>
</a>
</g>
</g>
<!-- Node1&#45;&gt;Node11 -->
<g id="edge10" class="edge"><title>Node1&#45;&gt;Node11</title>
<path fill="none" stroke="midnightblue" d="M750.964,-436.709C871.911,-431.088 1138.41,-416.523 1361.5,-389 1370.98,-387.83 1381.03,-386.328 1390.75,-384.735"/>
<polygon fill="midnightblue" stroke="midnightblue" points="1391.44,-388.168 1400.72,-383.053 1390.27,-381.265 1391.44,-388.168"/>
</g>
<!-- Node14 -->
<g id="node14" class="node"><title>Node14</title>
<g id="a_node14"><a xlink:href="PedestalsTask_8h.html" target="_top" xlink:title="MCH/PedestalsTask.h">
<polygon fill="none" stroke="black" points="377.5,-364 377.5,-383 493.5,-383 493.5,-364 377.5,-364"/>
<text text-anchor="middle" x="435.5" y="-371" font-family="Helvetica,sans-Serif" font-size="10.00">MCH/PedestalsTask.h</text>
</a>
</g>
</g>
<!-- Node1&#45;&gt;Node14 -->
<g id="edge13" class="edge"><title>Node1&#45;&gt;Node14</title>
<path fill="none" stroke="midnightblue" d="M631.562,-425.476C585.582,-413.521 520.395,-396.573 478.03,-385.558"/>
<polygon fill="midnightblue" stroke="midnightblue" points="478.862,-382.158 468.303,-383.029 477.1,-388.932 478.862,-382.158"/>
</g>
<!-- Node33 -->
<g id="node33" class="node"><title>Node33</title>
<polygon fill="none" stroke="#bfbfbf" points="275,-179.5 275,-209.5 390,-209.5 390,-179.5 275,-179.5"/>
<text text-anchor="start" x="283" y="-197.5" font-family="Helvetica,sans-Serif" font-size="10.00">MCHMappingInterface</text>
<text text-anchor="middle" x="332.5" y="-186.5" font-family="Helvetica,sans-Serif" font-size="10.00">/Segmentation.h</text>
</g>
<!-- Node1&#45;&gt;Node33 -->
<g id="edge50" class="edge"><title>Node1&#45;&gt;Node33</title>
<path fill="none" stroke="midnightblue" d="M620.348,-436.214C539.403,-430.943 407.215,-418.071 368.5,-389 320.169,-352.709 323.708,-324.979 310.5,-266 306.915,-249.992 312.409,-232.375 318.802,-218.756"/>
<polygon fill="midnightblue" stroke="midnightblue" points="322.036,-220.12 323.499,-209.626 315.812,-216.917 322.036,-220.12"/>
</g>
<!-- Node36 -->
<g id="node36" class="node"><title>Node36</title>
<polygon fill="none" stroke="#bfbfbf" points="635.5,-246.5 635.5,-265.5 729.5,-265.5 729.5,-246.5 635.5,-246.5"/>
<text text-anchor="middle" x="682.5" y="-253.5" font-family="Helvetica,sans-Serif" font-size="10.00">MCHBase/Digit.h</text>
</g>
<!-- Node1&#45;&gt;Node36 -->
<g id="edge49" class="edge"><title>Node1&#45;&gt;Node36</title>
<path fill="none" stroke="midnightblue" d="M620.405,-433.649C590.951,-427.373 558.721,-414.64 540.5,-389 532.519,-377.769 533.849,-370.066 540.5,-358 554.963,-331.759 572.908,-339.118 597.5,-322 621.001,-305.642 647.016,-285.419 663.998,-271.915"/>
<polygon fill="midnightblue" stroke="midnightblue" points="666.369,-274.5 671.994,-265.522 661.998,-269.033 666.369,-274.5"/>
</g>
<!-- Node38 -->
<g id="node38" class="node"><title>Node38</title>
<polygon fill="none" stroke="#bfbfbf" points="1538,-358.5 1538,-388.5 1663,-388.5 1663,-358.5 1538,-358.5"/>
<text text-anchor="start" x="1546" y="-376.5" font-family="Helvetica,sans-Serif" font-size="10.00">MCHMappingInterface</text>
<text text-anchor="middle" x="1600.5" y="-365.5" font-family="Helvetica,sans-Serif" font-size="10.00">/CathodeSegmentation.h</text>
</g>
<!-- Node1&#45;&gt;Node38 -->
<g id="edge51" class="edge"><title>Node1&#45;&gt;Node38</title>
<path fill="none" stroke="midnightblue" d="M750.655,-438.74C891.127,-436.424 1232.99,-427.136 1527.83,-389.101"/>
<polygon fill="midnightblue" stroke="midnightblue" points="1528.4,-392.557 1537.86,-387.794 1527.49,-385.616 1528.4,-392.557"/>
</g>
<!-- Node39 -->
<g id="node39" class="node"><title>Node39</title>
<polygon fill="none" stroke="#bfbfbf" points="1681.5,-364 1681.5,-383 1823.5,-383 1823.5,-364 1681.5,-364"/>
<text text-anchor="middle" x="1752.5" y="-371" font-family="Helvetica,sans-Serif" font-size="10.00">MCHRawElecMap/Mapper.h</text>
</g>
<!-- Node1&#45;&gt;Node39 -->
<g id="edge52" class="edge"><title>Node1&#45;&gt;Node39</title>
<path fill="none" stroke="midnightblue" d="M750.7,-439.048C909.126,-437.323 1326.72,-429.015 1672.5,-389 1681.77,-387.928 1691.58,-386.442 1701.04,-384.829"/>
<polygon fill="midnightblue" stroke="midnightblue" points="1701.89,-388.233 1711.13,-383.042 1700.67,-381.34 1701.89,-388.233"/>
</g>
<!-- Node12 -->
<g id="node12" class="node"><title>Node12</title>
<polygon fill="none" stroke="#bfbfbf" points="1298.5,-302.5 1298.5,-321.5 1428.5,-321.5 1428.5,-302.5 1298.5,-302.5"/>
<text text-anchor="middle" x="1363.5" y="-309.5" font-family="Helvetica,sans-Serif" font-size="10.00">InfoLogger/InfoLogger.hxx</text>
</g>
<!-- Node11&#45;&gt;Node12 -->
<g id="edge11" class="edge"><title>Node11&#45;&gt;Node12</title>
<path fill="none" stroke="midnightblue" d="M1433.75,-363.975C1420.72,-354.52 1399.46,-339.096 1383.74,-327.687"/>
<polygon fill="midnightblue" stroke="midnightblue" points="1385.38,-324.549 1375.23,-321.509 1381.27,-330.215 1385.38,-324.549"/>
</g>
<!-- Node13 -->
<g id="node13" class="node"><title>Node13</title>
<polygon fill="none" stroke="#bfbfbf" points="1446.5,-302.5 1446.5,-321.5 1608.5,-321.5 1608.5,-302.5 1446.5,-302.5"/>
<text text-anchor="middle" x="1527.5" y="-309.5" font-family="Helvetica,sans-Serif" font-size="10.00">InfoLogger/InfoLoggerMacros.hxx</text>
</g>
<!-- Node11&#45;&gt;Node13 -->
<g id="edge12" class="edge"><title>Node11&#45;&gt;Node13</title>
<path fill="none" stroke="midnightblue" d="M1457.25,-363.975C1470.28,-354.52 1491.54,-339.096 1507.26,-327.687"/>
<polygon fill="midnightblue" stroke="midnightblue" points="1509.73,-330.215 1515.77,-321.509 1505.62,-324.549 1509.73,-330.215"/>
</g>
<!-- Node15 -->
<g id="node15" class="node"><title>Node15</title>
<g id="a_node15"><a xlink:href="TaskInterface_8h.html" target="_top" xlink:title="QualityControl/TaskInterface.h">
<polygon fill="none" stroke="black" points="483.5,-185 483.5,-204 633.5,-204 633.5,-185 483.5,-185"/>
<text text-anchor="middle" x="558.5" y="-192" font-family="Helvetica,sans-Serif" font-size="10.00">QualityControl/TaskInterface.h</text>
</a>
</g>
</g>
<!-- Node14&#45;&gt;Node15 -->
<g id="edge14" class="edge"><title>Node14&#45;&gt;Node15</title>
<path fill="none" stroke="midnightblue" d="M434.251,-363.806C431.572,-341.733 427.534,-282.681 454.5,-246 468.355,-227.153 491.149,-215 511.872,-207.352"/>
<polygon fill="midnightblue" stroke="midnightblue" points="513.191,-210.6 521.518,-204.049 510.923,-203.977 513.191,-210.6"/>
</g>
<!-- Node32 -->
<g id="node32" class="node"><title>Node32</title>
<g id="a_node32"><a xlink:href="Mapping_8h_source.html" target="_top" xlink:title="MCH/Mapping.h">
<polygon fill="none" stroke="black" points="319.5,-246.5 319.5,-265.5 407.5,-265.5 407.5,-246.5 319.5,-246.5"/>
<text text-anchor="middle" x="363.5" y="-253.5" font-family="Helvetica,sans-Serif" font-size="10.00">MCH/Mapping.h</text>
</a>
</g>
</g>
<!-- Node14&#45;&gt;Node32 -->
<g id="edge37" class="edge"><title>Node14&#45;&gt;Node32</title>
<path fill="none" stroke="midnightblue" d="M430.088,-363.819C418.257,-344.839 389.899,-299.348 374.277,-274.288"/>
<polygon fill="midnightblue" stroke="midnightblue" points="377.235,-272.417 368.975,-265.782 371.294,-276.12 377.235,-272.417"/>
</g>
<!-- Node34 -->
<g id="node34" class="node"><title>Node34</title>
<g id="a_node34"><a xlink:href="Decoding_8h.html" target="_top" xlink:title="MCH/Decoding.h">
<polygon fill="none" stroke="black" points="463.5,-302.5 463.5,-321.5 555.5,-321.5 555.5,-302.5 463.5,-302.5"/>
<text text-anchor="middle" x="509.5" y="-309.5" font-family="Helvetica,sans-Serif" font-size="10.00">MCH/Decoding.h</text>
</a>
</g>
</g>
<!-- Node14&#45;&gt;Node34 -->
<g id="edge40" class="edge"><title>Node14&#45;&gt;Node34</title>
<path fill="none" stroke="midnightblue" d="M446.102,-363.975C457.752,-354.608 476.686,-339.384 490.835,-328.008"/>
<polygon fill="midnightblue" stroke="midnightblue" points="493.317,-330.503 498.917,-321.509 488.931,-325.048 493.317,-330.503"/>
</g>
<!-- Node14&#45;&gt;Node36 -->
<g id="edge45" class="edge"><title>Node14&#45;&gt;Node36</title>
<path fill="none" stroke="midnightblue" d="M460.15,-363.936C486.411,-354.562 529.003,-338.638 564.5,-322 598.376,-306.122 635.989,-284.708 659.442,-270.876"/>
<polygon fill="midnightblue" stroke="midnightblue" points="661.472,-273.741 668.283,-265.625 657.898,-267.723 661.472,-273.741"/>
</g>
<!-- Node37 -->
<g id="node37" class="node"><title>Node37</title>
<g id="a_node37"><a xlink:href="GlobalHistogram_8h_source.html" target="_top" xlink:title="MCH/GlobalHistogram.h">
<polygon fill="none" stroke="black" points="183.5,-302.5 183.5,-321.5 307.5,-321.5 307.5,-302.5 183.5,-302.5"/>
<text text-anchor="middle" x="245.5" y="-309.5" font-family="Helvetica,sans-Serif" font-size="10.00">MCH/GlobalHistogram.h</text>
</a>
</g>
</g>
<!-- Node14&#45;&gt;Node37 -->
<g id="edge46" class="edge"><title>Node14&#45;&gt;Node37</title>
<path fill="none" stroke="midnightblue" d="M408.278,-363.975C375.263,-353.636 319.46,-336.161 282.547,-324.602"/>
<polygon fill="midnightblue" stroke="midnightblue" points="283.261,-321.158 272.672,-321.509 281.169,-327.838 283.261,-321.158"/>
</g>
<!-- Node16 -->
<g id="node16" class="node"><title>Node16</title>
<polygon fill="none" stroke="#bfbfbf" points="251,-0.5 251,-19.5 286,-19.5 286,-0.5 251,-0.5"/>
<text text-anchor="middle" x="268.5" y="-7.5" font-family="Helvetica,sans-Serif" font-size="10.00">map</text>
</g>
<!-- Node15&#45;&gt;Node16 -->
<g id="edge15" class="edge"><title>Node15&#45;&gt;Node16</title>
<path fill="none" stroke="midnightblue" d="M483.38,-185.727C422.2,-177.984 342.078,-164.166 317.5,-143 283.488,-113.709 273.058,-58.5243 269.879,-29.6623"/>
<polygon fill="midnightblue" stroke="midnightblue" points="273.363,-29.3184 268.959,-19.6823 266.392,-29.9616 273.363,-29.3184"/>
</g>
<!-- Node17 -->
<g id="node17" class="node"><title>Node17</title>
<polygon fill="none" stroke="#bfbfbf" points="351.5,-62 351.5,-81 403.5,-81 403.5,-62 351.5,-62"/>
<text text-anchor="middle" x="377.5" y="-69" font-family="Helvetica,sans-Serif" font-size="10.00">memory</text>
</g>
<!-- Node15&#45;&gt;Node17 -->
<g id="edge16" class="edge"><title>Node15&#45;&gt;Node17</title>
<path fill="none" stroke="midnightblue" d="M483.263,-187.292C422.914,-180.568 345.15,-167.365 325.5,-143 310.212,-124.043 334.393,-101.219 354.65,-86.7818"/>
<polygon fill="midnightblue" stroke="midnightblue" points="356.652,-89.6528 362.964,-81.1436 352.723,-83.8592 356.652,-89.6528"/>
</g>
<!-- Node18 -->
<g id="node18" class="node"><title>Node18</title>
<polygon fill="none" stroke="#bfbfbf" points="967,-0.5 967,-19.5 1008,-19.5 1008,-0.5 967,-0.5"/>
<text text-anchor="middle" x="987.5" y="-7.5" font-family="Helvetica,sans-Serif" font-size="10.00">string</text>
</g>
<!-- Node15&#45;&gt;Node18 -->
<g id="edge17" class="edge"><title>Node15&#45;&gt;Node18</title>
<path fill="none" stroke="midnightblue" d="M633.786,-189.125C745.623,-181.902 945.063,-165.963 968.5,-143 998.867,-113.246 995.446,-58.2625 991.084,-29.5513"/>
<polygon fill="midnightblue" stroke="midnightblue" points="994.522,-28.8875 989.375,-19.627 987.623,-30.0761 994.522,-28.8875"/>
</g>
<!-- Node19 -->
<g id="node19" class="node"><title>Node19</title>
<polygon fill="none" stroke="#bfbfbf" points="1093,-0.5 1093,-19.5 1176,-19.5 1176,-0.5 1093,-0.5"/>
<text text-anchor="middle" x="1134.5" y="-7.5" font-family="Helvetica,sans-Serif" font-size="10.00">unordered_map</text>
</g>
<!-- Node15&#45;&gt;Node19 -->
<g id="edge18" class="edge"><title>Node15&#45;&gt;Node19</title>
<path fill="none" stroke="midnightblue" d="M633.713,-192.59C781.953,-188.949 1102.87,-171.288 1164.5,-87 1177.9,-68.6684 1162.81,-43.5424 1149.62,-27.2892"/>
<polygon fill="midnightblue" stroke="midnightblue" points="1152.24,-24.967 1143.06,-19.6816 1146.94,-29.5395 1152.24,-24.967"/>
</g>
<!-- Node20 -->
<g id="node20" class="node"><title>Node20</title>
<polygon fill="none" stroke="#bfbfbf" points="335,-123.5 335,-142.5 460,-142.5 460,-123.5 335,-123.5"/>
<text text-anchor="middle" x="397.5" y="-130.5" font-family="Helvetica,sans-Serif" font-size="10.00">Framework/InitContext.h</text>
</g>
<!-- Node15&#45;&gt;Node20 -->
<g id="edge19" class="edge"><title>Node15&#45;&gt;Node20</title>
<path fill="none" stroke="midnightblue" d="M535.433,-184.975C507.815,-174.769 461.38,-157.608 430.104,-146.049"/>
<polygon fill="midnightblue" stroke="midnightblue" points="431.118,-142.693 420.525,-142.509 428.691,-149.259 431.118,-142.693"/>
</g>
<!-- Node21 -->
<g id="node21" class="node"><title>Node21</title>
<polygon fill="none" stroke="#bfbfbf" points="478.5,-123.5 478.5,-142.5 638.5,-142.5 638.5,-123.5 478.5,-123.5"/>
<text text-anchor="middle" x="558.5" y="-130.5" font-family="Helvetica,sans-Serif" font-size="10.00">Framework/ProcessingContext.h</text>
</g>
<!-- Node15&#45;&gt;Node21 -->
<g id="edge20" class="edge"><title>Node15&#45;&gt;Node21</title>
<path fill="none" stroke="midnightblue" d="M558.5,-184.975C558.5,-176.58 558.5,-163.481 558.5,-152.663"/>
<polygon fill="midnightblue" stroke="midnightblue" points="562,-152.509 558.5,-142.509 555,-152.509 562,-152.509"/>
</g>
<!-- Node22 -->
<g id="node22" class="node"><title>Node22</title>
<g id="a_node22"><a xlink:href="Activity_8h.html" target="_top" xlink:title="QualityControl/Activity.h">
<polygon fill="none" stroke="black" points="657,-123.5 657,-142.5 780,-142.5 780,-123.5 657,-123.5"/>
<text text-anchor="middle" x="718.5" y="-130.5" font-family="Helvetica,sans-Serif" font-size="10.00">QualityControl/Activity.h</text>
</a>
</g>
</g>
<!-- Node15&#45;&gt;Node22 -->
<g id="edge21" class="edge"><title>Node15&#45;&gt;Node22</title>
<path fill="none" stroke="midnightblue" d="M581.424,-184.975C608.87,-174.769 655.016,-157.608 686.099,-146.049"/>
<polygon fill="midnightblue" stroke="midnightblue" points="687.465,-149.275 695.618,-142.509 685.026,-142.714 687.465,-149.275"/>
</g>
<!-- Node23 -->
<g id="node23" class="node"><title>Node23</title>
<g id="a_node23"><a xlink:href="ObjectsManager_8h.html" target="_top" xlink:title="QualityControl/ObjectsManager.h">
<polygon fill="none" stroke="black" points="798,-123.5 798,-142.5 959,-142.5 959,-123.5 798,-123.5"/>
<text text-anchor="middle" x="878.5" y="-130.5" font-family="Helvetica,sans-Serif" font-size="10.00">QualityControl/ObjectsManager.h</text>
</a>
</g>
</g>
<!-- Node15&#45;&gt;Node23 -->
<g id="edge22" class="edge"><title>Node15&#45;&gt;Node23</title>
<path fill="none" stroke="midnightblue" d="M604.348,-184.975C661.972,-174.261 760.815,-155.882 822.75,-144.366"/>
<polygon fill="midnightblue" stroke="midnightblue" points="823.545,-147.778 832.737,-142.509 822.266,-140.896 823.545,-147.778"/>
</g>
<!-- Node23&#45;&gt;Node17 -->
<g id="edge36" class="edge"><title>Node23&#45;&gt;Node17</title>
<path fill="none" stroke="midnightblue" d="M806.719,-123.475C698.111,-110.577 495.981,-86.5711 413.726,-76.8023"/>
<polygon fill="midnightblue" stroke="midnightblue" points="413.961,-73.3057 403.618,-75.6019 413.136,-80.2569 413.961,-73.3057"/>
</g>
<!-- Node23&#45;&gt;Node18 -->
<g id="edge35" class="edge"><title>Node23&#45;&gt;Node18</title>
<path fill="none" stroke="midnightblue" d="M889.871,-123.331C900.843,-114.704 917.636,-100.796 930.5,-87 947.989,-68.2447 965.26,-44.2364 976.127,-28.2747"/>
<polygon fill="midnightblue" stroke="midnightblue" points="979.075,-30.1618 981.738,-19.907 973.262,-26.2631 979.075,-30.1618"/>
</g>
<!-- Node24 -->
<g id="node24" class="node"><title>Node24</title>
<g id="a_node24"><a xlink:href="MonitorObject_8h.html" target="_top" xlink:title="QualityControl/MonitorObject.h">
<polygon fill="none" stroke="black" points="529,-62 529,-81 680,-81 680,-62 529,-62"/>
<text text-anchor="middle" x="604.5" y="-69" font-family="Helvetica,sans-Serif" font-size="10.00">QualityControl/MonitorObject.h</text>
</a>
</g>
</g>
<!-- Node23&#45;&gt;Node24 -->
<g id="edge23" class="edge"><title>Node23&#45;&gt;Node24</title>
<path fill="none" stroke="midnightblue" d="M839.242,-123.475C790.309,-112.849 706.662,-94.6847 653.555,-83.1524"/>
<polygon fill="midnightblue" stroke="midnightblue" points="654.2,-79.711 643.685,-81.0091 652.714,-86.5515 654.2,-79.711"/>
</g>
<!-- Node28 -->
<g id="node28" class="node"><title>Node28</title>
<g id="a_node28"><a xlink:href="MonitorObjectCollection_8h.html" target="_top" xlink:title="QualityControl/MonitorObject\lCollection.h">
<polygon fill="none" stroke="black" points="778,-56.5 778,-86.5 921,-86.5 921,-56.5 778,-56.5"/>
<text text-anchor="start" x="786" y="-74.5" font-family="Helvetica,sans-Serif" font-size="10.00">QualityControl/MonitorObject</text>
<text text-anchor="middle" x="849.5" y="-63.5" font-family="Helvetica,sans-Serif" font-size="10.00">Collection.h</text>
</a>
</g>
</g>
<!-- Node23&#45;&gt;Node28 -->
<g id="edge29" class="edge"><title>Node23&#45;&gt;Node28</title>
<path fill="none" stroke="midnightblue" d="M874.345,-123.475C870.821,-116.245 865.596,-105.525 860.846,-95.7792"/>
<polygon fill="midnightblue" stroke="midnightblue" points="863.862,-93.9787 856.335,-86.523 857.57,-97.0456 863.862,-93.9787"/>
</g>
<!-- Node31 -->
<g id="node31" class="node"><title>Node31</title>
<g id="a_node31"><a xlink:href="TaskConfig_8h.html" target="_top" xlink:title="QualityControl/TaskConfig.h">
<polygon fill="none" stroke="black" points="1015.5,-62 1015.5,-81 1155.5,-81 1155.5,-62 1015.5,-62"/>
<text text-anchor="middle" x="1085.5" y="-69" font-family="Helvetica,sans-Serif" font-size="10.00">QualityControl/TaskConfig.h</text>
</a>
</g>
</g>
<!-- Node23&#45;&gt;Node31 -->
<g id="edge32" class="edge"><title>Node23&#45;&gt;Node31</title>
<path fill="none" stroke="midnightblue" d="M908.158,-123.475C944.434,-113.048 1005.96,-95.3618 1046.16,-83.8066"/>
<polygon fill="midnightblue" stroke="midnightblue" points="1047.25,-87.1355 1055.9,-81.0091 1045.32,-80.4079 1047.25,-87.1355"/>
</g>
<!-- Node24&#45;&gt;Node16 -->
<g id="edge25" class="edge"><title>Node24&#45;&gt;Node16</title>
<path fill="none" stroke="midnightblue" d="M556.359,-61.9751C484.932,-49.3264 353.188,-25.9968 296.09,-15.8857"/>
<polygon fill="midnightblue" stroke="midnightblue" points="296.474,-12.3993 286.016,-14.1019 295.253,-19.292 296.474,-12.3993"/>
</g>
<!-- Node24&#45;&gt;Node18 -->
<g id="edge24" class="edge"><title>Node24&#45;&gt;Node18</title>
<path fill="none" stroke="midnightblue" d="M680.059,-63.246C749.842,-55.7458 856.423,-42.265 956.703,-20.1306"/>
<polygon fill="midnightblue" stroke="midnightblue" points="957.706,-23.4928 966.698,-17.8905 956.175,-16.6622 957.706,-23.4928"/>
</g>
<!-- Node25 -->
<g id="node25" class="node"><title>Node25</title>
<polygon fill="none" stroke="#bfbfbf" points="447.5,-0.5 447.5,-19.5 503.5,-19.5 503.5,-0.5 447.5,-0.5"/>
<text text-anchor="middle" x="475.5" y="-7.5" font-family="Helvetica,sans-Serif" font-size="10.00">Rtypes.h</text>
</g>
<!-- Node24&#45;&gt;Node25 -->
<g id="edge26" class="edge"><title>Node24&#45;&gt;Node25</title>
<path fill="none" stroke="midnightblue" d="M586.017,-61.9751C564.368,-51.9897 528.287,-35.3476 503.268,-23.8075"/>
<polygon fill="midnightblue" stroke="midnightblue" points="504.495,-20.5193 493.948,-19.5091 501.563,-26.8757 504.495,-20.5193"/>
</g>
<!-- Node26 -->
<g id="node26" class="node"><title>Node26</title>
<polygon fill="none" stroke="#bfbfbf" points="522,-0.5 522,-19.5 581,-19.5 581,-0.5 522,-0.5"/>
<text text-anchor="middle" x="551.5" y="-7.5" font-family="Helvetica,sans-Serif" font-size="10.00">TObject.h</text>
</g>
<!-- Node24&#45;&gt;Node26 -->
<g id="edge27" class="edge"><title>Node24&#45;&gt;Node26</title>
<path fill="none" stroke="midnightblue" d="M596.906,-61.9751C588.799,-52.8733 575.765,-38.241 565.737,-26.983"/>
<polygon fill="midnightblue" stroke="midnightblue" points="568.344,-24.6483 559.08,-19.5091 563.117,-29.3043 568.344,-24.6483"/>
</g>
<!-- Node27 -->
<g id="node27" class="node"><title>Node27</title>
<polygon fill="none" stroke="#bfbfbf" points="599.5,-0.5 599.5,-19.5 715.5,-19.5 715.5,-0.5 599.5,-0.5"/>
<text text-anchor="middle" x="657.5" y="-7.5" font-family="Helvetica,sans-Serif" font-size="10.00">Common/Exceptions.h</text>
</g>
<!-- Node24&#45;&gt;Node27 -->
<g id="edge28" class="edge"><title>Node24&#45;&gt;Node27</title>
<path fill="none" stroke="midnightblue" d="M612.094,-61.9751C620.201,-52.8733 633.235,-38.241 643.263,-26.983"/>
<polygon fill="midnightblue" stroke="midnightblue" points="645.883,-29.3043 649.92,-19.5091 640.656,-24.6483 645.883,-29.3043"/>
</g>
<!-- Node29 -->
<g id="node29" class="node"><title>Node29</title>
<polygon fill="none" stroke="#bfbfbf" points="880,-0.5 880,-19.5 949,-19.5 949,-0.5 880,-0.5"/>
<text text-anchor="middle" x="914.5" y="-7.5" font-family="Helvetica,sans-Serif" font-size="10.00">TObjArray.h</text>
</g>
<!-- Node28&#45;&gt;Node29 -->
<g id="edge30" class="edge"><title>Node28&#45;&gt;Node29</title>
<path fill="none" stroke="midnightblue" d="M864.904,-56.3993C874.739,-47.3967 887.493,-35.7214 897.605,-26.4652"/>
<polygon fill="midnightblue" stroke="midnightblue" points="900.029,-28.9916 905.042,-19.6578 895.302,-23.8282 900.029,-28.9916"/>
</g>
<!-- Node30 -->
<g id="node30" class="node"><title>Node30</title>
<polygon fill="none" stroke="#bfbfbf" points="733.5,-0.5 733.5,-19.5 861.5,-19.5 861.5,-0.5 733.5,-0.5"/>
<text text-anchor="middle" x="797.5" y="-7.5" font-family="Helvetica,sans-Serif" font-size="10.00">Mergers/MergeInterface.h</text>
</g>
<!-- Node28&#45;&gt;Node30 -->
<g id="edge31" class="edge"><title>Node28&#45;&gt;Node30</title>
<path fill="none" stroke="midnightblue" d="M837.177,-56.3993C829.543,-47.6641 819.709,-36.4126 811.742,-27.2962"/>
<polygon fill="midnightblue" stroke="midnightblue" points="814.282,-24.8843 805.066,-19.6578 809.012,-29.4907 814.282,-24.8843"/>
</g>
<!-- Node31&#45;&gt;Node18 -->
<g id="edge33" class="edge"><title>Node31&#45;&gt;Node18</title>
<path fill="none" stroke="midnightblue" d="M1071.46,-61.9751C1055.45,-52.2548 1029.05,-36.2266 1010.13,-24.7372"/>
<polygon fill="midnightblue" stroke="midnightblue" points="1011.88,-21.7072 1001.51,-19.5091 1008.25,-27.6907 1011.88,-21.7072"/>
</g>
<!-- Node31&#45;&gt;Node19 -->
<g id="edge34" class="edge"><title>Node31&#45;&gt;Node19</title>
<path fill="none" stroke="midnightblue" d="M1092.52,-61.9751C1099.94,-52.9617 1111.83,-38.5246 1121.07,-27.3118"/>
<polygon fill="midnightblue" stroke="midnightblue" points="1123.84,-29.4534 1127.49,-19.5091 1118.43,-25.0034 1123.84,-29.4534"/>
</g>
<!-- Node32&#45;&gt;Node15 -->
<g id="edge39" class="edge"><title>Node32&#45;&gt;Node15</title>
<path fill="none" stroke="midnightblue" d="M391.439,-246.475C425.467,-236.092 483.084,-218.512 520.962,-206.954"/>
<polygon fill="midnightblue" stroke="midnightblue" points="522.07,-210.275 530.613,-204.009 520.027,-203.58 522.07,-210.275"/>
</g>
<!-- Node32&#45;&gt;Node33 -->
<g id="edge38" class="edge"><title>Node32&#45;&gt;Node33</title>
<path fill="none" stroke="midnightblue" d="M359.058,-246.475C355.252,-239.17 349.59,-228.302 344.47,-218.475"/>
<polygon fill="midnightblue" stroke="midnightblue" points="347.531,-216.774 339.806,-209.523 341.323,-220.009 347.531,-216.774"/>
</g>
<!-- Node34&#45;&gt;Node15 -->
<g id="edge41" class="edge"><title>Node34&#45;&gt;Node15</title>
<path fill="none" stroke="midnightblue" d="M538.621,-302.441C556.143,-295.62 577.023,-284.141 587.5,-266 597.681,-248.372 585.159,-226.477 573.54,-211.806"/>
<polygon fill="midnightblue" stroke="midnightblue" points="576.125,-209.442 566.982,-204.089 570.791,-213.975 576.125,-209.442"/>
</g>
<!-- Node34&#45;&gt;Node32 -->
<g id="edge43" class="edge"><title>Node34&#45;&gt;Node32</title>
<path fill="none" stroke="midnightblue" d="M486.366,-302.444C462.018,-293.438 423.493,-279.189 396.077,-269.049"/>
<polygon fill="midnightblue" stroke="midnightblue" points="397.119,-265.703 386.526,-265.516 394.691,-272.268 397.119,-265.703"/>
</g>
<!-- Node35 -->
<g id="node35" class="node"><title>Node35</title>
<g id="a_node35"><a xlink:href="sampa__header_8h_source.html" target="_top" xlink:title="MCH/sampa_header.h">
<polygon fill="none" stroke="black" points="464,-246.5 464,-265.5 579,-265.5 579,-246.5 464,-246.5"/>
<text text-anchor="middle" x="521.5" y="-253.5" font-family="Helvetica,sans-Serif" font-size="10.00">MCH/sampa_header.h</text>
</a>
</g>
</g>
<!-- Node34&#45;&gt;Node35 -->
<g id="edge42" class="edge"><title>Node34&#45;&gt;Node35</title>
<path fill="none" stroke="midnightblue" d="M511.482,-302.083C513.072,-294.927 515.359,-284.635 517.346,-275.691"/>
<polygon fill="midnightblue" stroke="midnightblue" points="520.803,-276.272 519.555,-265.751 513.969,-274.754 520.803,-276.272"/>
</g>
<!-- Node34&#45;&gt;Node36 -->
<g id="edge44" class="edge"><title>Node34&#45;&gt;Node36</title>
<path fill="none" stroke="midnightblue" d="M536.912,-302.444C566.269,-293.28 613.019,-278.688 645.596,-268.519"/>
<polygon fill="midnightblue" stroke="midnightblue" points="646.713,-271.837 655.216,-265.516 644.627,-265.155 646.713,-271.837"/>
</g>
<!-- Node37&#45;&gt;Node4 -->
<g id="edge48" class="edge"><title>Node37&#45;&gt;Node4</title>
<path fill="none" stroke="midnightblue" d="M233.771,-302.324C222.663,-294.107 205.758,-281.602 192.517,-271.807"/>
<polygon fill="midnightblue" stroke="midnightblue" points="194.563,-268.967 184.442,-265.834 190.4,-274.595 194.563,-268.967"/>
</g>
<!-- Node37&#45;&gt;Node16 -->
<g id="edge47" class="edge"><title>Node37&#45;&gt;Node16</title>
<path fill="none" stroke="midnightblue" d="M243.6,-302.356C239.564,-283.211 230.5,-235.739 230.5,-195.5 230.5,-195.5 230.5,-195.5 230.5,-132 230.5,-93.8116 247.942,-51.8296 259.192,-28.7224"/>
<polygon fill="midnightblue" stroke="midnightblue" points="262.458,-30.0195 263.84,-19.5153 256.209,-26.8646 262.458,-30.0195"/>
</g>
</g>
</svg>
