<?xml version="1.0" encoding="UTF-8" standalone="no"?>
<!DOCTYPE svg PUBLIC "-//W3C//DTD SVG 1.1//EN"
 "http://www.w3.org/Graphics/SVG/1.1/DTD/svg11.dtd">
<!-- Generated by graphviz version 2.38.0 (20140413.2041)
 -->
<!-- Title: Modules/MUON/MCH/src/PhysicsTask.cxx Pages: 1 -->
<!--zoomable 453 -->
<svg id="main" version="1.1" xmlns="http://www.w3.org/2000/svg" xmlns:xlink="http://www.w3.org/1999/xlink" xml:space="preserve" onload="init(evt)">
<style type="text/css"><![CDATA[
.edge:hover path { stroke: red; }
.edge:hover polygon { stroke: red; fill: red; }
]]></style>
<script type="text/javascript"><![CDATA[
var edges = document.getElementsByTagName('g');
if (edges && edges.length) {
  for (var i=0;i<edges.length;i++) {
    if (edges[i].id.substr(0,4)=='edge') {
      edges[i].setAttribute('class','edge');
    }
  }
}
]]></script>
        <defs>
                <circle id="rim" cx="0" cy="0" r="7"/>
                <circle id="rim2" cx="0" cy="0" r="3.5"/>
                <g id="zoomPlus">
                        <use xlink:href="#rim" fill="#404040">
                                <set attributeName="fill" to="#808080" begin="zoomplus.mouseover" end="zoomplus.mouseout"/>
                        </use>
                        <path d="M-4,0h8M0,-4v8" fill="none" stroke="white" stroke-width="1.5" pointer-events="none"/>
                </g>
                <g id="zoomMin">
                        <use xlink:href="#rim" fill="#404040">
                                <set attributeName="fill" to="#808080" begin="zoomminus.mouseover" end="zoomminus.mouseout"/>
                        </use>
                        <path d="M-4,0h8" fill="none" stroke="white" stroke-width="1.5" pointer-events="none"/>
                </g>
                <g id="dirArrow">
                        <path fill="none" stroke="white" stroke-width="1.5" d="M0,-3.0v7 M-2.5,-0.5L0,-3.0L2.5,-0.5"/>
                </g>
               <g id="resetDef">
                       <use xlink:href="#rim2" fill="#404040">
                               <set attributeName="fill" to="#808080" begin="reset.mouseover" end="reset.mouseout"/>
                       </use>
               </g>
        </defs>

<script type="text/javascript">
var viewWidth = 1474;
var viewHeight = 453;
var sectionId = 'dynsection-0';
</script>
<script xlink:href="svgpan.js"/>
<svg id="graph" class="graph">
<g id="viewport">
<title>Modules/MUON/MCH/src/PhysicsTask.cxx</title>
<!-- Node1 -->
<g id="node1" class="node"><title>Node1</title>
<polygon fill="#bfbfbf" stroke="black" points="201.5,-414.5 201.5,-444.5 331.5,-444.5 331.5,-414.5 201.5,-414.5"/>
<text text-anchor="start" x="209.5" y="-432.5" font-family="Helvetica,sans-Serif" font-size="10.00">Modules/MUON/MCH/src</text>
<text text-anchor="middle" x="266.5" y="-421.5" font-family="Helvetica,sans-Serif" font-size="10.00">/PhysicsTask.cxx</text>
</g>
<!-- Node2 -->
<g id="node2" class="node"><title>Node2</title>
<polygon fill="none" stroke="#bfbfbf" points="0,-358.5 0,-377.5 65,-377.5 65,-358.5 0,-358.5"/>
<text text-anchor="middle" x="32.5" y="-365.5" font-family="Helvetica,sans-Serif" font-size="10.00">TCanvas.h</text>
</g>
<!-- Node1&#45;&gt;Node2 -->
<g id="edge1" class="edge"><title>Node1&#45;&gt;Node2</title>
<path fill="none" stroke="midnightblue" d="M211.342,-414.475C169.666,-403.878 113.3,-389.545 75.0672,-379.824"/>
<polygon fill="midnightblue" stroke="midnightblue" points="75.8295,-376.406 65.2754,-377.334 74.1044,-383.19 75.8295,-376.406"/>
</g>
<!-- Node3 -->
<g id="node3" class="node"><title>Node3</title>
<polygon fill="none" stroke="#bfbfbf" points="83.5,-358.5 83.5,-377.5 127.5,-377.5 127.5,-358.5 83.5,-358.5"/>
<text text-anchor="middle" x="105.5" y="-365.5" font-family="Helvetica,sans-Serif" font-size="10.00">TH1.h</text>
</g>
<!-- Node1&#45;&gt;Node3 -->
<g id="edge2" class="edge"><title>Node1&#45;&gt;Node3</title>
<path fill="none" stroke="midnightblue" d="M228.345,-414.399C200.476,-404.1 163.14,-390.302 136.97,-380.63"/>
<polygon fill="midnightblue" stroke="midnightblue" points="138.124,-377.325 127.53,-377.142 135.697,-383.891 138.124,-377.325"/>
</g>
<!-- Node4 -->
<g id="node4" class="node"><title>Node4</title>
<polygon fill="none" stroke="#bfbfbf" points="145.5,-358.5 145.5,-377.5 189.5,-377.5 189.5,-358.5 145.5,-358.5"/>
<text text-anchor="middle" x="167.5" y="-365.5" font-family="Helvetica,sans-Serif" font-size="10.00">TH2.h</text>
</g>
<!-- Node1&#45;&gt;Node4 -->
<g id="edge3" class="edge"><title>Node1&#45;&gt;Node4</title>
<path fill="none" stroke="midnightblue" d="M243.038,-414.399C227.169,-404.862 206.309,-392.325 190.532,-382.842"/>
<polygon fill="midnightblue" stroke="midnightblue" points="192.279,-379.809 181.905,-377.658 188.674,-385.809 192.279,-379.809"/>
</g>
<!-- Node5 -->
<g id="node5" class="node"><title>Node5</title>
<polygon fill="none" stroke="#bfbfbf" points="208,-358.5 208,-377.5 255,-377.5 255,-358.5 208,-358.5"/>
<text text-anchor="middle" x="231.5" y="-365.5" font-family="Helvetica,sans-Serif" font-size="10.00">TFile.h</text>
</g>
<!-- Node1&#45;&gt;Node5 -->
<g id="edge4" class="edge"><title>Node1&#45;&gt;Node5</title>
<path fill="none" stroke="midnightblue" d="M258.205,-414.399C253.277,-406.021 246.986,-395.327 241.749,-386.423"/>
<polygon fill="midnightblue" stroke="midnightblue" points="244.68,-384.503 236.593,-377.658 238.646,-388.052 244.68,-384.503"/>
</g>
<!-- Node6 -->
<g id="node6" class="node"><title>Node6</title>
<polygon fill="none" stroke="#bfbfbf" points="273.5,-358.5 273.5,-377.5 329.5,-377.5 329.5,-358.5 273.5,-358.5"/>
<text text-anchor="middle" x="301.5" y="-365.5" font-family="Helvetica,sans-Serif" font-size="10.00">algorithm</text>
</g>
<!-- Node1&#45;&gt;Node6 -->
<g id="edge5" class="edge"><title>Node1&#45;&gt;Node6</title>
<path fill="none" stroke="midnightblue" d="M274.795,-414.399C279.723,-406.021 286.014,-395.327 291.251,-386.423"/>
<polygon fill="midnightblue" stroke="midnightblue" points="294.354,-388.052 296.407,-377.658 288.32,-384.503 294.354,-388.052"/>
</g>
<!-- Node7 -->
<g id="node7" class="node"><title>Node7</title>
<polygon fill="none" stroke="#bfbfbf" points="348,-358.5 348,-377.5 489,-377.5 489,-358.5 348,-358.5"/>
<text text-anchor="middle" x="418.5" y="-365.5" font-family="Helvetica,sans-Serif" font-size="10.00">Headers/RAWDataHeader.h</text>
</g>
<!-- Node1&#45;&gt;Node7 -->
<g id="edge6" class="edge"><title>Node1&#45;&gt;Node7</title>
<path fill="none" stroke="midnightblue" d="M302.522,-414.399C328.139,-404.372 362.227,-391.028 386.81,-381.405"/>
<polygon fill="midnightblue" stroke="midnightblue" points="388.346,-384.562 396.383,-377.658 385.795,-378.044 388.346,-384.562"/>
</g>
<!-- Node8 -->
<g id="node8" class="node"><title>Node8</title>
<g id="a_node8"><a xlink:href="QcInfoLogger_8h.html" target="_top" xlink:title="QualityControl/QcInfoLogger.h">
<polygon fill="none" stroke="black" points="507,-358.5 507,-377.5 656,-377.5 656,-358.5 507,-358.5"/>
<text text-anchor="middle" x="581.5" y="-365.5" font-family="Helvetica,sans-Serif" font-size="10.00">QualityControl/QcInfoLogger.h</text>
</a>
</g>
</g>
<!-- Node1&#45;&gt;Node8 -->
<g id="edge7" class="edge"><title>Node1&#45;&gt;Node8</title>
<path fill="none" stroke="midnightblue" d="M331.768,-416.172C389.159,-405.331 471.777,-389.725 526.033,-379.477"/>
<polygon fill="midnightblue" stroke="midnightblue" points="526.979,-382.86 536.156,-377.565 525.68,-375.982 526.979,-382.86"/>
</g>
<!-- Node11 -->
<g id="node11" class="node"><title>Node11</title>
<g id="a_node11"><a xlink:href="PhysicsTask_8h.html" target="_top" xlink:title="MCH/PhysicsTask.h">
<polygon fill="none" stroke="black" points="710.5,-358.5 710.5,-377.5 818.5,-377.5 818.5,-358.5 710.5,-358.5"/>
<text text-anchor="middle" x="764.5" y="-365.5" font-family="Helvetica,sans-Serif" font-size="10.00">MCH/PhysicsTask.h</text>
</a>
</g>
</g>
<!-- Node1&#45;&gt;Node11 -->
<g id="edge10" class="edge"><title>Node1&#45;&gt;Node11</title>
<path fill="none" stroke="midnightblue" d="M331.605,-420.721C427.379,-409.278 605.165,-388.037 700.376,-376.661"/>
<polygon fill="midnightblue" stroke="midnightblue" points="700.933,-380.12 710.447,-375.458 700.102,-373.169 700.933,-380.12"/>
</g>
<!-- Node9 -->
<g id="node9" class="node"><title>Node9</title>
<polygon fill="none" stroke="#bfbfbf" points="352.5,-302.5 352.5,-321.5 482.5,-321.5 482.5,-302.5 352.5,-302.5"/>
<text text-anchor="middle" x="417.5" y="-309.5" font-family="Helvetica,sans-Serif" font-size="10.00">InfoLogger/InfoLogger.hxx</text>
</g>
<!-- Node8&#45;&gt;Node9 -->
<g id="edge8" class="edge"><title>Node8&#45;&gt;Node9</title>
<path fill="none" stroke="midnightblue" d="M555.514,-358.444C527.804,-349.32 483.748,-334.813 452.884,-324.651"/>
<polygon fill="midnightblue" stroke="midnightblue" points="453.958,-321.32 443.365,-321.516 451.768,-327.968 453.958,-321.32"/>
</g>
<!-- Node10 -->
<g id="node10" class="node"><title>Node10</title>
<polygon fill="none" stroke="#bfbfbf" points="500.5,-302.5 500.5,-321.5 662.5,-321.5 662.5,-302.5 500.5,-302.5"/>
<text text-anchor="middle" x="581.5" y="-309.5" font-family="Helvetica,sans-Serif" font-size="10.00">InfoLogger/InfoLoggerMacros.hxx</text>
</g>
<!-- Node8&#45;&gt;Node10 -->
<g id="edge9" class="edge"><title>Node8&#45;&gt;Node10</title>
<path fill="none" stroke="midnightblue" d="M581.5,-358.083C581.5,-351.006 581.5,-340.861 581.5,-331.986"/>
<polygon fill="midnightblue" stroke="midnightblue" points="585,-331.751 581.5,-321.751 578,-331.751 585,-331.751"/>
</g>
<!-- Node12 -->
<g id="node12" class="node"><title>Node12</title>
<g id="a_node12"><a xlink:href="TaskInterface_8h.html" target="_top" xlink:title="QualityControl/TaskInterface.h">
<polygon fill="none" stroke="black" points="689.5,-185 689.5,-204 839.5,-204 839.5,-185 689.5,-185"/>
<text text-anchor="middle" x="764.5" y="-192" font-family="Helvetica,sans-Serif" font-size="10.00">QualityControl/TaskInterface.h</text>
</a>
</g>
</g>
<!-- Node11&#45;&gt;Node12 -->
<g id="edge11" class="edge"><title>Node11&#45;&gt;Node12</title>
<path fill="none" stroke="midnightblue" d="M788.373,-358.421C834.805,-340.381 929.835,-296.034 895.5,-246 881.924,-226.217 859.419,-214.181 836.86,-206.859"/>
<polygon fill="midnightblue" stroke="midnightblue" points="837.796,-203.486 827.214,-204.001 835.808,-210.198 837.796,-203.486"/>
</g>
<!-- Node29 -->
<g id="node29" class="node"><title>Node29</title>
<g id="a_node29"><a xlink:href="Mapping_8h_source.html" target="_top" xlink:title="MCH/Mapping.h">
<polygon fill="none" stroke="black" points="515.5,-246.5 515.5,-265.5 603.5,-265.5 603.5,-246.5 515.5,-246.5"/>
<text text-anchor="middle" x="559.5" y="-253.5" font-family="Helvetica,sans-Serif" font-size="10.00">MCH/Mapping.h</text>
</a>
</g>
</g>
<!-- Node11&#45;&gt;Node29 -->
<g id="edge34" class="edge"><title>Node11&#45;&gt;Node29</title>
<path fill="none" stroke="midnightblue" d="M753.86,-358.343C737.104,-345 703.204,-319.157 671.5,-302 646.937,-288.708 617.594,-277.059 595.104,-268.945"/>
<polygon fill="midnightblue" stroke="midnightblue" points="596.203,-265.621 585.608,-265.582 593.866,-272.22 596.203,-265.621"/>
</g>
<!-- Node31 -->
<g id="node31" class="node"><title>Node31</title>
<g id="a_node31"><a xlink:href="Decoding_8h.html" target="_top" xlink:title="MCH/Decoding.h">
<polygon fill="none" stroke="black" points="718.5,-302.5 718.5,-321.5 810.5,-321.5 810.5,-302.5 718.5,-302.5"/>
<text text-anchor="middle" x="764.5" y="-309.5" font-family="Helvetica,sans-Serif" font-size="10.00">MCH/Decoding.h</text>
</a>
</g>
</g>
<!-- Node11&#45;&gt;Node31 -->
<g id="edge37" class="edge"><title>Node11&#45;&gt;Node31</title>
<path fill="none" stroke="midnightblue" d="M764.5,-358.083C764.5,-351.006 764.5,-340.861 764.5,-331.986"/>
<polygon fill="midnightblue" stroke="midnightblue" points="768,-331.751 764.5,-321.751 761,-331.751 768,-331.751"/>
</g>
<!-- Node33 -->
<g id="node33" class="node"><title>Node33</title>
<polygon fill="none" stroke="#bfbfbf" points="792.5,-246.5 792.5,-265.5 886.5,-265.5 886.5,-246.5 792.5,-246.5"/>
<text text-anchor="middle" x="839.5" y="-253.5" font-family="Helvetica,sans-Serif" font-size="10.00">MCHBase/Digit.h</text>
</g>
<!-- Node11&#45;&gt;Node33 -->
<g id="edge42" class="edge"><title>Node11&#45;&gt;Node33</title>
<path fill="none" stroke="midnightblue" d="M779.177,-358.46C791.611,-350.51 809.039,-337.564 819.5,-322 828.865,-308.067 833.997,-289.559 836.709,-275.857"/>
<polygon fill="midnightblue" stroke="midnightblue" points="840.213,-276.132 838.458,-265.683 833.314,-274.946 840.213,-276.132"/>
</g>
<!-- Node13 -->
<g id="node13" class="node"><title>Node13</title>
<polygon fill="none" stroke="#bfbfbf" points="793,-0.5 793,-19.5 828,-19.5 828,-0.5 793,-0.5"/>
<text text-anchor="middle" x="810.5" y="-7.5" font-family="Helvetica,sans-Serif" font-size="10.00">map</text>
</g>
<!-- Node12&#45;&gt;Node13 -->
<g id="edge12" class="edge"><title>Node12&#45;&gt;Node13</title>
<path fill="none" stroke="midnightblue" d="M728.4,-184.843C706.656,-177.567 680.698,-164.75 667.5,-143 647.441,-109.943 644.627,-87.1761 667.5,-56 693.895,-20.0227 749.073,-12.0511 782.643,-10.71"/>
<polygon fill="midnightblue" stroke="midnightblue" points="782.802,-14.2074 792.719,-10.4805 782.642,-7.20921 782.802,-14.2074"/>
</g>
<!-- Node14 -->
<g id="node14" class="node"><title>Node14</title>
<polygon fill="none" stroke="#bfbfbf" points="736.5,-62 736.5,-81 788.5,-81 788.5,-62 736.5,-62"/>
<text text-anchor="middle" x="762.5" y="-69" font-family="Helvetica,sans-Serif" font-size="10.00">memory</text>
</g>
<!-- Node12&#45;&gt;Node14 -->
<g id="edge13" class="edge"><title>Node12&#45;&gt;Node14</title>
<path fill="none" stroke="midnightblue" d="M758.551,-184.674C752.387,-174.954 743.155,-158.622 739.5,-143 735.163,-124.463 743.51,-103.818 751.336,-89.6852"/>
<polygon fill="midnightblue" stroke="midnightblue" points="754.373,-91.4252 756.507,-81.0476 748.367,-87.8293 754.373,-91.4252"/>
</g>
<!-- Node15 -->
<g id="node15" class="node"><title>Node15</title>
<polygon fill="none" stroke="#bfbfbf" points="884,-0.5 884,-19.5 925,-19.5 925,-0.5 884,-0.5"/>
<text text-anchor="middle" x="904.5" y="-7.5" font-family="Helvetica,sans-Serif" font-size="10.00">string</text>
</g>
<!-- Node12&#45;&gt;Node15 -->
<g id="edge14" class="edge"><title>Node12&#45;&gt;Node15</title>
<path fill="none" stroke="midnightblue" d="M757.5,-184.756C739.667,-161.365 696.089,-96.3966 727.5,-56 736.544,-44.3696 825.754,-25.9071 873.958,-16.6635"/>
<polygon fill="midnightblue" stroke="midnightblue" points="874.687,-20.0877 883.859,-14.784 873.382,-13.2105 874.687,-20.0877"/>
</g>
<!-- Node16 -->
<g id="node16" class="node"><title>Node16</title>
<polygon fill="none" stroke="#bfbfbf" points="616,-0.5 616,-19.5 699,-19.5 699,-0.5 616,-0.5"/>
<text text-anchor="middle" x="657.5" y="-7.5" font-family="Helvetica,sans-Serif" font-size="10.00">unordered_map</text>
</g>
<!-- Node12&#45;&gt;Node16 -->
<g id="edge15" class="edge"><title>Node12&#45;&gt;Node16</title>
<path fill="none" stroke="midnightblue" d="M721.308,-184.999C697.351,-177.933 669.29,-165.284 653.5,-143 629.395,-108.979 641.556,-56.6803 650.622,-29.2411"/>
<polygon fill="midnightblue" stroke="midnightblue" points="653.952,-30.3239 653.977,-19.729 647.35,-27.9956 653.952,-30.3239"/>
</g>
<!-- Node17 -->
<g id="node17" class="node"><title>Node17</title>
<polygon fill="none" stroke="#bfbfbf" points="748,-123.5 748,-142.5 873,-142.5 873,-123.5 748,-123.5"/>
<text text-anchor="middle" x="810.5" y="-130.5" font-family="Helvetica,sans-Serif" font-size="10.00">Framework/InitContext.h</text>
</g>
<!-- Node12&#45;&gt;Node17 -->
<g id="edge16" class="edge"><title>Node12&#45;&gt;Node17</title>
<path fill="none" stroke="midnightblue" d="M771.091,-184.975C777.991,-176.05 789.002,-161.807 797.634,-150.643"/>
<polygon fill="midnightblue" stroke="midnightblue" points="800.574,-152.561 803.922,-142.509 795.036,-148.28 800.574,-152.561"/>
</g>
<!-- Node18 -->
<g id="node18" class="node"><title>Node18</title>
<polygon fill="none" stroke="#bfbfbf" points="891.5,-123.5 891.5,-142.5 1051.5,-142.5 1051.5,-123.5 891.5,-123.5"/>
<text text-anchor="middle" x="971.5" y="-130.5" font-family="Helvetica,sans-Serif" font-size="10.00">Framework/ProcessingContext.h</text>
</g>
<!-- Node12&#45;&gt;Node18 -->
<g id="edge17" class="edge"><title>Node12&#45;&gt;Node18</title>
<path fill="none" stroke="midnightblue" d="M794.158,-184.975C830.434,-174.548 891.964,-156.862 932.164,-145.307"/>
<polygon fill="midnightblue" stroke="midnightblue" points="933.253,-148.635 941.897,-142.509 931.319,-141.908 933.253,-148.635"/>
</g>
<!-- Node19 -->
<g id="node19" class="node"><title>Node19</title>
<g id="a_node19"><a xlink:href="Activity_8h.html" target="_top" xlink:title="QualityControl/Activity.h">
<polygon fill="none" stroke="black" points="1070,-123.5 1070,-142.5 1193,-142.5 1193,-123.5 1070,-123.5"/>
<text text-anchor="middle" x="1131.5" y="-130.5" font-family="Helvetica,sans-Serif" font-size="10.00">QualityControl/Activity.h</text>
</a>
</g>
</g>
<!-- Node12&#45;&gt;Node19 -->
<g id="edge18" class="edge"><title>Node12&#45;&gt;Node19</title>
<path fill="none" stroke="midnightblue" d="M817.082,-184.975C883.578,-174.194 997.934,-155.654 1068.87,-144.153"/>
<polygon fill="midnightblue" stroke="midnightblue" points="1069.7,-147.564 1079.02,-142.509 1068.58,-140.655 1069.7,-147.564"/>
</g>
<!-- Node20 -->
<g id="node20" class="node"><title>Node20</title>
<g id="a_node20"><a xlink:href="ObjectsManager_8h.html" target="_top" xlink:title="QualityControl/ObjectsManager.h">
<polygon fill="none" stroke="black" points="1211,-123.5 1211,-142.5 1372,-142.5 1372,-123.5 1211,-123.5"/>
<text text-anchor="middle" x="1291.5" y="-130.5" font-family="Helvetica,sans-Serif" font-size="10.00">QualityControl/ObjectsManager.h</text>
</a>
</g>
</g>
<!-- Node12&#45;&gt;Node20 -->
<g id="edge19" class="edge"><title>Node12&#45;&gt;Node20</title>
<path fill="none" stroke="midnightblue" d="M839.726,-185.007C936.508,-174.08 1104.22,-155.144 1205.82,-143.674"/>
<polygon fill="midnightblue" stroke="midnightblue" points="1206.5,-147.119 1216.05,-142.519 1205.72,-140.163 1206.5,-147.119"/>
</g>
<!-- Node20&#45;&gt;Node14 -->
<g id="edge33" class="edge"><title>Node20&#45;&gt;Node14</title>
<path fill="none" stroke="midnightblue" d="M1210.97,-123.824C1208.11,-123.544 1205.28,-123.269 1202.5,-123 1028.8,-106.221 982.88,-119.917 811.5,-87 807.017,-86.139 802.357,-85.0383 797.772,-83.8292"/>
<polygon fill="midnightblue" stroke="midnightblue" points="798.526,-80.4055 787.952,-81.0596 796.626,-87.1427 798.526,-80.4055"/>
</g>
<!-- Node20&#45;&gt;Node15 -->
<g id="edge32" class="edge"><title>Node20&#45;&gt;Node15</title>
<path fill="none" stroke="midnightblue" d="M1210.93,-123.806C1140.4,-115.796 1043.85,-102.558 1008.5,-87 988.234,-78.0797 987.279,-69.1978 969.5,-56 955.311,-45.4671 938.953,-34.1466 926.197,-25.4949"/>
<polygon fill="midnightblue" stroke="midnightblue" points="927.875,-22.4053 917.628,-19.7162 923.962,-28.209 927.875,-22.4053"/>
</g>
<!-- Node21 -->
<g id="node21" class="node"><title>Node21</title>
<g id="a_node21"><a xlink:href="MonitorObject_8h.html" target="_top" xlink:title="QualityControl/MonitorObject.h">
<polygon fill="none" stroke="black" points="1017,-62 1017,-81 1168,-81 1168,-62 1017,-62"/>
<text text-anchor="middle" x="1092.5" y="-69" font-family="Helvetica,sans-Serif" font-size="10.00">QualityControl/MonitorObject.h</text>
</a>
</g>
</g>
<!-- Node20&#45;&gt;Node21 -->
<g id="edge20" class="edge"><title>Node20&#45;&gt;Node21</title>
<path fill="none" stroke="midnightblue" d="M1262.99,-123.475C1228.26,-113.092 1169.46,-95.5116 1130.81,-83.9538"/>
<polygon fill="midnightblue" stroke="midnightblue" points="1131.54,-80.5205 1120.96,-81.0091 1129.54,-87.2271 1131.54,-80.5205"/>
</g>
<!-- Node25 -->
<g id="node25" class="node"><title>Node25</title>
<g id="a_node25"><a xlink:href="MonitorObjectCollection_8h.html" target="_top" xlink:title="QualityControl/MonitorObject\lCollection.h">
<polygon fill="none" stroke="black" points="1220,-56.5 1220,-86.5 1363,-86.5 1363,-56.5 1220,-56.5"/>
<text text-anchor="start" x="1228" y="-74.5" font-family="Helvetica,sans-Serif" font-size="10.00">QualityControl/MonitorObject</text>
<text text-anchor="middle" x="1291.5" y="-63.5" font-family="Helvetica,sans-Serif" font-size="10.00">Collection.h</text>
</a>
</g>
</g>
<!-- Node20&#45;&gt;Node25 -->
<g id="edge26" class="edge"><title>Node20&#45;&gt;Node25</title>
<path fill="none" stroke="midnightblue" d="M1291.5,-123.475C1291.5,-116.471 1291.5,-106.192 1291.5,-96.6956"/>
<polygon fill="midnightblue" stroke="midnightblue" points="1295,-96.5229 1291.5,-86.523 1288,-96.523 1295,-96.5229"/>
</g>
<!-- Node28 -->
<g id="node28" class="node"><title>Node28</title>
<g id="a_node28"><a xlink:href="TaskConfig_8h.html" target="_top" xlink:title="QualityControl/TaskConfig.h">
<polygon fill="none" stroke="black" points="820.5,-62 820.5,-81 960.5,-81 960.5,-62 820.5,-62"/>
<text text-anchor="middle" x="890.5" y="-69" font-family="Helvetica,sans-Serif" font-size="10.00">QualityControl/TaskConfig.h</text>
</a>
</g>
</g>
<!-- Node20&#45;&gt;Node28 -->
<g id="edge29" class="edge"><title>Node20&#45;&gt;Node28</title>
<path fill="none" stroke="midnightblue" d="M1227.36,-123.468C1163.27,-114.808 1061.95,-100.751 974.5,-87 966.094,-85.6781 957.226,-84.2185 948.528,-82.7498"/>
<polygon fill="midnightblue" stroke="midnightblue" points="948.88,-79.2593 938.434,-81.0291 947.703,-86.1598 948.88,-79.2593"/>
</g>
<!-- Node21&#45;&gt;Node13 -->
<g id="edge22" class="edge"><title>Node21&#45;&gt;Node13</title>
<path fill="none" stroke="midnightblue" d="M1052.1,-61.9751C993.923,-49.701 888.082,-27.3693 838.076,-16.8183"/>
<polygon fill="midnightblue" stroke="midnightblue" points="838.518,-13.3346 828.011,-14.6946 837.073,-20.1838 838.518,-13.3346"/>
</g>
<!-- Node21&#45;&gt;Node15 -->
<g id="edge21" class="edge"><title>Node21&#45;&gt;Node15</title>
<path fill="none" stroke="midnightblue" d="M1065.56,-61.9751C1031,-51.037 971.205,-32.1114 935.003,-20.6539"/>
<polygon fill="midnightblue" stroke="midnightblue" points="935.609,-17.1747 925.019,-17.4941 933.497,-23.8485 935.609,-17.1747"/>
</g>
<!-- Node22 -->
<g id="node22" class="node"><title>Node22</title>
<polygon fill="none" stroke="#bfbfbf" points="1168.5,-0.5 1168.5,-19.5 1224.5,-19.5 1224.5,-0.5 1168.5,-0.5"/>
<text text-anchor="middle" x="1196.5" y="-7.5" font-family="Helvetica,sans-Serif" font-size="10.00">Rtypes.h</text>
</g>
<!-- Node21&#45;&gt;Node22 -->
<g id="edge23" class="edge"><title>Node21&#45;&gt;Node22</title>
<path fill="none" stroke="midnightblue" d="M1107.4,-61.9751C1124.47,-52.2106 1152.66,-36.0807 1172.76,-24.5808"/>
<polygon fill="midnightblue" stroke="midnightblue" points="1174.69,-27.513 1181.63,-19.5091 1171.21,-21.4371 1174.69,-27.513"/>
</g>
<!-- Node23 -->
<g id="node23" class="node"><title>Node23</title>
<polygon fill="none" stroke="#bfbfbf" points="957,-0.5 957,-19.5 1016,-19.5 1016,-0.5 957,-0.5"/>
<text text-anchor="middle" x="986.5" y="-7.5" font-family="Helvetica,sans-Serif" font-size="10.00">TObject.h</text>
</g>
<!-- Node21&#45;&gt;Node23 -->
<g id="edge24" class="edge"><title>Node21&#45;&gt;Node23</title>
<path fill="none" stroke="midnightblue" d="M1077.31,-61.9751C1059.84,-52.1664 1030.92,-35.9346 1010.42,-24.425"/>
<polygon fill="midnightblue" stroke="midnightblue" points="1012.09,-21.3519 1001.66,-19.5091 1008.67,-27.456 1012.09,-21.3519"/>
</g>
<!-- Node24 -->
<g id="node24" class="node"><title>Node24</title>
<polygon fill="none" stroke="#bfbfbf" points="1034.5,-0.5 1034.5,-19.5 1150.5,-19.5 1150.5,-0.5 1034.5,-0.5"/>
<text text-anchor="middle" x="1092.5" y="-7.5" font-family="Helvetica,sans-Serif" font-size="10.00">Common/Exceptions.h</text>
</g>
<!-- Node21&#45;&gt;Node24 -->
<g id="edge25" class="edge"><title>Node21&#45;&gt;Node24</title>
<path fill="none" stroke="midnightblue" d="M1092.5,-61.9751C1092.5,-53.5803 1092.5,-40.4806 1092.5,-29.6631"/>
<polygon fill="midnightblue" stroke="midnightblue" points="1096,-29.5091 1092.5,-19.5091 1089,-29.5091 1096,-29.5091"/>
</g>
<!-- Node26 -->
<g id="node26" class="node"><title>Node26</title>
<polygon fill="none" stroke="#bfbfbf" points="1250,-0.5 1250,-19.5 1319,-19.5 1319,-0.5 1250,-0.5"/>
<text text-anchor="middle" x="1284.5" y="-7.5" font-family="Helvetica,sans-Serif" font-size="10.00">TObjArray.h</text>
</g>
<!-- Node25&#45;&gt;Node26 -->
<g id="edge27" class="edge"><title>Node25&#45;&gt;Node26</title>
<path fill="none" stroke="midnightblue" d="M1289.84,-56.3993C1288.91,-48.4664 1287.73,-38.458 1286.72,-29.8583"/>
<polygon fill="midnightblue" stroke="midnightblue" points="1290.16,-29.1803 1285.52,-19.6578 1283.21,-29.9983 1290.16,-29.1803"/>
</g>
<!-- Node27 -->
<g id="node27" class="node"><title>Node27</title>
<polygon fill="none" stroke="#bfbfbf" points="1337.5,-0.5 1337.5,-19.5 1465.5,-19.5 1465.5,-0.5 1337.5,-0.5"/>
<text text-anchor="middle" x="1401.5" y="-7.5" font-family="Helvetica,sans-Serif" font-size="10.00">Mergers/MergeInterface.h</text>
</g>
<!-- Node25&#45;&gt;Node27 -->
<g id="edge28" class="edge"><title>Node25&#45;&gt;Node27</title>
<path fill="none" stroke="midnightblue" d="M1317.57,-56.3993C1335.37,-46.7728 1358.81,-34.0902 1376.4,-24.5772"/>
<polygon fill="midnightblue" stroke="midnightblue" points="1378.36,-27.494 1385.49,-19.6578 1375.03,-21.337 1378.36,-27.494"/>
</g>
<!-- Node28&#45;&gt;Node15 -->
<g id="edge30" class="edge"><title>Node28&#45;&gt;Node15</title>
<path fill="none" stroke="midnightblue" d="M892.506,-61.9751C894.502,-53.4919 897.628,-40.2043 900.189,-29.3222"/>
<polygon fill="midnightblue" stroke="midnightblue" points="903.614,-30.0449 902.498,-19.5091 896.8,-28.4416 903.614,-30.0449"/>
</g>
<!-- Node28&#45;&gt;Node16 -->
<g id="edge31" class="edge"><title>Node28&#45;&gt;Node16</title>
<path fill="none" stroke="midnightblue" d="M857.117,-61.9751C815.938,-51.4595 745.85,-33.5615 700.631,-22.0142"/>
<polygon fill="midnightblue" stroke="midnightblue" points="701.376,-18.5922 690.821,-19.5091 699.644,-25.3746 701.376,-18.5922"/>
</g>
<!-- Node29&#45;&gt;Node12 -->
<g id="edge36" class="edge"><title>Node29&#45;&gt;Node12</title>
<path fill="none" stroke="midnightblue" d="M588.872,-246.475C624.797,-236.048 685.732,-218.362 725.544,-206.807"/>
<polygon fill="midnightblue" stroke="midnightblue" points="726.555,-210.158 735.183,-204.009 724.604,-203.435 726.555,-210.158"/>
</g>
<!-- Node30 -->
<g id="node30" class="node"><title>Node30</title>
<polygon fill="none" stroke="#bfbfbf" points="502,-179.5 502,-209.5 617,-209.5 617,-179.5 502,-179.5"/>
<text text-anchor="start" x="510" y="-197.5" font-family="Helvetica,sans-Serif" font-size="10.00">MCHMappingInterface</text>
<text text-anchor="middle" x="559.5" y="-186.5" font-family="Helvetica,sans-Serif" font-size="10.00">/Segmentation.h</text>
</g>
<!-- Node29&#45;&gt;Node30 -->
<g id="edge35" class="edge"><title>Node29&#45;&gt;Node30</title>
<path fill="none" stroke="midnightblue" d="M559.5,-246.475C559.5,-239.471 559.5,-229.192 559.5,-219.696"/>
<polygon fill="midnightblue" stroke="midnightblue" points="563,-219.523 559.5,-209.523 556,-219.523 563,-219.523"/>
</g>
<!-- Node31&#45;&gt;Node12 -->
<g id="edge38" class="edge"><title>Node31&#45;&gt;Node12</title>
<path fill="none" stroke="midnightblue" d="M764.5,-302.319C764.5,-283.757 764.5,-239.839 764.5,-214.473"/>
<polygon fill="midnightblue" stroke="midnightblue" points="768,-214.282 764.5,-204.282 761,-214.282 768,-214.282"/>
</g>
<!-- Node31&#45;&gt;Node29 -->
<g id="edge40" class="edge"><title>Node31&#45;&gt;Node29</title>
<path fill="none" stroke="midnightblue" d="M732.017,-302.444C696.78,-293.162 640.396,-278.309 601.741,-268.127"/>
<polygon fill="midnightblue" stroke="midnightblue" points="602.393,-264.679 591.831,-265.516 600.609,-271.448 602.393,-264.679"/>
</g>
<!-- Node32 -->
<g id="node32" class="node"><title>Node32</title>
<g id="a_node32"><a xlink:href="sampa__header_8h_source.html" target="_top" xlink:title="MCH/sampa_header.h">
<polygon fill="none" stroke="black" points="621,-246.5 621,-265.5 736,-265.5 736,-246.5 621,-246.5"/>
<text text-anchor="middle" x="678.5" y="-253.5" font-family="Helvetica,sans-Serif" font-size="10.00">MCH/sampa_header.h</text>
</a>
</g>
</g>
<!-- Node31&#45;&gt;Node32 -->
<g id="edge39" class="edge"><title>Node31&#45;&gt;Node32</title>
<path fill="none" stroke="midnightblue" d="M750.683,-302.324C737.267,-293.9 716.676,-280.971 700.914,-271.074"/>
<polygon fill="midnightblue" stroke="midnightblue" points="702.613,-268.008 692.283,-265.655 698.891,-273.936 702.613,-268.008"/>
</g>
<!-- Node31&#45;&gt;Node33 -->
<g id="edge41" class="edge"><title>Node31&#45;&gt;Node33</title>
<path fill="none" stroke="midnightblue" d="M776.55,-302.324C787.963,-294.107 805.331,-281.602 818.935,-271.807"/>
<polygon fill="midnightblue" stroke="midnightblue" points="821.16,-274.517 827.231,-265.834 817.07,-268.837 821.16,-274.517"/>
</g>
</g>
</svg>
        <g id="navigator" transform="translate(0 0)" fill="#404254">
                <rect fill="#f2f5e9" fill-opacity="0.5" stroke="#606060" stroke-width=".5" x="0" y="0" width="60" height="60"/>
                <use id="zoomplus" xlink:href="#zoomPlus" x="17" y="9" onmousedown="handleZoom(evt,'in')"/>
                <use id="zoomminus" xlink:href="#zoomMin" x="42" y="9" onmousedown="handleZoom(evt,'out')"/>
                <use id="reset" xlink:href="#resetDef" x="30" y="36" onmousedown="handleReset()"/>
                <g id="arrowUp" xlink:href="#dirArrow" transform="translate(30 24)" onmousedown="handlePan(0,-1)">
                  <use xlink:href="#rim" fill="#404040">
                        <set attributeName="fill" to="#808080" begin="arrowUp.mouseover" end="arrowUp.mouseout"/>
                  </use>
                  <path fill="none" stroke="white" stroke-width="1.5" d="M0,-3.0v7 M-2.5,-0.5L0,-3.0L2.5,-0.5"/>
                </g>
                <g id="arrowRight" xlink:href="#dirArrow" transform="rotate(90) translate(36 -43)" onmousedown="handlePan(1,0)">
                  <use xlink:href="#rim" fill="#404040">
                        <set attributeName="fill" to="#808080" begin="arrowRight.mouseover" end="arrowRight.mouseout"/>
                  </use>
                  <path fill="none" stroke="white" stroke-width="1.5" d="M0,-3.0v7 M-2.5,-0.5L0,-3.0L2.5,-0.5"/>
                </g>
                <g id="arrowDown" xlink:href="#dirArrow" transform="rotate(180) translate(-30 -48)" onmousedown="handlePan(0,1)">
                  <use xlink:href="#rim" fill="#404040">
                        <set attributeName="fill" to="#808080" begin="arrowDown.mouseover" end="arrowDown.mouseout"/>
                  </use>
                  <path fill="none" stroke="white" stroke-width="1.5" d="M0,-3.0v7 M-2.5,-0.5L0,-3.0L2.5,-0.5"/>
                </g>
                <g id="arrowLeft" xlink:href="#dirArrow" transform="rotate(270) translate(-36 17)" onmousedown="handlePan(-1,0)">
                  <use xlink:href="#rim" fill="#404040">
                        <set attributeName="fill" to="#808080" begin="arrowLeft.mouseover" end="arrowLeft.mouseout"/>
                  </use>
                  <path fill="none" stroke="white" stroke-width="1.5" d="M0,-3.0v7 M-2.5,-0.5L0,-3.0L2.5,-0.5"/>
                </g>
        </g>
        <svg viewBox="0 0 15 15" width="100%" height="30px" preserveAspectRatio="xMaxYMin meet">
         <g id="arrow_out" transform="scale(0.3 0.3)">
          <a xlink:href="PhysicsTask_8cxx__incl_org.svg" target="_base">
           <rect id="button" ry="5" rx="5" y="6" x="6" height="38" width="38"
                fill="#f2f5e9" fill-opacity="0.5" stroke="#606060" stroke-width="1.0"/>
           <path id="arrow"
             d="M 11.500037,31.436501 C 11.940474,20.09759 22.043105,11.32322 32.158766,21.979434 L 37.068811,17.246167 C 37.068811,17.246167 37.088388,32 37.088388,32 L 22.160133,31.978069 C 22.160133,31.978069 26.997745,27.140456 26.997745,27.140456 C 18.528582,18.264221 13.291696,25.230495 11.500037,31.436501 z"
             style="fill:#404040;"/>
          </a>
         </g>
        </svg>
</svg>
