<?xml version="1.0" encoding="UTF-8" standalone="no"?>
<!DOCTYPE svg PUBLIC "-//W3C//DTD SVG 1.1//EN"
 "http://www.w3.org/Graphics/SVG/1.1/DTD/svg11.dtd">
<!-- Generated by graphviz version 2.38.0 (20140413.2041)
 -->
<!-- Title: Modules/TPC/src/PID.cxx Pages: 1 -->
<svg width="1215pt" height="319pt"
 viewBox="0.00 0.00 1215.00 319.00" xmlns="http://www.w3.org/2000/svg" xmlns:xlink="http://www.w3.org/1999/xlink">
<g id="graph0" class="graph" transform="scale(1 1) rotate(0) translate(4 315)">
<title>Modules/TPC/src/PID.cxx</title>
<!-- Node1 -->
<g id="node1" class="node"><title>Node1</title>
<polygon fill="#bfbfbf" stroke="black" points="202.5,-291.5 202.5,-310.5 334.5,-310.5 334.5,-291.5 202.5,-291.5"/>
<text text-anchor="middle" x="268.5" y="-298.5" font-family="Helvetica,sans-Serif" font-size="10.00">Modules/TPC/src/PID.cxx</text>
</g>
<!-- Node2 -->
<g id="node2" class="node"><title>Node2</title>
<polygon fill="none" stroke="#bfbfbf" points="0,-235.5 0,-254.5 65,-254.5 65,-235.5 0,-235.5"/>
<text text-anchor="middle" x="32.5" y="-242.5" font-family="Helvetica,sans-Serif" font-size="10.00">TCanvas.h</text>
</g>
<!-- Node1&#45;&gt;Node2 -->
<g id="edge1" class="edge"><title>Node1&#45;&gt;Node2</title>
<path fill="none" stroke="midnightblue" d="M231.105,-291.444C188.661,-281.732 119.565,-265.922 75.0825,-255.743"/>
<polygon fill="midnightblue" stroke="midnightblue" points="75.6886,-252.292 65.1598,-253.473 74.1272,-259.115 75.6886,-252.292"/>
</g>
<!-- Node3 -->
<g id="node3" class="node"><title>Node3</title>
<polygon fill="none" stroke="#bfbfbf" points="83.5,-235.5 83.5,-254.5 127.5,-254.5 127.5,-235.5 83.5,-235.5"/>
<text text-anchor="middle" x="105.5" y="-242.5" font-family="Helvetica,sans-Serif" font-size="10.00">TH1.h</text>
</g>
<!-- Node1&#45;&gt;Node3 -->
<g id="edge2" class="edge"><title>Node1&#45;&gt;Node3</title>
<path fill="none" stroke="midnightblue" d="M242.672,-291.444C214.122,-281.985 168.111,-266.742 137.348,-256.551"/>
<polygon fill="midnightblue" stroke="midnightblue" points="138.141,-253.127 127.548,-253.304 135.94,-259.771 138.141,-253.127"/>
</g>
<!-- Node4 -->
<g id="node4" class="node"><title>Node4</title>
<polygon fill="none" stroke="#bfbfbf" points="145.5,-235.5 145.5,-254.5 189.5,-254.5 189.5,-235.5 145.5,-235.5"/>
<text text-anchor="middle" x="167.5" y="-242.5" font-family="Helvetica,sans-Serif" font-size="10.00">TH2.h</text>
</g>
<!-- Node1&#45;&gt;Node4 -->
<g id="edge3" class="edge"><title>Node1&#45;&gt;Node4</title>
<path fill="none" stroke="midnightblue" d="M252.273,-291.324C236.149,-282.703 211.2,-269.364 192.536,-259.386"/>
<polygon fill="midnightblue" stroke="midnightblue" points="194.156,-256.283 183.687,-254.655 190.856,-262.456 194.156,-256.283"/>
</g>
<!-- Node5 -->
<g id="node5" class="node"><title>Node5</title>
<polygon fill="none" stroke="#bfbfbf" points="184.5,-123.5 184.5,-142.5 344.5,-142.5 344.5,-123.5 184.5,-123.5"/>
<text text-anchor="middle" x="264.5" y="-130.5" font-family="Helvetica,sans-Serif" font-size="10.00">Framework/ProcessingContext.h</text>
</g>
<!-- Node1&#45;&gt;Node5 -->
<g id="edge4" class="edge"><title>Node1&#45;&gt;Node5</title>
<path fill="none" stroke="midnightblue" d="M259.749,-291.286C251.937,-282.84 241.049,-269.246 236.5,-255 224.965,-218.875 242.495,-175.276 254.598,-151.523"/>
<polygon fill="midnightblue" stroke="midnightblue" points="257.721,-153.107 259.353,-142.638 251.549,-149.804 257.721,-153.107"/>
</g>
<!-- Node6 -->
<g id="node6" class="node"><title>Node6</title>
<polygon fill="none" stroke="#bfbfbf" points="245.5,-235.5 245.5,-254.5 395.5,-254.5 395.5,-235.5 245.5,-235.5"/>
<text text-anchor="middle" x="320.5" y="-242.5" font-family="Helvetica,sans-Serif" font-size="10.00">DataFormatsTPC/TrackTPC.h</text>
</g>
<!-- Node1&#45;&gt;Node6 -->
<g id="edge5" class="edge"><title>Node1&#45;&gt;Node6</title>
<path fill="none" stroke="midnightblue" d="M277.087,-291.083C284.659,-283.22 295.878,-271.569 305.014,-262.081"/>
<polygon fill="midnightblue" stroke="midnightblue" points="307.658,-264.382 312.073,-254.751 302.615,-259.527 307.658,-264.382"/>
</g>
<!-- Node7 -->
<g id="node7" class="node"><title>Node7</title>
<polygon fill="none" stroke="#bfbfbf" points="413,-235.5 413,-254.5 510,-254.5 510,-235.5 413,-235.5"/>
<text text-anchor="middle" x="461.5" y="-242.5" font-family="Helvetica,sans-Serif" font-size="10.00">TPCQC/Helpers.h</text>
</g>
<!-- Node1&#45;&gt;Node7 -->
<g id="edge6" class="edge"><title>Node1&#45;&gt;Node7</title>
<path fill="none" stroke="midnightblue" d="M299.081,-291.444C332.115,-282.201 384.888,-267.436 421.266,-257.257"/>
<polygon fill="midnightblue" stroke="midnightblue" points="422.375,-260.582 431.062,-254.516 420.488,-253.84 422.375,-260.582"/>
</g>
<!-- Node8 -->
<g id="node8" class="node"><title>Node8</title>
<g id="a_node8"><a xlink:href="QcInfoLogger_8h.html" target="_top" xlink:title="QualityControl/QcInfoLogger.h">
<polygon fill="none" stroke="black" points="528,-235.5 528,-254.5 677,-254.5 677,-235.5 528,-235.5"/>
<text text-anchor="middle" x="602.5" y="-242.5" font-family="Helvetica,sans-Serif" font-size="10.00">QualityControl/QcInfoLogger.h</text>
</a>
</g>
</g>
<!-- Node1&#45;&gt;Node8 -->
<g id="edge7" class="edge"><title>Node1&#45;&gt;Node8</title>
<path fill="none" stroke="midnightblue" d="M321.423,-291.444C380.666,-281.865 476.597,-266.356 539.617,-256.167"/>
<polygon fill="midnightblue" stroke="midnightblue" points="540.511,-259.568 549.824,-254.516 539.394,-252.657 540.511,-259.568"/>
</g>
<!-- Node11 -->
<g id="node11" class="node"><title>Node11</title>
<g id="a_node11"><a xlink:href="PID_8h.html" target="_top" xlink:title="TPC/PID.h">
<polygon fill="none" stroke="black" points="711,-235.5 711,-254.5 776,-254.5 776,-235.5 711,-235.5"/>
<text text-anchor="middle" x="743.5" y="-242.5" font-family="Helvetica,sans-Serif" font-size="10.00">TPC/PID.h</text>
</a>
</g>
</g>
<!-- Node1&#45;&gt;Node11 -->
<g id="edge10" class="edge"><title>Node1&#45;&gt;Node11</title>
<path fill="none" stroke="midnightblue" d="M334.502,-293.91C416.986,-286.066 562.412,-271.466 686.5,-255 691.217,-254.374 696.147,-253.671 701.047,-252.94"/>
<polygon fill="midnightblue" stroke="midnightblue" points="701.631,-256.391 710.986,-251.418 700.572,-249.472 701.631,-256.391"/>
</g>
<!-- Node9 -->
<g id="node9" class="node"><title>Node9</title>
<polygon fill="none" stroke="#bfbfbf" points="520.5,-179.5 520.5,-198.5 650.5,-198.5 650.5,-179.5 520.5,-179.5"/>
<text text-anchor="middle" x="585.5" y="-186.5" font-family="Helvetica,sans-Serif" font-size="10.00">InfoLogger/InfoLogger.hxx</text>
</g>
<!-- Node8&#45;&gt;Node9 -->
<g id="edge8" class="edge"><title>Node8&#45;&gt;Node9</title>
<path fill="none" stroke="midnightblue" d="M599.693,-235.083C597.415,-227.849 594.129,-217.409 591.292,-208.397"/>
<polygon fill="midnightblue" stroke="midnightblue" points="594.596,-207.239 588.255,-198.751 587.919,-209.341 594.596,-207.239"/>
</g>
<!-- Node10 -->
<g id="node10" class="node"><title>Node10</title>
<polygon fill="none" stroke="#bfbfbf" points="340.5,-179.5 340.5,-198.5 502.5,-198.5 502.5,-179.5 340.5,-179.5"/>
<text text-anchor="middle" x="421.5" y="-186.5" font-family="Helvetica,sans-Serif" font-size="10.00">InfoLogger/InfoLoggerMacros.hxx</text>
</g>
<!-- Node8&#45;&gt;Node10 -->
<g id="edge9" class="edge"><title>Node8&#45;&gt;Node10</title>
<path fill="none" stroke="midnightblue" d="M573.82,-235.444C542.973,-226.241 493.772,-211.562 459.671,-201.388"/>
<polygon fill="midnightblue" stroke="midnightblue" points="460.629,-198.021 450.046,-198.516 458.628,-204.729 460.629,-198.021"/>
</g>
<!-- Node12 -->
<g id="node12" class="node"><title>Node12</title>
<polygon fill="none" stroke="#bfbfbf" points="836.5,-179.5 836.5,-198.5 916.5,-198.5 916.5,-179.5 836.5,-179.5"/>
<text text-anchor="middle" x="876.5" y="-186.5" font-family="Helvetica,sans-Serif" font-size="10.00">TPCQC/PID.h</text>
</g>
<!-- Node11&#45;&gt;Node12 -->
<g id="edge11" class="edge"><title>Node11&#45;&gt;Node12</title>
<path fill="none" stroke="midnightblue" d="M764.574,-235.444C786.56,-226.517 821.234,-212.439 846.164,-202.317"/>
<polygon fill="midnightblue" stroke="midnightblue" points="847.576,-205.521 855.524,-198.516 844.942,-199.035 847.576,-205.521"/>
</g>
<!-- Node13 -->
<g id="node13" class="node"><title>Node13</title>
<g id="a_node13"><a xlink:href="TaskInterface_8h.html" target="_top" xlink:title="QualityControl/TaskInterface.h">
<polygon fill="none" stroke="black" points="668.5,-179.5 668.5,-198.5 818.5,-198.5 818.5,-179.5 668.5,-179.5"/>
<text text-anchor="middle" x="743.5" y="-186.5" font-family="Helvetica,sans-Serif" font-size="10.00">QualityControl/TaskInterface.h</text>
</a>
</g>
</g>
<!-- Node11&#45;&gt;Node13 -->
<g id="edge12" class="edge"><title>Node11&#45;&gt;Node13</title>
<path fill="none" stroke="midnightblue" d="M743.5,-235.083C743.5,-228.006 743.5,-217.861 743.5,-208.986"/>
<polygon fill="midnightblue" stroke="midnightblue" points="747,-208.751 743.5,-198.751 740,-208.751 747,-208.751"/>
</g>
<!-- Node13&#45;&gt;Node5 -->
<g id="edge18" class="edge"><title>Node13&#45;&gt;Node5</title>
<path fill="none" stroke="midnightblue" d="M668.393,-179.533C581.981,-169.791 440.394,-153.829 349.873,-143.625"/>
<polygon fill="midnightblue" stroke="midnightblue" points="350.243,-140.144 339.914,-142.502 349.459,-147.1 350.243,-140.144"/>
</g>
<!-- Node14 -->
<g id="node14" class="node"><title>Node14</title>
<polygon fill="none" stroke="#bfbfbf" points="1172,-0.5 1172,-19.5 1207,-19.5 1207,-0.5 1172,-0.5"/>
<text text-anchor="middle" x="1189.5" y="-7.5" font-family="Helvetica,sans-Serif" font-size="10.00">map</text>
</g>
<!-- Node13&#45;&gt;Node14 -->
<g id="edge13" class="edge"><title>Node13&#45;&gt;Node14</title>
<path fill="none" stroke="midnightblue" d="M816.384,-179.495C923.319,-165.571 1115.39,-134.606 1164.5,-87 1180.13,-71.8531 1185.99,-46.7788 1188.19,-29.6026"/>
<polygon fill="midnightblue" stroke="midnightblue" points="1191.67,-29.9343 1189.17,-19.6395 1184.71,-29.2487 1191.67,-29.9343"/>
</g>
<!-- Node15 -->
<g id="node15" class="node"><title>Node15</title>
<polygon fill="none" stroke="#bfbfbf" points="447.5,-62 447.5,-81 499.5,-81 499.5,-62 447.5,-62"/>
<text text-anchor="middle" x="473.5" y="-69" font-family="Helvetica,sans-Serif" font-size="10.00">memory</text>
</g>
<!-- Node13&#45;&gt;Node15 -->
<g id="edge14" class="edge"><title>Node13&#45;&gt;Node15</title>
<path fill="none" stroke="midnightblue" d="M675.352,-179.488C606.032,-170.241 506.919,-155.16 493.5,-143 479.238,-130.076 474.848,-107.807 473.643,-91.7511"/>
<polygon fill="midnightblue" stroke="midnightblue" points="477.125,-91.2343 473.232,-81.3805 470.13,-91.5111 477.125,-91.2343"/>
</g>
<!-- Node16 -->
<g id="node16" class="node"><title>Node16</title>
<polygon fill="none" stroke="#bfbfbf" points="827,-0.5 827,-19.5 868,-19.5 868,-0.5 827,-0.5"/>
<text text-anchor="middle" x="847.5" y="-7.5" font-family="Helvetica,sans-Serif" font-size="10.00">string</text>
</g>
<!-- Node13&#45;&gt;Node16 -->
<g id="edge15" class="edge"><title>Node13&#45;&gt;Node16</title>
<path fill="none" stroke="midnightblue" d="M801.929,-179.49C861.553,-170.211 946.711,-155.073 956.5,-143 991.825,-99.4321 915.826,-48.3621 873.444,-24.5297"/>
<polygon fill="midnightblue" stroke="midnightblue" points="874.918,-21.3463 864.467,-19.6047 871.551,-27.4833 874.918,-21.3463"/>
</g>
<!-- Node17 -->
<g id="node17" class="node"><title>Node17</title>
<polygon fill="none" stroke="#bfbfbf" points="390,-0.5 390,-19.5 473,-19.5 473,-0.5 390,-0.5"/>
<text text-anchor="middle" x="431.5" y="-7.5" font-family="Helvetica,sans-Serif" font-size="10.00">unordered_map</text>
</g>
<!-- Node13&#45;&gt;Node17 -->
<g id="edge16" class="edge"><title>Node13&#45;&gt;Node17</title>
<path fill="none" stroke="midnightblue" d="M676.43,-179.485C602.909,-169.714 493.114,-153.667 476.5,-143 451.19,-126.749 448.645,-115.316 438.5,-87 431.811,-68.3301 430.551,-45.5126 430.658,-29.7792"/>
<polygon fill="midnightblue" stroke="midnightblue" points="434.158,-29.8231 430.919,-19.7354 427.16,-29.6409 434.158,-29.8231"/>
</g>
<!-- Node18 -->
<g id="node18" class="node"><title>Node18</title>
<polygon fill="none" stroke="#bfbfbf" points="681,-123.5 681,-142.5 806,-142.5 806,-123.5 681,-123.5"/>
<text text-anchor="middle" x="743.5" y="-130.5" font-family="Helvetica,sans-Serif" font-size="10.00">Framework/InitContext.h</text>
</g>
<!-- Node13&#45;&gt;Node18 -->
<g id="edge17" class="edge"><title>Node13&#45;&gt;Node18</title>
<path fill="none" stroke="midnightblue" d="M743.5,-179.083C743.5,-172.006 743.5,-161.861 743.5,-152.986"/>
<polygon fill="midnightblue" stroke="midnightblue" points="747,-152.751 743.5,-142.751 740,-152.751 747,-152.751"/>
</g>
<!-- Node19 -->
<g id="node19" class="node"><title>Node19</title>
<g id="a_node19"><a xlink:href="Activity_8h.html" target="_top" xlink:title="QualityControl/Activity.h">
<polygon fill="none" stroke="black" points="824,-123.5 824,-142.5 947,-142.5 947,-123.5 824,-123.5"/>
<text text-anchor="middle" x="885.5" y="-130.5" font-family="Helvetica,sans-Serif" font-size="10.00">QualityControl/Activity.h</text>
</a>
</g>
</g>
<!-- Node13&#45;&gt;Node19 -->
<g id="edge19" class="edge"><title>Node13&#45;&gt;Node19</title>
<path fill="none" stroke="midnightblue" d="M766,-179.444C789.577,-170.478 826.822,-156.314 853.464,-146.183"/>
<polygon fill="midnightblue" stroke="midnightblue" points="855.002,-149.342 863.105,-142.516 852.514,-142.8 855.002,-149.342"/>
</g>
<!-- Node20 -->
<g id="node20" class="node"><title>Node20</title>
<g id="a_node20"><a xlink:href="ObjectsManager_8h.html" target="_top" xlink:title="QualityControl/ObjectsManager.h">
<polygon fill="none" stroke="black" points="502,-123.5 502,-142.5 663,-142.5 663,-123.5 502,-123.5"/>
<text text-anchor="middle" x="582.5" y="-130.5" font-family="Helvetica,sans-Serif" font-size="10.00">QualityControl/ObjectsManager.h</text>
</a>
</g>
</g>
<!-- Node13&#45;&gt;Node20 -->
<g id="edge20" class="edge"><title>Node13&#45;&gt;Node20</title>
<path fill="none" stroke="midnightblue" d="M717.989,-179.444C690.904,-170.359 647.91,-155.939 617.631,-145.783"/>
<polygon fill="midnightblue" stroke="midnightblue" points="618.486,-142.378 607.892,-142.516 616.26,-149.015 618.486,-142.378"/>
</g>
<!-- Node20&#45;&gt;Node15 -->
<g id="edge34" class="edge"><title>Node20&#45;&gt;Node15</title>
<path fill="none" stroke="midnightblue" d="M566.883,-123.475C548.914,-113.666 519.179,-97.4346 498.094,-85.925"/>
<polygon fill="midnightblue" stroke="midnightblue" points="499.542,-82.7284 489.088,-81.0091 496.189,-88.8726 499.542,-82.7284"/>
</g>
<!-- Node20&#45;&gt;Node16 -->
<g id="edge33" class="edge"><title>Node20&#45;&gt;Node16</title>
<path fill="none" stroke="midnightblue" d="M649.947,-123.46C718.209,-114.221 815.516,-99.1777 828.5,-87 844.124,-72.346 847.715,-46.9563 848.165,-29.5875"/>
<polygon fill="midnightblue" stroke="midnightblue" points="851.665,-29.5035 848.102,-19.5255 844.665,-29.5472 851.665,-29.5035"/>
</g>
<!-- Node21 -->
<g id="node21" class="node"><title>Node21</title>
<g id="a_node21"><a xlink:href="MonitorObject_8h.html" target="_top" xlink:title="QualityControl/MonitorObject.h">
<polygon fill="none" stroke="black" points="1004,-62 1004,-81 1155,-81 1155,-62 1004,-62"/>
<text text-anchor="middle" x="1079.5" y="-69" font-family="Helvetica,sans-Serif" font-size="10.00">QualityControl/MonitorObject.h</text>
</a>
</g>
</g>
<!-- Node20&#45;&gt;Node21 -->
<g id="edge21" class="edge"><title>Node20&#45;&gt;Node21</title>
<path fill="none" stroke="midnightblue" d="M653.708,-123.475C744.866,-112.562 902.44,-93.6974 998.208,-82.2322"/>
<polygon fill="midnightblue" stroke="midnightblue" points="998.911,-85.6731 1008.42,-81.0091 998.079,-78.7227 998.911,-85.6731"/>
</g>
<!-- Node25 -->
<g id="node25" class="node"><title>Node25</title>
<g id="a_node25"><a xlink:href="MonitorObjectCollection_8h.html" target="_top" xlink:title="QualityControl/MonitorObject\lCollection.h">
<polygon fill="none" stroke="black" points="518,-56.5 518,-86.5 661,-86.5 661,-56.5 518,-56.5"/>
<text text-anchor="start" x="526" y="-74.5" font-family="Helvetica,sans-Serif" font-size="10.00">QualityControl/MonitorObject</text>
<text text-anchor="middle" x="589.5" y="-63.5" font-family="Helvetica,sans-Serif" font-size="10.00">Collection.h</text>
</a>
</g>
</g>
<!-- Node20&#45;&gt;Node25 -->
<g id="edge27" class="edge"><title>Node20&#45;&gt;Node25</title>
<path fill="none" stroke="midnightblue" d="M583.503,-123.475C584.327,-116.471 585.536,-106.192 586.653,-96.6956"/>
<polygon fill="midnightblue" stroke="midnightblue" points="590.158,-96.8635 587.85,-86.523 583.206,-96.0455 590.158,-96.8635"/>
</g>
<!-- Node28 -->
<g id="node28" class="node"><title>Node28</title>
<g id="a_node28"><a xlink:href="TaskConfig_8h.html" target="_top" xlink:title="QualityControl/TaskConfig.h">
<polygon fill="none" stroke="black" points="679.5,-62 679.5,-81 819.5,-81 819.5,-62 679.5,-62"/>
<text text-anchor="middle" x="749.5" y="-69" font-family="Helvetica,sans-Serif" font-size="10.00">QualityControl/TaskConfig.h</text>
</a>
</g>
</g>
<!-- Node20&#45;&gt;Node28 -->
<g id="edge30" class="edge"><title>Node20&#45;&gt;Node28</title>
<path fill="none" stroke="midnightblue" d="M606.427,-123.475C635.197,-113.225 683.656,-95.9593 716.102,-84.3994"/>
<polygon fill="midnightblue" stroke="midnightblue" points="717.372,-87.6624 725.617,-81.0091 715.023,-81.0684 717.372,-87.6624"/>
</g>
<!-- Node21&#45;&gt;Node14 -->
<g id="edge23" class="edge"><title>Node21&#45;&gt;Node14</title>
<path fill="none" stroke="midnightblue" d="M1095.26,-61.9751C1113.48,-52.1222 1143.67,-35.7883 1164.97,-24.2697"/>
<polygon fill="midnightblue" stroke="midnightblue" points="1166.64,-27.3453 1173.77,-19.5091 1163.31,-21.1883 1166.64,-27.3453"/>
</g>
<!-- Node21&#45;&gt;Node16 -->
<g id="edge22" class="edge"><title>Node21&#45;&gt;Node16</title>
<path fill="none" stroke="midnightblue" d="M1043.24,-61.973C1004.69,-52.7874 941.717,-37.446 877.945,-20.0226"/>
<polygon fill="midnightblue" stroke="midnightblue" points="878.69,-16.5979 868.12,-17.3234 876.836,-23.3477 878.69,-16.5979"/>
</g>
<!-- Node22 -->
<g id="node22" class="node"><title>Node22</title>
<polygon fill="none" stroke="#bfbfbf" points="1097.5,-0.5 1097.5,-19.5 1153.5,-19.5 1153.5,-0.5 1097.5,-0.5"/>
<text text-anchor="middle" x="1125.5" y="-7.5" font-family="Helvetica,sans-Serif" font-size="10.00">Rtypes.h</text>
</g>
<!-- Node21&#45;&gt;Node22 -->
<g id="edge24" class="edge"><title>Node21&#45;&gt;Node22</title>
<path fill="none" stroke="midnightblue" d="M1086.09,-61.9751C1092.99,-53.0501 1104,-38.8071 1112.63,-27.6425"/>
<polygon fill="midnightblue" stroke="midnightblue" points="1115.57,-29.5612 1118.92,-19.5091 1110.04,-25.2798 1115.57,-29.5612"/>
</g>
<!-- Node23 -->
<g id="node23" class="node"><title>Node23</title>
<polygon fill="none" stroke="#bfbfbf" points="886,-0.5 886,-19.5 945,-19.5 945,-0.5 886,-0.5"/>
<text text-anchor="middle" x="915.5" y="-7.5" font-family="Helvetica,sans-Serif" font-size="10.00">TObject.h</text>
</g>
<!-- Node21&#45;&gt;Node23 -->
<g id="edge25" class="edge"><title>Node21&#45;&gt;Node23</title>
<path fill="none" stroke="midnightblue" d="M1056,-61.9751C1027.87,-51.7687 980.571,-34.608 948.711,-23.0492"/>
<polygon fill="midnightblue" stroke="midnightblue" points="949.548,-19.6295 938.954,-19.5091 947.16,-26.2098 949.548,-19.6295"/>
</g>
<!-- Node24 -->
<g id="node24" class="node"><title>Node24</title>
<polygon fill="none" stroke="#bfbfbf" points="963.5,-0.5 963.5,-19.5 1079.5,-19.5 1079.5,-0.5 963.5,-0.5"/>
<text text-anchor="middle" x="1021.5" y="-7.5" font-family="Helvetica,sans-Serif" font-size="10.00">Common/Exceptions.h</text>
</g>
<!-- Node21&#45;&gt;Node24 -->
<g id="edge26" class="edge"><title>Node21&#45;&gt;Node24</title>
<path fill="none" stroke="midnightblue" d="M1071.19,-61.9751C1062.32,-52.8733 1048.05,-38.241 1037.08,-26.983"/>
<polygon fill="midnightblue" stroke="midnightblue" points="1039.28,-24.2268 1029.79,-19.5091 1034.27,-29.113 1039.28,-24.2268"/>
</g>
<!-- Node26 -->
<g id="node26" class="node"><title>Node26</title>
<polygon fill="none" stroke="#bfbfbf" points="649,-0.5 649,-19.5 718,-19.5 718,-0.5 649,-0.5"/>
<text text-anchor="middle" x="683.5" y="-7.5" font-family="Helvetica,sans-Serif" font-size="10.00">TObjArray.h</text>
</g>
<!-- Node25&#45;&gt;Node26 -->
<g id="edge28" class="edge"><title>Node25&#45;&gt;Node26</title>
<path fill="none" stroke="midnightblue" d="M611.777,-56.3993C626.703,-46.9511 646.281,-34.5589 661.21,-25.1089"/>
<polygon fill="midnightblue" stroke="midnightblue" points="663.245,-27.9636 669.822,-19.6578 659.501,-22.0489 663.245,-27.9636"/>
</g>
<!-- Node27 -->
<g id="node27" class="node"><title>Node27</title>
<polygon fill="none" stroke="#bfbfbf" points="502.5,-0.5 502.5,-19.5 630.5,-19.5 630.5,-0.5 502.5,-0.5"/>
<text text-anchor="middle" x="566.5" y="-7.5" font-family="Helvetica,sans-Serif" font-size="10.00">Mergers/MergeInterface.h</text>
</g>
<!-- Node25&#45;&gt;Node27 -->
<g id="edge29" class="edge"><title>Node25&#45;&gt;Node27</title>
<path fill="none" stroke="midnightblue" d="M584.049,-56.3993C580.879,-48.1989 576.852,-37.7809 573.456,-28.9936"/>
<polygon fill="midnightblue" stroke="midnightblue" points="576.717,-27.7232 569.847,-19.6578 570.188,-30.2471 576.717,-27.7232"/>
</g>
<!-- Node28&#45;&gt;Node16 -->
<g id="edge31" class="edge"><title>Node28&#45;&gt;Node16</title>
<path fill="none" stroke="midnightblue" d="M763.541,-61.9751C779.551,-52.2548 805.95,-36.2266 824.874,-24.7372"/>
<polygon fill="midnightblue" stroke="midnightblue" points="826.754,-27.6907 833.485,-19.5091 823.121,-21.7072 826.754,-27.6907"/>
</g>
<!-- Node28&#45;&gt;Node17 -->
<g id="edge32" class="edge"><title>Node28&#45;&gt;Node17</title>
<path fill="none" stroke="midnightblue" d="M703.938,-61.9751C645.454,-51.0323 544.245,-32.0954 483.018,-20.6394"/>
<polygon fill="midnightblue" stroke="midnightblue" points="483.652,-17.1973 473.179,-18.7984 482.365,-24.0779 483.652,-17.1973"/>
</g>
</g>
</svg>
