<?xml version="1.0" encoding="UTF-8" standalone="no"?>
<!DOCTYPE svg PUBLIC "-//W3C//DTD SVG 1.1//EN"
 "http://www.w3.org/Graphics/SVG/1.1/DTD/svg11.dtd">
<!-- Generated by graphviz version 2.38.0 (20140413.2041)
 -->
<!-- Title: Framework/include/QualityControl/PostProcessingConfig.h Pages: 1 -->
<!--zoomable 240 -->
<svg id="main" version="1.1" xmlns="http://www.w3.org/2000/svg" xmlns:xlink="http://www.w3.org/1999/xlink" xml:space="preserve" onload="init(evt)">
<style type="text/css"><![CDATA[
.edge:hover path { stroke: red; }
.edge:hover polygon { stroke: red; fill: red; }
]]></style>
<script type="text/javascript"><![CDATA[
var edges = document.getElementsByTagName('g');
if (edges && edges.length) {
  for (var i=0;i<edges.length;i++) {
    if (edges[i].id.substr(0,4)=='edge') {
      edges[i].setAttribute('class','edge');
    }
  }
}
]]></script>
        <defs>
                <circle id="rim" cx="0" cy="0" r="7"/>
                <circle id="rim2" cx="0" cy="0" r="3.5"/>
                <g id="zoomPlus">
                        <use xlink:href="#rim" fill="#404040">
                                <set attributeName="fill" to="#808080" begin="zoomplus.mouseover" end="zoomplus.mouseout"/>
                        </use>
                        <path d="M-4,0h8M0,-4v8" fill="none" stroke="white" stroke-width="1.5" pointer-events="none"/>
                </g>
                <g id="zoomMin">
                        <use xlink:href="#rim" fill="#404040">
                                <set attributeName="fill" to="#808080" begin="zoomminus.mouseover" end="zoomminus.mouseout"/>
                        </use>
                        <path d="M-4,0h8" fill="none" stroke="white" stroke-width="1.5" pointer-events="none"/>
                </g>
                <g id="dirArrow">
                        <path fill="none" stroke="white" stroke-width="1.5" d="M0,-3.0v7 M-2.5,-0.5L0,-3.0L2.5,-0.5"/>
                </g>
               <g id="resetDef">
                       <use xlink:href="#rim2" fill="#404040">
                               <set attributeName="fill" to="#808080" begin="reset.mouseover" end="reset.mouseout"/>
                       </use>
               </g>
        </defs>

<script type="text/javascript">
var viewWidth = 2223;
var viewHeight = 240;
var sectionId = 'dynsection-1';
</script>
<script xlink:href="svgpan.js"/>
<svg id="graph" class="graph">
<g id="viewport">
<title>Framework/include/QualityControl/PostProcessingConfig.h</title>
<!-- Node1 -->
<g id="node1" class="node"><title>Node1</title>
<polygon fill="#bfbfbf" stroke="black" points="1339,-201.5 1339,-231.5 1496,-231.5 1496,-201.5 1339,-201.5"/>
<text text-anchor="start" x="1347" y="-219.5" font-family="Helvetica,sans-Serif" font-size="10.00">Framework/include/Quality</text>
<text text-anchor="middle" x="1417.5" y="-208.5" font-family="Helvetica,sans-Serif" font-size="10.00">Control/PostProcessingConfig.h</text>
</g>
<!-- Node2 -->
<g id="node2" class="node"><title>Node2</title>
<g id="a_node2"><a xlink:href="PostProcessingFactory_8h.html" target="_top" xlink:title="Framework/include/Quality\lControl/PostProcessingFactory.h">
<polygon fill="none" stroke="black" points="386,-134.5 386,-164.5 547,-164.5 547,-134.5 386,-134.5"/>
<text text-anchor="start" x="394" y="-152.5" font-family="Helvetica,sans-Serif" font-size="10.00">Framework/include/Quality</text>
<text text-anchor="middle" x="466.5" y="-141.5" font-family="Helvetica,sans-Serif" font-size="10.00">Control/PostProcessingFactory.h</text>
</a>
</g>
</g>
<!-- Node1&#45;&gt;Node2 -->
<g id="edge1" class="edge"><title>Node1&#45;&gt;Node2</title>
<path fill="none" stroke="midnightblue" d="M1328.69,-209.43C1144.65,-196.851 724.114,-168.108 547.24,-156.018"/>
<polygon fill="midnightblue" stroke="midnightblue" points="1328.65,-212.935 1338.87,-210.125 1329.13,-205.952 1328.65,-212.935"/>
</g>
<!-- Node6 -->
<g id="node6" class="node"><title>Node6</title>
<g id="a_node6"><a xlink:href="PostProcessingRunner_8h.html" target="_top" xlink:title="Framework/include/Quality\lControl/PostProcessingRunner.h">
<polygon fill="none" stroke="black" points="762.5,-134.5 762.5,-164.5 922.5,-164.5 922.5,-134.5 762.5,-134.5"/>
<text text-anchor="start" x="770.5" y="-152.5" font-family="Helvetica,sans-Serif" font-size="10.00">Framework/include/Quality</text>
<text text-anchor="middle" x="842.5" y="-141.5" font-family="Helvetica,sans-Serif" font-size="10.00">Control/PostProcessingRunner.h</text>
</a>
</g>
</g>
<!-- Node1&#45;&gt;Node6 -->
<g id="edge5" class="edge"><title>Node1&#45;&gt;Node6</title>
<path fill="none" stroke="midnightblue" d="M1328.59,-205.449C1217.58,-192.9 1029.33,-171.62 922.604,-159.555"/>
<polygon fill="midnightblue" stroke="midnightblue" points="1328.42,-208.953 1338.75,-206.598 1329.21,-201.997 1328.42,-208.953"/>
</g>
<!-- Node10 -->
<g id="node10" class="node"><title>Node10</title>
<g id="a_node10"><a xlink:href="TrendingTaskConfig_8h.html" target="_top" xlink:title="Framework/include/Quality\lControl/TrendingTaskConfig.h">
<polygon fill="none" stroke="black" points="1395,-134.5 1395,-164.5 1542,-164.5 1542,-134.5 1395,-134.5"/>
<text text-anchor="start" x="1403" y="-152.5" font-family="Helvetica,sans-Serif" font-size="10.00">Framework/include/Quality</text>
<text text-anchor="middle" x="1468.5" y="-141.5" font-family="Helvetica,sans-Serif" font-size="10.00">Control/TrendingTaskConfig.h</text>
</a>
</g>
</g>
<!-- Node1&#45;&gt;Node10 -->
<g id="edge10" class="edge"><title>Node1&#45;&gt;Node10</title>
<path fill="none" stroke="midnightblue" d="M1434.8,-193.447C1442.29,-183.899 1450.84,-173.004 1457.46,-164.577"/>
<polygon fill="midnightblue" stroke="midnightblue" points="1431.99,-191.368 1428.57,-201.396 1437.49,-195.689 1431.99,-191.368"/>
</g>
<!-- Node15 -->
<g id="node15" class="node"><title>Node15</title>
<g id="a_node15"><a xlink:href="TriggerHelpers_8h.html" target="_top" xlink:title="Framework/include/Quality\lControl/TriggerHelpers.h">
<polygon fill="none" stroke="black" points="1169,-134.5 1169,-164.5 1302,-164.5 1302,-134.5 1169,-134.5"/>
<text text-anchor="start" x="1177" y="-152.5" font-family="Helvetica,sans-Serif" font-size="10.00">Framework/include/Quality</text>
<text text-anchor="middle" x="1235.5" y="-141.5" font-family="Helvetica,sans-Serif" font-size="10.00">Control/TriggerHelpers.h</text>
</a>
</g>
</g>
<!-- Node1&#45;&gt;Node15 -->
<g id="edge15" class="edge"><title>Node1&#45;&gt;Node15</title>
<path fill="none" stroke="midnightblue" d="M1368.37,-197.955C1339.06,-187.485 1302.32,-174.366 1274.91,-164.577"/>
<polygon fill="midnightblue" stroke="midnightblue" points="1367.41,-201.329 1378.01,-201.396 1369.77,-194.736 1367.41,-201.329"/>
</g>
<!-- Node17 -->
<g id="node17" class="node"><title>Node17</title>
<g id="a_node17"><a xlink:href="testTriggerHelpers_8cxx.html" target="_top" xlink:title="Framework/test/testTrigger\lHelpers.cxx">
<polygon fill="none" stroke="black" points="1302.5,-67.5 1302.5,-97.5 1436.5,-97.5 1436.5,-67.5 1302.5,-67.5"/>
<text text-anchor="start" x="1310.5" y="-85.5" font-family="Helvetica,sans-Serif" font-size="10.00">Framework/test/testTrigger</text>
<text text-anchor="middle" x="1369.5" y="-74.5" font-family="Helvetica,sans-Serif" font-size="10.00">Helpers.cxx</text>
</a>
</g>
</g>
<!-- Node1&#45;&gt;Node17 -->
<g id="edge21" class="edge"><title>Node1&#45;&gt;Node17</title>
<path fill="none" stroke="midnightblue" d="M1401.21,-192.716C1395.84,-184.333 1390.29,-174.549 1386.5,-165 1377.54,-142.433 1373.02,-114.386 1370.97,-97.7703"/>
<polygon fill="midnightblue" stroke="midnightblue" points="1398.39,-194.809 1406.86,-201.185 1404.22,-190.924 1398.39,-194.809"/>
</g>
<!-- Node18 -->
<g id="node18" class="node"><title>Node18</title>
<g id="a_node18"><a xlink:href="PostProcessingConfig_8cxx.html" target="_top" xlink:title="Framework/src/PostProcessing\lConfig.cxx">
<polygon fill="none" stroke="black" points="1560.5,-134.5 1560.5,-164.5 1714.5,-164.5 1714.5,-134.5 1560.5,-134.5"/>
<text text-anchor="start" x="1568.5" y="-152.5" font-family="Helvetica,sans-Serif" font-size="10.00">Framework/src/PostProcessing</text>
<text text-anchor="middle" x="1637.5" y="-141.5" font-family="Helvetica,sans-Serif" font-size="10.00">Config.cxx</text>
</a>
</g>
</g>
<!-- Node1&#45;&gt;Node18 -->
<g id="edge19" class="edge"><title>Node1&#45;&gt;Node18</title>
<path fill="none" stroke="midnightblue" d="M1474.77,-198.58C1510.5,-188.022 1555.96,-174.592 1589.74,-164.611"/>
<polygon fill="midnightblue" stroke="midnightblue" points="1473.56,-195.286 1464.97,-201.476 1475.55,-201.999 1473.56,-195.286"/>
</g>
<!-- Node19 -->
<g id="node19" class="node"><title>Node19</title>
<g id="a_node19"><a xlink:href="testPostProcessingConfig_8cxx.html" target="_top" xlink:title="Framework/test/testPostProcessing\lConfig.cxx">
<polygon fill="none" stroke="black" points="1733,-134.5 1733,-164.5 1906,-164.5 1906,-134.5 1733,-134.5"/>
<text text-anchor="start" x="1741" y="-152.5" font-family="Helvetica,sans-Serif" font-size="10.00">Framework/test/testPostProcessing</text>
<text text-anchor="middle" x="1819.5" y="-141.5" font-family="Helvetica,sans-Serif" font-size="10.00">Config.cxx</text>
</a>
</g>
</g>
<!-- Node1&#45;&gt;Node19 -->
<g id="edge20" class="edge"><title>Node1&#45;&gt;Node19</title>
<path fill="none" stroke="midnightblue" d="M1506.62,-201.091C1573.98,-190.199 1665.94,-175.329 1732.72,-164.531"/>
<polygon fill="midnightblue" stroke="midnightblue" points="1505.76,-197.684 1496.44,-202.736 1506.87,-204.595 1505.76,-197.684"/>
</g>
<!-- Node20 -->
<g id="node20" class="node"><title>Node20</title>
<g id="a_node20"><a xlink:href="TrendingTaskConfigITS_8h_source.html" target="_top" xlink:title="Modules/ITS/include\l/ITS/TrendingTaskConfigITS.h">
<polygon fill="none" stroke="black" points="1924.5,-134.5 1924.5,-164.5 2074.5,-164.5 2074.5,-134.5 1924.5,-134.5"/>
<text text-anchor="start" x="1932.5" y="-152.5" font-family="Helvetica,sans-Serif" font-size="10.00">Modules/ITS/include</text>
<text text-anchor="middle" x="1999.5" y="-141.5" font-family="Helvetica,sans-Serif" font-size="10.00">/ITS/TrendingTaskConfigITS.h</text>
</a>
</g>
</g>
<!-- Node1&#45;&gt;Node20 -->
<g id="edge22" class="edge"><title>Node1&#45;&gt;Node20</title>
<path fill="none" stroke="midnightblue" d="M1506.23,-208.386C1606,-199.949 1772.74,-184.535 1915.5,-165 1918.43,-164.599 1921.42,-164.172 1924.43,-163.725"/>
<polygon fill="midnightblue" stroke="midnightblue" points="1505.86,-204.905 1496.19,-209.231 1506.45,-211.88 1505.86,-204.905"/>
</g>
<!-- Node3 -->
<g id="node3" class="node"><title>Node3</title>
<g id="a_node3"><a xlink:href="PostProcessingFactory_8cxx.html" target="_top" xlink:title="Framework/src/PostProcessing\lFactory.cxx">
<polygon fill="none" stroke="black" points="191.5,-67.5 191.5,-97.5 345.5,-97.5 345.5,-67.5 191.5,-67.5"/>
<text text-anchor="start" x="199.5" y="-85.5" font-family="Helvetica,sans-Serif" font-size="10.00">Framework/src/PostProcessing</text>
<text text-anchor="middle" x="268.5" y="-74.5" font-family="Helvetica,sans-Serif" font-size="10.00">Factory.cxx</text>
</a>
</g>
</g>
<!-- Node2&#45;&gt;Node3 -->
<g id="edge2" class="edge"><title>Node2&#45;&gt;Node3</title>
<path fill="none" stroke="midnightblue" d="M413.886,-131.228C381.857,-120.713 341.458,-107.451 311.379,-97.5765"/>
<polygon fill="midnightblue" stroke="midnightblue" points="412.944,-134.602 423.537,-134.396 415.128,-127.951 412.944,-134.602"/>
</g>
<!-- Node4 -->
<g id="node4" class="node"><title>Node4</title>
<polygon fill="none" stroke="#bfbfbf" points="944.5,-67.5 944.5,-97.5 1098.5,-97.5 1098.5,-67.5 944.5,-67.5"/>
<text text-anchor="start" x="952.5" y="-85.5" font-family="Helvetica,sans-Serif" font-size="10.00">Framework/src/PostProcessing</text>
<text text-anchor="middle" x="1021.5" y="-74.5" font-family="Helvetica,sans-Serif" font-size="10.00">Runner.cxx</text>
</g>
<!-- Node2&#45;&gt;Node4 -->
<g id="edge3" class="edge"><title>Node2&#45;&gt;Node4</title>
<path fill="none" stroke="midnightblue" d="M557.087,-140.287C651.499,-131.361 803.654,-115.948 934.5,-98 937.686,-97.563 940.934,-97.1001 944.214,-96.6186"/>
<polygon fill="midnightblue" stroke="midnightblue" points="556.628,-136.814 547,-141.236 557.284,-143.784 556.628,-136.814"/>
</g>
<!-- Node5 -->
<g id="node5" class="node"><title>Node5</title>
<g id="a_node5"><a xlink:href="testPostProcessingInterface_8cxx.html" target="_top" xlink:title="Framework/test/testPostProcessing\lInterface.cxx">
<polygon fill="none" stroke="black" points="0,-67.5 0,-97.5 173,-97.5 173,-67.5 0,-67.5"/>
<text text-anchor="start" x="8" y="-85.5" font-family="Helvetica,sans-Serif" font-size="10.00">Framework/test/testPostProcessing</text>
<text text-anchor="middle" x="86.5" y="-74.5" font-family="Helvetica,sans-Serif" font-size="10.00">Interface.cxx</text>
</a>
</g>
</g>
<!-- Node2&#45;&gt;Node5 -->
<g id="edge4" class="edge"><title>Node2&#45;&gt;Node5</title>
<path fill="none" stroke="midnightblue" d="M375.983,-133.017C312.992,-122.242 229.68,-107.991 168.611,-97.5452"/>
<polygon fill="midnightblue" stroke="midnightblue" points="375.465,-136.479 385.912,-134.715 376.645,-129.579 375.465,-136.479"/>
</g>
<!-- Node6&#45;&gt;Node4 -->
<g id="edge6" class="edge"><title>Node6&#45;&gt;Node4</title>
<path fill="none" stroke="midnightblue" d="M890.816,-130.955C919.65,-120.485 955.778,-107.366 982.735,-97.5765"/>
<polygon fill="midnightblue" stroke="midnightblue" points="889.545,-127.693 881.34,-134.396 891.934,-134.273 889.545,-127.693"/>
</g>
<!-- Node7 -->
<g id="node7" class="node"><title>Node7</title>
<g id="a_node7"><a xlink:href="runPostProcessing_8cxx.html" target="_top" xlink:title="This is a standalone executable to run postprocessing. ">
<polygon fill="none" stroke="black" points="555.5,-73 555.5,-92 741.5,-92 741.5,-73 555.5,-73"/>
<text text-anchor="middle" x="648.5" y="-80" font-family="Helvetica,sans-Serif" font-size="10.00">Framework/src/runPostProcessing.cxx</text>
</a>
</g>
</g>
<!-- Node6&#45;&gt;Node7 -->
<g id="edge7" class="edge"><title>Node6&#45;&gt;Node7</title>
<path fill="none" stroke="midnightblue" d="M790.59,-131.108C752.849,-118.462 703.394,-101.892 673.89,-92.007"/>
<polygon fill="midnightblue" stroke="midnightblue" points="789.811,-134.538 800.405,-134.396 792.035,-127.9 789.811,-134.538"/>
</g>
<!-- Node8 -->
<g id="node8" class="node"><title>Node8</title>
<g id="a_node8"><a xlink:href="runPostProcessingOCC_8cxx.html" target="_top" xlink:title="This is an OCC executable to run postprocessing. ">
<polygon fill="none" stroke="black" points="759,-67.5 759,-97.5 926,-97.5 926,-67.5 759,-67.5"/>
<text text-anchor="start" x="767" y="-85.5" font-family="Helvetica,sans-Serif" font-size="10.00">Framework/src/runPostProcessing</text>
<text text-anchor="middle" x="842.5" y="-74.5" font-family="Helvetica,sans-Serif" font-size="10.00">OCC.cxx</text>
</a>
</g>
</g>
<!-- Node6&#45;&gt;Node8 -->
<g id="edge8" class="edge"><title>Node6&#45;&gt;Node8</title>
<path fill="none" stroke="midnightblue" d="M842.5,-124.108C842.5,-115.154 842.5,-105.323 842.5,-97.5765"/>
<polygon fill="midnightblue" stroke="midnightblue" points="839,-124.396 842.5,-134.396 846,-124.396 839,-124.396"/>
</g>
<!-- Node9 -->
<g id="node9" class="node"><title>Node9</title>
<g id="a_node9"><a xlink:href="testPostProcessingRunner_8cxx.html" target="_top" xlink:title="Framework/test/testPostProcessing\lRunner.cxx">
<polygon fill="none" stroke="black" points="364,-67.5 364,-97.5 537,-97.5 537,-67.5 364,-67.5"/>
<text text-anchor="start" x="372" y="-85.5" font-family="Helvetica,sans-Serif" font-size="10.00">Framework/test/testPostProcessing</text>
<text text-anchor="middle" x="450.5" y="-74.5" font-family="Helvetica,sans-Serif" font-size="10.00">Runner.cxx</text>
</a>
</g>
</g>
<!-- Node6&#45;&gt;Node9 -->
<g id="edge9" class="edge"><title>Node6&#45;&gt;Node9</title>
<path fill="none" stroke="midnightblue" d="M752.341,-133.55C686.957,-122.708 599.125,-108.144 535.071,-97.5232"/>
<polygon fill="midnightblue" stroke="midnightblue" points="751.789,-137.006 762.227,-135.189 752.934,-130.101 751.789,-137.006"/>
</g>
<!-- Node11 -->
<g id="node11" class="node"><title>Node11</title>
<g id="a_node11"><a xlink:href="TrendingTask_8h.html" target="_top" xlink:title="Framework/include/Quality\lControl/TrendingTask.h">
<polygon fill="none" stroke="black" points="1617,-67.5 1617,-97.5 1750,-97.5 1750,-67.5 1617,-67.5"/>
<text text-anchor="start" x="1625" y="-85.5" font-family="Helvetica,sans-Serif" font-size="10.00">Framework/include/Quality</text>
<text text-anchor="middle" x="1683.5" y="-74.5" font-family="Helvetica,sans-Serif" font-size="10.00">Control/TrendingTask.h</text>
</a>
</g>
</g>
<!-- Node10&#45;&gt;Node11 -->
<g id="edge11" class="edge"><title>Node10&#45;&gt;Node11</title>
<path fill="none" stroke="midnightblue" d="M1524.47,-131.58C1559.39,-121.022 1603.81,-107.592 1636.83,-97.6109"/>
<polygon fill="midnightblue" stroke="midnightblue" points="1523.45,-128.232 1514.89,-134.476 1525.47,-134.932 1523.45,-128.232"/>
</g>
<!-- Node14 -->
<g id="node14" class="node"><title>Node14</title>
<g id="a_node14"><a xlink:href="TrendingTaskConfig_8cxx.html" target="_top" xlink:title="Framework/src/TrendingTask\lConfig.cxx">
<polygon fill="none" stroke="black" points="1454.5,-67.5 1454.5,-97.5 1598.5,-97.5 1598.5,-67.5 1454.5,-67.5"/>
<text text-anchor="start" x="1462.5" y="-85.5" font-family="Helvetica,sans-Serif" font-size="10.00">Framework/src/TrendingTask</text>
<text text-anchor="middle" x="1526.5" y="-74.5" font-family="Helvetica,sans-Serif" font-size="10.00">Config.cxx</text>
</a>
</g>
</g>
<!-- Node10&#45;&gt;Node14 -->
<g id="edge14" class="edge"><title>Node10&#45;&gt;Node14</title>
<path fill="none" stroke="midnightblue" d="M1487.92,-126.736C1496.5,-117.119 1506.34,-106.089 1513.94,-97.5765"/>
<polygon fill="midnightblue" stroke="midnightblue" points="1485.13,-124.604 1481.09,-134.396 1490.35,-129.265 1485.13,-124.604"/>
</g>
<!-- Node12 -->
<g id="node12" class="node"><title>Node12</title>
<g id="a_node12"><a xlink:href="TrendingTask_8cxx.html" target="_top" xlink:title="Framework/src/TrendingTask.cxx">
<polygon fill="none" stroke="black" points="1434,-6 1434,-25 1597,-25 1597,-6 1434,-6"/>
<text text-anchor="middle" x="1515.5" y="-13" font-family="Helvetica,sans-Serif" font-size="10.00">Framework/src/TrendingTask.cxx</text>
</a>
</g>
</g>
<!-- Node11&#45;&gt;Node12 -->
<g id="edge12" class="edge"><title>Node11&#45;&gt;Node12</title>
<path fill="none" stroke="midnightblue" d="M1637.71,-63.7838C1605.14,-51.1807 1562.82,-34.8082 1537.49,-25.007"/>
<polygon fill="midnightblue" stroke="midnightblue" points="1636.46,-67.0517 1647.05,-67.396 1638.98,-60.5233 1636.46,-67.0517"/>
</g>
<!-- Node13 -->
<g id="node13" class="node"><title>Node13</title>
<g id="a_node13"><a xlink:href="testTrendingTask_8cxx.html" target="_top" xlink:title="Framework/test/testTrending\lTask.cxx">
<polygon fill="none" stroke="black" points="1615.5,-0.5 1615.5,-30.5 1757.5,-30.5 1757.5,-0.5 1615.5,-0.5"/>
<text text-anchor="start" x="1623.5" y="-18.5" font-family="Helvetica,sans-Serif" font-size="10.00">Framework/test/testTrending</text>
<text text-anchor="middle" x="1686.5" y="-7.5" font-family="Helvetica,sans-Serif" font-size="10.00">Task.cxx</text>
</a>
</g>
</g>
<!-- Node11&#45;&gt;Node13 -->
<g id="edge13" class="edge"><title>Node11&#45;&gt;Node13</title>
<path fill="none" stroke="midnightblue" d="M1684.61,-57.4029C1685.03,-48.3703 1685.49,-38.4078 1685.85,-30.5765"/>
<polygon fill="midnightblue" stroke="midnightblue" points="1681.12,-57.2452 1684.15,-67.396 1688.11,-57.568 1681.12,-57.2452"/>
</g>
<!-- Node15&#45;&gt;Node4 -->
<g id="edge16" class="edge"><title>Node15&#45;&gt;Node4</title>
<path fill="none" stroke="midnightblue" d="M1179.35,-131.444C1144.66,-120.908 1100.68,-107.549 1067.96,-97.6109"/>
<polygon fill="midnightblue" stroke="midnightblue" points="1178.74,-134.919 1189.33,-134.476 1180.78,-128.221 1178.74,-134.919"/>
</g>
<!-- Node16 -->
<g id="node16" class="node"><title>Node16</title>
<g id="a_node16"><a xlink:href="TriggerHelpers_8cxx.html" target="_top" xlink:title="Framework/src/TriggerHelpers.cxx">
<polygon fill="none" stroke="black" points="1117,-73 1117,-92 1284,-92 1284,-73 1117,-73"/>
<text text-anchor="middle" x="1200.5" y="-80" font-family="Helvetica,sans-Serif" font-size="10.00">Framework/src/TriggerHelpers.cxx</text>
</a>
</g>
</g>
<!-- Node15&#45;&gt;Node16 -->
<g id="edge17" class="edge"><title>Node15&#45;&gt;Node16</title>
<path fill="none" stroke="midnightblue" d="M1223,-125.287C1216.82,-113.803 1209.72,-100.63 1205.18,-92.1945"/>
<polygon fill="midnightblue" stroke="midnightblue" points="1220.08,-127.251 1227.91,-134.396 1226.25,-123.932 1220.08,-127.251"/>
</g>
<!-- Node15&#45;&gt;Node17 -->
<g id="edge18" class="edge"><title>Node15&#45;&gt;Node17</title>
<path fill="none" stroke="midnightblue" d="M1273.65,-129.992C1294.89,-119.689 1320.91,-107.068 1340.48,-97.5765"/>
<polygon fill="midnightblue" stroke="midnightblue" points="1272.05,-126.882 1264.58,-134.396 1275.1,-133.181 1272.05,-126.882"/>
</g>
<!-- Node21 -->
<g id="node21" class="node"><title>Node21</title>
<g id="a_node21"><a xlink:href="TrendingTaskITSFhr_8h.html" target="_top" xlink:title="Modules/ITS/include\l/ITS/TrendingTaskITSFhr.h">
<polygon fill="none" stroke="black" points="1777.5,-67.5 1777.5,-97.5 1913.5,-97.5 1913.5,-67.5 1777.5,-67.5"/>
<text text-anchor="start" x="1785.5" y="-85.5" font-family="Helvetica,sans-Serif" font-size="10.00">Modules/ITS/include</text>
<text text-anchor="middle" x="1845.5" y="-74.5" font-family="Helvetica,sans-Serif" font-size="10.00">/ITS/TrendingTaskITSFhr.h</text>
</a>
</g>
</g>
<!-- Node20&#45;&gt;Node21 -->
<g id="edge23" class="edge"><title>Node20&#45;&gt;Node21</title>
<path fill="none" stroke="midnightblue" d="M1956.63,-130.407C1932.05,-120.029 1901.64,-107.195 1878.85,-97.5765"/>
<polygon fill="midnightblue" stroke="midnightblue" points="1955.51,-133.732 1966.08,-134.396 1958.23,-127.283 1955.51,-133.732"/>
</g>
<!-- Node23 -->
<g id="node23" class="node"><title>Node23</title>
<g id="a_node23"><a xlink:href="TrendingTaskITSThr_8h.html" target="_top" xlink:title="Modules/ITS/include\l/ITS/TrendingTaskITSThr.h">
<polygon fill="none" stroke="black" points="1931.5,-67.5 1931.5,-97.5 2067.5,-97.5 2067.5,-67.5 1931.5,-67.5"/>
<text text-anchor="start" x="1939.5" y="-85.5" font-family="Helvetica,sans-Serif" font-size="10.00">Modules/ITS/include</text>
<text text-anchor="middle" x="1999.5" y="-74.5" font-family="Helvetica,sans-Serif" font-size="10.00">/ITS/TrendingTaskITSThr.h</text>
</a>
</g>
</g>
<!-- Node20&#45;&gt;Node23 -->
<g id="edge25" class="edge"><title>Node20&#45;&gt;Node23</title>
<path fill="none" stroke="midnightblue" d="M1999.5,-124.108C1999.5,-115.154 1999.5,-105.323 1999.5,-97.5765"/>
<polygon fill="midnightblue" stroke="midnightblue" points="1996,-124.396 1999.5,-134.396 2003,-124.396 1996,-124.396"/>
</g>
<!-- Node25 -->
<g id="node25" class="node"><title>Node25</title>
<polygon fill="none" stroke="#bfbfbf" points="2086,-67.5 2086,-97.5 2215,-97.5 2215,-67.5 2086,-67.5"/>
<text text-anchor="start" x="2094" y="-85.5" font-family="Helvetica,sans-Serif" font-size="10.00">Modules/ITS/src/Trending</text>
<text text-anchor="middle" x="2150.5" y="-74.5" font-family="Helvetica,sans-Serif" font-size="10.00">TaskConfigITS.cxx</text>
</g>
<!-- Node20&#45;&gt;Node25 -->
<g id="edge27" class="edge"><title>Node20&#45;&gt;Node25</title>
<path fill="none" stroke="midnightblue" d="M2041.53,-130.407C2065.64,-120.029 2095.45,-107.195 2117.8,-97.5765"/>
<polygon fill="midnightblue" stroke="midnightblue" points="2040.07,-127.227 2032.26,-134.396 2042.83,-133.657 2040.07,-127.227"/>
</g>
<!-- Node22 -->
<g id="node22" class="node"><title>Node22</title>
<g id="a_node22"><a xlink:href="TrendingTaskITSFhr_8cxx.html" target="_top" xlink:title="Modules/ITS/src/Trending\lTaskITSFhr.cxx">
<polygon fill="none" stroke="black" points="1781,-0.5 1781,-30.5 1910,-30.5 1910,-0.5 1781,-0.5"/>
<text text-anchor="start" x="1789" y="-18.5" font-family="Helvetica,sans-Serif" font-size="10.00">Modules/ITS/src/Trending</text>
<text text-anchor="middle" x="1845.5" y="-7.5" font-family="Helvetica,sans-Serif" font-size="10.00">TaskITSFhr.cxx</text>
</a>
</g>
</g>
<!-- Node21&#45;&gt;Node22 -->
<g id="edge24" class="edge"><title>Node21&#45;&gt;Node22</title>
<path fill="none" stroke="midnightblue" d="M1845.5,-57.1081C1845.5,-48.1539 1845.5,-38.3227 1845.5,-30.5765"/>
<polygon fill="midnightblue" stroke="midnightblue" points="1842,-57.3959 1845.5,-67.396 1849,-57.396 1842,-57.3959"/>
</g>
<!-- Node24 -->
<g id="node24" class="node"><title>Node24</title>
<g id="a_node24"><a xlink:href="TrendingTaskITSThr_8cxx.html" target="_top" xlink:title="Modules/ITS/src/Trending\lTaskITSThr.cxx">
<polygon fill="none" stroke="black" points="1935,-0.5 1935,-30.5 2064,-30.5 2064,-0.5 1935,-0.5"/>
<text text-anchor="start" x="1943" y="-18.5" font-family="Helvetica,sans-Serif" font-size="10.00">Modules/ITS/src/Trending</text>
<text text-anchor="middle" x="1999.5" y="-7.5" font-family="Helvetica,sans-Serif" font-size="10.00">TaskITSThr.cxx</text>
</a>
</g>
</g>
<!-- Node23&#45;&gt;Node24 -->
<g id="edge26" class="edge"><title>Node23&#45;&gt;Node24</title>
<path fill="none" stroke="midnightblue" d="M1999.5,-57.1081C1999.5,-48.1539 1999.5,-38.3227 1999.5,-30.5765"/>
<polygon fill="midnightblue" stroke="midnightblue" points="1996,-57.3959 1999.5,-67.396 2003,-57.396 1996,-57.3959"/>
</g>
</g>
</svg>
        <g id="navigator" transform="translate(0 0)" fill="#404254">
                <rect fill="#f2f5e9" fill-opacity="0.5" stroke="#606060" stroke-width=".5" x="0" y="0" width="60" height="60"/>
                <use id="zoomplus" xlink:href="#zoomPlus" x="17" y="9" onmousedown="handleZoom(evt,'in')"/>
                <use id="zoomminus" xlink:href="#zoomMin" x="42" y="9" onmousedown="handleZoom(evt,'out')"/>
                <use id="reset" xlink:href="#resetDef" x="30" y="36" onmousedown="handleReset()"/>
                <g id="arrowUp" xlink:href="#dirArrow" transform="translate(30 24)" onmousedown="handlePan(0,-1)">
                  <use xlink:href="#rim" fill="#404040">
                        <set attributeName="fill" to="#808080" begin="arrowUp.mouseover" end="arrowUp.mouseout"/>
                  </use>
                  <path fill="none" stroke="white" stroke-width="1.5" d="M0,-3.0v7 M-2.5,-0.5L0,-3.0L2.5,-0.5"/>
                </g>
                <g id="arrowRight" xlink:href="#dirArrow" transform="rotate(90) translate(36 -43)" onmousedown="handlePan(1,0)">
                  <use xlink:href="#rim" fill="#404040">
                        <set attributeName="fill" to="#808080" begin="arrowRight.mouseover" end="arrowRight.mouseout"/>
                  </use>
                  <path fill="none" stroke="white" stroke-width="1.5" d="M0,-3.0v7 M-2.5,-0.5L0,-3.0L2.5,-0.5"/>
                </g>
                <g id="arrowDown" xlink:href="#dirArrow" transform="rotate(180) translate(-30 -48)" onmousedown="handlePan(0,1)">
                  <use xlink:href="#rim" fill="#404040">
                        <set attributeName="fill" to="#808080" begin="arrowDown.mouseover" end="arrowDown.mouseout"/>
                  </use>
                  <path fill="none" stroke="white" stroke-width="1.5" d="M0,-3.0v7 M-2.5,-0.5L0,-3.0L2.5,-0.5"/>
                </g>
                <g id="arrowLeft" xlink:href="#dirArrow" transform="rotate(270) translate(-36 17)" onmousedown="handlePan(-1,0)">
                  <use xlink:href="#rim" fill="#404040">
                        <set attributeName="fill" to="#808080" begin="arrowLeft.mouseover" end="arrowLeft.mouseout"/>
                  </use>
                  <path fill="none" stroke="white" stroke-width="1.5" d="M0,-3.0v7 M-2.5,-0.5L0,-3.0L2.5,-0.5"/>
                </g>
        </g>
        <svg viewBox="0 0 15 15" width="100%" height="30px" preserveAspectRatio="xMaxYMin meet">
         <g id="arrow_out" transform="scale(0.3 0.3)">
          <a xlink:href="PostProcessingConfig_8h__dep__incl_org.svg" target="_base">
           <rect id="button" ry="5" rx="5" y="6" x="6" height="38" width="38"
                fill="#f2f5e9" fill-opacity="0.5" stroke="#606060" stroke-width="1.0"/>
           <path id="arrow"
             d="M 11.500037,31.436501 C 11.940474,20.09759 22.043105,11.32322 32.158766,21.979434 L 37.068811,17.246167 C 37.068811,17.246167 37.088388,32 37.088388,32 L 22.160133,31.978069 C 22.160133,31.978069 26.997745,27.140456 26.997745,27.140456 C 18.528582,18.264221 13.291696,25.230495 11.500037,31.436501 z"
             style="fill:#404040;"/>
          </a>
         </g>
        </svg>
</svg>
