<?xml version="1.0" encoding="UTF-8" standalone="no"?>
<!DOCTYPE svg PUBLIC "-//W3C//DTD SVG 1.1//EN"
 "http://www.w3.org/Graphics/SVG/1.1/DTD/svg11.dtd">
<!-- Generated by graphviz version 2.38.0 (20140413.2041)
 -->
<!-- Title: Framework/include/QualityControl/PostProcessingRunner.h Pages: 1 -->
<svg width="1163pt" height="285pt"
 viewBox="0.00 0.00 1163.40 285.00" xmlns="http://www.w3.org/2000/svg" xmlns:xlink="http://www.w3.org/1999/xlink">
<g id="graph0" class="graph" transform="scale(1 1) rotate(0) translate(4 281)">
<title>Framework/include/QualityControl/PostProcessingRunner.h</title>
<!-- Node1 -->
<g id="node1" class="node"><title>Node1</title>
<polygon fill="#bfbfbf" stroke="black" points="304.82,-246.5 304.82,-276.5 464.82,-276.5 464.82,-246.5 304.82,-246.5"/>
<text text-anchor="start" x="312.82" y="-264.5" font-family="Helvetica,sans-Serif" font-size="10.00">Framework/include/Quality</text>
<text text-anchor="middle" x="384.82" y="-253.5" font-family="Helvetica,sans-Serif" font-size="10.00">Control/PostProcessingRunner.h</text>
</g>
<!-- Node2 -->
<g id="node2" class="node"><title>Node2</title>
<polygon fill="none" stroke="#bfbfbf" points="1053.82,-118 1053.82,-137 1105.82,-137 1105.82,-118 1053.82,-118"/>
<text text-anchor="middle" x="1079.82" y="-125" font-family="Helvetica,sans-Serif" font-size="10.00">memory</text>
</g>
<!-- Node1&#45;&gt;Node2 -->
<g id="edge1" class="edge"><title>Node1&#45;&gt;Node2</title>
<path fill="none" stroke="midnightblue" d="M465.074,-253.565C591.122,-241.051 842.041,-209.555 1044.82,-143 1046.95,-142.3 1049.14,-141.529 1051.33,-140.718"/>
<polygon fill="midnightblue" stroke="midnightblue" points="1052.74,-143.925 1060.76,-137.008 1050.17,-137.411 1052.74,-143.925"/>
</g>
<!-- Node3 -->
<g id="node3" class="node"><title>Node3</title>
<polygon fill="none" stroke="#bfbfbf" points="313.82,-118 313.82,-137 459.82,-137 459.82,-118 313.82,-118"/>
<text text-anchor="middle" x="386.82" y="-125" font-family="Helvetica,sans-Serif" font-size="10.00">Framework/ServiceRegistry.h</text>
</g>
<!-- Node1&#45;&gt;Node3 -->
<g id="edge2" class="edge"><title>Node1&#45;&gt;Node3</title>
<path fill="none" stroke="midnightblue" d="M385.034,-246.374C385.395,-222.504 386.127,-174.181 386.533,-147.415"/>
<polygon fill="midnightblue" stroke="midnightblue" points="390.037,-147.149 386.689,-137.097 383.038,-147.043 390.037,-147.149"/>
</g>
<!-- Node4 -->
<g id="node4" class="node"><title>Node4</title>
<polygon fill="none" stroke="#bfbfbf" points="194.32,-112.5 194.32,-142.5 295.32,-142.5 295.32,-112.5 194.32,-112.5"/>
<text text-anchor="start" x="202.32" y="-130.5" font-family="Helvetica,sans-Serif" font-size="10.00">boost/property_tree</text>
<text text-anchor="middle" x="244.82" y="-119.5" font-family="Helvetica,sans-Serif" font-size="10.00">/ptree_fwd.hpp</text>
</g>
<!-- Node1&#45;&gt;Node4 -->
<g id="edge3" class="edge"><title>Node1&#45;&gt;Node4</title>
<path fill="none" stroke="midnightblue" d="M377.055,-246.222C367.099,-228.837 348.505,-199.289 326.82,-179 313.777,-166.797 297.341,-155.985 282.614,-147.528"/>
<polygon fill="midnightblue" stroke="midnightblue" points="284.151,-144.378 273.711,-142.575 280.748,-150.495 284.151,-144.378"/>
</g>
<!-- Node5 -->
<g id="node5" class="node"><title>Node5</title>
<g id="a_node5"><a xlink:href="PostProcessingInterface_8h.html" target="_top" xlink:title="QualityControl/PostProcessing\lInterface.h">
<polygon fill="none" stroke="black" points="167.32,-179.5 167.32,-209.5 318.32,-209.5 318.32,-179.5 167.32,-179.5"/>
<text text-anchor="start" x="175.32" y="-197.5" font-family="Helvetica,sans-Serif" font-size="10.00">QualityControl/PostProcessing</text>
<text text-anchor="middle" x="242.82" y="-186.5" font-family="Helvetica,sans-Serif" font-size="10.00">Interface.h</text>
</a>
</g>
</g>
<!-- Node1&#45;&gt;Node5 -->
<g id="edge4" class="edge"><title>Node1&#45;&gt;Node5</title>
<path fill="none" stroke="midnightblue" d="M354.008,-246.396C333.167,-236.856 305.437,-224.163 282.885,-213.84"/>
<polygon fill="midnightblue" stroke="midnightblue" points="284.121,-210.556 273.571,-209.577 281.207,-216.921 284.121,-210.556"/>
</g>
<!-- Node7 -->
<g id="node7" class="node"><title>Node7</title>
<g id="a_node7"><a xlink:href="Triggers_8h.html" target="_top" xlink:title="QualityControl/Triggers.h">
<polygon fill="none" stroke="black" points="12.3195,-118 12.3195,-137 137.32,-137 137.32,-118 12.3195,-118"/>
<text text-anchor="middle" x="74.8195" y="-125" font-family="Helvetica,sans-Serif" font-size="10.00">QualityControl/Triggers.h</text>
</a>
</g>
</g>
<!-- Node1&#45;&gt;Node7 -->
<g id="edge16" class="edge"><title>Node1&#45;&gt;Node7</title>
<path fill="none" stroke="midnightblue" d="M304.579,-253.636C259.316,-247.143 202.964,-234.522 157.82,-210 128.099,-193.856 101.742,-163.954 87.0682,-145.205"/>
<polygon fill="midnightblue" stroke="midnightblue" points="89.8471,-143.077 81.0084,-137.235 84.2748,-147.314 89.8471,-143.077"/>
</g>
<!-- Node10 -->
<g id="node10" class="node"><title>Node10</title>
<g id="a_node10"><a xlink:href="PostProcessingConfig_8h.html" target="_top" xlink:title="QualityControl/PostProcessing\lConfig.h">
<polygon fill="none" stroke="black" points="413.32,-179.5 413.32,-209.5 564.32,-209.5 564.32,-179.5 413.32,-179.5"/>
<text text-anchor="start" x="421.32" y="-197.5" font-family="Helvetica,sans-Serif" font-size="10.00">QualityControl/PostProcessing</text>
<text text-anchor="middle" x="488.82" y="-186.5" font-family="Helvetica,sans-Serif" font-size="10.00">Config.h</text>
</a>
</g>
</g>
<!-- Node1&#45;&gt;Node10 -->
<g id="edge12" class="edge"><title>Node1&#45;&gt;Node10</title>
<path fill="none" stroke="midnightblue" d="M407.386,-246.396C422.105,-237.197 441.514,-225.066 457.692,-214.955"/>
<polygon fill="midnightblue" stroke="midnightblue" points="459.672,-217.845 466.297,-209.577 455.962,-211.909 459.672,-217.845"/>
</g>
<!-- Node12 -->
<g id="node12" class="node"><title>Node12</title>
<g id="a_node12"><a xlink:href="DatabaseInterface_8h.html" target="_top" xlink:title="QualityControl/DatabaseInterface.h">
<polygon fill="none" stroke="black" points="593.82,-185 593.82,-204 763.82,-204 763.82,-185 593.82,-185"/>
<text text-anchor="middle" x="678.82" y="-192" font-family="Helvetica,sans-Serif" font-size="10.00">QualityControl/DatabaseInterface.h</text>
</a>
</g>
</g>
<!-- Node1&#45;&gt;Node12 -->
<g id="edge17" class="edge"><title>Node1&#45;&gt;Node12</title>
<path fill="none" stroke="midnightblue" d="M448.251,-246.476C502.893,-234.395 580.603,-217.215 630.372,-206.211"/>
<polygon fill="midnightblue" stroke="midnightblue" points="631.235,-209.605 640.244,-204.029 629.724,-202.77 631.235,-209.605"/>
</g>
<!-- Node5&#45;&gt;Node3 -->
<g id="edge6" class="edge"><title>Node5&#45;&gt;Node3</title>
<path fill="none" stroke="midnightblue" d="M274.065,-179.396C299.22,-168.041 334.27,-152.22 358.587,-141.244"/>
<polygon fill="midnightblue" stroke="midnightblue" points="360.299,-144.311 367.973,-137.007 357.419,-137.931 360.299,-144.311"/>
</g>
<!-- Node5&#45;&gt;Node4 -->
<g id="edge7" class="edge"><title>Node5&#45;&gt;Node4</title>
<path fill="none" stroke="midnightblue" d="M243.253,-179.396C243.492,-171.645 243.795,-161.812 244.07,-152.86"/>
<polygon fill="midnightblue" stroke="midnightblue" points="247.577,-152.679 244.386,-142.577 240.58,-152.464 247.577,-152.679"/>
</g>
<!-- Node6 -->
<g id="node6" class="node"><title>Node6</title>
<polygon fill="none" stroke="#bfbfbf" points="551.32,-0.5 551.32,-19.5 592.32,-19.5 592.32,-0.5 551.32,-0.5"/>
<text text-anchor="middle" x="571.82" y="-7.5" font-family="Helvetica,sans-Serif" font-size="10.00">string</text>
</g>
<!-- Node5&#45;&gt;Node6 -->
<g id="edge5" class="edge"><title>Node5&#45;&gt;Node6</title>
<path fill="none" stroke="midnightblue" d="M220.648,-179.415C197.536,-162.973 166.983,-135.089 184.82,-112 228.995,-54.8161 457.134,-23.8555 540.915,-14.2758"/>
<polygon fill="midnightblue" stroke="midnightblue" points="541.524,-17.7296 551.073,-13.1389 540.745,-10.773 541.524,-17.7296"/>
</g>
<!-- Node5&#45;&gt;Node7 -->
<g id="edge8" class="edge"><title>Node5&#45;&gt;Node7</title>
<path fill="none" stroke="midnightblue" d="M206.366,-179.396C176.497,-167.84 134.669,-151.656 106.256,-140.663"/>
<polygon fill="midnightblue" stroke="midnightblue" points="107.396,-137.351 96.8068,-137.007 104.87,-143.88 107.396,-137.351"/>
</g>
<!-- Node7&#45;&gt;Node6 -->
<g id="edge9" class="edge"><title>Node7&#45;&gt;Node6</title>
<path fill="none" stroke="midnightblue" d="M55.5549,-117.973C28.4676,-104.87 -15.3294,-78.8971 5.81952,-56 42.3466,-16.4535 428.682,-11.6317 541.222,-11.068"/>
<polygon fill="midnightblue" stroke="midnightblue" points="541.252,-14.568 551.237,-11.0257 541.223,-7.56805 541.252,-14.568"/>
</g>
<!-- Node8 -->
<g id="node8" class="node"><title>Node8</title>
<polygon fill="none" stroke="#bfbfbf" points="15.3195,-56.5 15.3195,-75.5 74.3195,-75.5 74.3195,-56.5 15.3195,-56.5"/>
<text text-anchor="middle" x="44.8195" y="-63.5" font-family="Helvetica,sans-Serif" font-size="10.00">functional</text>
</g>
<!-- Node7&#45;&gt;Node8 -->
<g id="edge10" class="edge"><title>Node7&#45;&gt;Node8</title>
<path fill="none" stroke="midnightblue" d="M70.5213,-117.975C66.1549,-109.315 59.2642,-95.6486 53.7163,-84.6453"/>
<polygon fill="midnightblue" stroke="midnightblue" points="56.7372,-82.8625 49.1098,-75.5091 50.4868,-86.0141 56.7372,-82.8625"/>
</g>
<!-- Node9 -->
<g id="node9" class="node"><title>Node9</title>
<polygon fill="none" stroke="#bfbfbf" points="92.3195,-56.5 92.3195,-75.5 137.32,-75.5 137.32,-56.5 92.3195,-56.5"/>
<text text-anchor="middle" x="114.82" y="-63.5" font-family="Helvetica,sans-Serif" font-size="10.00">iosfwd</text>
</g>
<!-- Node7&#45;&gt;Node9 -->
<g id="edge11" class="edge"><title>Node7&#45;&gt;Node9</title>
<path fill="none" stroke="midnightblue" d="M80.5505,-117.975C86.4912,-109.138 95.9364,-95.0886 103.408,-83.975"/>
<polygon fill="midnightblue" stroke="midnightblue" points="106.425,-85.7608 109.099,-75.5091 100.615,-81.8554 106.425,-85.7608"/>
</g>
<!-- Node10&#45;&gt;Node4 -->
<g id="edge15" class="edge"><title>Node10&#45;&gt;Node4</title>
<path fill="none" stroke="midnightblue" d="M436.176,-179.476C397.736,-169.236 345.542,-155.332 305.374,-144.631"/>
<polygon fill="midnightblue" stroke="midnightblue" points="306.262,-141.246 295.698,-142.054 304.46,-148.01 306.262,-141.246"/>
</g>
<!-- Node10&#45;&gt;Node6 -->
<g id="edge14" class="edge"><title>Node10&#45;&gt;Node6</title>
<path fill="none" stroke="midnightblue" d="M490.381,-179.492C492.576,-162.884 497.405,-134.607 506.82,-112 520.176,-79.9276 543.68,-46.8208 558.465,-27.6114"/>
<polygon fill="midnightblue" stroke="midnightblue" points="561.339,-29.6177 564.758,-19.5898 555.832,-25.2968 561.339,-29.6177"/>
</g>
<!-- Node11 -->
<g id="node11" class="node"><title>Node11</title>
<polygon fill="none" stroke="#bfbfbf" points="515.82,-118 515.82,-137 559.82,-137 559.82,-118 515.82,-118"/>
<text text-anchor="middle" x="537.82" y="-125" font-family="Helvetica,sans-Serif" font-size="10.00">vector</text>
</g>
<!-- Node10&#45;&gt;Node11 -->
<g id="edge13" class="edge"><title>Node10&#45;&gt;Node11</title>
<path fill="none" stroke="midnightblue" d="M499.452,-179.396C507.016,-169.361 517.211,-155.838 525.19,-145.253"/>
<polygon fill="midnightblue" stroke="midnightblue" points="528.04,-147.287 531.265,-137.195 522.451,-143.073 528.04,-147.287"/>
</g>
<!-- Node12&#45;&gt;Node2 -->
<g id="edge19" class="edge"><title>Node12&#45;&gt;Node2</title>
<path fill="none" stroke="midnightblue" d="M763.995,-187.94C838.97,-181.589 950.568,-168.572 1044.82,-143 1047.26,-142.337 1049.76,-141.545 1052.25,-140.679"/>
<polygon fill="midnightblue" stroke="midnightblue" points="1053.52,-143.938 1061.6,-137.08 1051.01,-137.405 1053.52,-143.938"/>
</g>
<!-- Node12&#45;&gt;Node3 -->
<g id="edge22" class="edge"><title>Node12&#45;&gt;Node3</title>
<path fill="none" stroke="midnightblue" d="M640.345,-184.936C587.606,-173.196 492.861,-152.105 435.323,-139.297"/>
<polygon fill="midnightblue" stroke="midnightblue" points="435.9,-135.84 425.379,-137.083 434.379,-142.673 435.9,-135.84"/>
</g>
<!-- Node12&#45;&gt;Node6 -->
<g id="edge18" class="edge"><title>Node12&#45;&gt;Node6</title>
<path fill="none" stroke="midnightblue" d="M679.631,-184.921C680.719,-169.511 681.344,-136.469 669.82,-112 652.373,-74.9566 615.77,-43.129 592.569,-25.5637"/>
<polygon fill="midnightblue" stroke="midnightblue" points="594.529,-22.6602 584.401,-19.5488 590.378,-28.2968 594.529,-22.6602"/>
</g>
<!-- Node12&#45;&gt;Node11 -->
<g id="edge20" class="edge"><title>Node12&#45;&gt;Node11</title>
<path fill="none" stroke="midnightblue" d="M660.116,-184.962C638.214,-174.953 600.85,-157.843 568.82,-143 567.667,-142.466 566.491,-141.92 565.304,-141.368"/>
<polygon fill="midnightblue" stroke="midnightblue" points="566.711,-138.163 556.169,-137.109 563.753,-144.507 566.711,-138.163"/>
</g>
<!-- Node13 -->
<g id="node13" class="node"><title>Node13</title>
<polygon fill="none" stroke="#bfbfbf" points="578.32,-118 578.32,-137 661.32,-137 661.32,-118 578.32,-118"/>
<text text-anchor="middle" x="619.82" y="-125" font-family="Helvetica,sans-Serif" font-size="10.00">unordered_map</text>
</g>
<!-- Node12&#45;&gt;Node13 -->
<g id="edge21" class="edge"><title>Node12&#45;&gt;Node13</title>
<path fill="none" stroke="midnightblue" d="M670.863,-184.734C661.574,-174.5 646.019,-157.364 634.517,-144.692"/>
<polygon fill="midnightblue" stroke="midnightblue" points="636.963,-142.179 627.65,-137.127 631.78,-146.884 636.963,-142.179"/>
</g>
<!-- Node14 -->
<g id="node14" class="node"><title>Node14</title>
<g id="a_node14"><a xlink:href="QualityObject_8h_source.html" target="_top" xlink:title="QualityControl/QualityObject.h">
<polygon fill="none" stroke="black" points="887.32,-118 887.32,-137 1036.32,-137 1036.32,-118 887.32,-118"/>
<text text-anchor="middle" x="961.82" y="-125" font-family="Helvetica,sans-Serif" font-size="10.00">QualityControl/QualityObject.h</text>
</a>
</g>
</g>
<!-- Node12&#45;&gt;Node14 -->
<g id="edge23" class="edge"><title>Node12&#45;&gt;Node14</title>
<path fill="none" stroke="midnightblue" d="M716.108,-184.936C767.116,-173.22 858.666,-152.193 914.464,-139.377"/>
<polygon fill="midnightblue" stroke="midnightblue" points="915.486,-142.733 924.449,-137.083 913.919,-135.911 915.486,-142.733"/>
</g>
<!-- Node20 -->
<g id="node20" class="node"><title>Node20</title>
<g id="a_node20"><a xlink:href="MonitorObject_8h.html" target="_top" xlink:title="QualityControl/MonitorObject.h">
<polygon fill="none" stroke="black" points="718.32,-118 718.32,-137 869.32,-137 869.32,-118 718.32,-118"/>
<text text-anchor="middle" x="793.82" y="-125" font-family="Helvetica,sans-Serif" font-size="10.00">QualityControl/MonitorObject.h</text>
</a>
</g>
</g>
<!-- Node12&#45;&gt;Node20 -->
<g id="edge31" class="edge"><title>Node12&#45;&gt;Node20</title>
<path fill="none" stroke="midnightblue" d="M694.329,-184.734C713.727,-173.769 747.146,-154.881 769.847,-142.049"/>
<polygon fill="midnightblue" stroke="midnightblue" points="771.572,-145.095 778.556,-137.127 768.128,-139.001 771.572,-145.095"/>
</g>
<!-- Node15 -->
<g id="node15" class="node"><title>Node15</title>
<polygon fill="none" stroke="#bfbfbf" points="1064.32,-0.5 1064.32,-19.5 1099.32,-19.5 1099.32,-0.5 1064.32,-0.5"/>
<text text-anchor="middle" x="1081.82" y="-7.5" font-family="Helvetica,sans-Serif" font-size="10.00">map</text>
</g>
<!-- Node14&#45;&gt;Node15 -->
<g id="edge24" class="edge"><title>Node14&#45;&gt;Node15</title>
<path fill="none" stroke="midnightblue" d="M1004.35,-117.977C1057.26,-106.947 1141.8,-87.7516 1150.82,-76 1167.17,-54.7032 1134.65,-34.1503 1108.92,-22.0436"/>
<polygon fill="midnightblue" stroke="midnightblue" points="1110.06,-18.72 1099.5,-17.8332 1107.2,-25.1103 1110.06,-18.72"/>
</g>
<!-- Node16 -->
<g id="node16" class="node"><title>Node16</title>
<polygon fill="none" stroke="#bfbfbf" points="944.32,-56.5 944.32,-75.5 1003.32,-75.5 1003.32,-56.5 944.32,-56.5"/>
<text text-anchor="middle" x="973.82" y="-63.5" font-family="Helvetica,sans-Serif" font-size="10.00">TObject.h</text>
</g>
<!-- Node14&#45;&gt;Node16 -->
<g id="edge25" class="edge"><title>Node14&#45;&gt;Node16</title>
<path fill="none" stroke="midnightblue" d="M963.539,-117.975C965.25,-109.492 967.93,-96.2043 970.124,-85.3222"/>
<polygon fill="midnightblue" stroke="midnightblue" points="973.557,-86.0037 972.103,-75.5091 966.695,-84.6197 973.557,-86.0037"/>
</g>
<!-- Node17 -->
<g id="node17" class="node"><title>Node17</title>
<polygon fill="none" stroke="#bfbfbf" points="809.82,-56.5 809.82,-75.5 925.82,-75.5 925.82,-56.5 809.82,-56.5"/>
<text text-anchor="middle" x="867.82" y="-63.5" font-family="Helvetica,sans-Serif" font-size="10.00">Common/Exceptions.h</text>
</g>
<!-- Node14&#45;&gt;Node17 -->
<g id="edge26" class="edge"><title>Node14&#45;&gt;Node17</title>
<path fill="none" stroke="midnightblue" d="M948.352,-117.975C933.135,-108.343 908.133,-92.5175 890.019,-81.0517"/>
<polygon fill="midnightblue" stroke="midnightblue" points="891.584,-77.9002 881.262,-75.5091 887.84,-83.8149 891.584,-77.9002"/>
</g>
<!-- Node18 -->
<g id="node18" class="node"><title>Node18</title>
<g id="a_node18"><a xlink:href="Quality_8h.html" target="_top" xlink:title="QualityControl/Quality.h">
<polygon fill="none" stroke="black" points="1021.32,-56.5 1021.32,-75.5 1142.32,-75.5 1142.32,-56.5 1021.32,-56.5"/>
<text text-anchor="middle" x="1081.82" y="-63.5" font-family="Helvetica,sans-Serif" font-size="10.00">QualityControl/Quality.h</text>
</a>
</g>
</g>
<!-- Node14&#45;&gt;Node18 -->
<g id="edge27" class="edge"><title>Node14&#45;&gt;Node18</title>
<path fill="none" stroke="midnightblue" d="M979.013,-117.975C999.062,-108.034 1032.42,-91.4947 1055.68,-79.961"/>
<polygon fill="midnightblue" stroke="midnightblue" points="1057.25,-83.0871 1064.66,-75.5091 1054.14,-76.8157 1057.25,-83.0871"/>
</g>
<!-- Node18&#45;&gt;Node6 -->
<g id="edge29" class="edge"><title>Node18&#45;&gt;Node6</title>
<path fill="none" stroke="midnightblue" d="M1021.12,-57.0985C1017.98,-56.7196 1014.86,-56.3512 1011.82,-56 858.363,-38.2907 674.375,-20.6256 602.604,-13.8712"/>
<polygon fill="midnightblue" stroke="midnightblue" points="602.741,-10.3688 592.458,-12.9187 602.087,-17.3381 602.741,-10.3688"/>
</g>
<!-- Node18&#45;&gt;Node15 -->
<g id="edge30" class="edge"><title>Node18&#45;&gt;Node15</title>
<path fill="none" stroke="midnightblue" d="M1081.82,-56.083C1081.82,-49.0059 1081.82,-38.8611 1081.82,-29.9865"/>
<polygon fill="midnightblue" stroke="midnightblue" points="1085.32,-29.751 1081.82,-19.7511 1078.32,-29.7511 1085.32,-29.751"/>
</g>
<!-- Node19 -->
<g id="node19" class="node"><title>Node19</title>
<polygon fill="none" stroke="#bfbfbf" points="852.82,-0.5 852.82,-19.5 908.82,-19.5 908.82,-0.5 852.82,-0.5"/>
<text text-anchor="middle" x="880.82" y="-7.5" font-family="Helvetica,sans-Serif" font-size="10.00">Rtypes.h</text>
</g>
<!-- Node18&#45;&gt;Node19 -->
<g id="edge28" class="edge"><title>Node18&#45;&gt;Node19</title>
<path fill="none" stroke="midnightblue" d="M1049.97,-56.4435C1014.3,-46.8613 956.538,-31.3424 918.614,-21.1537"/>
<polygon fill="midnightblue" stroke="midnightblue" points="919.518,-17.7725 908.952,-18.558 917.701,-24.5328 919.518,-17.7725"/>
</g>
<!-- Node20&#45;&gt;Node6 -->
<g id="edge32" class="edge"><title>Node20&#45;&gt;Node6</title>
<path fill="none" stroke="midnightblue" d="M781.801,-117.954C761.726,-103.906 719.822,-75.5468 681.82,-56 655.724,-42.578 624.674,-30.1807 602.228,-21.8121"/>
<polygon fill="midnightblue" stroke="midnightblue" points="603.163,-18.4267 592.569,-18.2613 600.747,-24.9968 603.163,-18.4267"/>
</g>
<!-- Node20&#45;&gt;Node15 -->
<g id="edge33" class="edge"><title>Node20&#45;&gt;Node15</title>
<path fill="none" stroke="midnightblue" d="M791.683,-117.783C788.622,-102.963 784.965,-72.8326 800.82,-56 835.004,-19.7071 989.94,-12.67 1053.99,-11.3169"/>
<polygon fill="midnightblue" stroke="midnightblue" points="1054.21,-14.8135 1064.15,-11.1345 1054.09,-7.81459 1054.21,-14.8135"/>
</g>
<!-- Node20&#45;&gt;Node16 -->
<g id="edge35" class="edge"><title>Node20&#45;&gt;Node16</title>
<path fill="none" stroke="midnightblue" d="M819.609,-117.975C850.753,-107.68 903.301,-90.3103 938.273,-78.7502"/>
<polygon fill="midnightblue" stroke="midnightblue" points="939.682,-81.9708 948.078,-75.5091 937.485,-75.3245 939.682,-81.9708"/>
</g>
<!-- Node20&#45;&gt;Node17 -->
<g id="edge36" class="edge"><title>Node20&#45;&gt;Node17</title>
<path fill="none" stroke="midnightblue" d="M804.422,-117.975C816.071,-108.608 835.006,-93.3839 849.154,-82.0081"/>
<polygon fill="midnightblue" stroke="midnightblue" points="851.637,-84.503 857.237,-75.5091 847.25,-79.0477 851.637,-84.503"/>
</g>
<!-- Node20&#45;&gt;Node19 -->
<g id="edge34" class="edge"><title>Node20&#45;&gt;Node19</title>
<path fill="none" stroke="midnightblue" d="M785.609,-117.621C773.673,-103.595 754.347,-75.8663 767.82,-56 784.508,-31.3912 817.025,-20.2396 842.909,-15.1864"/>
<polygon fill="midnightblue" stroke="midnightblue" points="843.553,-18.627 852.813,-13.4792 842.364,-11.7287 843.553,-18.627"/>
</g>
</g>
</svg>
