<?xml version="1.0" encoding="UTF-8" standalone="no"?>
<!DOCTYPE svg PUBLIC "-//W3C//DTD SVG 1.1//EN"
 "http://www.w3.org/Graphics/SVG/1.1/DTD/svg11.dtd">
<!-- Generated by graphviz version 2.38.0 (20140413.2041)
 -->
<!-- Title: Framework/src/runAdvanced.cxx Pages: 1 -->
<svg width="1065pt" height="151pt"
 viewBox="0.00 0.00 1064.50 151.00" xmlns="http://www.w3.org/2000/svg" xmlns:xlink="http://www.w3.org/1999/xlink">
<g id="graph0" class="graph" transform="scale(1 1) rotate(0) translate(4 147)">
<title>Framework/src/runAdvanced.cxx</title>
<!-- Node1 -->
<g id="node1" class="node"><title>Node1</title>
<polygon fill="#bfbfbf" stroke="black" points="481,-123.5 481,-142.5 642,-142.5 642,-123.5 481,-123.5"/>
<text text-anchor="middle" x="561.5" y="-130.5" font-family="Helvetica,sans-Serif" font-size="10.00">Framework/src/runAdvanced.cxx</text>
</g>
<!-- Node2 -->
<g id="node2" class="node"><title>Node2</title>
<polygon fill="none" stroke="#bfbfbf" points="0,-56.5 0,-86.5 145,-86.5 145,-56.5 0,-56.5"/>
<text text-anchor="start" x="8" y="-74.5" font-family="Helvetica,sans-Serif" font-size="10.00">Framework/CompletionPolicy</text>
<text text-anchor="middle" x="72.5" y="-63.5" font-family="Helvetica,sans-Serif" font-size="10.00">Helpers.h</text>
</g>
<!-- Node1&#45;&gt;Node2 -->
<g id="edge1" class="edge"><title>Node1&#45;&gt;Node2</title>
<path fill="none" stroke="midnightblue" d="M480.992,-124.654C400.994,-116.999 274.586,-103.95 155.374,-87.0658"/>
<polygon fill="midnightblue" stroke="midnightblue" points="155.732,-83.5816 145.338,-85.6328 154.743,-90.5113 155.732,-83.5816"/>
</g>
<!-- Node3 -->
<g id="node3" class="node"><title>Node3</title>
<polygon fill="none" stroke="#bfbfbf" points="163.5,-62 163.5,-81 303.5,-81 303.5,-62 163.5,-62"/>
<text text-anchor="middle" x="233.5" y="-69" font-family="Helvetica,sans-Serif" font-size="10.00">Framework/DataSpecUtils.h</text>
</g>
<!-- Node1&#45;&gt;Node3 -->
<g id="edge2" class="edge"><title>Node1&#45;&gt;Node3</title>
<path fill="none" stroke="midnightblue" d="M514.506,-123.475C455.319,-112.739 353.709,-94.3063 290.252,-82.7949"/>
<polygon fill="midnightblue" stroke="midnightblue" points="290.871,-79.3503 280.407,-81.0091 289.622,-86.2379 290.871,-79.3503"/>
</g>
<!-- Node4 -->
<g id="node4" class="node"><title>Node4</title>
<polygon fill="none" stroke="#bfbfbf" points="322,-62 322,-81 473,-81 473,-62 322,-62"/>
<text text-anchor="middle" x="397.5" y="-69" font-family="Helvetica,sans-Serif" font-size="10.00">DataSampling/DataSampling.h</text>
</g>
<!-- Node1&#45;&gt;Node4 -->
<g id="edge3" class="edge"><title>Node1&#45;&gt;Node4</title>
<path fill="none" stroke="midnightblue" d="M538.003,-123.475C509.871,-113.269 462.571,-96.108 430.711,-84.5492"/>
<polygon fill="midnightblue" stroke="midnightblue" points="431.548,-81.1295 420.954,-81.0091 429.16,-87.7098 431.548,-81.1295"/>
</g>
<!-- Node5 -->
<g id="node5" class="node"><title>Node5</title>
<g id="a_node5"><a xlink:href="InfrastructureGenerator_8h.html" target="_top" xlink:title="QualityControl/Infrastructure\lGenerator.h">
<polygon fill="none" stroke="black" points="491.5,-56.5 491.5,-86.5 631.5,-86.5 631.5,-56.5 491.5,-56.5"/>
<text text-anchor="start" x="499.5" y="-74.5" font-family="Helvetica,sans-Serif" font-size="10.00">QualityControl/Infrastructure</text>
<text text-anchor="middle" x="561.5" y="-63.5" font-family="Helvetica,sans-Serif" font-size="10.00">Generator.h</text>
</a>
</g>
</g>
<!-- Node1&#45;&gt;Node5 -->
<g id="edge4" class="edge"><title>Node1&#45;&gt;Node5</title>
<path fill="none" stroke="midnightblue" d="M561.5,-123.475C561.5,-116.471 561.5,-106.192 561.5,-96.6956"/>
<polygon fill="midnightblue" stroke="midnightblue" points="565,-96.5229 561.5,-86.523 558,-96.523 565,-96.5229"/>
</g>
<!-- Node10 -->
<g id="node10" class="node"><title>Node10</title>
<g id="a_node10"><a xlink:href="QcInfoLogger_8h.html" target="_top" xlink:title="QualityControl/QcInfoLogger.h">
<polygon fill="none" stroke="black" points="650,-62 650,-81 799,-81 799,-62 650,-62"/>
<text text-anchor="middle" x="724.5" y="-69" font-family="Helvetica,sans-Serif" font-size="10.00">QualityControl/QcInfoLogger.h</text>
</a>
</g>
</g>
<!-- Node1&#45;&gt;Node10 -->
<g id="edge9" class="edge"><title>Node1&#45;&gt;Node10</title>
<path fill="none" stroke="midnightblue" d="M584.854,-123.475C612.814,-113.269 659.826,-96.108 691.491,-84.5492"/>
<polygon fill="midnightblue" stroke="midnightblue" points="692.996,-87.7259 701.189,-81.0091 690.595,-81.1503 692.996,-87.7259"/>
</g>
<!-- Node13 -->
<g id="node13" class="node"><title>Node13</title>
<polygon fill="none" stroke="#bfbfbf" points="817.5,-62 817.5,-81 977.5,-81 977.5,-62 817.5,-62"/>
<text text-anchor="middle" x="897.5" y="-69" font-family="Helvetica,sans-Serif" font-size="10.00">Framework/runDataProcessing.h</text>
</g>
<!-- Node1&#45;&gt;Node13 -->
<g id="edge12" class="edge"><title>Node1&#45;&gt;Node13</title>
<path fill="none" stroke="midnightblue" d="M609.641,-123.475C670.271,-112.739 774.359,-94.3063 839.364,-82.7949"/>
<polygon fill="midnightblue" stroke="midnightblue" points="840.212,-86.1993 849.449,-81.0091 838.992,-79.3065 840.212,-86.1993"/>
</g>
<!-- Node14 -->
<g id="node14" class="node"><title>Node14</title>
<polygon fill="none" stroke="#bfbfbf" points="996,-62 996,-81 1045,-81 1045,-62 996,-62"/>
<text text-anchor="middle" x="1020.5" y="-69" font-family="Helvetica,sans-Serif" font-size="10.00">random</text>
</g>
<!-- Node1&#45;&gt;Node14 -->
<g id="edge13" class="edge"><title>Node1&#45;&gt;Node14</title>
<path fill="none" stroke="midnightblue" d="M642.273,-130.559C728.725,-127.38 869.269,-117.472 986.5,-87 988.858,-86.387 991.265,-85.6369 993.653,-84.8039"/>
<polygon fill="midnightblue" stroke="midnightblue" points="995.176,-87.9661 1003.2,-81.0509 992.616,-81.4512 995.176,-87.9661"/>
</g>
<!-- Node6 -->
<g id="node6" class="node"><title>Node6</title>
<polygon fill="none" stroke="#bfbfbf" points="284.5,-0.5 284.5,-19.5 328.5,-19.5 328.5,-0.5 284.5,-0.5"/>
<text text-anchor="middle" x="306.5" y="-7.5" font-family="Helvetica,sans-Serif" font-size="10.00">vector</text>
</g>
<!-- Node5&#45;&gt;Node6 -->
<g id="edge5" class="edge"><title>Node5&#45;&gt;Node6</title>
<path fill="none" stroke="midnightblue" d="M495.423,-56.4708C453.279,-47.3061 397.297,-34.7336 338.657,-19.9336"/>
<polygon fill="midnightblue" stroke="midnightblue" points="339.394,-16.5099 328.84,-17.4414 337.671,-23.2946 339.394,-16.5099"/>
</g>
<!-- Node7 -->
<g id="node7" class="node"><title>Node7</title>
<polygon fill="none" stroke="#bfbfbf" points="347,-0.5 347,-19.5 388,-19.5 388,-0.5 347,-0.5"/>
<text text-anchor="middle" x="367.5" y="-7.5" font-family="Helvetica,sans-Serif" font-size="10.00">string</text>
</g>
<!-- Node5&#45;&gt;Node7 -->
<g id="edge6" class="edge"><title>Node5&#45;&gt;Node7</title>
<path fill="none" stroke="midnightblue" d="M515.525,-56.3993C479.284,-45.2844 429.76,-30.0952 398.197,-20.4148"/>
<polygon fill="midnightblue" stroke="midnightblue" points="398.814,-16.9431 388.227,-17.357 396.761,-23.6354 398.814,-16.9431"/>
</g>
<!-- Node8 -->
<g id="node8" class="node"><title>Node8</title>
<polygon fill="none" stroke="#bfbfbf" points="406.5,-0.5 406.5,-19.5 546.5,-19.5 546.5,-0.5 406.5,-0.5"/>
<text text-anchor="middle" x="476.5" y="-7.5" font-family="Helvetica,sans-Serif" font-size="10.00">Framework/WorkflowSpec.h</text>
</g>
<!-- Node5&#45;&gt;Node8 -->
<g id="edge7" class="edge"><title>Node5&#45;&gt;Node8</title>
<path fill="none" stroke="midnightblue" d="M541.356,-56.3993C528.113,-47.1293 510.822,-35.0254 497.424,-25.6469"/>
<polygon fill="midnightblue" stroke="midnightblue" points="499.068,-22.5251 488.868,-19.6578 495.053,-28.2598 499.068,-22.5251"/>
</g>
<!-- Node9 -->
<g id="node9" class="node"><title>Node9</title>
<polygon fill="none" stroke="#bfbfbf" points="564.5,-0.5 564.5,-19.5 728.5,-19.5 728.5,-0.5 564.5,-0.5"/>
<text text-anchor="middle" x="646.5" y="-7.5" font-family="Helvetica,sans-Serif" font-size="10.00">Framework/DataProcessorSpec.h</text>
</g>
<!-- Node5&#45;&gt;Node9 -->
<g id="edge8" class="edge"><title>Node5&#45;&gt;Node9</title>
<path fill="none" stroke="midnightblue" d="M581.644,-56.3993C594.887,-47.1293 612.178,-35.0254 625.576,-25.6469"/>
<polygon fill="midnightblue" stroke="midnightblue" points="627.947,-28.2598 634.132,-19.6578 623.932,-22.5251 627.947,-28.2598"/>
</g>
<!-- Node11 -->
<g id="node11" class="node"><title>Node11</title>
<polygon fill="none" stroke="#bfbfbf" points="746.5,-0.5 746.5,-19.5 876.5,-19.5 876.5,-0.5 746.5,-0.5"/>
<text text-anchor="middle" x="811.5" y="-7.5" font-family="Helvetica,sans-Serif" font-size="10.00">InfoLogger/InfoLogger.hxx</text>
</g>
<!-- Node10&#45;&gt;Node11 -->
<g id="edge10" class="edge"><title>Node10&#45;&gt;Node11</title>
<path fill="none" stroke="midnightblue" d="M736.965,-61.9751C750.919,-52.4315 773.765,-36.8073 790.491,-25.3683"/>
<polygon fill="midnightblue" stroke="midnightblue" points="792.78,-28.0433 799.058,-19.5091 788.828,-22.2653 792.78,-28.0433"/>
</g>
<!-- Node12 -->
<g id="node12" class="node"><title>Node12</title>
<polygon fill="none" stroke="#bfbfbf" points="894.5,-0.5 894.5,-19.5 1056.5,-19.5 1056.5,-0.5 894.5,-0.5"/>
<text text-anchor="middle" x="975.5" y="-7.5" font-family="Helvetica,sans-Serif" font-size="10.00">InfoLogger/InfoLoggerMacros.hxx</text>
</g>
<!-- Node10&#45;&gt;Node12 -->
<g id="edge11" class="edge"><title>Node10&#45;&gt;Node12</title>
<path fill="none" stroke="midnightblue" d="M760.462,-61.9751C805.009,-51.4153 880.959,-33.411 929.649,-21.8689"/>
<polygon fill="midnightblue" stroke="midnightblue" points="930.682,-25.2214 939.605,-19.5091 929.067,-18.4101 930.682,-25.2214"/>
</g>
</g>
</svg>
