<?xml version="1.0" encoding="UTF-8" standalone="no"?>
<!DOCTYPE svg PUBLIC "-//W3C//DTD SVG 1.1//EN"
 "http://www.w3.org/Graphics/SVG/1.1/DTD/svg11.dtd">
<!-- Generated by graphviz version 2.38.0 (20140413.2041)
 -->
<!-- Title: Framework/src/runPostProcessingOCC.cxx Pages: 1 -->
<!--zoomable 352 -->
<svg id="main" version="1.1" xmlns="http://www.w3.org/2000/svg" xmlns:xlink="http://www.w3.org/1999/xlink" xml:space="preserve" onload="init(evt)">
<style type="text/css"><![CDATA[
.edge:hover path { stroke: red; }
.edge:hover polygon { stroke: red; fill: red; }
]]></style>
<script type="text/javascript"><![CDATA[
var edges = document.getElementsByTagName('g');
if (edges && edges.length) {
  for (var i=0;i<edges.length;i++) {
    if (edges[i].id.substr(0,4)=='edge') {
      edges[i].setAttribute('class','edge');
    }
  }
}
]]></script>
        <defs>
                <circle id="rim" cx="0" cy="0" r="7"/>
                <circle id="rim2" cx="0" cy="0" r="3.5"/>
                <g id="zoomPlus">
                        <use xlink:href="#rim" fill="#404040">
                                <set attributeName="fill" to="#808080" begin="zoomplus.mouseover" end="zoomplus.mouseout"/>
                        </use>
                        <path d="M-4,0h8M0,-4v8" fill="none" stroke="white" stroke-width="1.5" pointer-events="none"/>
                </g>
                <g id="zoomMin">
                        <use xlink:href="#rim" fill="#404040">
                                <set attributeName="fill" to="#808080" begin="zoomminus.mouseover" end="zoomminus.mouseout"/>
                        </use>
                        <path d="M-4,0h8" fill="none" stroke="white" stroke-width="1.5" pointer-events="none"/>
                </g>
                <g id="dirArrow">
                        <path fill="none" stroke="white" stroke-width="1.5" d="M0,-3.0v7 M-2.5,-0.5L0,-3.0L2.5,-0.5"/>
                </g>
               <g id="resetDef">
                       <use xlink:href="#rim2" fill="#404040">
                               <set attributeName="fill" to="#808080" begin="reset.mouseover" end="reset.mouseout"/>
                       </use>
               </g>
        </defs>

<script type="text/javascript">
var viewWidth = 1622;
var viewHeight = 352;
var sectionId = 'dynsection-0';
</script>
<script xlink:href="svgpan.js"/>
<svg id="graph" class="graph">
<g id="viewport">
<title>Framework/src/runPostProcessingOCC.cxx</title>
<!-- Node1 -->
<g id="node1" class="node"><title>Node1</title>
<polygon fill="#bfbfbf" stroke="black" points="1082,-313.5 1082,-343.5 1249,-343.5 1249,-313.5 1082,-313.5"/>
<text text-anchor="start" x="1090" y="-331.5" font-family="Helvetica,sans-Serif" font-size="10.00">Framework/src/runPostProcessing</text>
<text text-anchor="middle" x="1165.5" y="-320.5" font-family="Helvetica,sans-Serif" font-size="10.00">OCC.cxx</text>
</g>
<!-- Node2 -->
<g id="node2" class="node"><title>Node2</title>
<g id="a_node2"><a xlink:href="PostProcessingRunner_8h.html" target="_top" xlink:title="QualityControl/PostProcessing\lRunner.h">
<polygon fill="none" stroke="black" points="379,-246.5 379,-276.5 530,-276.5 530,-246.5 379,-246.5"/>
<text text-anchor="start" x="387" y="-264.5" font-family="Helvetica,sans-Serif" font-size="10.00">QualityControl/PostProcessing</text>
<text text-anchor="middle" x="454.5" y="-253.5" font-family="Helvetica,sans-Serif" font-size="10.00">Runner.h</text>
</a>
</g>
</g>
<!-- Node1&#45;&gt;Node2 -->
<g id="edge1" class="edge"><title>Node1&#45;&gt;Node2</title>
<path fill="none" stroke="midnightblue" d="M1081.85,-319.853C945.673,-307.403 677.492,-282.886 540.081,-270.324"/>
<polygon fill="midnightblue" stroke="midnightblue" points="540.292,-266.829 530.014,-269.404 539.654,-273.8 540.292,-266.829"/>
</g>
<!-- Node22 -->
<g id="node22" class="node"><title>Node22</title>
<g id="a_node22"><a xlink:href="QcInfoLogger_8h.html" target="_top" xlink:title="QualityControl/QcInfoLogger.h">
<polygon fill="none" stroke="black" points="833,-252 833,-271 982,-271 982,-252 833,-252"/>
<text text-anchor="middle" x="907.5" y="-259" font-family="Helvetica,sans-Serif" font-size="10.00">QualityControl/QcInfoLogger.h</text>
</a>
</g>
</g>
<!-- Node1&#45;&gt;Node22 -->
<g id="edge38" class="edge"><title>Node1&#45;&gt;Node22</title>
<path fill="none" stroke="midnightblue" d="M1109.84,-313.476C1062.28,-301.496 994.827,-284.501 951.114,-273.488"/>
<polygon fill="midnightblue" stroke="midnightblue" points="951.904,-270.078 941.352,-271.029 950.194,-276.866 951.904,-270.078"/>
</g>
<!-- Node25 -->
<g id="node25" class="node"><title>Node25</title>
<polygon fill="none" stroke="#bfbfbf" points="1000.5,-252 1000.5,-271 1080.5,-271 1080.5,-252 1000.5,-252"/>
<text text-anchor="middle" x="1040.5" y="-259" font-family="Helvetica,sans-Serif" font-size="10.00">OccInstance.h</text>
</g>
<!-- Node1&#45;&gt;Node25 -->
<g id="edge41" class="edge"><title>Node1&#45;&gt;Node25</title>
<path fill="none" stroke="midnightblue" d="M1138.38,-313.396C1116.83,-302.193 1086.93,-286.641 1065.86,-275.685"/>
<polygon fill="midnightblue" stroke="midnightblue" points="1067.35,-272.515 1056.86,-271.007 1064.12,-278.726 1067.35,-272.515"/>
</g>
<!-- Node26 -->
<g id="node26" class="node"><title>Node26</title>
<polygon fill="none" stroke="#bfbfbf" points="1098.5,-252 1098.5,-271 1232.5,-271 1232.5,-252 1098.5,-252"/>
<text text-anchor="middle" x="1165.5" y="-259" font-family="Helvetica,sans-Serif" font-size="10.00">RuntimeControlledObject.h</text>
</g>
<!-- Node1&#45;&gt;Node26 -->
<g id="edge42" class="edge"><title>Node1&#45;&gt;Node26</title>
<path fill="none" stroke="midnightblue" d="M1165.5,-313.396C1165.5,-304.064 1165.5,-291.714 1165.5,-281.517"/>
<polygon fill="midnightblue" stroke="midnightblue" points="1169,-281.195 1165.5,-271.195 1162,-281.195 1169,-281.195"/>
</g>
<!-- Node27 -->
<g id="node27" class="node"><title>Node27</title>
<polygon fill="none" stroke="#bfbfbf" points="1250.5,-252 1250.5,-271 1384.5,-271 1384.5,-252 1250.5,-252"/>
<text text-anchor="middle" x="1317.5" y="-259" font-family="Helvetica,sans-Serif" font-size="10.00">boost/program_options.hpp</text>
</g>
<!-- Node1&#45;&gt;Node27 -->
<g id="edge43" class="edge"><title>Node1&#45;&gt;Node27</title>
<path fill="none" stroke="midnightblue" d="M1198.48,-313.396C1225.27,-301.941 1262.69,-285.938 1288.38,-274.952"/>
<polygon fill="midnightblue" stroke="midnightblue" points="1289.79,-278.157 1297.61,-271.007 1287.04,-271.721 1289.79,-278.157"/>
</g>
<!-- Node28 -->
<g id="node28" class="node"><title>Node28</title>
<polygon fill="none" stroke="#bfbfbf" points="1402.5,-252 1402.5,-271 1494.5,-271 1494.5,-252 1402.5,-252"/>
<text text-anchor="middle" x="1448.5" y="-259" font-family="Helvetica,sans-Serif" font-size="10.00">Common/Timer.h</text>
</g>
<!-- Node1&#45;&gt;Node28 -->
<g id="edge44" class="edge"><title>Node1&#45;&gt;Node28</title>
<path fill="none" stroke="midnightblue" d="M1232.01,-313.5C1277.57,-303.729 1339.32,-290.136 1393.5,-277 1397.88,-275.937 1402.45,-274.792 1407,-273.628"/>
<polygon fill="midnightblue" stroke="midnightblue" points="1408.05,-276.972 1416.85,-271.073 1406.29,-270.196 1408.05,-276.972"/>
</g>
<!-- Node29 -->
<g id="node29" class="node"><title>Node29</title>
<polygon fill="none" stroke="#bfbfbf" points="1513,-246.5 1513,-276.5 1614,-276.5 1614,-246.5 1513,-246.5"/>
<text text-anchor="start" x="1521" y="-264.5" font-family="Helvetica,sans-Serif" font-size="10.00">boost/property_tree</text>
<text text-anchor="middle" x="1563.5" y="-253.5" font-family="Helvetica,sans-Serif" font-size="10.00">/ptree.hpp</text>
</g>
<!-- Node1&#45;&gt;Node29 -->
<g id="edge45" class="edge"><title>Node1&#45;&gt;Node29</title>
<path fill="none" stroke="midnightblue" d="M1249.2,-317.1C1315.4,-308.386 1410.36,-294.814 1502.74,-277.04"/>
<polygon fill="midnightblue" stroke="midnightblue" points="1503.68,-280.423 1512.83,-275.08 1502.35,-273.551 1503.68,-280.423"/>
</g>
<!-- Node3 -->
<g id="node3" class="node"><title>Node3</title>
<polygon fill="none" stroke="#bfbfbf" points="1077.5,-118 1077.5,-137 1129.5,-137 1129.5,-118 1077.5,-118"/>
<text text-anchor="middle" x="1103.5" y="-125" font-family="Helvetica,sans-Serif" font-size="10.00">memory</text>
</g>
<!-- Node2&#45;&gt;Node3 -->
<g id="edge2" class="edge"><title>Node2&#45;&gt;Node3</title>
<path fill="none" stroke="midnightblue" d="M530.247,-259.87C598.213,-256.762 699.31,-245.736 779.5,-210 799.409,-201.128 797.542,-187.761 817.5,-179 920.289,-133.877 959.102,-172.18 1067.5,-143 1070,-142.326 1072.57,-141.526 1075.12,-140.655"/>
<polygon fill="midnightblue" stroke="midnightblue" points="1076.6,-143.838 1084.73,-137.047 1074.14,-137.284 1076.6,-143.838"/>
</g>
<!-- Node4 -->
<g id="node4" class="node"><title>Node4</title>
<polygon fill="none" stroke="#bfbfbf" points="337.5,-118 337.5,-137 483.5,-137 483.5,-118 337.5,-118"/>
<text text-anchor="middle" x="410.5" y="-125" font-family="Helvetica,sans-Serif" font-size="10.00">Framework/ServiceRegistry.h</text>
</g>
<!-- Node2&#45;&gt;Node4 -->
<g id="edge3" class="edge"><title>Node2&#45;&gt;Node4</title>
<path fill="none" stroke="midnightblue" d="M442.821,-246.413C435.474,-236.766 426.471,-223.348 421.5,-210 413.889,-189.562 411.444,-164.498 410.711,-147.604"/>
<polygon fill="midnightblue" stroke="midnightblue" points="414.203,-147.273 410.433,-137.372 407.205,-147.463 414.203,-147.273"/>
</g>
<!-- Node5 -->
<g id="node5" class="node"><title>Node5</title>
<polygon fill="none" stroke="#bfbfbf" points="218,-112.5 218,-142.5 319,-142.5 319,-112.5 218,-112.5"/>
<text text-anchor="start" x="226" y="-130.5" font-family="Helvetica,sans-Serif" font-size="10.00">boost/property_tree</text>
<text text-anchor="middle" x="268.5" y="-119.5" font-family="Helvetica,sans-Serif" font-size="10.00">/ptree_fwd.hpp</text>
</g>
<!-- Node2&#45;&gt;Node5 -->
<g id="edge4" class="edge"><title>Node2&#45;&gt;Node5</title>
<path fill="none" stroke="midnightblue" d="M436.027,-246.363C414.341,-229.872 377.181,-201.942 344.5,-179 329.716,-168.622 313.024,-157.47 299.057,-148.293"/>
<polygon fill="midnightblue" stroke="midnightblue" points="300.604,-145.122 290.32,-142.575 296.771,-150.979 300.604,-145.122"/>
</g>
<!-- Node6 -->
<g id="node6" class="node"><title>Node6</title>
<g id="a_node6"><a xlink:href="PostProcessingInterface_8h.html" target="_top" xlink:title="QualityControl/PostProcessing\lInterface.h">
<polygon fill="none" stroke="black" points="185,-179.5 185,-209.5 336,-209.5 336,-179.5 185,-179.5"/>
<text text-anchor="start" x="193" y="-197.5" font-family="Helvetica,sans-Serif" font-size="10.00">QualityControl/PostProcessing</text>
<text text-anchor="middle" x="260.5" y="-186.5" font-family="Helvetica,sans-Serif" font-size="10.00">Interface.h</text>
</a>
</g>
</g>
<!-- Node2&#45;&gt;Node6 -->
<g id="edge5" class="edge"><title>Node2&#45;&gt;Node6</title>
<path fill="none" stroke="midnightblue" d="M412.405,-246.396C383.042,-236.558 343.672,-223.367 312.37,-212.879"/>
<polygon fill="midnightblue" stroke="midnightblue" points="313.107,-209.435 302.513,-209.577 310.883,-216.072 313.107,-209.435"/>
</g>
<!-- Node8 -->
<g id="node8" class="node"><title>Node8</title>
<g id="a_node8"><a xlink:href="Triggers_8h.html" target="_top" xlink:title="QualityControl/Triggers.h">
<polygon fill="none" stroke="black" points="36,-118 36,-137 161,-137 161,-118 36,-118"/>
<text text-anchor="middle" x="98.5" y="-125" font-family="Helvetica,sans-Serif" font-size="10.00">QualityControl/Triggers.h</text>
</a>
</g>
</g>
<!-- Node2&#45;&gt;Node8 -->
<g id="edge17" class="edge"><title>Node2&#45;&gt;Node8</title>
<path fill="none" stroke="midnightblue" d="M378.932,-259.482C320.273,-255.802 238.585,-244.171 175.5,-210 146.817,-194.464 122.691,-164.344 109.447,-145.392"/>
<polygon fill="midnightblue" stroke="midnightblue" points="112.344,-143.427 103.847,-137.098 106.542,-147.344 112.344,-143.427"/>
</g>
<!-- Node11 -->
<g id="node11" class="node"><title>Node11</title>
<g id="a_node11"><a xlink:href="PostProcessingConfig_8h.html" target="_top" xlink:title="QualityControl/PostProcessing\lConfig.h">
<polygon fill="none" stroke="black" points="431,-179.5 431,-209.5 582,-209.5 582,-179.5 431,-179.5"/>
<text text-anchor="start" x="439" y="-197.5" font-family="Helvetica,sans-Serif" font-size="10.00">QualityControl/PostProcessing</text>
<text text-anchor="middle" x="506.5" y="-186.5" font-family="Helvetica,sans-Serif" font-size="10.00">Config.h</text>
</a>
</g>
</g>
<!-- Node2&#45;&gt;Node11 -->
<g id="edge13" class="edge"><title>Node2&#45;&gt;Node11</title>
<path fill="none" stroke="midnightblue" d="M465.783,-246.396C472.529,-237.963 481.246,-227.067 488.883,-217.522"/>
<polygon fill="midnightblue" stroke="midnightblue" points="491.725,-219.572 495.239,-209.577 486.259,-215.199 491.725,-219.572"/>
</g>
<!-- Node13 -->
<g id="node13" class="node"><title>Node13</title>
<g id="a_node13"><a xlink:href="DatabaseInterface_8h.html" target="_top" xlink:title="QualityControl/DatabaseInterface.h">
<polygon fill="none" stroke="black" points="600.5,-185 600.5,-204 770.5,-204 770.5,-185 600.5,-185"/>
<text text-anchor="middle" x="685.5" y="-192" font-family="Helvetica,sans-Serif" font-size="10.00">QualityControl/DatabaseInterface.h</text>
</a>
</g>
</g>
<!-- Node2&#45;&gt;Node13 -->
<g id="edge18" class="edge"><title>Node2&#45;&gt;Node13</title>
<path fill="none" stroke="midnightblue" d="M504.339,-246.476C546.555,-234.597 606.296,-217.787 645.457,-206.768"/>
<polygon fill="midnightblue" stroke="midnightblue" points="646.512,-210.107 655.19,-204.029 644.616,-203.368 646.512,-210.107"/>
</g>
<!-- Node6&#45;&gt;Node4 -->
<g id="edge7" class="edge"><title>Node6&#45;&gt;Node4</title>
<path fill="none" stroke="midnightblue" d="M293.048,-179.396C319.367,-167.991 356.086,-152.079 381.429,-141.098"/>
<polygon fill="midnightblue" stroke="midnightblue" points="383.085,-144.195 390.868,-137.007 380.301,-137.772 383.085,-144.195"/>
</g>
<!-- Node6&#45;&gt;Node5 -->
<g id="edge8" class="edge"><title>Node6&#45;&gt;Node5</title>
<path fill="none" stroke="midnightblue" d="M262.236,-179.396C263.2,-171.56 264.427,-161.596 265.538,-152.565"/>
<polygon fill="midnightblue" stroke="midnightblue" points="269.02,-152.929 266.768,-142.577 262.072,-152.074 269.02,-152.929"/>
</g>
<!-- Node7 -->
<g id="node7" class="node"><title>Node7</title>
<polygon fill="none" stroke="#bfbfbf" points="533,-0.5 533,-19.5 574,-19.5 574,-0.5 533,-0.5"/>
<text text-anchor="middle" x="553.5" y="-7.5" font-family="Helvetica,sans-Serif" font-size="10.00">string</text>
</g>
<!-- Node6&#45;&gt;Node7 -->
<g id="edge6" class="edge"><title>Node6&#45;&gt;Node7</title>
<path fill="none" stroke="midnightblue" d="M240.297,-179.229C219.271,-162.613 191.593,-134.566 208.5,-112 246.92,-60.7194 445.675,-26.7224 522.832,-15.2755"/>
<polygon fill="midnightblue" stroke="midnightblue" points="523.492,-18.7163 532.882,-13.8105 522.482,-11.7895 523.492,-18.7163"/>
</g>
<!-- Node6&#45;&gt;Node8 -->
<g id="edge9" class="edge"><title>Node6&#45;&gt;Node8</title>
<path fill="none" stroke="midnightblue" d="M225.348,-179.396C196.672,-167.89 156.564,-151.797 129.173,-140.807"/>
<polygon fill="midnightblue" stroke="midnightblue" points="130.286,-137.483 119.702,-137.007 127.68,-143.979 130.286,-137.483"/>
</g>
<!-- Node8&#45;&gt;Node7 -->
<g id="edge10" class="edge"><title>Node8&#45;&gt;Node7</title>
<path fill="none" stroke="midnightblue" d="M104.973,-117.72C116.944,-102.235 144.197,-70.3535 175.5,-56 237.322,-27.6527 444.071,-15.7994 522.748,-12.2417"/>
<polygon fill="midnightblue" stroke="midnightblue" points="523.134,-15.7282 532.972,-11.7939 522.828,-8.73495 523.134,-15.7282"/>
</g>
<!-- Node9 -->
<g id="node9" class="node"><title>Node9</title>
<polygon fill="none" stroke="#bfbfbf" points="0,-56.5 0,-75.5 59,-75.5 59,-56.5 0,-56.5"/>
<text text-anchor="middle" x="29.5" y="-63.5" font-family="Helvetica,sans-Serif" font-size="10.00">functional</text>
</g>
<!-- Node8&#45;&gt;Node9 -->
<g id="edge11" class="edge"><title>Node8&#45;&gt;Node9</title>
<path fill="none" stroke="midnightblue" d="M88.614,-117.975C77.854,-108.697 60.429,-93.6706 47.2788,-82.331"/>
<polygon fill="midnightblue" stroke="midnightblue" points="49.2265,-79.389 39.3677,-75.5091 44.6552,-84.6902 49.2265,-79.389"/>
</g>
<!-- Node10 -->
<g id="node10" class="node"><title>Node10</title>
<polygon fill="none" stroke="#bfbfbf" points="77,-56.5 77,-75.5 122,-75.5 122,-56.5 77,-56.5"/>
<text text-anchor="middle" x="99.5" y="-63.5" font-family="Helvetica,sans-Serif" font-size="10.00">iosfwd</text>
</g>
<!-- Node8&#45;&gt;Node10 -->
<g id="edge12" class="edge"><title>Node8&#45;&gt;Node10</title>
<path fill="none" stroke="midnightblue" d="M98.6433,-117.975C98.7844,-109.58 99.0045,-96.4806 99.1863,-85.6631"/>
<polygon fill="midnightblue" stroke="midnightblue" points="102.688,-85.5665 99.357,-75.5091 95.6893,-85.4488 102.688,-85.5665"/>
</g>
<!-- Node11&#45;&gt;Node5 -->
<g id="edge16" class="edge"><title>Node11&#45;&gt;Node5</title>
<path fill="none" stroke="midnightblue" d="M455.151,-179.476C418.114,-169.361 367.985,-155.67 329.004,-145.024"/>
<polygon fill="midnightblue" stroke="midnightblue" points="329.917,-141.645 319.348,-142.387 328.073,-148.398 329.917,-141.645"/>
</g>
<!-- Node11&#45;&gt;Node7 -->
<g id="edge15" class="edge"><title>Node11&#45;&gt;Node7</title>
<path fill="none" stroke="midnightblue" d="M510.11,-179.483C518.486,-146.957 539.247,-66.3427 548.689,-29.6829"/>
<polygon fill="midnightblue" stroke="midnightblue" points="552.124,-30.3756 551.229,-19.8187 545.345,-28.6298 552.124,-30.3756"/>
</g>
<!-- Node12 -->
<g id="node12" class="node"><title>Node12</title>
<polygon fill="none" stroke="#bfbfbf" points="539.5,-118 539.5,-137 583.5,-137 583.5,-118 539.5,-118"/>
<text text-anchor="middle" x="561.5" y="-125" font-family="Helvetica,sans-Serif" font-size="10.00">vector</text>
</g>
<!-- Node11&#45;&gt;Node12 -->
<g id="edge14" class="edge"><title>Node11&#45;&gt;Node12</title>
<path fill="none" stroke="midnightblue" d="M518.434,-179.396C527.01,-169.261 538.597,-155.567 547.592,-144.937"/>
<polygon fill="midnightblue" stroke="midnightblue" points="550.355,-147.089 554.143,-137.195 545.012,-142.568 550.355,-147.089"/>
</g>
<!-- Node13&#45;&gt;Node3 -->
<g id="edge20" class="edge"><title>Node13&#45;&gt;Node3</title>
<path fill="none" stroke="midnightblue" d="M742.276,-184.996C756.086,-182.98 770.818,-180.872 784.5,-179 910.121,-161.812 944.8,-174.947 1067.5,-143 1070.01,-142.346 1072.58,-141.561 1075.13,-140.699"/>
<polygon fill="midnightblue" stroke="midnightblue" points="1076.61,-143.885 1084.75,-137.108 1074.16,-137.328 1076.61,-143.885"/>
</g>
<!-- Node13&#45;&gt;Node4 -->
<g id="edge23" class="edge"><title>Node13&#45;&gt;Node4</title>
<path fill="none" stroke="midnightblue" d="M649.266,-184.936C599.802,-173.244 511.107,-152.28 456.855,-139.457"/>
<polygon fill="midnightblue" stroke="midnightblue" points="457.351,-135.978 446.814,-137.083 455.741,-142.79 457.351,-135.978"/>
</g>
<!-- Node13&#45;&gt;Node7 -->
<g id="edge19" class="edge"><title>Node13&#45;&gt;Node7</title>
<path fill="none" stroke="midnightblue" d="M674.028,-184.689C662.199,-175.233 643.673,-159.355 630.5,-143 600.382,-105.607 574.365,-55.1141 561.703,-28.731"/>
<polygon fill="midnightblue" stroke="midnightblue" points="564.821,-27.1363 557.388,-19.5859 558.49,-30.1233 564.821,-27.1363"/>
</g>
<!-- Node13&#45;&gt;Node12 -->
<g id="edge21" class="edge"><title>Node13&#45;&gt;Node12</title>
<path fill="none" stroke="midnightblue" d="M669.034,-184.869C648.096,-173.893 611.719,-154.824 587.137,-141.938"/>
<polygon fill="midnightblue" stroke="midnightblue" points="588.516,-138.71 578.034,-137.167 585.266,-144.91 588.516,-138.71"/>
</g>
<!-- Node14 -->
<g id="node14" class="node"><title>Node14</title>
<polygon fill="none" stroke="#bfbfbf" points="640,-118 640,-137 723,-137 723,-118 640,-118"/>
<text text-anchor="middle" x="681.5" y="-125" font-family="Helvetica,sans-Serif" font-size="10.00">unordered_map</text>
</g>
<!-- Node13&#45;&gt;Node14 -->
<g id="edge22" class="edge"><title>Node13&#45;&gt;Node14</title>
<path fill="none" stroke="midnightblue" d="M684.961,-184.734C684.373,-175.183 683.415,-159.618 682.656,-147.283"/>
<polygon fill="midnightblue" stroke="midnightblue" points="686.139,-146.893 682.031,-137.127 679.152,-147.323 686.139,-146.893"/>
</g>
<!-- Node15 -->
<g id="node15" class="node"><title>Node15</title>
<g id="a_node15"><a xlink:href="QualityObject_8h_source.html" target="_top" xlink:title="QualityControl/QualityObject.h">
<polygon fill="none" stroke="black" points="741,-118 741,-137 890,-137 890,-118 741,-118"/>
<text text-anchor="middle" x="815.5" y="-125" font-family="Helvetica,sans-Serif" font-size="10.00">QualityControl/QualityObject.h</text>
</a>
</g>
</g>
<!-- Node13&#45;&gt;Node15 -->
<g id="edge24" class="edge"><title>Node13&#45;&gt;Node15</title>
<path fill="none" stroke="midnightblue" d="M702.763,-184.869C724.811,-173.845 763.189,-154.655 788.964,-141.768"/>
<polygon fill="midnightblue" stroke="midnightblue" points="790.787,-144.77 798.166,-137.167 787.656,-138.509 790.787,-144.77"/>
</g>
<!-- Node21 -->
<g id="node21" class="node"><title>Node21</title>
<g id="a_node21"><a xlink:href="MonitorObject_8h.html" target="_top" xlink:title="QualityControl/MonitorObject.h">
<polygon fill="none" stroke="black" points="908,-118 908,-137 1059,-137 1059,-118 908,-118"/>
<text text-anchor="middle" x="983.5" y="-125" font-family="Helvetica,sans-Serif" font-size="10.00">QualityControl/MonitorObject.h</text>
</a>
</g>
</g>
<!-- Node13&#45;&gt;Node21 -->
<g id="edge32" class="edge"><title>Node13&#45;&gt;Node21</title>
<path fill="none" stroke="midnightblue" d="M724.765,-184.936C778.699,-173.171 875.68,-152.018 934.364,-139.218"/>
<polygon fill="midnightblue" stroke="midnightblue" points="935.124,-142.634 944.148,-137.083 933.632,-135.795 935.124,-142.634"/>
</g>
<!-- Node16 -->
<g id="node16" class="node"><title>Node16</title>
<polygon fill="none" stroke="#bfbfbf" points="756,-0.5 756,-19.5 791,-19.5 791,-0.5 756,-0.5"/>
<text text-anchor="middle" x="773.5" y="-7.5" font-family="Helvetica,sans-Serif" font-size="10.00">map</text>
</g>
<!-- Node15&#45;&gt;Node16 -->
<g id="edge25" class="edge"><title>Node15&#45;&gt;Node16</title>
<path fill="none" stroke="midnightblue" d="M811.037,-117.722C806.089,-107.774 798.072,-90.9901 792.5,-76 786.74,-60.5028 781.575,-42.4176 778.089,-29.264"/>
<polygon fill="midnightblue" stroke="midnightblue" points="781.467,-28.3484 775.58,-19.54 774.689,-30.0973 781.467,-28.3484"/>
</g>
<!-- Node17 -->
<g id="node17" class="node"><title>Node17</title>
<polygon fill="none" stroke="#bfbfbf" points="802,-56.5 802,-75.5 861,-75.5 861,-56.5 802,-56.5"/>
<text text-anchor="middle" x="831.5" y="-63.5" font-family="Helvetica,sans-Serif" font-size="10.00">TObject.h</text>
</g>
<!-- Node15&#45;&gt;Node17 -->
<g id="edge26" class="edge"><title>Node15&#45;&gt;Node17</title>
<path fill="none" stroke="midnightblue" d="M817.792,-117.975C820.074,-109.492 823.647,-96.2043 826.573,-85.3222"/>
<polygon fill="midnightblue" stroke="midnightblue" points="829.995,-86.0749 829.212,-75.5091 823.235,-84.2571 829.995,-86.0749"/>
</g>
<!-- Node18 -->
<g id="node18" class="node"><title>Node18</title>
<polygon fill="none" stroke="#bfbfbf" points="879.5,-56.5 879.5,-75.5 995.5,-75.5 995.5,-56.5 879.5,-56.5"/>
<text text-anchor="middle" x="937.5" y="-63.5" font-family="Helvetica,sans-Serif" font-size="10.00">Common/Exceptions.h</text>
</g>
<!-- Node15&#45;&gt;Node18 -->
<g id="edge27" class="edge"><title>Node15&#45;&gt;Node18</title>
<path fill="none" stroke="midnightblue" d="M832.98,-117.975C853.363,-108.034 887.275,-91.4947 910.925,-79.961"/>
<polygon fill="midnightblue" stroke="midnightblue" points="912.599,-83.0385 920.053,-75.5091 909.531,-76.7468 912.599,-83.0385"/>
</g>
<!-- Node19 -->
<g id="node19" class="node"><title>Node19</title>
<g id="a_node19"><a xlink:href="Quality_8h.html" target="_top" xlink:title="QualityControl/Quality.h">
<polygon fill="none" stroke="black" points="624,-56.5 624,-75.5 745,-75.5 745,-56.5 624,-56.5"/>
<text text-anchor="middle" x="684.5" y="-63.5" font-family="Helvetica,sans-Serif" font-size="10.00">QualityControl/Quality.h</text>
</a>
</g>
</g>
<!-- Node15&#45;&gt;Node19 -->
<g id="edge28" class="edge"><title>Node15&#45;&gt;Node19</title>
<path fill="none" stroke="midnightblue" d="M796.731,-117.975C774.649,-107.945 737.781,-91.2002 712.361,-79.6546"/>
<polygon fill="midnightblue" stroke="midnightblue" points="713.787,-76.4579 703.234,-75.5091 710.892,-82.8313 713.787,-76.4579"/>
</g>
<!-- Node19&#45;&gt;Node7 -->
<g id="edge30" class="edge"><title>Node19&#45;&gt;Node7</title>
<path fill="none" stroke="midnightblue" d="M663.743,-56.4435C642.184,-47.5566 608.237,-33.5632 583.706,-23.4514"/>
<polygon fill="midnightblue" stroke="midnightblue" points="584.739,-20.0917 574.16,-19.5164 582.072,-26.5634 584.739,-20.0917"/>
</g>
<!-- Node19&#45;&gt;Node16 -->
<g id="edge31" class="edge"><title>Node19&#45;&gt;Node16</title>
<path fill="none" stroke="midnightblue" d="M698.799,-56.324C712.683,-47.9002 733.992,-34.9709 750.304,-25.0741"/>
<polygon fill="midnightblue" stroke="midnightblue" points="752.502,-27.8341 759.236,-19.6545 748.871,-21.8495 752.502,-27.8341"/>
</g>
<!-- Node20 -->
<g id="node20" class="node"><title>Node20</title>
<polygon fill="none" stroke="#bfbfbf" points="940.5,-0.5 940.5,-19.5 996.5,-19.5 996.5,-0.5 940.5,-0.5"/>
<text text-anchor="middle" x="968.5" y="-7.5" font-family="Helvetica,sans-Serif" font-size="10.00">Rtypes.h</text>
</g>
<!-- Node19&#45;&gt;Node20 -->
<g id="edge29" class="edge"><title>Node19&#45;&gt;Node20</title>
<path fill="none" stroke="midnightblue" d="M729.501,-56.4435C785.074,-45.8768 878.616,-28.0907 930.664,-18.1942"/>
<polygon fill="midnightblue" stroke="midnightblue" points="931.327,-21.631 940.497,-16.3245 930.019,-14.7542 931.327,-21.631"/>
</g>
<!-- Node21&#45;&gt;Node7 -->
<g id="edge33" class="edge"><title>Node21&#45;&gt;Node7</title>
<path fill="none" stroke="midnightblue" d="M990.568,-117.988C1001.73,-103.477 1020.61,-73.8002 1004.5,-56 990.346,-40.363 683.462,-19.3484 584.185,-12.9368"/>
<polygon fill="midnightblue" stroke="midnightblue" points="584.388,-9.44274 574.184,-12.2951 583.94,-16.4284 584.388,-9.44274"/>
</g>
<!-- Node21&#45;&gt;Node16 -->
<g id="edge34" class="edge"><title>Node21&#45;&gt;Node16</title>
<path fill="none" stroke="midnightblue" d="M998.608,-117.831C1020.28,-104.322 1055.7,-77.5614 1037.5,-56 1007.44,-20.3861 862.578,-12.9546 801.139,-11.4063"/>
<polygon fill="midnightblue" stroke="midnightblue" points="801.091,-7.90457 791.017,-11.1862 800.939,-14.9029 801.091,-7.90457"/>
</g>
<!-- Node21&#45;&gt;Node17 -->
<g id="edge36" class="edge"><title>Node21&#45;&gt;Node17</title>
<path fill="none" stroke="midnightblue" d="M961.722,-117.975C935.762,-107.813 892.189,-90.7564 862.665,-79.1996"/>
<polygon fill="midnightblue" stroke="midnightblue" points="863.825,-75.8951 853.237,-75.5091 861.274,-82.4135 863.825,-75.8951"/>
</g>
<!-- Node21&#45;&gt;Node18 -->
<g id="edge37" class="edge"><title>Node21&#45;&gt;Node18</title>
<path fill="none" stroke="midnightblue" d="M976.909,-117.975C970.009,-109.05 958.998,-94.8071 950.366,-83.6425"/>
<polygon fill="midnightblue" stroke="midnightblue" points="952.964,-81.2798 944.078,-75.5091 947.426,-85.5612 952.964,-81.2798"/>
</g>
<!-- Node21&#45;&gt;Node20 -->
<g id="edge35" class="edge"><title>Node21&#45;&gt;Node20</title>
<path fill="none" stroke="midnightblue" d="M1013.19,-117.923C1046.82,-106.617 1094.6,-84.746 1075.5,-56 1060.28,-33.0867 1030.87,-21.8146 1006.73,-16.2837"/>
<polygon fill="midnightblue" stroke="midnightblue" points="1007.26,-12.8201 996.762,-14.2477 1005.86,-19.6785 1007.26,-12.8201"/>
</g>
<!-- Node23 -->
<g id="node23" class="node"><title>Node23</title>
<polygon fill="none" stroke="#bfbfbf" points="1006.5,-185 1006.5,-204 1136.5,-204 1136.5,-185 1006.5,-185"/>
<text text-anchor="middle" x="1071.5" y="-192" font-family="Helvetica,sans-Serif" font-size="10.00">InfoLogger/InfoLogger.hxx</text>
</g>
<!-- Node22&#45;&gt;Node23 -->
<g id="edge39" class="edge"><title>Node22&#45;&gt;Node23</title>
<path fill="none" stroke="midnightblue" d="M929.278,-251.869C957.783,-240.571 1007.93,-220.696 1040.42,-207.818"/>
<polygon fill="midnightblue" stroke="midnightblue" points="1041.89,-211.002 1049.89,-204.064 1039.31,-204.495 1041.89,-211.002"/>
</g>
<!-- Node24 -->
<g id="node24" class="node"><title>Node24</title>
<polygon fill="none" stroke="#bfbfbf" points="826.5,-185 826.5,-204 988.5,-204 988.5,-185 826.5,-185"/>
<text text-anchor="middle" x="907.5" y="-192" font-family="Helvetica,sans-Serif" font-size="10.00">InfoLogger/InfoLoggerMacros.hxx</text>
</g>
<!-- Node22&#45;&gt;Node24 -->
<g id="edge40" class="edge"><title>Node22&#45;&gt;Node24</title>
<path fill="none" stroke="midnightblue" d="M907.5,-251.734C907.5,-242.183 907.5,-226.618 907.5,-214.283"/>
<polygon fill="midnightblue" stroke="midnightblue" points="911,-214.127 907.5,-204.127 904,-214.127 911,-214.127"/>
</g>
</g>
</svg>
        <g id="navigator" transform="translate(0 0)" fill="#404254">
                <rect fill="#f2f5e9" fill-opacity="0.5" stroke="#606060" stroke-width=".5" x="0" y="0" width="60" height="60"/>
                <use id="zoomplus" xlink:href="#zoomPlus" x="17" y="9" onmousedown="handleZoom(evt,'in')"/>
                <use id="zoomminus" xlink:href="#zoomMin" x="42" y="9" onmousedown="handleZoom(evt,'out')"/>
                <use id="reset" xlink:href="#resetDef" x="30" y="36" onmousedown="handleReset()"/>
                <g id="arrowUp" xlink:href="#dirArrow" transform="translate(30 24)" onmousedown="handlePan(0,-1)">
                  <use xlink:href="#rim" fill="#404040">
                        <set attributeName="fill" to="#808080" begin="arrowUp.mouseover" end="arrowUp.mouseout"/>
                  </use>
                  <path fill="none" stroke="white" stroke-width="1.5" d="M0,-3.0v7 M-2.5,-0.5L0,-3.0L2.5,-0.5"/>
                </g>
                <g id="arrowRight" xlink:href="#dirArrow" transform="rotate(90) translate(36 -43)" onmousedown="handlePan(1,0)">
                  <use xlink:href="#rim" fill="#404040">
                        <set attributeName="fill" to="#808080" begin="arrowRight.mouseover" end="arrowRight.mouseout"/>
                  </use>
                  <path fill="none" stroke="white" stroke-width="1.5" d="M0,-3.0v7 M-2.5,-0.5L0,-3.0L2.5,-0.5"/>
                </g>
                <g id="arrowDown" xlink:href="#dirArrow" transform="rotate(180) translate(-30 -48)" onmousedown="handlePan(0,1)">
                  <use xlink:href="#rim" fill="#404040">
                        <set attributeName="fill" to="#808080" begin="arrowDown.mouseover" end="arrowDown.mouseout"/>
                  </use>
                  <path fill="none" stroke="white" stroke-width="1.5" d="M0,-3.0v7 M-2.5,-0.5L0,-3.0L2.5,-0.5"/>
                </g>
                <g id="arrowLeft" xlink:href="#dirArrow" transform="rotate(270) translate(-36 17)" onmousedown="handlePan(-1,0)">
                  <use xlink:href="#rim" fill="#404040">
                        <set attributeName="fill" to="#808080" begin="arrowLeft.mouseover" end="arrowLeft.mouseout"/>
                  </use>
                  <path fill="none" stroke="white" stroke-width="1.5" d="M0,-3.0v7 M-2.5,-0.5L0,-3.0L2.5,-0.5"/>
                </g>
        </g>
        <svg viewBox="0 0 15 15" width="100%" height="30px" preserveAspectRatio="xMaxYMin meet">
         <g id="arrow_out" transform="scale(0.3 0.3)">
          <a xlink:href="runPostProcessingOCC_8cxx__incl_org.svg" target="_base">
           <rect id="button" ry="5" rx="5" y="6" x="6" height="38" width="38"
                fill="#f2f5e9" fill-opacity="0.5" stroke="#606060" stroke-width="1.0"/>
           <path id="arrow"
             d="M 11.500037,31.436501 C 11.940474,20.09759 22.043105,11.32322 32.158766,21.979434 L 37.068811,17.246167 C 37.068811,17.246167 37.088388,32 37.088388,32 L 22.160133,31.978069 C 22.160133,31.978069 26.997745,27.140456 26.997745,27.140456 C 18.528582,18.264221 13.291696,25.230495 11.500037,31.436501 z"
             style="fill:#404040;"/>
          </a>
         </g>
        </svg>
</svg>
