<?xml version="1.0" encoding="UTF-8" standalone="no"?>
<!DOCTYPE svg PUBLIC "-//W3C//DTD SVG 1.1//EN"
 "http://www.w3.org/Graphics/SVG/1.1/DTD/svg11.dtd">
<!-- Generated by graphviz version 2.38.0 (20140413.2041)
 -->
<!-- Title: Modules/Skeleton/src/SkeletonTask.cxx Pages: 1 -->
<!--zoomable 330 -->
<svg id="main" version="1.1" xmlns="http://www.w3.org/2000/svg" xmlns:xlink="http://www.w3.org/1999/xlink" xml:space="preserve" onload="init(evt)">
<style type="text/css"><![CDATA[
.edge:hover path { stroke: red; }
.edge:hover polygon { stroke: red; fill: red; }
]]></style>
<script type="text/javascript"><![CDATA[
var edges = document.getElementsByTagName('g');
if (edges && edges.length) {
  for (var i=0;i<edges.length;i++) {
    if (edges[i].id.substr(0,4)=='edge') {
      edges[i].setAttribute('class','edge');
    }
  }
}
]]></script>
        <defs>
                <circle id="rim" cx="0" cy="0" r="7"/>
                <circle id="rim2" cx="0" cy="0" r="3.5"/>
                <g id="zoomPlus">
                        <use xlink:href="#rim" fill="#404040">
                                <set attributeName="fill" to="#808080" begin="zoomplus.mouseover" end="zoomplus.mouseout"/>
                        </use>
                        <path d="M-4,0h8M0,-4v8" fill="none" stroke="white" stroke-width="1.5" pointer-events="none"/>
                </g>
                <g id="zoomMin">
                        <use xlink:href="#rim" fill="#404040">
                                <set attributeName="fill" to="#808080" begin="zoomminus.mouseover" end="zoomminus.mouseout"/>
                        </use>
                        <path d="M-4,0h8" fill="none" stroke="white" stroke-width="1.5" pointer-events="none"/>
                </g>
                <g id="dirArrow">
                        <path fill="none" stroke="white" stroke-width="1.5" d="M0,-3.0v7 M-2.5,-0.5L0,-3.0L2.5,-0.5"/>
                </g>
               <g id="resetDef">
                       <use xlink:href="#rim2" fill="#404040">
                               <set attributeName="fill" to="#808080" begin="reset.mouseover" end="reset.mouseout"/>
                       </use>
               </g>
        </defs>

<script type="text/javascript">
var viewWidth = 1115;
var viewHeight = 330;
var sectionId = 'dynsection-0';
</script>
<script xlink:href="svgpan.js"/>
<svg id="graph" class="graph">
<g id="viewport">
<title>Modules/Skeleton/src/SkeletonTask.cxx</title>
<!-- Node1 -->
<g id="node1" class="node"><title>Node1</title>
<polygon fill="#bfbfbf" stroke="black" points="132.5,-291.5 132.5,-321.5 243.5,-321.5 243.5,-291.5 132.5,-291.5"/>
<text text-anchor="start" x="140.5" y="-309.5" font-family="Helvetica,sans-Serif" font-size="10.00">Modules/Skeleton/src</text>
<text text-anchor="middle" x="188" y="-298.5" font-family="Helvetica,sans-Serif" font-size="10.00">/SkeletonTask.cxx</text>
</g>
<!-- Node2 -->
<g id="node2" class="node"><title>Node2</title>
<polygon fill="none" stroke="#bfbfbf" points="25.5,-235.5 25.5,-254.5 90.5,-254.5 90.5,-235.5 25.5,-235.5"/>
<text text-anchor="middle" x="58" y="-242.5" font-family="Helvetica,sans-Serif" font-size="10.00">TCanvas.h</text>
</g>
<!-- Node1&#45;&gt;Node2 -->
<g id="edge1" class="edge"><title>Node1&#45;&gt;Node2</title>
<path fill="none" stroke="midnightblue" d="M157.192,-291.399C135.672,-281.55 107.163,-268.501 86.2323,-258.922"/>
<polygon fill="midnightblue" stroke="midnightblue" points="87.4656,-255.637 76.9162,-254.658 84.5524,-262.002 87.4656,-255.637"/>
</g>
<!-- Node3 -->
<g id="node3" class="node"><title>Node3</title>
<polygon fill="none" stroke="#bfbfbf" points="109,-235.5 109,-254.5 153,-254.5 153,-235.5 109,-235.5"/>
<text text-anchor="middle" x="131" y="-242.5" font-family="Helvetica,sans-Serif" font-size="10.00">TH1.h</text>
</g>
<!-- Node1&#45;&gt;Node3 -->
<g id="edge2" class="edge"><title>Node1&#45;&gt;Node3</title>
<path fill="none" stroke="midnightblue" d="M174.492,-291.399C166.038,-282.575 155.125,-271.183 146.345,-262.018"/>
<polygon fill="midnightblue" stroke="midnightblue" points="148.739,-259.458 139.294,-254.658 143.684,-264.3 148.739,-259.458"/>
</g>
<!-- Node4 -->
<g id="node4" class="node"><title>Node4</title>
<g id="a_node4"><a xlink:href="QcInfoLogger_8h.html" target="_top" xlink:title="QualityControl/QcInfoLogger.h">
<polygon fill="none" stroke="black" points="170.5,-235.5 170.5,-254.5 319.5,-254.5 319.5,-235.5 170.5,-235.5"/>
<text text-anchor="middle" x="245" y="-242.5" font-family="Helvetica,sans-Serif" font-size="10.00">QualityControl/QcInfoLogger.h</text>
</a>
</g>
</g>
<!-- Node1&#45;&gt;Node4 -->
<g id="edge3" class="edge"><title>Node1&#45;&gt;Node4</title>
<path fill="none" stroke="midnightblue" d="M201.508,-291.399C209.962,-282.575 220.875,-271.183 229.655,-262.018"/>
<polygon fill="midnightblue" stroke="midnightblue" points="232.316,-264.3 236.706,-254.658 227.261,-259.458 232.316,-264.3"/>
</g>
<!-- Node7 -->
<g id="node7" class="node"><title>Node7</title>
<g id="a_node7"><a xlink:href="SkeletonTask_8h.html" target="_top" xlink:title="Skeleton/SkeletonTask.h">
<polygon fill="none" stroke="black" points="339,-235.5 339,-254.5 465,-254.5 465,-235.5 339,-235.5"/>
<text text-anchor="middle" x="402" y="-242.5" font-family="Helvetica,sans-Serif" font-size="10.00">Skeleton/SkeletonTask.h</text>
</a>
</g>
</g>
<!-- Node1&#45;&gt;Node7 -->
<g id="edge6" class="edge"><title>Node1&#45;&gt;Node7</title>
<path fill="none" stroke="midnightblue" d="M238.444,-291.475C276.008,-281.03 326.623,-266.958 361.549,-257.247"/>
<polygon fill="midnightblue" stroke="midnightblue" points="362.709,-260.557 371.406,-254.506 360.834,-253.813 362.709,-260.557"/>
</g>
<!-- Node5 -->
<g id="node5" class="node"><title>Node5</title>
<polygon fill="none" stroke="#bfbfbf" points="180,-179.5 180,-198.5 310,-198.5 310,-179.5 180,-179.5"/>
<text text-anchor="middle" x="245" y="-186.5" font-family="Helvetica,sans-Serif" font-size="10.00">InfoLogger/InfoLogger.hxx</text>
</g>
<!-- Node4&#45;&gt;Node5 -->
<g id="edge4" class="edge"><title>Node4&#45;&gt;Node5</title>
<path fill="none" stroke="midnightblue" d="M245,-235.083C245,-228.006 245,-217.861 245,-208.986"/>
<polygon fill="midnightblue" stroke="midnightblue" points="248.5,-208.751 245,-198.751 241.5,-208.751 248.5,-208.751"/>
</g>
<!-- Node6 -->
<g id="node6" class="node"><title>Node6</title>
<polygon fill="none" stroke="#bfbfbf" points="0,-179.5 0,-198.5 162,-198.5 162,-179.5 0,-179.5"/>
<text text-anchor="middle" x="81" y="-186.5" font-family="Helvetica,sans-Serif" font-size="10.00">InfoLogger/InfoLoggerMacros.hxx</text>
</g>
<!-- Node4&#45;&gt;Node6 -->
<g id="edge5" class="edge"><title>Node4&#45;&gt;Node6</title>
<path fill="none" stroke="midnightblue" d="M219.014,-235.444C191.304,-226.32 147.248,-211.813 116.384,-201.651"/>
<polygon fill="midnightblue" stroke="midnightblue" points="117.458,-198.32 106.865,-198.516 115.268,-204.968 117.458,-198.32"/>
</g>
<!-- Node8 -->
<g id="node8" class="node"><title>Node8</title>
<g id="a_node8"><a xlink:href="TaskInterface_8h.html" target="_top" xlink:title="QualityControl/TaskInterface.h">
<polygon fill="none" stroke="black" points="328,-179.5 328,-198.5 478,-198.5 478,-179.5 328,-179.5"/>
<text text-anchor="middle" x="403" y="-186.5" font-family="Helvetica,sans-Serif" font-size="10.00">QualityControl/TaskInterface.h</text>
</a>
</g>
</g>
<!-- Node7&#45;&gt;Node8 -->
<g id="edge7" class="edge"><title>Node7&#45;&gt;Node8</title>
<path fill="none" stroke="midnightblue" d="M402.165,-235.083C402.296,-228.006 402.484,-217.861 402.648,-208.986"/>
<polygon fill="midnightblue" stroke="midnightblue" points="406.152,-208.814 402.838,-198.751 399.153,-208.685 406.152,-208.814"/>
</g>
<!-- Node9 -->
<g id="node9" class="node"><title>Node9</title>
<polygon fill="none" stroke="#bfbfbf" points="427.5,-0.5 427.5,-19.5 462.5,-19.5 462.5,-0.5 427.5,-0.5"/>
<text text-anchor="middle" x="445" y="-7.5" font-family="Helvetica,sans-Serif" font-size="10.00">map</text>
</g>
<!-- Node8&#45;&gt;Node9 -->
<g id="edge8" class="edge"><title>Node8&#45;&gt;Node9</title>
<path fill="none" stroke="midnightblue" d="M359.933,-179.486C339.604,-173.074 317.177,-161.991 305,-143 284.129,-110.45 282.223,-87.246 305,-56 330.537,-20.9681 383.792,-12.611 416.759,-10.9548"/>
<polygon fill="midnightblue" stroke="midnightblue" points="417.21,-14.4422 427.092,-10.6212 416.984,-7.4458 417.21,-14.4422"/>
</g>
<!-- Node10 -->
<g id="node10" class="node"><title>Node10</title>
<polygon fill="none" stroke="#bfbfbf" points="358,-62 358,-81 410,-81 410,-62 358,-62"/>
<text text-anchor="middle" x="384" y="-69" font-family="Helvetica,sans-Serif" font-size="10.00">memory</text>
</g>
<!-- Node8&#45;&gt;Node10 -->
<g id="edge9" class="edge"><title>Node8&#45;&gt;Node10</title>
<path fill="none" stroke="midnightblue" d="M395.849,-179.364C389.227,-170.763 379.843,-156.873 376,-143 371.231,-125.783 374.433,-105.447 378.105,-91.0511"/>
<polygon fill="midnightblue" stroke="midnightblue" points="381.495,-91.9279 380.881,-81.3508 374.765,-90.0022 381.495,-91.9279"/>
</g>
<!-- Node11 -->
<g id="node11" class="node"><title>Node11</title>
<polygon fill="none" stroke="#bfbfbf" points="512.5,-0.5 512.5,-19.5 553.5,-19.5 553.5,-0.5 512.5,-0.5"/>
<text text-anchor="middle" x="533" y="-7.5" font-family="Helvetica,sans-Serif" font-size="10.00">string</text>
</g>
<!-- Node8&#45;&gt;Node11 -->
<g id="edge10" class="edge"><title>Node8&#45;&gt;Node11</title>
<path fill="none" stroke="midnightblue" d="M394.021,-179.452C371.664,-157.146 317.508,-96.1226 349,-56 358.502,-43.8943 452.483,-25.4328 502.322,-16.3824"/>
<polygon fill="midnightblue" stroke="midnightblue" points="503.017,-19.8136 512.24,-14.5997 501.779,-12.924 503.017,-19.8136"/>
</g>
<!-- Node12 -->
<g id="node12" class="node"><title>Node12</title>
<polygon fill="none" stroke="#bfbfbf" points="262.5,-0.5 262.5,-19.5 345.5,-19.5 345.5,-0.5 262.5,-0.5"/>
<text text-anchor="middle" x="304" y="-7.5" font-family="Helvetica,sans-Serif" font-size="10.00">unordered_map</text>
</g>
<!-- Node8&#45;&gt;Node12 -->
<g id="edge11" class="edge"><title>Node8&#45;&gt;Node12</title>
<path fill="none" stroke="midnightblue" d="M350.261,-179.473C328.408,-173.143 304.951,-162.133 291,-143 266.218,-109.013 283.42,-56.3226 295.31,-28.9237"/>
<polygon fill="midnightblue" stroke="midnightblue" points="298.528,-30.3022 299.508,-19.7528 292.163,-27.3886 298.528,-30.3022"/>
</g>
<!-- Node13 -->
<g id="node13" class="node"><title>Node13</title>
<polygon fill="none" stroke="#bfbfbf" points="385.5,-123.5 385.5,-142.5 510.5,-142.5 510.5,-123.5 385.5,-123.5"/>
<text text-anchor="middle" x="448" y="-130.5" font-family="Helvetica,sans-Serif" font-size="10.00">Framework/InitContext.h</text>
</g>
<!-- Node8&#45;&gt;Node13 -->
<g id="edge12" class="edge"><title>Node8&#45;&gt;Node13</title>
<path fill="none" stroke="midnightblue" d="M410.431,-179.083C416.853,-171.377 426.306,-160.033 434.122,-150.653"/>
<polygon fill="midnightblue" stroke="midnightblue" points="436.994,-152.674 440.707,-142.751 431.617,-148.193 436.994,-152.674"/>
</g>
<!-- Node14 -->
<g id="node14" class="node"><title>Node14</title>
<polygon fill="none" stroke="#bfbfbf" points="529,-123.5 529,-142.5 689,-142.5 689,-123.5 529,-123.5"/>
<text text-anchor="middle" x="609" y="-130.5" font-family="Helvetica,sans-Serif" font-size="10.00">Framework/ProcessingContext.h</text>
</g>
<!-- Node8&#45;&gt;Node14 -->
<g id="edge13" class="edge"><title>Node8&#45;&gt;Node14</title>
<path fill="none" stroke="midnightblue" d="M435.641,-179.444C471.05,-170.162 527.709,-155.309 566.553,-145.127"/>
<polygon fill="midnightblue" stroke="midnightblue" points="567.726,-148.438 576.511,-142.516 565.951,-141.667 567.726,-148.438"/>
</g>
<!-- Node15 -->
<g id="node15" class="node"><title>Node15</title>
<g id="a_node15"><a xlink:href="Activity_8h.html" target="_top" xlink:title="QualityControl/Activity.h">
<polygon fill="none" stroke="black" points="707.5,-123.5 707.5,-142.5 830.5,-142.5 830.5,-123.5 707.5,-123.5"/>
<text text-anchor="middle" x="769" y="-130.5" font-family="Helvetica,sans-Serif" font-size="10.00">QualityControl/Activity.h</text>
</a>
</g>
</g>
<!-- Node8&#45;&gt;Node15 -->
<g id="edge14" class="edge"><title>Node8&#45;&gt;Node15</title>
<path fill="none" stroke="midnightblue" d="M460.994,-179.444C526.314,-169.806 632.337,-154.163 701.37,-143.978"/>
<polygon fill="midnightblue" stroke="midnightblue" points="701.896,-147.439 711.278,-142.516 700.874,-140.514 701.896,-147.439"/>
</g>
<!-- Node16 -->
<g id="node16" class="node"><title>Node16</title>
<g id="a_node16"><a xlink:href="ObjectsManager_8h.html" target="_top" xlink:title="QualityControl/ObjectsManager.h">
<polygon fill="none" stroke="black" points="848.5,-123.5 848.5,-142.5 1009.5,-142.5 1009.5,-123.5 848.5,-123.5"/>
<text text-anchor="middle" x="929" y="-130.5" font-family="Helvetica,sans-Serif" font-size="10.00">QualityControl/ObjectsManager.h</text>
</a>
</g>
</g>
<!-- Node8&#45;&gt;Node16 -->
<g id="edge15" class="edge"><title>Node8&#45;&gt;Node16</title>
<path fill="none" stroke="midnightblue" d="M478.083,-180.292C572.994,-170.548 736.249,-153.788 838.105,-143.331"/>
<polygon fill="midnightblue" stroke="midnightblue" points="838.481,-146.811 848.072,-142.308 837.766,-139.848 838.481,-146.811"/>
</g>
<!-- Node16&#45;&gt;Node10 -->
<g id="edge29" class="edge"><title>Node16&#45;&gt;Node10</title>
<path fill="none" stroke="midnightblue" d="M848.475,-123.805C845.615,-123.531 842.783,-123.261 840,-123 655.674,-105.686 605.944,-126.178 425,-87 421.576,-86.2586 418.045,-85.3094 414.56,-84.2523"/>
<polygon fill="midnightblue" stroke="midnightblue" points="415.577,-80.902 404.983,-81.0698 413.369,-87.5448 415.577,-80.902"/>
</g>
<!-- Node16&#45;&gt;Node11 -->
<g id="edge28" class="edge"><title>Node16&#45;&gt;Node11</title>
<path fill="none" stroke="midnightblue" d="M856.137,-123.471C772.144,-113.301 642.908,-96.4916 622,-87 613.725,-83.2434 573.549,-47.6194 550.101,-26.5039"/>
<polygon fill="midnightblue" stroke="midnightblue" points="552.353,-23.8209 542.585,-19.7162 547.661,-29.016 552.353,-23.8209"/>
</g>
<!-- Node17 -->
<g id="node17" class="node"><title>Node17</title>
<g id="a_node17"><a xlink:href="MonitorObject_8h.html" target="_top" xlink:title="QualityControl/MonitorObject.h">
<polygon fill="none" stroke="black" points="630.5,-62 630.5,-81 781.5,-81 781.5,-62 630.5,-62"/>
<text text-anchor="middle" x="706" y="-69" font-family="Helvetica,sans-Serif" font-size="10.00">QualityControl/MonitorObject.h</text>
</a>
</g>
</g>
<!-- Node16&#45;&gt;Node17 -->
<g id="edge16" class="edge"><title>Node16&#45;&gt;Node17</title>
<path fill="none" stroke="midnightblue" d="M897.05,-123.475C857.804,-113.004 791.122,-95.2118 747.827,-83.6601"/>
<polygon fill="midnightblue" stroke="midnightblue" points="748.456,-80.2054 737.891,-81.0091 746.651,-86.9688 748.456,-80.2054"/>
</g>
<!-- Node21 -->
<g id="node21" class="node"><title>Node21</title>
<g id="a_node21"><a xlink:href="MonitorObjectCollection_8h.html" target="_top" xlink:title="QualityControl/MonitorObject\lCollection.h">
<polygon fill="none" stroke="black" points="857.5,-56.5 857.5,-86.5 1000.5,-86.5 1000.5,-56.5 857.5,-56.5"/>
<text text-anchor="start" x="865.5" y="-74.5" font-family="Helvetica,sans-Serif" font-size="10.00">QualityControl/MonitorObject</text>
<text text-anchor="middle" x="929" y="-63.5" font-family="Helvetica,sans-Serif" font-size="10.00">Collection.h</text>
</a>
</g>
</g>
<!-- Node16&#45;&gt;Node21 -->
<g id="edge22" class="edge"><title>Node16&#45;&gt;Node21</title>
<path fill="none" stroke="midnightblue" d="M929,-123.475C929,-116.471 929,-106.192 929,-96.6956"/>
<polygon fill="midnightblue" stroke="midnightblue" points="932.5,-96.5229 929,-86.523 925.5,-96.523 932.5,-96.5229"/>
</g>
<!-- Node24 -->
<g id="node24" class="node"><title>Node24</title>
<g id="a_node24"><a xlink:href="TaskConfig_8h.html" target="_top" xlink:title="QualityControl/TaskConfig.h">
<polygon fill="none" stroke="black" points="434,-62 434,-81 574,-81 574,-62 434,-62"/>
<text text-anchor="middle" x="504" y="-69" font-family="Helvetica,sans-Serif" font-size="10.00">QualityControl/TaskConfig.h</text>
</a>
</g>
</g>
<!-- Node16&#45;&gt;Node24 -->
<g id="edge25" class="edge"><title>Node16&#45;&gt;Node24</title>
<path fill="none" stroke="midnightblue" d="M858.023,-123.467C788.965,-114.969 681.127,-101.177 588,-87 579.39,-85.6893 570.299,-84.2149 561.404,-82.7213"/>
<polygon fill="midnightblue" stroke="midnightblue" points="561.925,-79.2598 551.48,-81.0346 560.752,-86.1608 561.925,-79.2598"/>
</g>
<!-- Node17&#45;&gt;Node9 -->
<g id="edge18" class="edge"><title>Node17&#45;&gt;Node9</title>
<path fill="none" stroke="midnightblue" d="M668.605,-61.9751C615.532,-49.8761 519.591,-28.0045 472.534,-17.277"/>
<polygon fill="midnightblue" stroke="midnightblue" points="473.264,-13.8536 462.736,-15.0433 471.708,-20.6785 473.264,-13.8536"/>
</g>
<!-- Node17&#45;&gt;Node11 -->
<g id="edge17" class="edge"><title>Node17&#45;&gt;Node11</title>
<path fill="none" stroke="midnightblue" d="M681.213,-61.9751C650.139,-51.2877 596.894,-32.975 563.395,-21.4536"/>
<polygon fill="midnightblue" stroke="midnightblue" points="564.273,-18.0547 553.679,-18.112 561.997,-24.6741 564.273,-18.0547"/>
</g>
<!-- Node18 -->
<g id="node18" class="node"><title>Node18</title>
<polygon fill="none" stroke="#bfbfbf" points="602,-0.5 602,-19.5 658,-19.5 658,-0.5 602,-0.5"/>
<text text-anchor="middle" x="630" y="-7.5" font-family="Helvetica,sans-Serif" font-size="10.00">Rtypes.h</text>
</g>
<!-- Node17&#45;&gt;Node18 -->
<g id="edge19" class="edge"><title>Node17&#45;&gt;Node18</title>
<path fill="none" stroke="midnightblue" d="M695.111,-61.9751C683.034,-52.5199 663.333,-37.0961 648.76,-25.6871"/>
<polygon fill="midnightblue" stroke="midnightblue" points="650.9,-22.9177 640.869,-19.5091 646.585,-28.4295 650.9,-22.9177"/>
</g>
<!-- Node19 -->
<g id="node19" class="node"><title>Node19</title>
<polygon fill="none" stroke="#bfbfbf" points="676.5,-0.5 676.5,-19.5 735.5,-19.5 735.5,-0.5 676.5,-0.5"/>
<text text-anchor="middle" x="706" y="-7.5" font-family="Helvetica,sans-Serif" font-size="10.00">TObject.h</text>
</g>
<!-- Node17&#45;&gt;Node19 -->
<g id="edge20" class="edge"><title>Node17&#45;&gt;Node19</title>
<path fill="none" stroke="midnightblue" d="M706,-61.9751C706,-53.5803 706,-40.4806 706,-29.6631"/>
<polygon fill="midnightblue" stroke="midnightblue" points="709.5,-29.5091 706,-19.5091 702.5,-29.5091 709.5,-29.5091"/>
</g>
<!-- Node20 -->
<g id="node20" class="node"><title>Node20</title>
<polygon fill="none" stroke="#bfbfbf" points="754,-0.5 754,-19.5 870,-19.5 870,-0.5 754,-0.5"/>
<text text-anchor="middle" x="812" y="-7.5" font-family="Helvetica,sans-Serif" font-size="10.00">Common/Exceptions.h</text>
</g>
<!-- Node17&#45;&gt;Node20 -->
<g id="edge21" class="edge"><title>Node17&#45;&gt;Node20</title>
<path fill="none" stroke="midnightblue" d="M721.187,-61.9751C738.662,-52.1664 767.579,-35.9346 788.083,-24.425"/>
<polygon fill="midnightblue" stroke="midnightblue" points="789.834,-27.456 796.841,-19.5091 786.408,-21.3519 789.834,-27.456"/>
</g>
<!-- Node22 -->
<g id="node22" class="node"><title>Node22</title>
<polygon fill="none" stroke="#bfbfbf" points="891.5,-0.5 891.5,-19.5 960.5,-19.5 960.5,-0.5 891.5,-0.5"/>
<text text-anchor="middle" x="926" y="-7.5" font-family="Helvetica,sans-Serif" font-size="10.00">TObjArray.h</text>
</g>
<!-- Node21&#45;&gt;Node22 -->
<g id="edge23" class="edge"><title>Node21&#45;&gt;Node22</title>
<path fill="none" stroke="midnightblue" d="M928.289,-56.3993C927.889,-48.4664 927.384,-38.458 926.951,-29.8583"/>
<polygon fill="midnightblue" stroke="midnightblue" points="930.436,-29.4688 926.437,-19.6578 923.445,-29.8214 930.436,-29.4688"/>
</g>
<!-- Node23 -->
<g id="node23" class="node"><title>Node23</title>
<polygon fill="none" stroke="#bfbfbf" points="979,-0.5 979,-19.5 1107,-19.5 1107,-0.5 979,-0.5"/>
<text text-anchor="middle" x="1043" y="-7.5" font-family="Helvetica,sans-Serif" font-size="10.00">Mergers/MergeInterface.h</text>
</g>
<!-- Node21&#45;&gt;Node23 -->
<g id="edge24" class="edge"><title>Node21&#45;&gt;Node23</title>
<path fill="none" stroke="midnightblue" d="M956.016,-56.3993C974.631,-46.6837 999.21,-33.8551 1017.49,-24.3137"/>
<polygon fill="midnightblue" stroke="midnightblue" points="1019.17,-27.3876 1026.41,-19.6578 1015.93,-21.182 1019.17,-27.3876"/>
</g>
<!-- Node24&#45;&gt;Node11 -->
<g id="edge26" class="edge"><title>Node24&#45;&gt;Node11</title>
<path fill="none" stroke="midnightblue" d="M508.155,-61.9751C512.376,-53.3152 519.037,-39.6486 524.4,-28.6453"/>
<polygon fill="midnightblue" stroke="midnightblue" points="527.618,-30.0317 528.853,-19.5091 521.325,-26.9648 527.618,-30.0317"/>
</g>
<!-- Node24&#45;&gt;Node12 -->
<g id="edge27" class="edge"><title>Node24&#45;&gt;Node12</title>
<path fill="none" stroke="midnightblue" d="M475.345,-61.9751C440.444,-51.592 381.35,-34.0116 342.5,-22.4538"/>
<polygon fill="midnightblue" stroke="midnightblue" points="343.185,-19.0059 332.602,-19.5091 341.189,-25.7153 343.185,-19.0059"/>
</g>
</g>
</svg>
        <g id="navigator" transform="translate(0 0)" fill="#404254">
                <rect fill="#f2f5e9" fill-opacity="0.5" stroke="#606060" stroke-width=".5" x="0" y="0" width="60" height="60"/>
                <use id="zoomplus" xlink:href="#zoomPlus" x="17" y="9" onmousedown="handleZoom(evt,'in')"/>
                <use id="zoomminus" xlink:href="#zoomMin" x="42" y="9" onmousedown="handleZoom(evt,'out')"/>
                <use id="reset" xlink:href="#resetDef" x="30" y="36" onmousedown="handleReset()"/>
                <g id="arrowUp" xlink:href="#dirArrow" transform="translate(30 24)" onmousedown="handlePan(0,-1)">
                  <use xlink:href="#rim" fill="#404040">
                        <set attributeName="fill" to="#808080" begin="arrowUp.mouseover" end="arrowUp.mouseout"/>
                  </use>
                  <path fill="none" stroke="white" stroke-width="1.5" d="M0,-3.0v7 M-2.5,-0.5L0,-3.0L2.5,-0.5"/>
                </g>
                <g id="arrowRight" xlink:href="#dirArrow" transform="rotate(90) translate(36 -43)" onmousedown="handlePan(1,0)">
                  <use xlink:href="#rim" fill="#404040">
                        <set attributeName="fill" to="#808080" begin="arrowRight.mouseover" end="arrowRight.mouseout"/>
                  </use>
                  <path fill="none" stroke="white" stroke-width="1.5" d="M0,-3.0v7 M-2.5,-0.5L0,-3.0L2.5,-0.5"/>
                </g>
                <g id="arrowDown" xlink:href="#dirArrow" transform="rotate(180) translate(-30 -48)" onmousedown="handlePan(0,1)">
                  <use xlink:href="#rim" fill="#404040">
                        <set attributeName="fill" to="#808080" begin="arrowDown.mouseover" end="arrowDown.mouseout"/>
                  </use>
                  <path fill="none" stroke="white" stroke-width="1.5" d="M0,-3.0v7 M-2.5,-0.5L0,-3.0L2.5,-0.5"/>
                </g>
                <g id="arrowLeft" xlink:href="#dirArrow" transform="rotate(270) translate(-36 17)" onmousedown="handlePan(-1,0)">
                  <use xlink:href="#rim" fill="#404040">
                        <set attributeName="fill" to="#808080" begin="arrowLeft.mouseover" end="arrowLeft.mouseout"/>
                  </use>
                  <path fill="none" stroke="white" stroke-width="1.5" d="M0,-3.0v7 M-2.5,-0.5L0,-3.0L2.5,-0.5"/>
                </g>
        </g>
        <svg viewBox="0 0 15 15" width="100%" height="30px" preserveAspectRatio="xMaxYMin meet">
         <g id="arrow_out" transform="scale(0.3 0.3)">
          <a xlink:href="SkeletonTask_8cxx__incl_org.svg" target="_base">
           <rect id="button" ry="5" rx="5" y="6" x="6" height="38" width="38"
                fill="#f2f5e9" fill-opacity="0.5" stroke="#606060" stroke-width="1.0"/>
           <path id="arrow"
             d="M 11.500037,31.436501 C 11.940474,20.09759 22.043105,11.32322 32.158766,21.979434 L 37.068811,17.246167 C 37.068811,17.246167 37.088388,32 37.088388,32 L 22.160133,31.978069 C 22.160133,31.978069 26.997745,27.140456 26.997745,27.140456 C 18.528582,18.264221 13.291696,25.230495 11.500037,31.436501 z"
             style="fill:#404040;"/>
          </a>
         </g>
        </svg>
</svg>
