<?xml version="1.0" encoding="UTF-8" standalone="no"?>
<!DOCTYPE svg PUBLIC "-//W3C//DTD SVG 1.1//EN"
 "http://www.w3.org/Graphics/SVG/1.1/DTD/svg11.dtd">
<!-- Generated by graphviz version 2.38.0 (20140413.2041)
 -->
<!-- Title: o2::quality_control::postprocessing::TrendingTaskConfig Pages: 1 -->
<svg width="547pt" height="419pt"
 viewBox="0.00 0.00 547.00 419.00" xmlns="http://www.w3.org/2000/svg" xmlns:xlink="http://www.w3.org/1999/xlink">
<g id="graph0" class="graph" transform="scale(1 1) rotate(0) translate(4 415)">
<title>o2::quality_control::postprocessing::TrendingTaskConfig</title>
<!-- Node1 -->
<g id="node1" class="node"><title>Node1</title>
<polygon fill="#bfbfbf" stroke="black" points="206.5,-0.5 206.5,-101.5 338.5,-101.5 338.5,-0.5 206.5,-0.5"/>
<text text-anchor="start" x="214.5" y="-89.5" font-family="Helvetica,sans-Serif" font-size="10.00">o2::quality_control</text>
<text text-anchor="start" x="214.5" y="-78.5" font-family="Helvetica,sans-Serif" font-size="10.00">::postprocessing::Trending</text>
<text text-anchor="middle" x="272.5" y="-67.5" font-family="Helvetica,sans-Serif" font-size="10.00">TaskConfig</text>
<polyline fill="none" stroke="black" points="206.5,-60.5 338.5,-60.5 "/>
<text text-anchor="middle" x="272.5" y="-48.5" font-family="Helvetica,sans-Serif" font-size="10.00"> </text>
<polyline fill="none" stroke="black" points="206.5,-41.5 338.5,-41.5 "/>
<text text-anchor="start" x="214.5" y="-29.5" font-family="Helvetica,sans-Serif" font-size="10.00">+ TrendingTaskConfig()</text>
<text text-anchor="start" x="214.5" y="-18.5" font-family="Helvetica,sans-Serif" font-size="10.00">+ TrendingTaskConfig()</text>
<text text-anchor="start" x="214.5" y="-7.5" font-family="Helvetica,sans-Serif" font-size="10.00">+ ~TrendingTaskConfig()</text>
</g>
<!-- Node2 -->
<g id="node2" class="node"><title>Node2</title>
<g id="a_node2"><a xlink:href="structo2_1_1quality__control_1_1postprocessing_1_1PostProcessingConfig.html" target="_top" xlink:title="Post&#45;processing configuration structure. ">
<polygon fill="none" stroke="black" points="18.5,-149.5 18.5,-250.5 182.5,-250.5 182.5,-149.5 18.5,-149.5"/>
<text text-anchor="start" x="26.5" y="-238.5" font-family="Helvetica,sans-Serif" font-size="10.00">o2::quality_control</text>
<text text-anchor="start" x="26.5" y="-227.5" font-family="Helvetica,sans-Serif" font-size="10.00">::postprocessing::PostProcessing</text>
<text text-anchor="middle" x="100.5" y="-216.5" font-family="Helvetica,sans-Serif" font-size="10.00">Config</text>
<polyline fill="none" stroke="black" points="18.5,-209.5 182.5,-209.5 "/>
<text text-anchor="middle" x="100.5" y="-197.5" font-family="Helvetica,sans-Serif" font-size="10.00"> </text>
<polyline fill="none" stroke="black" points="18.5,-190.5 182.5,-190.5 "/>
<text text-anchor="start" x="26.5" y="-178.5" font-family="Helvetica,sans-Serif" font-size="10.00">+ PostProcessingConfig()</text>
<text text-anchor="start" x="26.5" y="-167.5" font-family="Helvetica,sans-Serif" font-size="10.00">+ PostProcessingConfig()</text>
<text text-anchor="start" x="26.5" y="-156.5" font-family="Helvetica,sans-Serif" font-size="10.00">+ ~PostProcessingConfig()</text>
</a>
</g>
</g>
<!-- Node2&#45;&gt;Node1 -->
<g id="edge1" class="edge"><title>Node2&#45;&gt;Node1</title>
<path fill="none" stroke="midnightblue" d="M166.394,-142.684C182.179,-129.193 198.922,-114.884 214.329,-101.716"/>
<polygon fill="none" stroke="midnightblue" points="164.059,-140.075 158.731,-149.233 168.607,-145.396 164.059,-140.075"/>
</g>
<!-- Node3 -->
<g id="node3" class="node"><title>Node3</title>
<polygon fill="none" stroke="#bfbfbf" points="0,-353.5 0,-410.5 105,-410.5 105,-353.5 0,-353.5"/>
<text text-anchor="middle" x="52.5" y="-398.5" font-family="Helvetica,sans-Serif" font-size="10.00">vector&lt; std::string &gt;</text>
<polyline fill="none" stroke="#bfbfbf" points="0,-391.5 105,-391.5 "/>
<text text-anchor="middle" x="52.5" y="-379.5" font-family="Helvetica,sans-Serif" font-size="10.00"> </text>
<polyline fill="none" stroke="#bfbfbf" points="0,-372.5 105,-372.5 "/>
<text text-anchor="middle" x="52.5" y="-360.5" font-family="Helvetica,sans-Serif" font-size="10.00"> </text>
</g>
<!-- Node3&#45;&gt;Node2 -->
<g id="edge2" class="edge"><title>Node3&#45;&gt;Node2</title>
<path fill="none" stroke="#404040" d="M48.2913,-353.133C45.8453,-330.03 44.7483,-296.62 53.5,-269 54.262,-266.595 55.1409,-264.2 56.1172,-261.825"/>
<polygon fill="none" stroke="#404040" points="56.1649,-261.724 55.1315,-254.587 61.3218,-250.889 62.3552,-258.025 56.1649,-261.724"/>
<text text-anchor="middle" x="90.5" y="-310.5" font-family="Helvetica,sans-Serif" font-size="10.00"> +updateTriggers</text>
<text text-anchor="middle" x="90.5" y="-299.5" font-family="Helvetica,sans-Serif" font-size="10.00">+stopTriggers</text>
<text text-anchor="middle" x="90.5" y="-288.5" font-family="Helvetica,sans-Serif" font-size="10.00">+initTriggers</text>
</g>
<!-- Node4 -->
<g id="node4" class="node"><title>Node4</title>
<polygon fill="none" stroke="#bfbfbf" points="129,-353.5 129,-410.5 170,-410.5 170,-353.5 129,-353.5"/>
<text text-anchor="middle" x="149.5" y="-398.5" font-family="Helvetica,sans-Serif" font-size="10.00">string</text>
<polyline fill="none" stroke="#bfbfbf" points="129,-391.5 170,-391.5 "/>
<text text-anchor="middle" x="149.5" y="-379.5" font-family="Helvetica,sans-Serif" font-size="10.00"> </text>
<polyline fill="none" stroke="#bfbfbf" points="129,-372.5 170,-372.5 "/>
<text text-anchor="middle" x="149.5" y="-360.5" font-family="Helvetica,sans-Serif" font-size="10.00"> </text>
</g>
<!-- Node4&#45;&gt;Node2 -->
<g id="edge3" class="edge"><title>Node4&#45;&gt;Node2</title>
<path fill="none" stroke="#404040" d="M145.474,-353.041C141.833,-330.174 135.773,-297.137 127.5,-269 126.842,-266.761 126.139,-264.493 125.401,-262.211"/>
<polygon fill="none" stroke="#404040" points="125.368,-262.116 119.635,-257.742 121.467,-250.767 127.201,-255.141 125.368,-262.116"/>
<text text-anchor="middle" x="176.5" y="-327" font-family="Helvetica,sans-Serif" font-size="10.00"> +qcdbUrl</text>
<text text-anchor="middle" x="176.5" y="-316" font-family="Helvetica,sans-Serif" font-size="10.00">+ccdbUrl</text>
<text text-anchor="middle" x="176.5" y="-305" font-family="Helvetica,sans-Serif" font-size="10.00">+detectorName</text>
<text text-anchor="middle" x="176.5" y="-294" font-family="Helvetica,sans-Serif" font-size="10.00">+moduleName</text>
<text text-anchor="middle" x="176.5" y="-283" font-family="Helvetica,sans-Serif" font-size="10.00">+taskName</text>
<text text-anchor="middle" x="176.5" y="-272" font-family="Helvetica,sans-Serif" font-size="10.00">+className</text>
</g>
<!-- Node5 -->
<g id="node5" class="node"><title>Node5</title>
<polygon fill="none" stroke="#bfbfbf" points="201,-160.5 201,-239.5 344,-239.5 344,-160.5 201,-160.5"/>
<text text-anchor="start" x="209" y="-227.5" font-family="Helvetica,sans-Serif" font-size="10.00">vector&lt; o2::quality</text>
<text text-anchor="start" x="209" y="-216.5" font-family="Helvetica,sans-Serif" font-size="10.00">_control::postprocessing</text>
<text text-anchor="middle" x="272.5" y="-205.5" font-family="Helvetica,sans-Serif" font-size="10.00">::TrendingTaskConfig::Plot &gt;</text>
<polyline fill="none" stroke="#bfbfbf" points="201,-198.5 344,-198.5 "/>
<text text-anchor="middle" x="272.5" y="-186.5" font-family="Helvetica,sans-Serif" font-size="10.00"> </text>
<polyline fill="none" stroke="#bfbfbf" points="201,-179.5 344,-179.5 "/>
<text text-anchor="middle" x="272.5" y="-167.5" font-family="Helvetica,sans-Serif" font-size="10.00"> </text>
</g>
<!-- Node5&#45;&gt;Node1 -->
<g id="edge4" class="edge"><title>Node5&#45;&gt;Node1</title>
<path fill="none" stroke="#404040" d="M272.5,-160.377C272.5,-146.215 272.5,-129.803 272.5,-114.102"/>
<polygon fill="none" stroke="#404040" points="272.5,-113.719 268.5,-107.719 272.5,-101.719 276.5,-107.719 272.5,-113.719"/>
<text text-anchor="middle" x="288" y="-123" font-family="Helvetica,sans-Serif" font-size="10.00"> +plots</text>
</g>
<!-- Node6 -->
<g id="node6" class="node"><title>Node6</title>
<polygon fill="none" stroke="#bfbfbf" points="362,-160.5 362,-239.5 539,-239.5 539,-160.5 362,-160.5"/>
<text text-anchor="start" x="370" y="-227.5" font-family="Helvetica,sans-Serif" font-size="10.00">vector&lt; o2::quality</text>
<text text-anchor="start" x="370" y="-216.5" font-family="Helvetica,sans-Serif" font-size="10.00">_control::postprocessing</text>
<text text-anchor="middle" x="450.5" y="-205.5" font-family="Helvetica,sans-Serif" font-size="10.00">::TrendingTaskConfig::DataSource &gt;</text>
<polyline fill="none" stroke="#bfbfbf" points="362,-198.5 539,-198.5 "/>
<text text-anchor="middle" x="450.5" y="-186.5" font-family="Helvetica,sans-Serif" font-size="10.00"> </text>
<polyline fill="none" stroke="#bfbfbf" points="362,-179.5 539,-179.5 "/>
<text text-anchor="middle" x="450.5" y="-167.5" font-family="Helvetica,sans-Serif" font-size="10.00"> </text>
</g>
<!-- Node6&#45;&gt;Node1 -->
<g id="edge5" class="edge"><title>Node6&#45;&gt;Node1</title>
<path fill="none" stroke="#404040" d="M403.733,-160.377C384.885,-144.812 362.748,-126.531 342.08,-109.462"/>
<polygon fill="none" stroke="#404040" points="341.957,-109.361 334.784,-108.624 332.704,-101.719 339.878,-102.456 341.957,-109.361"/>
<text text-anchor="middle" x="399.5" y="-123" font-family="Helvetica,sans-Serif" font-size="10.00"> +dataSources</text>
</g>
</g>
</svg>
