<?xml version="1.0" encoding="UTF-8" standalone="no"?>
<!DOCTYPE svg PUBLIC "-//W3C//DTD SVG 1.1//EN"
 "http://www.w3.org/Graphics/SVG/1.1/DTD/svg11.dtd">
<!-- Generated by graphviz version 2.38.0 (20140413.2041)
 -->
<!-- Title: o2::quality_control::postprocessing::PostProcessingConfig Pages: 1 -->
<svg width="218pt" height="270pt"
 viewBox="0.00 0.00 217.50 270.00" xmlns="http://www.w3.org/2000/svg" xmlns:xlink="http://www.w3.org/1999/xlink">
<g id="graph0" class="graph" transform="scale(1 1) rotate(0) translate(4 266)">
<title>o2::quality_control::postprocessing::PostProcessingConfig</title>
<!-- Node1 -->
<g id="node1" class="node"><title>Node1</title>
<polygon fill="#bfbfbf" stroke="black" points="18.5,-0.5 18.5,-101.5 182.5,-101.5 182.5,-0.5 18.5,-0.5"/>
<text text-anchor="start" x="26.5" y="-89.5" font-family="Helvetica,sans-Serif" font-size="10.00">o2::quality_control</text>
<text text-anchor="start" x="26.5" y="-78.5" font-family="Helvetica,sans-Serif" font-size="10.00">::postprocessing::PostProcessing</text>
<text text-anchor="middle" x="100.5" y="-67.5" font-family="Helvetica,sans-Serif" font-size="10.00">Config</text>
<polyline fill="none" stroke="black" points="18.5,-60.5 182.5,-60.5 "/>
<text text-anchor="middle" x="100.5" y="-48.5" font-family="Helvetica,sans-Serif" font-size="10.00"> </text>
<polyline fill="none" stroke="black" points="18.5,-41.5 182.5,-41.5 "/>
<text text-anchor="start" x="26.5" y="-29.5" font-family="Helvetica,sans-Serif" font-size="10.00">+ PostProcessingConfig()</text>
<text text-anchor="start" x="26.5" y="-18.5" font-family="Helvetica,sans-Serif" font-size="10.00">+ PostProcessingConfig()</text>
<text text-anchor="start" x="26.5" y="-7.5" font-family="Helvetica,sans-Serif" font-size="10.00">+ ~PostProcessingConfig()</text>
</g>
<!-- Node2 -->
<g id="node2" class="node"><title>Node2</title>
<polygon fill="none" stroke="#bfbfbf" points="0,-204.5 0,-261.5 105,-261.5 105,-204.5 0,-204.5"/>
<text text-anchor="middle" x="52.5" y="-249.5" font-family="Helvetica,sans-Serif" font-size="10.00">vector&lt; std::string &gt;</text>
<polyline fill="none" stroke="#bfbfbf" points="0,-242.5 105,-242.5 "/>
<text text-anchor="middle" x="52.5" y="-230.5" font-family="Helvetica,sans-Serif" font-size="10.00"> </text>
<polyline fill="none" stroke="#bfbfbf" points="0,-223.5 105,-223.5 "/>
<text text-anchor="middle" x="52.5" y="-211.5" font-family="Helvetica,sans-Serif" font-size="10.00"> </text>
</g>
<!-- Node2&#45;&gt;Node1 -->
<g id="edge1" class="edge"><title>Node2&#45;&gt;Node1</title>
<path fill="none" stroke="#404040" d="M48.2913,-204.133C45.8453,-181.03 44.7483,-147.62 53.5,-120 54.262,-117.595 55.1409,-115.2 56.1172,-112.825"/>
<polygon fill="none" stroke="#404040" points="56.1649,-112.724 55.1315,-105.587 61.3218,-101.889 62.3552,-109.025 56.1649,-112.724"/>
<text text-anchor="middle" x="90.5" y="-161.5" font-family="Helvetica,sans-Serif" font-size="10.00"> +updateTriggers</text>
<text text-anchor="middle" x="90.5" y="-150.5" font-family="Helvetica,sans-Serif" font-size="10.00">+stopTriggers</text>
<text text-anchor="middle" x="90.5" y="-139.5" font-family="Helvetica,sans-Serif" font-size="10.00">+initTriggers</text>
</g>
<!-- Node3 -->
<g id="node3" class="node"><title>Node3</title>
<polygon fill="none" stroke="#bfbfbf" points="129,-204.5 129,-261.5 170,-261.5 170,-204.5 129,-204.5"/>
<text text-anchor="middle" x="149.5" y="-249.5" font-family="Helvetica,sans-Serif" font-size="10.00">string</text>
<polyline fill="none" stroke="#bfbfbf" points="129,-242.5 170,-242.5 "/>
<text text-anchor="middle" x="149.5" y="-230.5" font-family="Helvetica,sans-Serif" font-size="10.00"> </text>
<polyline fill="none" stroke="#bfbfbf" points="129,-223.5 170,-223.5 "/>
<text text-anchor="middle" x="149.5" y="-211.5" font-family="Helvetica,sans-Serif" font-size="10.00"> </text>
</g>
<!-- Node3&#45;&gt;Node1 -->
<g id="edge2" class="edge"><title>Node3&#45;&gt;Node1</title>
<path fill="none" stroke="#404040" d="M145.474,-204.041C141.833,-181.174 135.773,-148.137 127.5,-120 126.842,-117.761 126.139,-115.493 125.401,-113.211"/>
<polygon fill="none" stroke="#404040" points="125.368,-113.116 119.635,-108.742 121.467,-101.767 127.201,-106.141 125.368,-113.116"/>
<text text-anchor="middle" x="175.5" y="-178" font-family="Helvetica,sans-Serif" font-size="10.00"> +qcdbUrl</text>
<text text-anchor="middle" x="175.5" y="-167" font-family="Helvetica,sans-Serif" font-size="10.00">+ccdbUrl</text>
<text text-anchor="middle" x="175.5" y="-156" font-family="Helvetica,sans-Serif" font-size="10.00">+detectorName</text>
<text text-anchor="middle" x="175.5" y="-145" font-family="Helvetica,sans-Serif" font-size="10.00">+moduleName</text>
<text text-anchor="middle" x="175.5" y="-134" font-family="Helvetica,sans-Serif" font-size="10.00">+taskName</text>
<text text-anchor="middle" x="175.5" y="-123" font-family="Helvetica,sans-Serif" font-size="10.00">+className</text>
</g>
</g>
</svg>
