<?xml version="1.0" encoding="UTF-8" standalone="no"?>
<!DOCTYPE svg PUBLIC "-//W3C//DTD SVG 1.1//EN"
 "http://www.w3.org/Graphics/SVG/1.1/DTD/svg11.dtd">
<!-- Generated by graphviz version 2.38.0 (20140413.2041)
 -->
<!-- Title: Modules/TOF/include/TOF/TaskDiagnostics.h Pages: 1 -->
<svg width="1187pt" height="285pt"
 viewBox="0.00 0.00 1187.00 285.00" xmlns="http://www.w3.org/2000/svg" xmlns:xlink="http://www.w3.org/1999/xlink">
<g id="graph0" class="graph" transform="scale(1 1) rotate(0) translate(4 281)">
<title>Modules/TOF/include/TOF/TaskDiagnostics.h</title>
<!-- Node1 -->
<g id="node1" class="node"><title>Node1</title>
<polygon fill="#bfbfbf" stroke="black" points="371,-246.5 371,-276.5 495,-276.5 495,-246.5 371,-246.5"/>
<text text-anchor="start" x="379" y="-264.5" font-family="Helvetica,sans-Serif" font-size="10.00">Modules/TOF/include</text>
<text text-anchor="middle" x="433" y="-253.5" font-family="Helvetica,sans-Serif" font-size="10.00">/TOF/TaskDiagnostics.h</text>
</g>
<!-- Node2 -->
<g id="node2" class="node"><title>Node2</title>
<polygon fill="none" stroke="#bfbfbf" points="113,-179.5 113,-209.5 255,-209.5 255,-179.5 113,-179.5"/>
<text text-anchor="start" x="121" y="-197.5" font-family="Helvetica,sans-Serif" font-size="10.00">TOFReconstruction/Decoder</text>
<text text-anchor="middle" x="184" y="-186.5" font-family="Helvetica,sans-Serif" font-size="10.00">Base.h</text>
</g>
<!-- Node1&#45;&gt;Node2 -->
<g id="edge1" class="edge"><title>Node1&#45;&gt;Node2</title>
<path fill="none" stroke="midnightblue" d="M379.277,-246.476C340.711,-236.408 288.576,-222.799 247.876,-212.174"/>
<polygon fill="midnightblue" stroke="midnightblue" points="248.615,-208.75 238.056,-209.611 246.847,-215.523 248.615,-208.75"/>
</g>
<!-- Node3 -->
<g id="node3" class="node"><title>Node3</title>
<polygon fill="none" stroke="#bfbfbf" points="273,-179.5 273,-209.5 425,-209.5 425,-179.5 273,-179.5"/>
<text text-anchor="start" x="281" y="-197.5" font-family="Helvetica,sans-Serif" font-size="10.00">DataFormatsTOF/Compressed</text>
<text text-anchor="middle" x="349" y="-186.5" font-family="Helvetica,sans-Serif" font-size="10.00">DataFormat.h</text>
</g>
<!-- Node1&#45;&gt;Node3 -->
<g id="edge2" class="edge"><title>Node1&#45;&gt;Node3</title>
<path fill="none" stroke="midnightblue" d="M414.773,-246.396C403.215,-237.452 388.076,-225.737 375.236,-215.802"/>
<polygon fill="midnightblue" stroke="midnightblue" points="377.242,-212.928 367.191,-209.577 372.958,-218.464 377.242,-212.928"/>
</g>
<!-- Node4 -->
<g id="node4" class="node"><title>Node4</title>
<g id="a_node4"><a xlink:href="TaskInterface_8h.html" target="_top" xlink:title="QualityControl/TaskInterface.h">
<polygon fill="none" stroke="black" points="443,-185 443,-204 593,-204 593,-185 443,-185"/>
<text text-anchor="middle" x="518" y="-192" font-family="Helvetica,sans-Serif" font-size="10.00">QualityControl/TaskInterface.h</text>
</a>
</g>
</g>
<!-- Node1&#45;&gt;Node4 -->
<g id="edge3" class="edge"><title>Node1&#45;&gt;Node4</title>
<path fill="none" stroke="midnightblue" d="M451.444,-246.396C465.353,-235.759 484.389,-221.203 498.54,-210.381"/>
<polygon fill="midnightblue" stroke="midnightblue" points="500.813,-213.049 506.63,-204.195 496.561,-207.489 500.813,-213.049"/>
</g>
<!-- Node21 -->
<g id="node21" class="node"><title>Node21</title>
<g id="a_node21"><a xlink:href="Counter_8h.html" target="_top" xlink:title="Utilities to count events and fill histograms at the end of the main processing loops. ">
<polygon fill="none" stroke="black" points="870.5,-185 870.5,-204 955.5,-204 955.5,-185 870.5,-185"/>
<text text-anchor="middle" x="913" y="-192" font-family="Helvetica,sans-Serif" font-size="10.00">Base/Counter.h</text>
</a>
</g>
</g>
<!-- Node1&#45;&gt;Node21 -->
<g id="edge26" class="edge"><title>Node1&#45;&gt;Node21</title>
<path fill="none" stroke="midnightblue" d="M495.26,-252.069C590.543,-239.166 770.861,-214.748 860.158,-202.656"/>
<polygon fill="midnightblue" stroke="midnightblue" points="860.886,-206.089 870.326,-201.279 859.947,-199.152 860.886,-206.089"/>
</g>
<!-- Node5 -->
<g id="node5" class="node"><title>Node5</title>
<polygon fill="none" stroke="#bfbfbf" points="233.5,-0.5 233.5,-19.5 268.5,-19.5 268.5,-0.5 233.5,-0.5"/>
<text text-anchor="middle" x="251" y="-7.5" font-family="Helvetica,sans-Serif" font-size="10.00">map</text>
</g>
<!-- Node4&#45;&gt;Node5 -->
<g id="edge4" class="edge"><title>Node4&#45;&gt;Node5</title>
<path fill="none" stroke="midnightblue" d="M471.873,-184.966C459.591,-182.85 446.314,-180.703 434,-179 357.644,-168.438 154.898,-182.991 89,-143 53.0789,-121.201 25.5062,-88.6131 52,-56 99.3214,2.25123 144.903,-37.0282 223.606,-19.6159"/>
<polygon fill="midnightblue" stroke="midnightblue" points="224.503,-22.9996 233.37,-17.2011 222.822,-16.2043 224.503,-22.9996"/>
</g>
<!-- Node6 -->
<g id="node6" class="node"><title>Node6</title>
<polygon fill="none" stroke="#bfbfbf" points="61,-62 61,-81 113,-81 113,-62 61,-62"/>
<text text-anchor="middle" x="87" y="-69" font-family="Helvetica,sans-Serif" font-size="10.00">memory</text>
</g>
<!-- Node4&#45;&gt;Node6 -->
<g id="edge5" class="edge"><title>Node4&#45;&gt;Node6</title>
<path fill="none" stroke="midnightblue" d="M471.428,-184.935C459.269,-182.843 446.163,-180.716 434,-179 361.392,-168.759 161.683,-190.71 106,-143 91.2825,-130.39 87.3675,-107.696 86.6013,-91.4607"/>
<polygon fill="midnightblue" stroke="midnightblue" points="90.0965,-90.9791 86.4905,-81.0169 83.0969,-91.0535 90.0965,-90.9791"/>
</g>
<!-- Node7 -->
<g id="node7" class="node"><title>Node7</title>
<polygon fill="none" stroke="#bfbfbf" points="573.5,-0.5 573.5,-19.5 614.5,-19.5 614.5,-0.5 573.5,-0.5"/>
<text text-anchor="middle" x="594" y="-7.5" font-family="Helvetica,sans-Serif" font-size="10.00">string</text>
</g>
<!-- Node4&#45;&gt;Node7 -->
<g id="edge6" class="edge"><title>Node4&#45;&gt;Node7</title>
<path fill="none" stroke="midnightblue" d="M593.193,-187.133C652.943,-180.331 729.597,-167.103 749,-143 792.072,-89.4947 680.433,-41.1575 624.148,-20.9744"/>
<polygon fill="midnightblue" stroke="midnightblue" points="625.249,-17.6515 614.654,-17.6484 622.934,-24.2579 625.249,-17.6515"/>
</g>
<!-- Node8 -->
<g id="node8" class="node"><title>Node8</title>
<polygon fill="none" stroke="#bfbfbf" points="687.5,-0.5 687.5,-19.5 770.5,-19.5 770.5,-0.5 687.5,-0.5"/>
<text text-anchor="middle" x="729" y="-7.5" font-family="Helvetica,sans-Serif" font-size="10.00">unordered_map</text>
</g>
<!-- Node4&#45;&gt;Node8 -->
<g id="edge7" class="edge"><title>Node4&#45;&gt;Node8</title>
<path fill="none" stroke="midnightblue" d="M593.273,-188.509C658.366,-182.438 745.328,-169.508 767,-143 794.936,-108.83 762.617,-55.0742 742.566,-27.912"/>
<polygon fill="midnightblue" stroke="midnightblue" points="745.201,-25.5964 736.341,-19.7867 739.644,-29.8535 745.201,-25.5964"/>
</g>
<!-- Node9 -->
<g id="node9" class="node"><title>Node9</title>
<polygon fill="none" stroke="#bfbfbf" points="294.5,-123.5 294.5,-142.5 419.5,-142.5 419.5,-123.5 294.5,-123.5"/>
<text text-anchor="middle" x="357" y="-130.5" font-family="Helvetica,sans-Serif" font-size="10.00">Framework/InitContext.h</text>
</g>
<!-- Node4&#45;&gt;Node9 -->
<g id="edge8" class="edge"><title>Node4&#45;&gt;Node9</title>
<path fill="none" stroke="midnightblue" d="M494.933,-184.975C467.315,-174.769 420.88,-157.608 389.604,-146.049"/>
<polygon fill="midnightblue" stroke="midnightblue" points="390.618,-142.693 380.025,-142.509 388.191,-149.259 390.618,-142.693"/>
</g>
<!-- Node10 -->
<g id="node10" class="node"><title>Node10</title>
<polygon fill="none" stroke="#bfbfbf" points="438,-123.5 438,-142.5 598,-142.5 598,-123.5 438,-123.5"/>
<text text-anchor="middle" x="518" y="-130.5" font-family="Helvetica,sans-Serif" font-size="10.00">Framework/ProcessingContext.h</text>
</g>
<!-- Node4&#45;&gt;Node10 -->
<g id="edge9" class="edge"><title>Node4&#45;&gt;Node10</title>
<path fill="none" stroke="midnightblue" d="M518,-184.975C518,-176.58 518,-163.481 518,-152.663"/>
<polygon fill="midnightblue" stroke="midnightblue" points="521.5,-152.509 518,-142.509 514.5,-152.509 521.5,-152.509"/>
</g>
<!-- Node11 -->
<g id="node11" class="node"><title>Node11</title>
<g id="a_node11"><a xlink:href="Activity_8h.html" target="_top" xlink:title="QualityControl/Activity.h">
<polygon fill="none" stroke="black" points="616.5,-123.5 616.5,-142.5 739.5,-142.5 739.5,-123.5 616.5,-123.5"/>
<text text-anchor="middle" x="678" y="-130.5" font-family="Helvetica,sans-Serif" font-size="10.00">QualityControl/Activity.h</text>
</a>
</g>
</g>
<!-- Node4&#45;&gt;Node11 -->
<g id="edge10" class="edge"><title>Node4&#45;&gt;Node11</title>
<path fill="none" stroke="midnightblue" d="M540.924,-184.975C568.37,-174.769 614.516,-157.608 645.599,-146.049"/>
<polygon fill="midnightblue" stroke="midnightblue" points="646.965,-149.275 655.118,-142.509 644.526,-142.714 646.965,-149.275"/>
</g>
<!-- Node12 -->
<g id="node12" class="node"><title>Node12</title>
<g id="a_node12"><a xlink:href="ObjectsManager_8h.html" target="_top" xlink:title="QualityControl/ObjectsManager.h">
<polygon fill="none" stroke="black" points="115.5,-123.5 115.5,-142.5 276.5,-142.5 276.5,-123.5 115.5,-123.5"/>
<text text-anchor="middle" x="196" y="-130.5" font-family="Helvetica,sans-Serif" font-size="10.00">QualityControl/ObjectsManager.h</text>
</a>
</g>
</g>
<!-- Node4&#45;&gt;Node12 -->
<g id="edge11" class="edge"><title>Node4&#45;&gt;Node12</title>
<path fill="none" stroke="midnightblue" d="M471.865,-184.975C413.881,-174.261 314.421,-155.882 252.099,-144.366"/>
<polygon fill="midnightblue" stroke="midnightblue" points="252.519,-140.884 242.049,-142.509 251.247,-147.768 252.519,-140.884"/>
</g>
<!-- Node12&#45;&gt;Node6 -->
<g id="edge25" class="edge"><title>Node12&#45;&gt;Node6</title>
<path fill="none" stroke="midnightblue" d="M180.383,-123.475C162.414,-113.666 132.679,-97.4346 111.594,-85.925"/>
<polygon fill="midnightblue" stroke="midnightblue" points="113.042,-82.7284 102.588,-81.0091 109.689,-88.8726 113.042,-82.7284"/>
</g>
<!-- Node12&#45;&gt;Node7 -->
<g id="edge24" class="edge"><title>Node12&#45;&gt;Node7</title>
<path fill="none" stroke="midnightblue" d="M264.623,-123.481C331.582,-114.63 428.406,-100.246 464,-87 488.86,-77.7486 492.14,-69.4547 515,-56 533.137,-45.3253 553.81,-33.5635 569.459,-24.7425"/>
<polygon fill="midnightblue" stroke="midnightblue" points="571.484,-27.6188 578.485,-19.6662 568.053,-21.5175 571.484,-27.6188"/>
</g>
<!-- Node13 -->
<g id="node13" class="node"><title>Node13</title>
<g id="a_node13"><a xlink:href="MonitorObject_8h.html" target="_top" xlink:title="QualityControl/MonitorObject.h">
<polygon fill="none" stroke="black" points="304.5,-62 304.5,-81 455.5,-81 455.5,-62 304.5,-62"/>
<text text-anchor="middle" x="380" y="-69" font-family="Helvetica,sans-Serif" font-size="10.00">QualityControl/MonitorObject.h</text>
</a>
</g>
</g>
<!-- Node12&#45;&gt;Node13 -->
<g id="edge12" class="edge"><title>Node12&#45;&gt;Node13</title>
<path fill="none" stroke="midnightblue" d="M222.363,-123.475C254.335,-113.136 308.376,-95.6611 344.122,-84.1017"/>
<polygon fill="midnightblue" stroke="midnightblue" points="345.248,-87.4162 353.686,-81.0091 343.094,-80.7558 345.248,-87.4162"/>
</g>
<!-- Node17 -->
<g id="node17" class="node"><title>Node17</title>
<g id="a_node17"><a xlink:href="MonitorObjectCollection_8h.html" target="_top" xlink:title="QualityControl/MonitorObject\lCollection.h">
<polygon fill="none" stroke="black" points="131.5,-56.5 131.5,-86.5 274.5,-86.5 274.5,-56.5 131.5,-56.5"/>
<text text-anchor="start" x="139.5" y="-74.5" font-family="Helvetica,sans-Serif" font-size="10.00">QualityControl/MonitorObject</text>
<text text-anchor="middle" x="203" y="-63.5" font-family="Helvetica,sans-Serif" font-size="10.00">Collection.h</text>
</a>
</g>
</g>
<!-- Node12&#45;&gt;Node17 -->
<g id="edge18" class="edge"><title>Node12&#45;&gt;Node17</title>
<path fill="none" stroke="midnightblue" d="M197.003,-123.475C197.827,-116.471 199.036,-106.192 200.153,-96.6956"/>
<polygon fill="midnightblue" stroke="midnightblue" points="203.658,-96.8635 201.35,-86.523 196.706,-96.0455 203.658,-96.8635"/>
</g>
<!-- Node20 -->
<g id="node20" class="node"><title>Node20</title>
<g id="a_node20"><a xlink:href="TaskConfig_8h.html" target="_top" xlink:title="QualityControl/TaskConfig.h">
<polygon fill="none" stroke="black" points="524,-62 524,-81 664,-81 664,-62 524,-62"/>
<text text-anchor="middle" x="594" y="-69" font-family="Helvetica,sans-Serif" font-size="10.00">QualityControl/TaskConfig.h</text>
</a>
</g>
</g>
<!-- Node12&#45;&gt;Node20 -->
<g id="edge21" class="edge"><title>Node12&#45;&gt;Node20</title>
<path fill="none" stroke="midnightblue" d="M259.23,-123.479C322.698,-114.799 423.237,-100.703 510,-87 518.405,-85.6725 527.272,-84.2099 535.97,-82.7397"/>
<polygon fill="midnightblue" stroke="midnightblue" points="536.795,-86.1496 546.065,-81.0181 535.618,-79.2492 536.795,-86.1496"/>
</g>
<!-- Node13&#45;&gt;Node5 -->
<g id="edge14" class="edge"><title>Node13&#45;&gt;Node5</title>
<path fill="none" stroke="midnightblue" d="M361.517,-61.9751C339.622,-51.8762 302.965,-34.9685 277.919,-23.4161"/>
<polygon fill="midnightblue" stroke="midnightblue" points="279.167,-20.1373 268.62,-19.1271 276.235,-26.4937 279.167,-20.1373"/>
</g>
<!-- Node13&#45;&gt;Node7 -->
<g id="edge13" class="edge"><title>Node13&#45;&gt;Node7</title>
<path fill="none" stroke="midnightblue" d="M411.975,-61.9697C446.79,-52.6278 504.35,-37.0263 563.476,-20.0995"/>
<polygon fill="midnightblue" stroke="midnightblue" points="564.716,-23.385 573.362,-17.2611 562.784,-16.6569 564.716,-23.385"/>
</g>
<!-- Node14 -->
<g id="node14" class="node"><title>Node14</title>
<polygon fill="none" stroke="#bfbfbf" points="287,-0.5 287,-19.5 343,-19.5 343,-0.5 287,-0.5"/>
<text text-anchor="middle" x="315" y="-7.5" font-family="Helvetica,sans-Serif" font-size="10.00">Rtypes.h</text>
</g>
<!-- Node13&#45;&gt;Node14 -->
<g id="edge15" class="edge"><title>Node13&#45;&gt;Node14</title>
<path fill="none" stroke="midnightblue" d="M370.687,-61.9751C360.551,-52.6966 344.136,-37.6706 331.748,-26.331"/>
<polygon fill="midnightblue" stroke="midnightblue" points="334.035,-23.6795 324.296,-19.5091 329.309,-28.8429 334.035,-23.6795"/>
</g>
<!-- Node15 -->
<g id="node15" class="node"><title>Node15</title>
<polygon fill="none" stroke="#bfbfbf" points="361.5,-0.5 361.5,-19.5 420.5,-19.5 420.5,-0.5 361.5,-0.5"/>
<text text-anchor="middle" x="391" y="-7.5" font-family="Helvetica,sans-Serif" font-size="10.00">TObject.h</text>
</g>
<!-- Node13&#45;&gt;Node15 -->
<g id="edge16" class="edge"><title>Node13&#45;&gt;Node15</title>
<path fill="none" stroke="midnightblue" d="M381.576,-61.9751C383.128,-53.5803 385.55,-40.4806 387.55,-29.6631"/>
<polygon fill="midnightblue" stroke="midnightblue" points="391.051,-29.9788 389.427,-19.5091 384.167,-28.7062 391.051,-29.9788"/>
</g>
<!-- Node16 -->
<g id="node16" class="node"><title>Node16</title>
<polygon fill="none" stroke="#bfbfbf" points="439,-0.5 439,-19.5 555,-19.5 555,-0.5 439,-0.5"/>
<text text-anchor="middle" x="497" y="-7.5" font-family="Helvetica,sans-Serif" font-size="10.00">Common/Exceptions.h</text>
</g>
<!-- Node13&#45;&gt;Node16 -->
<g id="edge17" class="edge"><title>Node13&#45;&gt;Node16</title>
<path fill="none" stroke="midnightblue" d="M396.763,-61.9751C416.225,-52.078 448.545,-35.6416 471.211,-24.1151"/>
<polygon fill="midnightblue" stroke="midnightblue" points="472.941,-27.1619 480.268,-19.5091 469.768,-20.9224 472.941,-27.1619"/>
</g>
<!-- Node18 -->
<g id="node18" class="node"><title>Node18</title>
<polygon fill="none" stroke="#bfbfbf" points="146.5,-0.5 146.5,-19.5 215.5,-19.5 215.5,-0.5 146.5,-0.5"/>
<text text-anchor="middle" x="181" y="-7.5" font-family="Helvetica,sans-Serif" font-size="10.00">TObjArray.h</text>
</g>
<!-- Node17&#45;&gt;Node18 -->
<g id="edge19" class="edge"><title>Node17&#45;&gt;Node18</title>
<path fill="none" stroke="midnightblue" d="M197.786,-56.3993C194.787,-48.2881 190.986,-38.0071 187.759,-29.2807"/>
<polygon fill="midnightblue" stroke="midnightblue" points="190.952,-27.8233 184.201,-19.6578 184.386,-30.251 190.952,-27.8233"/>
</g>
<!-- Node19 -->
<g id="node19" class="node"><title>Node19</title>
<polygon fill="none" stroke="#bfbfbf" points="0,-0.5 0,-19.5 128,-19.5 128,-0.5 0,-0.5"/>
<text text-anchor="middle" x="64" y="-7.5" font-family="Helvetica,sans-Serif" font-size="10.00">Mergers/MergeInterface.h</text>
</g>
<!-- Node17&#45;&gt;Node19 -->
<g id="edge20" class="edge"><title>Node17&#45;&gt;Node19</title>
<path fill="none" stroke="midnightblue" d="M170.059,-56.3993C146.841,-46.4608 116.014,-33.2649 93.5813,-23.6625"/>
<polygon fill="midnightblue" stroke="midnightblue" points="94.7962,-20.3754 84.2257,-19.6578 92.0416,-26.8106 94.7962,-20.3754"/>
</g>
<!-- Node20&#45;&gt;Node7 -->
<g id="edge22" class="edge"><title>Node20&#45;&gt;Node7</title>
<path fill="none" stroke="midnightblue" d="M594,-61.9751C594,-53.5803 594,-40.4806 594,-29.6631"/>
<polygon fill="midnightblue" stroke="midnightblue" points="597.5,-29.5091 594,-19.5091 590.5,-29.5091 597.5,-29.5091"/>
</g>
<!-- Node20&#45;&gt;Node8 -->
<g id="edge23" class="edge"><title>Node20&#45;&gt;Node8</title>
<path fill="none" stroke="midnightblue" d="M613.342,-61.9751C636.099,-51.9455 674.092,-35.2002 700.288,-23.6546"/>
<polygon fill="midnightblue" stroke="midnightblue" points="701.955,-26.7449 709.694,-19.5091 699.131,-20.3395 701.955,-26.7449"/>
</g>
<!-- Node22 -->
<g id="node22" class="node"><title>Node22</title>
<polygon fill="none" stroke="#bfbfbf" points="834,-123.5 834,-142.5 878,-142.5 878,-123.5 834,-123.5"/>
<text text-anchor="middle" x="856" y="-130.5" font-family="Helvetica,sans-Serif" font-size="10.00">TH1.h</text>
</g>
<!-- Node21&#45;&gt;Node22 -->
<g id="edge27" class="edge"><title>Node21&#45;&gt;Node22</title>
<path fill="none" stroke="midnightblue" d="M904.833,-184.975C896.114,-175.873 882.096,-161.241 871.311,-149.983"/>
<polygon fill="midnightblue" stroke="midnightblue" points="873.597,-147.309 864.152,-142.509 868.542,-152.151 873.597,-147.309"/>
</g>
<!-- Node23 -->
<g id="node23" class="node"><title>Node23</title>
<g id="a_node23"><a xlink:href="QcInfoLogger_8h.html" target="_top" xlink:title="QualityControl/QcInfoLogger.h">
<polygon fill="none" stroke="black" points="895.5,-123.5 895.5,-142.5 1044.5,-142.5 1044.5,-123.5 895.5,-123.5"/>
<text text-anchor="middle" x="970" y="-130.5" font-family="Helvetica,sans-Serif" font-size="10.00">QualityControl/QcInfoLogger.h</text>
</a>
</g>
</g>
<!-- Node21&#45;&gt;Node23 -->
<g id="edge28" class="edge"><title>Node21&#45;&gt;Node23</title>
<path fill="none" stroke="midnightblue" d="M921.167,-184.975C929.886,-175.873 943.904,-161.241 954.689,-149.983"/>
<polygon fill="midnightblue" stroke="midnightblue" points="957.458,-152.151 961.848,-142.509 952.403,-147.309 957.458,-152.151"/>
</g>
<!-- Node26 -->
<g id="node26" class="node"><title>Node26</title>
<polygon fill="none" stroke="#bfbfbf" points="1062.5,-123.5 1062.5,-142.5 1159.5,-142.5 1159.5,-123.5 1062.5,-123.5"/>
<text text-anchor="middle" x="1111" y="-130.5" font-family="Helvetica,sans-Serif" font-size="10.00">fairlogger/Logger.h</text>
</g>
<!-- Node21&#45;&gt;Node26 -->
<g id="edge31" class="edge"><title>Node21&#45;&gt;Node26</title>
<path fill="none" stroke="midnightblue" d="M941.369,-184.975C975.921,-174.592 1034.42,-157.012 1072.88,-145.454"/>
<polygon fill="midnightblue" stroke="midnightblue" points="1074.11,-148.739 1082.68,-142.509 1072.1,-142.035 1074.11,-148.739"/>
</g>
<!-- Node24 -->
<g id="node24" class="node"><title>Node24</title>
<polygon fill="none" stroke="#bfbfbf" points="869,-62 869,-81 999,-81 999,-62 869,-62"/>
<text text-anchor="middle" x="934" y="-69" font-family="Helvetica,sans-Serif" font-size="10.00">InfoLogger/InfoLogger.hxx</text>
</g>
<!-- Node23&#45;&gt;Node24 -->
<g id="edge29" class="edge"><title>Node23&#45;&gt;Node24</title>
<path fill="none" stroke="midnightblue" d="M964.842,-123.475C959.549,-114.727 951.165,-100.869 944.473,-89.8093"/>
<polygon fill="midnightblue" stroke="midnightblue" points="947.32,-87.7531 939.148,-81.0091 941.33,-91.3768 947.32,-87.7531"/>
</g>
<!-- Node25 -->
<g id="node25" class="node"><title>Node25</title>
<polygon fill="none" stroke="#bfbfbf" points="1017,-62 1017,-81 1179,-81 1179,-62 1017,-62"/>
<text text-anchor="middle" x="1098" y="-69" font-family="Helvetica,sans-Serif" font-size="10.00">InfoLogger/InfoLoggerMacros.hxx</text>
</g>
<!-- Node23&#45;&gt;Node25 -->
<g id="edge30" class="edge"><title>Node23&#45;&gt;Node25</title>
<path fill="none" stroke="midnightblue" d="M988.339,-123.475C1009.82,-113.49 1045.62,-96.8476 1070.45,-85.3075"/>
<polygon fill="midnightblue" stroke="midnightblue" points="1072.1,-88.3983 1079.69,-81.0091 1069.15,-82.0506 1072.1,-88.3983"/>
</g>
</g>
</svg>
