<?xml version="1.0" encoding="UTF-8" standalone="no"?>
<!DOCTYPE svg PUBLIC "-//W3C//DTD SVG 1.1//EN"
 "http://www.w3.org/Graphics/SVG/1.1/DTD/svg11.dtd">
<!-- Generated by graphviz version 2.38.0 (20140413.2041)
 -->
<!-- Title: Framework/src/TaskInterface.cxx Pages: 1 -->
<!--zoomable 263 -->
<svg id="main" version="1.1" xmlns="http://www.w3.org/2000/svg" xmlns:xlink="http://www.w3.org/1999/xlink" xml:space="preserve" onload="init(evt)">
<style type="text/css"><![CDATA[
.edge:hover path { stroke: red; }
.edge:hover polygon { stroke: red; fill: red; }
]]></style>
<script type="text/javascript"><![CDATA[
var edges = document.getElementsByTagName('g');
if (edges && edges.length) {
  for (var i=0;i<edges.length;i++) {
    if (edges[i].id.substr(0,4)=='edge') {
      edges[i].setAttribute('class','edge');
    }
  }
}
]]></script>
        <defs>
                <circle id="rim" cx="0" cy="0" r="7"/>
                <circle id="rim2" cx="0" cy="0" r="3.5"/>
                <g id="zoomPlus">
                        <use xlink:href="#rim" fill="#404040">
                                <set attributeName="fill" to="#808080" begin="zoomplus.mouseover" end="zoomplus.mouseout"/>
                        </use>
                        <path d="M-4,0h8M0,-4v8" fill="none" stroke="white" stroke-width="1.5" pointer-events="none"/>
                </g>
                <g id="zoomMin">
                        <use xlink:href="#rim" fill="#404040">
                                <set attributeName="fill" to="#808080" begin="zoomminus.mouseover" end="zoomminus.mouseout"/>
                        </use>
                        <path d="M-4,0h8" fill="none" stroke="white" stroke-width="1.5" pointer-events="none"/>
                </g>
                <g id="dirArrow">
                        <path fill="none" stroke="white" stroke-width="1.5" d="M0,-3.0v7 M-2.5,-0.5L0,-3.0L2.5,-0.5"/>
                </g>
               <g id="resetDef">
                       <use xlink:href="#rim2" fill="#404040">
                               <set attributeName="fill" to="#808080" begin="reset.mouseover" end="reset.mouseout"/>
                       </use>
               </g>
        </defs>

<script type="text/javascript">
var viewWidth = 1379;
var viewHeight = 263;
var sectionId = 'dynsection-0';
</script>
<script xlink:href="svgpan.js"/>
<svg id="graph" class="graph">
<g id="viewport">
<title>Framework/src/TaskInterface.cxx</title>
<!-- Node1 -->
<g id="node1" class="node"><title>Node1</title>
<polygon fill="#bfbfbf" stroke="black" points="1043.5,-235.5 1043.5,-254.5 1207.5,-254.5 1207.5,-235.5 1043.5,-235.5"/>
<text text-anchor="middle" x="1125.5" y="-242.5" font-family="Helvetica,sans-Serif" font-size="10.00">Framework/src/TaskInterface.cxx</text>
</g>
<!-- Node2 -->
<g id="node2" class="node"><title>Node2</title>
<g id="a_node2"><a xlink:href="TaskInterface_8h.html" target="_top" xlink:title="QualityControl/TaskInterface.h">
<polygon fill="none" stroke="black" points="669.5,-179.5 669.5,-198.5 819.5,-198.5 819.5,-179.5 669.5,-179.5"/>
<text text-anchor="middle" x="744.5" y="-186.5" font-family="Helvetica,sans-Serif" font-size="10.00">QualityControl/TaskInterface.h</text>
</a>
</g>
</g>
<!-- Node1&#45;&gt;Node2 -->
<g id="edge1" class="edge"><title>Node1&#45;&gt;Node2</title>
<path fill="none" stroke="midnightblue" d="M1065.13,-235.444C997.132,-225.806 886.764,-210.163 814.902,-199.978"/>
<polygon fill="midnightblue" stroke="midnightblue" points="814.98,-196.454 804.588,-198.516 813.998,-203.385 814.98,-196.454"/>
</g>
<!-- Node19 -->
<g id="node19" class="node"><title>Node19</title>
<g id="a_node19"><a xlink:href="QcInfoLogger_8h.html" target="_top" xlink:title="QualityControl/QcInfoLogger.h">
<polygon fill="none" stroke="black" points="1051,-179.5 1051,-198.5 1200,-198.5 1200,-179.5 1051,-179.5"/>
<text text-anchor="middle" x="1125.5" y="-186.5" font-family="Helvetica,sans-Serif" font-size="10.00">QualityControl/QcInfoLogger.h</text>
</a>
</g>
</g>
<!-- Node1&#45;&gt;Node19 -->
<g id="edge24" class="edge"><title>Node1&#45;&gt;Node19</title>
<path fill="none" stroke="midnightblue" d="M1125.5,-235.083C1125.5,-228.006 1125.5,-217.861 1125.5,-208.986"/>
<polygon fill="midnightblue" stroke="midnightblue" points="1129,-208.751 1125.5,-198.751 1122,-208.751 1129,-208.751"/>
</g>
<!-- Node22 -->
<g id="node22" class="node"><title>Node22</title>
<polygon fill="none" stroke="#bfbfbf" points="1218,-179.5 1218,-198.5 1313,-198.5 1313,-179.5 1218,-179.5"/>
<text text-anchor="middle" x="1265.5" y="-186.5" font-family="Helvetica,sans-Serif" font-size="10.00">CCDB/CcdbApi.h</text>
</g>
<!-- Node1&#45;&gt;Node22 -->
<g id="edge27" class="edge"><title>Node1&#45;&gt;Node22</title>
<path fill="none" stroke="midnightblue" d="M1147.68,-235.444C1170.93,-226.478 1207.65,-212.314 1233.92,-202.183"/>
<polygon fill="midnightblue" stroke="midnightblue" points="1235.35,-205.381 1243.42,-198.516 1232.83,-198.85 1235.35,-205.381"/>
</g>
<!-- Node3 -->
<g id="node3" class="node"><title>Node3</title>
<polygon fill="none" stroke="#bfbfbf" points="234,-0.5 234,-19.5 269,-19.5 269,-0.5 234,-0.5"/>
<text text-anchor="middle" x="251.5" y="-7.5" font-family="Helvetica,sans-Serif" font-size="10.00">map</text>
</g>
<!-- Node2&#45;&gt;Node3 -->
<g id="edge2" class="edge"><title>Node2&#45;&gt;Node3</title>
<path fill="none" stroke="midnightblue" d="M669.129,-184.959C548.337,-179.426 322.002,-166.1 293.5,-143 259.028,-115.062 252.429,-58.8271 251.432,-29.5973"/>
<polygon fill="midnightblue" stroke="midnightblue" points="254.93,-29.4596 251.279,-19.514 247.931,-29.566 254.93,-29.4596"/>
</g>
<!-- Node4 -->
<g id="node4" class="node"><title>Node4</title>
<polygon fill="none" stroke="#bfbfbf" points="673.5,-62 673.5,-81 725.5,-81 725.5,-62 673.5,-62"/>
<text text-anchor="middle" x="699.5" y="-69" font-family="Helvetica,sans-Serif" font-size="10.00">memory</text>
</g>
<!-- Node2&#45;&gt;Node4 -->
<g id="edge3" class="edge"><title>Node2&#45;&gt;Node4</title>
<path fill="none" stroke="midnightblue" d="M669.354,-183.633C609.063,-178.373 531.333,-167.029 511.5,-143 479.271,-103.951 517.543,-134.387 664.5,-87 666.636,-86.3112 668.825,-85.5484 671.014,-84.7435"/>
<polygon fill="midnightblue" stroke="midnightblue" points="672.419,-87.952 680.453,-81.0449 669.865,-81.4345 672.419,-87.952"/>
</g>
<!-- Node5 -->
<g id="node5" class="node"><title>Node5</title>
<polygon fill="none" stroke="#bfbfbf" points="573,-0.5 573,-19.5 614,-19.5 614,-0.5 573,-0.5"/>
<text text-anchor="middle" x="593.5" y="-7.5" font-family="Helvetica,sans-Serif" font-size="10.00">string</text>
</g>
<!-- Node2&#45;&gt;Node5 -->
<g id="edge4" class="edge"><title>Node2&#45;&gt;Node5</title>
<path fill="none" stroke="midnightblue" d="M819.575,-183.415C878.969,-178.035 955.039,-166.637 974.5,-143 980.15,-136.138 979.826,-130.117 974.5,-123 931.562,-65.6236 707.113,-27.5758 624.264,-15.3011"/>
<polygon fill="midnightblue" stroke="midnightblue" points="624.613,-11.8151 614.213,-13.8361 623.603,-18.7419 624.613,-11.8151"/>
</g>
<!-- Node6 -->
<g id="node6" class="node"><title>Node6</title>
<polygon fill="none" stroke="#bfbfbf" points="807,-0.5 807,-19.5 890,-19.5 890,-0.5 807,-0.5"/>
<text text-anchor="middle" x="848.5" y="-7.5" font-family="Helvetica,sans-Serif" font-size="10.00">unordered_map</text>
</g>
<!-- Node2&#45;&gt;Node6 -->
<g id="edge5" class="edge"><title>Node2&#45;&gt;Node6</title>
<path fill="none" stroke="midnightblue" d="M819.544,-185.662C888.896,-181.732 984.697,-171.203 1008.5,-143 1033.44,-113.451 1031.85,-86.8213 1008.5,-56 995.3,-38.576 941.683,-26.0143 900.112,-18.6626"/>
<polygon fill="midnightblue" stroke="midnightblue" points="900.551,-15.1869 890.104,-16.9505 899.371,-22.0867 900.551,-15.1869"/>
</g>
<!-- Node7 -->
<g id="node7" class="node"><title>Node7</title>
<polygon fill="none" stroke="#bfbfbf" points="521,-123.5 521,-142.5 646,-142.5 646,-123.5 521,-123.5"/>
<text text-anchor="middle" x="583.5" y="-130.5" font-family="Helvetica,sans-Serif" font-size="10.00">Framework/InitContext.h</text>
</g>
<!-- Node2&#45;&gt;Node7 -->
<g id="edge6" class="edge"><title>Node2&#45;&gt;Node7</title>
<path fill="none" stroke="midnightblue" d="M718.989,-179.444C691.904,-170.359 648.91,-155.939 618.631,-145.783"/>
<polygon fill="midnightblue" stroke="midnightblue" points="619.486,-142.378 608.892,-142.516 617.26,-149.015 619.486,-142.378"/>
</g>
<!-- Node8 -->
<g id="node8" class="node"><title>Node8</title>
<polygon fill="none" stroke="#bfbfbf" points="664.5,-123.5 664.5,-142.5 824.5,-142.5 824.5,-123.5 664.5,-123.5"/>
<text text-anchor="middle" x="744.5" y="-130.5" font-family="Helvetica,sans-Serif" font-size="10.00">Framework/ProcessingContext.h</text>
</g>
<!-- Node2&#45;&gt;Node8 -->
<g id="edge7" class="edge"><title>Node2&#45;&gt;Node8</title>
<path fill="none" stroke="midnightblue" d="M744.5,-179.083C744.5,-172.006 744.5,-161.861 744.5,-152.986"/>
<polygon fill="midnightblue" stroke="midnightblue" points="748,-152.751 744.5,-142.751 741,-152.751 748,-152.751"/>
</g>
<!-- Node9 -->
<g id="node9" class="node"><title>Node9</title>
<g id="a_node9"><a xlink:href="Activity_8h.html" target="_top" xlink:title="QualityControl/Activity.h">
<polygon fill="none" stroke="black" points="843,-123.5 843,-142.5 966,-142.5 966,-123.5 843,-123.5"/>
<text text-anchor="middle" x="904.5" y="-130.5" font-family="Helvetica,sans-Serif" font-size="10.00">QualityControl/Activity.h</text>
</a>
</g>
</g>
<!-- Node2&#45;&gt;Node9 -->
<g id="edge8" class="edge"><title>Node2&#45;&gt;Node9</title>
<path fill="none" stroke="midnightblue" d="M769.852,-179.444C796.769,-170.359 839.496,-155.939 869.587,-145.783"/>
<polygon fill="midnightblue" stroke="midnightblue" points="870.91,-149.031 879.266,-142.516 868.672,-142.398 870.91,-149.031"/>
</g>
<!-- Node10 -->
<g id="node10" class="node"><title>Node10</title>
<g id="a_node10"><a xlink:href="ObjectsManager_8h.html" target="_top" xlink:title="QualityControl/ObjectsManager.h">
<polygon fill="none" stroke="black" points="303,-123.5 303,-142.5 464,-142.5 464,-123.5 303,-123.5"/>
<text text-anchor="middle" x="383.5" y="-130.5" font-family="Helvetica,sans-Serif" font-size="10.00">QualityControl/ObjectsManager.h</text>
</a>
</g>
</g>
<!-- Node2&#45;&gt;Node10 -->
<g id="edge9" class="edge"><title>Node2&#45;&gt;Node10</title>
<path fill="none" stroke="midnightblue" d="M687.298,-179.444C623.003,-169.826 518.725,-154.228 450.625,-144.041"/>
<polygon fill="midnightblue" stroke="midnightblue" points="450.842,-140.534 440.434,-142.516 449.806,-147.457 450.842,-140.534"/>
</g>
<!-- Node10&#45;&gt;Node4 -->
<g id="edge23" class="edge"><title>Node10&#45;&gt;Node4</title>
<path fill="none" stroke="midnightblue" d="M464.22,-124.148C520.978,-117.401 598.301,-105.733 664.5,-87 666.937,-86.3105 669.432,-85.5004 671.913,-84.6216"/>
<polygon fill="midnightblue" stroke="midnightblue" points="673.198,-87.8772 681.259,-81.0016 670.67,-81.3497 673.198,-87.8772"/>
</g>
<!-- Node10&#45;&gt;Node5 -->
<g id="edge22" class="edge"><title>Node10&#45;&gt;Node5</title>
<path fill="none" stroke="midnightblue" d="M401.734,-123.419C419.121,-114.963 445.798,-101.272 467.5,-87 486,-74.834 487.912,-68.0319 506.5,-56 525.29,-43.8373 547.757,-32.2855 565.153,-23.9318"/>
<polygon fill="midnightblue" stroke="midnightblue" points="566.695,-27.0742 574.24,-19.6362 563.703,-20.7457 566.695,-27.0742"/>
</g>
<!-- Node11 -->
<g id="node11" class="node"><title>Node11</title>
<g id="a_node11"><a xlink:href="MonitorObject_8h.html" target="_top" xlink:title="QualityControl/MonitorObject.h">
<polygon fill="none" stroke="black" points="308,-62 308,-81 459,-81 459,-62 308,-62"/>
<text text-anchor="middle" x="383.5" y="-69" font-family="Helvetica,sans-Serif" font-size="10.00">QualityControl/MonitorObject.h</text>
</a>
</g>
</g>
<!-- Node10&#45;&gt;Node11 -->
<g id="edge10" class="edge"><title>Node10&#45;&gt;Node11</title>
<path fill="none" stroke="midnightblue" d="M383.5,-123.475C383.5,-115.08 383.5,-101.981 383.5,-91.1631"/>
<polygon fill="midnightblue" stroke="midnightblue" points="387,-91.0091 383.5,-81.0091 380,-91.0091 387,-91.0091"/>
</g>
<!-- Node15 -->
<g id="node15" class="node"><title>Node15</title>
<g id="a_node15"><a xlink:href="MonitorObjectCollection_8h.html" target="_top" xlink:title="QualityControl/MonitorObject\lCollection.h">
<polygon fill="none" stroke="black" points="80,-56.5 80,-86.5 223,-86.5 223,-56.5 80,-56.5"/>
<text text-anchor="start" x="88" y="-74.5" font-family="Helvetica,sans-Serif" font-size="10.00">QualityControl/MonitorObject</text>
<text text-anchor="middle" x="151.5" y="-63.5" font-family="Helvetica,sans-Serif" font-size="10.00">Collection.h</text>
</a>
</g>
</g>
<!-- Node10&#45;&gt;Node15 -->
<g id="edge16" class="edge"><title>Node10&#45;&gt;Node15</title>
<path fill="none" stroke="midnightblue" d="M350.26,-123.475C315.388,-114.532 259.696,-100.249 216.124,-89.0738"/>
<polygon fill="midnightblue" stroke="midnightblue" points="216.734,-85.617 206.178,-86.523 214.995,-92.3976 216.734,-85.617"/>
</g>
<!-- Node18 -->
<g id="node18" class="node"><title>Node18</title>
<g id="a_node18"><a xlink:href="TaskConfig_8h.html" target="_top" xlink:title="QualityControl/TaskConfig.h">
<polygon fill="none" stroke="black" points="515.5,-62 515.5,-81 655.5,-81 655.5,-62 515.5,-62"/>
<text text-anchor="middle" x="585.5" y="-69" font-family="Helvetica,sans-Serif" font-size="10.00">QualityControl/TaskConfig.h</text>
</a>
</g>
</g>
<!-- Node10&#45;&gt;Node18 -->
<g id="edge19" class="edge"><title>Node10&#45;&gt;Node18</title>
<path fill="none" stroke="midnightblue" d="M412.442,-123.475C447.767,-113.07 507.631,-95.4367 546.865,-83.8801"/>
<polygon fill="midnightblue" stroke="midnightblue" points="548.008,-87.1921 556.612,-81.0091 546.031,-80.4773 548.008,-87.1921"/>
</g>
<!-- Node11&#45;&gt;Node3 -->
<g id="edge12" class="edge"><title>Node11&#45;&gt;Node3</title>
<path fill="none" stroke="midnightblue" d="M364.588,-61.9751C341.958,-51.7745 303.917,-34.6274 278.274,-23.0688"/>
<polygon fill="midnightblue" stroke="midnightblue" points="279.667,-19.8573 269.112,-18.9386 276.79,-26.2389 279.667,-19.8573"/>
</g>
<!-- Node11&#45;&gt;Node5 -->
<g id="edge11" class="edge"><title>Node11&#45;&gt;Node5</title>
<path fill="none" stroke="midnightblue" d="M414.765,-61.9113C448.811,-52.5186 505.109,-36.8705 563.151,-20.0627"/>
<polygon fill="midnightblue" stroke="midnightblue" points="564.229,-23.3943 572.858,-17.2457 562.278,-16.6717 564.229,-23.3943"/>
</g>
<!-- Node12 -->
<g id="node12" class="node"><title>Node12</title>
<polygon fill="none" stroke="#bfbfbf" points="421.5,-0.5 421.5,-19.5 477.5,-19.5 477.5,-0.5 421.5,-0.5"/>
<text text-anchor="middle" x="449.5" y="-7.5" font-family="Helvetica,sans-Serif" font-size="10.00">Rtypes.h</text>
</g>
<!-- Node11&#45;&gt;Node12 -->
<g id="edge13" class="edge"><title>Node11&#45;&gt;Node12</title>
<path fill="none" stroke="midnightblue" d="M392.956,-61.9751C403.248,-52.6966 419.916,-37.6706 432.494,-26.331"/>
<polygon fill="midnightblue" stroke="midnightblue" points="434.978,-28.8046 440.061,-19.5091 430.29,-23.6054 434.978,-28.8046"/>
</g>
<!-- Node13 -->
<g id="node13" class="node"><title>Node13</title>
<polygon fill="none" stroke="#bfbfbf" points="496,-0.5 496,-19.5 555,-19.5 555,-0.5 496,-0.5"/>
<text text-anchor="middle" x="525.5" y="-7.5" font-family="Helvetica,sans-Serif" font-size="10.00">TObject.h</text>
</g>
<!-- Node11&#45;&gt;Node13 -->
<g id="edge14" class="edge"><title>Node11&#45;&gt;Node13</title>
<path fill="none" stroke="midnightblue" d="M403.845,-61.9751C427.887,-51.9013 468.097,-35.0525 495.663,-23.5023"/>
<polygon fill="midnightblue" stroke="midnightblue" points="497.322,-26.6018 505.193,-19.5091 494.617,-20.1457 497.322,-26.6018"/>
</g>
<!-- Node14 -->
<g id="node14" class="node"><title>Node14</title>
<polygon fill="none" stroke="#bfbfbf" points="287.5,-0.5 287.5,-19.5 403.5,-19.5 403.5,-0.5 287.5,-0.5"/>
<text text-anchor="middle" x="345.5" y="-7.5" font-family="Helvetica,sans-Serif" font-size="10.00">Common/Exceptions.h</text>
</g>
<!-- Node11&#45;&gt;Node14 -->
<g id="edge15" class="edge"><title>Node11&#45;&gt;Node14</title>
<path fill="none" stroke="midnightblue" d="M378.056,-61.9751C372.412,-53.1384 363.439,-39.0886 356.341,-27.975"/>
<polygon fill="midnightblue" stroke="midnightblue" points="359.267,-26.0531 350.934,-19.5091 353.367,-29.8208 359.267,-26.0531"/>
</g>
<!-- Node16 -->
<g id="node16" class="node"><title>Node16</title>
<polygon fill="none" stroke="#bfbfbf" points="0,-0.5 0,-19.5 69,-19.5 69,-0.5 0,-0.5"/>
<text text-anchor="middle" x="34.5" y="-7.5" font-family="Helvetica,sans-Serif" font-size="10.00">TObjArray.h</text>
</g>
<!-- Node15&#45;&gt;Node16 -->
<g id="edge17" class="edge"><title>Node15&#45;&gt;Node16</title>
<path fill="none" stroke="midnightblue" d="M123.773,-56.3993C104.668,-46.6837 79.4419,-33.8551 60.6799,-24.3137"/>
<polygon fill="midnightblue" stroke="midnightblue" points="62.0247,-21.071 51.5245,-19.6578 58.8516,-27.3106 62.0247,-21.071"/>
</g>
<!-- Node17 -->
<g id="node17" class="node"><title>Node17</title>
<polygon fill="none" stroke="#bfbfbf" points="87.5,-0.5 87.5,-19.5 215.5,-19.5 215.5,-0.5 87.5,-0.5"/>
<text text-anchor="middle" x="151.5" y="-7.5" font-family="Helvetica,sans-Serif" font-size="10.00">Mergers/MergeInterface.h</text>
</g>
<!-- Node15&#45;&gt;Node17 -->
<g id="edge18" class="edge"><title>Node15&#45;&gt;Node17</title>
<path fill="none" stroke="midnightblue" d="M151.5,-56.3993C151.5,-48.4664 151.5,-38.458 151.5,-29.8583"/>
<polygon fill="midnightblue" stroke="midnightblue" points="155,-29.6577 151.5,-19.6578 148,-29.6578 155,-29.6577"/>
</g>
<!-- Node18&#45;&gt;Node5 -->
<g id="edge20" class="edge"><title>Node18&#45;&gt;Node5</title>
<path fill="none" stroke="midnightblue" d="M586.646,-61.9751C587.775,-53.5803 589.536,-40.4806 590.991,-29.6631"/>
<polygon fill="midnightblue" stroke="midnightblue" points="594.492,-29.8863 592.356,-19.5091 587.555,-28.9535 594.492,-29.8863"/>
</g>
<!-- Node18&#45;&gt;Node6 -->
<g id="edge21" class="edge"><title>Node18&#45;&gt;Node6</title>
<path fill="none" stroke="midnightblue" d="M623.181,-61.9751C670.053,-51.3711 750.106,-33.2602 801.096,-21.7244"/>
<polygon fill="midnightblue" stroke="midnightblue" points="801.907,-25.1295 810.888,-19.5091 800.363,-18.302 801.907,-25.1295"/>
</g>
<!-- Node20 -->
<g id="node20" class="node"><title>Node20</title>
<polygon fill="none" stroke="#bfbfbf" points="1060.5,-123.5 1060.5,-142.5 1190.5,-142.5 1190.5,-123.5 1060.5,-123.5"/>
<text text-anchor="middle" x="1125.5" y="-130.5" font-family="Helvetica,sans-Serif" font-size="10.00">InfoLogger/InfoLogger.hxx</text>
</g>
<!-- Node19&#45;&gt;Node20 -->
<g id="edge25" class="edge"><title>Node19&#45;&gt;Node20</title>
<path fill="none" stroke="midnightblue" d="M1125.5,-179.083C1125.5,-172.006 1125.5,-161.861 1125.5,-152.986"/>
<polygon fill="midnightblue" stroke="midnightblue" points="1129,-152.751 1125.5,-142.751 1122,-152.751 1129,-152.751"/>
</g>
<!-- Node21 -->
<g id="node21" class="node"><title>Node21</title>
<polygon fill="none" stroke="#bfbfbf" points="1208.5,-123.5 1208.5,-142.5 1370.5,-142.5 1370.5,-123.5 1208.5,-123.5"/>
<text text-anchor="middle" x="1289.5" y="-130.5" font-family="Helvetica,sans-Serif" font-size="10.00">InfoLogger/InfoLoggerMacros.hxx</text>
</g>
<!-- Node19&#45;&gt;Node21 -->
<g id="edge26" class="edge"><title>Node19&#45;&gt;Node21</title>
<path fill="none" stroke="midnightblue" d="M1151.49,-179.444C1179.2,-170.32 1223.25,-155.813 1254.12,-145.651"/>
<polygon fill="midnightblue" stroke="midnightblue" points="1255.23,-148.968 1263.64,-142.516 1253.04,-142.32 1255.23,-148.968"/>
</g>
</g>
</svg>
        <g id="navigator" transform="translate(0 0)" fill="#404254">
                <rect fill="#f2f5e9" fill-opacity="0.5" stroke="#606060" stroke-width=".5" x="0" y="0" width="60" height="60"/>
                <use id="zoomplus" xlink:href="#zoomPlus" x="17" y="9" onmousedown="handleZoom(evt,'in')"/>
                <use id="zoomminus" xlink:href="#zoomMin" x="42" y="9" onmousedown="handleZoom(evt,'out')"/>
                <use id="reset" xlink:href="#resetDef" x="30" y="36" onmousedown="handleReset()"/>
                <g id="arrowUp" xlink:href="#dirArrow" transform="translate(30 24)" onmousedown="handlePan(0,-1)">
                  <use xlink:href="#rim" fill="#404040">
                        <set attributeName="fill" to="#808080" begin="arrowUp.mouseover" end="arrowUp.mouseout"/>
                  </use>
                  <path fill="none" stroke="white" stroke-width="1.5" d="M0,-3.0v7 M-2.5,-0.5L0,-3.0L2.5,-0.5"/>
                </g>
                <g id="arrowRight" xlink:href="#dirArrow" transform="rotate(90) translate(36 -43)" onmousedown="handlePan(1,0)">
                  <use xlink:href="#rim" fill="#404040">
                        <set attributeName="fill" to="#808080" begin="arrowRight.mouseover" end="arrowRight.mouseout"/>
                  </use>
                  <path fill="none" stroke="white" stroke-width="1.5" d="M0,-3.0v7 M-2.5,-0.5L0,-3.0L2.5,-0.5"/>
                </g>
                <g id="arrowDown" xlink:href="#dirArrow" transform="rotate(180) translate(-30 -48)" onmousedown="handlePan(0,1)">
                  <use xlink:href="#rim" fill="#404040">
                        <set attributeName="fill" to="#808080" begin="arrowDown.mouseover" end="arrowDown.mouseout"/>
                  </use>
                  <path fill="none" stroke="white" stroke-width="1.5" d="M0,-3.0v7 M-2.5,-0.5L0,-3.0L2.5,-0.5"/>
                </g>
                <g id="arrowLeft" xlink:href="#dirArrow" transform="rotate(270) translate(-36 17)" onmousedown="handlePan(-1,0)">
                  <use xlink:href="#rim" fill="#404040">
                        <set attributeName="fill" to="#808080" begin="arrowLeft.mouseover" end="arrowLeft.mouseout"/>
                  </use>
                  <path fill="none" stroke="white" stroke-width="1.5" d="M0,-3.0v7 M-2.5,-0.5L0,-3.0L2.5,-0.5"/>
                </g>
        </g>
        <svg viewBox="0 0 15 15" width="100%" height="30px" preserveAspectRatio="xMaxYMin meet">
         <g id="arrow_out" transform="scale(0.3 0.3)">
          <a xlink:href="TaskInterface_8cxx__incl_org.svg" target="_base">
           <rect id="button" ry="5" rx="5" y="6" x="6" height="38" width="38"
                fill="#f2f5e9" fill-opacity="0.5" stroke="#606060" stroke-width="1.0"/>
           <path id="arrow"
             d="M 11.500037,31.436501 C 11.940474,20.09759 22.043105,11.32322 32.158766,21.979434 L 37.068811,17.246167 C 37.068811,17.246167 37.088388,32 37.088388,32 L 22.160133,31.978069 C 22.160133,31.978069 26.997745,27.140456 26.997745,27.140456 C 18.528582,18.264221 13.291696,25.230495 11.500037,31.436501 z"
             style="fill:#404040;"/>
          </a>
         </g>
        </svg>
</svg>
