<?xml version="1.0" encoding="UTF-8" standalone="no"?>
<!DOCTYPE svg PUBLIC "-//W3C//DTD SVG 1.1//EN"
 "http://www.w3.org/Graphics/SVG/1.1/DTD/svg11.dtd">
<!-- Generated by graphviz version 2.38.0 (20140413.2041)
 -->
<!-- Title: Modules/TOF/src/TaskCompressedData.cxx Pages: 1 -->
<svg width="1763pt" height="341pt"
 viewBox="0.00 0.00 1763.00 341.00" xmlns="http://www.w3.org/2000/svg" xmlns:xlink="http://www.w3.org/1999/xlink">
<g id="graph0" class="graph" transform="scale(1 1) rotate(0) translate(4 337)">
<title>Modules/TOF/src/TaskCompressedData.cxx</title>
<!-- Node1 -->
<g id="node1" class="node"><title>Node1</title>
<polygon fill="#bfbfbf" stroke="black" points="294.5,-302.5 294.5,-332.5 467.5,-332.5 467.5,-302.5 294.5,-302.5"/>
<text text-anchor="start" x="302.5" y="-320.5" font-family="Helvetica,sans-Serif" font-size="10.00">Modules/TOF/src/TaskCompressed</text>
<text text-anchor="middle" x="381" y="-309.5" font-family="Helvetica,sans-Serif" font-size="10.00">Data.cxx</text>
</g>
<!-- Node2 -->
<g id="node2" class="node"><title>Node2</title>
<polygon fill="none" stroke="#bfbfbf" points="0,-246.5 0,-265.5 44,-265.5 44,-246.5 0,-246.5"/>
<text text-anchor="middle" x="22" y="-253.5" font-family="Helvetica,sans-Serif" font-size="10.00">TH1.h</text>
</g>
<!-- Node1&#45;&gt;Node2 -->
<g id="edge1" class="edge"><title>Node1&#45;&gt;Node2</title>
<path fill="none" stroke="midnightblue" d="M294.452,-306.292C230.455,-298.022 141.076,-284.961 54.2836,-266.051"/>
<polygon fill="midnightblue" stroke="midnightblue" points="54.7813,-262.576 44.2619,-263.838 53.2722,-269.412 54.7813,-262.576"/>
</g>
<!-- Node3 -->
<g id="node3" class="node"><title>Node3</title>
<polygon fill="none" stroke="#bfbfbf" points="62,-246.5 62,-265.5 112,-265.5 112,-246.5 62,-246.5"/>
<text text-anchor="middle" x="87" y="-253.5" font-family="Helvetica,sans-Serif" font-size="10.00">TH1F.h</text>
</g>
<!-- Node1&#45;&gt;Node3 -->
<g id="edge2" class="edge"><title>Node1&#45;&gt;Node3</title>
<path fill="none" stroke="midnightblue" d="M301.343,-302.456C252.256,-293.467 187.827,-281.073 122.302,-266.185"/>
<polygon fill="midnightblue" stroke="midnightblue" points="122.733,-262.693 112.204,-263.873 121.171,-269.517 122.733,-262.693"/>
</g>
<!-- Node4 -->
<g id="node4" class="node"><title>Node4</title>
<polygon fill="none" stroke="#bfbfbf" points="130,-246.5 130,-265.5 180,-265.5 180,-246.5 130,-246.5"/>
<text text-anchor="middle" x="155" y="-253.5" font-family="Helvetica,sans-Serif" font-size="10.00">TH2F.h</text>
</g>
<!-- Node1&#45;&gt;Node4 -->
<g id="edge3" class="edge"><title>Node1&#45;&gt;Node4</title>
<path fill="none" stroke="midnightblue" d="M327.727,-302.475C285.143,-291.263 226.677,-275.871 189.872,-266.181"/>
<polygon fill="midnightblue" stroke="midnightblue" points="190.658,-262.769 180.097,-263.607 188.876,-269.538 190.658,-262.769"/>
</g>
<!-- Node5 -->
<g id="node5" class="node"><title>Node5</title>
<polygon fill="none" stroke="#bfbfbf" points="653,-179.5 653,-209.5 805,-209.5 805,-179.5 653,-179.5"/>
<text text-anchor="start" x="661" y="-197.5" font-family="Helvetica,sans-Serif" font-size="10.00">DataFormatsTOF/Compressed</text>
<text text-anchor="middle" x="729" y="-186.5" font-family="Helvetica,sans-Serif" font-size="10.00">DataFormat.h</text>
</g>
<!-- Node1&#45;&gt;Node5 -->
<g id="edge4" class="edge"><title>Node1&#45;&gt;Node5</title>
<path fill="none" stroke="midnightblue" d="M294.454,-304.205C245.787,-293.788 199.767,-275.685 227,-246 256.903,-213.404 565.459,-215.598 642.606,-209.803"/>
<polygon fill="midnightblue" stroke="midnightblue" points="642.971,-213.285 652.589,-208.842 642.3,-206.317 642.971,-213.285"/>
</g>
<!-- Node6 -->
<g id="node6" class="node"><title>Node6</title>
<polygon fill="none" stroke="#bfbfbf" points="236,-246.5 236,-265.5 370,-265.5 370,-246.5 236,-246.5"/>
<text text-anchor="middle" x="303" y="-253.5" font-family="Helvetica,sans-Serif" font-size="10.00">Framework/DataRefUtils.h</text>
</g>
<!-- Node1&#45;&gt;Node6 -->
<g id="edge5" class="edge"><title>Node1&#45;&gt;Node6</title>
<path fill="none" stroke="midnightblue" d="M362.515,-302.399C350.48,-293.218 334.8,-281.258 322.557,-271.918"/>
<polygon fill="midnightblue" stroke="midnightblue" points="324.423,-268.94 314.35,-265.658 320.178,-274.506 324.423,-268.94"/>
</g>
<!-- Node7 -->
<g id="node7" class="node"><title>Node7</title>
<polygon fill="none" stroke="#bfbfbf" points="388.5,-246.5 388.5,-265.5 529.5,-265.5 529.5,-246.5 388.5,-246.5"/>
<text text-anchor="middle" x="459" y="-253.5" font-family="Helvetica,sans-Serif" font-size="10.00">Headers/RAWDataHeader.h</text>
</g>
<!-- Node1&#45;&gt;Node7 -->
<g id="edge6" class="edge"><title>Node1&#45;&gt;Node7</title>
<path fill="none" stroke="midnightblue" d="M399.485,-302.399C411.52,-293.218 427.2,-281.258 439.443,-271.918"/>
<polygon fill="midnightblue" stroke="midnightblue" points="441.822,-274.506 447.65,-265.658 437.577,-268.94 441.822,-274.506"/>
</g>
<!-- Node8 -->
<g id="node8" class="node"><title>Node8</title>
<polygon fill="none" stroke="#bfbfbf" points="547.5,-246.5 547.5,-265.5 678.5,-265.5 678.5,-246.5 547.5,-246.5"/>
<text text-anchor="middle" x="613" y="-253.5" font-family="Helvetica,sans-Serif" font-size="10.00">DetectorsRaw/HBFUtils.h</text>
</g>
<!-- Node1&#45;&gt;Node8 -->
<g id="edge7" class="edge"><title>Node1&#45;&gt;Node8</title>
<path fill="none" stroke="midnightblue" d="M435.687,-302.475C476.76,-291.941 532.226,-277.716 570.118,-267.998"/>
<polygon fill="midnightblue" stroke="midnightblue" points="571.015,-271.381 579.832,-265.506 569.276,-264.6 571.015,-271.381"/>
</g>
<!-- Node9 -->
<g id="node9" class="node"><title>Node9</title>
<polygon fill="none" stroke="#bfbfbf" points="696.5,-246.5 696.5,-265.5 793.5,-265.5 793.5,-246.5 696.5,-246.5"/>
<text text-anchor="middle" x="745" y="-253.5" font-family="Helvetica,sans-Serif" font-size="10.00">fairlogger/Logger.h</text>
</g>
<!-- Node1&#45;&gt;Node9 -->
<g id="edge8" class="edge"><title>Node1&#45;&gt;Node9</title>
<path fill="none" stroke="midnightblue" d="M466.802,-302.475C534.456,-291.416 626.997,-276.289 686.395,-266.58"/>
<polygon fill="midnightblue" stroke="midnightblue" points="687.055,-270.018 696.36,-264.951 685.926,-263.11 687.055,-270.018"/>
</g>
<!-- Node10 -->
<g id="node10" class="node"><title>Node10</title>
<g id="a_node10"><a xlink:href="QcInfoLogger_8h.html" target="_top" xlink:title="QualityControl/QcInfoLogger.h">
<polygon fill="none" stroke="black" points="811.5,-246.5 811.5,-265.5 960.5,-265.5 960.5,-246.5 811.5,-246.5"/>
<text text-anchor="middle" x="886" y="-253.5" font-family="Helvetica,sans-Serif" font-size="10.00">QualityControl/QcInfoLogger.h</text>
</a>
</g>
</g>
<!-- Node1&#45;&gt;Node10 -->
<g id="edge9" class="edge"><title>Node1&#45;&gt;Node10</title>
<path fill="none" stroke="midnightblue" d="M467.526,-306.305C561.66,-295.214 711.047,-277.613 803.55,-266.714"/>
<polygon fill="midnightblue" stroke="midnightblue" points="804.185,-270.164 813.707,-265.518 803.366,-263.212 804.185,-270.164"/>
</g>
<!-- Node13 -->
<g id="node13" class="node"><title>Node13</title>
<g id="a_node13"><a xlink:href="TaskCompressedData_8h.html" target="_top" xlink:title="Task To monitor data converted from TOF compressor, it implements a dedicated decoder from DecoderBas...">
<polygon fill="none" stroke="black" points="979,-246.5 979,-265.5 1125,-265.5 1125,-246.5 979,-246.5"/>
<text text-anchor="middle" x="1052" y="-253.5" font-family="Helvetica,sans-Serif" font-size="10.00">TOF/TaskCompressedData.h</text>
</a>
</g>
</g>
<!-- Node1&#45;&gt;Node13 -->
<g id="edge12" class="edge"><title>Node1&#45;&gt;Node13</title>
<path fill="none" stroke="midnightblue" d="M467.884,-309.701C580.763,-300.721 784.238,-284.037 968.539,-266.123"/>
<polygon fill="midnightblue" stroke="midnightblue" points="969.078,-269.588 978.691,-265.133 968.399,-262.621 969.078,-269.588"/>
</g>
<!-- Node11 -->
<g id="node11" class="node"><title>Node11</title>
<polygon fill="none" stroke="#bfbfbf" points="823,-185 823,-204 953,-204 953,-185 823,-185"/>
<text text-anchor="middle" x="888" y="-192" font-family="Helvetica,sans-Serif" font-size="10.00">InfoLogger/InfoLogger.hxx</text>
</g>
<!-- Node10&#45;&gt;Node11 -->
<g id="edge10" class="edge"><title>Node10&#45;&gt;Node11</title>
<path fill="none" stroke="midnightblue" d="M886.287,-246.475C886.569,-238.08 887.009,-224.981 887.373,-214.163"/>
<polygon fill="midnightblue" stroke="midnightblue" points="890.876,-214.121 887.714,-204.009 883.88,-213.886 890.876,-214.121"/>
</g>
<!-- Node12 -->
<g id="node12" class="node"><title>Node12</title>
<polygon fill="none" stroke="#bfbfbf" points="473,-185 473,-204 635,-204 635,-185 473,-185"/>
<text text-anchor="middle" x="554" y="-192" font-family="Helvetica,sans-Serif" font-size="10.00">InfoLogger/InfoLoggerMacros.hxx</text>
</g>
<!-- Node10&#45;&gt;Node12 -->
<g id="edge11" class="edge"><title>Node10&#45;&gt;Node12</title>
<path fill="none" stroke="midnightblue" d="M838.432,-246.475C778.524,-235.739 675.675,-217.306 611.444,-205.795"/>
<polygon fill="midnightblue" stroke="midnightblue" points="611.94,-202.328 601.479,-204.009 610.705,-209.218 611.94,-202.328"/>
</g>
<!-- Node13&#45;&gt;Node5 -->
<g id="edge14" class="edge"><title>Node13&#45;&gt;Node5</title>
<path fill="none" stroke="midnightblue" d="M1005.72,-246.475C956.15,-237.343 876.358,-222.645 815.163,-211.372"/>
<polygon fill="midnightblue" stroke="midnightblue" points="815.593,-207.893 805.125,-209.523 814.325,-214.777 815.593,-207.893"/>
</g>
<!-- Node14 -->
<g id="node14" class="node"><title>Node14</title>
<polygon fill="none" stroke="#bfbfbf" points="1143,-179.5 1143,-209.5 1285,-209.5 1285,-179.5 1143,-179.5"/>
<text text-anchor="start" x="1151" y="-197.5" font-family="Helvetica,sans-Serif" font-size="10.00">TOFReconstruction/Decoder</text>
<text text-anchor="middle" x="1214" y="-186.5" font-family="Helvetica,sans-Serif" font-size="10.00">Base.h</text>
</g>
<!-- Node13&#45;&gt;Node14 -->
<g id="edge13" class="edge"><title>Node13&#45;&gt;Node14</title>
<path fill="none" stroke="midnightblue" d="M1075.21,-246.475C1098.89,-237.776 1136.33,-224.026 1166.36,-212.998"/>
<polygon fill="midnightblue" stroke="midnightblue" points="1167.64,-216.256 1175.82,-209.523 1165.23,-209.685 1167.64,-216.256"/>
</g>
<!-- Node15 -->
<g id="node15" class="node"><title>Node15</title>
<g id="a_node15"><a xlink:href="TaskInterface_8h.html" target="_top" xlink:title="QualityControl/TaskInterface.h">
<polygon fill="none" stroke="black" points="975,-185 975,-204 1125,-204 1125,-185 975,-185"/>
<text text-anchor="middle" x="1050" y="-192" font-family="Helvetica,sans-Serif" font-size="10.00">QualityControl/TaskInterface.h</text>
</a>
</g>
</g>
<!-- Node13&#45;&gt;Node15 -->
<g id="edge15" class="edge"><title>Node13&#45;&gt;Node15</title>
<path fill="none" stroke="midnightblue" d="M1051.71,-246.475C1051.43,-238.08 1050.99,-224.981 1050.63,-214.163"/>
<polygon fill="midnightblue" stroke="midnightblue" points="1054.12,-213.886 1050.29,-204.009 1047.12,-214.121 1054.12,-213.886"/>
</g>
<!-- Node16 -->
<g id="node16" class="node"><title>Node16</title>
<polygon fill="none" stroke="#bfbfbf" points="1075.5,-0.5 1075.5,-19.5 1110.5,-19.5 1110.5,-0.5 1075.5,-0.5"/>
<text text-anchor="middle" x="1093" y="-7.5" font-family="Helvetica,sans-Serif" font-size="10.00">map</text>
</g>
<!-- Node15&#45;&gt;Node16 -->
<g id="edge16" class="edge"><title>Node15&#45;&gt;Node16</title>
<path fill="none" stroke="midnightblue" d="M1013.9,-184.843C992.156,-177.567 966.198,-164.75 953,-143 932.941,-109.943 930.223,-87.246 953,-56 978.537,-20.9681 1031.79,-12.611 1064.76,-10.9548"/>
<polygon fill="midnightblue" stroke="midnightblue" points="1065.21,-14.4422 1075.09,-10.6212 1064.98,-7.4458 1065.21,-14.4422"/>
</g>
<!-- Node17 -->
<g id="node17" class="node"><title>Node17</title>
<polygon fill="none" stroke="#bfbfbf" points="1006,-62 1006,-81 1058,-81 1058,-62 1006,-62"/>
<text text-anchor="middle" x="1032" y="-69" font-family="Helvetica,sans-Serif" font-size="10.00">memory</text>
</g>
<!-- Node15&#45;&gt;Node17 -->
<g id="edge17" class="edge"><title>Node15&#45;&gt;Node17</title>
<path fill="none" stroke="midnightblue" d="M1044.05,-184.674C1037.89,-174.954 1028.66,-158.622 1025,-143 1020.98,-125.801 1023.67,-105.712 1026.81,-91.3889"/>
<polygon fill="midnightblue" stroke="midnightblue" points="1030.3,-91.8508 1029.31,-81.3029 1023.51,-90.1698 1030.3,-91.8508"/>
</g>
<!-- Node18 -->
<g id="node18" class="node"><title>Node18</title>
<polygon fill="none" stroke="#bfbfbf" points="1160.5,-0.5 1160.5,-19.5 1201.5,-19.5 1201.5,-0.5 1160.5,-0.5"/>
<text text-anchor="middle" x="1181" y="-7.5" font-family="Helvetica,sans-Serif" font-size="10.00">string</text>
</g>
<!-- Node15&#45;&gt;Node18 -->
<g id="edge18" class="edge"><title>Node15&#45;&gt;Node18</title>
<path fill="none" stroke="midnightblue" d="M1041.32,-184.895C1019.14,-161.848 964.302,-97.6581 997,-56 1006.5,-43.8943 1100.48,-25.4328 1150.32,-16.3824"/>
<polygon fill="midnightblue" stroke="midnightblue" points="1151.02,-19.8136 1160.24,-14.5997 1149.78,-12.924 1151.02,-19.8136"/>
</g>
<!-- Node19 -->
<g id="node19" class="node"><title>Node19</title>
<polygon fill="none" stroke="#bfbfbf" points="910.5,-0.5 910.5,-19.5 993.5,-19.5 993.5,-0.5 910.5,-0.5"/>
<text text-anchor="middle" x="952" y="-7.5" font-family="Helvetica,sans-Serif" font-size="10.00">unordered_map</text>
</g>
<!-- Node15&#45;&gt;Node19 -->
<g id="edge19" class="edge"><title>Node15&#45;&gt;Node19</title>
<path fill="none" stroke="midnightblue" d="M1006.81,-184.999C982.851,-177.933 954.79,-165.284 939,-143 914.682,-108.679 931.686,-56.1314 943.424,-28.8415"/>
<polygon fill="midnightblue" stroke="midnightblue" points="946.623,-30.2624 947.567,-19.7097 940.248,-27.3698 946.623,-30.2624"/>
</g>
<!-- Node20 -->
<g id="node20" class="node"><title>Node20</title>
<polygon fill="none" stroke="#bfbfbf" points="1033.5,-123.5 1033.5,-142.5 1158.5,-142.5 1158.5,-123.5 1033.5,-123.5"/>
<text text-anchor="middle" x="1096" y="-130.5" font-family="Helvetica,sans-Serif" font-size="10.00">Framework/InitContext.h</text>
</g>
<!-- Node15&#45;&gt;Node20 -->
<g id="edge20" class="edge"><title>Node15&#45;&gt;Node20</title>
<path fill="none" stroke="midnightblue" d="M1056.59,-184.975C1063.49,-176.05 1074.5,-161.807 1083.13,-150.643"/>
<polygon fill="midnightblue" stroke="midnightblue" points="1086.07,-152.561 1089.42,-142.509 1080.54,-148.28 1086.07,-152.561"/>
</g>
<!-- Node21 -->
<g id="node21" class="node"><title>Node21</title>
<polygon fill="none" stroke="#bfbfbf" points="1177,-123.5 1177,-142.5 1337,-142.5 1337,-123.5 1177,-123.5"/>
<text text-anchor="middle" x="1257" y="-130.5" font-family="Helvetica,sans-Serif" font-size="10.00">Framework/ProcessingContext.h</text>
</g>
<!-- Node15&#45;&gt;Node21 -->
<g id="edge21" class="edge"><title>Node15&#45;&gt;Node21</title>
<path fill="none" stroke="midnightblue" d="M1079.66,-184.975C1115.93,-174.548 1177.46,-156.862 1217.66,-145.307"/>
<polygon fill="midnightblue" stroke="midnightblue" points="1218.75,-148.635 1227.4,-142.509 1216.82,-141.908 1218.75,-148.635"/>
</g>
<!-- Node22 -->
<g id="node22" class="node"><title>Node22</title>
<g id="a_node22"><a xlink:href="Activity_8h.html" target="_top" xlink:title="QualityControl/Activity.h">
<polygon fill="none" stroke="black" points="1355.5,-123.5 1355.5,-142.5 1478.5,-142.5 1478.5,-123.5 1355.5,-123.5"/>
<text text-anchor="middle" x="1417" y="-130.5" font-family="Helvetica,sans-Serif" font-size="10.00">QualityControl/Activity.h</text>
</a>
</g>
</g>
<!-- Node15&#45;&gt;Node22 -->
<g id="edge22" class="edge"><title>Node15&#45;&gt;Node22</title>
<path fill="none" stroke="midnightblue" d="M1098.84,-184.957C1110.37,-182.972 1122.61,-180.888 1134,-179 1208.66,-166.621 1294.51,-153.065 1351.9,-144.101"/>
<polygon fill="midnightblue" stroke="midnightblue" points="1352.58,-147.538 1361.92,-142.537 1351.5,-140.621 1352.58,-147.538"/>
</g>
<!-- Node23 -->
<g id="node23" class="node"><title>Node23</title>
<g id="a_node23"><a xlink:href="ObjectsManager_8h.html" target="_top" xlink:title="QualityControl/ObjectsManager.h">
<polygon fill="none" stroke="black" points="1496.5,-123.5 1496.5,-142.5 1657.5,-142.5 1657.5,-123.5 1496.5,-123.5"/>
<text text-anchor="middle" x="1577" y="-130.5" font-family="Helvetica,sans-Serif" font-size="10.00">QualityControl/ObjectsManager.h</text>
</a>
</g>
</g>
<!-- Node15&#45;&gt;Node23 -->
<g id="edge23" class="edge"><title>Node15&#45;&gt;Node23</title>
<path fill="none" stroke="midnightblue" d="M1096.12,-184.943C1108.41,-182.827 1121.68,-180.686 1134,-179 1138.33,-178.407 1357.93,-156.164 1486.27,-143.177"/>
<polygon fill="midnightblue" stroke="midnightblue" points="1486.89,-146.632 1496.49,-142.143 1486.19,-139.667 1486.89,-146.632"/>
</g>
<!-- Node23&#45;&gt;Node17 -->
<g id="edge37" class="edge"><title>Node23&#45;&gt;Node17</title>
<path fill="none" stroke="midnightblue" d="M1496.47,-123.805C1493.61,-123.531 1490.78,-123.261 1488,-123 1303.67,-105.686 1253.94,-126.178 1073,-87 1069.58,-86.2586 1066.05,-85.3094 1062.56,-84.2523"/>
<polygon fill="midnightblue" stroke="midnightblue" points="1063.58,-80.902 1052.98,-81.0698 1061.37,-87.5448 1063.58,-80.902"/>
</g>
<!-- Node23&#45;&gt;Node18 -->
<g id="edge36" class="edge"><title>Node23&#45;&gt;Node18</title>
<path fill="none" stroke="midnightblue" d="M1504.14,-123.471C1420.14,-113.301 1290.91,-96.4916 1270,-87 1261.73,-83.2434 1221.55,-47.6194 1198.1,-26.5039"/>
<polygon fill="midnightblue" stroke="midnightblue" points="1200.35,-23.8209 1190.59,-19.7162 1195.66,-29.016 1200.35,-23.8209"/>
</g>
<!-- Node24 -->
<g id="node24" class="node"><title>Node24</title>
<g id="a_node24"><a xlink:href="MonitorObject_8h.html" target="_top" xlink:title="QualityControl/MonitorObject.h">
<polygon fill="none" stroke="black" points="1278.5,-62 1278.5,-81 1429.5,-81 1429.5,-62 1278.5,-62"/>
<text text-anchor="middle" x="1354" y="-69" font-family="Helvetica,sans-Serif" font-size="10.00">QualityControl/MonitorObject.h</text>
</a>
</g>
</g>
<!-- Node23&#45;&gt;Node24 -->
<g id="edge24" class="edge"><title>Node23&#45;&gt;Node24</title>
<path fill="none" stroke="midnightblue" d="M1545.05,-123.475C1505.8,-113.004 1439.12,-95.2118 1395.83,-83.6601"/>
<polygon fill="midnightblue" stroke="midnightblue" points="1396.46,-80.2054 1385.89,-81.0091 1394.65,-86.9688 1396.46,-80.2054"/>
</g>
<!-- Node28 -->
<g id="node28" class="node"><title>Node28</title>
<g id="a_node28"><a xlink:href="MonitorObjectCollection_8h.html" target="_top" xlink:title="QualityControl/MonitorObject\lCollection.h">
<polygon fill="none" stroke="black" points="1505.5,-56.5 1505.5,-86.5 1648.5,-86.5 1648.5,-56.5 1505.5,-56.5"/>
<text text-anchor="start" x="1513.5" y="-74.5" font-family="Helvetica,sans-Serif" font-size="10.00">QualityControl/MonitorObject</text>
<text text-anchor="middle" x="1577" y="-63.5" font-family="Helvetica,sans-Serif" font-size="10.00">Collection.h</text>
</a>
</g>
</g>
<!-- Node23&#45;&gt;Node28 -->
<g id="edge30" class="edge"><title>Node23&#45;&gt;Node28</title>
<path fill="none" stroke="midnightblue" d="M1577,-123.475C1577,-116.471 1577,-106.192 1577,-96.6956"/>
<polygon fill="midnightblue" stroke="midnightblue" points="1580.5,-96.5229 1577,-86.523 1573.5,-96.523 1580.5,-96.5229"/>
</g>
<!-- Node31 -->
<g id="node31" class="node"><title>Node31</title>
<g id="a_node31"><a xlink:href="TaskConfig_8h.html" target="_top" xlink:title="QualityControl/TaskConfig.h">
<polygon fill="none" stroke="black" points="1082,-62 1082,-81 1222,-81 1222,-62 1082,-62"/>
<text text-anchor="middle" x="1152" y="-69" font-family="Helvetica,sans-Serif" font-size="10.00">QualityControl/TaskConfig.h</text>
</a>
</g>
</g>
<!-- Node23&#45;&gt;Node31 -->
<g id="edge33" class="edge"><title>Node23&#45;&gt;Node31</title>
<path fill="none" stroke="midnightblue" d="M1506.02,-123.467C1436.97,-114.969 1329.13,-101.177 1236,-87 1227.39,-85.6893 1218.3,-84.2149 1209.4,-82.7213"/>
<polygon fill="midnightblue" stroke="midnightblue" points="1209.92,-79.2598 1199.48,-81.0346 1208.75,-86.1608 1209.92,-79.2598"/>
</g>
<!-- Node24&#45;&gt;Node16 -->
<g id="edge26" class="edge"><title>Node24&#45;&gt;Node16</title>
<path fill="none" stroke="midnightblue" d="M1316.61,-61.9751C1263.53,-49.8761 1167.59,-28.0045 1120.53,-17.277"/>
<polygon fill="midnightblue" stroke="midnightblue" points="1121.26,-13.8536 1110.74,-15.0433 1119.71,-20.6785 1121.26,-13.8536"/>
</g>
<!-- Node24&#45;&gt;Node18 -->
<g id="edge25" class="edge"><title>Node24&#45;&gt;Node18</title>
<path fill="none" stroke="midnightblue" d="M1329.21,-61.9751C1298.14,-51.2877 1244.89,-32.975 1211.39,-21.4536"/>
<polygon fill="midnightblue" stroke="midnightblue" points="1212.27,-18.0547 1201.68,-18.112 1210,-24.6741 1212.27,-18.0547"/>
</g>
<!-- Node25 -->
<g id="node25" class="node"><title>Node25</title>
<polygon fill="none" stroke="#bfbfbf" points="1250,-0.5 1250,-19.5 1306,-19.5 1306,-0.5 1250,-0.5"/>
<text text-anchor="middle" x="1278" y="-7.5" font-family="Helvetica,sans-Serif" font-size="10.00">Rtypes.h</text>
</g>
<!-- Node24&#45;&gt;Node25 -->
<g id="edge27" class="edge"><title>Node24&#45;&gt;Node25</title>
<path fill="none" stroke="midnightblue" d="M1343.11,-61.9751C1331.03,-52.5199 1311.33,-37.0961 1296.76,-25.6871"/>
<polygon fill="midnightblue" stroke="midnightblue" points="1298.9,-22.9177 1288.87,-19.5091 1294.59,-28.4295 1298.9,-22.9177"/>
</g>
<!-- Node26 -->
<g id="node26" class="node"><title>Node26</title>
<polygon fill="none" stroke="#bfbfbf" points="1324.5,-0.5 1324.5,-19.5 1383.5,-19.5 1383.5,-0.5 1324.5,-0.5"/>
<text text-anchor="middle" x="1354" y="-7.5" font-family="Helvetica,sans-Serif" font-size="10.00">TObject.h</text>
</g>
<!-- Node24&#45;&gt;Node26 -->
<g id="edge28" class="edge"><title>Node24&#45;&gt;Node26</title>
<path fill="none" stroke="midnightblue" d="M1354,-61.9751C1354,-53.5803 1354,-40.4806 1354,-29.6631"/>
<polygon fill="midnightblue" stroke="midnightblue" points="1357.5,-29.5091 1354,-19.5091 1350.5,-29.5091 1357.5,-29.5091"/>
</g>
<!-- Node27 -->
<g id="node27" class="node"><title>Node27</title>
<polygon fill="none" stroke="#bfbfbf" points="1402,-0.5 1402,-19.5 1518,-19.5 1518,-0.5 1402,-0.5"/>
<text text-anchor="middle" x="1460" y="-7.5" font-family="Helvetica,sans-Serif" font-size="10.00">Common/Exceptions.h</text>
</g>
<!-- Node24&#45;&gt;Node27 -->
<g id="edge29" class="edge"><title>Node24&#45;&gt;Node27</title>
<path fill="none" stroke="midnightblue" d="M1369.19,-61.9751C1386.66,-52.1664 1415.58,-35.9346 1436.08,-24.425"/>
<polygon fill="midnightblue" stroke="midnightblue" points="1437.83,-27.456 1444.84,-19.5091 1434.41,-21.3519 1437.83,-27.456"/>
</g>
<!-- Node29 -->
<g id="node29" class="node"><title>Node29</title>
<polygon fill="none" stroke="#bfbfbf" points="1539.5,-0.5 1539.5,-19.5 1608.5,-19.5 1608.5,-0.5 1539.5,-0.5"/>
<text text-anchor="middle" x="1574" y="-7.5" font-family="Helvetica,sans-Serif" font-size="10.00">TObjArray.h</text>
</g>
<!-- Node28&#45;&gt;Node29 -->
<g id="edge31" class="edge"><title>Node28&#45;&gt;Node29</title>
<path fill="none" stroke="midnightblue" d="M1576.29,-56.3993C1575.89,-48.4664 1575.38,-38.458 1574.95,-29.8583"/>
<polygon fill="midnightblue" stroke="midnightblue" points="1578.44,-29.4688 1574.44,-19.6578 1571.44,-29.8214 1578.44,-29.4688"/>
</g>
<!-- Node30 -->
<g id="node30" class="node"><title>Node30</title>
<polygon fill="none" stroke="#bfbfbf" points="1627,-0.5 1627,-19.5 1755,-19.5 1755,-0.5 1627,-0.5"/>
<text text-anchor="middle" x="1691" y="-7.5" font-family="Helvetica,sans-Serif" font-size="10.00">Mergers/MergeInterface.h</text>
</g>
<!-- Node28&#45;&gt;Node30 -->
<g id="edge32" class="edge"><title>Node28&#45;&gt;Node30</title>
<path fill="none" stroke="midnightblue" d="M1604.02,-56.3993C1622.63,-46.6837 1647.21,-33.8551 1665.49,-24.3137"/>
<polygon fill="midnightblue" stroke="midnightblue" points="1667.17,-27.3876 1674.41,-19.6578 1663.93,-21.182 1667.17,-27.3876"/>
</g>
<!-- Node31&#45;&gt;Node18 -->
<g id="edge34" class="edge"><title>Node31&#45;&gt;Node18</title>
<path fill="none" stroke="midnightblue" d="M1156.15,-61.9751C1160.38,-53.3152 1167.04,-39.6486 1172.4,-28.6453"/>
<polygon fill="midnightblue" stroke="midnightblue" points="1175.62,-30.0317 1176.85,-19.5091 1169.33,-26.9648 1175.62,-30.0317"/>
</g>
<!-- Node31&#45;&gt;Node19 -->
<g id="edge35" class="edge"><title>Node31&#45;&gt;Node19</title>
<path fill="none" stroke="midnightblue" d="M1123.34,-61.9751C1088.44,-51.592 1029.35,-34.0116 990.5,-22.4538"/>
<polygon fill="midnightblue" stroke="midnightblue" points="991.185,-19.0059 980.602,-19.5091 989.189,-25.7153 991.185,-19.0059"/>
</g>
</g>
</svg>
