<?xml version="1.0" encoding="UTF-8" standalone="no"?>
<!DOCTYPE svg PUBLIC "-//W3C//DTD SVG 1.1//EN"
 "http://www.w3.org/Graphics/SVG/1.1/DTD/svg11.dtd">
<!-- Generated by graphviz version 2.38.0 (20140413.2041)
 -->
<!-- Title: Modules/TOF/src/TaskDiagnostics.cxx Pages: 1 -->
<svg width="1854pt" height="330pt"
 viewBox="0.00 0.00 1853.50 330.00" xmlns="http://www.w3.org/2000/svg" xmlns:xlink="http://www.w3.org/1999/xlink">
<g id="graph0" class="graph" transform="scale(1 1) rotate(0) translate(4 326)">
<title>Modules/TOF/src/TaskDiagnostics.cxx</title>
<!-- Node1 -->
<g id="node1" class="node"><title>Node1</title>
<polygon fill="#bfbfbf" stroke="black" points="225,-302.5 225,-321.5 413,-321.5 413,-302.5 225,-302.5"/>
<text text-anchor="middle" x="319" y="-309.5" font-family="Helvetica,sans-Serif" font-size="10.00">Modules/TOF/src/TaskDiagnostics.cxx</text>
</g>
<!-- Node2 -->
<g id="node2" class="node"><title>Node2</title>
<polygon fill="none" stroke="#bfbfbf" points="0,-246.5 0,-265.5 50,-265.5 50,-246.5 0,-246.5"/>
<text text-anchor="middle" x="25" y="-253.5" font-family="Helvetica,sans-Serif" font-size="10.00">TH1F.h</text>
</g>
<!-- Node1&#45;&gt;Node2 -->
<g id="edge1" class="edge"><title>Node1&#45;&gt;Node2</title>
<path fill="none" stroke="midnightblue" d="M261.147,-302.471C210.542,-294.675 134.879,-282.21 60.2367,-266.12"/>
<polygon fill="midnightblue" stroke="midnightblue" points="60.7074,-262.64 50.1914,-263.931 59.2169,-269.48 60.7074,-262.64"/>
</g>
<!-- Node3 -->
<g id="node3" class="node"><title>Node3</title>
<polygon fill="none" stroke="#bfbfbf" points="68,-246.5 68,-265.5 118,-265.5 118,-246.5 68,-246.5"/>
<text text-anchor="middle" x="93" y="-253.5" font-family="Helvetica,sans-Serif" font-size="10.00">TH2F.h</text>
</g>
<!-- Node1&#45;&gt;Node3 -->
<g id="edge2" class="edge"><title>Node1&#45;&gt;Node3</title>
<path fill="none" stroke="midnightblue" d="M283.19,-302.444C240.646,-292.278 170.139,-275.431 127.968,-265.355"/>
<polygon fill="midnightblue" stroke="midnightblue" points="128.686,-261.928 118.146,-263.008 127.059,-268.737 128.686,-261.928"/>
</g>
<!-- Node4 -->
<g id="node4" class="node"><title>Node4</title>
<polygon fill="none" stroke="#bfbfbf" points="673,-179.5 673,-209.5 825,-209.5 825,-179.5 673,-179.5"/>
<text text-anchor="start" x="681" y="-197.5" font-family="Helvetica,sans-Serif" font-size="10.00">DataFormatsTOF/Compressed</text>
<text text-anchor="middle" x="749" y="-186.5" font-family="Helvetica,sans-Serif" font-size="10.00">DataFormat.h</text>
</g>
<!-- Node1&#45;&gt;Node4 -->
<g id="edge3" class="edge"><title>Node1&#45;&gt;Node4</title>
<path fill="none" stroke="midnightblue" d="M241.473,-302.471C189.923,-293.802 136.507,-277.063 165,-246 197.908,-210.123 507.911,-199.665 662.38,-196.671"/>
<polygon fill="midnightblue" stroke="midnightblue" points="662.844,-200.163 672.776,-196.476 662.713,-193.164 662.844,-200.163"/>
</g>
<!-- Node5 -->
<g id="node5" class="node"><title>Node5</title>
<polygon fill="none" stroke="#bfbfbf" points="174,-246.5 174,-265.5 308,-265.5 308,-246.5 174,-246.5"/>
<text text-anchor="middle" x="241" y="-253.5" font-family="Helvetica,sans-Serif" font-size="10.00">Framework/DataRefUtils.h</text>
</g>
<!-- Node1&#45;&gt;Node5 -->
<g id="edge4" class="edge"><title>Node1&#45;&gt;Node5</title>
<path fill="none" stroke="midnightblue" d="M306.468,-302.324C294.414,-293.979 275.973,-281.212 261.731,-271.352"/>
<polygon fill="midnightblue" stroke="midnightblue" points="263.715,-268.469 253.501,-265.655 259.731,-274.224 263.715,-268.469"/>
</g>
<!-- Node6 -->
<g id="node6" class="node"><title>Node6</title>
<polygon fill="none" stroke="#bfbfbf" points="326.5,-246.5 326.5,-265.5 467.5,-265.5 467.5,-246.5 326.5,-246.5"/>
<text text-anchor="middle" x="397" y="-253.5" font-family="Helvetica,sans-Serif" font-size="10.00">Headers/RAWDataHeader.h</text>
</g>
<!-- Node1&#45;&gt;Node6 -->
<g id="edge5" class="edge"><title>Node1&#45;&gt;Node6</title>
<path fill="none" stroke="midnightblue" d="M331.532,-302.324C343.586,-293.979 362.027,-281.212 376.269,-271.352"/>
<polygon fill="midnightblue" stroke="midnightblue" points="378.269,-274.224 384.499,-265.655 374.285,-268.469 378.269,-274.224"/>
</g>
<!-- Node7 -->
<g id="node7" class="node"><title>Node7</title>
<polygon fill="none" stroke="#bfbfbf" points="485.5,-246.5 485.5,-265.5 616.5,-265.5 616.5,-246.5 485.5,-246.5"/>
<text text-anchor="middle" x="551" y="-253.5" font-family="Helvetica,sans-Serif" font-size="10.00">DetectorsRaw/HBFUtils.h</text>
</g>
<!-- Node1&#45;&gt;Node7 -->
<g id="edge6" class="edge"><title>Node1&#45;&gt;Node7</title>
<path fill="none" stroke="midnightblue" d="M355.761,-302.444C396.063,-293.063 460.809,-277.993 504.585,-267.804"/>
<polygon fill="midnightblue" stroke="midnightblue" points="505.465,-271.192 514.411,-265.516 503.878,-264.375 505.465,-271.192"/>
</g>
<!-- Node8 -->
<g id="node8" class="node"><title>Node8</title>
<g id="a_node8"><a xlink:href="QcInfoLogger_8h.html" target="_top" xlink:title="QualityControl/QcInfoLogger.h">
<polygon fill="none" stroke="black" points="576.5,-123.5 576.5,-142.5 725.5,-142.5 725.5,-123.5 576.5,-123.5"/>
<text text-anchor="middle" x="651" y="-130.5" font-family="Helvetica,sans-Serif" font-size="10.00">QualityControl/QcInfoLogger.h</text>
</a>
</g>
</g>
<!-- Node1&#45;&gt;Node8 -->
<g id="edge7" class="edge"><title>Node1&#45;&gt;Node8</title>
<path fill="none" stroke="midnightblue" d="M413.302,-308.768C491.766,-304.874 595.258,-294.334 625,-266 656.053,-236.416 655.935,-181.359 653.387,-152.592"/>
<polygon fill="midnightblue" stroke="midnightblue" points="656.866,-152.213 652.31,-142.647 649.907,-152.966 656.866,-152.213"/>
</g>
<!-- Node11 -->
<g id="node11" class="node"><title>Node11</title>
<g id="a_node11"><a xlink:href="TaskDiagnostics_8h.html" target="_top" xlink:title="Task to check the diagnostic words of TOF crates received trough the TOF compressor. Here are defined the counters to check the diagnostics words of the TOF crates obtained from the compressor. This is why the DiagnosticCounter class derives from DecoderBase: it reads data from the decoder. ">
<polygon fill="none" stroke="black" points="825.5,-246.5 825.5,-265.5 946.5,-265.5 946.5,-246.5 825.5,-246.5"/>
<text text-anchor="middle" x="886" y="-253.5" font-family="Helvetica,sans-Serif" font-size="10.00">TOF/TaskDiagnostics.h</text>
</a>
</g>
</g>
<!-- Node1&#45;&gt;Node11 -->
<g id="edge10" class="edge"><title>Node1&#45;&gt;Node11</title>
<path fill="none" stroke="midnightblue" d="M408.53,-302.473C521.179,-291.745 712.324,-273.541 815.285,-263.735"/>
<polygon fill="midnightblue" stroke="midnightblue" points="815.648,-267.216 825.271,-262.784 814.984,-260.248 815.648,-267.216"/>
</g>
<!-- Node9 -->
<g id="node9" class="node"><title>Node9</title>
<polygon fill="none" stroke="#bfbfbf" points="429,-62 429,-81 559,-81 559,-62 429,-62"/>
<text text-anchor="middle" x="494" y="-69" font-family="Helvetica,sans-Serif" font-size="10.00">InfoLogger/InfoLogger.hxx</text>
</g>
<!-- Node8&#45;&gt;Node9 -->
<g id="edge8" class="edge"><title>Node8&#45;&gt;Node9</title>
<path fill="none" stroke="midnightblue" d="M628.506,-123.475C601.691,-113.313 556.685,-96.2564 526.191,-84.6996"/>
<polygon fill="midnightblue" stroke="midnightblue" points="527.044,-81.2801 516.453,-81.0091 524.563,-87.8258 527.044,-81.2801"/>
</g>
<!-- Node10 -->
<g id="node10" class="node"><title>Node10</title>
<polygon fill="none" stroke="#bfbfbf" points="577,-62 577,-81 739,-81 739,-62 577,-62"/>
<text text-anchor="middle" x="658" y="-69" font-family="Helvetica,sans-Serif" font-size="10.00">InfoLogger/InfoLoggerMacros.hxx</text>
</g>
<!-- Node8&#45;&gt;Node10 -->
<g id="edge9" class="edge"><title>Node8&#45;&gt;Node10</title>
<path fill="none" stroke="midnightblue" d="M652.003,-123.475C652.991,-115.08 654.532,-101.981 655.804,-91.1631"/>
<polygon fill="midnightblue" stroke="midnightblue" points="659.306,-91.3496 656.999,-81.0091 652.354,-90.5316 659.306,-91.3496"/>
</g>
<!-- Node11&#45;&gt;Node4 -->
<g id="edge12" class="edge"><title>Node11&#45;&gt;Node4</title>
<path fill="none" stroke="midnightblue" d="M866.371,-246.475C846.689,-237.927 815.776,-224.501 790.614,-213.573"/>
<polygon fill="midnightblue" stroke="midnightblue" points="791.855,-210.296 781.288,-209.523 789.066,-216.717 791.855,-210.296"/>
</g>
<!-- Node12 -->
<g id="node12" class="node"><title>Node12</title>
<polygon fill="none" stroke="#bfbfbf" points="947,-179.5 947,-209.5 1089,-209.5 1089,-179.5 947,-179.5"/>
<text text-anchor="start" x="955" y="-197.5" font-family="Helvetica,sans-Serif" font-size="10.00">TOFReconstruction/Decoder</text>
<text text-anchor="middle" x="1018" y="-186.5" font-family="Helvetica,sans-Serif" font-size="10.00">Base.h</text>
</g>
<!-- Node11&#45;&gt;Node12 -->
<g id="edge11" class="edge"><title>Node11&#45;&gt;Node12</title>
<path fill="none" stroke="midnightblue" d="M904.912,-246.475C923.792,-237.965 953.399,-224.619 977.584,-213.718"/>
<polygon fill="midnightblue" stroke="midnightblue" points="979.212,-216.823 986.89,-209.523 976.335,-210.442 979.212,-216.823"/>
</g>
<!-- Node13 -->
<g id="node13" class="node"><title>Node13</title>
<g id="a_node13"><a xlink:href="TaskInterface_8h.html" target="_top" xlink:title="QualityControl/TaskInterface.h">
<polygon fill="none" stroke="black" points="1273,-185 1273,-204 1423,-204 1423,-185 1273,-185"/>
<text text-anchor="middle" x="1348" y="-192" font-family="Helvetica,sans-Serif" font-size="10.00">QualityControl/TaskInterface.h</text>
</a>
</g>
</g>
<!-- Node11&#45;&gt;Node13 -->
<g id="edge13" class="edge"><title>Node11&#45;&gt;Node13</title>
<path fill="none" stroke="midnightblue" d="M946.874,-247.16C1030.48,-236.393 1180.8,-217.033 1271.78,-205.316"/>
<polygon fill="midnightblue" stroke="midnightblue" points="1272.29,-208.78 1281.76,-204.031 1271.39,-201.837 1272.29,-208.78"/>
</g>
<!-- Node30 -->
<g id="node30" class="node"><title>Node30</title>
<g id="a_node30"><a xlink:href="Counter_8h.html" target="_top" xlink:title="Utilities to count events and fill histograms at the end of the main processing loops. ">
<polygon fill="none" stroke="black" points="843.5,-185 843.5,-204 928.5,-204 928.5,-185 843.5,-185"/>
<text text-anchor="middle" x="886" y="-192" font-family="Helvetica,sans-Serif" font-size="10.00">Base/Counter.h</text>
</a>
</g>
</g>
<!-- Node11&#45;&gt;Node30 -->
<g id="edge36" class="edge"><title>Node11&#45;&gt;Node30</title>
<path fill="none" stroke="midnightblue" d="M886,-246.475C886,-238.08 886,-224.981 886,-214.163"/>
<polygon fill="midnightblue" stroke="midnightblue" points="889.5,-214.009 886,-204.009 882.5,-214.009 889.5,-214.009"/>
</g>
<!-- Node14 -->
<g id="node14" class="node"><title>Node14</title>
<polygon fill="none" stroke="#bfbfbf" points="1810.5,-0.5 1810.5,-19.5 1845.5,-19.5 1845.5,-0.5 1810.5,-0.5"/>
<text text-anchor="middle" x="1828" y="-7.5" font-family="Helvetica,sans-Serif" font-size="10.00">map</text>
</g>
<!-- Node13&#45;&gt;Node14 -->
<g id="edge14" class="edge"><title>Node13&#45;&gt;Node14</title>
<path fill="none" stroke="midnightblue" d="M1423.28,-186.486C1488.98,-179.226 1586.45,-165.692 1669,-143 1733.62,-125.236 1764.93,-137.487 1809,-87 1822.81,-71.1825 1826.87,-46.805 1827.92,-29.9432"/>
<polygon fill="midnightblue" stroke="midnightblue" points="1831.43,-29.7749 1828.25,-19.668 1824.43,-29.5508 1831.43,-29.7749"/>
</g>
<!-- Node15 -->
<g id="node15" class="node"><title>Node15</title>
<polygon fill="none" stroke="#bfbfbf" points="1748,-62 1748,-81 1800,-81 1800,-62 1748,-62"/>
<text text-anchor="middle" x="1774" y="-69" font-family="Helvetica,sans-Serif" font-size="10.00">memory</text>
</g>
<!-- Node13&#45;&gt;Node15 -->
<g id="edge15" class="edge"><title>Node13&#45;&gt;Node15</title>
<path fill="none" stroke="midnightblue" d="M1423.3,-185.911C1481.15,-178.691 1562.48,-165.502 1631,-143 1675.46,-128.399 1723.57,-102.335 1751.11,-86.3168"/>
<polygon fill="midnightblue" stroke="midnightblue" points="1753.12,-89.197 1759.96,-81.1052 1749.56,-83.1659 1753.12,-89.197"/>
</g>
<!-- Node16 -->
<g id="node16" class="node"><title>Node16</title>
<polygon fill="none" stroke="#bfbfbf" points="1465.5,-0.5 1465.5,-19.5 1506.5,-19.5 1506.5,-0.5 1465.5,-0.5"/>
<text text-anchor="middle" x="1486" y="-7.5" font-family="Helvetica,sans-Serif" font-size="10.00">string</text>
</g>
<!-- Node13&#45;&gt;Node16 -->
<g id="edge16" class="edge"><title>Node13&#45;&gt;Node16</title>
<path fill="none" stroke="midnightblue" d="M1423.26,-188.581C1488.64,-182.553 1576.2,-169.645 1598,-143 1603.63,-136.12 1601.4,-131.212 1598,-123 1592.97,-110.866 1533.08,-54.4712 1503,-26.6314"/>
<polygon fill="midnightblue" stroke="midnightblue" points="1505.11,-23.8076 1495.38,-19.597 1500.36,-28.9514 1505.11,-23.8076"/>
</g>
<!-- Node17 -->
<g id="node17" class="node"><title>Node17</title>
<polygon fill="none" stroke="#bfbfbf" points="1171.5,-0.5 1171.5,-19.5 1254.5,-19.5 1254.5,-0.5 1171.5,-0.5"/>
<text text-anchor="middle" x="1213" y="-7.5" font-family="Helvetica,sans-Serif" font-size="10.00">unordered_map</text>
</g>
<!-- Node13&#45;&gt;Node17 -->
<g id="edge17" class="edge"><title>Node13&#45;&gt;Node17</title>
<path fill="none" stroke="midnightblue" d="M1272.95,-189.099C1165.01,-181.992 976.562,-166.38 956,-143 892.304,-70.5721 1069.3,-32.4754 1161.34,-17.9994"/>
<polygon fill="midnightblue" stroke="midnightblue" points="1161.96,-21.4451 1171.31,-16.4704 1160.9,-14.5259 1161.96,-21.4451"/>
</g>
<!-- Node18 -->
<g id="node18" class="node"><title>Node18</title>
<polygon fill="none" stroke="#bfbfbf" points="964.5,-123.5 964.5,-142.5 1089.5,-142.5 1089.5,-123.5 964.5,-123.5"/>
<text text-anchor="middle" x="1027" y="-130.5" font-family="Helvetica,sans-Serif" font-size="10.00">Framework/InitContext.h</text>
</g>
<!-- Node13&#45;&gt;Node18 -->
<g id="edge18" class="edge"><title>Node13&#45;&gt;Node18</title>
<path fill="none" stroke="midnightblue" d="M1302.01,-184.975C1244.2,-174.261 1145.05,-155.882 1082.92,-144.366"/>
<polygon fill="midnightblue" stroke="midnightblue" points="1083.38,-140.89 1072.91,-142.509 1082.1,-147.773 1083.38,-140.89"/>
</g>
<!-- Node19 -->
<g id="node19" class="node"><title>Node19</title>
<polygon fill="none" stroke="#bfbfbf" points="1108,-123.5 1108,-142.5 1268,-142.5 1268,-123.5 1108,-123.5"/>
<text text-anchor="middle" x="1188" y="-130.5" font-family="Helvetica,sans-Serif" font-size="10.00">Framework/ProcessingContext.h</text>
</g>
<!-- Node13&#45;&gt;Node19 -->
<g id="edge19" class="edge"><title>Node13&#45;&gt;Node19</title>
<path fill="none" stroke="midnightblue" d="M1325.08,-184.975C1297.63,-174.769 1251.48,-157.608 1220.4,-146.049"/>
<polygon fill="midnightblue" stroke="midnightblue" points="1221.47,-142.714 1210.88,-142.509 1219.03,-149.275 1221.47,-142.714"/>
</g>
<!-- Node20 -->
<g id="node20" class="node"><title>Node20</title>
<g id="a_node20"><a xlink:href="Activity_8h.html" target="_top" xlink:title="QualityControl/Activity.h">
<polygon fill="none" stroke="black" points="1286.5,-123.5 1286.5,-142.5 1409.5,-142.5 1409.5,-123.5 1286.5,-123.5"/>
<text text-anchor="middle" x="1348" y="-130.5" font-family="Helvetica,sans-Serif" font-size="10.00">QualityControl/Activity.h</text>
</a>
</g>
</g>
<!-- Node13&#45;&gt;Node20 -->
<g id="edge20" class="edge"><title>Node13&#45;&gt;Node20</title>
<path fill="none" stroke="midnightblue" d="M1348,-184.975C1348,-176.58 1348,-163.481 1348,-152.663"/>
<polygon fill="midnightblue" stroke="midnightblue" points="1351.5,-152.509 1348,-142.509 1344.5,-152.509 1351.5,-152.509"/>
</g>
<!-- Node21 -->
<g id="node21" class="node"><title>Node21</title>
<g id="a_node21"><a xlink:href="ObjectsManager_8h.html" target="_top" xlink:title="QualityControl/ObjectsManager.h">
<polygon fill="none" stroke="black" points="1427.5,-123.5 1427.5,-142.5 1588.5,-142.5 1588.5,-123.5 1427.5,-123.5"/>
<text text-anchor="middle" x="1508" y="-130.5" font-family="Helvetica,sans-Serif" font-size="10.00">QualityControl/ObjectsManager.h</text>
</a>
</g>
</g>
<!-- Node13&#45;&gt;Node21 -->
<g id="edge21" class="edge"><title>Node13&#45;&gt;Node21</title>
<path fill="none" stroke="midnightblue" d="M1370.92,-184.975C1398.37,-174.769 1444.52,-157.608 1475.6,-146.049"/>
<polygon fill="midnightblue" stroke="midnightblue" points="1476.97,-149.275 1485.12,-142.509 1474.53,-142.714 1476.97,-149.275"/>
</g>
<!-- Node21&#45;&gt;Node15 -->
<g id="edge35" class="edge"><title>Node21&#45;&gt;Node15</title>
<path fill="none" stroke="midnightblue" d="M1569.61,-123.441C1616.62,-116.087 1682.66,-103.969 1739,-87 1741.28,-86.3117 1743.63,-85.5273 1745.96,-84.6878"/>
<polygon fill="midnightblue" stroke="midnightblue" points="1747.31,-87.9182 1755.36,-81.032 1744.77,-81.3941 1747.31,-87.9182"/>
</g>
<!-- Node21&#45;&gt;Node16 -->
<g id="edge34" class="edge"><title>Node21&#45;&gt;Node16</title>
<path fill="none" stroke="midnightblue" d="M1506.42,-123.298C1502.87,-103.763 1494.19,-56.0646 1489.37,-29.5471"/>
<polygon fill="midnightblue" stroke="midnightblue" points="1492.8,-28.8357 1487.57,-19.6232 1485.91,-30.088 1492.8,-28.8357"/>
</g>
<!-- Node22 -->
<g id="node22" class="node"><title>Node22</title>
<g id="a_node22"><a xlink:href="MonitorObject_8h.html" target="_top" xlink:title="QualityControl/MonitorObject.h">
<polygon fill="none" stroke="black" points="1578.5,-62 1578.5,-81 1729.5,-81 1729.5,-62 1578.5,-62"/>
<text text-anchor="middle" x="1654" y="-69" font-family="Helvetica,sans-Serif" font-size="10.00">QualityControl/MonitorObject.h</text>
</a>
</g>
</g>
<!-- Node21&#45;&gt;Node22 -->
<g id="edge22" class="edge"><title>Node21&#45;&gt;Node22</title>
<path fill="none" stroke="midnightblue" d="M1528.92,-123.475C1553.75,-113.357 1595.34,-96.4046 1623.69,-84.8507"/>
<polygon fill="midnightblue" stroke="midnightblue" points="1625.18,-88.0243 1633.12,-81.0091 1622.54,-81.5419 1625.18,-88.0243"/>
</g>
<!-- Node26 -->
<g id="node26" class="node"><title>Node26</title>
<g id="a_node26"><a xlink:href="MonitorObjectCollection_8h.html" target="_top" xlink:title="QualityControl/MonitorObject\lCollection.h">
<polygon fill="none" stroke="black" points="764.5,-56.5 764.5,-86.5 907.5,-86.5 907.5,-56.5 764.5,-56.5"/>
<text text-anchor="start" x="772.5" y="-74.5" font-family="Helvetica,sans-Serif" font-size="10.00">QualityControl/MonitorObject</text>
<text text-anchor="middle" x="836" y="-63.5" font-family="Helvetica,sans-Serif" font-size="10.00">Collection.h</text>
</a>
</g>
</g>
<!-- Node21&#45;&gt;Node26 -->
<g id="edge28" class="edge"><title>Node21&#45;&gt;Node26</title>
<path fill="none" stroke="midnightblue" d="M1427.47,-123.805C1424.62,-123.53 1421.78,-123.261 1419,-123 1240.48,-106.243 1031.01,-88.5887 918.119,-79.2389"/>
<polygon fill="midnightblue" stroke="midnightblue" points="918.087,-75.7243 907.832,-78.3878 917.509,-82.7005 918.087,-75.7243"/>
</g>
<!-- Node29 -->
<g id="node29" class="node"><title>Node29</title>
<g id="a_node29"><a xlink:href="TaskConfig_8h.html" target="_top" xlink:title="QualityControl/TaskConfig.h">
<polygon fill="none" stroke="black" points="1340,-62 1340,-81 1480,-81 1480,-62 1340,-62"/>
<text text-anchor="middle" x="1410" y="-69" font-family="Helvetica,sans-Serif" font-size="10.00">QualityControl/TaskConfig.h</text>
</a>
</g>
</g>
<!-- Node21&#45;&gt;Node29 -->
<g id="edge31" class="edge"><title>Node21&#45;&gt;Node29</title>
<path fill="none" stroke="midnightblue" d="M1493.96,-123.475C1477.95,-113.755 1451.55,-97.7266 1432.63,-86.2372"/>
<polygon fill="midnightblue" stroke="midnightblue" points="1434.38,-83.2072 1424.01,-81.0091 1430.75,-89.1907 1434.38,-83.2072"/>
</g>
<!-- Node22&#45;&gt;Node14 -->
<g id="edge24" class="edge"><title>Node22&#45;&gt;Node14</title>
<path fill="none" stroke="midnightblue" d="M1678.93,-61.9751C1711.12,-50.9674 1766.97,-31.8704 1800.4,-20.4363"/>
<polygon fill="midnightblue" stroke="midnightblue" points="1801.68,-23.6987 1810.01,-17.1513 1799.42,-17.0752 1801.68,-23.6987"/>
</g>
<!-- Node22&#45;&gt;Node16 -->
<g id="edge23" class="edge"><title>Node22&#45;&gt;Node16</title>
<path fill="none" stroke="midnightblue" d="M1629.93,-61.9751C1599.92,-51.346 1548.61,-33.1744 1516.05,-21.6426"/>
<polygon fill="midnightblue" stroke="midnightblue" points="1517.19,-18.332 1506.59,-18.2926 1514.85,-24.9303 1517.19,-18.332"/>
</g>
<!-- Node23 -->
<g id="node23" class="node"><title>Node23</title>
<polygon fill="none" stroke="#bfbfbf" points="1736,-0.5 1736,-19.5 1792,-19.5 1792,-0.5 1736,-0.5"/>
<text text-anchor="middle" x="1764" y="-7.5" font-family="Helvetica,sans-Serif" font-size="10.00">Rtypes.h</text>
</g>
<!-- Node22&#45;&gt;Node23 -->
<g id="edge25" class="edge"><title>Node22&#45;&gt;Node23</title>
<path fill="none" stroke="midnightblue" d="M1669.76,-61.9751C1687.98,-52.1222 1718.17,-35.7883 1739.47,-24.2697"/>
<polygon fill="midnightblue" stroke="midnightblue" points="1741.14,-27.3453 1748.27,-19.5091 1737.81,-21.1883 1741.14,-27.3453"/>
</g>
<!-- Node24 -->
<g id="node24" class="node"><title>Node24</title>
<polygon fill="none" stroke="#bfbfbf" points="1524.5,-0.5 1524.5,-19.5 1583.5,-19.5 1583.5,-0.5 1524.5,-0.5"/>
<text text-anchor="middle" x="1554" y="-7.5" font-family="Helvetica,sans-Serif" font-size="10.00">TObject.h</text>
</g>
<!-- Node22&#45;&gt;Node24 -->
<g id="edge26" class="edge"><title>Node22&#45;&gt;Node24</title>
<path fill="none" stroke="midnightblue" d="M1639.67,-61.9751C1623.34,-52.2548 1596.4,-36.2266 1577.09,-24.7372"/>
<polygon fill="midnightblue" stroke="midnightblue" points="1578.68,-21.6146 1568.3,-19.5091 1575.11,-27.6303 1578.68,-21.6146"/>
</g>
<!-- Node25 -->
<g id="node25" class="node"><title>Node25</title>
<polygon fill="none" stroke="#bfbfbf" points="1602,-0.5 1602,-19.5 1718,-19.5 1718,-0.5 1602,-0.5"/>
<text text-anchor="middle" x="1660" y="-7.5" font-family="Helvetica,sans-Serif" font-size="10.00">Common/Exceptions.h</text>
</g>
<!-- Node22&#45;&gt;Node25 -->
<g id="edge27" class="edge"><title>Node22&#45;&gt;Node25</title>
<path fill="none" stroke="midnightblue" d="M1654.86,-61.9751C1655.71,-53.5803 1657.03,-40.4806 1658.12,-29.6631"/>
<polygon fill="midnightblue" stroke="midnightblue" points="1661.62,-29.8098 1659.14,-19.5091 1654.66,-29.1074 1661.62,-29.8098"/>
</g>
<!-- Node27 -->
<g id="node27" class="node"><title>Node27</title>
<polygon fill="none" stroke="#bfbfbf" points="743.5,-0.5 743.5,-19.5 812.5,-19.5 812.5,-0.5 743.5,-0.5"/>
<text text-anchor="middle" x="778" y="-7.5" font-family="Helvetica,sans-Serif" font-size="10.00">TObjArray.h</text>
</g>
<!-- Node26&#45;&gt;Node27 -->
<g id="edge29" class="edge"><title>Node26&#45;&gt;Node27</title>
<path fill="none" stroke="midnightblue" d="M822.255,-56.3993C813.653,-47.575 802.548,-36.1827 793.614,-27.0178"/>
<polygon fill="midnightblue" stroke="midnightblue" points="795.926,-24.3755 786.44,-19.6578 790.914,-29.2616 795.926,-24.3755"/>
</g>
<!-- Node28 -->
<g id="node28" class="node"><title>Node28</title>
<polygon fill="none" stroke="#bfbfbf" points="831,-0.5 831,-19.5 959,-19.5 959,-0.5 831,-0.5"/>
<text text-anchor="middle" x="895" y="-7.5" font-family="Helvetica,sans-Serif" font-size="10.00">Mergers/MergeInterface.h</text>
</g>
<!-- Node26&#45;&gt;Node28 -->
<g id="edge30" class="edge"><title>Node26&#45;&gt;Node28</title>
<path fill="none" stroke="midnightblue" d="M849.982,-56.3993C858.732,-47.575 870.029,-36.1827 879.117,-27.0178"/>
<polygon fill="midnightblue" stroke="midnightblue" points="881.859,-29.2231 886.415,-19.6578 876.888,-24.2942 881.859,-29.2231"/>
</g>
<!-- Node29&#45;&gt;Node16 -->
<g id="edge32" class="edge"><title>Node29&#45;&gt;Node16</title>
<path fill="none" stroke="midnightblue" d="M1420.89,-61.9751C1432.97,-52.5199 1452.67,-37.0961 1467.24,-25.6871"/>
<polygon fill="midnightblue" stroke="midnightblue" points="1469.41,-28.4295 1475.13,-19.5091 1465.1,-22.9177 1469.41,-28.4295"/>
</g>
<!-- Node29&#45;&gt;Node17 -->
<g id="edge33" class="edge"><title>Node29&#45;&gt;Node17</title>
<path fill="none" stroke="midnightblue" d="M1381.77,-61.9751C1347.4,-51.592 1289.19,-34.0116 1250.92,-22.4538"/>
<polygon fill="midnightblue" stroke="midnightblue" points="1251.76,-19.0499 1241.17,-19.5091 1249.73,-25.751 1251.76,-19.0499"/>
</g>
<!-- Node30&#45;&gt;Node8 -->
<g id="edge38" class="edge"><title>Node30&#45;&gt;Node8</title>
<path fill="none" stroke="midnightblue" d="M856.07,-184.984C848.855,-182.979 841.162,-180.879 834,-179 787.572,-166.822 734.258,-153.823 697.197,-144.944"/>
<polygon fill="midnightblue" stroke="midnightblue" points="697.734,-141.473 687.195,-142.552 696.107,-148.282 697.734,-141.473"/>
</g>
<!-- Node31 -->
<g id="node31" class="node"><title>Node31</title>
<polygon fill="none" stroke="#bfbfbf" points="864,-123.5 864,-142.5 908,-142.5 908,-123.5 864,-123.5"/>
<text text-anchor="middle" x="886" y="-130.5" font-family="Helvetica,sans-Serif" font-size="10.00">TH1.h</text>
</g>
<!-- Node30&#45;&gt;Node31 -->
<g id="edge37" class="edge"><title>Node30&#45;&gt;Node31</title>
<path fill="none" stroke="midnightblue" d="M886,-184.975C886,-176.58 886,-163.481 886,-152.663"/>
<polygon fill="midnightblue" stroke="midnightblue" points="889.5,-152.509 886,-142.509 882.5,-152.509 889.5,-152.509"/>
</g>
<!-- Node32 -->
<g id="node32" class="node"><title>Node32</title>
<polygon fill="none" stroke="#bfbfbf" points="749.5,-123.5 749.5,-142.5 846.5,-142.5 846.5,-123.5 749.5,-123.5"/>
<text text-anchor="middle" x="798" y="-130.5" font-family="Helvetica,sans-Serif" font-size="10.00">fairlogger/Logger.h</text>
</g>
<!-- Node30&#45;&gt;Node32 -->
<g id="edge39" class="edge"><title>Node30&#45;&gt;Node32</title>
<path fill="none" stroke="midnightblue" d="M873.392,-184.975C859.277,-175.431 836.169,-159.807 819.251,-148.368"/>
<polygon fill="midnightblue" stroke="midnightblue" points="820.829,-145.211 810.585,-142.509 816.909,-151.01 820.829,-145.211"/>
</g>
</g>
</svg>
