<?xml version="1.0" encoding="UTF-8" standalone="no"?>
<!DOCTYPE svg PUBLIC "-//W3C//DTD SVG 1.1//EN"
 "http://www.w3.org/Graphics/SVG/1.1/DTD/svg11.dtd">
<!-- Generated by graphviz version 2.38.0 (20140413.2041)
 -->
<!-- Title: Framework/src/TaskRunner.cxx Pages: 1 -->
<!--zoomable 341 -->
<svg id="main" version="1.1" xmlns="http://www.w3.org/2000/svg" xmlns:xlink="http://www.w3.org/1999/xlink" xml:space="preserve" onload="init(evt)">
<style type="text/css"><![CDATA[
.edge:hover path { stroke: red; }
.edge:hover polygon { stroke: red; fill: red; }
]]></style>
<script type="text/javascript"><![CDATA[
var edges = document.getElementsByTagName('g');
if (edges && edges.length) {
  for (var i=0;i<edges.length;i++) {
    if (edges[i].id.substr(0,4)=='edge') {
      edges[i].setAttribute('class','edge');
    }
  }
}
]]></script>
        <defs>
                <circle id="rim" cx="0" cy="0" r="7"/>
                <circle id="rim2" cx="0" cy="0" r="3.5"/>
                <g id="zoomPlus">
                        <use xlink:href="#rim" fill="#404040">
                                <set attributeName="fill" to="#808080" begin="zoomplus.mouseover" end="zoomplus.mouseout"/>
                        </use>
                        <path d="M-4,0h8M0,-4v8" fill="none" stroke="white" stroke-width="1.5" pointer-events="none"/>
                </g>
                <g id="zoomMin">
                        <use xlink:href="#rim" fill="#404040">
                                <set attributeName="fill" to="#808080" begin="zoomminus.mouseover" end="zoomminus.mouseout"/>
                        </use>
                        <path d="M-4,0h8" fill="none" stroke="white" stroke-width="1.5" pointer-events="none"/>
                </g>
                <g id="dirArrow">
                        <path fill="none" stroke="white" stroke-width="1.5" d="M0,-3.0v7 M-2.5,-0.5L0,-3.0L2.5,-0.5"/>
                </g>
               <g id="resetDef">
                       <use xlink:href="#rim2" fill="#404040">
                               <set attributeName="fill" to="#808080" begin="reset.mouseover" end="reset.mouseout"/>
                       </use>
               </g>
        </defs>

<script type="text/javascript">
var viewWidth = 3543;
var viewHeight = 341;
var sectionId = 'dynsection-0';
</script>
<script xlink:href="svgpan.js"/>
<svg id="graph" class="graph">
<g id="viewport">
<title>Framework/src/TaskRunner.cxx</title>
<!-- Node1 -->
<g id="node1" class="node"><title>Node1</title>
<polygon fill="#bfbfbf" stroke="black" points="2104,-313.5 2104,-332.5 2261,-332.5 2261,-313.5 2104,-313.5"/>
<text text-anchor="middle" x="2182.5" y="-320.5" font-family="Helvetica,sans-Serif" font-size="10.00">Framework/src/TaskRunner.cxx</text>
</g>
<!-- Node2 -->
<g id="node2" class="node"><title>Node2</title>
<g id="a_node2"><a xlink:href="TaskRunner_8h.html" target="_top" xlink:title="QualityControl/TaskRunner.h">
<polygon fill="none" stroke="black" points="432,-252 432,-271 575,-271 575,-252 432,-252"/>
<text text-anchor="middle" x="503.5" y="-259" font-family="Helvetica,sans-Serif" font-size="10.00">QualityControl/TaskRunner.h</text>
</a>
</g>
</g>
<!-- Node1&#45;&gt;Node2 -->
<g id="edge1" class="edge"><title>Node1&#45;&gt;Node2</title>
<path fill="none" stroke="midnightblue" d="M2103.77,-319.21C1822.95,-309.258 871.958,-275.557 585.696,-265.413"/>
<polygon fill="midnightblue" stroke="midnightblue" points="585.508,-261.904 575.39,-265.048 585.26,-268.9 585.508,-261.904"/>
</g>
<!-- Node12 -->
<g id="node12" class="node"><title>Node12</title>
<polygon fill="none" stroke="#bfbfbf" points="1424,-0.5 1424,-19.5 1465,-19.5 1465,-0.5 1424,-0.5"/>
<text text-anchor="middle" x="1444.5" y="-7.5" font-family="Helvetica,sans-Serif" font-size="10.00">string</text>
</g>
<!-- Node1&#45;&gt;Node12 -->
<g id="edge53" class="edge"><title>Node1&#45;&gt;Node12</title>
<path fill="none" stroke="midnightblue" d="M2103.94,-319.558C1968.64,-314.706 1702.8,-302.084 1668.5,-277 1636.82,-253.831 1634.5,-234.748 1634.5,-195.5 1634.5,-195.5 1634.5,-195.5 1634.5,-132 1634.5,-57.3907 1528.98,-26.7838 1475.21,-16.0313"/>
<polygon fill="midnightblue" stroke="midnightblue" points="1475.67,-12.5563 1465.2,-14.1384 1474.37,-19.4345 1475.67,-12.5563"/>
</g>
<!-- Node16 -->
<g id="node16" class="node"><title>Node16</title>
<polygon fill="none" stroke="#bfbfbf" points="1521.5,-62 1521.5,-81 1573.5,-81 1573.5,-62 1521.5,-62"/>
<text text-anchor="middle" x="1547.5" y="-69" font-family="Helvetica,sans-Serif" font-size="10.00">memory</text>
</g>
<!-- Node1&#45;&gt;Node16 -->
<g id="edge34" class="edge"><title>Node1&#45;&gt;Node16</title>
<path fill="none" stroke="midnightblue" d="M2103.95,-320.385C1958.38,-316.717 1657.99,-305.729 1620.5,-277 1560.88,-231.306 1549.84,-132.845 1547.88,-91.4473"/>
<polygon fill="midnightblue" stroke="midnightblue" points="1551.38,-91.2496 1547.54,-81.3756 1544.38,-91.4898 1551.38,-91.2496"/>
</g>
<!-- Node23 -->
<g id="node23" class="node"><title>Node23</title>
<polygon fill="none" stroke="#bfbfbf" points="1548.5,-0.5 1548.5,-19.5 1664.5,-19.5 1664.5,-0.5 1548.5,-0.5"/>
<text text-anchor="middle" x="1606.5" y="-7.5" font-family="Helvetica,sans-Serif" font-size="10.00">Common/Exceptions.h</text>
</g>
<!-- Node1&#45;&gt;Node23 -->
<g id="edge35" class="edge"><title>Node1&#45;&gt;Node23</title>
<path fill="none" stroke="midnightblue" d="M2103.92,-319.773C1973.08,-315.339 1721.88,-303.46 1691.5,-277 1663.45,-252.571 1672.5,-232.694 1672.5,-195.5 1672.5,-195.5 1672.5,-195.5 1672.5,-132 1672.5,-96.578 1666.36,-86.5909 1648.5,-56 1642.13,-45.0895 1632.69,-34.6594 1624.37,-26.5927"/>
<polygon fill="midnightblue" stroke="midnightblue" points="1626.59,-23.8759 1616.87,-19.6443 1621.83,-29.0095 1626.59,-23.8759"/>
</g>
<!-- Node27 -->
<g id="node27" class="node"><title>Node27</title>
<polygon fill="none" stroke="#bfbfbf" points="1701,-246.5 1701,-276.5 1836,-276.5 1836,-246.5 1701,-246.5"/>
<text text-anchor="start" x="1709" y="-264.5" font-family="Helvetica,sans-Serif" font-size="10.00">Configuration/Configuration</text>
<text text-anchor="middle" x="1768.5" y="-253.5" font-family="Helvetica,sans-Serif" font-size="10.00">Factory.h</text>
</g>
<!-- Node1&#45;&gt;Node27 -->
<g id="edge36" class="edge"><title>Node1&#45;&gt;Node27</title>
<path fill="none" stroke="midnightblue" d="M2109.47,-313.479C2043.17,-305.468 1942.47,-292.618 1845.94,-277.183"/>
<polygon fill="midnightblue" stroke="midnightblue" points="1846.44,-273.719 1836.01,-275.584 1845.33,-280.63 1846.44,-273.719"/>
</g>
<!-- Node28 -->
<g id="node28" class="node"><title>Node28</title>
<polygon fill="none" stroke="#bfbfbf" points="1854,-252 1854,-271 2005,-271 2005,-252 1854,-252"/>
<text text-anchor="middle" x="1929.5" y="-259" font-family="Helvetica,sans-Serif" font-size="10.00">Monitoring/MonitoringFactory.h</text>
</g>
<!-- Node1&#45;&gt;Node28 -->
<g id="edge37" class="edge"><title>Node1&#45;&gt;Node28</title>
<path fill="none" stroke="midnightblue" d="M2146.25,-313.475C2101.35,-302.915 2024.79,-284.911 1975.72,-273.369"/>
<polygon fill="midnightblue" stroke="midnightblue" points="1976.22,-269.891 1965.68,-271.009 1974.61,-276.706 1976.22,-269.891"/>
</g>
<!-- Node29 -->
<g id="node29" class="node"><title>Node29</title>
<polygon fill="none" stroke="#bfbfbf" points="2023,-252 2023,-271 2174,-271 2174,-252 2023,-252"/>
<text text-anchor="middle" x="2098.5" y="-259" font-family="Helvetica,sans-Serif" font-size="10.00">DataSampling/DataSampling.h</text>
</g>
<!-- Node1&#45;&gt;Node29 -->
<g id="edge38" class="edge"><title>Node1&#45;&gt;Node29</title>
<path fill="none" stroke="midnightblue" d="M2170.46,-313.475C2156.99,-303.931 2134.93,-288.307 2118.78,-276.868"/>
<polygon fill="midnightblue" stroke="midnightblue" points="2120.7,-273.933 2110.51,-271.009 2116.65,-279.645 2120.7,-273.933"/>
</g>
<!-- Node30 -->
<g id="node30" class="node"><title>Node30</title>
<polygon fill="none" stroke="#bfbfbf" points="2192.5,-252 2192.5,-271 2340.5,-271 2340.5,-252 2192.5,-252"/>
<text text-anchor="middle" x="2266.5" y="-259" font-family="Helvetica,sans-Serif" font-size="10.00">Framework/CallbackService.h</text>
</g>
<!-- Node1&#45;&gt;Node30 -->
<g id="edge39" class="edge"><title>Node1&#45;&gt;Node30</title>
<path fill="none" stroke="midnightblue" d="M2194.54,-313.475C2208.01,-303.931 2230.07,-288.307 2246.22,-276.868"/>
<polygon fill="midnightblue" stroke="midnightblue" points="2248.35,-279.645 2254.49,-271.009 2244.3,-273.933 2248.35,-279.645"/>
</g>
<!-- Node31 -->
<g id="node31" class="node"><title>Node31</title>
<polygon fill="none" stroke="#bfbfbf" points="2359,-246.5 2359,-276.5 2504,-276.5 2504,-246.5 2359,-246.5"/>
<text text-anchor="start" x="2367" y="-264.5" font-family="Helvetica,sans-Serif" font-size="10.00">Framework/CompletionPolicy</text>
<text text-anchor="middle" x="2431.5" y="-253.5" font-family="Helvetica,sans-Serif" font-size="10.00">Helpers.h</text>
</g>
<!-- Node1&#45;&gt;Node31 -->
<g id="edge40" class="edge"><title>Node1&#45;&gt;Node31</title>
<path fill="none" stroke="midnightblue" d="M2218.18,-313.475C2255.84,-304.475 2316.13,-290.068 2363.03,-278.862"/>
<polygon fill="midnightblue" stroke="midnightblue" points="2363.9,-282.251 2372.82,-276.523 2362.28,-275.443 2363.9,-282.251"/>
</g>
<!-- Node32 -->
<g id="node32" class="node"><title>Node32</title>
<polygon fill="none" stroke="#bfbfbf" points="2522,-252 2522,-271 2665,-271 2665,-252 2522,-252"/>
<text text-anchor="middle" x="2593.5" y="-259" font-family="Helvetica,sans-Serif" font-size="10.00">Framework/TimesliceIndex.h</text>
</g>
<!-- Node1&#45;&gt;Node32 -->
<g id="edge41" class="edge"><title>Node1&#45;&gt;Node32</title>
<path fill="none" stroke="midnightblue" d="M2251.2,-313.478C2318.03,-304.988 2422.4,-291.202 2512.5,-277 2520.63,-275.719 2529.2,-274.281 2537.6,-272.821"/>
<polygon fill="midnightblue" stroke="midnightblue" points="2538.48,-276.219 2547.72,-271.038 2537.26,-269.325 2538.48,-276.219"/>
</g>
<!-- Node33 -->
<g id="node33" class="node"><title>Node33</title>
<polygon fill="none" stroke="#bfbfbf" points="2683.5,-252 2683.5,-271 2823.5,-271 2823.5,-252 2683.5,-252"/>
<text text-anchor="middle" x="2753.5" y="-259" font-family="Helvetica,sans-Serif" font-size="10.00">Framework/DataSpecUtils.h</text>
</g>
<!-- Node1&#45;&gt;Node33 -->
<g id="edge42" class="edge"><title>Node1&#45;&gt;Node33</title>
<path fill="none" stroke="midnightblue" d="M2261.4,-316.914C2358.61,-310.155 2528.67,-296.723 2673.5,-277 2682.24,-275.81 2691.48,-274.337 2700.45,-272.79"/>
<polygon fill="midnightblue" stroke="midnightblue" points="2701.19,-276.213 2710.43,-271.023 2699.97,-269.32 2701.19,-276.213"/>
</g>
<!-- Node34 -->
<g id="node34" class="node"><title>Node34</title>
<polygon fill="none" stroke="#bfbfbf" points="2841.5,-246.5 2841.5,-276.5 2975.5,-276.5 2975.5,-246.5 2841.5,-246.5"/>
<text text-anchor="start" x="2849.5" y="-264.5" font-family="Helvetica,sans-Serif" font-size="10.00">Framework/DataDescriptor</text>
<text text-anchor="middle" x="2908.5" y="-253.5" font-family="Helvetica,sans-Serif" font-size="10.00">QueryBuilder.h</text>
</g>
<!-- Node1&#45;&gt;Node34 -->
<g id="edge43" class="edge"><title>Node1&#45;&gt;Node34</title>
<path fill="none" stroke="midnightblue" d="M2261.09,-319.588C2381.69,-315.215 2619.76,-303.935 2831.38,-277.038"/>
<polygon fill="midnightblue" stroke="midnightblue" points="2831.96,-280.492 2841.43,-275.746 2831.07,-273.549 2831.96,-280.492"/>
</g>
<!-- Node35 -->
<g id="node35" class="node"><title>Node35</title>
<polygon fill="none" stroke="#bfbfbf" points="2993.5,-252 2993.5,-271 3163.5,-271 3163.5,-252 2993.5,-252"/>
<text text-anchor="middle" x="3078.5" y="-259" font-family="Helvetica,sans-Serif" font-size="10.00">Framework/ConfigParamRegistry.h</text>
</g>
<!-- Node1&#45;&gt;Node35 -->
<g id="edge44" class="edge"><title>Node1&#45;&gt;Node35</title>
<path fill="none" stroke="midnightblue" d="M2261.25,-320.115C2405.19,-316.106 2720.29,-304.724 2984.5,-277 2995.8,-275.814 3007.83,-274.217 3019.36,-272.517"/>
<polygon fill="midnightblue" stroke="midnightblue" points="3019.98,-275.963 3029.34,-271.003 3018.93,-269.042 3019.98,-275.963"/>
</g>
<!-- Node36 -->
<g id="node36" class="node"><title>Node36</title>
<polygon fill="none" stroke="#bfbfbf" points="3182,-252 3182,-271 3279,-271 3279,-252 3182,-252"/>
<text text-anchor="middle" x="3230.5" y="-259" font-family="Helvetica,sans-Serif" font-size="10.00">fairlogger/Logger.h</text>
</g>
<!-- Node1&#45;&gt;Node36 -->
<g id="edge45" class="edge"><title>Node1&#45;&gt;Node36</title>
<path fill="none" stroke="midnightblue" d="M2261.35,-320.447C2463.61,-316.138 2997.26,-302.626 3172.5,-277 3178.55,-276.115 3184.89,-274.869 3191.07,-273.475"/>
<polygon fill="midnightblue" stroke="midnightblue" points="3192.32,-276.773 3201.22,-271.027 3190.68,-269.968 3192.32,-276.773"/>
</g>
<!-- Node37 -->
<g id="node37" class="node"><title>Node37</title>
<g id="a_node37"><a xlink:href="QcInfoLogger_8h.html" target="_top" xlink:title="QualityControl/QcInfoLogger.h">
<polygon fill="none" stroke="black" points="3297,-252 3297,-271 3446,-271 3446,-252 3297,-252"/>
<text text-anchor="middle" x="3371.5" y="-259" font-family="Helvetica,sans-Serif" font-size="10.00">QualityControl/QcInfoLogger.h</text>
</a>
</g>
</g>
<!-- Node1&#45;&gt;Node37 -->
<g id="edge46" class="edge"><title>Node1&#45;&gt;Node37</title>
<path fill="none" stroke="midnightblue" d="M2261.13,-322.305C2442.55,-322.244 2904.22,-317.71 3287.5,-277 3297.54,-275.933 3308.2,-274.405 3318.43,-272.736"/>
<polygon fill="midnightblue" stroke="midnightblue" points="3319.21,-276.155 3328.49,-271.033 3318.04,-269.253 3319.21,-276.155"/>
</g>
<!-- Node40 -->
<g id="node40" class="node"><title>Node40</title>
<g id="a_node40"><a xlink:href="TaskFactory_8h.html" target="_top" xlink:title="QualityControl/TaskFactory.h">
<polygon fill="none" stroke="black" points="1314,-252 1314,-271 1459,-271 1459,-252 1314,-252"/>
<text text-anchor="middle" x="1386.5" y="-259" font-family="Helvetica,sans-Serif" font-size="10.00">QualityControl/TaskFactory.h</text>
</a>
</g>
</g>
<!-- Node1&#45;&gt;Node40 -->
<g id="edge49" class="edge"><title>Node1&#45;&gt;Node40</title>
<path fill="none" stroke="midnightblue" d="M2104,-316.132C1953.12,-304.854 1623.97,-280.25 1469.57,-268.709"/>
<polygon fill="midnightblue" stroke="midnightblue" points="1469.44,-265.19 1459.21,-267.935 1468.92,-272.171 1469.44,-265.19"/>
</g>
<!-- Node3 -->
<g id="node3" class="node"><title>Node3</title>
<polygon fill="none" stroke="#bfbfbf" points="0,-179.5 0,-209.5 101,-209.5 101,-179.5 0,-179.5"/>
<text text-anchor="start" x="8" y="-197.5" font-family="Helvetica,sans-Serif" font-size="10.00">boost/property_tree</text>
<text text-anchor="middle" x="50.5" y="-186.5" font-family="Helvetica,sans-Serif" font-size="10.00">/ptree.hpp</text>
</g>
<!-- Node2&#45;&gt;Node3 -->
<g id="edge2" class="edge"><title>Node2&#45;&gt;Node3</title>
<path fill="none" stroke="midnightblue" d="M431.694,-253.113C353.592,-244.623 225.213,-229.337 115.5,-210 114.041,-209.743 112.565,-209.475 111.078,-209.199"/>
<polygon fill="midnightblue" stroke="midnightblue" points="111.639,-205.742 101.154,-207.262 110.298,-212.612 111.639,-205.742"/>
</g>
<!-- Node4 -->
<g id="node4" class="node"><title>Node4</title>
<polygon fill="none" stroke="#bfbfbf" points="195.5,-185 195.5,-204 287.5,-204 287.5,-185 195.5,-185"/>
<text text-anchor="middle" x="241.5" y="-192" font-family="Helvetica,sans-Serif" font-size="10.00">Common/Timer.h</text>
</g>
<!-- Node2&#45;&gt;Node4 -->
<g id="edge3" class="edge"><title>Node2&#45;&gt;Node4</title>
<path fill="none" stroke="midnightblue" d="M467.55,-251.943C426.223,-242.056 356.378,-225.196 296.5,-210 292.184,-208.905 287.682,-207.745 283.193,-206.578"/>
<polygon fill="midnightblue" stroke="midnightblue" points="284.026,-203.179 273.466,-204.034 282.254,-209.951 284.026,-203.179"/>
</g>
<!-- Node5 -->
<g id="node5" class="node"><title>Node5</title>
<polygon fill="none" stroke="#bfbfbf" points="305.5,-185 305.5,-204 403.5,-204 403.5,-185 305.5,-185"/>
<text text-anchor="middle" x="354.5" y="-192" font-family="Helvetica,sans-Serif" font-size="10.00">Framework/Task.h</text>
</g>
<!-- Node2&#45;&gt;Node5 -->
<g id="edge4" class="edge"><title>Node2&#45;&gt;Node5</title>
<path fill="none" stroke="midnightblue" d="M483.714,-251.869C458.11,-240.699 413.29,-221.147 383.75,-208.26"/>
<polygon fill="midnightblue" stroke="midnightblue" points="384.933,-204.958 374.368,-204.167 382.134,-211.374 384.933,-204.958"/>
</g>
<!-- Node6 -->
<g id="node6" class="node"><title>Node6</title>
<polygon fill="none" stroke="#bfbfbf" points="421.5,-185 421.5,-204 585.5,-204 585.5,-185 421.5,-185"/>
<text text-anchor="middle" x="503.5" y="-192" font-family="Helvetica,sans-Serif" font-size="10.00">Framework/DataProcessorSpec.h</text>
</g>
<!-- Node2&#45;&gt;Node6 -->
<g id="edge5" class="edge"><title>Node2&#45;&gt;Node6</title>
<path fill="none" stroke="midnightblue" d="M503.5,-251.734C503.5,-242.183 503.5,-226.618 503.5,-214.283"/>
<polygon fill="midnightblue" stroke="midnightblue" points="507,-214.127 503.5,-204.127 500,-214.127 507,-214.127"/>
</g>
<!-- Node7 -->
<g id="node7" class="node"><title>Node7</title>
<polygon fill="none" stroke="#bfbfbf" points="604,-185 604,-204 757,-204 757,-185 604,-185"/>
<text text-anchor="middle" x="680.5" y="-192" font-family="Helvetica,sans-Serif" font-size="10.00">Framework/CompletionPolicy.h</text>
</g>
<!-- Node2&#45;&gt;Node7 -->
<g id="edge6" class="edge"><title>Node2&#45;&gt;Node7</title>
<path fill="none" stroke="midnightblue" d="M527.004,-251.869C557.902,-240.522 612.356,-220.525 647.409,-207.652"/>
<polygon fill="midnightblue" stroke="midnightblue" points="649,-210.796 657.18,-204.064 646.587,-204.225 649,-210.796"/>
</g>
<!-- Node8 -->
<g id="node8" class="node"><title>Node8</title>
<polygon fill="none" stroke="#bfbfbf" points="775.5,-185 775.5,-204 945.5,-204 945.5,-185 775.5,-185"/>
<text text-anchor="middle" x="860.5" y="-192" font-family="Helvetica,sans-Serif" font-size="10.00">Framework/EndOfStreamContext.h</text>
</g>
<!-- Node2&#45;&gt;Node8 -->
<g id="edge7" class="edge"><title>Node2&#45;&gt;Node8</title>
<path fill="none" stroke="midnightblue" d="M550.539,-251.936C615.776,-240.058 733.582,-218.608 803.66,-205.849"/>
<polygon fill="midnightblue" stroke="midnightblue" points="804.43,-209.266 813.641,-204.032 803.176,-202.38 804.43,-209.266"/>
</g>
<!-- Node9 -->
<g id="node9" class="node"><title>Node9</title>
<polygon fill="none" stroke="#bfbfbf" points="964,-185 964,-204 1081,-204 1081,-185 964,-185"/>
<text text-anchor="middle" x="1022.5" y="-192" font-family="Helvetica,sans-Serif" font-size="10.00">Headers/DataHeader.h</text>
</g>
<!-- Node2&#45;&gt;Node9 -->
<g id="edge8" class="edge"><title>Node2&#45;&gt;Node9</title>
<path fill="none" stroke="midnightblue" d="M575.268,-254.663C664.501,-246.901 821.316,-231.602 954.5,-210 961.305,-208.896 968.458,-207.563 975.464,-206.159"/>
<polygon fill="midnightblue" stroke="midnightblue" points="976.486,-209.521 985.568,-204.067 975.067,-202.667 976.486,-209.521"/>
</g>
<!-- Node10 -->
<g id="node10" class="node"><title>Node10</title>
<polygon fill="none" stroke="#bfbfbf" points="437,-123.5 437,-142.5 562,-142.5 562,-123.5 437,-123.5"/>
<text text-anchor="middle" x="499.5" y="-130.5" font-family="Helvetica,sans-Serif" font-size="10.00">Framework/InitContext.h</text>
</g>
<!-- Node2&#45;&gt;Node10 -->
<g id="edge9" class="edge"><title>Node2&#45;&gt;Node10</title>
<path fill="none" stroke="midnightblue" d="M431.727,-259.47C348.095,-256.571 217.383,-246.193 186.5,-210 177.557,-199.519 177.477,-189.413 186.5,-179 216.957,-143.851 344.205,-135.517 426.782,-133.899"/>
<polygon fill="midnightblue" stroke="midnightblue" points="426.931,-137.397 436.871,-133.731 426.814,-130.398 426.931,-137.397"/>
</g>
<!-- Node11 -->
<g id="node11" class="node"><title>Node11</title>
<g id="a_node11"><a xlink:href="TaskConfig_8h.html" target="_top" xlink:title="QualityControl/TaskConfig.h">
<polygon fill="none" stroke="black" points="1106.5,-62 1106.5,-81 1246.5,-81 1246.5,-62 1106.5,-62"/>
<text text-anchor="middle" x="1176.5" y="-69" font-family="Helvetica,sans-Serif" font-size="10.00">QualityControl/TaskConfig.h</text>
</a>
</g>
</g>
<!-- Node2&#45;&gt;Node11 -->
<g id="edge10" class="edge"><title>Node2&#45;&gt;Node11</title>
<path fill="none" stroke="midnightblue" d="M431.746,-259.881C345.613,-257.437 208.703,-247.558 176.5,-210 167.532,-199.541 167.883,-189.751 176.5,-179 247.982,-89.8124 314.375,-139.336 427.5,-123 554.715,-104.629 930.541,-84.5878 1096.35,-76.3562"/>
<polygon fill="midnightblue" stroke="midnightblue" points="1096.67,-79.8447 1106.49,-75.8548 1096.33,-72.8533 1096.67,-79.8447"/>
</g>
<!-- Node14 -->
<g id="node14" class="node"><title>Node14</title>
<g id="a_node14"><a xlink:href="TaskInterface_8h.html" target="_top" xlink:title="QualityControl/TaskInterface.h">
<polygon fill="none" stroke="black" points="1099.5,-185 1099.5,-204 1249.5,-204 1249.5,-185 1099.5,-185"/>
<text text-anchor="middle" x="1174.5" y="-192" font-family="Helvetica,sans-Serif" font-size="10.00">QualityControl/TaskInterface.h</text>
</a>
</g>
</g>
<!-- Node2&#45;&gt;Node14 -->
<g id="edge13" class="edge"><title>Node2&#45;&gt;Node14</title>
<path fill="none" stroke="midnightblue" d="M575.421,-256.231C686.146,-249.225 904.908,-233.657 1089.5,-210 1098.98,-208.785 1109.01,-207.275 1118.74,-205.692"/>
<polygon fill="midnightblue" stroke="midnightblue" points="1119.44,-209.124 1128.73,-204.025 1118.29,-202.219 1119.44,-209.124"/>
</g>
<!-- Node11&#45;&gt;Node12 -->
<g id="edge11" class="edge"><title>Node11&#45;&gt;Node12</title>
<path fill="none" stroke="midnightblue" d="M1214.9,-61.9751C1268.56,-50.0603 1364.92,-28.6679 1413.99,-17.7744"/>
<polygon fill="midnightblue" stroke="midnightblue" points="1414.98,-21.1382 1423.99,-15.5539 1413.47,-14.3046 1414.98,-21.1382"/>
</g>
<!-- Node13 -->
<g id="node13" class="node"><title>Node13</title>
<polygon fill="none" stroke="#bfbfbf" points="944,-0.5 944,-19.5 1027,-19.5 1027,-0.5 944,-0.5"/>
<text text-anchor="middle" x="985.5" y="-7.5" font-family="Helvetica,sans-Serif" font-size="10.00">unordered_map</text>
</g>
<!-- Node11&#45;&gt;Node13 -->
<g id="edge12" class="edge"><title>Node11&#45;&gt;Node13</title>
<path fill="none" stroke="midnightblue" d="M1149.13,-61.9751C1115.95,-51.6362 1059.85,-34.1611 1022.74,-22.6017"/>
<polygon fill="midnightblue" stroke="midnightblue" points="1023.4,-19.1417 1012.81,-19.5091 1021.32,-25.825 1023.4,-19.1417"/>
</g>
<!-- Node14&#45;&gt;Node10 -->
<g id="edge18" class="edge"><title>Node14&#45;&gt;Node10</title>
<path fill="none" stroke="midnightblue" d="M1129.18,-184.967C1116.38,-182.777 1102.43,-180.592 1089.5,-179 903.87,-156.138 683.857,-143.034 572.258,-137.371"/>
<polygon fill="midnightblue" stroke="midnightblue" points="572.291,-133.869 562.128,-136.863 571.94,-140.86 572.291,-133.869"/>
</g>
<!-- Node14&#45;&gt;Node12 -->
<g id="edge16" class="edge"><title>Node14&#45;&gt;Node12</title>
<path fill="none" stroke="midnightblue" d="M1249.68,-190.931C1325.74,-186.563 1435.81,-174.777 1462.5,-143 1489.92,-110.349 1468.51,-56.2674 1454.38,-28.5554"/>
<polygon fill="midnightblue" stroke="midnightblue" points="1457.41,-26.7962 1449.61,-19.6273 1451.24,-30.0964 1457.41,-26.7962"/>
</g>
<!-- Node14&#45;&gt;Node13 -->
<g id="edge17" class="edge"><title>Node14&#45;&gt;Node13</title>
<path fill="none" stroke="midnightblue" d="M1125.82,-184.958C1050.75,-171.671 914.924,-147.144 911.5,-143 898.875,-127.72 895.745,-98.9947 922.5,-56 930.843,-42.5927 944.797,-32.0137 957.455,-24.4909"/>
<polygon fill="midnightblue" stroke="midnightblue" points="959.299,-27.4702 966.344,-19.5565 955.902,-21.3499 959.299,-27.4702"/>
</g>
<!-- Node15 -->
<g id="node15" class="node"><title>Node15</title>
<polygon fill="none" stroke="#bfbfbf" points="1149,-0.5 1149,-19.5 1184,-19.5 1184,-0.5 1149,-0.5"/>
<text text-anchor="middle" x="1166.5" y="-7.5" font-family="Helvetica,sans-Serif" font-size="10.00">map</text>
</g>
<!-- Node14&#45;&gt;Node15 -->
<g id="edge14" class="edge"><title>Node14&#45;&gt;Node15</title>
<path fill="none" stroke="midnightblue" d="M1124.24,-184.975C1053.34,-172.711 931.808,-150.716 925.5,-143 862.473,-65.9076 1062.45,-26.7756 1138.44,-14.9536"/>
<polygon fill="midnightblue" stroke="midnightblue" points="1139.34,-18.3576 1148.71,-13.4063 1138.3,-11.4358 1139.34,-18.3576"/>
</g>
<!-- Node14&#45;&gt;Node16 -->
<g id="edge15" class="edge"><title>Node14&#45;&gt;Node16</title>
<path fill="none" stroke="midnightblue" d="M1249.59,-188.389C1331.46,-181.664 1456.22,-167.699 1496.5,-143 1516.76,-130.575 1531.38,-106.791 1539.64,-90.3051"/>
<polygon fill="midnightblue" stroke="midnightblue" points="1542.86,-91.6878 1543.96,-81.1499 1536.53,-88.7038 1542.86,-91.6878"/>
</g>
<!-- Node17 -->
<g id="node17" class="node"><title>Node17</title>
<polygon fill="none" stroke="#bfbfbf" points="934.5,-123.5 934.5,-142.5 1094.5,-142.5 1094.5,-123.5 934.5,-123.5"/>
<text text-anchor="middle" x="1014.5" y="-130.5" font-family="Helvetica,sans-Serif" font-size="10.00">Framework/ProcessingContext.h</text>
</g>
<!-- Node14&#45;&gt;Node17 -->
<g id="edge19" class="edge"><title>Node14&#45;&gt;Node17</title>
<path fill="none" stroke="midnightblue" d="M1151.58,-184.975C1124.13,-174.769 1077.98,-157.608 1046.9,-146.049"/>
<polygon fill="midnightblue" stroke="midnightblue" points="1047.97,-142.714 1037.38,-142.509 1045.53,-149.275 1047.97,-142.714"/>
</g>
<!-- Node18 -->
<g id="node18" class="node"><title>Node18</title>
<g id="a_node18"><a xlink:href="Activity_8h.html" target="_top" xlink:title="QualityControl/Activity.h">
<polygon fill="none" stroke="black" points="1113,-123.5 1113,-142.5 1236,-142.5 1236,-123.5 1113,-123.5"/>
<text text-anchor="middle" x="1174.5" y="-130.5" font-family="Helvetica,sans-Serif" font-size="10.00">QualityControl/Activity.h</text>
</a>
</g>
</g>
<!-- Node14&#45;&gt;Node18 -->
<g id="edge20" class="edge"><title>Node14&#45;&gt;Node18</title>
<path fill="none" stroke="midnightblue" d="M1174.5,-184.975C1174.5,-176.58 1174.5,-163.481 1174.5,-152.663"/>
<polygon fill="midnightblue" stroke="midnightblue" points="1178,-152.509 1174.5,-142.509 1171,-152.509 1178,-152.509"/>
</g>
<!-- Node19 -->
<g id="node19" class="node"><title>Node19</title>
<g id="a_node19"><a xlink:href="ObjectsManager_8h.html" target="_top" xlink:title="QualityControl/ObjectsManager.h">
<polygon fill="none" stroke="black" points="1293,-123.5 1293,-142.5 1454,-142.5 1454,-123.5 1293,-123.5"/>
<text text-anchor="middle" x="1373.5" y="-130.5" font-family="Helvetica,sans-Serif" font-size="10.00">QualityControl/ObjectsManager.h</text>
</a>
</g>
</g>
<!-- Node14&#45;&gt;Node19 -->
<g id="edge21" class="edge"><title>Node14&#45;&gt;Node19</title>
<path fill="none" stroke="midnightblue" d="M1203.01,-184.975C1237.74,-174.592 1296.54,-157.012 1335.19,-145.454"/>
<polygon fill="midnightblue" stroke="midnightblue" points="1336.46,-148.727 1345.04,-142.509 1334.46,-142.02 1336.46,-148.727"/>
</g>
<!-- Node19&#45;&gt;Node11 -->
<g id="edge31" class="edge"><title>Node19&#45;&gt;Node11</title>
<path fill="none" stroke="midnightblue" d="M1345.27,-123.475C1310.9,-113.092 1252.69,-95.5116 1214.42,-83.9538"/>
<polygon fill="midnightblue" stroke="midnightblue" points="1215.26,-80.5499 1204.67,-81.0091 1213.23,-87.251 1215.26,-80.5499"/>
</g>
<!-- Node19&#45;&gt;Node12 -->
<g id="edge32" class="edge"><title>Node19&#45;&gt;Node12</title>
<path fill="none" stroke="midnightblue" d="M1387.25,-123.318C1398.87,-115.277 1415.08,-102.277 1424.5,-87 1435.33,-69.4314 1440.35,-46.0867 1442.64,-29.9277"/>
<polygon fill="midnightblue" stroke="midnightblue" points="1446.16,-29.9609 1443.87,-19.6168 1439.21,-29.132 1446.16,-29.9609"/>
</g>
<!-- Node19&#45;&gt;Node16 -->
<g id="edge33" class="edge"><title>Node19&#45;&gt;Node16</title>
<path fill="none" stroke="midnightblue" d="M1398.43,-123.475C1428.54,-113.18 1479.33,-95.8103 1513.14,-84.2502"/>
<polygon fill="midnightblue" stroke="midnightblue" points="1514.29,-87.5565 1522.62,-81.0091 1512.02,-80.933 1514.29,-87.5565"/>
</g>
<!-- Node20 -->
<g id="node20" class="node"><title>Node20</title>
<g id="a_node20"><a xlink:href="MonitorObject_8h.html" target="_top" xlink:title="QualityControl/MonitorObject.h">
<polygon fill="none" stroke="black" points="1265,-62 1265,-81 1416,-81 1416,-62 1265,-62"/>
<text text-anchor="middle" x="1340.5" y="-69" font-family="Helvetica,sans-Serif" font-size="10.00">QualityControl/MonitorObject.h</text>
</a>
</g>
</g>
<!-- Node19&#45;&gt;Node20 -->
<g id="edge22" class="edge"><title>Node19&#45;&gt;Node20</title>
<path fill="none" stroke="midnightblue" d="M1368.77,-123.475C1363.92,-114.727 1356.23,-100.869 1350.1,-89.8093"/>
<polygon fill="midnightblue" stroke="midnightblue" points="1353.13,-88.0566 1345.22,-81.0091 1347.01,-91.4517 1353.13,-88.0566"/>
</g>
<!-- Node24 -->
<g id="node24" class="node"><title>Node24</title>
<g id="a_node24"><a xlink:href="MonitorObjectCollection_8h.html" target="_top" xlink:title="QualityControl/MonitorObject\lCollection.h">
<polygon fill="none" stroke="black" points="697,-56.5 697,-86.5 840,-86.5 840,-56.5 697,-56.5"/>
<text text-anchor="start" x="705" y="-74.5" font-family="Helvetica,sans-Serif" font-size="10.00">QualityControl/MonitorObject</text>
<text text-anchor="middle" x="768.5" y="-63.5" font-family="Helvetica,sans-Serif" font-size="10.00">Collection.h</text>
</a>
</g>
</g>
<!-- Node19&#45;&gt;Node24 -->
<g id="edge28" class="edge"><title>Node19&#45;&gt;Node24</title>
<path fill="none" stroke="midnightblue" d="M1292.85,-124.068C1177.46,-112.72 966.414,-91.9643 850.361,-80.5508"/>
<polygon fill="midnightblue" stroke="midnightblue" points="850.413,-77.0391 840.118,-79.5434 849.728,-84.0055 850.413,-77.0391"/>
</g>
<!-- Node20&#45;&gt;Node12 -->
<g id="edge23" class="edge"><title>Node20&#45;&gt;Node12</title>
<path fill="none" stroke="midnightblue" d="M1355.4,-61.9751C1372.47,-52.2106 1400.66,-36.0807 1420.76,-24.5808"/>
<polygon fill="midnightblue" stroke="midnightblue" points="1422.69,-27.513 1429.63,-19.5091 1419.21,-21.4371 1422.69,-27.513"/>
</g>
<!-- Node20&#45;&gt;Node15 -->
<g id="edge24" class="edge"><title>Node20&#45;&gt;Node15</title>
<path fill="none" stroke="midnightblue" d="M1315.57,-61.9751C1283.38,-50.9674 1227.53,-31.8704 1194.1,-20.4363"/>
<polygon fill="midnightblue" stroke="midnightblue" points="1195.08,-17.0752 1184.49,-17.1513 1192.82,-23.6987 1195.08,-17.0752"/>
</g>
<!-- Node21 -->
<g id="node21" class="node"><title>Node21</title>
<polygon fill="none" stroke="#bfbfbf" points="1331.5,-0.5 1331.5,-19.5 1387.5,-19.5 1387.5,-0.5 1331.5,-0.5"/>
<text text-anchor="middle" x="1359.5" y="-7.5" font-family="Helvetica,sans-Serif" font-size="10.00">Rtypes.h</text>
</g>
<!-- Node20&#45;&gt;Node21 -->
<g id="edge25" class="edge"><title>Node20&#45;&gt;Node21</title>
<path fill="none" stroke="midnightblue" d="M1343.22,-61.9751C1345.93,-53.4919 1350.17,-40.2043 1353.65,-29.3222"/>
<polygon fill="midnightblue" stroke="midnightblue" points="1357.07,-30.0999 1356.78,-19.5091 1350.41,-27.9705 1357.07,-30.0999"/>
</g>
<!-- Node22 -->
<g id="node22" class="node"><title>Node22</title>
<polygon fill="none" stroke="#bfbfbf" points="1254,-0.5 1254,-19.5 1313,-19.5 1313,-0.5 1254,-0.5"/>
<text text-anchor="middle" x="1283.5" y="-7.5" font-family="Helvetica,sans-Serif" font-size="10.00">TObject.h</text>
</g>
<!-- Node20&#45;&gt;Node22 -->
<g id="edge26" class="edge"><title>Node20&#45;&gt;Node22</title>
<path fill="none" stroke="midnightblue" d="M1332.33,-61.9751C1323.61,-52.8733 1309.6,-38.241 1298.81,-26.983"/>
<polygon fill="midnightblue" stroke="midnightblue" points="1301.1,-24.309 1291.65,-19.5091 1296.04,-29.1515 1301.1,-24.309"/>
</g>
<!-- Node20&#45;&gt;Node23 -->
<g id="edge27" class="edge"><title>Node20&#45;&gt;Node23</title>
<path fill="none" stroke="midnightblue" d="M1378.61,-61.9751C1426.02,-51.3711 1506.98,-33.2602 1558.56,-21.7244"/>
<polygon fill="midnightblue" stroke="midnightblue" points="1559.46,-25.1077 1568.46,-19.5091 1557.94,-18.2765 1559.46,-25.1077"/>
</g>
<!-- Node25 -->
<g id="node25" class="node"><title>Node25</title>
<polygon fill="none" stroke="#bfbfbf" points="676,-0.5 676,-19.5 745,-19.5 745,-0.5 676,-0.5"/>
<text text-anchor="middle" x="710.5" y="-7.5" font-family="Helvetica,sans-Serif" font-size="10.00">TObjArray.h</text>
</g>
<!-- Node24&#45;&gt;Node25 -->
<g id="edge29" class="edge"><title>Node24&#45;&gt;Node25</title>
<path fill="none" stroke="midnightblue" d="M754.755,-56.3993C746.153,-47.575 735.048,-36.1827 726.114,-27.0178"/>
<polygon fill="midnightblue" stroke="midnightblue" points="728.426,-24.3755 718.94,-19.6578 723.414,-29.2616 728.426,-24.3755"/>
</g>
<!-- Node26 -->
<g id="node26" class="node"><title>Node26</title>
<polygon fill="none" stroke="#bfbfbf" points="763.5,-0.5 763.5,-19.5 891.5,-19.5 891.5,-0.5 763.5,-0.5"/>
<text text-anchor="middle" x="827.5" y="-7.5" font-family="Helvetica,sans-Serif" font-size="10.00">Mergers/MergeInterface.h</text>
</g>
<!-- Node24&#45;&gt;Node26 -->
<g id="edge30" class="edge"><title>Node24&#45;&gt;Node26</title>
<path fill="none" stroke="midnightblue" d="M782.482,-56.3993C791.232,-47.575 802.529,-36.1827 811.617,-27.0178"/>
<polygon fill="midnightblue" stroke="midnightblue" points="814.359,-29.2231 818.915,-19.6578 809.388,-24.2942 814.359,-29.2231"/>
</g>
<!-- Node38 -->
<g id="node38" class="node"><title>Node38</title>
<polygon fill="none" stroke="#bfbfbf" points="3224.5,-185 3224.5,-204 3354.5,-204 3354.5,-185 3224.5,-185"/>
<text text-anchor="middle" x="3289.5" y="-192" font-family="Helvetica,sans-Serif" font-size="10.00">InfoLogger/InfoLogger.hxx</text>
</g>
<!-- Node37&#45;&gt;Node38 -->
<g id="edge47" class="edge"><title>Node37&#45;&gt;Node38</title>
<path fill="none" stroke="midnightblue" d="M3360.44,-251.734C3347.16,-241.208 3324.67,-223.379 3308.57,-210.617"/>
<polygon fill="midnightblue" stroke="midnightblue" points="3310.39,-207.596 3300.38,-204.127 3306.05,-213.082 3310.39,-207.596"/>
</g>
<!-- Node39 -->
<g id="node39" class="node"><title>Node39</title>
<polygon fill="none" stroke="#bfbfbf" points="3372.5,-185 3372.5,-204 3534.5,-204 3534.5,-185 3372.5,-185"/>
<text text-anchor="middle" x="3453.5" y="-192" font-family="Helvetica,sans-Serif" font-size="10.00">InfoLogger/InfoLoggerMacros.hxx</text>
</g>
<!-- Node37&#45;&gt;Node39 -->
<g id="edge48" class="edge"><title>Node37&#45;&gt;Node39</title>
<path fill="none" stroke="midnightblue" d="M3382.56,-251.734C3395.84,-241.208 3418.33,-223.379 3434.43,-210.617"/>
<polygon fill="midnightblue" stroke="midnightblue" points="3436.95,-213.082 3442.62,-204.127 3432.61,-207.596 3436.95,-213.082"/>
</g>
<!-- Node40&#45;&gt;Node11 -->
<g id="edge51" class="edge"><title>Node40&#45;&gt;Node11</title>
<path fill="none" stroke="midnightblue" d="M1378.22,-251.725C1356.92,-229.315 1298.12,-168.537 1244.5,-123 1229.33,-110.116 1211.19,-96.7395 1197.47,-86.9925"/>
<polygon fill="midnightblue" stroke="midnightblue" points="1199.35,-84.0403 1189.16,-81.1531 1195.33,-89.7671 1199.35,-84.0403"/>
</g>
<!-- Node40&#45;&gt;Node14 -->
<g id="edge52" class="edge"><title>Node40&#45;&gt;Node14</title>
<path fill="none" stroke="midnightblue" d="M1358.35,-251.869C1320.71,-240.327 1253.87,-219.835 1211.99,-206.996"/>
<polygon fill="midnightblue" stroke="midnightblue" points="1213.02,-203.649 1202.43,-204.064 1210.97,-210.341 1213.02,-203.649"/>
</g>
<!-- Node40&#45;&gt;Node16 -->
<g id="edge50" class="edge"><title>Node40&#45;&gt;Node16</title>
<path fill="none" stroke="midnightblue" d="M1400.4,-251.893C1427.39,-234.51 1487.27,-192.615 1521.5,-143 1532.36,-127.256 1539.31,-106.42 1543.27,-91.4889"/>
<polygon fill="midnightblue" stroke="midnightblue" points="1546.76,-91.9488 1545.72,-81.4046 1539.95,-90.2925 1546.76,-91.9488"/>
</g>
</g>
</svg>
        <g id="navigator" transform="translate(0 0)" fill="#404254">
                <rect fill="#f2f5e9" fill-opacity="0.5" stroke="#606060" stroke-width=".5" x="0" y="0" width="60" height="60"/>
                <use id="zoomplus" xlink:href="#zoomPlus" x="17" y="9" onmousedown="handleZoom(evt,'in')"/>
                <use id="zoomminus" xlink:href="#zoomMin" x="42" y="9" onmousedown="handleZoom(evt,'out')"/>
                <use id="reset" xlink:href="#resetDef" x="30" y="36" onmousedown="handleReset()"/>
                <g id="arrowUp" xlink:href="#dirArrow" transform="translate(30 24)" onmousedown="handlePan(0,-1)">
                  <use xlink:href="#rim" fill="#404040">
                        <set attributeName="fill" to="#808080" begin="arrowUp.mouseover" end="arrowUp.mouseout"/>
                  </use>
                  <path fill="none" stroke="white" stroke-width="1.5" d="M0,-3.0v7 M-2.5,-0.5L0,-3.0L2.5,-0.5"/>
                </g>
                <g id="arrowRight" xlink:href="#dirArrow" transform="rotate(90) translate(36 -43)" onmousedown="handlePan(1,0)">
                  <use xlink:href="#rim" fill="#404040">
                        <set attributeName="fill" to="#808080" begin="arrowRight.mouseover" end="arrowRight.mouseout"/>
                  </use>
                  <path fill="none" stroke="white" stroke-width="1.5" d="M0,-3.0v7 M-2.5,-0.5L0,-3.0L2.5,-0.5"/>
                </g>
                <g id="arrowDown" xlink:href="#dirArrow" transform="rotate(180) translate(-30 -48)" onmousedown="handlePan(0,1)">
                  <use xlink:href="#rim" fill="#404040">
                        <set attributeName="fill" to="#808080" begin="arrowDown.mouseover" end="arrowDown.mouseout"/>
                  </use>
                  <path fill="none" stroke="white" stroke-width="1.5" d="M0,-3.0v7 M-2.5,-0.5L0,-3.0L2.5,-0.5"/>
                </g>
                <g id="arrowLeft" xlink:href="#dirArrow" transform="rotate(270) translate(-36 17)" onmousedown="handlePan(-1,0)">
                  <use xlink:href="#rim" fill="#404040">
                        <set attributeName="fill" to="#808080" begin="arrowLeft.mouseover" end="arrowLeft.mouseout"/>
                  </use>
                  <path fill="none" stroke="white" stroke-width="1.5" d="M0,-3.0v7 M-2.5,-0.5L0,-3.0L2.5,-0.5"/>
                </g>
        </g>
        <svg viewBox="0 0 15 15" width="100%" height="30px" preserveAspectRatio="xMaxYMin meet">
         <g id="arrow_out" transform="scale(0.3 0.3)">
          <a xlink:href="TaskRunner_8cxx__incl_org.svg" target="_base">
           <rect id="button" ry="5" rx="5" y="6" x="6" height="38" width="38"
                fill="#f2f5e9" fill-opacity="0.5" stroke="#606060" stroke-width="1.0"/>
           <path id="arrow"
             d="M 11.500037,31.436501 C 11.940474,20.09759 22.043105,11.32322 32.158766,21.979434 L 37.068811,17.246167 C 37.068811,17.246167 37.088388,32 37.088388,32 L 22.160133,31.978069 C 22.160133,31.978069 26.997745,27.140456 26.997745,27.140456 C 18.528582,18.264221 13.291696,25.230495 11.500037,31.436501 z"
             style="fill:#404040;"/>
          </a>
         </g>
        </svg>
</svg>
