<?xml version="1.0" encoding="UTF-8" standalone="no"?>
<!DOCTYPE svg PUBLIC "-//W3C//DTD SVG 1.1//EN"
 "http://www.w3.org/Graphics/SVG/1.1/DTD/svg11.dtd">
<!-- Generated by graphviz version 2.38.0 (20140413.2041)
 -->
<!-- Title: Framework/src/TaskFactory.cxx Pages: 1 -->
<svg width="1526pt" height="330pt"
 viewBox="0.00 0.00 1525.50 330.00" xmlns="http://www.w3.org/2000/svg" xmlns:xlink="http://www.w3.org/1999/xlink">
<g id="graph0" class="graph" transform="scale(1 1) rotate(0) translate(4 326)">
<title>Framework/src/TaskFactory.cxx</title>
<!-- Node1 -->
<g id="node1" class="node"><title>Node1</title>
<polygon fill="#bfbfbf" stroke="black" points="887.5,-302.5 887.5,-321.5 1045.5,-321.5 1045.5,-302.5 887.5,-302.5"/>
<text text-anchor="middle" x="966.5" y="-309.5" font-family="Helvetica,sans-Serif" font-size="10.00">Framework/src/TaskFactory.cxx</text>
</g>
<!-- Node2 -->
<g id="node2" class="node"><title>Node2</title>
<g id="a_node2"><a xlink:href="TaskFactory_8h.html" target="_top" xlink:title="QualityControl/TaskFactory.h">
<polygon fill="none" stroke="black" points="518,-241 518,-260 663,-260 663,-241 518,-241"/>
<text text-anchor="middle" x="590.5" y="-248" font-family="Helvetica,sans-Serif" font-size="10.00">QualityControl/TaskFactory.h</text>
</a>
</g>
</g>
<!-- Node1&#45;&gt;Node2 -->
<g id="edge1" class="edge"><title>Node1&#45;&gt;Node2</title>
<path fill="none" stroke="midnightblue" d="M912.628,-302.475C844.362,-291.672 726.861,-273.078 654.215,-261.583"/>
<polygon fill="midnightblue" stroke="midnightblue" points="654.696,-258.115 644.272,-260.009 653.602,-265.029 654.696,-258.115"/>
</g>
<!-- Node20 -->
<g id="node20" class="node"><title>Node20</title>
<g id="a_node20"><a xlink:href="QcInfoLogger_8h.html" target="_top" xlink:title="QualityControl/QcInfoLogger.h">
<polygon fill="none" stroke="black" points="1202,-179.5 1202,-198.5 1351,-198.5 1351,-179.5 1202,-179.5"/>
<text text-anchor="middle" x="1276.5" y="-186.5" font-family="Helvetica,sans-Serif" font-size="10.00">QualityControl/QcInfoLogger.h</text>
</a>
</g>
</g>
<!-- Node1&#45;&gt;Node20 -->
<g id="edge27" class="edge"><title>Node1&#45;&gt;Node20</title>
<path fill="none" stroke="midnightblue" d="M988.299,-302.492C1042.2,-281.454 1181.9,-226.924 1244.89,-202.34"/>
<polygon fill="midnightblue" stroke="midnightblue" points="1246.27,-205.558 1254.31,-198.661 1243.72,-199.037 1246.27,-205.558"/>
</g>
<!-- Node23 -->
<g id="node23" class="node"><title>Node23</title>
<g id="a_node23"><a xlink:href="RootClassFactory_8h.html" target="_top" xlink:title="QualityControl/RootClass\lFactory.h">
<polygon fill="none" stroke="black" points="902.5,-235.5 902.5,-265.5 1030.5,-265.5 1030.5,-235.5 902.5,-235.5"/>
<text text-anchor="start" x="910.5" y="-253.5" font-family="Helvetica,sans-Serif" font-size="10.00">QualityControl/RootClass</text>
<text text-anchor="middle" x="966.5" y="-242.5" font-family="Helvetica,sans-Serif" font-size="10.00">Factory.h</text>
</a>
</g>
</g>
<!-- Node1&#45;&gt;Node23 -->
<g id="edge30" class="edge"><title>Node1&#45;&gt;Node23</title>
<path fill="none" stroke="midnightblue" d="M966.5,-302.475C966.5,-295.471 966.5,-285.192 966.5,-275.696"/>
<polygon fill="midnightblue" stroke="midnightblue" points="970,-275.523 966.5,-265.523 963,-275.523 970,-275.523"/>
</g>
<!-- Node3 -->
<g id="node3" class="node"><title>Node3</title>
<polygon fill="none" stroke="#bfbfbf" points="719.5,-62 719.5,-81 771.5,-81 771.5,-62 719.5,-62"/>
<text text-anchor="middle" x="745.5" y="-69" font-family="Helvetica,sans-Serif" font-size="10.00">memory</text>
</g>
<!-- Node2&#45;&gt;Node3 -->
<g id="edge2" class="edge"><title>Node2&#45;&gt;Node3</title>
<path fill="none" stroke="midnightblue" d="M611.147,-240.999C643.874,-226.335 706.969,-192.968 736.5,-143 745.705,-127.425 747.318,-106.564 747.016,-91.5813"/>
<polygon fill="midnightblue" stroke="midnightblue" points="750.505,-91.2661 746.506,-81.4549 743.514,-91.6184 750.505,-91.2661"/>
</g>
<!-- Node4 -->
<g id="node4" class="node"><title>Node4</title>
<g id="a_node4"><a xlink:href="TaskConfig_8h.html" target="_top" xlink:title="QualityControl/TaskConfig.h">
<polygon fill="none" stroke="black" points="43.5,-62 43.5,-81 183.5,-81 183.5,-62 43.5,-62"/>
<text text-anchor="middle" x="113.5" y="-69" font-family="Helvetica,sans-Serif" font-size="10.00">QualityControl/TaskConfig.h</text>
</a>
</g>
</g>
<!-- Node2&#45;&gt;Node4 -->
<g id="edge3" class="edge"><title>Node2&#45;&gt;Node4</title>
<path fill="none" stroke="midnightblue" d="M517.83,-246.647C381.368,-239.602 95.0447,-216.243 34.5,-143 15.6356,-120.179 51.782,-98.1668 81.1842,-84.9794"/>
<polygon fill="midnightblue" stroke="midnightblue" points="82.6058,-88.178 90.4151,-81.018 79.8453,-81.7454 82.6058,-88.178"/>
</g>
<!-- Node7 -->
<g id="node7" class="node"><title>Node7</title>
<g id="a_node7"><a xlink:href="TaskInterface_8h.html" target="_top" xlink:title="QualityControl/TaskInterface.h">
<polygon fill="none" stroke="black" points="390.5,-179.5 390.5,-198.5 540.5,-198.5 540.5,-179.5 390.5,-179.5"/>
<text text-anchor="middle" x="465.5" y="-186.5" font-family="Helvetica,sans-Serif" font-size="10.00">QualityControl/TaskInterface.h</text>
</a>
</g>
</g>
<!-- Node2&#45;&gt;Node7 -->
<g id="edge6" class="edge"><title>Node2&#45;&gt;Node7</title>
<path fill="none" stroke="midnightblue" d="M572.591,-240.975C551.613,-230.99 516.65,-214.348 492.407,-202.807"/>
<polygon fill="midnightblue" stroke="midnightblue" points="493.91,-199.647 483.376,-198.509 490.901,-205.967 493.91,-199.647"/>
</g>
<!-- Node5 -->
<g id="node5" class="node"><title>Node5</title>
<polygon fill="none" stroke="#bfbfbf" points="671,-0.5 671,-19.5 712,-19.5 712,-0.5 671,-0.5"/>
<text text-anchor="middle" x="691.5" y="-7.5" font-family="Helvetica,sans-Serif" font-size="10.00">string</text>
</g>
<!-- Node4&#45;&gt;Node5 -->
<g id="edge4" class="edge"><title>Node4&#45;&gt;Node5</title>
<path fill="none" stroke="midnightblue" d="M155.603,-61.9511C167.495,-59.7604 180.472,-57.5798 192.5,-56 391.87,-29.8155 444.181,-46.5656 643.5,-20 649.068,-19.2579 654.968,-18.2972 660.657,-17.2806"/>
<polygon fill="midnightblue" stroke="midnightblue" points="661.365,-20.7089 670.549,-15.4258 660.075,-13.8288 661.365,-20.7089"/>
</g>
<!-- Node6 -->
<g id="node6" class="node"><title>Node6</title>
<polygon fill="none" stroke="#bfbfbf" points="0,-0.5 0,-19.5 83,-19.5 83,-0.5 0,-0.5"/>
<text text-anchor="middle" x="41.5" y="-7.5" font-family="Helvetica,sans-Serif" font-size="10.00">unordered_map</text>
</g>
<!-- Node4&#45;&gt;Node6 -->
<g id="edge5" class="edge"><title>Node4&#45;&gt;Node6</title>
<path fill="none" stroke="midnightblue" d="M103.184,-61.9751C91.8494,-52.6082 73.4267,-37.3839 59.661,-26.0081"/>
<polygon fill="midnightblue" stroke="midnightblue" points="61.7348,-23.1813 51.7967,-19.5091 57.2756,-28.5773 61.7348,-23.1813"/>
</g>
<!-- Node7&#45;&gt;Node3 -->
<g id="edge8" class="edge"><title>Node7&#45;&gt;Node3</title>
<path fill="none" stroke="midnightblue" d="M540.555,-182.174C603.775,-175.895 688.024,-163.875 714.5,-143 730.709,-130.22 738.642,-107.217 742.386,-90.9673"/>
<polygon fill="midnightblue" stroke="midnightblue" points="745.849,-91.4947 744.359,-81.0053 738.983,-90.1347 745.849,-91.4947"/>
</g>
<!-- Node7&#45;&gt;Node5 -->
<g id="edge9" class="edge"><title>Node7&#45;&gt;Node5</title>
<path fill="none" stroke="midnightblue" d="M540.634,-181.641C609.055,-174.761 704.184,-162.139 736.5,-143 773.783,-120.92 803.197,-92.9101 780.5,-56 767.853,-35.4342 742.578,-23.9214 722.184,-17.7011"/>
<polygon fill="midnightblue" stroke="midnightblue" points="722.921,-14.2736 712.35,-14.9834 721.056,-21.0207 722.921,-14.2736"/>
</g>
<!-- Node7&#45;&gt;Node6 -->
<g id="edge10" class="edge"><title>Node7&#45;&gt;Node6</title>
<path fill="none" stroke="midnightblue" d="M390.282,-185.52C273.082,-180.871 57.823,-168.885 34.5,-143 6.30356,-111.706 22.1391,-57.4286 33.3605,-29.2133"/>
<polygon fill="midnightblue" stroke="midnightblue" points="36.6784,-30.3524 37.3339,-19.7779 30.2271,-27.6357 36.6784,-30.3524"/>
</g>
<!-- Node8 -->
<g id="node8" class="node"><title>Node8</title>
<polygon fill="none" stroke="#bfbfbf" points="396,-0.5 396,-19.5 431,-19.5 431,-0.5 396,-0.5"/>
<text text-anchor="middle" x="413.5" y="-7.5" font-family="Helvetica,sans-Serif" font-size="10.00">map</text>
</g>
<!-- Node7&#45;&gt;Node8 -->
<g id="edge7" class="edge"><title>Node7&#45;&gt;Node8</title>
<path fill="none" stroke="midnightblue" d="M390.316,-184.736C325.285,-180.148 238.364,-169.169 216.5,-143 210.801,-136.179 211.072,-130.039 216.5,-123 254.946,-73.1465 300.831,-121.487 353.5,-87 376.073,-72.2196 393.926,-46.0991 404.104,-28.6677"/>
<polygon fill="midnightblue" stroke="midnightblue" points="407.37,-29.9975 409.188,-19.5598 401.258,-26.5857 407.37,-29.9975"/>
</g>
<!-- Node9 -->
<g id="node9" class="node"><title>Node9</title>
<polygon fill="none" stroke="#bfbfbf" points="44,-123.5 44,-142.5 169,-142.5 169,-123.5 44,-123.5"/>
<text text-anchor="middle" x="106.5" y="-130.5" font-family="Helvetica,sans-Serif" font-size="10.00">Framework/InitContext.h</text>
</g>
<!-- Node7&#45;&gt;Node9 -->
<g id="edge11" class="edge"><title>Node7&#45;&gt;Node9</title>
<path fill="none" stroke="midnightblue" d="M408.615,-179.444C344.676,-169.826 240.976,-154.228 173.253,-144.041"/>
<polygon fill="midnightblue" stroke="midnightblue" points="173.528,-140.543 163.118,-142.516 172.487,-147.465 173.528,-140.543"/>
</g>
<!-- Node10 -->
<g id="node10" class="node"><title>Node10</title>
<polygon fill="none" stroke="#bfbfbf" points="225.5,-123.5 225.5,-142.5 385.5,-142.5 385.5,-123.5 225.5,-123.5"/>
<text text-anchor="middle" x="305.5" y="-130.5" font-family="Helvetica,sans-Serif" font-size="10.00">Framework/ProcessingContext.h</text>
</g>
<!-- Node7&#45;&gt;Node10 -->
<g id="edge12" class="edge"><title>Node7&#45;&gt;Node10</title>
<path fill="none" stroke="midnightblue" d="M440.148,-179.444C413.231,-170.359 370.504,-155.939 340.413,-145.783"/>
<polygon fill="midnightblue" stroke="midnightblue" points="341.328,-142.398 330.734,-142.516 339.09,-149.031 341.328,-142.398"/>
</g>
<!-- Node11 -->
<g id="node11" class="node"><title>Node11</title>
<g id="a_node11"><a xlink:href="Activity_8h.html" target="_top" xlink:title="QualityControl/Activity.h">
<polygon fill="none" stroke="black" points="404,-123.5 404,-142.5 527,-142.5 527,-123.5 404,-123.5"/>
<text text-anchor="middle" x="465.5" y="-130.5" font-family="Helvetica,sans-Serif" font-size="10.00">QualityControl/Activity.h</text>
</a>
</g>
</g>
<!-- Node7&#45;&gt;Node11 -->
<g id="edge13" class="edge"><title>Node7&#45;&gt;Node11</title>
<path fill="none" stroke="midnightblue" d="M465.5,-179.083C465.5,-172.006 465.5,-161.861 465.5,-152.986"/>
<polygon fill="midnightblue" stroke="midnightblue" points="469,-152.751 465.5,-142.751 462,-152.751 469,-152.751"/>
</g>
<!-- Node12 -->
<g id="node12" class="node"><title>Node12</title>
<g id="a_node12"><a xlink:href="ObjectsManager_8h.html" target="_top" xlink:title="QualityControl/ObjectsManager.h">
<polygon fill="none" stroke="black" points="545,-123.5 545,-142.5 706,-142.5 706,-123.5 545,-123.5"/>
<text text-anchor="middle" x="625.5" y="-130.5" font-family="Helvetica,sans-Serif" font-size="10.00">QualityControl/ObjectsManager.h</text>
</a>
</g>
</g>
<!-- Node7&#45;&gt;Node12 -->
<g id="edge14" class="edge"><title>Node7&#45;&gt;Node12</title>
<path fill="none" stroke="midnightblue" d="M490.852,-179.444C517.769,-170.359 560.496,-155.939 590.587,-145.783"/>
<polygon fill="midnightblue" stroke="midnightblue" points="591.91,-149.031 600.266,-142.516 589.672,-142.398 591.91,-149.031"/>
</g>
<!-- Node12&#45;&gt;Node3 -->
<g id="edge26" class="edge"><title>Node12&#45;&gt;Node3</title>
<path fill="none" stroke="midnightblue" d="M642.693,-123.475C662.743,-113.534 696.099,-96.9947 719.36,-85.461"/>
<polygon fill="midnightblue" stroke="midnightblue" points="720.934,-88.5871 728.339,-81.0091 717.825,-82.3157 720.934,-88.5871"/>
</g>
<!-- Node12&#45;&gt;Node4 -->
<g id="edge24" class="edge"><title>Node12&#45;&gt;Node4</title>
<path fill="none" stroke="midnightblue" d="M544.622,-123.759C424.108,-111.456 209.637,-89.4593 192.5,-87 184.067,-85.7898 175.16,-84.3314 166.485,-82.8122"/>
<polygon fill="midnightblue" stroke="midnightblue" points="166.912,-79.3329 156.451,-81.0121 165.676,-86.2229 166.912,-79.3329"/>
</g>
<!-- Node12&#45;&gt;Node5 -->
<g id="edge25" class="edge"><title>Node12&#45;&gt;Node5</title>
<path fill="none" stroke="midnightblue" d="M637.469,-123.344C647.96,-115.135 662.849,-101.872 671.5,-87 681.878,-69.1587 686.975,-45.8636 689.408,-29.7908"/>
<polygon fill="midnightblue" stroke="midnightblue" points="692.921,-29.9142 690.746,-19.5451 685.98,-29.0075 692.921,-29.9142"/>
</g>
<!-- Node13 -->
<g id="node13" class="node"><title>Node13</title>
<g id="a_node13"><a xlink:href="MonitorObject_8h.html" target="_top" xlink:title="QualityControl/MonitorObject.h">
<polygon fill="none" stroke="black" points="512,-62 512,-81 663,-81 663,-62 512,-62"/>
<text text-anchor="middle" x="587.5" y="-69" font-family="Helvetica,sans-Serif" font-size="10.00">QualityControl/MonitorObject.h</text>
</a>
</g>
</g>
<!-- Node12&#45;&gt;Node13 -->
<g id="edge15" class="edge"><title>Node12&#45;&gt;Node13</title>
<path fill="none" stroke="midnightblue" d="M620.056,-123.475C614.412,-114.638 605.439,-100.589 598.341,-89.475"/>
<polygon fill="midnightblue" stroke="midnightblue" points="601.267,-87.5531 592.934,-81.0091 595.367,-91.3208 601.267,-87.5531"/>
</g>
<!-- Node17 -->
<g id="node17" class="node"><title>Node17</title>
<g id="a_node17"><a xlink:href="MonitorObjectCollection_8h.html" target="_top" xlink:title="QualityControl/MonitorObject\lCollection.h">
<polygon fill="none" stroke="black" points="202,-56.5 202,-86.5 345,-86.5 345,-56.5 202,-56.5"/>
<text text-anchor="start" x="210" y="-74.5" font-family="Helvetica,sans-Serif" font-size="10.00">QualityControl/MonitorObject</text>
<text text-anchor="middle" x="273.5" y="-63.5" font-family="Helvetica,sans-Serif" font-size="10.00">Collection.h</text>
</a>
</g>
</g>
<!-- Node12&#45;&gt;Node17 -->
<g id="edge21" class="edge"><title>Node12&#45;&gt;Node17</title>
<path fill="none" stroke="midnightblue" d="M575.067,-123.475C517.748,-113.786 423.353,-97.8302 355.429,-86.3488"/>
<polygon fill="midnightblue" stroke="midnightblue" points="355.63,-82.8332 345.187,-84.6175 354.463,-89.7353 355.63,-82.8332"/>
</g>
<!-- Node13&#45;&gt;Node5 -->
<g id="edge16" class="edge"><title>Node13&#45;&gt;Node5</title>
<path fill="none" stroke="midnightblue" d="M602.401,-61.9751C619.468,-52.2106 647.661,-36.0807 667.762,-24.5808"/>
<polygon fill="midnightblue" stroke="midnightblue" points="669.685,-27.513 676.627,-19.5091 666.209,-21.4371 669.685,-27.513"/>
</g>
<!-- Node13&#45;&gt;Node8 -->
<g id="edge17" class="edge"><title>Node13&#45;&gt;Node8</title>
<path fill="none" stroke="midnightblue" d="M562.57,-61.9751C530.38,-50.9674 474.533,-31.8704 441.095,-20.4363"/>
<polygon fill="midnightblue" stroke="midnightblue" points="442.083,-17.0752 431.489,-17.1513 439.818,-23.6987 442.083,-17.0752"/>
</g>
<!-- Node14 -->
<g id="node14" class="node"><title>Node14</title>
<polygon fill="none" stroke="#bfbfbf" points="501.5,-0.5 501.5,-19.5 557.5,-19.5 557.5,-0.5 501.5,-0.5"/>
<text text-anchor="middle" x="529.5" y="-7.5" font-family="Helvetica,sans-Serif" font-size="10.00">Rtypes.h</text>
</g>
<!-- Node13&#45;&gt;Node14 -->
<g id="edge18" class="edge"><title>Node13&#45;&gt;Node14</title>
<path fill="none" stroke="midnightblue" d="M579.19,-61.9751C570.318,-52.8733 556.054,-38.241 545.08,-26.983"/>
<polygon fill="midnightblue" stroke="midnightblue" points="547.281,-24.2268 537.795,-19.5091 542.269,-29.113 547.281,-24.2268"/>
</g>
<!-- Node15 -->
<g id="node15" class="node"><title>Node15</title>
<polygon fill="none" stroke="#bfbfbf" points="576,-0.5 576,-19.5 635,-19.5 635,-0.5 576,-0.5"/>
<text text-anchor="middle" x="605.5" y="-7.5" font-family="Helvetica,sans-Serif" font-size="10.00">TObject.h</text>
</g>
<!-- Node13&#45;&gt;Node15 -->
<g id="edge19" class="edge"><title>Node13&#45;&gt;Node15</title>
<path fill="none" stroke="midnightblue" d="M590.079,-61.9751C592.645,-53.4919 596.665,-40.2043 599.957,-29.3222"/>
<polygon fill="midnightblue" stroke="midnightblue" points="603.38,-30.0942 602.926,-19.5091 596.68,-28.0672 603.38,-30.0942"/>
</g>
<!-- Node16 -->
<g id="node16" class="node"><title>Node16</title>
<polygon fill="none" stroke="#bfbfbf" points="900.5,-0.5 900.5,-19.5 1016.5,-19.5 1016.5,-0.5 900.5,-0.5"/>
<text text-anchor="middle" x="958.5" y="-7.5" font-family="Helvetica,sans-Serif" font-size="10.00">Common/Exceptions.h</text>
</g>
<!-- Node13&#45;&gt;Node16 -->
<g id="edge20" class="edge"><title>Node13&#45;&gt;Node16</title>
<path fill="none" stroke="midnightblue" d="M640.655,-61.9751C707.876,-51.1944 823.478,-32.6544 895.192,-21.1532"/>
<polygon fill="midnightblue" stroke="midnightblue" points="896.124,-24.5485 905.443,-19.5091 895.015,-17.6369 896.124,-24.5485"/>
</g>
<!-- Node18 -->
<g id="node18" class="node"><title>Node18</title>
<polygon fill="none" stroke="#bfbfbf" points="274,-0.5 274,-19.5 343,-19.5 343,-0.5 274,-0.5"/>
<text text-anchor="middle" x="308.5" y="-7.5" font-family="Helvetica,sans-Serif" font-size="10.00">TObjArray.h</text>
</g>
<!-- Node17&#45;&gt;Node18 -->
<g id="edge22" class="edge"><title>Node17&#45;&gt;Node18</title>
<path fill="none" stroke="midnightblue" d="M281.795,-56.3993C286.723,-48.0207 293.014,-37.3269 298.251,-28.4229"/>
<polygon fill="midnightblue" stroke="midnightblue" points="301.354,-30.0517 303.407,-19.6578 295.32,-26.5025 301.354,-30.0517"/>
</g>
<!-- Node19 -->
<g id="node19" class="node"><title>Node19</title>
<polygon fill="none" stroke="#bfbfbf" points="127.5,-0.5 127.5,-19.5 255.5,-19.5 255.5,-0.5 127.5,-0.5"/>
<text text-anchor="middle" x="191.5" y="-7.5" font-family="Helvetica,sans-Serif" font-size="10.00">Mergers/MergeInterface.h</text>
</g>
<!-- Node17&#45;&gt;Node19 -->
<g id="edge23" class="edge"><title>Node17&#45;&gt;Node19</title>
<path fill="none" stroke="midnightblue" d="M254.067,-56.3993C241.292,-47.1293 224.611,-35.0254 211.686,-25.6469"/>
<polygon fill="midnightblue" stroke="midnightblue" points="213.581,-22.6979 203.432,-19.6578 209.47,-28.3635 213.581,-22.6979"/>
</g>
<!-- Node21 -->
<g id="node21" class="node"><title>Node21</title>
<polygon fill="none" stroke="#bfbfbf" points="1207.5,-123.5 1207.5,-142.5 1337.5,-142.5 1337.5,-123.5 1207.5,-123.5"/>
<text text-anchor="middle" x="1272.5" y="-130.5" font-family="Helvetica,sans-Serif" font-size="10.00">InfoLogger/InfoLogger.hxx</text>
</g>
<!-- Node20&#45;&gt;Node21 -->
<g id="edge28" class="edge"><title>Node20&#45;&gt;Node21</title>
<path fill="none" stroke="midnightblue" d="M1275.84,-179.083C1275.32,-172.006 1274.56,-161.861 1273.91,-152.986"/>
<polygon fill="midnightblue" stroke="midnightblue" points="1277.38,-152.465 1273.15,-142.751 1270.4,-152.982 1277.38,-152.465"/>
</g>
<!-- Node22 -->
<g id="node22" class="node"><title>Node22</title>
<polygon fill="none" stroke="#bfbfbf" points="1355.5,-123.5 1355.5,-142.5 1517.5,-142.5 1517.5,-123.5 1355.5,-123.5"/>
<text text-anchor="middle" x="1436.5" y="-130.5" font-family="Helvetica,sans-Serif" font-size="10.00">InfoLogger/InfoLoggerMacros.hxx</text>
</g>
<!-- Node20&#45;&gt;Node22 -->
<g id="edge29" class="edge"><title>Node20&#45;&gt;Node22</title>
<path fill="none" stroke="midnightblue" d="M1301.85,-179.444C1328.77,-170.359 1371.5,-155.939 1401.59,-145.783"/>
<polygon fill="midnightblue" stroke="midnightblue" points="1402.91,-149.031 1411.27,-142.516 1400.67,-142.398 1402.91,-149.031"/>
</g>
<!-- Node23&#45;&gt;Node5 -->
<g id="edge31" class="edge"><title>Node23&#45;&gt;Node5</title>
<path fill="none" stroke="midnightblue" d="M954.763,-235.243C919.793,-192.873 817.55,-69.8009 798.5,-56 775.149,-39.0827 744.474,-27.0185 721.957,-19.6673"/>
<polygon fill="midnightblue" stroke="midnightblue" points="722.83,-16.2731 712.241,-16.6208 720.736,-22.9525 722.83,-16.2731"/>
</g>
<!-- Node23&#45;&gt;Node16 -->
<g id="edge32" class="edge"><title>Node23&#45;&gt;Node16</title>
<path fill="none" stroke="midnightblue" d="M1030.86,-240.763C1079.42,-232.698 1140.19,-218.934 1155.5,-199 1212.99,-124.127 1060.94,-51.6769 991.258,-23.4225"/>
<polygon fill="midnightblue" stroke="midnightblue" points="992.194,-20.0281 981.608,-19.5795 989.604,-26.5313 992.194,-20.0281"/>
</g>
<!-- Node23&#45;&gt;Node20 -->
<g id="edge37" class="edge"><title>Node23&#45;&gt;Node20</title>
<path fill="none" stroke="midnightblue" d="M1030.73,-237.172C1087.21,-226.331 1168.52,-210.725 1221.91,-200.477"/>
<polygon fill="midnightblue" stroke="midnightblue" points="1222.71,-203.887 1231.88,-198.565 1221.4,-197.013 1222.71,-203.887"/>
</g>
<!-- Node24 -->
<g id="node24" class="node"><title>Node24</title>
<polygon fill="none" stroke="#bfbfbf" points="743.5,-179.5 743.5,-198.5 799.5,-198.5 799.5,-179.5 743.5,-179.5"/>
<text text-anchor="middle" x="771.5" y="-186.5" font-family="Helvetica,sans-Serif" font-size="10.00">TClass.h</text>
</g>
<!-- Node23&#45;&gt;Node24 -->
<g id="edge33" class="edge"><title>Node23&#45;&gt;Node24</title>
<path fill="none" stroke="midnightblue" d="M920.288,-235.399C886.446,-225.073 841.08,-211.231 809.372,-201.556"/>
<polygon fill="midnightblue" stroke="midnightblue" points="810.176,-198.142 799.59,-198.571 808.133,-204.837 810.176,-198.142"/>
</g>
<!-- Node25 -->
<g id="node25" class="node"><title>Node25</title>
<polygon fill="none" stroke="#bfbfbf" points="818,-179.5 818,-198.5 877,-198.5 877,-179.5 818,-179.5"/>
<text text-anchor="middle" x="847.5" y="-186.5" font-family="Helvetica,sans-Serif" font-size="10.00">TROOT.h</text>
</g>
<!-- Node23&#45;&gt;Node25 -->
<g id="edge34" class="edge"><title>Node23&#45;&gt;Node25</title>
<path fill="none" stroke="midnightblue" d="M938.299,-235.399C918.778,-225.639 892.975,-212.737 873.865,-203.183"/>
<polygon fill="midnightblue" stroke="midnightblue" points="875.325,-199.999 864.816,-198.658 872.195,-206.26 875.325,-199.999"/>
</g>
<!-- Node26 -->
<g id="node26" class="node"><title>Node26</title>
<polygon fill="none" stroke="#bfbfbf" points="934,-179.5 934,-198.5 999,-198.5 999,-179.5 934,-179.5"/>
<text text-anchor="middle" x="966.5" y="-186.5" font-family="Helvetica,sans-Serif" font-size="10.00">TSystem.h</text>
</g>
<!-- Node23&#45;&gt;Node26 -->
<g id="edge35" class="edge"><title>Node23&#45;&gt;Node26</title>
<path fill="none" stroke="midnightblue" d="M966.5,-235.399C966.5,-227.466 966.5,-217.458 966.5,-208.858"/>
<polygon fill="midnightblue" stroke="midnightblue" points="970,-208.658 966.5,-198.658 963,-208.658 970,-208.658"/>
</g>
<!-- Node27 -->
<g id="node27" class="node"><title>Node27</title>
<polygon fill="none" stroke="#bfbfbf" points="1017,-179.5 1017,-198.5 1146,-198.5 1146,-179.5 1017,-179.5"/>
<text text-anchor="middle" x="1081.5" y="-186.5" font-family="Helvetica,sans-Serif" font-size="10.00">boost/filesystem/path.hpp</text>
</g>
<!-- Node23&#45;&gt;Node27 -->
<g id="edge36" class="edge"><title>Node23&#45;&gt;Node27</title>
<path fill="none" stroke="midnightblue" d="M993.753,-235.399C1012.53,-225.684 1037.33,-212.855 1055.77,-203.314"/>
<polygon fill="midnightblue" stroke="midnightblue" points="1057.49,-206.362 1064.77,-198.658 1054.28,-200.145 1057.49,-206.362"/>
</g>
</g>
</svg>
