<?xml version="1.0" encoding="UTF-8" standalone="no"?>
<!DOCTYPE svg PUBLIC "-//W3C//DTD SVG 1.1//EN"
 "http://www.w3.org/Graphics/SVG/1.1/DTD/svg11.dtd">
<!-- Generated by graphviz version 2.38.0 (20140413.2041)
 -->
<!-- Title: Modules/TOF/src/TaskDigits.cxx Pages: 1 -->
<!--zoomable 319 -->
<svg id="main" version="1.1" xmlns="http://www.w3.org/2000/svg" xmlns:xlink="http://www.w3.org/1999/xlink" xml:space="preserve" onload="init(evt)">
<style type="text/css"><![CDATA[
.edge:hover path { stroke: red; }
.edge:hover polygon { stroke: red; fill: red; }
]]></style>
<script type="text/javascript"><![CDATA[
var edges = document.getElementsByTagName('g');
if (edges && edges.length) {
  for (var i=0;i<edges.length;i++) {
    if (edges[i].id.substr(0,4)=='edge') {
      edges[i].setAttribute('class','edge');
    }
  }
}
]]></script>
        <defs>
                <circle id="rim" cx="0" cy="0" r="7"/>
                <circle id="rim2" cx="0" cy="0" r="3.5"/>
                <g id="zoomPlus">
                        <use xlink:href="#rim" fill="#404040">
                                <set attributeName="fill" to="#808080" begin="zoomplus.mouseover" end="zoomplus.mouseout"/>
                        </use>
                        <path d="M-4,0h8M0,-4v8" fill="none" stroke="white" stroke-width="1.5" pointer-events="none"/>
                </g>
                <g id="zoomMin">
                        <use xlink:href="#rim" fill="#404040">
                                <set attributeName="fill" to="#808080" begin="zoomminus.mouseover" end="zoomminus.mouseout"/>
                        </use>
                        <path d="M-4,0h8" fill="none" stroke="white" stroke-width="1.5" pointer-events="none"/>
                </g>
                <g id="dirArrow">
                        <path fill="none" stroke="white" stroke-width="1.5" d="M0,-3.0v7 M-2.5,-0.5L0,-3.0L2.5,-0.5"/>
                </g>
               <g id="resetDef">
                       <use xlink:href="#rim2" fill="#404040">
                               <set attributeName="fill" to="#808080" begin="reset.mouseover" end="reset.mouseout"/>
                       </use>
               </g>
        </defs>

<script type="text/javascript">
var viewWidth = 1686;
var viewHeight = 319;
var sectionId = 'dynsection-0';
</script>
<script xlink:href="svgpan.js"/>
<svg id="graph" class="graph">
<g id="viewport">
<title>Modules/TOF/src/TaskDigits.cxx</title>
<!-- Node1 -->
<g id="node1" class="node"><title>Node1</title>
<polygon fill="#bfbfbf" stroke="black" points="290,-291.5 290,-310.5 451,-310.5 451,-291.5 290,-291.5"/>
<text text-anchor="middle" x="370.5" y="-298.5" font-family="Helvetica,sans-Serif" font-size="10.00">Modules/TOF/src/TaskDigits.cxx</text>
</g>
<!-- Node2 -->
<g id="node2" class="node"><title>Node2</title>
<polygon fill="none" stroke="#bfbfbf" points="0,-235.5 0,-254.5 65,-254.5 65,-235.5 0,-235.5"/>
<text text-anchor="middle" x="32.5" y="-242.5" font-family="Helvetica,sans-Serif" font-size="10.00">TCanvas.h</text>
</g>
<!-- Node1&#45;&gt;Node2 -->
<g id="edge1" class="edge"><title>Node1&#45;&gt;Node2</title>
<path fill="none" stroke="midnightblue" d="M307.089,-291.486C249.256,-283.465 161.222,-270.616 74.9819,-254.99"/>
<polygon fill="midnightblue" stroke="midnightblue" points="75.4869,-251.524 65.0208,-253.171 74.2294,-258.41 75.4869,-251.524"/>
</g>
<!-- Node3 -->
<g id="node3" class="node"><title>Node3</title>
<polygon fill="none" stroke="#bfbfbf" points="83.5,-235.5 83.5,-254.5 127.5,-254.5 127.5,-235.5 83.5,-235.5"/>
<text text-anchor="middle" x="105.5" y="-242.5" font-family="Helvetica,sans-Serif" font-size="10.00">TH1.h</text>
</g>
<!-- Node1&#45;&gt;Node3 -->
<g id="edge2" class="edge"><title>Node1&#45;&gt;Node3</title>
<path fill="none" stroke="midnightblue" d="M318.62,-291.443C273.237,-283.638 205.37,-271.196 137.756,-255.133"/>
<polygon fill="midnightblue" stroke="midnightblue" points="138.326,-251.671 127.785,-252.737 136.691,-258.477 138.326,-251.671"/>
</g>
<!-- Node4 -->
<g id="node4" class="node"><title>Node4</title>
<polygon fill="none" stroke="#bfbfbf" points="145.5,-235.5 145.5,-254.5 195.5,-254.5 195.5,-235.5 145.5,-235.5"/>
<text text-anchor="middle" x="170.5" y="-242.5" font-family="Helvetica,sans-Serif" font-size="10.00">TH1F.h</text>
</g>
<!-- Node1&#45;&gt;Node4 -->
<g id="edge3" class="edge"><title>Node1&#45;&gt;Node4</title>
<path fill="none" stroke="midnightblue" d="M338.809,-291.444C302.565,-281.657 243.386,-265.679 205.725,-255.511"/>
<polygon fill="midnightblue" stroke="midnightblue" points="206.276,-252.034 195.71,-252.807 204.452,-258.792 206.276,-252.034"/>
</g>
<!-- Node5 -->
<g id="node5" class="node"><title>Node5</title>
<polygon fill="none" stroke="#bfbfbf" points="213.5,-235.5 213.5,-254.5 263.5,-254.5 263.5,-235.5 213.5,-235.5"/>
<text text-anchor="middle" x="238.5" y="-242.5" font-family="Helvetica,sans-Serif" font-size="10.00">TH2F.h</text>
</g>
<!-- Node1&#45;&gt;Node5 -->
<g id="edge4" class="edge"><title>Node1&#45;&gt;Node5</title>
<path fill="none" stroke="midnightblue" d="M349.584,-291.444C327.764,-282.517 293.35,-268.439 268.608,-258.317"/>
<polygon fill="midnightblue" stroke="midnightblue" points="269.899,-255.063 259.318,-254.516 267.248,-261.542 269.899,-255.063"/>
</g>
<!-- Node6 -->
<g id="node6" class="node"><title>Node6</title>
<polygon fill="none" stroke="#bfbfbf" points="282,-235.5 282,-254.5 329,-254.5 329,-235.5 282,-235.5"/>
<text text-anchor="middle" x="305.5" y="-242.5" font-family="Helvetica,sans-Serif" font-size="10.00">TH1I.h</text>
</g>
<!-- Node1&#45;&gt;Node6 -->
<g id="edge5" class="edge"><title>Node1&#45;&gt;Node6</title>
<path fill="none" stroke="midnightblue" d="M360.057,-291.324C350.354,-283.263 335.685,-271.077 324,-261.369"/>
<polygon fill="midnightblue" stroke="midnightblue" points="326.062,-258.532 316.133,-254.834 321.589,-263.916 326.062,-258.532"/>
</g>
<!-- Node7 -->
<g id="node7" class="node"><title>Node7</title>
<polygon fill="none" stroke="#bfbfbf" points="347,-235.5 347,-254.5 394,-254.5 394,-235.5 347,-235.5"/>
<text text-anchor="middle" x="370.5" y="-242.5" font-family="Helvetica,sans-Serif" font-size="10.00">TH2I.h</text>
</g>
<!-- Node1&#45;&gt;Node7 -->
<g id="edge6" class="edge"><title>Node1&#45;&gt;Node7</title>
<path fill="none" stroke="midnightblue" d="M370.5,-291.083C370.5,-284.006 370.5,-273.861 370.5,-264.986"/>
<polygon fill="midnightblue" stroke="midnightblue" points="374,-264.751 370.5,-254.751 367,-264.751 374,-264.751"/>
</g>
<!-- Node8 -->
<g id="node8" class="node"><title>Node8</title>
<polygon fill="none" stroke="#bfbfbf" points="412.5,-235.5 412.5,-254.5 502.5,-254.5 502.5,-235.5 412.5,-235.5"/>
<text text-anchor="middle" x="457.5" y="-242.5" font-family="Helvetica,sans-Serif" font-size="10.00">TOFBase/Digit.h</text>
</g>
<!-- Node1&#45;&gt;Node8 -->
<g id="edge7" class="edge"><title>Node1&#45;&gt;Node8</title>
<path fill="none" stroke="midnightblue" d="M384.478,-291.324C398.05,-282.9 418.88,-269.971 434.825,-260.074"/>
<polygon fill="midnightblue" stroke="midnightblue" points="436.906,-262.902 443.557,-254.655 433.214,-256.954 436.906,-262.902"/>
</g>
<!-- Node9 -->
<g id="node9" class="node"><title>Node9</title>
<polygon fill="none" stroke="#bfbfbf" points="520.5,-235.5 520.5,-254.5 608.5,-254.5 608.5,-235.5 520.5,-235.5"/>
<text text-anchor="middle" x="564.5" y="-242.5" font-family="Helvetica,sans-Serif" font-size="10.00">TOFBase/Geo.h</text>
</g>
<!-- Node1&#45;&gt;Node9 -->
<g id="edge8" class="edge"><title>Node1&#45;&gt;Node9</title>
<path fill="none" stroke="midnightblue" d="M401.24,-291.444C434.444,-282.201 487.491,-267.436 524.057,-257.257"/>
<polygon fill="midnightblue" stroke="midnightblue" points="525.209,-260.57 533.904,-254.516 523.332,-253.826 525.209,-260.57"/>
</g>
<!-- Node10 -->
<g id="node10" class="node"><title>Node10</title>
<polygon fill="none" stroke="#bfbfbf" points="626,-235.5 626,-254.5 723,-254.5 723,-235.5 626,-235.5"/>
<text text-anchor="middle" x="674.5" y="-242.5" font-family="Helvetica,sans-Serif" font-size="10.00">fairlogger/Logger.h</text>
</g>
<!-- Node1&#45;&gt;Node10 -->
<g id="edge9" class="edge"><title>Node1&#45;&gt;Node10</title>
<path fill="none" stroke="midnightblue" d="M418.67,-291.444C472.369,-281.905 559.186,-266.483 616.554,-256.293"/>
<polygon fill="midnightblue" stroke="midnightblue" points="617.322,-259.712 626.556,-254.516 616.098,-252.819 617.322,-259.712"/>
</g>
<!-- Node11 -->
<g id="node11" class="node"><title>Node11</title>
<g id="a_node11"><a xlink:href="QcInfoLogger_8h.html" target="_top" xlink:title="QualityControl/QcInfoLogger.h">
<polygon fill="none" stroke="black" points="741,-235.5 741,-254.5 890,-254.5 890,-235.5 741,-235.5"/>
<text text-anchor="middle" x="815.5" y="-242.5" font-family="Helvetica,sans-Serif" font-size="10.00">QualityControl/QcInfoLogger.h</text>
</a>
</g>
</g>
<!-- Node1&#45;&gt;Node11 -->
<g id="edge10" class="edge"><title>Node1&#45;&gt;Node11</title>
<path fill="none" stroke="midnightblue" d="M441.012,-291.444C521.082,-281.727 651.455,-265.907 735.327,-255.729"/>
<polygon fill="midnightblue" stroke="midnightblue" points="735.813,-259.196 745.318,-254.516 734.969,-252.247 735.813,-259.196"/>
</g>
<!-- Node14 -->
<g id="node14" class="node"><title>Node14</title>
<g id="a_node14"><a xlink:href="TaskDigits_8h.html" target="_top" xlink:title="Task to monitor quantities in TOF digits in both data and MC. ">
<polygon fill="none" stroke="black" points="917,-235.5 917,-254.5 1012,-254.5 1012,-235.5 917,-235.5"/>
<text text-anchor="middle" x="964.5" y="-242.5" font-family="Helvetica,sans-Serif" font-size="10.00">TOF/TaskDigits.h</text>
</a>
</g>
</g>
<!-- Node1&#45;&gt;Node14 -->
<g id="edge13" class="edge"><title>Node1&#45;&gt;Node14</title>
<path fill="none" stroke="midnightblue" d="M451.289,-294.458C555.157,-287.027 741.028,-272.699 899.5,-255 901.888,-254.733 904.324,-254.449 906.784,-254.153"/>
<polygon fill="midnightblue" stroke="midnightblue" points="907.48,-257.593 916.967,-252.876 906.609,-250.648 907.48,-257.593"/>
</g>
<!-- Node12 -->
<g id="node12" class="node"><title>Node12</title>
<polygon fill="none" stroke="#bfbfbf" points="750.5,-179.5 750.5,-198.5 880.5,-198.5 880.5,-179.5 750.5,-179.5"/>
<text text-anchor="middle" x="815.5" y="-186.5" font-family="Helvetica,sans-Serif" font-size="10.00">InfoLogger/InfoLogger.hxx</text>
</g>
<!-- Node11&#45;&gt;Node12 -->
<g id="edge11" class="edge"><title>Node11&#45;&gt;Node12</title>
<path fill="none" stroke="midnightblue" d="M815.5,-235.083C815.5,-228.006 815.5,-217.861 815.5,-208.986"/>
<polygon fill="midnightblue" stroke="midnightblue" points="819,-208.751 815.5,-198.751 812,-208.751 819,-208.751"/>
</g>
<!-- Node13 -->
<g id="node13" class="node"><title>Node13</title>
<polygon fill="none" stroke="#bfbfbf" points="570.5,-179.5 570.5,-198.5 732.5,-198.5 732.5,-179.5 570.5,-179.5"/>
<text text-anchor="middle" x="651.5" y="-186.5" font-family="Helvetica,sans-Serif" font-size="10.00">InfoLogger/InfoLoggerMacros.hxx</text>
</g>
<!-- Node11&#45;&gt;Node13 -->
<g id="edge12" class="edge"><title>Node11&#45;&gt;Node13</title>
<path fill="none" stroke="midnightblue" d="M789.514,-235.444C761.804,-226.32 717.748,-211.813 686.884,-201.651"/>
<polygon fill="midnightblue" stroke="midnightblue" points="687.958,-198.32 677.365,-198.516 685.768,-204.968 687.958,-198.32"/>
</g>
<!-- Node15 -->
<g id="node15" class="node"><title>Node15</title>
<g id="a_node15"><a xlink:href="TaskInterface_8h.html" target="_top" xlink:title="QualityControl/TaskInterface.h">
<polygon fill="none" stroke="black" points="898.5,-179.5 898.5,-198.5 1048.5,-198.5 1048.5,-179.5 898.5,-179.5"/>
<text text-anchor="middle" x="973.5" y="-186.5" font-family="Helvetica,sans-Serif" font-size="10.00">QualityControl/TaskInterface.h</text>
</a>
</g>
</g>
<!-- Node14&#45;&gt;Node15 -->
<g id="edge14" class="edge"><title>Node14&#45;&gt;Node15</title>
<path fill="none" stroke="midnightblue" d="M965.986,-235.083C967.179,-227.927 968.894,-217.635 970.385,-208.691"/>
<polygon fill="midnightblue" stroke="midnightblue" points="973.85,-209.19 972.041,-198.751 966.945,-208.04 973.85,-209.19"/>
</g>
<!-- Node16 -->
<g id="node16" class="node"><title>Node16</title>
<polygon fill="none" stroke="#bfbfbf" points="998,-0.5 998,-19.5 1033,-19.5 1033,-0.5 998,-0.5"/>
<text text-anchor="middle" x="1015.5" y="-7.5" font-family="Helvetica,sans-Serif" font-size="10.00">map</text>
</g>
<!-- Node15&#45;&gt;Node16 -->
<g id="edge15" class="edge"><title>Node15&#45;&gt;Node16</title>
<path fill="none" stroke="midnightblue" d="M930.433,-179.486C910.104,-173.074 887.677,-161.991 875.5,-143 854.629,-110.45 852.723,-87.246 875.5,-56 901.037,-20.9681 954.292,-12.611 987.259,-10.9548"/>
<polygon fill="midnightblue" stroke="midnightblue" points="987.71,-14.4422 997.592,-10.6212 987.484,-7.4458 987.71,-14.4422"/>
</g>
<!-- Node17 -->
<g id="node17" class="node"><title>Node17</title>
<polygon fill="none" stroke="#bfbfbf" points="928.5,-62 928.5,-81 980.5,-81 980.5,-62 928.5,-62"/>
<text text-anchor="middle" x="954.5" y="-69" font-family="Helvetica,sans-Serif" font-size="10.00">memory</text>
</g>
<!-- Node15&#45;&gt;Node17 -->
<g id="edge16" class="edge"><title>Node15&#45;&gt;Node17</title>
<path fill="none" stroke="midnightblue" d="M966.61,-179.319C960.231,-170.684 951.192,-156.77 947.5,-143 942.88,-125.77 945.742,-105.435 949.09,-91.0438"/>
<polygon fill="midnightblue" stroke="midnightblue" points="952.482,-91.9073 951.63,-81.3467 945.711,-90.1336 952.482,-91.9073"/>
</g>
<!-- Node18 -->
<g id="node18" class="node"><title>Node18</title>
<polygon fill="none" stroke="#bfbfbf" points="1083,-0.5 1083,-19.5 1124,-19.5 1124,-0.5 1083,-0.5"/>
<text text-anchor="middle" x="1103.5" y="-7.5" font-family="Helvetica,sans-Serif" font-size="10.00">string</text>
</g>
<!-- Node15&#45;&gt;Node18 -->
<g id="edge17" class="edge"><title>Node15&#45;&gt;Node18</title>
<path fill="none" stroke="midnightblue" d="M964.521,-179.452C942.164,-157.146 888.008,-96.1226 919.5,-56 929.002,-43.8943 1022.98,-25.4328 1072.82,-16.3824"/>
<polygon fill="midnightblue" stroke="midnightblue" points="1073.52,-19.8136 1082.74,-14.5997 1072.28,-12.924 1073.52,-19.8136"/>
</g>
<!-- Node19 -->
<g id="node19" class="node"><title>Node19</title>
<polygon fill="none" stroke="#bfbfbf" points="833,-0.5 833,-19.5 916,-19.5 916,-0.5 833,-0.5"/>
<text text-anchor="middle" x="874.5" y="-7.5" font-family="Helvetica,sans-Serif" font-size="10.00">unordered_map</text>
</g>
<!-- Node15&#45;&gt;Node19 -->
<g id="edge18" class="edge"><title>Node15&#45;&gt;Node19</title>
<path fill="none" stroke="midnightblue" d="M919.716,-179.422C897.838,-173.088 874.463,-162.088 860.5,-143 835.647,-109.025 853.388,-56.3295 865.593,-28.9266"/>
<polygon fill="midnightblue" stroke="midnightblue" points="868.817,-30.2939 869.899,-19.7543 862.481,-27.3191 868.817,-30.2939"/>
</g>
<!-- Node20 -->
<g id="node20" class="node"><title>Node20</title>
<polygon fill="none" stroke="#bfbfbf" points="956,-123.5 956,-142.5 1081,-142.5 1081,-123.5 956,-123.5"/>
<text text-anchor="middle" x="1018.5" y="-130.5" font-family="Helvetica,sans-Serif" font-size="10.00">Framework/InitContext.h</text>
</g>
<!-- Node15&#45;&gt;Node20 -->
<g id="edge19" class="edge"><title>Node15&#45;&gt;Node20</title>
<path fill="none" stroke="midnightblue" d="M980.931,-179.083C987.353,-171.377 996.806,-160.033 1004.62,-150.653"/>
<polygon fill="midnightblue" stroke="midnightblue" points="1007.49,-152.674 1011.21,-142.751 1002.12,-148.193 1007.49,-152.674"/>
</g>
<!-- Node21 -->
<g id="node21" class="node"><title>Node21</title>
<polygon fill="none" stroke="#bfbfbf" points="1099.5,-123.5 1099.5,-142.5 1259.5,-142.5 1259.5,-123.5 1099.5,-123.5"/>
<text text-anchor="middle" x="1179.5" y="-130.5" font-family="Helvetica,sans-Serif" font-size="10.00">Framework/ProcessingContext.h</text>
</g>
<!-- Node15&#45;&gt;Node21 -->
<g id="edge20" class="edge"><title>Node15&#45;&gt;Node21</title>
<path fill="none" stroke="midnightblue" d="M1006.14,-179.444C1041.55,-170.162 1098.21,-155.309 1137.05,-145.127"/>
<polygon fill="midnightblue" stroke="midnightblue" points="1138.23,-148.438 1147.01,-142.516 1136.45,-141.667 1138.23,-148.438"/>
</g>
<!-- Node22 -->
<g id="node22" class="node"><title>Node22</title>
<g id="a_node22"><a xlink:href="Activity_8h.html" target="_top" xlink:title="QualityControl/Activity.h">
<polygon fill="none" stroke="black" points="1278,-123.5 1278,-142.5 1401,-142.5 1401,-123.5 1278,-123.5"/>
<text text-anchor="middle" x="1339.5" y="-130.5" font-family="Helvetica,sans-Serif" font-size="10.00">QualityControl/Activity.h</text>
</a>
</g>
</g>
<!-- Node15&#45;&gt;Node22 -->
<g id="edge21" class="edge"><title>Node15&#45;&gt;Node22</title>
<path fill="none" stroke="midnightblue" d="M1031.49,-179.444C1096.81,-169.806 1202.84,-154.163 1271.87,-143.978"/>
<polygon fill="midnightblue" stroke="midnightblue" points="1272.4,-147.439 1281.78,-142.516 1271.37,-140.514 1272.4,-147.439"/>
</g>
<!-- Node23 -->
<g id="node23" class="node"><title>Node23</title>
<g id="a_node23"><a xlink:href="ObjectsManager_8h.html" target="_top" xlink:title="QualityControl/ObjectsManager.h">
<polygon fill="none" stroke="black" points="1419,-123.5 1419,-142.5 1580,-142.5 1580,-123.5 1419,-123.5"/>
<text text-anchor="middle" x="1499.5" y="-130.5" font-family="Helvetica,sans-Serif" font-size="10.00">QualityControl/ObjectsManager.h</text>
</a>
</g>
</g>
<!-- Node15&#45;&gt;Node23 -->
<g id="edge22" class="edge"><title>Node15&#45;&gt;Node23</title>
<path fill="none" stroke="midnightblue" d="M1048.58,-180.292C1143.49,-170.548 1306.75,-153.788 1408.61,-143.331"/>
<polygon fill="midnightblue" stroke="midnightblue" points="1408.98,-146.811 1418.57,-142.308 1408.27,-139.848 1408.98,-146.811"/>
</g>
<!-- Node23&#45;&gt;Node17 -->
<g id="edge36" class="edge"><title>Node23&#45;&gt;Node17</title>
<path fill="none" stroke="midnightblue" d="M1418.97,-123.805C1416.11,-123.531 1413.28,-123.261 1410.5,-123 1226.17,-105.686 1176.44,-126.178 995.5,-87 992.076,-86.2586 988.545,-85.3094 985.06,-84.2523"/>
<polygon fill="midnightblue" stroke="midnightblue" points="986.077,-80.902 975.483,-81.0698 983.869,-87.5448 986.077,-80.902"/>
</g>
<!-- Node23&#45;&gt;Node18 -->
<g id="edge35" class="edge"><title>Node23&#45;&gt;Node18</title>
<path fill="none" stroke="midnightblue" d="M1426.64,-123.471C1342.64,-113.301 1213.41,-96.4916 1192.5,-87 1184.23,-83.2434 1144.05,-47.6194 1120.6,-26.5039"/>
<polygon fill="midnightblue" stroke="midnightblue" points="1122.85,-23.8209 1113.09,-19.7162 1118.16,-29.016 1122.85,-23.8209"/>
</g>
<!-- Node24 -->
<g id="node24" class="node"><title>Node24</title>
<g id="a_node24"><a xlink:href="MonitorObject_8h.html" target="_top" xlink:title="QualityControl/MonitorObject.h">
<polygon fill="none" stroke="black" points="1201,-62 1201,-81 1352,-81 1352,-62 1201,-62"/>
<text text-anchor="middle" x="1276.5" y="-69" font-family="Helvetica,sans-Serif" font-size="10.00">QualityControl/MonitorObject.h</text>
</a>
</g>
</g>
<!-- Node23&#45;&gt;Node24 -->
<g id="edge23" class="edge"><title>Node23&#45;&gt;Node24</title>
<path fill="none" stroke="midnightblue" d="M1467.55,-123.475C1428.3,-113.004 1361.62,-95.2118 1318.33,-83.6601"/>
<polygon fill="midnightblue" stroke="midnightblue" points="1318.96,-80.2054 1308.39,-81.0091 1317.15,-86.9688 1318.96,-80.2054"/>
</g>
<!-- Node28 -->
<g id="node28" class="node"><title>Node28</title>
<g id="a_node28"><a xlink:href="MonitorObjectCollection_8h.html" target="_top" xlink:title="QualityControl/MonitorObject\lCollection.h">
<polygon fill="none" stroke="black" points="1428,-56.5 1428,-86.5 1571,-86.5 1571,-56.5 1428,-56.5"/>
<text text-anchor="start" x="1436" y="-74.5" font-family="Helvetica,sans-Serif" font-size="10.00">QualityControl/MonitorObject</text>
<text text-anchor="middle" x="1499.5" y="-63.5" font-family="Helvetica,sans-Serif" font-size="10.00">Collection.h</text>
</a>
</g>
</g>
<!-- Node23&#45;&gt;Node28 -->
<g id="edge29" class="edge"><title>Node23&#45;&gt;Node28</title>
<path fill="none" stroke="midnightblue" d="M1499.5,-123.475C1499.5,-116.471 1499.5,-106.192 1499.5,-96.6956"/>
<polygon fill="midnightblue" stroke="midnightblue" points="1503,-96.5229 1499.5,-86.523 1496,-96.523 1503,-96.5229"/>
</g>
<!-- Node31 -->
<g id="node31" class="node"><title>Node31</title>
<g id="a_node31"><a xlink:href="TaskConfig_8h.html" target="_top" xlink:title="QualityControl/TaskConfig.h">
<polygon fill="none" stroke="black" points="1004.5,-62 1004.5,-81 1144.5,-81 1144.5,-62 1004.5,-62"/>
<text text-anchor="middle" x="1074.5" y="-69" font-family="Helvetica,sans-Serif" font-size="10.00">QualityControl/TaskConfig.h</text>
</a>
</g>
</g>
<!-- Node23&#45;&gt;Node31 -->
<g id="edge32" class="edge"><title>Node23&#45;&gt;Node31</title>
<path fill="none" stroke="midnightblue" d="M1428.52,-123.467C1359.47,-114.969 1251.63,-101.177 1158.5,-87 1149.89,-85.6893 1140.8,-84.2149 1131.9,-82.7213"/>
<polygon fill="midnightblue" stroke="midnightblue" points="1132.42,-79.2598 1121.98,-81.0346 1131.25,-86.1608 1132.42,-79.2598"/>
</g>
<!-- Node24&#45;&gt;Node16 -->
<g id="edge25" class="edge"><title>Node24&#45;&gt;Node16</title>
<path fill="none" stroke="midnightblue" d="M1239.11,-61.9751C1186.03,-49.8761 1090.09,-28.0045 1043.03,-17.277"/>
<polygon fill="midnightblue" stroke="midnightblue" points="1043.76,-13.8536 1033.24,-15.0433 1042.21,-20.6785 1043.76,-13.8536"/>
</g>
<!-- Node24&#45;&gt;Node18 -->
<g id="edge24" class="edge"><title>Node24&#45;&gt;Node18</title>
<path fill="none" stroke="midnightblue" d="M1251.71,-61.9751C1220.64,-51.2877 1167.39,-32.975 1133.89,-21.4536"/>
<polygon fill="midnightblue" stroke="midnightblue" points="1134.77,-18.0547 1124.18,-18.112 1132.5,-24.6741 1134.77,-18.0547"/>
</g>
<!-- Node25 -->
<g id="node25" class="node"><title>Node25</title>
<polygon fill="none" stroke="#bfbfbf" points="1172.5,-0.5 1172.5,-19.5 1228.5,-19.5 1228.5,-0.5 1172.5,-0.5"/>
<text text-anchor="middle" x="1200.5" y="-7.5" font-family="Helvetica,sans-Serif" font-size="10.00">Rtypes.h</text>
</g>
<!-- Node24&#45;&gt;Node25 -->
<g id="edge26" class="edge"><title>Node24&#45;&gt;Node25</title>
<path fill="none" stroke="midnightblue" d="M1265.61,-61.9751C1253.53,-52.5199 1233.83,-37.0961 1219.26,-25.6871"/>
<polygon fill="midnightblue" stroke="midnightblue" points="1221.4,-22.9177 1211.37,-19.5091 1217.09,-28.4295 1221.4,-22.9177"/>
</g>
<!-- Node26 -->
<g id="node26" class="node"><title>Node26</title>
<polygon fill="none" stroke="#bfbfbf" points="1247,-0.5 1247,-19.5 1306,-19.5 1306,-0.5 1247,-0.5"/>
<text text-anchor="middle" x="1276.5" y="-7.5" font-family="Helvetica,sans-Serif" font-size="10.00">TObject.h</text>
</g>
<!-- Node24&#45;&gt;Node26 -->
<g id="edge27" class="edge"><title>Node24&#45;&gt;Node26</title>
<path fill="none" stroke="midnightblue" d="M1276.5,-61.9751C1276.5,-53.5803 1276.5,-40.4806 1276.5,-29.6631"/>
<polygon fill="midnightblue" stroke="midnightblue" points="1280,-29.5091 1276.5,-19.5091 1273,-29.5091 1280,-29.5091"/>
</g>
<!-- Node27 -->
<g id="node27" class="node"><title>Node27</title>
<polygon fill="none" stroke="#bfbfbf" points="1324.5,-0.5 1324.5,-19.5 1440.5,-19.5 1440.5,-0.5 1324.5,-0.5"/>
<text text-anchor="middle" x="1382.5" y="-7.5" font-family="Helvetica,sans-Serif" font-size="10.00">Common/Exceptions.h</text>
</g>
<!-- Node24&#45;&gt;Node27 -->
<g id="edge28" class="edge"><title>Node24&#45;&gt;Node27</title>
<path fill="none" stroke="midnightblue" d="M1291.69,-61.9751C1309.16,-52.1664 1338.08,-35.9346 1358.58,-24.425"/>
<polygon fill="midnightblue" stroke="midnightblue" points="1360.33,-27.456 1367.34,-19.5091 1356.91,-21.3519 1360.33,-27.456"/>
</g>
<!-- Node29 -->
<g id="node29" class="node"><title>Node29</title>
<polygon fill="none" stroke="#bfbfbf" points="1462,-0.5 1462,-19.5 1531,-19.5 1531,-0.5 1462,-0.5"/>
<text text-anchor="middle" x="1496.5" y="-7.5" font-family="Helvetica,sans-Serif" font-size="10.00">TObjArray.h</text>
</g>
<!-- Node28&#45;&gt;Node29 -->
<g id="edge30" class="edge"><title>Node28&#45;&gt;Node29</title>
<path fill="none" stroke="midnightblue" d="M1498.79,-56.3993C1498.39,-48.4664 1497.88,-38.458 1497.45,-29.8583"/>
<polygon fill="midnightblue" stroke="midnightblue" points="1500.94,-29.4688 1496.94,-19.6578 1493.94,-29.8214 1500.94,-29.4688"/>
</g>
<!-- Node30 -->
<g id="node30" class="node"><title>Node30</title>
<polygon fill="none" stroke="#bfbfbf" points="1549.5,-0.5 1549.5,-19.5 1677.5,-19.5 1677.5,-0.5 1549.5,-0.5"/>
<text text-anchor="middle" x="1613.5" y="-7.5" font-family="Helvetica,sans-Serif" font-size="10.00">Mergers/MergeInterface.h</text>
</g>
<!-- Node28&#45;&gt;Node30 -->
<g id="edge31" class="edge"><title>Node28&#45;&gt;Node30</title>
<path fill="none" stroke="midnightblue" d="M1526.52,-56.3993C1545.13,-46.6837 1569.71,-33.8551 1587.99,-24.3137"/>
<polygon fill="midnightblue" stroke="midnightblue" points="1589.67,-27.3876 1596.91,-19.6578 1586.43,-21.182 1589.67,-27.3876"/>
</g>
<!-- Node31&#45;&gt;Node18 -->
<g id="edge33" class="edge"><title>Node31&#45;&gt;Node18</title>
<path fill="none" stroke="midnightblue" d="M1078.65,-61.9751C1082.88,-53.3152 1089.54,-39.6486 1094.9,-28.6453"/>
<polygon fill="midnightblue" stroke="midnightblue" points="1098.12,-30.0317 1099.35,-19.5091 1091.83,-26.9648 1098.12,-30.0317"/>
</g>
<!-- Node31&#45;&gt;Node19 -->
<g id="edge34" class="edge"><title>Node31&#45;&gt;Node19</title>
<path fill="none" stroke="midnightblue" d="M1045.84,-61.9751C1010.94,-51.592 951.85,-34.0116 913,-22.4538"/>
<polygon fill="midnightblue" stroke="midnightblue" points="913.685,-19.0059 903.102,-19.5091 911.689,-25.7153 913.685,-19.0059"/>
</g>
</g>
</svg>
        <g id="navigator" transform="translate(0 0)" fill="#404254">
                <rect fill="#f2f5e9" fill-opacity="0.5" stroke="#606060" stroke-width=".5" x="0" y="0" width="60" height="60"/>
                <use id="zoomplus" xlink:href="#zoomPlus" x="17" y="9" onmousedown="handleZoom(evt,'in')"/>
                <use id="zoomminus" xlink:href="#zoomMin" x="42" y="9" onmousedown="handleZoom(evt,'out')"/>
                <use id="reset" xlink:href="#resetDef" x="30" y="36" onmousedown="handleReset()"/>
                <g id="arrowUp" xlink:href="#dirArrow" transform="translate(30 24)" onmousedown="handlePan(0,-1)">
                  <use xlink:href="#rim" fill="#404040">
                        <set attributeName="fill" to="#808080" begin="arrowUp.mouseover" end="arrowUp.mouseout"/>
                  </use>
                  <path fill="none" stroke="white" stroke-width="1.5" d="M0,-3.0v7 M-2.5,-0.5L0,-3.0L2.5,-0.5"/>
                </g>
                <g id="arrowRight" xlink:href="#dirArrow" transform="rotate(90) translate(36 -43)" onmousedown="handlePan(1,0)">
                  <use xlink:href="#rim" fill="#404040">
                        <set attributeName="fill" to="#808080" begin="arrowRight.mouseover" end="arrowRight.mouseout"/>
                  </use>
                  <path fill="none" stroke="white" stroke-width="1.5" d="M0,-3.0v7 M-2.5,-0.5L0,-3.0L2.5,-0.5"/>
                </g>
                <g id="arrowDown" xlink:href="#dirArrow" transform="rotate(180) translate(-30 -48)" onmousedown="handlePan(0,1)">
                  <use xlink:href="#rim" fill="#404040">
                        <set attributeName="fill" to="#808080" begin="arrowDown.mouseover" end="arrowDown.mouseout"/>
                  </use>
                  <path fill="none" stroke="white" stroke-width="1.5" d="M0,-3.0v7 M-2.5,-0.5L0,-3.0L2.5,-0.5"/>
                </g>
                <g id="arrowLeft" xlink:href="#dirArrow" transform="rotate(270) translate(-36 17)" onmousedown="handlePan(-1,0)">
                  <use xlink:href="#rim" fill="#404040">
                        <set attributeName="fill" to="#808080" begin="arrowLeft.mouseover" end="arrowLeft.mouseout"/>
                  </use>
                  <path fill="none" stroke="white" stroke-width="1.5" d="M0,-3.0v7 M-2.5,-0.5L0,-3.0L2.5,-0.5"/>
                </g>
        </g>
        <svg viewBox="0 0 15 15" width="100%" height="30px" preserveAspectRatio="xMaxYMin meet">
         <g id="arrow_out" transform="scale(0.3 0.3)">
          <a xlink:href="TaskDigits_8cxx__incl_org.svg" target="_base">
           <rect id="button" ry="5" rx="5" y="6" x="6" height="38" width="38"
                fill="#f2f5e9" fill-opacity="0.5" stroke="#606060" stroke-width="1.0"/>
           <path id="arrow"
             d="M 11.500037,31.436501 C 11.940474,20.09759 22.043105,11.32322 32.158766,21.979434 L 37.068811,17.246167 C 37.068811,17.246167 37.088388,32 37.088388,32 L 22.160133,31.978069 C 22.160133,31.978069 26.997745,27.140456 26.997745,27.140456 C 18.528582,18.264221 13.291696,25.230495 11.500037,31.436501 z"
             style="fill:#404040;"/>
          </a>
         </g>
        </svg>
</svg>
