<?xml version="1.0" encoding="UTF-8" standalone="no"?>
<!DOCTYPE svg PUBLIC "-//W3C//DTD SVG 1.1//EN"
 "http://www.w3.org/Graphics/SVG/1.1/DTD/svg11.dtd">
<!-- Generated by graphviz version 2.38.0 (20140413.2041)
 -->
<!-- Title: Framework/test/testTaskInterface.cxx Pages: 1 -->
<!--zoomable 319 -->
<svg id="main" version="1.1" xmlns="http://www.w3.org/2000/svg" xmlns:xlink="http://www.w3.org/1999/xlink" xml:space="preserve" onload="init(evt)">
<style type="text/css"><![CDATA[
.edge:hover path { stroke: red; }
.edge:hover polygon { stroke: red; fill: red; }
]]></style>
<script type="text/javascript"><![CDATA[
var edges = document.getElementsByTagName('g');
if (edges && edges.length) {
  for (var i=0;i<edges.length;i++) {
    if (edges[i].id.substr(0,4)=='edge') {
      edges[i].setAttribute('class','edge');
    }
  }
}
]]></script>
        <defs>
                <circle id="rim" cx="0" cy="0" r="7"/>
                <circle id="rim2" cx="0" cy="0" r="3.5"/>
                <g id="zoomPlus">
                        <use xlink:href="#rim" fill="#404040">
                                <set attributeName="fill" to="#808080" begin="zoomplus.mouseover" end="zoomplus.mouseout"/>
                        </use>
                        <path d="M-4,0h8M0,-4v8" fill="none" stroke="white" stroke-width="1.5" pointer-events="none"/>
                </g>
                <g id="zoomMin">
                        <use xlink:href="#rim" fill="#404040">
                                <set attributeName="fill" to="#808080" begin="zoomminus.mouseover" end="zoomminus.mouseout"/>
                        </use>
                        <path d="M-4,0h8" fill="none" stroke="white" stroke-width="1.5" pointer-events="none"/>
                </g>
                <g id="dirArrow">
                        <path fill="none" stroke="white" stroke-width="1.5" d="M0,-3.0v7 M-2.5,-0.5L0,-3.0L2.5,-0.5"/>
                </g>
               <g id="resetDef">
                       <use xlink:href="#rim2" fill="#404040">
                               <set attributeName="fill" to="#808080" begin="reset.mouseover" end="reset.mouseout"/>
                       </use>
               </g>
        </defs>

<script type="text/javascript">
var viewWidth = 1130;
var viewHeight = 319;
var sectionId = 'dynsection-0';
</script>
<script xlink:href="svgpan.js"/>
<svg id="graph" class="graph">
<g id="viewport">
<title>Framework/test/testTaskInterface.cxx</title>
<!-- Node1 -->
<g id="node1" class="node"><title>Node1</title>
<polygon fill="#bfbfbf" stroke="black" points="466.352,-291.5 466.352,-310.5 649.352,-310.5 649.352,-291.5 466.352,-291.5"/>
<text text-anchor="middle" x="557.852" y="-298.5" font-family="Helvetica,sans-Serif" font-size="10.00">Framework/test/testTaskInterface.cxx</text>
</g>
<!-- Node2 -->
<g id="node2" class="node"><title>Node2</title>
<g id="a_node2"><a xlink:href="TaskFactory_8h.html" target="_top" xlink:title="QualityControl/TaskFactory.h">
<polygon fill="none" stroke="black" points="83.3522,-235.5 83.3522,-254.5 228.352,-254.5 228.352,-235.5 83.3522,-235.5"/>
<text text-anchor="middle" x="155.852" y="-242.5" font-family="Helvetica,sans-Serif" font-size="10.00">QualityControl/TaskFactory.h</text>
</a>
</g>
</g>
<!-- Node1&#45;&gt;Node2 -->
<g id="edge1" class="edge"><title>Node1&#45;&gt;Node2</title>
<path fill="none" stroke="midnightblue" d="M494.154,-291.444C422.115,-281.767 305.003,-266.035 229.204,-255.853"/>
<polygon fill="midnightblue" stroke="midnightblue" points="229.629,-252.379 219.252,-254.516 228.697,-259.317 229.629,-252.379"/>
</g>
<!-- Node7 -->
<g id="node7" class="node"><title>Node7</title>
<g id="a_node7"><a xlink:href="TaskInterface_8h.html" target="_top" xlink:title="QualityControl/TaskInterface.h">
<polygon fill="none" stroke="black" points="277.852,-179.5 277.852,-198.5 427.852,-198.5 427.852,-179.5 277.852,-179.5"/>
<text text-anchor="middle" x="352.852" y="-186.5" font-family="Helvetica,sans-Serif" font-size="10.00">QualityControl/TaskInterface.h</text>
</a>
</g>
</g>
<!-- Node1&#45;&gt;Node7 -->
<g id="edge27" class="edge"><title>Node1&#45;&gt;Node7</title>
<path fill="none" stroke="midnightblue" d="M529.76,-291.398C505.686,-283.494 470.47,-270.65 441.852,-255 415.549,-240.616 388.103,-219.489 370.767,-205.263"/>
<polygon fill="midnightblue" stroke="midnightblue" points="372.605,-202.238 362.682,-198.524 368.123,-207.615 372.605,-202.238"/>
</g>
<!-- Node9 -->
<g id="node9" class="node"><title>Node9</title>
<polygon fill="none" stroke="#bfbfbf" points="877.352,-123.5 877.352,-142.5 1002.35,-142.5 1002.35,-123.5 877.352,-123.5"/>
<text text-anchor="middle" x="939.852" y="-130.5" font-family="Helvetica,sans-Serif" font-size="10.00">Framework/InitContext.h</text>
</g>
<!-- Node1&#45;&gt;Node9 -->
<g id="edge32" class="edge"><title>Node1&#45;&gt;Node9</title>
<path fill="none" stroke="midnightblue" d="M524.866,-291.438C506.389,-284.769 484.901,-273.453 473.852,-255 464.376,-239.173 462.114,-196.509 479.852,-179 510.272,-148.973 820.345,-147.481 862.852,-143 864.316,-142.846 865.796,-142.688 867.287,-142.528"/>
<polygon fill="midnightblue" stroke="midnightblue" points="867.691,-146.005 877.25,-141.437 866.929,-139.046 867.691,-146.005"/>
</g>
<!-- Node20 -->
<g id="node20" class="node"><title>Node20</title>
<g id="a_node20"><a xlink:href="QcInfoLogger_8h.html" target="_top" xlink:title="QualityControl/QcInfoLogger.h">
<polygon fill="none" stroke="black" points="483.352,-235.5 483.352,-254.5 632.352,-254.5 632.352,-235.5 483.352,-235.5"/>
<text text-anchor="middle" x="557.852" y="-242.5" font-family="Helvetica,sans-Serif" font-size="10.00">QualityControl/QcInfoLogger.h</text>
</a>
</g>
</g>
<!-- Node1&#45;&gt;Node20 -->
<g id="edge28" class="edge"><title>Node1&#45;&gt;Node20</title>
<path fill="none" stroke="midnightblue" d="M557.852,-291.083C557.852,-284.006 557.852,-273.861 557.852,-264.986"/>
<polygon fill="midnightblue" stroke="midnightblue" points="561.352,-264.751 557.852,-254.751 554.352,-264.751 561.352,-264.751"/>
</g>
<!-- Node23 -->
<g id="node23" class="node"><title>Node23</title>
<polygon fill="none" stroke="#bfbfbf" points="650.852,-235.5 650.852,-254.5 820.852,-254.5 820.852,-235.5 650.852,-235.5"/>
<text text-anchor="middle" x="735.852" y="-242.5" font-family="Helvetica,sans-Serif" font-size="10.00">Framework/ConfigParamRegistry.h</text>
</g>
<!-- Node1&#45;&gt;Node23 -->
<g id="edge31" class="edge"><title>Node1&#45;&gt;Node23</title>
<path fill="none" stroke="midnightblue" d="M586.057,-291.444C616.262,-282.28 664.364,-267.688 697.882,-257.519"/>
<polygon fill="midnightblue" stroke="midnightblue" points="699.226,-260.769 707.78,-254.516 697.194,-254.07 699.226,-260.769"/>
</g>
<!-- Node24 -->
<g id="node24" class="node"><title>Node24</title>
<polygon fill="none" stroke="#bfbfbf" points="838.852,-235.5 838.852,-254.5 984.852,-254.5 984.852,-235.5 838.852,-235.5"/>
<text text-anchor="middle" x="911.852" y="-242.5" font-family="Helvetica,sans-Serif" font-size="10.00">Framework/ServiceRegistry.h</text>
</g>
<!-- Node1&#45;&gt;Node24 -->
<g id="edge33" class="edge"><title>Node1&#45;&gt;Node24</title>
<path fill="none" stroke="midnightblue" d="M613.945,-291.444C676.994,-281.826 779.249,-266.228 846.029,-256.041"/>
<polygon fill="midnightblue" stroke="midnightblue" points="846.665,-259.484 856.022,-254.516 845.609,-252.565 846.665,-259.484"/>
</g>
<!-- Node25 -->
<g id="node25" class="node"><title>Node25</title>
<polygon fill="none" stroke="#bfbfbf" points="1003.35,-235.5 1003.35,-254.5 1122.35,-254.5 1122.35,-235.5 1003.35,-235.5"/>
<text text-anchor="middle" x="1062.85" y="-242.5" font-family="Helvetica,sans-Serif" font-size="10.00">boost/test/unit_test.hpp</text>
</g>
<!-- Node1&#45;&gt;Node25 -->
<g id="edge34" class="edge"><title>Node1&#45;&gt;Node25</title>
<path fill="none" stroke="midnightblue" d="M647.277,-291.479C733.14,-283.135 866.78,-269.723 992.804,-255.094"/>
<polygon fill="midnightblue" stroke="midnightblue" points="993.498,-258.537 1003.03,-253.903 992.687,-251.585 993.498,-258.537"/>
</g>
<!-- Node3 -->
<g id="node3" class="node"><title>Node3</title>
<polygon fill="none" stroke="#bfbfbf" points="38.8522,-62 38.8522,-81 90.8522,-81 90.8522,-62 38.8522,-62"/>
<text text-anchor="middle" x="64.8522" y="-69" font-family="Helvetica,sans-Serif" font-size="10.00">memory</text>
</g>
<!-- Node2&#45;&gt;Node3 -->
<g id="edge2" class="edge"><title>Node2&#45;&gt;Node3</title>
<path fill="none" stroke="midnightblue" d="M83.2824,-238.75C56.7516,-232.891 29.2486,-221.349 12.8522,-199 -7.12848,-171.766 -0.301926,-154.111 12.8522,-123 18.9445,-108.591 31.3818,-96.2679 42.5653,-87.4025"/>
<polygon fill="midnightblue" stroke="midnightblue" points="44.8101,-90.0949 50.7471,-81.3198 40.6337,-84.4772 44.8101,-90.0949"/>
</g>
<!-- Node4 -->
<g id="node4" class="node"><title>Node4</title>
<g id="a_node4"><a xlink:href="TaskConfig_8h.html" target="_top" xlink:title="QualityControl/TaskConfig.h">
<polygon fill="none" stroke="black" points="272.852,-62 272.852,-81 412.852,-81 412.852,-62 272.852,-62"/>
<text text-anchor="middle" x="342.852" y="-69" font-family="Helvetica,sans-Serif" font-size="10.00">QualityControl/TaskConfig.h</text>
</a>
</g>
</g>
<!-- Node2&#45;&gt;Node4 -->
<g id="edge3" class="edge"><title>Node2&#45;&gt;Node4</title>
<path fill="none" stroke="midnightblue" d="M143.402,-235.207C115.435,-214.415 52.4549,-161.111 83.8522,-123 106.226,-95.8424 195.006,-83.0936 262.441,-77.24"/>
<polygon fill="midnightblue" stroke="midnightblue" points="262.97,-80.7082 272.646,-76.392 262.391,-73.7322 262.97,-80.7082"/>
</g>
<!-- Node2&#45;&gt;Node7 -->
<g id="edge6" class="edge"><title>Node2&#45;&gt;Node7</title>
<path fill="none" stroke="midnightblue" d="M187.067,-235.444C220.785,-226.201 274.652,-211.436 311.784,-201.257"/>
<polygon fill="midnightblue" stroke="midnightblue" points="313.064,-204.536 321.783,-198.516 311.214,-197.785 313.064,-204.536"/>
</g>
<!-- Node5 -->
<g id="node5" class="node"><title>Node5</title>
<polygon fill="none" stroke="#bfbfbf" points="555.352,-0.5 555.352,-19.5 596.352,-19.5 596.352,-0.5 555.352,-0.5"/>
<text text-anchor="middle" x="575.852" y="-7.5" font-family="Helvetica,sans-Serif" font-size="10.00">string</text>
</g>
<!-- Node4&#45;&gt;Node5 -->
<g id="edge4" class="edge"><title>Node4&#45;&gt;Node5</title>
<path fill="none" stroke="midnightblue" d="M379.292,-61.9881C418.038,-52.8152 481.325,-37.4852 545.367,-20.0309"/>
<polygon fill="midnightblue" stroke="midnightblue" points="546.514,-23.3458 555.233,-17.3266 544.663,-16.5948 546.514,-23.3458"/>
</g>
<!-- Node6 -->
<g id="node6" class="node"><title>Node6</title>
<polygon fill="none" stroke="#bfbfbf" points="212.352,-0.5 212.352,-19.5 295.352,-19.5 295.352,-0.5 212.352,-0.5"/>
<text text-anchor="middle" x="253.852" y="-7.5" font-family="Helvetica,sans-Serif" font-size="10.00">unordered_map</text>
</g>
<!-- Node4&#45;&gt;Node6 -->
<g id="edge5" class="edge"><title>Node4&#45;&gt;Node6</title>
<path fill="none" stroke="midnightblue" d="M330.101,-61.9751C315.825,-52.4315 292.455,-36.8073 275.344,-25.3683"/>
<polygon fill="midnightblue" stroke="midnightblue" points="276.839,-22.1572 266.58,-19.5091 272.948,-27.9766 276.839,-22.1572"/>
</g>
<!-- Node7&#45;&gt;Node3 -->
<g id="edge8" class="edge"><title>Node7&#45;&gt;Node3</title>
<path fill="none" stroke="midnightblue" d="M277.611,-184.36C208.142,-179.453 111.648,-168.21 83.8522,-143 69.6475,-130.117 65.5961,-107.841 64.6584,-91.7717"/>
<polygon fill="midnightblue" stroke="midnightblue" points="68.149,-91.3102 64.4253,-81.3913 61.1508,-91.4674 68.149,-91.3102"/>
</g>
<!-- Node7&#45;&gt;Node5 -->
<g id="edge9" class="edge"><title>Node7&#45;&gt;Node5</title>
<path fill="none" stroke="midnightblue" d="M428,-180.348C502.857,-171.951 608.415,-157.699 620.852,-143 649.922,-108.642 613.051,-54.5851 590.673,-27.5505"/>
<polygon fill="midnightblue" stroke="midnightblue" points="593.182,-25.0996 584.018,-19.7818 587.866,-29.6534 593.182,-25.0996"/>
</g>
<!-- Node7&#45;&gt;Node6 -->
<g id="edge10" class="edge"><title>Node7&#45;&gt;Node6</title>
<path fill="none" stroke="midnightblue" d="M318.037,-179.474C298.765,-172.851 276.263,-161.57 263.852,-143 240.834,-108.558 245.273,-57.1771 249.915,-29.7857"/>
<polygon fill="midnightblue" stroke="midnightblue" points="253.415,-30.1112 251.837,-19.6346 246.537,-28.8086 253.415,-30.1112"/>
</g>
<!-- Node8 -->
<g id="node8" class="node"><title>Node8</title>
<polygon fill="none" stroke="#bfbfbf" points="900.352,-0.5 900.352,-19.5 935.352,-19.5 935.352,-0.5 900.352,-0.5"/>
<text text-anchor="middle" x="917.852" y="-7.5" font-family="Helvetica,sans-Serif" font-size="10.00">map</text>
</g>
<!-- Node7&#45;&gt;Node8 -->
<g id="edge7" class="edge"><title>Node7&#45;&gt;Node8</title>
<path fill="none" stroke="midnightblue" d="M424.114,-179.498C482.49,-171.895 567.037,-159.42 639.852,-143 725.316,-123.728 751.859,-128.803 828.852,-87 858.162,-71.0865 886.474,-44.3357 903.019,-27.1869"/>
<polygon fill="midnightblue" stroke="midnightblue" points="905.833,-29.3051 910.149,-19.6293 900.741,-24.5017 905.833,-29.3051"/>
</g>
<!-- Node7&#45;&gt;Node9 -->
<g id="edge11" class="edge"><title>Node7&#45;&gt;Node9</title>
<path fill="none" stroke="midnightblue" d="M428.107,-180.307C432.758,-179.858 437.368,-179.418 441.852,-179 628.834,-161.552 676.012,-161.903 862.852,-143 864.317,-142.852 865.797,-142.7 867.288,-142.545"/>
<polygon fill="midnightblue" stroke="midnightblue" points="867.683,-146.023 877.255,-141.481 866.94,-139.062 867.683,-146.023"/>
</g>
<!-- Node10 -->
<g id="node10" class="node"><title>Node10</title>
<polygon fill="none" stroke="#bfbfbf" points="272.852,-123.5 272.852,-142.5 432.852,-142.5 432.852,-123.5 272.852,-123.5"/>
<text text-anchor="middle" x="352.852" y="-130.5" font-family="Helvetica,sans-Serif" font-size="10.00">Framework/ProcessingContext.h</text>
</g>
<!-- Node7&#45;&gt;Node10 -->
<g id="edge12" class="edge"><title>Node7&#45;&gt;Node10</title>
<path fill="none" stroke="midnightblue" d="M352.852,-179.083C352.852,-172.006 352.852,-161.861 352.852,-152.986"/>
<polygon fill="midnightblue" stroke="midnightblue" points="356.352,-152.751 352.852,-142.751 349.352,-152.751 356.352,-152.751"/>
</g>
<!-- Node11 -->
<g id="node11" class="node"><title>Node11</title>
<g id="a_node11"><a xlink:href="Activity_8h.html" target="_top" xlink:title="QualityControl/Activity.h">
<polygon fill="none" stroke="black" points="93.3522,-123.5 93.3522,-142.5 216.352,-142.5 216.352,-123.5 93.3522,-123.5"/>
<text text-anchor="middle" x="154.852" y="-130.5" font-family="Helvetica,sans-Serif" font-size="10.00">QualityControl/Activity.h</text>
</a>
</g>
</g>
<!-- Node7&#45;&gt;Node11 -->
<g id="edge13" class="edge"><title>Node7&#45;&gt;Node11</title>
<path fill="none" stroke="midnightblue" d="M321.479,-179.444C287.59,-170.201 233.449,-155.436 196.129,-145.257"/>
<polygon fill="midnightblue" stroke="midnightblue" points="196.648,-141.771 186.079,-142.516 194.806,-148.524 196.648,-141.771"/>
</g>
<!-- Node12 -->
<g id="node12" class="node"><title>Node12</title>
<g id="a_node12"><a xlink:href="ObjectsManager_8h.html" target="_top" xlink:title="QualityControl/ObjectsManager.h">
<polygon fill="none" stroke="black" points="451.352,-123.5 451.352,-142.5 612.352,-142.5 612.352,-123.5 451.352,-123.5"/>
<text text-anchor="middle" x="531.852" y="-130.5" font-family="Helvetica,sans-Serif" font-size="10.00">QualityControl/ObjectsManager.h</text>
</a>
</g>
</g>
<!-- Node7&#45;&gt;Node12 -->
<g id="edge14" class="edge"><title>Node7&#45;&gt;Node12</title>
<path fill="none" stroke="midnightblue" d="M381.215,-179.444C411.59,-170.28 459.962,-155.688 493.668,-145.519"/>
<polygon fill="midnightblue" stroke="midnightblue" points="495.059,-148.756 503.622,-142.516 493.037,-142.054 495.059,-148.756"/>
</g>
<!-- Node12&#45;&gt;Node3 -->
<g id="edge26" class="edge"><title>Node12&#45;&gt;Node3</title>
<path fill="none" stroke="midnightblue" d="M464.943,-123.475C364.858,-110.723 179.572,-87.1163 101.282,-77.1414"/>
<polygon fill="midnightblue" stroke="midnightblue" points="101.327,-73.619 90.9648,-75.827 100.442,-80.5629 101.327,-73.619"/>
</g>
<!-- Node12&#45;&gt;Node4 -->
<g id="edge24" class="edge"><title>Node12&#45;&gt;Node4</title>
<path fill="none" stroke="midnightblue" d="M504.773,-123.475C471.932,-113.136 416.423,-95.6611 379.705,-84.1017"/>
<polygon fill="midnightblue" stroke="midnightblue" points="380.471,-80.6735 369.881,-81.0091 378.369,-87.3505 380.471,-80.6735"/>
</g>
<!-- Node12&#45;&gt;Node5 -->
<g id="edge25" class="edge"><title>Node12&#45;&gt;Node5</title>
<path fill="none" stroke="midnightblue" d="M547.586,-123.236C559.741,-115.481 575.664,-102.929 582.852,-87 591.089,-68.7479 587.161,-45.56 582.561,-29.6246"/>
<polygon fill="midnightblue" stroke="midnightblue" points="585.822,-28.3348 579.41,-19.9008 579.163,-30.4927 585.822,-28.3348"/>
</g>
<!-- Node13 -->
<g id="node13" class="node"><title>Node13</title>
<g id="a_node13"><a xlink:href="MonitorObject_8h.html" target="_top" xlink:title="QualityControl/MonitorObject.h">
<polygon fill="none" stroke="black" points="669.352,-62 669.352,-81 820.352,-81 820.352,-62 669.352,-62"/>
<text text-anchor="middle" x="744.852" y="-69" font-family="Helvetica,sans-Serif" font-size="10.00">QualityControl/MonitorObject.h</text>
</a>
</g>
</g>
<!-- Node12&#45;&gt;Node13 -->
<g id="edge15" class="edge"><title>Node12&#45;&gt;Node13</title>
<path fill="none" stroke="midnightblue" d="M562.37,-123.475C599.777,-113.026 663.279,-95.2868 704.639,-83.7332"/>
<polygon fill="midnightblue" stroke="midnightblue" points="705.702,-87.0705 714.391,-81.0091 703.818,-80.3286 705.702,-87.0705"/>
</g>
<!-- Node17 -->
<g id="node17" class="node"><title>Node17</title>
<g id="a_node17"><a xlink:href="MonitorObjectCollection_8h.html" target="_top" xlink:title="QualityControl/MonitorObject\lCollection.h">
<polygon fill="none" stroke="black" points="431.352,-56.5 431.352,-86.5 574.352,-86.5 574.352,-56.5 431.352,-56.5"/>
<text text-anchor="start" x="439.352" y="-74.5" font-family="Helvetica,sans-Serif" font-size="10.00">QualityControl/MonitorObject</text>
<text text-anchor="middle" x="502.852" y="-63.5" font-family="Helvetica,sans-Serif" font-size="10.00">Collection.h</text>
</a>
</g>
</g>
<!-- Node12&#45;&gt;Node17 -->
<g id="edge21" class="edge"><title>Node12&#45;&gt;Node17</title>
<path fill="none" stroke="midnightblue" d="M527.697,-123.475C524.173,-116.245 518.949,-105.525 514.198,-95.7792"/>
<polygon fill="midnightblue" stroke="midnightblue" points="517.214,-93.9787 509.687,-86.523 510.922,-97.0456 517.214,-93.9787"/>
</g>
<!-- Node13&#45;&gt;Node5 -->
<g id="edge16" class="edge"><title>Node13&#45;&gt;Node5</title>
<path fill="none" stroke="midnightblue" d="M720.639,-61.9751C690.448,-51.346 638.835,-33.1744 606.081,-21.6426"/>
<polygon fill="midnightblue" stroke="midnightblue" points="607.161,-18.3122 596.566,-18.2926 604.836,-24.9149 607.161,-18.3122"/>
</g>
<!-- Node13&#45;&gt;Node8 -->
<g id="edge17" class="edge"><title>Node13&#45;&gt;Node8</title>
<path fill="none" stroke="midnightblue" d="M769.639,-61.9751C801.644,-50.9674 857.17,-31.8704 890.416,-20.4363"/>
<polygon fill="midnightblue" stroke="midnightblue" points="891.649,-23.7134 899.967,-17.1513 889.372,-17.0939 891.649,-23.7134"/>
</g>
<!-- Node14 -->
<g id="node14" class="node"><title>Node14</title>
<polygon fill="none" stroke="#bfbfbf" points="748.852,-0.5 748.852,-19.5 804.852,-19.5 804.852,-0.5 748.852,-0.5"/>
<text text-anchor="middle" x="776.852" y="-7.5" font-family="Helvetica,sans-Serif" font-size="10.00">Rtypes.h</text>
</g>
<!-- Node13&#45;&gt;Node14 -->
<g id="edge18" class="edge"><title>Node13&#45;&gt;Node14</title>
<path fill="none" stroke="midnightblue" d="M749.437,-61.9751C754.095,-53.3152 761.445,-39.6486 767.362,-28.6453"/>
<polygon fill="midnightblue" stroke="midnightblue" points="770.622,-29.974 772.276,-19.5091 764.457,-26.6584 770.622,-29.974"/>
</g>
<!-- Node15 -->
<g id="node15" class="node"><title>Node15</title>
<polygon fill="none" stroke="#bfbfbf" points="823.352,-0.5 823.352,-19.5 882.352,-19.5 882.352,-0.5 823.352,-0.5"/>
<text text-anchor="middle" x="852.852" y="-7.5" font-family="Helvetica,sans-Serif" font-size="10.00">TObject.h</text>
</g>
<!-- Node13&#45;&gt;Node15 -->
<g id="edge19" class="edge"><title>Node13&#45;&gt;Node15</title>
<path fill="none" stroke="midnightblue" d="M760.326,-61.9751C778.13,-52.1664 807.593,-35.9346 828.484,-24.425"/>
<polygon fill="midnightblue" stroke="midnightblue" points="830.337,-27.4001 837.407,-19.5091 826.96,-21.269 830.337,-27.4001"/>
</g>
<!-- Node16 -->
<g id="node16" class="node"><title>Node16</title>
<polygon fill="none" stroke="#bfbfbf" points="614.852,-0.5 614.852,-19.5 730.852,-19.5 730.852,-0.5 614.852,-0.5"/>
<text text-anchor="middle" x="672.852" y="-7.5" font-family="Helvetica,sans-Serif" font-size="10.00">Common/Exceptions.h</text>
</g>
<!-- Node13&#45;&gt;Node16 -->
<g id="edge20" class="edge"><title>Node13&#45;&gt;Node16</title>
<path fill="none" stroke="midnightblue" d="M734.536,-61.9751C723.202,-52.6082 704.779,-37.3839 691.013,-26.0081"/>
<polygon fill="midnightblue" stroke="midnightblue" points="693.087,-23.1813 683.149,-19.5091 688.628,-28.5773 693.087,-23.1813"/>
</g>
<!-- Node18 -->
<g id="node18" class="node"><title>Node18</title>
<polygon fill="none" stroke="#bfbfbf" points="468.352,-0.5 468.352,-19.5 537.352,-19.5 537.352,-0.5 468.352,-0.5"/>
<text text-anchor="middle" x="502.852" y="-7.5" font-family="Helvetica,sans-Serif" font-size="10.00">TObjArray.h</text>
</g>
<!-- Node17&#45;&gt;Node18 -->
<g id="edge22" class="edge"><title>Node17&#45;&gt;Node18</title>
<path fill="none" stroke="midnightblue" d="M502.852,-56.3993C502.852,-48.4664 502.852,-38.458 502.852,-29.8583"/>
<polygon fill="midnightblue" stroke="midnightblue" points="506.352,-29.6577 502.852,-19.6578 499.352,-29.6578 506.352,-29.6577"/>
</g>
<!-- Node19 -->
<g id="node19" class="node"><title>Node19</title>
<polygon fill="none" stroke="#bfbfbf" points="321.852,-0.5 321.852,-19.5 449.852,-19.5 449.852,-0.5 321.852,-0.5"/>
<text text-anchor="middle" x="385.852" y="-7.5" font-family="Helvetica,sans-Serif" font-size="10.00">Mergers/MergeInterface.h</text>
</g>
<!-- Node17&#45;&gt;Node19 -->
<g id="edge23" class="edge"><title>Node17&#45;&gt;Node19</title>
<path fill="none" stroke="midnightblue" d="M475.125,-56.3993C456.02,-46.6837 430.794,-33.8551 412.032,-24.3137"/>
<polygon fill="midnightblue" stroke="midnightblue" points="413.377,-21.071 402.877,-19.6578 410.204,-27.3106 413.377,-21.071"/>
</g>
<!-- Node21 -->
<g id="node21" class="node"><title>Node21</title>
<polygon fill="none" stroke="#bfbfbf" points="488.852,-179.5 488.852,-198.5 618.852,-198.5 618.852,-179.5 488.852,-179.5"/>
<text text-anchor="middle" x="553.852" y="-186.5" font-family="Helvetica,sans-Serif" font-size="10.00">InfoLogger/InfoLogger.hxx</text>
</g>
<!-- Node20&#45;&gt;Node21 -->
<g id="edge29" class="edge"><title>Node20&#45;&gt;Node21</title>
<path fill="none" stroke="midnightblue" d="M557.192,-235.083C556.667,-228.006 555.916,-217.861 555.259,-208.986"/>
<polygon fill="midnightblue" stroke="midnightblue" points="558.73,-208.465 554.5,-198.751 551.749,-208.982 558.73,-208.465"/>
</g>
<!-- Node22 -->
<g id="node22" class="node"><title>Node22</title>
<polygon fill="none" stroke="#bfbfbf" points="636.852,-179.5 636.852,-198.5 798.852,-198.5 798.852,-179.5 636.852,-179.5"/>
<text text-anchor="middle" x="717.852" y="-186.5" font-family="Helvetica,sans-Serif" font-size="10.00">InfoLogger/InfoLoggerMacros.hxx</text>
</g>
<!-- Node20&#45;&gt;Node22 -->
<g id="edge30" class="edge"><title>Node20&#45;&gt;Node22</title>
<path fill="none" stroke="midnightblue" d="M583.205,-235.444C610.122,-226.359 652.849,-211.939 682.939,-201.783"/>
<polygon fill="midnightblue" stroke="midnightblue" points="684.263,-205.031 692.618,-198.516 682.024,-198.398 684.263,-205.031"/>
</g>
</g>
</svg>
        <g id="navigator" transform="translate(0 0)" fill="#404254">
                <rect fill="#f2f5e9" fill-opacity="0.5" stroke="#606060" stroke-width=".5" x="0" y="0" width="60" height="60"/>
                <use id="zoomplus" xlink:href="#zoomPlus" x="17" y="9" onmousedown="handleZoom(evt,'in')"/>
                <use id="zoomminus" xlink:href="#zoomMin" x="42" y="9" onmousedown="handleZoom(evt,'out')"/>
                <use id="reset" xlink:href="#resetDef" x="30" y="36" onmousedown="handleReset()"/>
                <g id="arrowUp" xlink:href="#dirArrow" transform="translate(30 24)" onmousedown="handlePan(0,-1)">
                  <use xlink:href="#rim" fill="#404040">
                        <set attributeName="fill" to="#808080" begin="arrowUp.mouseover" end="arrowUp.mouseout"/>
                  </use>
                  <path fill="none" stroke="white" stroke-width="1.5" d="M0,-3.0v7 M-2.5,-0.5L0,-3.0L2.5,-0.5"/>
                </g>
                <g id="arrowRight" xlink:href="#dirArrow" transform="rotate(90) translate(36 -43)" onmousedown="handlePan(1,0)">
                  <use xlink:href="#rim" fill="#404040">
                        <set attributeName="fill" to="#808080" begin="arrowRight.mouseover" end="arrowRight.mouseout"/>
                  </use>
                  <path fill="none" stroke="white" stroke-width="1.5" d="M0,-3.0v7 M-2.5,-0.5L0,-3.0L2.5,-0.5"/>
                </g>
                <g id="arrowDown" xlink:href="#dirArrow" transform="rotate(180) translate(-30 -48)" onmousedown="handlePan(0,1)">
                  <use xlink:href="#rim" fill="#404040">
                        <set attributeName="fill" to="#808080" begin="arrowDown.mouseover" end="arrowDown.mouseout"/>
                  </use>
                  <path fill="none" stroke="white" stroke-width="1.5" d="M0,-3.0v7 M-2.5,-0.5L0,-3.0L2.5,-0.5"/>
                </g>
                <g id="arrowLeft" xlink:href="#dirArrow" transform="rotate(270) translate(-36 17)" onmousedown="handlePan(-1,0)">
                  <use xlink:href="#rim" fill="#404040">
                        <set attributeName="fill" to="#808080" begin="arrowLeft.mouseover" end="arrowLeft.mouseout"/>
                  </use>
                  <path fill="none" stroke="white" stroke-width="1.5" d="M0,-3.0v7 M-2.5,-0.5L0,-3.0L2.5,-0.5"/>
                </g>
        </g>
        <svg viewBox="0 0 15 15" width="100%" height="30px" preserveAspectRatio="xMaxYMin meet">
         <g id="arrow_out" transform="scale(0.3 0.3)">
          <a xlink:href="testTaskInterface_8cxx__incl_org.svg" target="_base">
           <rect id="button" ry="5" rx="5" y="6" x="6" height="38" width="38"
                fill="#f2f5e9" fill-opacity="0.5" stroke="#606060" stroke-width="1.0"/>
           <path id="arrow"
             d="M 11.500037,31.436501 C 11.940474,20.09759 22.043105,11.32322 32.158766,21.979434 L 37.068811,17.246167 C 37.068811,17.246167 37.088388,32 37.088388,32 L 22.160133,31.978069 C 22.160133,31.978069 26.997745,27.140456 26.997745,27.140456 C 18.528582,18.264221 13.291696,25.230495 11.500037,31.436501 z"
             style="fill:#404040;"/>
          </a>
         </g>
        </svg>
</svg>
