<?xml version="1.0" encoding="UTF-8" standalone="no"?>
<!DOCTYPE svg PUBLIC "-//W3C//DTD SVG 1.1//EN"
 "http://www.w3.org/Graphics/SVG/1.1/DTD/svg11.dtd">
<!-- Generated by graphviz version 2.38.0 (20140413.2041)
 -->
<!-- Title: Framework/test/testTrendingTask.cxx Pages: 1 -->
<svg width="1509pt" height="363pt"
 viewBox="0.00 0.00 1509.21 363.00" xmlns="http://www.w3.org/2000/svg" xmlns:xlink="http://www.w3.org/1999/xlink">
<g id="graph0" class="graph" transform="scale(1 1) rotate(0) translate(4 359)">
<title>Framework/test/testTrendingTask.cxx</title>
<!-- Node1 -->
<g id="node1" class="node"><title>Node1</title>
<polygon fill="#bfbfbf" stroke="black" points="795.5,-324.5 795.5,-354.5 937.5,-354.5 937.5,-324.5 795.5,-324.5"/>
<text text-anchor="start" x="803.5" y="-342.5" font-family="Helvetica,sans-Serif" font-size="10.00">Framework/test/testTrending</text>
<text text-anchor="middle" x="866.5" y="-331.5" font-family="Helvetica,sans-Serif" font-size="10.00">Task.cxx</text>
</g>
<!-- Node2 -->
<g id="node2" class="node"><title>Node2</title>
<polygon fill="none" stroke="#bfbfbf" points="0,-263 0,-282 119,-282 119,-263 0,-263"/>
<text text-anchor="middle" x="59.5" y="-270" font-family="Helvetica,sans-Serif" font-size="10.00">getTestDataDirectory.h</text>
</g>
<!-- Node1&#45;&gt;Node2 -->
<g id="edge1" class="edge"><title>Node1&#45;&gt;Node2</title>
<path fill="none" stroke="midnightblue" d="M795.447,-336.548C664.188,-332.29 375.045,-319.859 133.5,-288 125.288,-286.917 116.614,-285.483 108.209,-283.939"/>
<polygon fill="midnightblue" stroke="midnightblue" points="108.619,-280.454 98.1397,-282.016 107.306,-287.329 108.619,-280.454"/>
</g>
<!-- Node3 -->
<g id="node3" class="node"><title>Node3</title>
<g id="a_node3"><a xlink:href="TrendingTask_8h.html" target="_top" xlink:title="QualityControl/TrendingTask.h">
<polygon fill="none" stroke="black" points="554,-201.5 554,-220.5 703,-220.5 703,-201.5 554,-201.5"/>
<text text-anchor="middle" x="628.5" y="-208.5" font-family="Helvetica,sans-Serif" font-size="10.00">QualityControl/TrendingTask.h</text>
</a>
</g>
</g>
<!-- Node1&#45;&gt;Node3 -->
<g id="edge2" class="edge"><title>Node1&#45;&gt;Node3</title>
<path fill="none" stroke="midnightblue" d="M807.642,-324.411C779.02,-316.156 744.781,-304.138 716.5,-288 687.872,-271.664 659.964,-245.249 643.503,-228.258"/>
<polygon fill="midnightblue" stroke="midnightblue" points="645.811,-225.605 636.389,-220.759 640.732,-230.423 645.811,-225.605"/>
</g>
<!-- Node6 -->
<g id="node6" class="node"><title>Node6</title>
<polygon fill="none" stroke="#bfbfbf" points="657.5,-73 657.5,-92 803.5,-92 803.5,-73 657.5,-73"/>
<text text-anchor="middle" x="730.5" y="-80" font-family="Helvetica,sans-Serif" font-size="10.00">Framework/ServiceRegistry.h</text>
</g>
<!-- Node1&#45;&gt;Node6 -->
<g id="edge47" class="edge"><title>Node1&#45;&gt;Node6</title>
<path fill="none" stroke="midnightblue" d="M824.438,-324.498C806.512,-316.492 786.91,-304.656 774.5,-288 732.026,-230.995 728.781,-141.599 729.606,-102.678"/>
<polygon fill="midnightblue" stroke="midnightblue" points="733.117,-102.423 729.954,-92.3108 726.121,-102.188 733.117,-102.423"/>
</g>
<!-- Node8 -->
<g id="node8" class="node"><title>Node8</title>
<g id="a_node8"><a xlink:href="Triggers_8h.html" target="_top" xlink:title="QualityControl/Triggers.h">
<polygon fill="none" stroke="black" points="158,-73 158,-92 283,-92 283,-73 158,-73"/>
<text text-anchor="middle" x="220.5" y="-80" font-family="Helvetica,sans-Serif" font-size="10.00">QualityControl/Triggers.h</text>
</a>
</g>
</g>
<!-- Node1&#45;&gt;Node8 -->
<g id="edge46" class="edge"><title>Node1&#45;&gt;Node8</title>
<path fill="none" stroke="midnightblue" d="M795.4,-331.766C633.275,-314.791 244.231,-264.349 166.5,-165 149.049,-142.695 177.285,-114.845 199.067,-98.1521"/>
<polygon fill="midnightblue" stroke="midnightblue" points="201.281,-100.868 207.278,-92.1336 197.143,-95.2225 201.281,-100.868"/>
</g>
<!-- Node19 -->
<g id="node19" class="node"><title>Node19</title>
<g id="a_node19"><a xlink:href="DatabaseFactory_8h.html" target="_top" xlink:title="QualityControl/DatabaseFactory.h">
<polygon fill="none" stroke="black" points="784,-263 784,-282 949,-282 949,-263 784,-263"/>
<text text-anchor="middle" x="866.5" y="-270" font-family="Helvetica,sans-Serif" font-size="10.00">QualityControl/DatabaseFactory.h</text>
</a>
</g>
</g>
<!-- Node1&#45;&gt;Node19 -->
<g id="edge23" class="edge"><title>Node1&#45;&gt;Node19</title>
<path fill="none" stroke="midnightblue" d="M866.5,-324.396C866.5,-315.064 866.5,-302.714 866.5,-292.517"/>
<polygon fill="midnightblue" stroke="midnightblue" points="870,-292.195 866.5,-282.195 863,-292.195 870,-292.195"/>
</g>
<!-- Node26 -->
<g id="node26" class="node"><title>Node26</title>
<g id="a_node26"><a xlink:href="MonitorObject_8h.html" target="_top" xlink:title="QualityControl/MonitorObject.h">
<polygon fill="none" stroke="black" points="1282,-140 1282,-159 1433,-159 1433,-140 1282,-140"/>
<text text-anchor="middle" x="1357.5" y="-147" font-family="Helvetica,sans-Serif" font-size="10.00">QualityControl/MonitorObject.h</text>
</a>
</g>
</g>
<!-- Node1&#45;&gt;Node26 -->
<g id="edge45" class="edge"><title>Node1&#45;&gt;Node26</title>
<path fill="none" stroke="midnightblue" d="M895.44,-324.365C930.702,-307.384 992.29,-278.498 1046.5,-257 1143.79,-218.417 1261.29,-180.459 1320.12,-162.031"/>
<polygon fill="midnightblue" stroke="midnightblue" points="1321.22,-165.354 1329.72,-159.032 1319.13,-158.672 1321.22,-165.354"/>
</g>
<!-- Node27 -->
<g id="node27" class="node"><title>Node27</title>
<polygon fill="none" stroke="#bfbfbf" points="1056,-257.5 1056,-287.5 1191,-287.5 1191,-257.5 1056,-257.5"/>
<text text-anchor="start" x="1064" y="-275.5" font-family="Helvetica,sans-Serif" font-size="10.00">Configuration/Configuration</text>
<text text-anchor="middle" x="1123.5" y="-264.5" font-family="Helvetica,sans-Serif" font-size="10.00">Factory.h</text>
</g>
<!-- Node1&#45;&gt;Node27 -->
<g id="edge48" class="edge"><title>Node1&#45;&gt;Node27</title>
<path fill="none" stroke="midnightblue" d="M921.949,-324.476C961.839,-314.387 1015.79,-300.741 1057.84,-290.107"/>
<polygon fill="midnightblue" stroke="midnightblue" points="1058.87,-293.456 1067.71,-287.611 1057.15,-286.67 1058.87,-293.456"/>
</g>
<!-- Node28 -->
<g id="node28" class="node"><title>Node28</title>
<polygon fill="none" stroke="#bfbfbf" points="1209,-263 1209,-282 1256,-282 1256,-263 1209,-263"/>
<text text-anchor="middle" x="1232.5" y="-270" font-family="Helvetica,sans-Serif" font-size="10.00">TH1I.h</text>
</g>
<!-- Node1&#45;&gt;Node28 -->
<g id="edge49" class="edge"><title>Node1&#45;&gt;Node28</title>
<path fill="none" stroke="midnightblue" d="M937.5,-333.186C1005.72,-326.812 1111.19,-313.61 1199.5,-288 1201.65,-287.377 1203.84,-286.645 1206.02,-285.847"/>
<polygon fill="midnightblue" stroke="midnightblue" points="1207.4,-289.063 1215.35,-282.056 1204.77,-282.578 1207.4,-289.063"/>
</g>
<!-- Node29 -->
<g id="node29" class="node"><title>Node29</title>
<polygon fill="none" stroke="#bfbfbf" points="1274,-263 1274,-282 1393,-282 1393,-263 1274,-263"/>
<text text-anchor="middle" x="1333.5" y="-270" font-family="Helvetica,sans-Serif" font-size="10.00">boost/test/unit_test.hpp</text>
</g>
<!-- Node1&#45;&gt;Node29 -->
<g id="edge50" class="edge"><title>Node1&#45;&gt;Node29</title>
<path fill="none" stroke="midnightblue" d="M937.57,-331.237C1017.39,-322.674 1150.65,-307.153 1264.5,-288 1271.31,-286.854 1278.48,-285.508 1285.5,-284.107"/>
<polygon fill="midnightblue" stroke="midnightblue" points="1286.55,-287.466 1295.64,-282.031 1285.14,-280.608 1286.55,-287.466"/>
</g>
<!-- Node4 -->
<g id="node4" class="node"><title>Node4</title>
<g id="a_node4"><a xlink:href="PostProcessingInterface_8h.html" target="_top" xlink:title="QualityControl/PostProcessing\lInterface.h">
<polygon fill="none" stroke="black" points="176,-134.5 176,-164.5 327,-164.5 327,-134.5 176,-134.5"/>
<text text-anchor="start" x="184" y="-152.5" font-family="Helvetica,sans-Serif" font-size="10.00">QualityControl/PostProcessing</text>
<text text-anchor="middle" x="251.5" y="-141.5" font-family="Helvetica,sans-Serif" font-size="10.00">Interface.h</text>
</a>
</g>
</g>
<!-- Node3&#45;&gt;Node4 -->
<g id="edge3" class="edge"><title>Node3&#45;&gt;Node4</title>
<path fill="none" stroke="midnightblue" d="M570.908,-201.477C513.982,-192.98 424.125,-179.373 337.093,-165.244"/>
<polygon fill="midnightblue" stroke="midnightblue" points="337.478,-161.761 327.045,-163.609 336.353,-168.67 337.478,-161.761"/>
</g>
<!-- Node11 -->
<g id="node11" class="node"><title>Node11</title>
<g id="a_node11"><a xlink:href="TrendingTaskConfig_8h.html" target="_top" xlink:title="QualityControl/TrendingTask\lConfig.h">
<polygon fill="none" stroke="black" points="345,-134.5 345,-164.5 486,-164.5 486,-134.5 345,-134.5"/>
<text text-anchor="start" x="353" y="-152.5" font-family="Helvetica,sans-Serif" font-size="10.00">QualityControl/TrendingTask</text>
<text text-anchor="middle" x="415.5" y="-141.5" font-family="Helvetica,sans-Serif" font-size="10.00">Config.h</text>
</a>
</g>
</g>
<!-- Node3&#45;&gt;Node11 -->
<g id="edge11" class="edge"><title>Node3&#45;&gt;Node11</title>
<path fill="none" stroke="midnightblue" d="M597.982,-201.475C566.101,-192.569 515.266,-178.369 475.337,-167.215"/>
<polygon fill="midnightblue" stroke="midnightblue" points="476.273,-163.843 465.7,-164.523 474.389,-170.584 476.273,-163.843"/>
</g>
<!-- Node14 -->
<g id="node14" class="node"><title>Node14</title>
<g id="a_node14"><a xlink:href="Reductor_8h.html" target="_top" xlink:title="QualityControl/Reductor.h">
<polygon fill="none" stroke="black" points="572.5,-140 572.5,-159 702.5,-159 702.5,-140 572.5,-140"/>
<text text-anchor="middle" x="637.5" y="-147" font-family="Helvetica,sans-Serif" font-size="10.00">QualityControl/Reductor.h</text>
</a>
</g>
</g>
<!-- Node3&#45;&gt;Node14 -->
<g id="edge18" class="edge"><title>Node3&#45;&gt;Node14</title>
<path fill="none" stroke="midnightblue" d="M629.789,-201.475C631.059,-193.08 633.041,-179.981 634.677,-169.163"/>
<polygon fill="midnightblue" stroke="midnightblue" points="638.178,-169.42 636.213,-159.009 631.257,-168.373 638.178,-169.42"/>
</g>
<!-- Node16 -->
<g id="node16" class="node"><title>Node16</title>
<polygon fill="none" stroke="#bfbfbf" points="860.5,-140 860.5,-159 912.5,-159 912.5,-140 860.5,-140"/>
<text text-anchor="middle" x="886.5" y="-147" font-family="Helvetica,sans-Serif" font-size="10.00">memory</text>
</g>
<!-- Node3&#45;&gt;Node16 -->
<g id="edge20" class="edge"><title>Node3&#45;&gt;Node16</title>
<path fill="none" stroke="midnightblue" d="M685.315,-201.43C730.591,-193.898 795.318,-181.554 850.5,-165 852.787,-164.314 855.131,-163.54 857.472,-162.715"/>
<polygon fill="midnightblue" stroke="midnightblue" points="858.811,-165.951 866.926,-159.139 856.334,-159.404 858.811,-165.951"/>
</g>
<!-- Node17 -->
<g id="node17" class="node"><title>Node17</title>
<polygon fill="none" stroke="#bfbfbf" points="759,-140 759,-159 842,-159 842,-140 759,-140"/>
<text text-anchor="middle" x="800.5" y="-147" font-family="Helvetica,sans-Serif" font-size="10.00">unordered_map</text>
</g>
<!-- Node3&#45;&gt;Node17 -->
<g id="edge21" class="edge"><title>Node3&#45;&gt;Node17</title>
<path fill="none" stroke="midnightblue" d="M653.143,-201.475C682.775,-191.225 732.685,-173.959 766.102,-162.399"/>
<polygon fill="midnightblue" stroke="midnightblue" points="767.596,-165.586 775.902,-159.009 765.308,-158.971 767.596,-165.586"/>
</g>
<!-- Node18 -->
<g id="node18" class="node"><title>Node18</title>
<polygon fill="none" stroke="#bfbfbf" points="504.5,-140 504.5,-159 554.5,-159 554.5,-140 504.5,-140"/>
<text text-anchor="middle" x="529.5" y="-147" font-family="Helvetica,sans-Serif" font-size="10.00">TTree.h</text>
</g>
<!-- Node3&#45;&gt;Node18 -->
<g id="edge22" class="edge"><title>Node3&#45;&gt;Node18</title>
<path fill="none" stroke="midnightblue" d="M614.316,-201.475C598.142,-191.755 571.474,-175.727 552.357,-164.237"/>
<polygon fill="midnightblue" stroke="midnightblue" points="554.032,-161.161 543.658,-159.009 550.426,-167.16 554.032,-161.161"/>
</g>
<!-- Node5 -->
<g id="node5" class="node"><title>Node5</title>
<polygon fill="none" stroke="#bfbfbf" points="587,-6 587,-25 628,-25 628,-6 587,-6"/>
<text text-anchor="middle" x="607.5" y="-13" font-family="Helvetica,sans-Serif" font-size="10.00">string</text>
</g>
<!-- Node4&#45;&gt;Node5 -->
<g id="edge4" class="edge"><title>Node4&#45;&gt;Node5</title>
<path fill="none" stroke="midnightblue" d="M327.182,-135.189C394.332,-123.036 484.125,-105.812 499.5,-98 517.731,-88.7373 517.459,-79.6836 533.5,-67 550.171,-53.8181 570.127,-40.3209 585.113,-30.6004"/>
<polygon fill="midnightblue" stroke="midnightblue" points="587.201,-33.419 593.727,-25.0727 583.421,-27.5277 587.201,-33.419"/>
</g>
<!-- Node4&#45;&gt;Node6 -->
<g id="edge5" class="edge"><title>Node4&#45;&gt;Node6</title>
<path fill="none" stroke="midnightblue" d="M327.031,-135.301C329.889,-134.853 332.719,-134.418 335.5,-134 442.861,-117.879 567.137,-102.534 647.18,-93.0783"/>
<polygon fill="midnightblue" stroke="midnightblue" points="647.681,-96.5436 657.203,-91.8979 646.862,-89.5917 647.681,-96.5436"/>
</g>
<!-- Node7 -->
<g id="node7" class="node"><title>Node7</title>
<polygon fill="none" stroke="#bfbfbf" points="334,-0.5 334,-30.5 435,-30.5 435,-0.5 334,-0.5"/>
<text text-anchor="start" x="342" y="-18.5" font-family="Helvetica,sans-Serif" font-size="10.00">boost/property_tree</text>
<text text-anchor="middle" x="384.5" y="-7.5" font-family="Helvetica,sans-Serif" font-size="10.00">/ptree_fwd.hpp</text>
</g>
<!-- Node4&#45;&gt;Node7 -->
<g id="edge6" class="edge"><title>Node4&#45;&gt;Node7</title>
<path fill="none" stroke="midnightblue" d="M264.715,-134.453C280.24,-118.048 306.882,-90.1986 330.5,-67 340.373,-57.3026 351.507,-46.8165 361.09,-37.9259"/>
<polygon fill="midnightblue" stroke="midnightblue" points="363.741,-40.2415 368.712,-30.8854 358.991,-35.0993 363.741,-40.2415"/>
</g>
<!-- Node4&#45;&gt;Node8 -->
<g id="edge7" class="edge"><title>Node4&#45;&gt;Node8</title>
<path fill="none" stroke="midnightblue" d="M244.773,-134.396C240.179,-124.763 234.052,-111.914 229.102,-101.537"/>
<polygon fill="midnightblue" stroke="midnightblue" points="232.111,-99.7139 224.647,-92.1945 225.792,-102.727 232.111,-99.7139"/>
</g>
<!-- Node8&#45;&gt;Node5 -->
<g id="edge8" class="edge"><title>Node8&#45;&gt;Node5</title>
<path fill="none" stroke="midnightblue" d="M283.254,-73.1345C381.917,-59.909 563.595,-35.2308 577.5,-31 579.174,-30.4906 580.871,-29.8991 582.563,-29.2521"/>
<polygon fill="midnightblue" stroke="midnightblue" points="584.234,-32.3413 591.99,-25.1232 581.426,-25.9294 584.234,-32.3413"/>
</g>
<!-- Node9 -->
<g id="node9" class="node"><title>Node9</title>
<polygon fill="none" stroke="#bfbfbf" points="226,-6 226,-25 285,-25 285,-6 226,-6"/>
<text text-anchor="middle" x="255.5" y="-13" font-family="Helvetica,sans-Serif" font-size="10.00">functional</text>
</g>
<!-- Node8&#45;&gt;Node9 -->
<g id="edge9" class="edge"><title>Node8&#45;&gt;Node9</title>
<path fill="none" stroke="midnightblue" d="M225.22,-72.7338C230.521,-62.8903 239.26,-46.6598 245.991,-34.1594"/>
<polygon fill="midnightblue" stroke="midnightblue" points="249.195,-35.5914 250.855,-25.1273 243.032,-32.2727 249.195,-35.5914"/>
</g>
<!-- Node10 -->
<g id="node10" class="node"><title>Node10</title>
<polygon fill="none" stroke="#bfbfbf" points="163,-6 163,-25 208,-25 208,-6 163,-6"/>
<text text-anchor="middle" x="185.5" y="-13" font-family="Helvetica,sans-Serif" font-size="10.00">iosfwd</text>
</g>
<!-- Node8&#45;&gt;Node10 -->
<g id="edge10" class="edge"><title>Node8&#45;&gt;Node10</title>
<path fill="none" stroke="midnightblue" d="M215.78,-72.7338C210.479,-62.8903 201.74,-46.6598 195.009,-34.1594"/>
<polygon fill="midnightblue" stroke="midnightblue" points="197.968,-32.2727 190.145,-25.1273 191.805,-35.5914 197.968,-32.2727"/>
</g>
<!-- Node11&#45;&gt;Node5 -->
<g id="edge13" class="edge"><title>Node11&#45;&gt;Node5</title>
<path fill="none" stroke="midnightblue" d="M454.698,-134.436C476.542,-125.657 503.657,-113.149 525.5,-98 552.714,-79.1265 578.912,-50.7254 594.098,-32.9187"/>
<polygon fill="midnightblue" stroke="midnightblue" points="596.893,-35.0324 600.625,-25.1165 591.524,-30.541 596.893,-35.0324"/>
</g>
<!-- Node12 -->
<g id="node12" class="node"><title>Node12</title>
<polygon fill="none" stroke="#bfbfbf" points="524.5,-6 524.5,-25 568.5,-25 568.5,-6 524.5,-6"/>
<text text-anchor="middle" x="546.5" y="-13" font-family="Helvetica,sans-Serif" font-size="10.00">vector</text>
</g>
<!-- Node11&#45;&gt;Node12 -->
<g id="edge12" class="edge"><title>Node11&#45;&gt;Node12</title>
<path fill="none" stroke="midnightblue" d="M446.863,-134.493C463.895,-125.77 484.478,-113.298 499.5,-98 517.782,-79.3825 531.549,-52.264 539.317,-34.5039"/>
<polygon fill="midnightblue" stroke="midnightblue" points="542.646,-35.615 543.276,-25.0389 536.188,-32.9138 542.646,-35.615"/>
</g>
<!-- Node13 -->
<g id="node13" class="node"><title>Node13</title>
<g id="a_node13"><a xlink:href="PostProcessingConfig_8h.html" target="_top" xlink:title="QualityControl/PostProcessing\lConfig.h">
<polygon fill="none" stroke="black" points="340,-67.5 340,-97.5 491,-97.5 491,-67.5 340,-67.5"/>
<text text-anchor="start" x="348" y="-85.5" font-family="Helvetica,sans-Serif" font-size="10.00">QualityControl/PostProcessing</text>
<text text-anchor="middle" x="415.5" y="-74.5" font-family="Helvetica,sans-Serif" font-size="10.00">Config.h</text>
</a>
</g>
</g>
<!-- Node11&#45;&gt;Node13 -->
<g id="edge14" class="edge"><title>Node11&#45;&gt;Node13</title>
<path fill="none" stroke="midnightblue" d="M415.5,-134.396C415.5,-126.645 415.5,-116.812 415.5,-107.86"/>
<polygon fill="midnightblue" stroke="midnightblue" points="419,-107.576 415.5,-97.5765 412,-107.577 419,-107.576"/>
</g>
<!-- Node13&#45;&gt;Node5 -->
<g id="edge16" class="edge"><title>Node13&#45;&gt;Node5</title>
<path fill="none" stroke="midnightblue" d="M467.248,-67.4891C499.392,-58.2667 541.333,-45.2868 577.5,-31 578.879,-30.4554 580.282,-29.8745 581.691,-29.2701"/>
<polygon fill="midnightblue" stroke="midnightblue" points="583.235,-32.413 590.877,-25.0747 580.326,-26.0457 583.235,-32.413"/>
</g>
<!-- Node13&#45;&gt;Node7 -->
<g id="edge17" class="edge"><title>Node13&#45;&gt;Node7</title>
<path fill="none" stroke="midnightblue" d="M408.773,-67.396C404.914,-59.3041 399.973,-48.9437 395.557,-39.685"/>
<polygon fill="midnightblue" stroke="midnightblue" points="398.677,-38.0959 391.213,-30.5765 392.359,-41.1092 398.677,-38.0959"/>
</g>
<!-- Node13&#45;&gt;Node12 -->
<g id="edge15" class="edge"><title>Node13&#45;&gt;Node12</title>
<path fill="none" stroke="midnightblue" d="M443.925,-67.396C466.605,-56.1424 498.129,-40.501 520.224,-29.5375"/>
<polygon fill="midnightblue" stroke="midnightblue" points="521.953,-32.5871 529.355,-25.007 518.842,-26.3165 521.953,-32.5871"/>
</g>
<!-- Node15 -->
<g id="node15" class="node"><title>Node15</title>
<polygon fill="none" stroke="#bfbfbf" points="1083,-73 1083,-92 1142,-92 1142,-73 1083,-73"/>
<text text-anchor="middle" x="1112.5" y="-80" font-family="Helvetica,sans-Serif" font-size="10.00">TObject.h</text>
</g>
<!-- Node14&#45;&gt;Node15 -->
<g id="edge19" class="edge"><title>Node14&#45;&gt;Node15</title>
<path fill="none" stroke="midnightblue" d="M700.086,-139.936C799.379,-126.348 990.198,-100.236 1072.79,-88.9345"/>
<polygon fill="midnightblue" stroke="midnightblue" points="1073.34,-92.3914 1082.77,-87.5679 1072.39,-85.4561 1073.34,-92.3914"/>
</g>
<!-- Node19&#45;&gt;Node16 -->
<g id="edge24" class="edge"><title>Node19&#45;&gt;Node16</title>
<path fill="none" stroke="midnightblue" d="M860.545,-262.715C852.208,-249.276 838.889,-222.868 846.5,-201 851.107,-187.765 860.786,-175.388 869.469,-166.2"/>
<polygon fill="midnightblue" stroke="midnightblue" points="872.077,-168.542 876.69,-159.005 867.136,-163.583 872.077,-168.542"/>
</g>
<!-- Node20 -->
<g id="node20" class="node"><title>Node20</title>
<g id="a_node20"><a xlink:href="DatabaseInterface_8h.html" target="_top" xlink:title="QualityControl/DatabaseInterface.h">
<polygon fill="none" stroke="black" points="855.5,-201.5 855.5,-220.5 1025.5,-220.5 1025.5,-201.5 855.5,-201.5"/>
<text text-anchor="middle" x="940.5" y="-208.5" font-family="Helvetica,sans-Serif" font-size="10.00">QualityControl/DatabaseInterface.h</text>
</a>
</g>
</g>
<!-- Node19&#45;&gt;Node20 -->
<g id="edge25" class="edge"><title>Node19&#45;&gt;Node20</title>
<path fill="none" stroke="midnightblue" d="M877.102,-262.975C888.752,-253.608 907.686,-238.384 921.835,-227.008"/>
<polygon fill="midnightblue" stroke="midnightblue" points="924.317,-229.503 929.917,-220.509 919.931,-224.048 924.317,-229.503"/>
</g>
<!-- Node20&#45;&gt;Node5 -->
<g id="edge26" class="edge"><title>Node20&#45;&gt;Node5</title>
<path fill="none" stroke="midnightblue" d="M956.283,-201.467C968.703,-193.769 985.105,-181.179 992.5,-165 1010.61,-125.386 1021.23,-99.74 992.5,-67 969.159,-40.3977 725.06,-23.4587 638.075,-18.2294"/>
<polygon fill="midnightblue" stroke="midnightblue" points="638.227,-14.7323 628.038,-17.6363 637.814,-21.7202 638.227,-14.7323"/>
</g>
<!-- Node20&#45;&gt;Node6 -->
<g id="edge30" class="edge"><title>Node20&#45;&gt;Node6</title>
<path fill="none" stroke="midnightblue" d="M940.976,-201.366C941.341,-185.696 939.744,-152.492 921.5,-134 893.417,-105.535 851.301,-92.5226 813.757,-86.7921"/>
<polygon fill="midnightblue" stroke="midnightblue" points="814.198,-83.32 803.815,-85.4245 813.244,-90.2547 814.198,-83.32"/>
</g>
<!-- Node20&#45;&gt;Node12 -->
<g id="edge28" class="edge"><title>Node20&#45;&gt;Node12</title>
<path fill="none" stroke="midnightblue" d="M943.765,-201.244C948.764,-186.237 956.455,-155.177 943.5,-134 909.374,-78.2153 874.73,-87.098 812.5,-67 711.951,-34.5264 678.606,-61.6961 577.5,-31 575.624,-30.4304 573.716,-29.7667 571.817,-29.0426"/>
<polygon fill="midnightblue" stroke="midnightblue" points="573.135,-25.7999 562.565,-25.0753 570.376,-32.2333 573.135,-25.7999"/>
</g>
<!-- Node20&#45;&gt;Node16 -->
<g id="edge27" class="edge"><title>Node20&#45;&gt;Node16</title>
<path fill="none" stroke="midnightblue" d="M932.763,-201.475C924.503,-192.373 911.223,-177.741 901.006,-166.483"/>
<polygon fill="midnightblue" stroke="midnightblue" points="903.535,-164.062 894.223,-159.009 898.351,-168.766 903.535,-164.062"/>
</g>
<!-- Node20&#45;&gt;Node17 -->
<g id="edge29" class="edge"><title>Node20&#45;&gt;Node17</title>
<path fill="none" stroke="midnightblue" d="M920.441,-201.475C896.738,-191.401 857.094,-174.553 829.917,-163.002"/>
<polygon fill="midnightblue" stroke="midnightblue" points="831.094,-159.699 820.521,-159.009 828.356,-166.142 831.094,-159.699"/>
</g>
<!-- Node21 -->
<g id="node21" class="node"><title>Node21</title>
<g id="a_node21"><a xlink:href="QualityObject_8h_source.html" target="_top" xlink:title="QualityControl/QualityObject.h">
<polygon fill="none" stroke="black" points="1044,-140 1044,-159 1193,-159 1193,-140 1044,-140"/>
<text text-anchor="middle" x="1118.5" y="-147" font-family="Helvetica,sans-Serif" font-size="10.00">QualityControl/QualityObject.h</text>
</a>
</g>
</g>
<!-- Node20&#45;&gt;Node21 -->
<g id="edge31" class="edge"><title>Node20&#45;&gt;Node21</title>
<path fill="none" stroke="midnightblue" d="M966.003,-201.475C996.801,-191.18 1048.77,-173.81 1083.35,-162.25"/>
<polygon fill="midnightblue" stroke="midnightblue" points="1084.67,-165.499 1093.04,-159.009 1082.45,-158.86 1084.67,-165.499"/>
</g>
<!-- Node20&#45;&gt;Node26 -->
<g id="edge39" class="edge"><title>Node20&#45;&gt;Node26</title>
<path fill="none" stroke="midnightblue" d="M1000.25,-201.475C1076.27,-190.628 1207.34,-171.926 1287.82,-160.442"/>
<polygon fill="midnightblue" stroke="midnightblue" points="1288.46,-163.887 1297.86,-159.009 1287.47,-156.957 1288.46,-163.887"/>
</g>
<!-- Node21&#45;&gt;Node15 -->
<g id="edge33" class="edge"><title>Node21&#45;&gt;Node15</title>
<path fill="none" stroke="midnightblue" d="M1117.69,-139.734C1116.81,-130.183 1115.37,-114.618 1114.23,-102.283"/>
<polygon fill="midnightblue" stroke="midnightblue" points="1117.7,-101.763 1113.3,-92.1273 1110.73,-102.407 1117.7,-101.763"/>
</g>
<!-- Node22 -->
<g id="node22" class="node"><title>Node22</title>
<polygon fill="none" stroke="#bfbfbf" points="1203,-6 1203,-25 1238,-25 1238,-6 1203,-6"/>
<text text-anchor="middle" x="1220.5" y="-13" font-family="Helvetica,sans-Serif" font-size="10.00">map</text>
</g>
<!-- Node21&#45;&gt;Node22 -->
<g id="edge32" class="edge"><title>Node21&#45;&gt;Node22</title>
<path fill="none" stroke="midnightblue" d="M1107.22,-139.784C1088.74,-124.437 1055.75,-91.8632 1073.5,-67 1100.59,-29.0478 1158.09,-19.322 1192.6,-17.0089"/>
<polygon fill="midnightblue" stroke="midnightblue" points="1193.11,-20.4875 1202.93,-16.492 1192.76,-13.4963 1193.11,-20.4875"/>
</g>
<!-- Node23 -->
<g id="node23" class="node"><title>Node23</title>
<polygon fill="none" stroke="#bfbfbf" points="1299.5,-73 1299.5,-92 1415.5,-92 1415.5,-73 1299.5,-73"/>
<text text-anchor="middle" x="1357.5" y="-80" font-family="Helvetica,sans-Serif" font-size="10.00">Common/Exceptions.h</text>
</g>
<!-- Node21&#45;&gt;Node23 -->
<g id="edge34" class="edge"><title>Node21&#45;&gt;Node23</title>
<path fill="none" stroke="midnightblue" d="M1150.24,-139.869C1192.94,-128.254 1268.98,-107.576 1316.12,-94.7528"/>
<polygon fill="midnightblue" stroke="midnightblue" points="1317.28,-98.0654 1326.01,-92.0637 1315.44,-91.3108 1317.28,-98.0654"/>
</g>
<!-- Node24 -->
<g id="node24" class="node"><title>Node24</title>
<g id="a_node24"><a xlink:href="Quality_8h.html" target="_top" xlink:title="QualityControl/Quality.h">
<polygon fill="none" stroke="black" points="1160,-73 1160,-92 1281,-92 1281,-73 1160,-73"/>
<text text-anchor="middle" x="1220.5" y="-80" font-family="Helvetica,sans-Serif" font-size="10.00">QualityControl/Quality.h</text>
</a>
</g>
</g>
<!-- Node21&#45;&gt;Node24 -->
<g id="edge35" class="edge"><title>Node21&#45;&gt;Node24</title>
<path fill="none" stroke="midnightblue" d="M1132.26,-139.734C1149.23,-128.916 1178.31,-110.383 1198.43,-97.5659"/>
<polygon fill="midnightblue" stroke="midnightblue" points="1200.41,-100.453 1206.96,-92.1273 1196.65,-94.5498 1200.41,-100.453"/>
</g>
<!-- Node24&#45;&gt;Node5 -->
<g id="edge37" class="edge"><title>Node24&#45;&gt;Node5</title>
<path fill="none" stroke="midnightblue" d="M1183.22,-72.9743C1172.68,-70.7838 1161.18,-68.5975 1150.5,-67 956.74,-38.0143 721.435,-22.8923 638.347,-18.1601"/>
<polygon fill="midnightblue" stroke="midnightblue" points="638.495,-14.663 628.314,-17.5974 638.103,-21.652 638.495,-14.663"/>
</g>
<!-- Node24&#45;&gt;Node22 -->
<g id="edge38" class="edge"><title>Node24&#45;&gt;Node22</title>
<path fill="none" stroke="midnightblue" d="M1220.5,-72.7338C1220.5,-63.1826 1220.5,-47.6183 1220.5,-35.2829"/>
<polygon fill="midnightblue" stroke="midnightblue" points="1224,-35.1273 1220.5,-25.1273 1217,-35.1273 1224,-35.1273"/>
</g>
<!-- Node25 -->
<g id="node25" class="node"><title>Node25</title>
<polygon fill="none" stroke="#bfbfbf" points="1373.5,-6 1373.5,-25 1429.5,-25 1429.5,-6 1373.5,-6"/>
<text text-anchor="middle" x="1401.5" y="-13" font-family="Helvetica,sans-Serif" font-size="10.00">Rtypes.h</text>
</g>
<!-- Node24&#45;&gt;Node25 -->
<g id="edge36" class="edge"><title>Node24&#45;&gt;Node25</title>
<path fill="none" stroke="midnightblue" d="M1244.54,-72.8685C1276.27,-61.4732 1332.29,-41.3528 1368.12,-28.4869"/>
<polygon fill="midnightblue" stroke="midnightblue" points="1369.42,-31.7376 1377.65,-25.0637 1367.06,-25.1495 1369.42,-31.7376"/>
</g>
<!-- Node26&#45;&gt;Node5 -->
<g id="edge40" class="edge"><title>Node26&#45;&gt;Node5</title>
<path fill="none" stroke="midnightblue" d="M1373.74,-139.858C1400.39,-124.625 1448.21,-92.223 1424.5,-67 1397.05,-37.8009 783.474,-20.8463 638.157,-17.2318"/>
<polygon fill="midnightblue" stroke="midnightblue" points="638.227,-13.7326 628.144,-16.9855 638.055,-20.7305 638.227,-13.7326"/>
</g>
<!-- Node26&#45;&gt;Node15 -->
<g id="edge43" class="edge"><title>Node26&#45;&gt;Node15</title>
<path fill="none" stroke="midnightblue" d="M1315.84,-139.946C1273.74,-130.925 1207.01,-115.599 1150.5,-98 1148.08,-97.2468 1145.59,-96.4199 1143.11,-95.5548"/>
<polygon fill="midnightblue" stroke="midnightblue" points="1144.23,-92.2407 1133.64,-92.1039 1141.84,-98.8173 1144.23,-92.2407"/>
</g>
<!-- Node26&#45;&gt;Node22 -->
<g id="edge41" class="edge"><title>Node26&#45;&gt;Node22</title>
<path fill="none" stroke="midnightblue" d="M1384.16,-139.95C1421.78,-126.51 1483.14,-98.6844 1457.5,-67 1431.39,-34.7431 1304.77,-22.2118 1248.06,-18.1604"/>
<polygon fill="midnightblue" stroke="midnightblue" points="1248.23,-14.6637 1238.01,-17.4797 1247.76,-21.6477 1248.23,-14.6637"/>
</g>
<!-- Node26&#45;&gt;Node23 -->
<g id="edge44" class="edge"><title>Node26&#45;&gt;Node23</title>
<path fill="none" stroke="midnightblue" d="M1357.5,-139.734C1357.5,-130.183 1357.5,-114.618 1357.5,-102.283"/>
<polygon fill="midnightblue" stroke="midnightblue" points="1361,-102.127 1357.5,-92.1273 1354,-102.127 1361,-102.127"/>
</g>
<!-- Node26&#45;&gt;Node25 -->
<g id="edge42" class="edge"><title>Node26&#45;&gt;Node25</title>
<path fill="none" stroke="midnightblue" d="M1427.07,-139.928C1452.94,-132.984 1479.79,-120.479 1495.5,-98 1503.39,-86.707 1502.57,-78.8251 1495.5,-67 1483.33,-46.6408 1459.81,-34.014 1439.35,-26.4779"/>
<polygon fill="midnightblue" stroke="midnightblue" points="1440.21,-23.0727 1429.61,-23.1757 1437.96,-29.7019 1440.21,-23.0727"/>
</g>
</g>
</svg>
