<?xml version="1.0" encoding="UTF-8" standalone="no"?>
<!DOCTYPE svg PUBLIC "-//W3C//DTD SVG 1.1//EN"
 "http://www.w3.org/Graphics/SVG/1.1/DTD/svg11.dtd">
<!-- Generated by graphviz version 2.38.0 (20140413.2041)
 -->
<!-- Title: Modules/TPC/src/Tracks.cxx Pages: 1 -->
<!--zoomable 319 -->
<svg id="main" version="1.1" xmlns="http://www.w3.org/2000/svg" xmlns:xlink="http://www.w3.org/1999/xlink" xml:space="preserve" onload="init(evt)">
<style type="text/css"><![CDATA[
.edge:hover path { stroke: red; }
.edge:hover polygon { stroke: red; fill: red; }
]]></style>
<script type="text/javascript"><![CDATA[
var edges = document.getElementsByTagName('g');
if (edges && edges.length) {
  for (var i=0;i<edges.length;i++) {
    if (edges[i].id.substr(0,4)=='edge') {
      edges[i].setAttribute('class','edge');
    }
  }
}
]]></script>
        <defs>
                <circle id="rim" cx="0" cy="0" r="7"/>
                <circle id="rim2" cx="0" cy="0" r="3.5"/>
                <g id="zoomPlus">
                        <use xlink:href="#rim" fill="#404040">
                                <set attributeName="fill" to="#808080" begin="zoomplus.mouseover" end="zoomplus.mouseout"/>
                        </use>
                        <path d="M-4,0h8M0,-4v8" fill="none" stroke="white" stroke-width="1.5" pointer-events="none"/>
                </g>
                <g id="zoomMin">
                        <use xlink:href="#rim" fill="#404040">
                                <set attributeName="fill" to="#808080" begin="zoomminus.mouseover" end="zoomminus.mouseout"/>
                        </use>
                        <path d="M-4,0h8" fill="none" stroke="white" stroke-width="1.5" pointer-events="none"/>
                </g>
                <g id="dirArrow">
                        <path fill="none" stroke="white" stroke-width="1.5" d="M0,-3.0v7 M-2.5,-0.5L0,-3.0L2.5,-0.5"/>
                </g>
               <g id="resetDef">
                       <use xlink:href="#rim2" fill="#404040">
                               <set attributeName="fill" to="#808080" begin="reset.mouseover" end="reset.mouseout"/>
                       </use>
               </g>
        </defs>

<script type="text/javascript">
var viewWidth = 1121;
var viewHeight = 319;
var sectionId = 'dynsection-0';
</script>
<script xlink:href="svgpan.js"/>
<svg id="graph" class="graph">
<g id="viewport">
<title>Modules/TPC/src/Tracks.cxx</title>
<!-- Node1 -->
<g id="node1" class="node"><title>Node1</title>
<polygon fill="#bfbfbf" stroke="black" points="145,-291.5 145,-310.5 290,-310.5 290,-291.5 145,-291.5"/>
<text text-anchor="middle" x="217.5" y="-298.5" font-family="Helvetica,sans-Serif" font-size="10.00">Modules/TPC/src/Tracks.cxx</text>
</g>
<!-- Node2 -->
<g id="node2" class="node"><title>Node2</title>
<polygon fill="none" stroke="#bfbfbf" points="0,-235.5 0,-254.5 65,-254.5 65,-235.5 0,-235.5"/>
<text text-anchor="middle" x="32.5" y="-242.5" font-family="Helvetica,sans-Serif" font-size="10.00">TCanvas.h</text>
</g>
<!-- Node1&#45;&gt;Node2 -->
<g id="edge1" class="edge"><title>Node1&#45;&gt;Node2</title>
<path fill="none" stroke="midnightblue" d="M188.186,-291.444C156.658,-282.241 106.369,-267.562 71.5143,-257.388"/>
<polygon fill="midnightblue" stroke="midnightblue" points="72.2568,-253.959 61.6767,-254.516 70.2954,-260.678 72.2568,-253.959"/>
</g>
<!-- Node3 -->
<g id="node3" class="node"><title>Node3</title>
<polygon fill="none" stroke="#bfbfbf" points="83.5,-235.5 83.5,-254.5 127.5,-254.5 127.5,-235.5 83.5,-235.5"/>
<text text-anchor="middle" x="105.5" y="-242.5" font-family="Helvetica,sans-Serif" font-size="10.00">TH1.h</text>
</g>
<!-- Node1&#45;&gt;Node3 -->
<g id="edge2" class="edge"><title>Node1&#45;&gt;Node3</title>
<path fill="none" stroke="midnightblue" d="M199.505,-291.324C181.462,-282.625 153.453,-269.12 132.697,-259.113"/>
<polygon fill="midnightblue" stroke="midnightblue" points="133.978,-255.845 123.45,-254.655 130.938,-262.15 133.978,-255.845"/>
</g>
<!-- Node4 -->
<g id="node4" class="node"><title>Node4</title>
<polygon fill="none" stroke="#bfbfbf" points="145.5,-235.5 145.5,-254.5 189.5,-254.5 189.5,-235.5 145.5,-235.5"/>
<text text-anchor="middle" x="167.5" y="-242.5" font-family="Helvetica,sans-Serif" font-size="10.00">TH2.h</text>
</g>
<!-- Node1&#45;&gt;Node4 -->
<g id="edge3" class="edge"><title>Node1&#45;&gt;Node4</title>
<path fill="none" stroke="midnightblue" d="M209.244,-291.083C202.035,-283.298 191.39,-271.801 182.654,-262.367"/>
<polygon fill="midnightblue" stroke="midnightblue" points="184.965,-259.711 175.603,-254.751 179.829,-264.467 184.965,-259.711"/>
</g>
<!-- Node5 -->
<g id="node5" class="node"><title>Node5</title>
<polygon fill="none" stroke="#bfbfbf" points="137.5,-123.5 137.5,-142.5 297.5,-142.5 297.5,-123.5 137.5,-123.5"/>
<text text-anchor="middle" x="217.5" y="-130.5" font-family="Helvetica,sans-Serif" font-size="10.00">Framework/ProcessingContext.h</text>
</g>
<!-- Node1&#45;&gt;Node5 -->
<g id="edge4" class="edge"><title>Node1&#45;&gt;Node5</title>
<path fill="none" stroke="midnightblue" d="M217.5,-291.075C217.5,-264.945 217.5,-188.211 217.5,-152.577"/>
<polygon fill="midnightblue" stroke="midnightblue" points="221,-152.568 217.5,-142.568 214,-152.568 221,-152.568"/>
</g>
<!-- Node6 -->
<g id="node6" class="node"><title>Node6</title>
<polygon fill="none" stroke="#bfbfbf" points="245.5,-235.5 245.5,-254.5 395.5,-254.5 395.5,-235.5 245.5,-235.5"/>
<text text-anchor="middle" x="320.5" y="-242.5" font-family="Helvetica,sans-Serif" font-size="10.00">DataFormatsTPC/TrackTPC.h</text>
</g>
<!-- Node1&#45;&gt;Node6 -->
<g id="edge5" class="edge"><title>Node1&#45;&gt;Node6</title>
<path fill="none" stroke="midnightblue" d="M234.049,-291.324C250.492,-282.703 275.935,-269.364 294.968,-259.386"/>
<polygon fill="midnightblue" stroke="midnightblue" points="296.761,-262.398 303.992,-254.655 293.511,-256.198 296.761,-262.398"/>
</g>
<!-- Node7 -->
<g id="node7" class="node"><title>Node7</title>
<g id="a_node7"><a xlink:href="QcInfoLogger_8h.html" target="_top" xlink:title="QualityControl/QcInfoLogger.h">
<polygon fill="none" stroke="black" points="413,-235.5 413,-254.5 562,-254.5 562,-235.5 413,-235.5"/>
<text text-anchor="middle" x="487.5" y="-242.5" font-family="Helvetica,sans-Serif" font-size="10.00">QualityControl/QcInfoLogger.h</text>
</a>
</g>
</g>
<!-- Node1&#45;&gt;Node7 -->
<g id="edge6" class="edge"><title>Node1&#45;&gt;Node7</title>
<path fill="none" stroke="midnightblue" d="M260.282,-291.444C307.679,-281.964 384.126,-266.675 435.083,-256.483"/>
<polygon fill="midnightblue" stroke="midnightblue" points="435.798,-259.91 444.918,-254.516 434.426,-253.046 435.798,-259.91"/>
</g>
<!-- Node10 -->
<g id="node10" class="node"><title>Node10</title>
<g id="a_node10"><a xlink:href="Tracks_8h.html" target="_top" xlink:title="TPC/Tracks.h">
<polygon fill="none" stroke="black" points="609.5,-235.5 609.5,-254.5 687.5,-254.5 687.5,-235.5 609.5,-235.5"/>
<text text-anchor="middle" x="648.5" y="-242.5" font-family="Helvetica,sans-Serif" font-size="10.00">TPC/Tracks.h</text>
</a>
</g>
</g>
<!-- Node1&#45;&gt;Node10 -->
<g id="edge9" class="edge"><title>Node1&#45;&gt;Node10</title>
<path fill="none" stroke="midnightblue" d="M285.793,-291.444C373.073,-280.508 522.063,-261.841 599.11,-252.188"/>
<polygon fill="midnightblue" stroke="midnightblue" points="600.003,-255.604 609.49,-250.888 599.132,-248.658 600.003,-255.604"/>
</g>
<!-- Node8 -->
<g id="node8" class="node"><title>Node8</title>
<polygon fill="none" stroke="#bfbfbf" points="425.5,-179.5 425.5,-198.5 555.5,-198.5 555.5,-179.5 425.5,-179.5"/>
<text text-anchor="middle" x="490.5" y="-186.5" font-family="Helvetica,sans-Serif" font-size="10.00">InfoLogger/InfoLogger.hxx</text>
</g>
<!-- Node7&#45;&gt;Node8 -->
<g id="edge7" class="edge"><title>Node7&#45;&gt;Node8</title>
<path fill="none" stroke="midnightblue" d="M487.995,-235.083C488.389,-228.006 488.952,-217.861 489.445,-208.986"/>
<polygon fill="midnightblue" stroke="midnightblue" points="492.954,-208.93 490.014,-198.751 485.964,-208.542 492.954,-208.93"/>
</g>
<!-- Node9 -->
<g id="node9" class="node"><title>Node9</title>
<polygon fill="none" stroke="#bfbfbf" points="245.5,-179.5 245.5,-198.5 407.5,-198.5 407.5,-179.5 245.5,-179.5"/>
<text text-anchor="middle" x="326.5" y="-186.5" font-family="Helvetica,sans-Serif" font-size="10.00">InfoLogger/InfoLoggerMacros.hxx</text>
</g>
<!-- Node7&#45;&gt;Node9 -->
<g id="edge8" class="edge"><title>Node7&#45;&gt;Node9</title>
<path fill="none" stroke="midnightblue" d="M461.989,-235.444C434.904,-226.359 391.91,-211.939 361.631,-201.783"/>
<polygon fill="midnightblue" stroke="midnightblue" points="362.486,-198.378 351.892,-198.516 360.26,-205.015 362.486,-198.378"/>
</g>
<!-- Node11 -->
<g id="node11" class="node"><title>Node11</title>
<polygon fill="none" stroke="#bfbfbf" points="741,-179.5 741,-198.5 834,-198.5 834,-179.5 741,-179.5"/>
<text text-anchor="middle" x="787.5" y="-186.5" font-family="Helvetica,sans-Serif" font-size="10.00">TPCQC/Tracks.h</text>
</g>
<!-- Node10&#45;&gt;Node11 -->
<g id="edge10" class="edge"><title>Node10&#45;&gt;Node11</title>
<path fill="none" stroke="midnightblue" d="M670.525,-235.444C693.604,-226.478 730.062,-212.314 756.141,-202.183"/>
<polygon fill="midnightblue" stroke="midnightblue" points="757.524,-205.4 765.578,-198.516 754.989,-198.875 757.524,-205.4"/>
</g>
<!-- Node12 -->
<g id="node12" class="node"><title>Node12</title>
<g id="a_node12"><a xlink:href="TaskInterface_8h.html" target="_top" xlink:title="QualityControl/TaskInterface.h">
<polygon fill="none" stroke="black" points="573.5,-179.5 573.5,-198.5 723.5,-198.5 723.5,-179.5 573.5,-179.5"/>
<text text-anchor="middle" x="648.5" y="-186.5" font-family="Helvetica,sans-Serif" font-size="10.00">QualityControl/TaskInterface.h</text>
</a>
</g>
</g>
<!-- Node10&#45;&gt;Node12 -->
<g id="edge11" class="edge"><title>Node10&#45;&gt;Node12</title>
<path fill="none" stroke="midnightblue" d="M648.5,-235.083C648.5,-228.006 648.5,-217.861 648.5,-208.986"/>
<polygon fill="midnightblue" stroke="midnightblue" points="652,-208.751 648.5,-198.751 645,-208.751 652,-208.751"/>
</g>
<!-- Node12&#45;&gt;Node5 -->
<g id="edge17" class="edge"><title>Node12&#45;&gt;Node5</title>
<path fill="none" stroke="midnightblue" d="M580.207,-179.444C502.813,-169.747 376.897,-153.971 295.647,-143.791"/>
<polygon fill="midnightblue" stroke="midnightblue" points="295.831,-140.287 285.474,-142.516 294.961,-147.233 295.831,-140.287"/>
</g>
<!-- Node13 -->
<g id="node13" class="node"><title>Node13</title>
<polygon fill="none" stroke="#bfbfbf" points="1078,-0.5 1078,-19.5 1113,-19.5 1113,-0.5 1078,-0.5"/>
<text text-anchor="middle" x="1095.5" y="-7.5" font-family="Helvetica,sans-Serif" font-size="10.00">map</text>
</g>
<!-- Node12&#45;&gt;Node13 -->
<g id="edge12" class="edge"><title>Node12&#45;&gt;Node13</title>
<path fill="none" stroke="midnightblue" d="M722.001,-179.464C829.279,-165.548 1021.34,-134.647 1070.5,-87 1086.13,-71.8531 1091.99,-46.7788 1094.19,-29.6026"/>
<polygon fill="midnightblue" stroke="midnightblue" points="1097.67,-29.9343 1095.17,-19.6395 1090.71,-29.2487 1097.67,-29.9343"/>
</g>
<!-- Node14 -->
<g id="node14" class="node"><title>Node14</title>
<polygon fill="none" stroke="#bfbfbf" points="353.5,-62 353.5,-81 405.5,-81 405.5,-62 353.5,-62"/>
<text text-anchor="middle" x="379.5" y="-69" font-family="Helvetica,sans-Serif" font-size="10.00">memory</text>
</g>
<!-- Node12&#45;&gt;Node14 -->
<g id="edge13" class="edge"><title>Node12&#45;&gt;Node14</title>
<path fill="none" stroke="midnightblue" d="M580.623,-179.472C511.58,-170.21 412.862,-155.118 399.5,-143 385.243,-130.071 380.851,-107.803 379.645,-91.7486"/>
<polygon fill="midnightblue" stroke="midnightblue" points="383.127,-91.2325 379.233,-81.3792 376.133,-91.5101 383.127,-91.2325"/>
</g>
<!-- Node15 -->
<g id="node15" class="node"><title>Node15</title>
<polygon fill="none" stroke="#bfbfbf" points="733,-0.5 733,-19.5 774,-19.5 774,-0.5 733,-0.5"/>
<text text-anchor="middle" x="753.5" y="-7.5" font-family="Helvetica,sans-Serif" font-size="10.00">string</text>
</g>
<!-- Node12&#45;&gt;Node15 -->
<g id="edge14" class="edge"><title>Node12&#45;&gt;Node15</title>
<path fill="none" stroke="midnightblue" d="M707.475,-179.467C767.365,-170.201 852.676,-155.105 862.5,-143 897.846,-99.4488 821.837,-48.3708 779.448,-24.5331"/>
<polygon fill="midnightblue" stroke="midnightblue" points="780.921,-21.3489 770.47,-19.607 777.553,-27.4859 780.921,-21.3489"/>
</g>
<!-- Node16 -->
<g id="node16" class="node"><title>Node16</title>
<polygon fill="none" stroke="#bfbfbf" points="296,-0.5 296,-19.5 379,-19.5 379,-0.5 296,-0.5"/>
<text text-anchor="middle" x="337.5" y="-7.5" font-family="Helvetica,sans-Serif" font-size="10.00">unordered_map</text>
</g>
<!-- Node12&#45;&gt;Node16 -->
<g id="edge15" class="edge"><title>Node12&#45;&gt;Node16</title>
<path fill="none" stroke="midnightblue" d="M581.681,-179.473C508.435,-169.69 399.05,-153.633 382.5,-143 357.195,-126.741 354.645,-115.316 344.5,-87 337.811,-68.3301 336.551,-45.5126 336.658,-29.7792"/>
<polygon fill="midnightblue" stroke="midnightblue" points="340.158,-29.8231 336.919,-19.7354 333.16,-29.6409 340.158,-29.8231"/>
</g>
<!-- Node17 -->
<g id="node17" class="node"><title>Node17</title>
<polygon fill="none" stroke="#bfbfbf" points="587,-123.5 587,-142.5 712,-142.5 712,-123.5 587,-123.5"/>
<text text-anchor="middle" x="649.5" y="-130.5" font-family="Helvetica,sans-Serif" font-size="10.00">Framework/InitContext.h</text>
</g>
<!-- Node12&#45;&gt;Node17 -->
<g id="edge16" class="edge"><title>Node12&#45;&gt;Node17</title>
<path fill="none" stroke="midnightblue" d="M648.665,-179.083C648.796,-172.006 648.984,-161.861 649.148,-152.986"/>
<polygon fill="midnightblue" stroke="midnightblue" points="652.652,-152.814 649.338,-142.751 645.653,-152.685 652.652,-152.814"/>
</g>
<!-- Node18 -->
<g id="node18" class="node"><title>Node18</title>
<g id="a_node18"><a xlink:href="Activity_8h.html" target="_top" xlink:title="QualityControl/Activity.h">
<polygon fill="none" stroke="black" points="730,-123.5 730,-142.5 853,-142.5 853,-123.5 730,-123.5"/>
<text text-anchor="middle" x="791.5" y="-130.5" font-family="Helvetica,sans-Serif" font-size="10.00">QualityControl/Activity.h</text>
</a>
</g>
</g>
<!-- Node12&#45;&gt;Node18 -->
<g id="edge18" class="edge"><title>Node12&#45;&gt;Node18</title>
<path fill="none" stroke="midnightblue" d="M671.159,-179.444C694.902,-170.478 732.409,-156.314 759.238,-146.183"/>
<polygon fill="midnightblue" stroke="midnightblue" points="760.829,-149.324 768.947,-142.516 758.356,-142.775 760.829,-149.324"/>
</g>
<!-- Node19 -->
<g id="node19" class="node"><title>Node19</title>
<g id="a_node19"><a xlink:href="ObjectsManager_8h.html" target="_top" xlink:title="QualityControl/ObjectsManager.h">
<polygon fill="none" stroke="black" points="408,-123.5 408,-142.5 569,-142.5 569,-123.5 408,-123.5"/>
<text text-anchor="middle" x="488.5" y="-130.5" font-family="Helvetica,sans-Serif" font-size="10.00">QualityControl/ObjectsManager.h</text>
</a>
</g>
</g>
<!-- Node12&#45;&gt;Node19 -->
<g id="edge19" class="edge"><title>Node12&#45;&gt;Node19</title>
<path fill="none" stroke="midnightblue" d="M623.148,-179.444C596.231,-170.359 553.504,-155.939 523.413,-145.783"/>
<polygon fill="midnightblue" stroke="midnightblue" points="524.328,-142.398 513.734,-142.516 522.09,-149.031 524.328,-142.398"/>
</g>
<!-- Node19&#45;&gt;Node14 -->
<g id="edge33" class="edge"><title>Node19&#45;&gt;Node14</title>
<path fill="none" stroke="midnightblue" d="M472.883,-123.475C454.914,-113.666 425.179,-97.4346 404.094,-85.925"/>
<polygon fill="midnightblue" stroke="midnightblue" points="405.542,-82.7284 395.088,-81.0091 402.189,-88.8726 405.542,-82.7284"/>
</g>
<!-- Node19&#45;&gt;Node15 -->
<g id="edge32" class="edge"><title>Node19&#45;&gt;Node15</title>
<path fill="none" stroke="midnightblue" d="M555.947,-123.46C624.209,-114.221 721.516,-99.1777 734.5,-87 750.124,-72.346 753.715,-46.9563 754.165,-29.5875"/>
<polygon fill="midnightblue" stroke="midnightblue" points="757.665,-29.5035 754.102,-19.5255 750.665,-29.5472 757.665,-29.5035"/>
</g>
<!-- Node20 -->
<g id="node20" class="node"><title>Node20</title>
<g id="a_node20"><a xlink:href="MonitorObject_8h.html" target="_top" xlink:title="QualityControl/MonitorObject.h">
<polygon fill="none" stroke="black" points="910,-62 910,-81 1061,-81 1061,-62 910,-62"/>
<text text-anchor="middle" x="985.5" y="-69" font-family="Helvetica,sans-Serif" font-size="10.00">QualityControl/MonitorObject.h</text>
</a>
</g>
</g>
<!-- Node19&#45;&gt;Node20 -->
<g id="edge20" class="edge"><title>Node19&#45;&gt;Node20</title>
<path fill="none" stroke="midnightblue" d="M559.708,-123.475C650.866,-112.562 808.44,-93.6974 904.208,-82.2322"/>
<polygon fill="midnightblue" stroke="midnightblue" points="904.911,-85.6731 914.424,-81.0091 904.079,-78.7227 904.911,-85.6731"/>
</g>
<!-- Node24 -->
<g id="node24" class="node"><title>Node24</title>
<g id="a_node24"><a xlink:href="MonitorObjectCollection_8h.html" target="_top" xlink:title="QualityControl/MonitorObject\lCollection.h">
<polygon fill="none" stroke="black" points="424,-56.5 424,-86.5 567,-86.5 567,-56.5 424,-56.5"/>
<text text-anchor="start" x="432" y="-74.5" font-family="Helvetica,sans-Serif" font-size="10.00">QualityControl/MonitorObject</text>
<text text-anchor="middle" x="495.5" y="-63.5" font-family="Helvetica,sans-Serif" font-size="10.00">Collection.h</text>
</a>
</g>
</g>
<!-- Node19&#45;&gt;Node24 -->
<g id="edge26" class="edge"><title>Node19&#45;&gt;Node24</title>
<path fill="none" stroke="midnightblue" d="M489.503,-123.475C490.327,-116.471 491.536,-106.192 492.653,-96.6956"/>
<polygon fill="midnightblue" stroke="midnightblue" points="496.158,-96.8635 493.85,-86.523 489.206,-96.0455 496.158,-96.8635"/>
</g>
<!-- Node27 -->
<g id="node27" class="node"><title>Node27</title>
<g id="a_node27"><a xlink:href="TaskConfig_8h.html" target="_top" xlink:title="QualityControl/TaskConfig.h">
<polygon fill="none" stroke="black" points="585.5,-62 585.5,-81 725.5,-81 725.5,-62 585.5,-62"/>
<text text-anchor="middle" x="655.5" y="-69" font-family="Helvetica,sans-Serif" font-size="10.00">QualityControl/TaskConfig.h</text>
</a>
</g>
</g>
<!-- Node19&#45;&gt;Node27 -->
<g id="edge29" class="edge"><title>Node19&#45;&gt;Node27</title>
<path fill="none" stroke="midnightblue" d="M512.427,-123.475C541.197,-113.225 589.656,-95.9593 622.102,-84.3994"/>
<polygon fill="midnightblue" stroke="midnightblue" points="623.372,-87.6624 631.617,-81.0091 621.023,-81.0684 623.372,-87.6624"/>
</g>
<!-- Node20&#45;&gt;Node13 -->
<g id="edge22" class="edge"><title>Node20&#45;&gt;Node13</title>
<path fill="none" stroke="midnightblue" d="M1001.26,-61.9751C1019.48,-52.1222 1049.67,-35.7883 1070.97,-24.2697"/>
<polygon fill="midnightblue" stroke="midnightblue" points="1072.64,-27.3453 1079.77,-19.5091 1069.31,-21.1883 1072.64,-27.3453"/>
</g>
<!-- Node20&#45;&gt;Node15 -->
<g id="edge21" class="edge"><title>Node20&#45;&gt;Node15</title>
<path fill="none" stroke="midnightblue" d="M949.243,-61.973C910.69,-52.7874 847.717,-37.446 783.945,-20.0226"/>
<polygon fill="midnightblue" stroke="midnightblue" points="784.69,-16.5979 774.12,-17.3234 782.836,-23.3477 784.69,-16.5979"/>
</g>
<!-- Node21 -->
<g id="node21" class="node"><title>Node21</title>
<polygon fill="none" stroke="#bfbfbf" points="1003.5,-0.5 1003.5,-19.5 1059.5,-19.5 1059.5,-0.5 1003.5,-0.5"/>
<text text-anchor="middle" x="1031.5" y="-7.5" font-family="Helvetica,sans-Serif" font-size="10.00">Rtypes.h</text>
</g>
<!-- Node20&#45;&gt;Node21 -->
<g id="edge23" class="edge"><title>Node20&#45;&gt;Node21</title>
<path fill="none" stroke="midnightblue" d="M992.091,-61.9751C998.991,-53.0501 1010,-38.8071 1018.63,-27.6425"/>
<polygon fill="midnightblue" stroke="midnightblue" points="1021.57,-29.5612 1024.92,-19.5091 1016.04,-25.2798 1021.57,-29.5612"/>
</g>
<!-- Node22 -->
<g id="node22" class="node"><title>Node22</title>
<polygon fill="none" stroke="#bfbfbf" points="792,-0.5 792,-19.5 851,-19.5 851,-0.5 792,-0.5"/>
<text text-anchor="middle" x="821.5" y="-7.5" font-family="Helvetica,sans-Serif" font-size="10.00">TObject.h</text>
</g>
<!-- Node20&#45;&gt;Node22 -->
<g id="edge24" class="edge"><title>Node20&#45;&gt;Node22</title>
<path fill="none" stroke="midnightblue" d="M962.003,-61.9751C933.871,-51.7687 886.571,-34.608 854.711,-23.0492"/>
<polygon fill="midnightblue" stroke="midnightblue" points="855.548,-19.6295 844.954,-19.5091 853.16,-26.2098 855.548,-19.6295"/>
</g>
<!-- Node23 -->
<g id="node23" class="node"><title>Node23</title>
<polygon fill="none" stroke="#bfbfbf" points="869.5,-0.5 869.5,-19.5 985.5,-19.5 985.5,-0.5 869.5,-0.5"/>
<text text-anchor="middle" x="927.5" y="-7.5" font-family="Helvetica,sans-Serif" font-size="10.00">Common/Exceptions.h</text>
</g>
<!-- Node20&#45;&gt;Node23 -->
<g id="edge25" class="edge"><title>Node20&#45;&gt;Node23</title>
<path fill="none" stroke="midnightblue" d="M977.19,-61.9751C968.318,-52.8733 954.054,-38.241 943.08,-26.983"/>
<polygon fill="midnightblue" stroke="midnightblue" points="945.281,-24.2268 935.795,-19.5091 940.269,-29.113 945.281,-24.2268"/>
</g>
<!-- Node25 -->
<g id="node25" class="node"><title>Node25</title>
<polygon fill="none" stroke="#bfbfbf" points="555,-0.5 555,-19.5 624,-19.5 624,-0.5 555,-0.5"/>
<text text-anchor="middle" x="589.5" y="-7.5" font-family="Helvetica,sans-Serif" font-size="10.00">TObjArray.h</text>
</g>
<!-- Node24&#45;&gt;Node25 -->
<g id="edge27" class="edge"><title>Node24&#45;&gt;Node25</title>
<path fill="none" stroke="midnightblue" d="M517.777,-56.3993C532.703,-46.9511 552.281,-34.5589 567.21,-25.1089"/>
<polygon fill="midnightblue" stroke="midnightblue" points="569.245,-27.9636 575.822,-19.6578 565.501,-22.0489 569.245,-27.9636"/>
</g>
<!-- Node26 -->
<g id="node26" class="node"><title>Node26</title>
<polygon fill="none" stroke="#bfbfbf" points="408.5,-0.5 408.5,-19.5 536.5,-19.5 536.5,-0.5 408.5,-0.5"/>
<text text-anchor="middle" x="472.5" y="-7.5" font-family="Helvetica,sans-Serif" font-size="10.00">Mergers/MergeInterface.h</text>
</g>
<!-- Node24&#45;&gt;Node26 -->
<g id="edge28" class="edge"><title>Node24&#45;&gt;Node26</title>
<path fill="none" stroke="midnightblue" d="M490.049,-56.3993C486.879,-48.1989 482.852,-37.7809 479.456,-28.9936"/>
<polygon fill="midnightblue" stroke="midnightblue" points="482.717,-27.7232 475.847,-19.6578 476.188,-30.2471 482.717,-27.7232"/>
</g>
<!-- Node27&#45;&gt;Node15 -->
<g id="edge30" class="edge"><title>Node27&#45;&gt;Node15</title>
<path fill="none" stroke="midnightblue" d="M669.541,-61.9751C685.551,-52.2548 711.95,-36.2266 730.874,-24.7372"/>
<polygon fill="midnightblue" stroke="midnightblue" points="732.754,-27.6907 739.485,-19.5091 729.121,-21.7072 732.754,-27.6907"/>
</g>
<!-- Node27&#45;&gt;Node16 -->
<g id="edge31" class="edge"><title>Node27&#45;&gt;Node16</title>
<path fill="none" stroke="midnightblue" d="M609.938,-61.9751C551.454,-51.0323 450.245,-32.0954 389.018,-20.6394"/>
<polygon fill="midnightblue" stroke="midnightblue" points="389.652,-17.1973 379.179,-18.7984 388.365,-24.0779 389.652,-17.1973"/>
</g>
</g>
</svg>
        <g id="navigator" transform="translate(0 0)" fill="#404254">
                <rect fill="#f2f5e9" fill-opacity="0.5" stroke="#606060" stroke-width=".5" x="0" y="0" width="60" height="60"/>
                <use id="zoomplus" xlink:href="#zoomPlus" x="17" y="9" onmousedown="handleZoom(evt,'in')"/>
                <use id="zoomminus" xlink:href="#zoomMin" x="42" y="9" onmousedown="handleZoom(evt,'out')"/>
                <use id="reset" xlink:href="#resetDef" x="30" y="36" onmousedown="handleReset()"/>
                <g id="arrowUp" xlink:href="#dirArrow" transform="translate(30 24)" onmousedown="handlePan(0,-1)">
                  <use xlink:href="#rim" fill="#404040">
                        <set attributeName="fill" to="#808080" begin="arrowUp.mouseover" end="arrowUp.mouseout"/>
                  </use>
                  <path fill="none" stroke="white" stroke-width="1.5" d="M0,-3.0v7 M-2.5,-0.5L0,-3.0L2.5,-0.5"/>
                </g>
                <g id="arrowRight" xlink:href="#dirArrow" transform="rotate(90) translate(36 -43)" onmousedown="handlePan(1,0)">
                  <use xlink:href="#rim" fill="#404040">
                        <set attributeName="fill" to="#808080" begin="arrowRight.mouseover" end="arrowRight.mouseout"/>
                  </use>
                  <path fill="none" stroke="white" stroke-width="1.5" d="M0,-3.0v7 M-2.5,-0.5L0,-3.0L2.5,-0.5"/>
                </g>
                <g id="arrowDown" xlink:href="#dirArrow" transform="rotate(180) translate(-30 -48)" onmousedown="handlePan(0,1)">
                  <use xlink:href="#rim" fill="#404040">
                        <set attributeName="fill" to="#808080" begin="arrowDown.mouseover" end="arrowDown.mouseout"/>
                  </use>
                  <path fill="none" stroke="white" stroke-width="1.5" d="M0,-3.0v7 M-2.5,-0.5L0,-3.0L2.5,-0.5"/>
                </g>
                <g id="arrowLeft" xlink:href="#dirArrow" transform="rotate(270) translate(-36 17)" onmousedown="handlePan(-1,0)">
                  <use xlink:href="#rim" fill="#404040">
                        <set attributeName="fill" to="#808080" begin="arrowLeft.mouseover" end="arrowLeft.mouseout"/>
                  </use>
                  <path fill="none" stroke="white" stroke-width="1.5" d="M0,-3.0v7 M-2.5,-0.5L0,-3.0L2.5,-0.5"/>
                </g>
        </g>
        <svg viewBox="0 0 15 15" width="100%" height="30px" preserveAspectRatio="xMaxYMin meet">
         <g id="arrow_out" transform="scale(0.3 0.3)">
          <a xlink:href="Tracks_8cxx__incl_org.svg" target="_base">
           <rect id="button" ry="5" rx="5" y="6" x="6" height="38" width="38"
                fill="#f2f5e9" fill-opacity="0.5" stroke="#606060" stroke-width="1.0"/>
           <path id="arrow"
             d="M 11.500037,31.436501 C 11.940474,20.09759 22.043105,11.32322 32.158766,21.979434 L 37.068811,17.246167 C 37.068811,17.246167 37.088388,32 37.088388,32 L 22.160133,31.978069 C 22.160133,31.978069 26.997745,27.140456 26.997745,27.140456 C 18.528582,18.264221 13.291696,25.230495 11.500037,31.436501 z"
             style="fill:#404040;"/>
          </a>
         </g>
        </svg>
</svg>
