<?xml version="1.0" encoding="UTF-8" standalone="no"?>
<!DOCTYPE svg PUBLIC "-//W3C//DTD SVG 1.1//EN"
 "http://www.w3.org/Graphics/SVG/1.1/DTD/svg11.dtd">
<!-- Generated by graphviz version 2.38.0 (20140413.2041)
 -->
<!-- Title: Modules/ITS/src/TrendingTaskITSThr.cxx Pages: 1 -->
<!--zoomable 307 -->
<svg id="main" version="1.1" xmlns="http://www.w3.org/2000/svg" xmlns:xlink="http://www.w3.org/1999/xlink" xml:space="preserve" onload="init(evt)">
<style type="text/css"><![CDATA[
.edge:hover path { stroke: red; }
.edge:hover polygon { stroke: red; fill: red; }
]]></style>
<script type="text/javascript"><![CDATA[
var edges = document.getElementsByTagName('g');
if (edges && edges.length) {
  for (var i=0;i<edges.length;i++) {
    if (edges[i].id.substr(0,4)=='edge') {
      edges[i].setAttribute('class','edge');
    }
  }
}
]]></script>
        <defs>
                <circle id="rim" cx="0" cy="0" r="7"/>
                <circle id="rim2" cx="0" cy="0" r="3.5"/>
                <g id="zoomPlus">
                        <use xlink:href="#rim" fill="#404040">
                                <set attributeName="fill" to="#808080" begin="zoomplus.mouseover" end="zoomplus.mouseout"/>
                        </use>
                        <path d="M-4,0h8M0,-4v8" fill="none" stroke="white" stroke-width="1.5" pointer-events="none"/>
                </g>
                <g id="zoomMin">
                        <use xlink:href="#rim" fill="#404040">
                                <set attributeName="fill" to="#808080" begin="zoomminus.mouseover" end="zoomminus.mouseout"/>
                        </use>
                        <path d="M-4,0h8" fill="none" stroke="white" stroke-width="1.5" pointer-events="none"/>
                </g>
                <g id="dirArrow">
                        <path fill="none" stroke="white" stroke-width="1.5" d="M0,-3.0v7 M-2.5,-0.5L0,-3.0L2.5,-0.5"/>
                </g>
               <g id="resetDef">
                       <use xlink:href="#rim2" fill="#404040">
                               <set attributeName="fill" to="#808080" begin="reset.mouseover" end="reset.mouseout"/>
                       </use>
               </g>
        </defs>

<script type="text/javascript">
var viewWidth = 2194;
var viewHeight = 307;
var sectionId = 'dynsection-0';
</script>
<script xlink:href="svgpan.js"/>
<svg id="graph" class="graph">
<g id="viewport">
<title>Modules/ITS/src/TrendingTaskITSThr.cxx</title>
<!-- Node1 -->
<g id="node1" class="node"><title>Node1</title>
<polygon fill="#bfbfbf" stroke="black" points="1163.5,-268.5 1163.5,-298.5 1292.5,-298.5 1292.5,-268.5 1163.5,-268.5"/>
<text text-anchor="start" x="1171.5" y="-286.5" font-family="Helvetica,sans-Serif" font-size="10.00">Modules/ITS/src/Trending</text>
<text text-anchor="middle" x="1228" y="-275.5" font-family="Helvetica,sans-Serif" font-size="10.00">TaskITSThr.cxx</text>
</g>
<!-- Node2 -->
<g id="node2" class="node"><title>Node2</title>
<g id="a_node2"><a xlink:href="TrendingTaskITSThr_8h.html" target="_top" xlink:title="ITS/TrendingTaskITSThr.h">
<polygon fill="none" stroke="black" points="1409.5,-207 1409.5,-226 1542.5,-226 1542.5,-207 1409.5,-207"/>
<text text-anchor="middle" x="1476" y="-214" font-family="Helvetica,sans-Serif" font-size="10.00">ITS/TrendingTaskITSThr.h</text>
</a>
</g>
</g>
<!-- Node1&#45;&gt;Node2 -->
<g id="edge1" class="edge"><title>Node1&#45;&gt;Node2</title>
<path fill="none" stroke="midnightblue" d="M1281.51,-268.476C1327.02,-256.547 1391.51,-239.644 1433.54,-228.628"/>
<polygon fill="midnightblue" stroke="midnightblue" points="1434.67,-231.95 1443.46,-226.029 1432.9,-225.178 1434.67,-231.95"/>
</g>
<!-- Node13 -->
<g id="node13" class="node"><title>Node13</title>
<g id="a_node13"><a xlink:href="Reductor_8h.html" target="_top" xlink:title="QualityControl/Reductor.h">
<polygon fill="none" stroke="black" points="1032,-140 1032,-159 1162,-159 1162,-140 1032,-140"/>
<text text-anchor="middle" x="1097" y="-147" font-family="Helvetica,sans-Serif" font-size="10.00">QualityControl/Reductor.h</text>
</a>
</g>
</g>
<!-- Node1&#45;&gt;Node13 -->
<g id="edge59" class="edge"><title>Node1&#45;&gt;Node13</title>
<path fill="none" stroke="midnightblue" d="M1188.99,-268.424C1170.43,-260.144 1149.06,-248.1 1134,-232 1117.12,-213.955 1106.94,-186.886 1101.64,-168.964"/>
<polygon fill="midnightblue" stroke="midnightblue" points="1104.97,-167.873 1098.96,-159.149 1098.22,-169.718 1104.97,-167.873"/>
</g>
<!-- Node22 -->
<g id="node22" class="node"><title>Node22</title>
<g id="a_node22"><a xlink:href="RootClassFactory_8h.html" target="_top" xlink:title="QualityControl/RootClass\lFactory.h">
<polygon fill="none" stroke="black" points="357,-201.5 357,-231.5 485,-231.5 485,-201.5 357,-201.5"/>
<text text-anchor="start" x="365" y="-219.5" font-family="Helvetica,sans-Serif" font-size="10.00">QualityControl/RootClass</text>
<text text-anchor="middle" x="421" y="-208.5" font-family="Helvetica,sans-Serif" font-size="10.00">Factory.h</text>
</a>
</g>
</g>
<!-- Node1&#45;&gt;Node22 -->
<g id="edge27" class="edge"><title>Node1&#45;&gt;Node22</title>
<path fill="none" stroke="midnightblue" d="M1163.32,-277.291C1015.19,-265.359 652.049,-236.11 495.173,-223.474"/>
<polygon fill="midnightblue" stroke="midnightblue" points="495.392,-219.981 485.143,-222.666 494.83,-226.958 495.392,-219.981"/>
</g>
<!-- Node28 -->
<g id="node28" class="node"><title>Node28</title>
<g id="a_node28"><a xlink:href="QcInfoLogger_8h.html" target="_top" xlink:title="QualityControl/QcInfoLogger.h">
<polygon fill="none" stroke="black" points="72.5,-140 72.5,-159 221.5,-159 221.5,-140 72.5,-140"/>
<text text-anchor="middle" x="147" y="-147" font-family="Helvetica,sans-Serif" font-size="10.00">QualityControl/QcInfoLogger.h</text>
</a>
</g>
</g>
<!-- Node1&#45;&gt;Node28 -->
<g id="edge58" class="edge"><title>Node1&#45;&gt;Node28</title>
<path fill="none" stroke="midnightblue" d="M1163.48,-281.529C987.746,-278.45 503.363,-266.949 348,-232 281.902,-217.131 209.429,-182.905 172.191,-163.876"/>
<polygon fill="midnightblue" stroke="midnightblue" points="173.572,-160.65 163.082,-159.163 170.356,-166.867 173.572,-160.65"/>
</g>
<!-- Node31 -->
<g id="node31" class="node"><title>Node31</title>
<g id="a_node31"><a xlink:href="DatabaseInterface_8h.html" target="_top" xlink:title="QualityControl/DatabaseInterface.h">
<polygon fill="none" stroke="black" points="1143,-207 1143,-226 1313,-226 1313,-207 1143,-207"/>
<text text-anchor="middle" x="1228" y="-214" font-family="Helvetica,sans-Serif" font-size="10.00">QualityControl/DatabaseInterface.h</text>
</a>
</g>
</g>
<!-- Node1&#45;&gt;Node31 -->
<g id="edge37" class="edge"><title>Node1&#45;&gt;Node31</title>
<path fill="none" stroke="midnightblue" d="M1228,-268.396C1228,-259.064 1228,-246.714 1228,-236.517"/>
<polygon fill="midnightblue" stroke="midnightblue" points="1231.5,-236.195 1228,-226.195 1224.5,-236.195 1231.5,-236.195"/>
</g>
<!-- Node36 -->
<g id="node36" class="node"><title>Node36</title>
<g id="a_node36"><a xlink:href="MonitorObject_8h.html" target="_top" xlink:title="QualityControl/MonitorObject.h">
<polygon fill="none" stroke="black" points="658.5,-140 658.5,-159 809.5,-159 809.5,-140 658.5,-140"/>
<text text-anchor="middle" x="734" y="-147" font-family="Helvetica,sans-Serif" font-size="10.00">QualityControl/MonitorObject.h</text>
</a>
</g>
</g>
<!-- Node1&#45;&gt;Node36 -->
<g id="edge57" class="edge"><title>Node1&#45;&gt;Node36</title>
<path fill="none" stroke="midnightblue" d="M1175.6,-268.499C1076.97,-242.144 865.608,-185.666 775.777,-161.663"/>
<polygon fill="midnightblue" stroke="midnightblue" points="776.51,-158.236 765.946,-159.036 774.703,-164.999 776.51,-158.236"/>
</g>
<!-- Node37 -->
<g id="node37" class="node"><title>Node37</title>
<polygon fill="none" stroke="#bfbfbf" points="1560.5,-207 1560.5,-226 1625.5,-226 1625.5,-207 1560.5,-207"/>
<text text-anchor="middle" x="1593" y="-214" font-family="Helvetica,sans-Serif" font-size="10.00">TCanvas.h</text>
</g>
<!-- Node1&#45;&gt;Node37 -->
<g id="edge60" class="edge"><title>Node1&#45;&gt;Node37</title>
<path fill="none" stroke="midnightblue" d="M1292.71,-275.804C1358.41,-268.209 1462.73,-253.952 1551,-232 1554.22,-231.199 1557.54,-230.259 1560.84,-229.248"/>
<polygon fill="midnightblue" stroke="midnightblue" points="1562.14,-232.507 1570.55,-226.072 1559.96,-225.854 1562.14,-232.507"/>
</g>
<!-- Node38 -->
<g id="node38" class="node"><title>Node38</title>
<polygon fill="none" stroke="#bfbfbf" points="1644,-207 1644,-226 1688,-226 1688,-207 1644,-207"/>
<text text-anchor="middle" x="1666" y="-214" font-family="Helvetica,sans-Serif" font-size="10.00">TH1.h</text>
</g>
<!-- Node1&#45;&gt;Node38 -->
<g id="edge61" class="edge"><title>Node1&#45;&gt;Node38</title>
<path fill="none" stroke="midnightblue" d="M1292.69,-280.707C1374.05,-277.044 1517.32,-265.901 1635,-232 1636.93,-231.445 1638.88,-230.784 1640.83,-230.055"/>
<polygon fill="midnightblue" stroke="midnightblue" points="1642.46,-233.165 1650.28,-226.016 1639.71,-226.728 1642.46,-233.165"/>
</g>
<!-- Node39 -->
<g id="node39" class="node"><title>Node39</title>
<polygon fill="none" stroke="#bfbfbf" points="1706,-207 1706,-226 1768,-226 1768,-207 1706,-207"/>
<text text-anchor="middle" x="1737" y="-214" font-family="Helvetica,sans-Serif" font-size="10.00">TDatime.h</text>
</g>
<!-- Node1&#45;&gt;Node39 -->
<g id="edge62" class="edge"><title>Node1&#45;&gt;Node39</title>
<path fill="none" stroke="midnightblue" d="M1292.53,-280.45C1383.72,-276.451 1554.98,-264.88 1697,-232 1700.07,-231.29 1703.22,-230.414 1706.35,-229.448"/>
<polygon fill="midnightblue" stroke="midnightblue" points="1707.76,-232.665 1716.11,-226.144 1705.52,-226.035 1707.76,-232.665"/>
</g>
<!-- Node3 -->
<g id="node3" class="node"><title>Node3</title>
<g id="a_node3"><a xlink:href="TrendingTaskConfigITS_8h_source.html" target="_top" xlink:title="ITS/TrendingTaskConfigITS.h">
<polygon fill="none" stroke="black" points="1584.5,-140 1584.5,-159 1731.5,-159 1731.5,-140 1584.5,-140"/>
<text text-anchor="middle" x="1658" y="-147" font-family="Helvetica,sans-Serif" font-size="10.00">ITS/TrendingTaskConfigITS.h</text>
</a>
</g>
</g>
<!-- Node2&#45;&gt;Node3 -->
<g id="edge2" class="edge"><title>Node2&#45;&gt;Node3</title>
<path fill="none" stroke="midnightblue" d="M1500.17,-206.869C1532.08,-195.473 1588.41,-175.353 1624.44,-162.487"/>
<polygon fill="midnightblue" stroke="midnightblue" points="1625.78,-165.723 1634.02,-159.064 1623.43,-159.131 1625.78,-165.723"/>
</g>
<!-- Node6 -->
<g id="node6" class="node"><title>Node6</title>
<polygon fill="none" stroke="#bfbfbf" points="1359.5,-6 1359.5,-25 1400.5,-25 1400.5,-6 1359.5,-6"/>
<text text-anchor="middle" x="1380" y="-13" font-family="Helvetica,sans-Serif" font-size="10.00">string</text>
</g>
<!-- Node2&#45;&gt;Node6 -->
<g id="edge25" class="edge"><title>Node2&#45;&gt;Node6</title>
<path fill="none" stroke="midnightblue" d="M1475.86,-206.825C1475.2,-190.971 1471.88,-156.85 1456,-134 1439.75,-110.617 1419.65,-121.099 1403,-98 1389.53,-79.314 1383.93,-52.9725 1381.62,-35.3456"/>
<polygon fill="midnightblue" stroke="midnightblue" points="1385.07,-34.7549 1380.52,-25.1888 1378.11,-35.507 1385.07,-34.7549"/>
</g>
<!-- Node8 -->
<g id="node8" class="node"><title>Node8</title>
<g id="a_node8"><a xlink:href="PostProcessingInterface_8h.html" target="_top" xlink:title="QualityControl/PostProcessing\lInterface.h">
<polygon fill="none" stroke="black" points="1818.5,-134.5 1818.5,-164.5 1969.5,-164.5 1969.5,-134.5 1818.5,-134.5"/>
<text text-anchor="start" x="1826.5" y="-152.5" font-family="Helvetica,sans-Serif" font-size="10.00">QualityControl/PostProcessing</text>
<text text-anchor="middle" x="1894" y="-141.5" font-family="Helvetica,sans-Serif" font-size="10.00">Interface.h</text>
</a>
</g>
</g>
<!-- Node2&#45;&gt;Node8 -->
<g id="edge9" class="edge"><title>Node2&#45;&gt;Node8</title>
<path fill="none" stroke="midnightblue" d="M1517.98,-206.983C1528.72,-204.913 1540.27,-202.784 1551,-201 1662.09,-182.525 1692.92,-182.711 1808.52,-165.039"/>
<polygon fill="midnightblue" stroke="midnightblue" points="1809.13,-168.488 1818.48,-163.506 1808.06,-161.569 1809.13,-168.488"/>
</g>
<!-- Node2&#45;&gt;Node13 -->
<g id="edge17" class="edge"><title>Node2&#45;&gt;Node13</title>
<path fill="none" stroke="midnightblue" d="M1426.06,-206.936C1356.66,-195.033 1231.23,-173.52 1156.89,-160.771"/>
<polygon fill="midnightblue" stroke="midnightblue" points="1157.19,-157.273 1146.75,-159.032 1156.01,-164.172 1157.19,-157.273"/>
</g>
<!-- Node15 -->
<g id="node15" class="node"><title>Node15</title>
<polygon fill="none" stroke="#bfbfbf" points="1988,-140 1988,-159 2038,-159 2038,-140 1988,-140"/>
<text text-anchor="middle" x="2013" y="-147" font-family="Helvetica,sans-Serif" font-size="10.00">TAxis.h</text>
</g>
<!-- Node2&#45;&gt;Node15 -->
<g id="edge19" class="edge"><title>Node2&#45;&gt;Node15</title>
<path fill="none" stroke="midnightblue" d="M1515.96,-206.953C1527.25,-204.762 1539.57,-202.581 1551,-201 1740.09,-174.845 1793.74,-211.027 1979,-165 1981.36,-164.413 1983.78,-163.68 1986.17,-162.859"/>
<polygon fill="midnightblue" stroke="midnightblue" points="1987.68,-166.026 1995.72,-159.127 1985.13,-159.505 1987.68,-166.026"/>
</g>
<!-- Node16 -->
<g id="node16" class="node"><title>Node16</title>
<polygon fill="none" stroke="#bfbfbf" points="2056,-140 2056,-159 2110,-159 2110,-140 2056,-140"/>
<text text-anchor="middle" x="2083" y="-147" font-family="Helvetica,sans-Serif" font-size="10.00">TColor.h</text>
</g>
<!-- Node2&#45;&gt;Node16 -->
<g id="edge20" class="edge"><title>Node2&#45;&gt;Node16</title>
<path fill="none" stroke="midnightblue" d="M1515.56,-206.942C1526.95,-204.725 1539.43,-202.533 1551,-201 1770.11,-171.972 1831.68,-214.888 2047,-165 2049.83,-164.344 2052.73,-163.498 2055.59,-162.544"/>
<polygon fill="midnightblue" stroke="midnightblue" points="2056.9,-165.79 2065.04,-159.005 2054.45,-159.235 2056.9,-165.79"/>
</g>
<!-- Node17 -->
<g id="node17" class="node"><title>Node17</title>
<polygon fill="none" stroke="#bfbfbf" points="2128.5,-140 2128.5,-159 2185.5,-159 2185.5,-140 2128.5,-140"/>
<text text-anchor="middle" x="2157" y="-147" font-family="Helvetica,sans-Serif" font-size="10.00">TGraph.h</text>
</g>
<!-- Node2&#45;&gt;Node17 -->
<g id="edge21" class="edge"><title>Node2&#45;&gt;Node17</title>
<path fill="none" stroke="midnightblue" d="M1515.16,-206.95C1526.66,-204.705 1539.29,-202.497 1551,-201 1801.91,-168.927 1871.81,-218.697 2119,-165 2122.07,-164.332 2125.23,-163.457 2128.35,-162.468"/>
<polygon fill="midnightblue" stroke="midnightblue" points="2129.76,-165.679 2138.01,-159.03 2127.42,-159.084 2129.76,-165.679"/>
</g>
<!-- Node18 -->
<g id="node18" class="node"><title>Node18</title>
<polygon fill="none" stroke="#bfbfbf" points="1504,-140 1504,-159 1566,-159 1566,-140 1504,-140"/>
<text text-anchor="middle" x="1535" y="-147" font-family="Helvetica,sans-Serif" font-size="10.00">TLegend.h</text>
</g>
<!-- Node2&#45;&gt;Node18 -->
<g id="edge22" class="edge"><title>Node2&#45;&gt;Node18</title>
<path fill="none" stroke="midnightblue" d="M1483.96,-206.734C1493.25,-196.5 1508.8,-179.364 1520.3,-166.692"/>
<polygon fill="midnightblue" stroke="midnightblue" points="1523.04,-168.884 1527.17,-159.127 1517.86,-164.179 1523.04,-168.884"/>
</g>
<!-- Node19 -->
<g id="node19" class="node"><title>Node19</title>
<polygon fill="none" stroke="#bfbfbf" points="1750,-140 1750,-159 1800,-159 1800,-140 1750,-140"/>
<text text-anchor="middle" x="1775" y="-147" font-family="Helvetica,sans-Serif" font-size="10.00">TTree.h</text>
</g>
<!-- Node2&#45;&gt;Node19 -->
<g id="edge23" class="edge"><title>Node2&#45;&gt;Node19</title>
<path fill="none" stroke="midnightblue" d="M1520.02,-206.962C1530.19,-204.996 1540.97,-202.92 1551,-201 1635.41,-184.843 1658.77,-190.003 1741,-165 1743.15,-164.348 1745.34,-163.603 1747.53,-162.804"/>
<polygon fill="midnightblue" stroke="midnightblue" points="1748.92,-166.016 1756.92,-159.066 1746.33,-159.512 1748.92,-166.016"/>
</g>
<!-- Node20 -->
<g id="node20" class="node"><title>Node20</title>
<polygon fill="none" stroke="#bfbfbf" points="1294,-140 1294,-159 1346,-159 1346,-140 1294,-140"/>
<text text-anchor="middle" x="1320" y="-147" font-family="Helvetica,sans-Serif" font-size="10.00">memory</text>
</g>
<!-- Node2&#45;&gt;Node20 -->
<g id="edge24" class="edge"><title>Node2&#45;&gt;Node20</title>
<path fill="none" stroke="midnightblue" d="M1455.28,-206.869C1428.36,-195.65 1381.14,-175.977 1350.22,-163.092"/>
<polygon fill="midnightblue" stroke="midnightblue" points="1351.38,-159.783 1340.8,-159.167 1348.69,-166.244 1351.38,-159.783"/>
</g>
<!-- Node21 -->
<g id="node21" class="node"><title>Node21</title>
<polygon fill="none" stroke="#bfbfbf" points="1364.5,-140 1364.5,-159 1447.5,-159 1447.5,-140 1364.5,-140"/>
<text text-anchor="middle" x="1406" y="-147" font-family="Helvetica,sans-Serif" font-size="10.00">unordered_map</text>
</g>
<!-- Node2&#45;&gt;Node21 -->
<g id="edge26" class="edge"><title>Node2&#45;&gt;Node21</title>
<path fill="none" stroke="midnightblue" d="M1466.56,-206.734C1455.33,-196.305 1436.38,-178.709 1422.66,-165.973"/>
<polygon fill="midnightblue" stroke="midnightblue" points="1425,-163.367 1415.29,-159.127 1420.24,-168.497 1425,-163.367"/>
</g>
<!-- Node4 -->
<g id="node4" class="node"><title>Node4</title>
<g id="a_node4"><a xlink:href="PostProcessingConfig_8h.html" target="_top" xlink:title="QualityControl/PostProcessing\lConfig.h">
<polygon fill="none" stroke="black" points="1686.5,-67.5 1686.5,-97.5 1837.5,-97.5 1837.5,-67.5 1686.5,-67.5"/>
<text text-anchor="start" x="1694.5" y="-85.5" font-family="Helvetica,sans-Serif" font-size="10.00">QualityControl/PostProcessing</text>
<text text-anchor="middle" x="1762" y="-74.5" font-family="Helvetica,sans-Serif" font-size="10.00">Config.h</text>
</a>
</g>
</g>
<!-- Node3&#45;&gt;Node4 -->
<g id="edge3" class="edge"><title>Node3&#45;&gt;Node4</title>
<path fill="none" stroke="midnightblue" d="M1672.03,-139.734C1687.03,-130.358 1711.3,-115.188 1730.85,-102.966"/>
<polygon fill="midnightblue" stroke="midnightblue" points="1732.83,-105.857 1739.46,-97.589 1729.12,-99.9211 1732.83,-105.857"/>
</g>
<!-- Node5 -->
<g id="node5" class="node"><title>Node5</title>
<polygon fill="none" stroke="#bfbfbf" points="1636,-6 1636,-25 1680,-25 1680,-6 1636,-6"/>
<text text-anchor="middle" x="1658" y="-13" font-family="Helvetica,sans-Serif" font-size="10.00">vector</text>
</g>
<!-- Node3&#45;&gt;Node5 -->
<g id="edge8" class="edge"><title>Node3&#45;&gt;Node5</title>
<path fill="none" stroke="midnightblue" d="M1658,-139.839C1658,-118.674 1658,-63.9482 1658,-35.0329"/>
<polygon fill="midnightblue" stroke="midnightblue" points="1661.5,-35.0211 1658,-25.0212 1654.5,-35.0212 1661.5,-35.0211"/>
</g>
<!-- Node3&#45;&gt;Node6 -->
<g id="edge7" class="edge"><title>Node3&#45;&gt;Node6</title>
<path fill="none" stroke="midnightblue" d="M1612.74,-139.967C1552.41,-128.317 1451.51,-107.768 1437,-98 1413.56,-82.2153 1396.79,-53.296 1387.74,-34.492"/>
<polygon fill="midnightblue" stroke="midnightblue" points="1390.86,-32.8793 1383.52,-25.2337 1384.49,-35.7844 1390.86,-32.8793"/>
</g>
<!-- Node4&#45;&gt;Node5 -->
<g id="edge4" class="edge"><title>Node4&#45;&gt;Node5</title>
<path fill="none" stroke="midnightblue" d="M1739.43,-67.396C1721.99,-56.4956 1697.97,-41.4787 1680.53,-30.5835"/>
<polygon fill="midnightblue" stroke="midnightblue" points="1681.95,-27.339 1671.61,-25.007 1678.24,-33.275 1681.95,-27.339"/>
</g>
<!-- Node4&#45;&gt;Node6 -->
<g id="edge5" class="edge"><title>Node4&#45;&gt;Node6</title>
<path fill="none" stroke="midnightblue" d="M1686.07,-68.5804C1601.89,-54.2554 1470.15,-31.839 1410.8,-21.7413"/>
<polygon fill="midnightblue" stroke="midnightblue" points="1411.04,-18.2311 1400.59,-20.0039 1409.86,-25.1319 1411.04,-18.2311"/>
</g>
<!-- Node7 -->
<g id="node7" class="node"><title>Node7</title>
<polygon fill="none" stroke="#bfbfbf" points="1742.5,-0.5 1742.5,-30.5 1843.5,-30.5 1843.5,-0.5 1742.5,-0.5"/>
<text text-anchor="start" x="1750.5" y="-18.5" font-family="Helvetica,sans-Serif" font-size="10.00">boost/property_tree</text>
<text text-anchor="middle" x="1793" y="-7.5" font-family="Helvetica,sans-Serif" font-size="10.00">/ptree_fwd.hpp</text>
</g>
<!-- Node4&#45;&gt;Node7 -->
<g id="edge6" class="edge"><title>Node4&#45;&gt;Node7</title>
<path fill="none" stroke="midnightblue" d="M1768.73,-67.396C1772.59,-59.3041 1777.53,-48.9437 1781.94,-39.685"/>
<polygon fill="midnightblue" stroke="midnightblue" points="1785.14,-41.1092 1786.29,-30.5765 1778.82,-38.0959 1785.14,-41.1092"/>
</g>
<!-- Node8&#45;&gt;Node6 -->
<g id="edge10" class="edge"><title>Node8&#45;&gt;Node6</title>
<path fill="none" stroke="midnightblue" d="M1821.75,-134.499C1779.42,-125.583 1725.19,-112.918 1678,-98 1642.82,-86.8792 1636.2,-78.0324 1601,-67 1534.21,-46.0691 1453.57,-29.8486 1410.55,-21.8948"/>
<polygon fill="midnightblue" stroke="midnightblue" points="1411.17,-18.4504 1400.7,-20.0979 1409.91,-25.3366 1411.17,-18.4504"/>
</g>
<!-- Node8&#45;&gt;Node7 -->
<g id="edge12" class="edge"><title>Node8&#45;&gt;Node7</title>
<path fill="none" stroke="midnightblue" d="M1887.5,-134.45C1879.33,-117.551 1864.26,-88.7473 1847,-67 1838.58,-56.3972 1827.94,-45.9592 1818.32,-37.35"/>
<polygon fill="midnightblue" stroke="midnightblue" points="1820.4,-34.5194 1810.57,-30.5849 1815.8,-39.7952 1820.4,-34.5194"/>
</g>
<!-- Node9 -->
<g id="node9" class="node"><title>Node9</title>
<polygon fill="none" stroke="#bfbfbf" points="1446,-73 1446,-92 1592,-92 1592,-73 1446,-73"/>
<text text-anchor="middle" x="1519" y="-80" font-family="Helvetica,sans-Serif" font-size="10.00">Framework/ServiceRegistry.h</text>
</g>
<!-- Node8&#45;&gt;Node9 -->
<g id="edge11" class="edge"><title>Node8&#45;&gt;Node9</title>
<path fill="none" stroke="midnightblue" d="M1818.11,-135.346C1747.32,-123.075 1643.14,-105.018 1578.27,-93.7736"/>
<polygon fill="midnightblue" stroke="midnightblue" points="1578.66,-90.2888 1568.21,-92.0294 1577.46,-97.186 1578.66,-90.2888"/>
</g>
<!-- Node10 -->
<g id="node10" class="node"><title>Node10</title>
<g id="a_node10"><a xlink:href="Triggers_8h.html" target="_top" xlink:title="QualityControl/Triggers.h">
<polygon fill="none" stroke="black" points="1894.5,-73 1894.5,-92 2019.5,-92 2019.5,-73 1894.5,-73"/>
<text text-anchor="middle" x="1957" y="-80" font-family="Helvetica,sans-Serif" font-size="10.00">QualityControl/Triggers.h</text>
</a>
</g>
</g>
<!-- Node8&#45;&gt;Node10 -->
<g id="edge13" class="edge"><title>Node8&#45;&gt;Node10</title>
<path fill="none" stroke="midnightblue" d="M1907.67,-134.396C1917.59,-124.161 1931.03,-110.296 1941.37,-99.622"/>
<polygon fill="midnightblue" stroke="midnightblue" points="1944.13,-101.811 1948.57,-92.1945 1939.1,-96.9393 1944.13,-101.811"/>
</g>
<!-- Node10&#45;&gt;Node6 -->
<g id="edge14" class="edge"><title>Node10&#45;&gt;Node6</title>
<path fill="none" stroke="midnightblue" d="M1894.5,-73.0036C1878.99,-70.9661 1862.4,-68.8469 1847,-67 1682.62,-47.281 1485.26,-27.0782 1410.61,-19.5602"/>
<polygon fill="midnightblue" stroke="midnightblue" points="1410.8,-16.0622 1400.5,-18.5446 1410.1,-23.0271 1410.8,-16.0622"/>
</g>
<!-- Node11 -->
<g id="node11" class="node"><title>Node11</title>
<polygon fill="none" stroke="#bfbfbf" points="1892.5,-6 1892.5,-25 1951.5,-25 1951.5,-6 1892.5,-6"/>
<text text-anchor="middle" x="1922" y="-13" font-family="Helvetica,sans-Serif" font-size="10.00">functional</text>
</g>
<!-- Node10&#45;&gt;Node11 -->
<g id="edge15" class="edge"><title>Node10&#45;&gt;Node11</title>
<path fill="none" stroke="midnightblue" d="M1952.28,-72.7338C1946.98,-62.8903 1938.24,-46.6598 1931.51,-34.1594"/>
<polygon fill="midnightblue" stroke="midnightblue" points="1934.47,-32.2727 1926.65,-25.1273 1928.3,-35.5914 1934.47,-32.2727"/>
</g>
<!-- Node12 -->
<g id="node12" class="node"><title>Node12</title>
<polygon fill="none" stroke="#bfbfbf" points="1969.5,-6 1969.5,-25 2014.5,-25 2014.5,-6 1969.5,-6"/>
<text text-anchor="middle" x="1992" y="-13" font-family="Helvetica,sans-Serif" font-size="10.00">iosfwd</text>
</g>
<!-- Node10&#45;&gt;Node12 -->
<g id="edge16" class="edge"><title>Node10&#45;&gt;Node12</title>
<path fill="none" stroke="midnightblue" d="M1961.72,-72.7338C1967.02,-62.8903 1975.76,-46.6598 1982.49,-34.1594"/>
<polygon fill="midnightblue" stroke="midnightblue" points="1985.7,-35.5914 1987.35,-25.1273 1979.53,-32.2727 1985.7,-35.5914"/>
</g>
<!-- Node14 -->
<g id="node14" class="node"><title>Node14</title>
<polygon fill="none" stroke="#bfbfbf" points="978.5,-73 978.5,-92 1037.5,-92 1037.5,-73 978.5,-73"/>
<text text-anchor="middle" x="1008" y="-80" font-family="Helvetica,sans-Serif" font-size="10.00">TObject.h</text>
</g>
<!-- Node13&#45;&gt;Node14 -->
<g id="edge18" class="edge"><title>Node13&#45;&gt;Node14</title>
<path fill="none" stroke="midnightblue" d="M1085,-139.734C1070.45,-129.111 1045.72,-111.049 1028.22,-98.2642"/>
<polygon fill="midnightblue" stroke="midnightblue" points="1029.95,-95.1988 1019.81,-92.1273 1025.82,-100.852 1029.95,-95.1988"/>
</g>
<!-- Node22&#45;&gt;Node6 -->
<g id="edge28" class="edge"><title>Node22&#45;&gt;Node6</title>
<path fill="none" stroke="midnightblue" d="M485.208,-214.456C613.292,-211.611 895.889,-201.296 985,-165 1005.19,-156.778 1004.14,-144.924 1023,-134 1095.07,-92.2597 1118.9,-93.052 1198,-67 1250.58,-49.682 1312.97,-33.2417 1349.36,-24.0539"/>
<polygon fill="midnightblue" stroke="midnightblue" points="1350.49,-27.3783 1359.34,-21.5512 1348.79,-20.5885 1350.49,-27.3783"/>
</g>
<!-- Node23 -->
<g id="node23" class="node"><title>Node23</title>
<polygon fill="none" stroke="#bfbfbf" points="628,-73 628,-92 744,-92 744,-73 628,-73"/>
<text text-anchor="middle" x="686" y="-80" font-family="Helvetica,sans-Serif" font-size="10.00">Common/Exceptions.h</text>
</g>
<!-- Node22&#45;&gt;Node23 -->
<g id="edge29" class="edge"><title>Node22&#45;&gt;Node23</title>
<path fill="none" stroke="midnightblue" d="M390.368,-201.398C359.943,-185.511 320.68,-158.679 342,-134 376.91,-93.5913 527.883,-84.9162 617.813,-83.4121"/>
<polygon fill="midnightblue" stroke="midnightblue" points="617.979,-86.9102 627.929,-83.2688 617.88,-79.9109 617.979,-86.9102"/>
</g>
<!-- Node24 -->
<g id="node24" class="node"><title>Node24</title>
<polygon fill="none" stroke="#bfbfbf" points="239,-140 239,-159 295,-159 295,-140 239,-140"/>
<text text-anchor="middle" x="267" y="-147" font-family="Helvetica,sans-Serif" font-size="10.00">TClass.h</text>
</g>
<!-- Node22&#45;&gt;Node24 -->
<g id="edge30" class="edge"><title>Node22&#45;&gt;Node24</title>
<path fill="none" stroke="midnightblue" d="M387.584,-201.396C360.444,-189.941 322.531,-173.938 296.502,-162.952"/>
<polygon fill="midnightblue" stroke="midnightblue" points="297.729,-159.671 287.155,-159.007 295.007,-166.12 297.729,-159.671"/>
</g>
<!-- Node25 -->
<g id="node25" class="node"><title>Node25</title>
<polygon fill="none" stroke="#bfbfbf" points="351.5,-140 351.5,-159 410.5,-159 410.5,-140 351.5,-140"/>
<text text-anchor="middle" x="381" y="-147" font-family="Helvetica,sans-Serif" font-size="10.00">TROOT.h</text>
</g>
<!-- Node22&#45;&gt;Node25 -->
<g id="edge31" class="edge"><title>Node22&#45;&gt;Node25</title>
<path fill="none" stroke="midnightblue" d="M412.321,-201.396C406.269,-191.562 398.156,-178.378 391.703,-167.892"/>
<polygon fill="midnightblue" stroke="midnightblue" points="394.572,-165.877 386.35,-159.195 388.611,-169.545 394.572,-165.877"/>
</g>
<!-- Node26 -->
<g id="node26" class="node"><title>Node26</title>
<polygon fill="none" stroke="#bfbfbf" points="428.5,-140 428.5,-159 493.5,-159 493.5,-140 428.5,-140"/>
<text text-anchor="middle" x="461" y="-147" font-family="Helvetica,sans-Serif" font-size="10.00">TSystem.h</text>
</g>
<!-- Node22&#45;&gt;Node26 -->
<g id="edge32" class="edge"><title>Node22&#45;&gt;Node26</title>
<path fill="none" stroke="midnightblue" d="M429.679,-201.396C435.731,-191.562 443.844,-178.378 450.297,-167.892"/>
<polygon fill="midnightblue" stroke="midnightblue" points="453.389,-169.545 455.65,-159.195 447.428,-165.877 453.389,-169.545"/>
</g>
<!-- Node27 -->
<g id="node27" class="node"><title>Node27</title>
<polygon fill="none" stroke="#bfbfbf" points="511.5,-140 511.5,-159 640.5,-159 640.5,-140 511.5,-140"/>
<text text-anchor="middle" x="576" y="-147" font-family="Helvetica,sans-Serif" font-size="10.00">boost/filesystem/path.hpp</text>
</g>
<!-- Node22&#45;&gt;Node27 -->
<g id="edge33" class="edge"><title>Node22&#45;&gt;Node27</title>
<path fill="none" stroke="midnightblue" d="M454.633,-201.396C481.95,-189.941 520.108,-173.938 546.306,-162.952"/>
<polygon fill="midnightblue" stroke="midnightblue" points="547.846,-166.102 555.714,-159.007 545.139,-159.647 547.846,-166.102"/>
</g>
<!-- Node22&#45;&gt;Node28 -->
<g id="edge34" class="edge"><title>Node22&#45;&gt;Node28</title>
<path fill="none" stroke="midnightblue" d="M361.883,-201.476C311.171,-189.446 239.139,-172.358 192.734,-161.349"/>
<polygon fill="midnightblue" stroke="midnightblue" points="193.489,-157.931 182.952,-159.029 191.874,-164.742 193.489,-157.931"/>
</g>
<!-- Node29 -->
<g id="node29" class="node"><title>Node29</title>
<polygon fill="none" stroke="#bfbfbf" points="0,-73 0,-92 130,-92 130,-73 0,-73"/>
<text text-anchor="middle" x="65" y="-80" font-family="Helvetica,sans-Serif" font-size="10.00">InfoLogger/InfoLogger.hxx</text>
</g>
<!-- Node28&#45;&gt;Node29 -->
<g id="edge35" class="edge"><title>Node28&#45;&gt;Node29</title>
<path fill="none" stroke="midnightblue" d="M135.941,-139.734C122.662,-129.208 100.171,-111.379 84.0712,-98.6174"/>
<polygon fill="midnightblue" stroke="midnightblue" points="85.8945,-95.5965 75.8837,-92.1273 81.5461,-101.082 85.8945,-95.5965"/>
</g>
<!-- Node30 -->
<g id="node30" class="node"><title>Node30</title>
<polygon fill="none" stroke="#bfbfbf" points="148,-73 148,-92 310,-92 310,-73 148,-73"/>
<text text-anchor="middle" x="229" y="-80" font-family="Helvetica,sans-Serif" font-size="10.00">InfoLogger/InfoLoggerMacros.hxx</text>
</g>
<!-- Node28&#45;&gt;Node30 -->
<g id="edge36" class="edge"><title>Node28&#45;&gt;Node30</title>
<path fill="none" stroke="midnightblue" d="M158.059,-139.734C171.338,-129.208 193.829,-111.379 209.929,-98.6174"/>
<polygon fill="midnightblue" stroke="midnightblue" points="212.454,-101.082 218.116,-92.1273 208.106,-95.5965 212.454,-101.082"/>
</g>
<!-- Node31&#45;&gt;Node5 -->
<g id="edge40" class="edge"><title>Node31&#45;&gt;Node5</title>
<path fill="none" stroke="midnightblue" d="M1227.99,-206.638C1228.44,-190.17 1231.76,-154.653 1251,-134 1303.1,-78.0832 1538.85,-35.5149 1625.73,-21.4753"/>
<polygon fill="midnightblue" stroke="midnightblue" points="1626.47,-24.9007 1635.8,-19.8686 1625.37,-17.9882 1626.47,-24.9007"/>
</g>
<!-- Node31&#45;&gt;Node6 -->
<g id="edge38" class="edge"><title>Node31&#45;&gt;Node6</title>
<path fill="none" stroke="midnightblue" d="M1223.5,-206.719C1211.5,-181.945 1181.78,-110.484 1214,-67 1245.15,-24.9669 1310.43,-16.723 1349.2,-15.7677"/>
<polygon fill="midnightblue" stroke="midnightblue" points="1349.42,-19.2659 1359.38,-15.6696 1349.35,-12.2662 1349.42,-19.2659"/>
</g>
<!-- Node31&#45;&gt;Node9 -->
<g id="edge42" class="edge"><title>Node31&#45;&gt;Node9</title>
<path fill="none" stroke="midnightblue" d="M1231.39,-206.997C1238.56,-190.168 1256.96,-152.635 1285,-134 1329.52,-104.419 1388.36,-91.8138 1435.9,-86.5941"/>
<polygon fill="midnightblue" stroke="midnightblue" points="1436.26,-90.0751 1445.86,-85.5889 1435.56,-83.1104 1436.26,-90.0751"/>
</g>
<!-- Node31&#45;&gt;Node20 -->
<g id="edge39" class="edge"><title>Node31&#45;&gt;Node20</title>
<path fill="none" stroke="midnightblue" d="M1240.41,-206.734C1255.58,-196.013 1281.48,-177.716 1299.6,-164.914"/>
<polygon fill="midnightblue" stroke="midnightblue" points="1301.64,-167.756 1307.79,-159.127 1297.6,-162.039 1301.64,-167.756"/>
</g>
<!-- Node31&#45;&gt;Node21 -->
<g id="edge41" class="edge"><title>Node31&#45;&gt;Node21</title>
<path fill="none" stroke="midnightblue" d="M1251.64,-206.869C1282.71,-195.522 1337.47,-175.525 1372.72,-162.652"/>
<polygon fill="midnightblue" stroke="midnightblue" points="1374.36,-165.782 1382.55,-159.064 1371.95,-159.206 1374.36,-165.782"/>
</g>
<!-- Node32 -->
<g id="node32" class="node"><title>Node32</title>
<g id="a_node32"><a xlink:href="QualityObject_8h_source.html" target="_top" xlink:title="QualityControl/QualityObject.h">
<polygon fill="none" stroke="black" points="827.5,-140 827.5,-159 976.5,-159 976.5,-140 827.5,-140"/>
<text text-anchor="middle" x="902" y="-147" font-family="Helvetica,sans-Serif" font-size="10.00">QualityControl/QualityObject.h</text>
</a>
</g>
</g>
<!-- Node31&#45;&gt;Node32 -->
<g id="edge43" class="edge"><title>Node31&#45;&gt;Node32</title>
<path fill="none" stroke="midnightblue" d="M1185.05,-206.936C1125.72,-195.106 1018.78,-173.784 954.693,-161.006"/>
<polygon fill="midnightblue" stroke="midnightblue" points="955.281,-157.555 944.79,-159.032 953.912,-164.42 955.281,-157.555"/>
</g>
<!-- Node31&#45;&gt;Node36 -->
<g id="edge51" class="edge"><title>Node31&#45;&gt;Node36</title>
<path fill="none" stroke="midnightblue" d="M1149.63,-206.988C1067,-197.747 933.113,-182.014 818,-165 809.278,-163.711 800.066,-162.236 791.064,-160.733"/>
<polygon fill="midnightblue" stroke="midnightblue" points="791.473,-157.252 781.028,-159.031 790.302,-164.153 791.473,-157.252"/>
</g>
<!-- Node32&#45;&gt;Node14 -->
<g id="edge45" class="edge"><title>Node32&#45;&gt;Node14</title>
<path fill="none" stroke="midnightblue" d="M916.296,-139.734C934.017,-128.867 964.432,-110.216 985.344,-97.3931"/>
<polygon fill="midnightblue" stroke="midnightblue" points="987.236,-100.339 993.931,-92.1273 983.576,-94.3712 987.236,-100.339"/>
</g>
<!-- Node32&#45;&gt;Node23 -->
<g id="edge46" class="edge"><title>Node32&#45;&gt;Node23</title>
<path fill="none" stroke="midnightblue" d="M873.317,-139.869C834.964,-128.327 766.869,-107.835 724.201,-94.9956"/>
<polygon fill="midnightblue" stroke="midnightblue" points="725.042,-91.5938 714.458,-92.0637 723.025,-98.2969 725.042,-91.5938"/>
</g>
<!-- Node33 -->
<g id="node33" class="node"><title>Node33</title>
<polygon fill="none" stroke="#bfbfbf" points="805.5,-6 805.5,-25 840.5,-25 840.5,-6 805.5,-6"/>
<text text-anchor="middle" x="823" y="-13" font-family="Helvetica,sans-Serif" font-size="10.00">map</text>
</g>
<!-- Node32&#45;&gt;Node33 -->
<g id="edge44" class="edge"><title>Node32&#45;&gt;Node33</title>
<path fill="none" stroke="midnightblue" d="M903.058,-139.948C904.563,-124.293 905.777,-90.4849 892,-67 882.234,-50.3526 864.59,-37.5891 849.589,-29.0582"/>
<polygon fill="midnightblue" stroke="midnightblue" points="851.154,-25.9258 840.685,-24.2967 847.853,-32.0987 851.154,-25.9258"/>
</g>
<!-- Node34 -->
<g id="node34" class="node"><title>Node34</title>
<g id="a_node34"><a xlink:href="Quality_8h.html" target="_top" xlink:title="QualityControl/Quality.h">
<polygon fill="none" stroke="black" points="762.5,-73 762.5,-92 883.5,-92 883.5,-73 762.5,-73"/>
<text text-anchor="middle" x="823" y="-80" font-family="Helvetica,sans-Serif" font-size="10.00">QualityControl/Quality.h</text>
</a>
</g>
</g>
<!-- Node32&#45;&gt;Node34 -->
<g id="edge47" class="edge"><title>Node32&#45;&gt;Node34</title>
<path fill="none" stroke="midnightblue" d="M891.346,-139.734C878.553,-129.208 856.884,-111.379 841.373,-98.6174"/>
<polygon fill="midnightblue" stroke="midnightblue" points="843.431,-95.7782 833.485,-92.1273 838.984,-101.184 843.431,-95.7782"/>
</g>
<!-- Node34&#45;&gt;Node6 -->
<g id="edge49" class="edge"><title>Node34&#45;&gt;Node6</title>
<path fill="none" stroke="midnightblue" d="M863.761,-72.9544C874.836,-70.8145 886.85,-68.6587 898,-67 1067.35,-41.806 1272.02,-24.7565 1348.86,-18.8223"/>
<polygon fill="midnightblue" stroke="midnightblue" points="1349.54,-22.2802 1359.25,-18.0278 1349.01,-15.3006 1349.54,-22.2802"/>
</g>
<!-- Node34&#45;&gt;Node33 -->
<g id="edge50" class="edge"><title>Node34&#45;&gt;Node33</title>
<path fill="none" stroke="midnightblue" d="M823,-72.7338C823,-63.1826 823,-47.6183 823,-35.2829"/>
<polygon fill="midnightblue" stroke="midnightblue" points="826.5,-35.1273 823,-25.1273 819.5,-35.1273 826.5,-35.1273"/>
</g>
<!-- Node35 -->
<g id="node35" class="node"><title>Node35</title>
<polygon fill="none" stroke="#bfbfbf" points="633,-6 633,-25 689,-25 689,-6 633,-6"/>
<text text-anchor="middle" x="661" y="-13" font-family="Helvetica,sans-Serif" font-size="10.00">Rtypes.h</text>
</g>
<!-- Node34&#45;&gt;Node35 -->
<g id="edge48" class="edge"><title>Node34&#45;&gt;Node35</title>
<path fill="none" stroke="midnightblue" d="M801.488,-72.8685C773.33,-61.5706 723.796,-41.6961 691.701,-28.8183"/>
<polygon fill="midnightblue" stroke="midnightblue" points="692.927,-25.5392 682.343,-25.0637 690.321,-32.0358 692.927,-25.5392"/>
</g>
<!-- Node36&#45;&gt;Node6 -->
<g id="edge52" class="edge"><title>Node36&#45;&gt;Node6</title>
<path fill="none" stroke="midnightblue" d="M763.046,-139.916C794.905,-130.338 847.436,-114.068 892,-98 926.705,-85.4869 933.278,-76.2165 969,-67 1107.76,-31.1989 1279.62,-20.5329 1348.9,-17.5652"/>
<polygon fill="midnightblue" stroke="midnightblue" points="1349.27,-21.0533 1359.12,-17.1523 1348.98,-14.059 1349.27,-21.0533"/>
</g>
<!-- Node36&#45;&gt;Node14 -->
<g id="edge55" class="edge"><title>Node36&#45;&gt;Node14</title>
<path fill="none" stroke="midnightblue" d="M770.102,-139.936C821.434,-127.758 915.171,-105.522 968.369,-92.9016"/>
<polygon fill="midnightblue" stroke="midnightblue" points="969.205,-96.3004 978.127,-90.5867 967.589,-89.4895 969.205,-96.3004"/>
</g>
<!-- Node36&#45;&gt;Node23 -->
<g id="edge56" class="edge"><title>Node36&#45;&gt;Node23</title>
<path fill="none" stroke="midnightblue" d="M727.527,-139.734C720.113,-129.695 707.795,-113.014 698.496,-100.421"/>
<polygon fill="midnightblue" stroke="midnightblue" points="701.127,-98.0925 692.371,-92.1273 695.496,-102.251 701.127,-98.0925"/>
</g>
<!-- Node36&#45;&gt;Node33 -->
<g id="edge53" class="edge"><title>Node36&#45;&gt;Node33</title>
<path fill="none" stroke="midnightblue" d="M701.001,-139.966C658.239,-127.304 592.154,-101.302 619,-67 640.578,-39.4288 744.455,-24.8147 795.108,-19.226"/>
<polygon fill="midnightblue" stroke="midnightblue" points="795.77,-22.6755 805.345,-18.14 795.031,-15.7145 795.77,-22.6755"/>
</g>
<!-- Node36&#45;&gt;Node35 -->
<g id="edge54" class="edge"><title>Node36&#45;&gt;Node35</title>
<path fill="none" stroke="midnightblue" d="M692.503,-139.974C653.29,-130.975 598.637,-115.664 586,-98 577.984,-86.7944 579.527,-79.1624 586,-67 595.063,-49.9721 612.706,-37.6556 628.604,-29.4509"/>
<polygon fill="midnightblue" stroke="midnightblue" points="630.185,-32.5744 637.685,-25.0907 627.155,-26.2641 630.185,-32.5744"/>
</g>
</g>
</svg>
        <g id="navigator" transform="translate(0 0)" fill="#404254">
                <rect fill="#f2f5e9" fill-opacity="0.5" stroke="#606060" stroke-width=".5" x="0" y="0" width="60" height="60"/>
                <use id="zoomplus" xlink:href="#zoomPlus" x="17" y="9" onmousedown="handleZoom(evt,'in')"/>
                <use id="zoomminus" xlink:href="#zoomMin" x="42" y="9" onmousedown="handleZoom(evt,'out')"/>
                <use id="reset" xlink:href="#resetDef" x="30" y="36" onmousedown="handleReset()"/>
                <g id="arrowUp" xlink:href="#dirArrow" transform="translate(30 24)" onmousedown="handlePan(0,-1)">
                  <use xlink:href="#rim" fill="#404040">
                        <set attributeName="fill" to="#808080" begin="arrowUp.mouseover" end="arrowUp.mouseout"/>
                  </use>
                  <path fill="none" stroke="white" stroke-width="1.5" d="M0,-3.0v7 M-2.5,-0.5L0,-3.0L2.5,-0.5"/>
                </g>
                <g id="arrowRight" xlink:href="#dirArrow" transform="rotate(90) translate(36 -43)" onmousedown="handlePan(1,0)">
                  <use xlink:href="#rim" fill="#404040">
                        <set attributeName="fill" to="#808080" begin="arrowRight.mouseover" end="arrowRight.mouseout"/>
                  </use>
                  <path fill="none" stroke="white" stroke-width="1.5" d="M0,-3.0v7 M-2.5,-0.5L0,-3.0L2.5,-0.5"/>
                </g>
                <g id="arrowDown" xlink:href="#dirArrow" transform="rotate(180) translate(-30 -48)" onmousedown="handlePan(0,1)">
                  <use xlink:href="#rim" fill="#404040">
                        <set attributeName="fill" to="#808080" begin="arrowDown.mouseover" end="arrowDown.mouseout"/>
                  </use>
                  <path fill="none" stroke="white" stroke-width="1.5" d="M0,-3.0v7 M-2.5,-0.5L0,-3.0L2.5,-0.5"/>
                </g>
                <g id="arrowLeft" xlink:href="#dirArrow" transform="rotate(270) translate(-36 17)" onmousedown="handlePan(-1,0)">
                  <use xlink:href="#rim" fill="#404040">
                        <set attributeName="fill" to="#808080" begin="arrowLeft.mouseover" end="arrowLeft.mouseout"/>
                  </use>
                  <path fill="none" stroke="white" stroke-width="1.5" d="M0,-3.0v7 M-2.5,-0.5L0,-3.0L2.5,-0.5"/>
                </g>
        </g>
        <svg viewBox="0 0 15 15" width="100%" height="30px" preserveAspectRatio="xMaxYMin meet">
         <g id="arrow_out" transform="scale(0.3 0.3)">
          <a xlink:href="TrendingTaskITSThr_8cxx__incl_org.svg" target="_base">
           <rect id="button" ry="5" rx="5" y="6" x="6" height="38" width="38"
                fill="#f2f5e9" fill-opacity="0.5" stroke="#606060" stroke-width="1.0"/>
           <path id="arrow"
             d="M 11.500037,31.436501 C 11.940474,20.09759 22.043105,11.32322 32.158766,21.979434 L 37.068811,17.246167 C 37.068811,17.246167 37.088388,32 37.088388,32 L 22.160133,31.978069 C 22.160133,31.978069 26.997745,27.140456 26.997745,27.140456 C 18.528582,18.264221 13.291696,25.230495 11.500037,31.436501 z"
             style="fill:#404040;"/>
          </a>
         </g>
        </svg>
</svg>
