<?xml version="1.0" encoding="UTF-8" standalone="no"?>
<!DOCTYPE svg PUBLIC "-//W3C//DTD SVG 1.1//EN"
 "http://www.w3.org/Graphics/SVG/1.1/DTD/svg11.dtd">
<!-- Generated by graphviz version 2.38.0 (20140413.2041)
 -->
<!-- Title: Modules/ITS/src/TrendingTaskITSFhr.cxx Pages: 1 -->
<!--zoomable 307 -->
<svg id="main" version="1.1" xmlns="http://www.w3.org/2000/svg" xmlns:xlink="http://www.w3.org/1999/xlink" xml:space="preserve" onload="init(evt)">
<style type="text/css"><![CDATA[
.edge:hover path { stroke: red; }
.edge:hover polygon { stroke: red; fill: red; }
]]></style>
<script type="text/javascript"><![CDATA[
var edges = document.getElementsByTagName('g');
if (edges && edges.length) {
  for (var i=0;i<edges.length;i++) {
    if (edges[i].id.substr(0,4)=='edge') {
      edges[i].setAttribute('class','edge');
    }
  }
}
]]></script>
        <defs>
                <circle id="rim" cx="0" cy="0" r="7"/>
                <circle id="rim2" cx="0" cy="0" r="3.5"/>
                <g id="zoomPlus">
                        <use xlink:href="#rim" fill="#404040">
                                <set attributeName="fill" to="#808080" begin="zoomplus.mouseover" end="zoomplus.mouseout"/>
                        </use>
                        <path d="M-4,0h8M0,-4v8" fill="none" stroke="white" stroke-width="1.5" pointer-events="none"/>
                </g>
                <g id="zoomMin">
                        <use xlink:href="#rim" fill="#404040">
                                <set attributeName="fill" to="#808080" begin="zoomminus.mouseover" end="zoomminus.mouseout"/>
                        </use>
                        <path d="M-4,0h8" fill="none" stroke="white" stroke-width="1.5" pointer-events="none"/>
                </g>
                <g id="dirArrow">
                        <path fill="none" stroke="white" stroke-width="1.5" d="M0,-3.0v7 M-2.5,-0.5L0,-3.0L2.5,-0.5"/>
                </g>
               <g id="resetDef">
                       <use xlink:href="#rim2" fill="#404040">
                               <set attributeName="fill" to="#808080" begin="reset.mouseover" end="reset.mouseout"/>
                       </use>
               </g>
        </defs>

<script type="text/javascript">
var viewWidth = 2440;
var viewHeight = 307;
var sectionId = 'dynsection-0';
</script>
<script xlink:href="svgpan.js"/>
<svg id="graph" class="graph">
<g id="viewport">
<title>Modules/ITS/src/TrendingTaskITSFhr.cxx</title>
<!-- Node1 -->
<g id="node1" class="node"><title>Node1</title>
<polygon fill="#bfbfbf" stroke="black" points="1617.5,-268.5 1617.5,-298.5 1746.5,-298.5 1746.5,-268.5 1617.5,-268.5"/>
<text text-anchor="start" x="1625.5" y="-286.5" font-family="Helvetica,sans-Serif" font-size="10.00">Modules/ITS/src/Trending</text>
<text text-anchor="middle" x="1682" y="-275.5" font-family="Helvetica,sans-Serif" font-size="10.00">TaskITSFhr.cxx</text>
</g>
<!-- Node2 -->
<g id="node2" class="node"><title>Node2</title>
<g id="a_node2"><a xlink:href="TrendingTaskITSFhr_8h.html" target="_top" xlink:title="ITS/TrendingTaskITSFhr.h">
<polygon fill="none" stroke="black" points="462.5,-207 462.5,-226 595.5,-226 595.5,-207 462.5,-207"/>
<text text-anchor="middle" x="529" y="-214" font-family="Helvetica,sans-Serif" font-size="10.00">ITS/TrendingTaskITSFhr.h</text>
</a>
</g>
</g>
<!-- Node1&#45;&gt;Node2 -->
<g id="edge1" class="edge"><title>Node1&#45;&gt;Node2</title>
<path fill="none" stroke="midnightblue" d="M1617.12,-278.843C1418.6,-267.651 819.889,-233.899 605.995,-221.841"/>
<polygon fill="midnightblue" stroke="midnightblue" points="605.98,-218.334 595.799,-221.266 605.586,-225.323 605.98,-218.334"/>
</g>
<!-- Node6 -->
<g id="node6" class="node"><title>Node6</title>
<polygon fill="none" stroke="#bfbfbf" points="1013.5,-6 1013.5,-25 1054.5,-25 1054.5,-6 1013.5,-6"/>
<text text-anchor="middle" x="1034" y="-13" font-family="Helvetica,sans-Serif" font-size="10.00">string</text>
</g>
<!-- Node1&#45;&gt;Node6 -->
<g id="edge68" class="edge"><title>Node1&#45;&gt;Node6</title>
<path fill="none" stroke="midnightblue" d="M1617.34,-270.01C1536.65,-252.957 1395.68,-218.281 1284,-165 1262.08,-154.542 1259.55,-146.939 1239,-134 1175.47,-94.0083 1098.02,-51.1522 1059.01,-29.9608"/>
<polygon fill="midnightblue" stroke="midnightblue" points="1060.41,-26.7399 1049.95,-25.0549 1057.08,-32.8951 1060.41,-26.7399"/>
</g>
<!-- Node13 -->
<g id="node13" class="node"><title>Node13</title>
<g id="a_node13"><a xlink:href="Reductor_8h.html" target="_top" xlink:title="QualityControl/Reductor.h">
<polygon fill="none" stroke="black" points="1100,-140 1100,-159 1230,-159 1230,-140 1100,-140"/>
<text text-anchor="middle" x="1165" y="-147" font-family="Helvetica,sans-Serif" font-size="10.00">QualityControl/Reductor.h</text>
</a>
</g>
</g>
<!-- Node1&#45;&gt;Node13 -->
<g id="edge60" class="edge"><title>Node1&#45;&gt;Node13</title>
<path fill="none" stroke="midnightblue" d="M1617.46,-279.361C1515.56,-273.643 1322.57,-259.498 1260,-232 1242.28,-224.213 1203.23,-187.805 1181.11,-166.375"/>
<polygon fill="midnightblue" stroke="midnightblue" points="1183.39,-163.718 1173.79,-159.238 1178.51,-168.728 1183.39,-163.718"/>
</g>
<!-- Node22 -->
<g id="node22" class="node"><title>Node22</title>
<g id="a_node22"><a xlink:href="RootClassFactory_8h.html" target="_top" xlink:title="QualityControl/RootClass\lFactory.h">
<polygon fill="none" stroke="black" points="1704,-201.5 1704,-231.5 1832,-231.5 1832,-201.5 1704,-201.5"/>
<text text-anchor="start" x="1712" y="-219.5" font-family="Helvetica,sans-Serif" font-size="10.00">QualityControl/RootClass</text>
<text text-anchor="middle" x="1768" y="-208.5" font-family="Helvetica,sans-Serif" font-size="10.00">Factory.h</text>
</a>
</g>
</g>
<!-- Node1&#45;&gt;Node22 -->
<g id="edge28" class="edge"><title>Node1&#45;&gt;Node22</title>
<path fill="none" stroke="midnightblue" d="M1700.66,-268.396C1712.49,-259.452 1727.99,-247.737 1741.14,-237.802"/>
<polygon fill="midnightblue" stroke="midnightblue" points="1743.51,-240.398 1749.38,-231.577 1739.29,-234.814 1743.51,-240.398"/>
</g>
<!-- Node28 -->
<g id="node28" class="node"><title>Node28</title>
<g id="a_node28"><a xlink:href="QcInfoLogger_8h.html" target="_top" xlink:title="QualityControl/QcInfoLogger.h">
<polygon fill="none" stroke="black" points="2079.5,-140 2079.5,-159 2228.5,-159 2228.5,-140 2079.5,-140"/>
<text text-anchor="middle" x="2154" y="-147" font-family="Helvetica,sans-Serif" font-size="10.00">QualityControl/QcInfoLogger.h</text>
</a>
</g>
</g>
<!-- Node1&#45;&gt;Node28 -->
<g id="edge59" class="edge"><title>Node1&#45;&gt;Node28</title>
<path fill="none" stroke="midnightblue" d="M1732.07,-268.499C1826.21,-242.171 2027.84,-185.781 2113.82,-161.736"/>
<polygon fill="midnightblue" stroke="midnightblue" points="2114.79,-165.1 2123.48,-159.036 2112.9,-158.359 2114.79,-165.1"/>
</g>
<!-- Node31 -->
<g id="node31" class="node"><title>Node31</title>
<g id="a_node31"><a xlink:href="DatabaseInterface_8h.html" target="_top" xlink:title="QualityControl/DatabaseInterface.h">
<polygon fill="none" stroke="black" points="896,-207 896,-226 1066,-226 1066,-207 896,-207"/>
<text text-anchor="middle" x="981" y="-214" font-family="Helvetica,sans-Serif" font-size="10.00">QualityControl/DatabaseInterface.h</text>
</a>
</g>
</g>
<!-- Node1&#45;&gt;Node31 -->
<g id="edge38" class="edge"><title>Node1&#45;&gt;Node31</title>
<path fill="none" stroke="midnightblue" d="M1617.17,-278.603C1505.99,-271.585 1271.89,-255.347 1075,-232 1064.33,-230.735 1053.01,-229.176 1042.06,-227.554"/>
<polygon fill="midnightblue" stroke="midnightblue" points="1042.55,-224.088 1032.14,-226.054 1041.5,-231.009 1042.55,-224.088"/>
</g>
<!-- Node33 -->
<g id="node33" class="node"><title>Node33</title>
<polygon fill="none" stroke="#bfbfbf" points="1655.5,-6 1655.5,-25 1690.5,-25 1690.5,-6 1655.5,-6"/>
<text text-anchor="middle" x="1673" y="-13" font-family="Helvetica,sans-Serif" font-size="10.00">map</text>
</g>
<!-- Node1&#45;&gt;Node33 -->
<g id="edge67" class="edge"><title>Node1&#45;&gt;Node33</title>
<path fill="none" stroke="midnightblue" d="M1746.55,-269.839C1797.28,-259.809 1869.71,-245.317 1933,-232 2068.81,-203.423 2151.03,-273.155 2238,-165 2246.63,-154.263 2238.62,-147.764 2238,-134 2236.67,-104.133 2253.13,-88.1486 2232,-67 2194.13,-29.0977 1808.7,-19.0467 1700.89,-16.9675"/>
<polygon fill="midnightblue" stroke="midnightblue" points="1700.85,-13.4663 1690.79,-16.7806 1700.72,-20.4651 1700.85,-13.4663"/>
</g>
<!-- Node36 -->
<g id="node36" class="node"><title>Node36</title>
<g id="a_node36"><a xlink:href="MonitorObject_8h.html" target="_top" xlink:title="QualityControl/MonitorObject.h">
<polygon fill="none" stroke="black" points="1490.5,-140 1490.5,-159 1641.5,-159 1641.5,-140 1490.5,-140"/>
<text text-anchor="middle" x="1566" y="-147" font-family="Helvetica,sans-Serif" font-size="10.00">QualityControl/MonitorObject.h</text>
</a>
</g>
</g>
<!-- Node1&#45;&gt;Node36 -->
<g id="edge58" class="edge"><title>Node1&#45;&gt;Node36</title>
<path fill="none" stroke="midnightblue" d="M1669.59,-268.374C1647.86,-243.648 1603.07,-192.683 1580.17,-166.62"/>
<polygon fill="midnightblue" stroke="midnightblue" points="1582.79,-164.299 1573.56,-159.097 1577.53,-168.919 1582.79,-164.299"/>
</g>
<!-- Node37 -->
<g id="node37" class="node"><title>Node37</title>
<g id="a_node37"><a xlink:href="TH2XlineReductor_8h.html" target="_top" xlink:title="ITS/TH2XlineReductor.h">
<polygon fill="none" stroke="black" points="1084,-207 1084,-226 1208,-226 1208,-207 1084,-207"/>
<text text-anchor="middle" x="1146" y="-214" font-family="Helvetica,sans-Serif" font-size="10.00">ITS/TH2XlineReductor.h</text>
</a>
</g>
</g>
<!-- Node1&#45;&gt;Node37 -->
<g id="edge61" class="edge"><title>Node1&#45;&gt;Node37</title>
<path fill="none" stroke="midnightblue" d="M1617.42,-277.036C1528.23,-269.119 1362.43,-253.071 1222,-232 1214.15,-230.823 1205.88,-229.417 1197.8,-227.951"/>
<polygon fill="midnightblue" stroke="midnightblue" points="1198.18,-224.462 1187.71,-226.074 1196.9,-231.344 1198.18,-224.462"/>
</g>
<!-- Node38 -->
<g id="node38" class="node"><title>Node38</title>
<polygon fill="none" stroke="#bfbfbf" points="2224.5,-207 2224.5,-226 2289.5,-226 2289.5,-207 2224.5,-207"/>
<text text-anchor="middle" x="2257" y="-214" font-family="Helvetica,sans-Serif" font-size="10.00">TCanvas.h</text>
</g>
<!-- Node1&#45;&gt;Node38 -->
<g id="edge64" class="edge"><title>Node1&#45;&gt;Node38</title>
<path fill="none" stroke="midnightblue" d="M1746.83,-280.548C1847.04,-276.581 2045.21,-264.943 2210,-232 2214.14,-231.171 2218.44,-230.121 2222.68,-228.966"/>
<polygon fill="midnightblue" stroke="midnightblue" points="2223.75,-232.301 2232.36,-226.135 2221.78,-225.583 2223.75,-232.301"/>
</g>
<!-- Node39 -->
<g id="node39" class="node"><title>Node39</title>
<polygon fill="none" stroke="#bfbfbf" points="2308,-207 2308,-226 2352,-226 2352,-207 2308,-207"/>
<text text-anchor="middle" x="2330" y="-214" font-family="Helvetica,sans-Serif" font-size="10.00">TH1.h</text>
</g>
<!-- Node1&#45;&gt;Node39 -->
<g id="edge65" class="edge"><title>Node1&#45;&gt;Node39</title>
<path fill="none" stroke="midnightblue" d="M1746.57,-280.114C1882.91,-274.604 2196.1,-259.329 2299,-232 2300.98,-231.474 2302.99,-230.826 2304.99,-230.099"/>
<polygon fill="midnightblue" stroke="midnightblue" points="2306.8,-233.131 2314.64,-226 2304.07,-226.688 2306.8,-233.131"/>
</g>
<!-- Node40 -->
<g id="node40" class="node"><title>Node40</title>
<polygon fill="none" stroke="#bfbfbf" points="2370,-207 2370,-226 2432,-226 2432,-207 2370,-207"/>
<text text-anchor="middle" x="2401" y="-214" font-family="Helvetica,sans-Serif" font-size="10.00">TDatime.h</text>
</g>
<!-- Node1&#45;&gt;Node40 -->
<g id="edge66" class="edge"><title>Node1&#45;&gt;Node40</title>
<path fill="none" stroke="midnightblue" d="M1746.74,-279.943C1892.94,-273.802 2244.91,-256.866 2361,-232 2364.25,-231.304 2367.59,-230.404 2370.9,-229.395"/>
<polygon fill="midnightblue" stroke="midnightblue" points="2372.2,-232.647 2380.56,-226.127 2369.96,-226.017 2372.2,-232.647"/>
</g>
<!-- Node3 -->
<g id="node3" class="node"><title>Node3</title>
<g id="a_node3"><a xlink:href="TrendingTaskConfigITS_8h_source.html" target="_top" xlink:title="ITS/TrendingTaskConfigITS.h">
<polygon fill="none" stroke="black" points="572.5,-140 572.5,-159 719.5,-159 719.5,-140 572.5,-140"/>
<text text-anchor="middle" x="646" y="-147" font-family="Helvetica,sans-Serif" font-size="10.00">ITS/TrendingTaskConfigITS.h</text>
</a>
</g>
</g>
<!-- Node2&#45;&gt;Node3 -->
<g id="edge2" class="edge"><title>Node2&#45;&gt;Node3</title>
<path fill="none" stroke="midnightblue" d="M544.779,-206.734C564.515,-195.769 598.514,-176.881 621.611,-164.049"/>
<polygon fill="midnightblue" stroke="midnightblue" points="623.429,-167.043 630.471,-159.127 620.03,-160.924 623.429,-167.043"/>
</g>
<!-- Node5 -->
<g id="node5" class="node"><title>Node5</title>
<polygon fill="none" stroke="#bfbfbf" points="658,-6 658,-25 702,-25 702,-6 658,-6"/>
<text text-anchor="middle" x="680" y="-13" font-family="Helvetica,sans-Serif" font-size="10.00">vector</text>
</g>
<!-- Node2&#45;&gt;Node5 -->
<g id="edge26" class="edge"><title>Node2&#45;&gt;Node5</title>
<path fill="none" stroke="midnightblue" d="M462.444,-215.874C370.866,-214.807 213.19,-206.753 177,-165 167.976,-154.589 168.106,-144.523 177,-134 207.987,-97.3361 343.288,-109.066 390,-98 435.691,-87.1755 445.866,-79.9516 491,-67 545.907,-51.2441 610.245,-34.3938 647.923,-24.6877"/>
<polygon fill="midnightblue" stroke="midnightblue" points="648.999,-28.0251 657.814,-22.1464 647.257,-21.2453 648.999,-28.0251"/>
</g>
<!-- Node2&#45;&gt;Node6 -->
<g id="edge25" class="edge"><title>Node2&#45;&gt;Node6</title>
<path fill="none" stroke="midnightblue" d="M589.66,-206.964C630.33,-199.62 684.245,-186.682 728,-165 747.84,-155.169 746.92,-143.332 767,-134 840.59,-99.8004 873.753,-134.951 946,-98 977.209,-82.038 1005.43,-51.8272 1021.09,-33.0091"/>
<polygon fill="midnightblue" stroke="midnightblue" points="1023.98,-35.0026 1027.55,-25.0275 1018.54,-30.5987 1023.98,-35.0026"/>
</g>
<!-- Node8 -->
<g id="node8" class="node"><title>Node8</title>
<g id="a_node8"><a xlink:href="PostProcessingInterface_8h.html" target="_top" xlink:title="QualityControl/PostProcessing\lInterface.h">
<polygon fill="none" stroke="black" points="334.5,-134.5 334.5,-164.5 485.5,-164.5 485.5,-134.5 334.5,-134.5"/>
<text text-anchor="start" x="342.5" y="-152.5" font-family="Helvetica,sans-Serif" font-size="10.00">QualityControl/PostProcessing</text>
<text text-anchor="middle" x="410" y="-141.5" font-family="Helvetica,sans-Serif" font-size="10.00">Interface.h</text>
</a>
</g>
</g>
<!-- Node2&#45;&gt;Node8 -->
<g id="edge9" class="edge"><title>Node2&#45;&gt;Node8</title>
<path fill="none" stroke="midnightblue" d="M512.951,-206.734C495.554,-197.231 467.261,-181.777 444.733,-169.472"/>
<polygon fill="midnightblue" stroke="midnightblue" points="446.248,-166.311 435.794,-164.589 442.892,-172.454 446.248,-166.311"/>
</g>
<!-- Node2&#45;&gt;Node13 -->
<g id="edge17" class="edge"><title>Node2&#45;&gt;Node13</title>
<path fill="none" stroke="midnightblue" d="M595.562,-208.697C714.847,-196.506 964.256,-171.016 1089.64,-158.202"/>
<polygon fill="midnightblue" stroke="midnightblue" points="1090.32,-161.651 1099.91,-157.152 1089.61,-154.687 1090.32,-161.651"/>
</g>
<!-- Node15 -->
<g id="node15" class="node"><title>Node15</title>
<polygon fill="none" stroke="#bfbfbf" points="504,-140 504,-159 554,-159 554,-140 504,-140"/>
<text text-anchor="middle" x="529" y="-147" font-family="Helvetica,sans-Serif" font-size="10.00">TAxis.h</text>
</g>
<!-- Node2&#45;&gt;Node15 -->
<g id="edge19" class="edge"><title>Node2&#45;&gt;Node15</title>
<path fill="none" stroke="midnightblue" d="M529,-206.734C529,-197.183 529,-181.618 529,-169.283"/>
<polygon fill="midnightblue" stroke="midnightblue" points="532.5,-169.127 529,-159.127 525.5,-169.127 532.5,-169.127"/>
</g>
<!-- Node16 -->
<g id="node16" class="node"><title>Node16</title>
<polygon fill="none" stroke="#bfbfbf" points="0,-140 0,-159 54,-159 54,-140 0,-140"/>
<text text-anchor="middle" x="27" y="-147" font-family="Helvetica,sans-Serif" font-size="10.00">TColor.h</text>
</g>
<!-- Node2&#45;&gt;Node16 -->
<g id="edge20" class="edge"><title>Node2&#45;&gt;Node16</title>
<path fill="none" stroke="midnightblue" d="M462.4,-214.011C371.045,-210.679 202.326,-199.897 63,-165 60.3345,-164.332 57.6047,-163.509 54.8987,-162.598"/>
<polygon fill="midnightblue" stroke="midnightblue" points="55.9523,-159.255 45.36,-159.025 53.4971,-165.81 55.9523,-159.255"/>
</g>
<!-- Node17 -->
<g id="node17" class="node"><title>Node17</title>
<polygon fill="none" stroke="#bfbfbf" points="72.5,-140 72.5,-159 129.5,-159 129.5,-140 72.5,-140"/>
<text text-anchor="middle" x="101" y="-147" font-family="Helvetica,sans-Serif" font-size="10.00">TGraph.h</text>
</g>
<!-- Node2&#45;&gt;Node17 -->
<g id="edge21" class="edge"><title>Node2&#45;&gt;Node17</title>
<path fill="none" stroke="midnightblue" d="M462.216,-210.711C384.874,-204.253 253.999,-190.504 144,-165 140.518,-164.193 136.919,-163.216 133.354,-162.155"/>
<polygon fill="midnightblue" stroke="midnightblue" points="134.115,-158.724 123.524,-159.015 131.985,-165.392 134.115,-158.724"/>
</g>
<!-- Node18 -->
<g id="node18" class="node"><title>Node18</title>
<polygon fill="none" stroke="#bfbfbf" points="186,-140 186,-159 248,-159 248,-140 186,-140"/>
<text text-anchor="middle" x="217" y="-147" font-family="Helvetica,sans-Serif" font-size="10.00">TLegend.h</text>
</g>
<!-- Node2&#45;&gt;Node18 -->
<g id="edge22" class="edge"><title>Node2&#45;&gt;Node18</title>
<path fill="none" stroke="midnightblue" d="M467.044,-206.964C411.486,-198.61 328.022,-184.325 257,-165 254.194,-164.236 251.304,-163.365 248.424,-162.436"/>
<polygon fill="midnightblue" stroke="midnightblue" points="249.393,-159.068 238.798,-159.135 247.122,-165.69 249.393,-159.068"/>
</g>
<!-- Node19 -->
<g id="node19" class="node"><title>Node19</title>
<polygon fill="none" stroke="#bfbfbf" points="266,-140 266,-159 316,-159 316,-140 266,-140"/>
<text text-anchor="middle" x="291" y="-147" font-family="Helvetica,sans-Serif" font-size="10.00">TTree.h</text>
</g>
<!-- Node2&#45;&gt;Node19 -->
<g id="edge23" class="edge"><title>Node2&#45;&gt;Node19</title>
<path fill="none" stroke="midnightblue" d="M485.841,-206.923C444.153,-198.147 379.495,-183.234 325,-165 323.083,-164.359 321.123,-163.655 319.16,-162.916"/>
<polygon fill="midnightblue" stroke="midnightblue" points="320.081,-159.514 309.498,-159.025 317.466,-166.007 320.081,-159.514"/>
</g>
<!-- Node20 -->
<g id="node20" class="node"><title>Node20</title>
<polygon fill="none" stroke="#bfbfbf" points="776,-140 776,-159 828,-159 828,-140 776,-140"/>
<text text-anchor="middle" x="802" y="-147" font-family="Helvetica,sans-Serif" font-size="10.00">memory</text>
</g>
<!-- Node2&#45;&gt;Node20 -->
<g id="edge24" class="edge"><title>Node2&#45;&gt;Node20</title>
<path fill="none" stroke="midnightblue" d="M577.666,-206.927C625.134,-198.102 699.161,-183.111 762,-165 764.795,-164.195 767.676,-163.294 770.551,-162.346"/>
<polygon fill="midnightblue" stroke="midnightblue" points="771.865,-165.595 780.168,-159.014 769.573,-158.981 771.865,-165.595"/>
</g>
<!-- Node21 -->
<g id="node21" class="node"><title>Node21</title>
<polygon fill="none" stroke="#bfbfbf" points="846.5,-140 846.5,-159 929.5,-159 929.5,-140 846.5,-140"/>
<text text-anchor="middle" x="888" y="-147" font-family="Helvetica,sans-Serif" font-size="10.00">unordered_map</text>
</g>
<!-- Node2&#45;&gt;Node21 -->
<g id="edge27" class="edge"><title>Node2&#45;&gt;Node21</title>
<path fill="none" stroke="midnightblue" d="M594.609,-206.963C657.25,-198.29 754.106,-183.516 837,-165 841.363,-164.026 845.905,-162.899 850.403,-161.713"/>
<polygon fill="midnightblue" stroke="midnightblue" points="851.37,-165.077 860.089,-159.058 849.52,-158.326 851.37,-165.077"/>
</g>
<!-- Node4 -->
<g id="node4" class="node"><title>Node4</title>
<g id="a_node4"><a xlink:href="PostProcessingConfig_8h.html" target="_top" xlink:title="QualityControl/PostProcessing\lConfig.h">
<polygon fill="none" stroke="black" points="500.5,-67.5 500.5,-97.5 651.5,-97.5 651.5,-67.5 500.5,-67.5"/>
<text text-anchor="start" x="508.5" y="-85.5" font-family="Helvetica,sans-Serif" font-size="10.00">QualityControl/PostProcessing</text>
<text text-anchor="middle" x="576" y="-74.5" font-family="Helvetica,sans-Serif" font-size="10.00">Config.h</text>
</a>
</g>
</g>
<!-- Node3&#45;&gt;Node4 -->
<g id="edge3" class="edge"><title>Node3&#45;&gt;Node4</title>
<path fill="none" stroke="midnightblue" d="M636.559,-139.734C626.917,-130.78 611.585,-116.543 598.76,-104.635"/>
<polygon fill="midnightblue" stroke="midnightblue" points="600.882,-101.829 591.173,-97.589 596.119,-106.958 600.882,-101.829"/>
</g>
<!-- Node3&#45;&gt;Node5 -->
<g id="edge8" class="edge"><title>Node3&#45;&gt;Node5</title>
<path fill="none" stroke="midnightblue" d="M648.456,-139.943C651.315,-129.916 656.137,-112.788 660,-98 665.625,-76.4683 671.658,-51.6155 675.609,-35.0707"/>
<polygon fill="midnightblue" stroke="midnightblue" points="679.075,-35.6251 677.982,-25.0869 672.265,-34.0068 679.075,-35.6251"/>
</g>
<!-- Node3&#45;&gt;Node6 -->
<g id="edge7" class="edge"><title>Node3&#45;&gt;Node6</title>
<path fill="none" stroke="midnightblue" d="M693.939,-139.951C762.383,-127.601 881.98,-105.435 901,-98 944.579,-80.9649 989.918,-49.7993 1014.79,-31.3373"/>
<polygon fill="midnightblue" stroke="midnightblue" points="1017.11,-33.9739 1022.99,-25.1599 1012.89,-28.3838 1017.11,-33.9739"/>
</g>
<!-- Node4&#45;&gt;Node5 -->
<g id="edge4" class="edge"><title>Node4&#45;&gt;Node5</title>
<path fill="none" stroke="midnightblue" d="M598.566,-67.396C616.007,-56.4956 640.034,-41.4787 657.466,-30.5835"/>
<polygon fill="midnightblue" stroke="midnightblue" points="659.764,-33.275 666.389,-25.007 656.054,-27.339 659.764,-33.275"/>
</g>
<!-- Node4&#45;&gt;Node6 -->
<g id="edge5" class="edge"><title>Node4&#45;&gt;Node6</title>
<path fill="none" stroke="midnightblue" d="M651.629,-70.7666C753.854,-56.2587 931.542,-31.041 1002.96,-20.9048"/>
<polygon fill="midnightblue" stroke="midnightblue" points="1003.69,-24.337 1013.1,-19.4665 1002.7,-17.4064 1003.69,-24.337"/>
</g>
<!-- Node7 -->
<g id="node7" class="node"><title>Node7</title>
<polygon fill="none" stroke="#bfbfbf" points="463.5,-0.5 463.5,-30.5 564.5,-30.5 564.5,-0.5 463.5,-0.5"/>
<text text-anchor="start" x="471.5" y="-18.5" font-family="Helvetica,sans-Serif" font-size="10.00">boost/property_tree</text>
<text text-anchor="middle" x="514" y="-7.5" font-family="Helvetica,sans-Serif" font-size="10.00">/ptree_fwd.hpp</text>
</g>
<!-- Node4&#45;&gt;Node7 -->
<g id="edge6" class="edge"><title>Node4&#45;&gt;Node7</title>
<path fill="none" stroke="midnightblue" d="M562.547,-67.396C554.341,-58.7931 543.689,-47.626 534.455,-37.9448"/>
<polygon fill="midnightblue" stroke="midnightblue" points="536.862,-35.3969 527.427,-30.5765 531.796,-40.2284 536.862,-35.3969"/>
</g>
<!-- Node8&#45;&gt;Node6 -->
<g id="edge10" class="edge"><title>Node8&#45;&gt;Node6</title>
<path fill="none" stroke="midnightblue" d="M485.509,-134.824C546.75,-123.439 627.975,-107.593 660,-98 695.34,-87.4143 701.5,-77.0385 737,-67 832.075,-40.1149 948.557,-25.4095 1003.08,-19.548"/>
<polygon fill="midnightblue" stroke="midnightblue" points="1003.56,-23.0175 1013.14,-18.4926 1002.83,-16.0558 1003.56,-23.0175"/>
</g>
<!-- Node8&#45;&gt;Node7 -->
<g id="edge12" class="edge"><title>Node8&#45;&gt;Node7</title>
<path fill="none" stroke="midnightblue" d="M421.13,-134.374C439.192,-111.448 475.027,-65.9659 496.517,-38.6894"/>
<polygon fill="midnightblue" stroke="midnightblue" points="499.511,-40.5457 502.95,-30.5247 494.012,-36.2136 499.511,-40.5457"/>
</g>
<!-- Node9 -->
<g id="node9" class="node"><title>Node9</title>
<polygon fill="none" stroke="#bfbfbf" points="746,-73 746,-92 892,-92 892,-73 746,-73"/>
<text text-anchor="middle" x="819" y="-80" font-family="Helvetica,sans-Serif" font-size="10.00">Framework/ServiceRegistry.h</text>
</g>
<!-- Node8&#45;&gt;Node9 -->
<g id="edge11" class="edge"><title>Node8&#45;&gt;Node9</title>
<path fill="none" stroke="midnightblue" d="M485.532,-135.542C488.73,-135.016 491.896,-134.5 495,-134 600.183,-117.041 626.785,-114.758 732,-98 740.57,-96.635 749.609,-95.1638 758.49,-93.7003"/>
<polygon fill="midnightblue" stroke="midnightblue" points="759.121,-97.1434 768.415,-92.0572 757.978,-90.2374 759.121,-97.1434"/>
</g>
<!-- Node10 -->
<g id="node10" class="node"><title>Node10</title>
<g id="a_node10"><a xlink:href="Triggers_8h.html" target="_top" xlink:title="QualityControl/Triggers.h">
<polygon fill="none" stroke="black" points="256.5,-73 256.5,-92 381.5,-92 381.5,-73 256.5,-73"/>
<text text-anchor="middle" x="319" y="-80" font-family="Helvetica,sans-Serif" font-size="10.00">QualityControl/Triggers.h</text>
</a>
</g>
</g>
<!-- Node8&#45;&gt;Node10 -->
<g id="edge13" class="edge"><title>Node8&#45;&gt;Node10</title>
<path fill="none" stroke="midnightblue" d="M390.254,-134.396C375.135,-123.597 354.359,-108.756 339.142,-97.8872"/>
<polygon fill="midnightblue" stroke="midnightblue" points="341.082,-94.9714 330.91,-92.007 337.013,-100.667 341.082,-94.9714"/>
</g>
<!-- Node10&#45;&gt;Node6 -->
<g id="edge14" class="edge"><title>Node10&#45;&gt;Node6</title>
<path fill="none" stroke="midnightblue" d="M381.512,-75.817C529.053,-62.4042 894.672,-29.1661 1003.17,-19.3025"/>
<polygon fill="midnightblue" stroke="midnightblue" points="1003.78,-22.7618 1013.42,-18.3707 1003.15,-15.7905 1003.78,-22.7618"/>
</g>
<!-- Node11 -->
<g id="node11" class="node"><title>Node11</title>
<polygon fill="none" stroke="#bfbfbf" points="324.5,-6 324.5,-25 383.5,-25 383.5,-6 324.5,-6"/>
<text text-anchor="middle" x="354" y="-13" font-family="Helvetica,sans-Serif" font-size="10.00">functional</text>
</g>
<!-- Node10&#45;&gt;Node11 -->
<g id="edge15" class="edge"><title>Node10&#45;&gt;Node11</title>
<path fill="none" stroke="midnightblue" d="M323.72,-72.7338C329.021,-62.8903 337.76,-46.6598 344.491,-34.1594"/>
<polygon fill="midnightblue" stroke="midnightblue" points="347.695,-35.5914 349.355,-25.1273 341.532,-32.2727 347.695,-35.5914"/>
</g>
<!-- Node12 -->
<g id="node12" class="node"><title>Node12</title>
<polygon fill="none" stroke="#bfbfbf" points="261.5,-6 261.5,-25 306.5,-25 306.5,-6 261.5,-6"/>
<text text-anchor="middle" x="284" y="-13" font-family="Helvetica,sans-Serif" font-size="10.00">iosfwd</text>
</g>
<!-- Node10&#45;&gt;Node12 -->
<g id="edge16" class="edge"><title>Node10&#45;&gt;Node12</title>
<path fill="none" stroke="midnightblue" d="M314.28,-72.7338C308.979,-62.8903 300.24,-46.6598 293.509,-34.1594"/>
<polygon fill="midnightblue" stroke="midnightblue" points="296.468,-32.2727 288.645,-25.1273 290.305,-35.5914 296.468,-32.2727"/>
</g>
<!-- Node14 -->
<g id="node14" class="node"><title>Node14</title>
<polygon fill="none" stroke="#bfbfbf" points="1302.5,-73 1302.5,-92 1361.5,-92 1361.5,-73 1302.5,-73"/>
<text text-anchor="middle" x="1332" y="-80" font-family="Helvetica,sans-Serif" font-size="10.00">TObject.h</text>
</g>
<!-- Node13&#45;&gt;Node14 -->
<g id="edge18" class="edge"><title>Node13&#45;&gt;Node14</title>
<path fill="none" stroke="midnightblue" d="M1187.18,-139.869C1216.2,-128.571 1267.27,-108.696 1300.35,-95.8183"/>
<polygon fill="midnightblue" stroke="midnightblue" points="1301.95,-98.9525 1310,-92.0637 1299.41,-92.4292 1301.95,-98.9525"/>
</g>
<!-- Node22&#45;&gt;Node6 -->
<g id="edge29" class="edge"><title>Node22&#45;&gt;Node6</title>
<path fill="none" stroke="midnightblue" d="M1703.67,-214.995C1594.29,-213.057 1377.75,-204.218 1314,-165 1269.69,-137.742 1292.61,-96.8425 1250,-67 1193.32,-27.3032 1109.79,-18.4532 1065.03,-16.7045"/>
<polygon fill="midnightblue" stroke="midnightblue" points="1064.88,-13.1987 1054.79,-16.4034 1064.68,-20.1957 1064.88,-13.1987"/>
</g>
<!-- Node23 -->
<g id="node23" class="node"><title>Node23</title>
<polygon fill="none" stroke="#bfbfbf" points="1634,-73 1634,-92 1750,-92 1750,-73 1634,-73"/>
<text text-anchor="middle" x="1692" y="-80" font-family="Helvetica,sans-Serif" font-size="10.00">Common/Exceptions.h</text>
</g>
<!-- Node22&#45;&gt;Node23 -->
<g id="edge30" class="edge"><title>Node22&#45;&gt;Node23</title>
<path fill="none" stroke="midnightblue" d="M1730.69,-201.359C1714.85,-193.277 1697.99,-181.419 1689,-165 1678.34,-145.542 1681.86,-119.374 1686.18,-101.997"/>
<polygon fill="midnightblue" stroke="midnightblue" points="1689.66,-102.582 1689.01,-92.0069 1682.92,-100.679 1689.66,-102.582"/>
</g>
<!-- Node24 -->
<g id="node24" class="node"><title>Node24</title>
<polygon fill="none" stroke="#bfbfbf" points="2006,-140 2006,-159 2062,-159 2062,-140 2006,-140"/>
<text text-anchor="middle" x="2034" y="-147" font-family="Helvetica,sans-Serif" font-size="10.00">TClass.h</text>
</g>
<!-- Node22&#45;&gt;Node24 -->
<g id="edge31" class="edge"><title>Node22&#45;&gt;Node24</title>
<path fill="none" stroke="midnightblue" d="M1832.36,-204.102C1878.64,-195.231 1942.27,-181.645 1997,-165 1999.43,-164.262 2001.92,-163.437 2004.41,-162.566"/>
<polygon fill="midnightblue" stroke="midnightblue" points="2005.69,-165.822 2013.85,-159.057 2003.25,-159.261 2005.69,-165.822"/>
</g>
<!-- Node25 -->
<g id="node25" class="node"><title>Node25</title>
<polygon fill="none" stroke="#bfbfbf" points="1698.5,-140 1698.5,-159 1757.5,-159 1757.5,-140 1698.5,-140"/>
<text text-anchor="middle" x="1728" y="-147" font-family="Helvetica,sans-Serif" font-size="10.00">TROOT.h</text>
</g>
<!-- Node22&#45;&gt;Node25 -->
<g id="edge32" class="edge"><title>Node22&#45;&gt;Node25</title>
<path fill="none" stroke="midnightblue" d="M1759.32,-201.396C1753.27,-191.562 1745.16,-178.378 1738.7,-167.892"/>
<polygon fill="midnightblue" stroke="midnightblue" points="1741.57,-165.877 1733.35,-159.195 1735.61,-169.545 1741.57,-165.877"/>
</g>
<!-- Node26 -->
<g id="node26" class="node"><title>Node26</title>
<polygon fill="none" stroke="#bfbfbf" points="1775.5,-140 1775.5,-159 1840.5,-159 1840.5,-140 1775.5,-140"/>
<text text-anchor="middle" x="1808" y="-147" font-family="Helvetica,sans-Serif" font-size="10.00">TSystem.h</text>
</g>
<!-- Node22&#45;&gt;Node26 -->
<g id="edge33" class="edge"><title>Node22&#45;&gt;Node26</title>
<path fill="none" stroke="midnightblue" d="M1776.68,-201.396C1782.73,-191.562 1790.84,-178.378 1797.3,-167.892"/>
<polygon fill="midnightblue" stroke="midnightblue" points="1800.39,-169.545 1802.65,-159.195 1794.43,-165.877 1800.39,-169.545"/>
</g>
<!-- Node27 -->
<g id="node27" class="node"><title>Node27</title>
<polygon fill="none" stroke="#bfbfbf" points="1858.5,-140 1858.5,-159 1987.5,-159 1987.5,-140 1858.5,-140"/>
<text text-anchor="middle" x="1923" y="-147" font-family="Helvetica,sans-Serif" font-size="10.00">boost/filesystem/path.hpp</text>
</g>
<!-- Node22&#45;&gt;Node27 -->
<g id="edge34" class="edge"><title>Node22&#45;&gt;Node27</title>
<path fill="none" stroke="midnightblue" d="M1801.63,-201.396C1828.95,-189.941 1867.11,-173.938 1893.31,-162.952"/>
<polygon fill="midnightblue" stroke="midnightblue" points="1894.85,-166.102 1902.71,-159.007 1892.14,-159.647 1894.85,-166.102"/>
</g>
<!-- Node22&#45;&gt;Node28 -->
<g id="edge35" class="edge"><title>Node22&#45;&gt;Node28</title>
<path fill="none" stroke="midnightblue" d="M1832.16,-204.956C1893.51,-194.839 1988.6,-179.065 2071,-165 2078.89,-163.653 2087.21,-162.219 2095.4,-160.796"/>
<polygon fill="midnightblue" stroke="midnightblue" points="2096.04,-164.237 2105.29,-159.074 2094.84,-157.341 2096.04,-164.237"/>
</g>
<!-- Node29 -->
<g id="node29" class="node"><title>Node29</title>
<polygon fill="none" stroke="#bfbfbf" points="2093,-73 2093,-92 2223,-92 2223,-73 2093,-73"/>
<text text-anchor="middle" x="2158" y="-80" font-family="Helvetica,sans-Serif" font-size="10.00">InfoLogger/InfoLogger.hxx</text>
</g>
<!-- Node28&#45;&gt;Node29 -->
<g id="edge36" class="edge"><title>Node28&#45;&gt;Node29</title>
<path fill="none" stroke="midnightblue" d="M2154.54,-139.734C2155.13,-130.183 2156.09,-114.618 2156.84,-102.283"/>
<polygon fill="midnightblue" stroke="midnightblue" points="2160.35,-102.323 2157.47,-92.1273 2153.36,-101.893 2160.35,-102.323"/>
</g>
<!-- Node30 -->
<g id="node30" class="node"><title>Node30</title>
<polygon fill="none" stroke="#bfbfbf" points="1913,-73 1913,-92 2075,-92 2075,-73 1913,-73"/>
<text text-anchor="middle" x="1994" y="-80" font-family="Helvetica,sans-Serif" font-size="10.00">InfoLogger/InfoLoggerMacros.hxx</text>
</g>
<!-- Node28&#45;&gt;Node30 -->
<g id="edge37" class="edge"><title>Node28&#45;&gt;Node30</title>
<path fill="none" stroke="midnightblue" d="M2132.75,-139.869C2105.06,-128.619 2056.44,-108.867 2024.73,-95.9853"/>
<polygon fill="midnightblue" stroke="midnightblue" points="2025.66,-92.5849 2015.08,-92.0637 2023.03,-99.0701 2025.66,-92.5849"/>
</g>
<!-- Node31&#45;&gt;Node5 -->
<g id="edge41" class="edge"><title>Node31&#45;&gt;Node5</title>
<path fill="none" stroke="midnightblue" d="M980.722,-206.899C979.905,-191.453 976.685,-158.357 964,-134 945.12,-97.7473 936.463,-87.324 901,-67 840.304,-32.2152 757.35,-21.3889 712.309,-18.0204"/>
<polygon fill="midnightblue" stroke="midnightblue" points="712.45,-14.5221 702.238,-17.3456 711.982,-21.5065 712.45,-14.5221"/>
</g>
<!-- Node31&#45;&gt;Node6 -->
<g id="edge39" class="edge"><title>Node31&#45;&gt;Node6</title>
<path fill="none" stroke="midnightblue" d="M987.397,-206.676C994.116,-196.957 1004.46,-180.627 1010,-165 1025.88,-120.218 1031.31,-64.0855 1033.12,-35.3531"/>
<polygon fill="midnightblue" stroke="midnightblue" points="1036.63,-35.3158 1033.68,-25.1388 1029.64,-34.9316 1036.63,-35.3158"/>
</g>
<!-- Node31&#45;&gt;Node9 -->
<g id="edge43" class="edge"><title>Node31&#45;&gt;Node9</title>
<path fill="none" stroke="midnightblue" d="M978.521,-206.663C973.494,-190.237 960.614,-154.787 938,-134 917.596,-115.245 889.188,-102.833 865.245,-95.0091"/>
<polygon fill="midnightblue" stroke="midnightblue" points="866.223,-91.6481 855.635,-92.0318 864.151,-98.3346 866.223,-91.6481"/>
</g>
<!-- Node31&#45;&gt;Node20 -->
<g id="edge40" class="edge"><title>Node31&#45;&gt;Node20</title>
<path fill="none" stroke="midnightblue" d="M955.353,-206.985C926.433,-197.272 878.08,-180.699 837,-165 835.353,-164.37 833.666,-163.714 831.968,-163.042"/>
<polygon fill="midnightblue" stroke="midnightblue" points="832.865,-159.63 822.282,-159.126 830.24,-166.119 832.865,-159.63"/>
</g>
<!-- Node31&#45;&gt;Node21 -->
<g id="edge42" class="edge"><title>Node31&#45;&gt;Node21</title>
<path fill="none" stroke="midnightblue" d="M968.458,-206.734C953.119,-196.013 926.941,-177.716 908.623,-164.914"/>
<polygon fill="midnightblue" stroke="midnightblue" points="910.545,-161.987 900.344,-159.127 906.535,-167.725 910.545,-161.987"/>
</g>
<!-- Node32 -->
<g id="node32" class="node"><title>Node32</title>
<g id="a_node32"><a xlink:href="QualityObject_8h_source.html" target="_top" xlink:title="QualityControl/QualityObject.h">
<polygon fill="none" stroke="black" points="1323.5,-140 1323.5,-159 1472.5,-159 1472.5,-140 1323.5,-140"/>
<text text-anchor="middle" x="1398" y="-147" font-family="Helvetica,sans-Serif" font-size="10.00">QualityControl/QualityObject.h</text>
</a>
</g>
</g>
<!-- Node31&#45;&gt;Node32 -->
<g id="edge44" class="edge"><title>Node31&#45;&gt;Node32</title>
<path fill="none" stroke="midnightblue" d="M1035.94,-206.936C1112.61,-194.985 1251.45,-173.344 1333.11,-160.615"/>
<polygon fill="midnightblue" stroke="midnightblue" points="1333.92,-164.03 1343.27,-159.032 1332.85,-157.114 1333.92,-164.03"/>
</g>
<!-- Node31&#45;&gt;Node36 -->
<g id="edge52" class="edge"><title>Node31&#45;&gt;Node36</title>
<path fill="none" stroke="midnightblue" d="M1032.14,-206.997C1046.02,-204.857 1061.07,-202.691 1075,-201 1254.83,-179.18 1301.35,-188.25 1481,-165 1490.48,-163.774 1500.51,-162.257 1510.24,-160.672"/>
<polygon fill="midnightblue" stroke="midnightblue" points="1510.94,-164.104 1520.22,-159.004 1509.78,-157.199 1510.94,-164.104"/>
</g>
<!-- Node32&#45;&gt;Node14 -->
<g id="edge46" class="edge"><title>Node32&#45;&gt;Node14</title>
<path fill="none" stroke="midnightblue" d="M1389.1,-139.734C1378.61,-129.403 1360.98,-112.037 1348.08,-99.3315"/>
<polygon fill="midnightblue" stroke="midnightblue" points="1350.34,-96.6505 1340.76,-92.1273 1345.43,-101.638 1350.34,-96.6505"/>
</g>
<!-- Node32&#45;&gt;Node23 -->
<g id="edge47" class="edge"><title>Node32&#45;&gt;Node23</title>
<path fill="none" stroke="midnightblue" d="M1436.74,-139.936C1489.84,-128.196 1585.23,-107.105 1643.16,-94.2971"/>
<polygon fill="midnightblue" stroke="midnightblue" points="1644.17,-97.6597 1653.18,-92.0834 1642.66,-90.8248 1644.17,-97.6597"/>
</g>
<!-- Node32&#45;&gt;Node33 -->
<g id="edge45" class="edge"><title>Node32&#45;&gt;Node33</title>
<path fill="none" stroke="midnightblue" d="M1431.13,-139.96C1462.16,-131.357 1509.43,-116.694 1548,-98 1587.69,-78.7652 1629.87,-49.0686 1653.68,-31.3324"/>
<polygon fill="midnightblue" stroke="midnightblue" points="1655.98,-33.9808 1661.86,-25.1671 1651.77,-28.3906 1655.98,-33.9808"/>
</g>
<!-- Node34 -->
<g id="node34" class="node"><title>Node34</title>
<g id="a_node34"><a xlink:href="Quality_8h.html" target="_top" xlink:title="QualityControl/Quality.h">
<polygon fill="none" stroke="black" points="1418.5,-73 1418.5,-92 1539.5,-92 1539.5,-73 1418.5,-73"/>
<text text-anchor="middle" x="1479" y="-80" font-family="Helvetica,sans-Serif" font-size="10.00">QualityControl/Quality.h</text>
</a>
</g>
</g>
<!-- Node32&#45;&gt;Node34 -->
<g id="edge48" class="edge"><title>Node32&#45;&gt;Node34</title>
<path fill="none" stroke="midnightblue" d="M1408.92,-139.734C1422.04,-129.208 1444.26,-111.379 1460.16,-98.6174"/>
<polygon fill="midnightblue" stroke="midnightblue" points="1462.64,-101.116 1468.25,-92.1273 1458.26,-95.6563 1462.64,-101.116"/>
</g>
<!-- Node34&#45;&gt;Node6 -->
<g id="edge50" class="edge"><title>Node34&#45;&gt;Node6</title>
<path fill="none" stroke="midnightblue" d="M1437.03,-72.9605C1426.28,-70.8912 1414.73,-68.7681 1404,-67 1278.52,-46.3239 1128.11,-27.6845 1064.64,-20.0994"/>
<polygon fill="midnightblue" stroke="midnightblue" points="1064.86,-16.6013 1054.52,-18.8958 1064.03,-23.5523 1064.86,-16.6013"/>
</g>
<!-- Node34&#45;&gt;Node33 -->
<g id="edge51" class="edge"><title>Node34&#45;&gt;Node33</title>
<path fill="none" stroke="midnightblue" d="M1504.76,-72.8685C1541.41,-60.5893 1608.3,-38.1791 1645.75,-25.6315"/>
<polygon fill="midnightblue" stroke="midnightblue" points="1647.11,-28.8663 1655.48,-22.3706 1644.88,-22.2289 1647.11,-28.8663"/>
</g>
<!-- Node35 -->
<g id="node35" class="node"><title>Node35</title>
<polygon fill="none" stroke="#bfbfbf" points="1514,-6 1514,-25 1570,-25 1570,-6 1514,-6"/>
<text text-anchor="middle" x="1542" y="-13" font-family="Helvetica,sans-Serif" font-size="10.00">Rtypes.h</text>
</g>
<!-- Node34&#45;&gt;Node35 -->
<g id="edge49" class="edge"><title>Node34&#45;&gt;Node35</title>
<path fill="none" stroke="midnightblue" d="M1487.5,-72.7338C1497.51,-62.403 1514.34,-45.0371 1526.66,-32.3315"/>
<polygon fill="midnightblue" stroke="midnightblue" points="1529.19,-34.7439 1533.64,-25.1273 1524.17,-29.8721 1529.19,-34.7439"/>
</g>
<!-- Node36&#45;&gt;Node6 -->
<g id="edge53" class="edge"><title>Node36&#45;&gt;Node6</title>
<path fill="none" stroke="midnightblue" d="M1526.36,-139.959C1493.63,-131.935 1446.61,-118.131 1409,-98 1389.48,-87.5519 1390.3,-75.834 1370,-67 1264.89,-21.2646 1125.74,-15.8651 1064.8,-15.9176"/>
<polygon fill="midnightblue" stroke="midnightblue" points="1064.67,-12.4182 1054.69,-15.9785 1064.71,-19.4181 1064.67,-12.4182"/>
</g>
<!-- Node36&#45;&gt;Node14 -->
<g id="edge56" class="edge"><title>Node36&#45;&gt;Node14</title>
<path fill="none" stroke="midnightblue" d="M1531.51,-139.979C1493.31,-130.392 1429.98,-114.053 1376,-98 1373.01,-97.1116 1369.92,-96.1599 1366.83,-95.1845"/>
<polygon fill="midnightblue" stroke="midnightblue" points="1367.64,-91.7699 1357.05,-92.0362 1365.5,-98.4329 1367.64,-91.7699"/>
</g>
<!-- Node36&#45;&gt;Node23 -->
<g id="edge57" class="edge"><title>Node36&#45;&gt;Node23</title>
<path fill="none" stroke="midnightblue" d="M1582.73,-139.869C1604.1,-128.845 1641.3,-109.655 1666.28,-96.7678"/>
<polygon fill="midnightblue" stroke="midnightblue" points="1667.92,-99.8624 1675.2,-92.1672 1664.71,-93.6414 1667.92,-99.8624"/>
</g>
<!-- Node36&#45;&gt;Node33 -->
<g id="edge54" class="edge"><title>Node36&#45;&gt;Node33</title>
<path fill="none" stroke="midnightblue" d="M1631.45,-139.992C1681.07,-132.043 1743.31,-118.322 1759,-98 1767.42,-87.0941 1765.84,-78.9572 1759,-67 1746.49,-45.1471 1720.44,-31.8254 1700.27,-24.3944"/>
<polygon fill="midnightblue" stroke="midnightblue" points="1701.24,-21.027 1690.64,-21.1197 1698.98,-27.654 1701.24,-21.027"/>
</g>
<!-- Node36&#45;&gt;Node35 -->
<g id="edge55" class="edge"><title>Node36&#45;&gt;Node35</title>
<path fill="none" stroke="midnightblue" d="M1564.43,-139.839C1560.58,-118.674 1550.63,-63.9482 1545.37,-35.0329"/>
<polygon fill="midnightblue" stroke="midnightblue" points="1548.78,-34.2337 1543.55,-25.0212 1541.89,-35.486 1548.78,-34.2337"/>
</g>
<!-- Node37&#45;&gt;Node5 -->
<g id="edge63" class="edge"><title>Node37&#45;&gt;Node5</title>
<path fill="none" stroke="midnightblue" d="M1136.84,-206.79C1109.1,-180.937 1022.59,-104.135 936,-67 859.976,-34.3965 762.159,-22.611 712.317,-18.533"/>
<polygon fill="midnightblue" stroke="midnightblue" points="712.386,-15.0282 702.148,-17.7547 711.852,-22.0077 712.386,-15.0282"/>
</g>
<!-- Node37&#45;&gt;Node13 -->
<g id="edge62" class="edge"><title>Node37&#45;&gt;Node13</title>
<path fill="none" stroke="midnightblue" d="M1148.56,-206.734C1151.38,-197.085 1156,-181.3 1159.62,-168.906"/>
<polygon fill="midnightblue" stroke="midnightblue" points="1163.03,-169.708 1162.48,-159.127 1156.31,-167.744 1163.03,-169.708"/>
</g>
</g>
</svg>
        <g id="navigator" transform="translate(0 0)" fill="#404254">
                <rect fill="#f2f5e9" fill-opacity="0.5" stroke="#606060" stroke-width=".5" x="0" y="0" width="60" height="60"/>
                <use id="zoomplus" xlink:href="#zoomPlus" x="17" y="9" onmousedown="handleZoom(evt,'in')"/>
                <use id="zoomminus" xlink:href="#zoomMin" x="42" y="9" onmousedown="handleZoom(evt,'out')"/>
                <use id="reset" xlink:href="#resetDef" x="30" y="36" onmousedown="handleReset()"/>
                <g id="arrowUp" xlink:href="#dirArrow" transform="translate(30 24)" onmousedown="handlePan(0,-1)">
                  <use xlink:href="#rim" fill="#404040">
                        <set attributeName="fill" to="#808080" begin="arrowUp.mouseover" end="arrowUp.mouseout"/>
                  </use>
                  <path fill="none" stroke="white" stroke-width="1.5" d="M0,-3.0v7 M-2.5,-0.5L0,-3.0L2.5,-0.5"/>
                </g>
                <g id="arrowRight" xlink:href="#dirArrow" transform="rotate(90) translate(36 -43)" onmousedown="handlePan(1,0)">
                  <use xlink:href="#rim" fill="#404040">
                        <set attributeName="fill" to="#808080" begin="arrowRight.mouseover" end="arrowRight.mouseout"/>
                  </use>
                  <path fill="none" stroke="white" stroke-width="1.5" d="M0,-3.0v7 M-2.5,-0.5L0,-3.0L2.5,-0.5"/>
                </g>
                <g id="arrowDown" xlink:href="#dirArrow" transform="rotate(180) translate(-30 -48)" onmousedown="handlePan(0,1)">
                  <use xlink:href="#rim" fill="#404040">
                        <set attributeName="fill" to="#808080" begin="arrowDown.mouseover" end="arrowDown.mouseout"/>
                  </use>
                  <path fill="none" stroke="white" stroke-width="1.5" d="M0,-3.0v7 M-2.5,-0.5L0,-3.0L2.5,-0.5"/>
                </g>
                <g id="arrowLeft" xlink:href="#dirArrow" transform="rotate(270) translate(-36 17)" onmousedown="handlePan(-1,0)">
                  <use xlink:href="#rim" fill="#404040">
                        <set attributeName="fill" to="#808080" begin="arrowLeft.mouseover" end="arrowLeft.mouseout"/>
                  </use>
                  <path fill="none" stroke="white" stroke-width="1.5" d="M0,-3.0v7 M-2.5,-0.5L0,-3.0L2.5,-0.5"/>
                </g>
        </g>
        <svg viewBox="0 0 15 15" width="100%" height="30px" preserveAspectRatio="xMaxYMin meet">
         <g id="arrow_out" transform="scale(0.3 0.3)">
          <a xlink:href="TrendingTaskITSFhr_8cxx__incl_org.svg" target="_base">
           <rect id="button" ry="5" rx="5" y="6" x="6" height="38" width="38"
                fill="#f2f5e9" fill-opacity="0.5" stroke="#606060" stroke-width="1.0"/>
           <path id="arrow"
             d="M 11.500037,31.436501 C 11.940474,20.09759 22.043105,11.32322 32.158766,21.979434 L 37.068811,17.246167 C 37.068811,17.246167 37.088388,32 37.088388,32 L 22.160133,31.978069 C 22.160133,31.978069 26.997745,27.140456 26.997745,27.140456 C 18.528582,18.264221 13.291696,25.230495 11.500037,31.436501 z"
             style="fill:#404040;"/>
          </a>
         </g>
        </svg>
</svg>
