<?xml version="1.0" encoding="UTF-8" standalone="no"?>
<!DOCTYPE svg PUBLIC "-//W3C//DTD SVG 1.1//EN"
 "http://www.w3.org/Graphics/SVG/1.1/DTD/svg11.dtd">
<!-- Generated by graphviz version 2.38.0 (20140413.2041)
 -->
<!-- Title: Framework/src/TrendingTask.cxx Pages: 1 -->
<svg width="1782pt" height="296pt"
 viewBox="0.00 0.00 1782.00 296.00" xmlns="http://www.w3.org/2000/svg" xmlns:xlink="http://www.w3.org/1999/xlink">
<g id="graph0" class="graph" transform="scale(1 1) rotate(0) translate(4 292)">
<title>Framework/src/TrendingTask.cxx</title>
<!-- Node1 -->
<g id="node1" class="node"><title>Node1</title>
<polygon fill="#bfbfbf" stroke="black" points="1153,-268.5 1153,-287.5 1316,-287.5 1316,-268.5 1153,-268.5"/>
<text text-anchor="middle" x="1234.5" y="-275.5" font-family="Helvetica,sans-Serif" font-size="10.00">Framework/src/TrendingTask.cxx</text>
</g>
<!-- Node2 -->
<g id="node2" class="node"><title>Node2</title>
<g id="a_node2"><a xlink:href="TrendingTask_8h.html" target="_top" xlink:title="QualityControl/TrendingTask.h">
<polygon fill="none" stroke="black" points="683,-207 683,-226 832,-226 832,-207 683,-207"/>
<text text-anchor="middle" x="757.5" y="-214" font-family="Helvetica,sans-Serif" font-size="10.00">QualityControl/TrendingTask.h</text>
</a>
</g>
</g>
<!-- Node1&#45;&gt;Node2 -->
<g id="edge1" class="edge"><title>Node1&#45;&gt;Node2</title>
<path fill="none" stroke="midnightblue" d="M1166.16,-268.475C1078.76,-257.573 927.741,-238.736 835.8,-227.267"/>
<polygon fill="midnightblue" stroke="midnightblue" points="836.072,-223.774 825.716,-226.009 835.206,-230.72 836.072,-223.774"/>
</g>
<!-- Node13 -->
<g id="node13" class="node"><title>Node13</title>
<g id="a_node13"><a xlink:href="Reductor_8h.html" target="_top" xlink:title="QualityControl/Reductor.h">
<polygon fill="none" stroke="black" points="169.5,-140 169.5,-159 299.5,-159 299.5,-140 169.5,-140"/>
<text text-anchor="middle" x="234.5" y="-147" font-family="Helvetica,sans-Serif" font-size="10.00">QualityControl/Reductor.h</text>
</a>
</g>
</g>
<!-- Node1&#45;&gt;Node13 -->
<g id="edge46" class="edge"><title>Node1&#45;&gt;Node13</title>
<path fill="none" stroke="midnightblue" d="M1152.88,-275.201C982.01,-270.953 591.729,-258.592 461.5,-232 387.057,-216.799 304.1,-182.202 262.098,-163.341"/>
<polygon fill="midnightblue" stroke="midnightblue" points="263.365,-160.072 252.812,-159.126 260.472,-166.446 263.365,-160.072"/>
</g>
<!-- Node18 -->
<g id="node18" class="node"><title>Node18</title>
<g id="a_node18"><a xlink:href="QcInfoLogger_8h.html" target="_top" xlink:title="QualityControl/QcInfoLogger.h">
<polygon fill="none" stroke="black" points="1244,-140 1244,-159 1393,-159 1393,-140 1244,-140"/>
<text text-anchor="middle" x="1318.5" y="-147" font-family="Helvetica,sans-Serif" font-size="10.00">QualityControl/QcInfoLogger.h</text>
</a>
</g>
</g>
<!-- Node1&#45;&gt;Node18 -->
<g id="edge22" class="edge"><title>Node1&#45;&gt;Node18</title>
<path fill="none" stroke="midnightblue" d="M1183.56,-268.458C1133.11,-257.779 1067.18,-236.456 1095.5,-201 1105.56,-188.404 1192.66,-171.458 1254.96,-160.755"/>
<polygon fill="midnightblue" stroke="midnightblue" points="1255.85,-164.155 1265.12,-159.028 1254.68,-157.254 1255.85,-164.155"/>
</g>
<!-- Node21 -->
<g id="node21" class="node"><title>Node21</title>
<g id="a_node21"><a xlink:href="DatabaseInterface_8h.html" target="_top" xlink:title="QualityControl/DatabaseInterface.h">
<polygon fill="none" stroke="black" points="470.5,-207 470.5,-226 640.5,-226 640.5,-207 470.5,-207"/>
<text text-anchor="middle" x="555.5" y="-214" font-family="Helvetica,sans-Serif" font-size="10.00">QualityControl/DatabaseInterface.h</text>
</a>
</g>
</g>
<!-- Node1&#45;&gt;Node21 -->
<g id="edge25" class="edge"><title>Node1&#45;&gt;Node21</title>
<path fill="none" stroke="midnightblue" d="M1152.64,-271.522C1043.31,-263.955 843.616,-249.267 673.5,-232 659.702,-230.6 645.019,-228.935 630.865,-227.242"/>
<polygon fill="midnightblue" stroke="midnightblue" points="631.021,-223.736 620.672,-226.008 630.179,-230.685 631.021,-223.736"/>
</g>
<!-- Node27 -->
<g id="node27" class="node"><title>Node27</title>
<g id="a_node27"><a xlink:href="MonitorObject_8h.html" target="_top" xlink:title="QualityControl/MonitorObject.h">
<polygon fill="none" stroke="black" points="0,-140 0,-159 151,-159 151,-140 0,-140"/>
<text text-anchor="middle" x="75.5" y="-147" font-family="Helvetica,sans-Serif" font-size="10.00">QualityControl/MonitorObject.h</text>
</a>
</g>
</g>
<!-- Node1&#45;&gt;Node27 -->
<g id="edge45" class="edge"><title>Node1&#45;&gt;Node27</title>
<path fill="none" stroke="midnightblue" d="M1152.68,-275.22C965.024,-270.747 508.142,-257.523 356.5,-232 264.458,-216.508 159.776,-181.267 108.019,-162.609"/>
<polygon fill="midnightblue" stroke="midnightblue" points="108.987,-159.237 98.3927,-159.109 106.595,-165.815 108.987,-159.237"/>
</g>
<!-- Node28 -->
<g id="node28" class="node"><title>Node28</title>
<g id="a_node28"><a xlink:href="RootClassFactory_8h.html" target="_top" xlink:title="QualityControl/RootClass\lFactory.h">
<polygon fill="none" stroke="black" points="1104.5,-201.5 1104.5,-231.5 1232.5,-231.5 1232.5,-201.5 1104.5,-201.5"/>
<text text-anchor="start" x="1112.5" y="-219.5" font-family="Helvetica,sans-Serif" font-size="10.00">QualityControl/RootClass</text>
<text text-anchor="middle" x="1168.5" y="-208.5" font-family="Helvetica,sans-Serif" font-size="10.00">Factory.h</text>
</a>
</g>
</g>
<!-- Node1&#45;&gt;Node28 -->
<g id="edge47" class="edge"><title>Node1&#45;&gt;Node28</title>
<path fill="none" stroke="midnightblue" d="M1225.04,-268.475C1216.36,-260.643 1203.12,-248.714 1191.64,-238.366"/>
<polygon fill="midnightblue" stroke="midnightblue" points="1193.83,-235.619 1184.05,-231.523 1189.14,-240.818 1193.83,-235.619"/>
</g>
<!-- Node33 -->
<g id="node33" class="node"><title>Node33</title>
<polygon fill="none" stroke="#bfbfbf" points="1251,-201.5 1251,-231.5 1352,-231.5 1352,-201.5 1251,-201.5"/>
<text text-anchor="start" x="1259" y="-219.5" font-family="Helvetica,sans-Serif" font-size="10.00">boost/property_tree</text>
<text text-anchor="middle" x="1301.5" y="-208.5" font-family="Helvetica,sans-Serif" font-size="10.00">/ptree.hpp</text>
</g>
<!-- Node1&#45;&gt;Node33 -->
<g id="edge55" class="edge"><title>Node1&#45;&gt;Node33</title>
<path fill="none" stroke="midnightblue" d="M1244.1,-268.475C1252.92,-260.643 1266.35,-248.714 1278,-238.366"/>
<polygon fill="midnightblue" stroke="midnightblue" points="1280.56,-240.78 1285.71,-231.523 1275.91,-235.546 1280.56,-240.78"/>
</g>
<!-- Node34 -->
<g id="node34" class="node"><title>Node34</title>
<polygon fill="none" stroke="#bfbfbf" points="1370.5,-207 1370.5,-226 1414.5,-226 1414.5,-207 1370.5,-207"/>
<text text-anchor="middle" x="1392.5" y="-214" font-family="Helvetica,sans-Serif" font-size="10.00">TH1.h</text>
</g>
<!-- Node1&#45;&gt;Node34 -->
<g id="edge56" class="edge"><title>Node1&#45;&gt;Node34</title>
<path fill="none" stroke="midnightblue" d="M1261.05,-268.428C1286.94,-259.874 1327.3,-246.018 1361.5,-232 1362.87,-231.437 1364.28,-230.845 1365.69,-230.236"/>
<polygon fill="midnightblue" stroke="midnightblue" points="1367.24,-233.374 1374.93,-226.081 1364.37,-226.99 1367.24,-233.374"/>
</g>
<!-- Node35 -->
<g id="node35" class="node"><title>Node35</title>
<polygon fill="none" stroke="#bfbfbf" points="1433,-207 1433,-226 1498,-226 1498,-207 1433,-207"/>
<text text-anchor="middle" x="1465.5" y="-214" font-family="Helvetica,sans-Serif" font-size="10.00">TCanvas.h</text>
</g>
<!-- Node1&#45;&gt;Node35 -->
<g id="edge57" class="edge"><title>Node1&#45;&gt;Node35</title>
<path fill="none" stroke="midnightblue" d="M1275.36,-268.493C1313.85,-260.192 1372.98,-246.697 1423.5,-232 1426.44,-231.144 1429.48,-230.205 1432.52,-229.229"/>
<polygon fill="midnightblue" stroke="midnightblue" points="1433.7,-232.523 1442.08,-226.041 1431.49,-225.882 1433.7,-232.523"/>
</g>
<!-- Node36 -->
<g id="node36" class="node"><title>Node36</title>
<polygon fill="none" stroke="#bfbfbf" points="1516,-207 1516,-226 1589,-226 1589,-207 1516,-207"/>
<text text-anchor="middle" x="1552.5" y="-214" font-family="Helvetica,sans-Serif" font-size="10.00">TPaveText.h</text>
</g>
<!-- Node1&#45;&gt;Node36 -->
<g id="edge58" class="edge"><title>Node1&#45;&gt;Node36</title>
<path fill="none" stroke="midnightblue" d="M1303.79,-268.471C1359.31,-260.945 1438.99,-248.588 1507.5,-232 1510.96,-231.163 1514.53,-230.195 1518.08,-229.163"/>
<polygon fill="midnightblue" stroke="midnightblue" points="1519.4,-232.422 1527.93,-226.144 1517.34,-225.729 1519.4,-232.422"/>
</g>
<!-- Node37 -->
<g id="node37" class="node"><title>Node37</title>
<polygon fill="none" stroke="#bfbfbf" points="1607.5,-207 1607.5,-226 1669.5,-226 1669.5,-207 1607.5,-207"/>
<text text-anchor="middle" x="1638.5" y="-214" font-family="Helvetica,sans-Serif" font-size="10.00">TDatime.h</text>
</g>
<!-- Node1&#45;&gt;Node37 -->
<g id="edge59" class="edge"><title>Node1&#45;&gt;Node37</title>
<path fill="none" stroke="midnightblue" d="M1316.03,-272.18C1390.42,-266.546 1502.99,-254.906 1598.5,-232 1601.56,-231.266 1604.71,-230.374 1607.84,-229.398"/>
<polygon fill="midnightblue" stroke="midnightblue" points="1609.26,-232.612 1617.6,-226.079 1607,-225.985 1609.26,-232.612"/>
</g>
<!-- Node38 -->
<g id="node38" class="node"><title>Node38</title>
<polygon fill="none" stroke="#bfbfbf" points="1688,-207 1688,-226 1771,-226 1771,-207 1688,-207"/>
<text text-anchor="middle" x="1729.5" y="-214" font-family="Helvetica,sans-Serif" font-size="10.00">TGraphErrors.h</text>
</g>
<!-- Node1&#45;&gt;Node38 -->
<g id="edge60" class="edge"><title>Node1&#45;&gt;Node38</title>
<path fill="none" stroke="midnightblue" d="M1316.14,-273.04C1405.68,-267.698 1553.32,-255.946 1678.5,-232 1683.22,-231.096 1688.14,-229.958 1692.98,-228.717"/>
<polygon fill="midnightblue" stroke="midnightblue" points="1693.98,-232.072 1702.72,-226.071 1692.15,-225.318 1693.98,-232.072"/>
</g>
<!-- Node3 -->
<g id="node3" class="node"><title>Node3</title>
<g id="a_node3"><a xlink:href="PostProcessingInterface_8h.html" target="_top" xlink:title="QualityControl/PostProcessing\lInterface.h">
<polygon fill="none" stroke="black" points="839,-134.5 839,-164.5 990,-164.5 990,-134.5 839,-134.5"/>
<text text-anchor="start" x="847" y="-152.5" font-family="Helvetica,sans-Serif" font-size="10.00">QualityControl/PostProcessing</text>
<text text-anchor="middle" x="914.5" y="-141.5" font-family="Helvetica,sans-Serif" font-size="10.00">Interface.h</text>
</a>
</g>
</g>
<!-- Node2&#45;&gt;Node3 -->
<g id="edge2" class="edge"><title>Node2&#45;&gt;Node3</title>
<path fill="none" stroke="midnightblue" d="M778.348,-206.869C801.907,-197.115 840.904,-180.97 871.139,-168.452"/>
<polygon fill="midnightblue" stroke="midnightblue" points="872.716,-171.587 880.617,-164.528 870.039,-165.12 872.716,-171.587"/>
</g>
<!-- Node10 -->
<g id="node10" class="node"><title>Node10</title>
<g id="a_node10"><a xlink:href="TrendingTaskConfig_8h.html" target="_top" xlink:title="QualityControl/TrendingTask\lConfig.h">
<polygon fill="none" stroke="black" points="1047,-134.5 1047,-164.5 1188,-164.5 1188,-134.5 1047,-134.5"/>
<text text-anchor="start" x="1055" y="-152.5" font-family="Helvetica,sans-Serif" font-size="10.00">QualityControl/TrendingTask</text>
<text text-anchor="middle" x="1117.5" y="-141.5" font-family="Helvetica,sans-Serif" font-size="10.00">Config.h</text>
</a>
</g>
</g>
<!-- Node2&#45;&gt;Node10 -->
<g id="edge10" class="edge"><title>Node2&#45;&gt;Node10</title>
<path fill="none" stroke="midnightblue" d="M804.934,-206.936C863.925,-196.284 965.542,-177.937 1036.86,-165.06"/>
<polygon fill="midnightblue" stroke="midnightblue" points="1037.49,-168.502 1046.71,-163.281 1036.25,-161.614 1037.49,-168.502"/>
</g>
<!-- Node2&#45;&gt;Node13 -->
<g id="edge17" class="edge"><title>Node2&#45;&gt;Node13</title>
<path fill="none" stroke="midnightblue" d="M696.424,-206.994C681.114,-204.946 664.715,-202.824 649.5,-201 498.186,-182.859 459.202,-187.674 308.5,-165 300.763,-163.836 292.605,-162.425 284.645,-160.946"/>
<polygon fill="midnightblue" stroke="midnightblue" points="285.193,-157.488 274.714,-159.05 283.88,-164.363 285.193,-157.488"/>
</g>
<!-- Node15 -->
<g id="node15" class="node"><title>Node15</title>
<polygon fill="none" stroke="#bfbfbf" points="662.5,-140 662.5,-159 714.5,-159 714.5,-140 662.5,-140"/>
<text text-anchor="middle" x="688.5" y="-147" font-family="Helvetica,sans-Serif" font-size="10.00">memory</text>
</g>
<!-- Node2&#45;&gt;Node15 -->
<g id="edge19" class="edge"><title>Node2&#45;&gt;Node15</title>
<path fill="none" stroke="midnightblue" d="M748.194,-206.734C737.228,-196.403 718.793,-179.037 705.306,-166.332"/>
<polygon fill="midnightblue" stroke="midnightblue" points="707.337,-163.437 697.658,-159.127 702.537,-168.532 707.337,-163.437"/>
</g>
<!-- Node16 -->
<g id="node16" class="node"><title>Node16</title>
<polygon fill="none" stroke="#bfbfbf" points="561,-140 561,-159 644,-159 644,-140 561,-140"/>
<text text-anchor="middle" x="602.5" y="-147" font-family="Helvetica,sans-Serif" font-size="10.00">unordered_map</text>
</g>
<!-- Node2&#45;&gt;Node16 -->
<g id="edge20" class="edge"><title>Node2&#45;&gt;Node16</title>
<path fill="none" stroke="midnightblue" d="M736.917,-206.869C710.166,-195.65 663.252,-175.977 632.528,-163.092"/>
<polygon fill="midnightblue" stroke="midnightblue" points="633.743,-159.807 623.168,-159.167 631.036,-166.262 633.743,-159.807"/>
</g>
<!-- Node17 -->
<g id="node17" class="node"><title>Node17</title>
<polygon fill="none" stroke="#bfbfbf" points="732.5,-140 732.5,-159 782.5,-159 782.5,-140 732.5,-140"/>
<text text-anchor="middle" x="757.5" y="-147" font-family="Helvetica,sans-Serif" font-size="10.00">TTree.h</text>
</g>
<!-- Node2&#45;&gt;Node17 -->
<g id="edge21" class="edge"><title>Node2&#45;&gt;Node17</title>
<path fill="none" stroke="midnightblue" d="M757.5,-206.734C757.5,-197.183 757.5,-181.618 757.5,-169.283"/>
<polygon fill="midnightblue" stroke="midnightblue" points="761,-169.127 757.5,-159.127 754,-169.127 761,-169.127"/>
</g>
<!-- Node4 -->
<g id="node4" class="node"><title>Node4</title>
<polygon fill="none" stroke="#bfbfbf" points="720,-6 720,-25 761,-25 761,-6 720,-6"/>
<text text-anchor="middle" x="740.5" y="-13" font-family="Helvetica,sans-Serif" font-size="10.00">string</text>
</g>
<!-- Node3&#45;&gt;Node4 -->
<g id="edge3" class="edge"><title>Node3&#45;&gt;Node4</title>
<path fill="none" stroke="midnightblue" d="M838.678,-134.66C799.604,-125.877 757.636,-113.291 745.5,-98 731.488,-80.3448 732.953,-53.1814 736.075,-35.1315"/>
<polygon fill="midnightblue" stroke="midnightblue" points="739.523,-35.737 738.109,-25.237 732.667,-34.3272 739.523,-35.737"/>
</g>
<!-- Node5 -->
<g id="node5" class="node"><title>Node5</title>
<polygon fill="none" stroke="#bfbfbf" points="547.5,-73 547.5,-92 693.5,-92 693.5,-73 547.5,-73"/>
<text text-anchor="middle" x="620.5" y="-80" font-family="Helvetica,sans-Serif" font-size="10.00">Framework/ServiceRegistry.h</text>
</g>
<!-- Node3&#45;&gt;Node5 -->
<g id="edge4" class="edge"><title>Node3&#45;&gt;Node5</title>
<path fill="none" stroke="midnightblue" d="M851.068,-134.476C796.426,-122.395 718.716,-105.215 668.948,-94.2112"/>
<polygon fill="midnightblue" stroke="midnightblue" points="669.596,-90.77 659.076,-92.0287 668.084,-97.605 669.596,-90.77"/>
</g>
<!-- Node6 -->
<g id="node6" class="node"><title>Node6</title>
<polygon fill="none" stroke="#bfbfbf" points="985,-0.5 985,-30.5 1086,-30.5 1086,-0.5 985,-0.5"/>
<text text-anchor="start" x="993" y="-18.5" font-family="Helvetica,sans-Serif" font-size="10.00">boost/property_tree</text>
<text text-anchor="middle" x="1035.5" y="-7.5" font-family="Helvetica,sans-Serif" font-size="10.00">/ptree_fwd.hpp</text>
</g>
<!-- Node3&#45;&gt;Node6 -->
<g id="edge5" class="edge"><title>Node3&#45;&gt;Node6</title>
<path fill="none" stroke="midnightblue" d="M927.449,-134.374C948.646,-111.25 990.88,-65.1766 1015.81,-37.985"/>
<polygon fill="midnightblue" stroke="midnightblue" points="1018.47,-40.2614 1022.64,-30.5247 1013.31,-35.5313 1018.47,-40.2614"/>
</g>
<!-- Node7 -->
<g id="node7" class="node"><title>Node7</title>
<g id="a_node7"><a xlink:href="Triggers_8h.html" target="_top" xlink:title="QualityControl/Triggers.h">
<polygon fill="none" stroke="black" points="826,-73 826,-92 951,-92 951,-73 826,-73"/>
<text text-anchor="middle" x="888.5" y="-80" font-family="Helvetica,sans-Serif" font-size="10.00">QualityControl/Triggers.h</text>
</a>
</g>
</g>
<!-- Node3&#45;&gt;Node7 -->
<g id="edge6" class="edge"><title>Node3&#45;&gt;Node7</title>
<path fill="none" stroke="midnightblue" d="M908.858,-134.396C905.005,-124.763 899.866,-111.914 895.715,-101.537"/>
<polygon fill="midnightblue" stroke="midnightblue" points="898.941,-100.179 891.978,-92.1945 892.442,-102.779 898.941,-100.179"/>
</g>
<!-- Node7&#45;&gt;Node4 -->
<g id="edge7" class="edge"><title>Node7&#45;&gt;Node4</title>
<path fill="none" stroke="midnightblue" d="M868.847,-72.8685C843.415,-61.699 798.896,-42.1468 769.554,-29.2602"/>
<polygon fill="midnightblue" stroke="midnightblue" points="770.798,-25.9839 760.235,-25.1672 767.983,-32.393 770.798,-25.9839"/>
</g>
<!-- Node8 -->
<g id="node8" class="node"><title>Node8</title>
<polygon fill="none" stroke="#bfbfbf" points="883,-6 883,-25 942,-25 942,-6 883,-6"/>
<text text-anchor="middle" x="912.5" y="-13" font-family="Helvetica,sans-Serif" font-size="10.00">functional</text>
</g>
<!-- Node7&#45;&gt;Node8 -->
<g id="edge8" class="edge"><title>Node7&#45;&gt;Node8</title>
<path fill="none" stroke="midnightblue" d="M891.737,-72.7338C895.335,-62.9877 901.246,-46.9805 905.842,-34.5318"/>
<polygon fill="midnightblue" stroke="midnightblue" points="909.134,-35.7206 909.315,-25.1273 902.567,-33.2959 909.134,-35.7206"/>
</g>
<!-- Node9 -->
<g id="node9" class="node"><title>Node9</title>
<polygon fill="none" stroke="#bfbfbf" points="820,-6 820,-25 865,-25 865,-6 820,-6"/>
<text text-anchor="middle" x="842.5" y="-13" font-family="Helvetica,sans-Serif" font-size="10.00">iosfwd</text>
</g>
<!-- Node7&#45;&gt;Node9 -->
<g id="edge9" class="edge"><title>Node7&#45;&gt;Node9</title>
<path fill="none" stroke="midnightblue" d="M882.296,-72.7338C875.192,-62.6953 863.387,-46.0145 854.475,-33.4213"/>
<polygon fill="midnightblue" stroke="midnightblue" points="857.239,-31.2682 848.605,-25.1273 851.525,-35.3119 857.239,-31.2682"/>
</g>
<!-- Node10&#45;&gt;Node4 -->
<g id="edge12" class="edge"><title>Node10&#45;&gt;Node4</title>
<path fill="none" stroke="midnightblue" d="M1046.54,-136.375C1041.79,-135.569 1037.08,-134.772 1032.5,-134 936.531,-117.817 902.247,-144.037 816.5,-98 788.066,-82.7337 764.417,-52.7569 751.392,-33.7235"/>
<polygon fill="midnightblue" stroke="midnightblue" points="754.156,-31.5572 745.727,-25.1373 748.312,-35.4119 754.156,-31.5572"/>
</g>
<!-- Node11 -->
<g id="node11" class="node"><title>Node11</title>
<polygon fill="none" stroke="#bfbfbf" points="1165.5,-6 1165.5,-25 1209.5,-25 1209.5,-6 1165.5,-6"/>
<text text-anchor="middle" x="1187.5" y="-13" font-family="Helvetica,sans-Serif" font-size="10.00">vector</text>
</g>
<!-- Node10&#45;&gt;Node11 -->
<g id="edge11" class="edge"><title>Node10&#45;&gt;Node11</title>
<path fill="none" stroke="midnightblue" d="M1135.73,-134.434C1146.5,-125.191 1159.54,-112.209 1167.5,-98 1178.49,-78.3769 1183.5,-52.7835 1185.74,-35.5561"/>
<polygon fill="midnightblue" stroke="midnightblue" points="1189.27,-35.4664 1186.89,-25.1422 1182.32,-34.6968 1189.27,-35.4664"/>
</g>
<!-- Node12 -->
<g id="node12" class="node"><title>Node12</title>
<g id="a_node12"><a xlink:href="PostProcessingConfig_8h.html" target="_top" xlink:title="QualityControl/PostProcessing\lConfig.h">
<polygon fill="none" stroke="black" points="1008,-67.5 1008,-97.5 1159,-97.5 1159,-67.5 1008,-67.5"/>
<text text-anchor="start" x="1016" y="-85.5" font-family="Helvetica,sans-Serif" font-size="10.00">QualityControl/PostProcessing</text>
<text text-anchor="middle" x="1083.5" y="-74.5" font-family="Helvetica,sans-Serif" font-size="10.00">Config.h</text>
</a>
</g>
</g>
<!-- Node10&#45;&gt;Node12 -->
<g id="edge13" class="edge"><title>Node10&#45;&gt;Node12</title>
<path fill="none" stroke="midnightblue" d="M1110.12,-134.396C1105.89,-126.304 1100.47,-115.944 1095.63,-106.685"/>
<polygon fill="midnightblue" stroke="midnightblue" points="1098.6,-104.815 1090.86,-97.5765 1092.4,-108.06 1098.6,-104.815"/>
</g>
<!-- Node12&#45;&gt;Node4 -->
<g id="edge15" class="edge"><title>Node12&#45;&gt;Node4</title>
<path fill="none" stroke="midnightblue" d="M1007.81,-67.9457C952.967,-58.0165 877.074,-44.0511 810.5,-31 797.689,-28.4886 783.588,-25.593 771.42,-23.0529"/>
<polygon fill="midnightblue" stroke="midnightblue" points="771.81,-19.5587 761.305,-20.9308 770.373,-26.4096 771.81,-19.5587"/>
</g>
<!-- Node12&#45;&gt;Node6 -->
<g id="edge16" class="edge"><title>Node12&#45;&gt;Node6</title>
<path fill="none" stroke="midnightblue" d="M1073.08,-67.396C1066.92,-59.0486 1058.97,-48.2871 1051.98,-38.8113"/>
<polygon fill="midnightblue" stroke="midnightblue" points="1054.65,-36.5417 1045.89,-30.5765 1049.02,-40.7 1054.65,-36.5417"/>
</g>
<!-- Node12&#45;&gt;Node11 -->
<g id="edge14" class="edge"><title>Node12&#45;&gt;Node11</title>
<path fill="none" stroke="midnightblue" d="M1106.07,-67.396C1123.51,-56.4956 1147.53,-41.4787 1164.97,-30.5835"/>
<polygon fill="midnightblue" stroke="midnightblue" points="1167.26,-33.275 1173.89,-25.007 1163.55,-27.339 1167.26,-33.275"/>
</g>
<!-- Node14 -->
<g id="node14" class="node"><title>Node14</title>
<polygon fill="none" stroke="#bfbfbf" points="82,-73 82,-92 141,-92 141,-73 82,-73"/>
<text text-anchor="middle" x="111.5" y="-80" font-family="Helvetica,sans-Serif" font-size="10.00">TObject.h</text>
</g>
<!-- Node13&#45;&gt;Node14 -->
<g id="edge18" class="edge"><title>Node13&#45;&gt;Node14</title>
<path fill="none" stroke="midnightblue" d="M218.167,-139.869C197.398,-128.893 161.314,-109.824 136.93,-96.9385"/>
<polygon fill="midnightblue" stroke="midnightblue" points="138.378,-93.745 127.901,-92.1672 135.107,-99.934 138.378,-93.745"/>
</g>
<!-- Node19 -->
<g id="node19" class="node"><title>Node19</title>
<polygon fill="none" stroke="#bfbfbf" points="1253.5,-73 1253.5,-92 1383.5,-92 1383.5,-73 1253.5,-73"/>
<text text-anchor="middle" x="1318.5" y="-80" font-family="Helvetica,sans-Serif" font-size="10.00">InfoLogger/InfoLogger.hxx</text>
</g>
<!-- Node18&#45;&gt;Node19 -->
<g id="edge23" class="edge"><title>Node18&#45;&gt;Node19</title>
<path fill="none" stroke="midnightblue" d="M1318.5,-139.734C1318.5,-130.183 1318.5,-114.618 1318.5,-102.283"/>
<polygon fill="midnightblue" stroke="midnightblue" points="1322,-102.127 1318.5,-92.1273 1315,-102.127 1322,-102.127"/>
</g>
<!-- Node20 -->
<g id="node20" class="node"><title>Node20</title>
<polygon fill="none" stroke="#bfbfbf" points="1401.5,-73 1401.5,-92 1563.5,-92 1563.5,-73 1401.5,-73"/>
<text text-anchor="middle" x="1482.5" y="-80" font-family="Helvetica,sans-Serif" font-size="10.00">InfoLogger/InfoLoggerMacros.hxx</text>
</g>
<!-- Node18&#45;&gt;Node20 -->
<g id="edge24" class="edge"><title>Node18&#45;&gt;Node20</title>
<path fill="none" stroke="midnightblue" d="M1340.28,-139.869C1368.78,-128.571 1418.93,-108.696 1451.42,-95.8183"/>
<polygon fill="midnightblue" stroke="midnightblue" points="1452.89,-99.0021 1460.89,-92.0637 1450.31,-92.4945 1452.89,-99.0021"/>
</g>
<!-- Node21&#45;&gt;Node4 -->
<g id="edge26" class="edge"><title>Node21&#45;&gt;Node4</title>
<path fill="none" stroke="midnightblue" d="M550.802,-206.999C537.887,-182.364 504.964,-109.953 538.5,-67 559.425,-40.1999 658.675,-25.5179 709.838,-19.616"/>
<polygon fill="midnightblue" stroke="midnightblue" points="710.428,-23.0721 719.98,-18.4887 709.655,-16.1149 710.428,-23.0721"/>
</g>
<!-- Node21&#45;&gt;Node5 -->
<g id="edge30" class="edge"><title>Node21&#45;&gt;Node5</title>
<path fill="none" stroke="midnightblue" d="M552.411,-206.828C547.424,-191.271 539.322,-158.004 551.5,-134 559.843,-117.555 576.335,-105.179 591.104,-96.7956"/>
<polygon fill="midnightblue" stroke="midnightblue" points="592.789,-99.8636 599.989,-92.0906 589.513,-93.6775 592.789,-99.8636"/>
</g>
<!-- Node21&#45;&gt;Node11 -->
<g id="edge28" class="edge"><title>Node21&#45;&gt;Node11</title>
<path fill="none" stroke="midnightblue" d="M619.735,-206.973C637.16,-204.833 656.036,-202.673 673.5,-201 731.483,-195.446 1156.75,-207.579 1196.5,-165 1229.75,-129.378 1209.1,-65.6025 1195.94,-34.5202"/>
<polygon fill="midnightblue" stroke="midnightblue" points="1199.11,-33.0376 1191.85,-25.3206 1192.71,-35.8802 1199.11,-33.0376"/>
</g>
<!-- Node21&#45;&gt;Node15 -->
<g id="edge27" class="edge"><title>Node21&#45;&gt;Node15</title>
<path fill="none" stroke="midnightblue" d="M573.161,-206.869C595.817,-195.796 635.328,-176.486 661.7,-163.598"/>
<polygon fill="midnightblue" stroke="midnightblue" points="663.318,-166.703 670.766,-159.167 660.244,-160.414 663.318,-166.703"/>
</g>
<!-- Node21&#45;&gt;Node16 -->
<g id="edge29" class="edge"><title>Node21&#45;&gt;Node16</title>
<path fill="none" stroke="midnightblue" d="M561.839,-206.734C569.097,-196.695 581.159,-180.014 590.265,-167.421"/>
<polygon fill="midnightblue" stroke="midnightblue" points="593.239,-169.282 596.262,-159.127 587.566,-165.18 593.239,-169.282"/>
</g>
<!-- Node22 -->
<g id="node22" class="node"><title>Node22</title>
<g id="a_node22"><a xlink:href="QualityObject_8h_source.html" target="_top" xlink:title="QualityControl/QualityObject.h">
<polygon fill="none" stroke="black" points="318,-140 318,-159 467,-159 467,-140 318,-140"/>
<text text-anchor="middle" x="392.5" y="-147" font-family="Helvetica,sans-Serif" font-size="10.00">QualityControl/QualityObject.h</text>
</a>
</g>
</g>
<!-- Node21&#45;&gt;Node22 -->
<g id="edge31" class="edge"><title>Node21&#45;&gt;Node22</title>
<path fill="none" stroke="midnightblue" d="M533.855,-206.869C505.523,-195.571 455.684,-175.696 423.391,-162.818"/>
<polygon fill="midnightblue" stroke="midnightblue" points="424.56,-159.517 413.975,-159.064 421.967,-166.019 424.56,-159.517"/>
</g>
<!-- Node21&#45;&gt;Node27 -->
<g id="edge39" class="edge"><title>Node21&#45;&gt;Node27</title>
<path fill="none" stroke="midnightblue" d="M481.48,-206.973C402.015,-197.6 272.127,-181.649 160.5,-165 151.786,-163.7 142.587,-162.232 133.585,-160.741"/>
<polygon fill="midnightblue" stroke="midnightblue" points="133.984,-157.259 123.543,-159.056 132.826,-164.163 133.984,-157.259"/>
</g>
<!-- Node22&#45;&gt;Node14 -->
<g id="edge33" class="edge"><title>Node22&#45;&gt;Node14</title>
<path fill="none" stroke="midnightblue" d="M344.924,-139.935C296.811,-130.907 220.477,-115.574 155.5,-98 152.317,-97.1391 149.025,-96.182 145.74,-95.1816"/>
<polygon fill="midnightblue" stroke="midnightblue" points="146.615,-91.7876 136.025,-92.1036 144.501,-98.4606 146.615,-91.7876"/>
</g>
<!-- Node23 -->
<g id="node23" class="node"><title>Node23</title>
<polygon fill="none" stroke="#bfbfbf" points="152,-6 152,-25 187,-25 187,-6 152,-6"/>
<text text-anchor="middle" x="169.5" y="-13" font-family="Helvetica,sans-Serif" font-size="10.00">map</text>
</g>
<!-- Node22&#45;&gt;Node23 -->
<g id="edge32" class="edge"><title>Node22&#45;&gt;Node23</title>
<path fill="none" stroke="midnightblue" d="M347.522,-139.945C290.923,-128.79 199.71,-109.364 188.5,-98 172.193,-81.4687 168.842,-53.8118 168.625,-35.365"/>
<polygon fill="midnightblue" stroke="midnightblue" points="172.127,-35.3128 168.808,-25.2512 165.128,-35.1864 172.127,-35.3128"/>
</g>
<!-- Node24 -->
<g id="node24" class="node"><title>Node24</title>
<polygon fill="none" stroke="#bfbfbf" points="375.5,-73 375.5,-92 491.5,-92 491.5,-73 375.5,-73"/>
<text text-anchor="middle" x="433.5" y="-80" font-family="Helvetica,sans-Serif" font-size="10.00">Common/Exceptions.h</text>
</g>
<!-- Node22&#45;&gt;Node24 -->
<g id="edge34" class="edge"><title>Node22&#45;&gt;Node24</title>
<path fill="none" stroke="midnightblue" d="M398.029,-139.734C404.3,-129.793 414.679,-113.338 422.595,-100.789"/>
<polygon fill="midnightblue" stroke="midnightblue" points="425.683,-102.453 428.058,-92.1273 419.763,-98.718 425.683,-102.453"/>
</g>
<!-- Node25 -->
<g id="node25" class="node"><title>Node25</title>
<g id="a_node25"><a xlink:href="Quality_8h.html" target="_top" xlink:title="QualityControl/Quality.h">
<polygon fill="none" stroke="black" points="198,-73 198,-92 319,-92 319,-73 198,-73"/>
<text text-anchor="middle" x="258.5" y="-80" font-family="Helvetica,sans-Serif" font-size="10.00">QualityControl/Quality.h</text>
</a>
</g>
</g>
<!-- Node22&#45;&gt;Node25 -->
<g id="edge35" class="edge"><title>Node22&#45;&gt;Node25</title>
<path fill="none" stroke="midnightblue" d="M374.706,-139.869C351.88,-128.796 312.072,-109.486 285.502,-96.5978"/>
<polygon fill="midnightblue" stroke="midnightblue" points="286.893,-93.3826 276.368,-92.1672 283.838,-99.6807 286.893,-93.3826"/>
</g>
<!-- Node25&#45;&gt;Node4 -->
<g id="edge37" class="edge"><title>Node25&#45;&gt;Node4</title>
<path fill="none" stroke="midnightblue" d="M300.066,-72.9454C310.922,-70.8535 322.628,-68.7234 333.5,-67 473.346,-44.8315 641.519,-26.6313 709.624,-19.6112"/>
<polygon fill="midnightblue" stroke="midnightblue" points="710.085,-23.0824 719.676,-18.5816 709.371,-16.1189 710.085,-23.0824"/>
</g>
<!-- Node25&#45;&gt;Node23 -->
<g id="edge38" class="edge"><title>Node25&#45;&gt;Node23</title>
<path fill="none" stroke="midnightblue" d="M246.497,-72.7338C231.951,-62.1106 207.22,-44.0485 189.716,-31.2642"/>
<polygon fill="midnightblue" stroke="midnightblue" points="191.453,-28.1988 181.313,-25.1273 187.324,-33.8517 191.453,-28.1988"/>
</g>
<!-- Node26 -->
<g id="node26" class="node"><title>Node26</title>
<polygon fill="none" stroke="#bfbfbf" points="32.5,-6 32.5,-25 88.5,-25 88.5,-6 32.5,-6"/>
<text text-anchor="middle" x="60.5" y="-13" font-family="Helvetica,sans-Serif" font-size="10.00">Rtypes.h</text>
</g>
<!-- Node25&#45;&gt;Node26 -->
<g id="edge36" class="edge"><title>Node25&#45;&gt;Node26</title>
<path fill="none" stroke="midnightblue" d="M232.207,-72.8685C197.273,-61.4001 135.419,-41.0945 96.2629,-28.2403"/>
<polygon fill="midnightblue" stroke="midnightblue" points="97.1791,-24.8574 86.5863,-25.0637 94.9957,-31.5082 97.1791,-24.8574"/>
</g>
<!-- Node27&#45;&gt;Node4 -->
<g id="edge40" class="edge"><title>Node27&#45;&gt;Node4</title>
<path fill="none" stroke="midnightblue" d="M124.411,-139.976C192.427,-127.927 309.314,-106.444 327.5,-98 347.583,-88.6753 346.131,-75.6819 366.5,-67 428.383,-40.6237 631.619,-24.0699 709.63,-18.5513"/>
<polygon fill="midnightblue" stroke="midnightblue" points="710.046,-22.0309 719.779,-17.8459 709.561,-15.0478 710.046,-22.0309"/>
</g>
<!-- Node27&#45;&gt;Node14 -->
<g id="edge43" class="edge"><title>Node27&#45;&gt;Node14</title>
<path fill="none" stroke="midnightblue" d="M80.3551,-139.734C85.8069,-129.89 94.7961,-113.66 101.719,-101.159"/>
<polygon fill="midnightblue" stroke="midnightblue" points="104.939,-102.571 106.722,-92.1273 98.815,-99.1795 104.939,-102.571"/>
</g>
<!-- Node27&#45;&gt;Node23 -->
<g id="edge41" class="edge"><title>Node27&#45;&gt;Node23</title>
<path fill="none" stroke="midnightblue" d="M72.3047,-139.877C67.0459,-124.108 58.471,-90.1201 72.5,-67 87.4466,-42.3676 118.76,-29.193 141.783,-22.548"/>
<polygon fill="midnightblue" stroke="midnightblue" points="142.911,-25.8701 151.689,-19.9367 141.127,-19.1014 142.911,-25.8701"/>
</g>
<!-- Node27&#45;&gt;Node24 -->
<g id="edge44" class="edge"><title>Node27&#45;&gt;Node24</title>
<path fill="none" stroke="midnightblue" d="M124.652,-139.968C193.973,-127.909 316.972,-106.414 361.5,-98 368.15,-96.7434 375.138,-95.3846 382.037,-94.0199"/>
<polygon fill="midnightblue" stroke="midnightblue" points="382.91,-97.4149 392.033,-92.0275 381.542,-90.5499 382.91,-97.4149"/>
</g>
<!-- Node27&#45;&gt;Node26 -->
<g id="edge42" class="edge"><title>Node27&#45;&gt;Node26</title>
<path fill="none" stroke="midnightblue" d="M66.6531,-139.794C57.8197,-130.423 44.8153,-114.613 39.5,-98 32.5679,-76.3337 41.8343,-50.8774 50.1606,-34.2542"/>
<polygon fill="midnightblue" stroke="midnightblue" points="53.4003,-35.6207 55.0702,-25.1583 47.2403,-32.2958 53.4003,-35.6207"/>
</g>
<!-- Node28&#45;&gt;Node4 -->
<g id="edge48" class="edge"><title>Node28&#45;&gt;Node4</title>
<path fill="none" stroke="midnightblue" d="M1122.09,-201.459C1096.31,-192.726 1064.16,-180.254 1037.5,-165 1018.28,-154.002 1018.76,-142.944 998.5,-134 906.661,-93.4458 854.65,-159.76 775.5,-98 755.803,-82.6304 747.014,-54.0065 743.219,-35.1022"/>
<polygon fill="midnightblue" stroke="midnightblue" points="746.631,-34.2903 741.482,-25.0305 739.733,-35.4798 746.631,-34.2903"/>
</g>
<!-- Node28&#45;&gt;Node18 -->
<g id="edge54" class="edge"><title>Node28&#45;&gt;Node18</title>
<path fill="none" stroke="midnightblue" d="M1201.05,-201.396C1227.37,-189.991 1264.09,-174.079 1289.43,-163.098"/>
<polygon fill="midnightblue" stroke="midnightblue" points="1291.08,-166.195 1298.87,-159.007 1288.3,-159.772 1291.08,-166.195"/>
</g>
<!-- Node28&#45;&gt;Node24 -->
<g id="edge49" class="edge"><title>Node28&#45;&gt;Node24</title>
<path fill="none" stroke="midnightblue" d="M1104.49,-215.936C1034.17,-214.191 919.304,-204.683 829.5,-165 809.564,-156.19 811.47,-142.732 791.5,-134 789.846,-133.277 605.388,-107.472 501.933,-93.0374"/>
<polygon fill="midnightblue" stroke="midnightblue" points="502.265,-89.5498 491.877,-91.6346 501.298,-96.4827 502.265,-89.5498"/>
</g>
<!-- Node29 -->
<g id="node29" class="node"><title>Node29</title>
<polygon fill="none" stroke="#bfbfbf" points="1410.5,-140 1410.5,-159 1466.5,-159 1466.5,-140 1410.5,-140"/>
<text text-anchor="middle" x="1438.5" y="-147" font-family="Helvetica,sans-Serif" font-size="10.00">TClass.h</text>
</g>
<!-- Node28&#45;&gt;Node29 -->
<g id="edge50" class="edge"><title>Node28&#45;&gt;Node29</title>
<path fill="none" stroke="midnightblue" d="M1232.68,-202.79C1290.32,-191.156 1370.5,-174.369 1401.5,-165 1403.93,-164.267 1406.42,-163.445 1408.91,-162.575"/>
<polygon fill="midnightblue" stroke="midnightblue" points="1410.19,-165.832 1418.35,-159.071 1407.76,-159.27 1410.19,-165.832"/>
</g>
<!-- Node30 -->
<g id="node30" class="node"><title>Node30</title>
<polygon fill="none" stroke="#bfbfbf" points="1485,-140 1485,-159 1544,-159 1544,-140 1485,-140"/>
<text text-anchor="middle" x="1514.5" y="-147" font-family="Helvetica,sans-Serif" font-size="10.00">TROOT.h</text>
</g>
<!-- Node28&#45;&gt;Node30 -->
<g id="edge51" class="edge"><title>Node28&#45;&gt;Node30</title>
<path fill="none" stroke="midnightblue" d="M1232.56,-202.611C1235.58,-202.056 1238.57,-201.516 1241.5,-201 1345.13,-182.746 1373.66,-191.471 1475.5,-165 1478.32,-164.267 1481.22,-163.406 1484.1,-162.474"/>
<polygon fill="midnightblue" stroke="midnightblue" points="1485.41,-165.723 1493.7,-159.123 1483.11,-159.114 1485.41,-165.723"/>
</g>
<!-- Node31 -->
<g id="node31" class="node"><title>Node31</title>
<polygon fill="none" stroke="#bfbfbf" points="1562,-140 1562,-159 1627,-159 1627,-140 1562,-140"/>
<text text-anchor="middle" x="1594.5" y="-147" font-family="Helvetica,sans-Serif" font-size="10.00">TSystem.h</text>
</g>
<!-- Node28&#45;&gt;Node31 -->
<g id="edge52" class="edge"><title>Node28&#45;&gt;Node31</title>
<path fill="none" stroke="midnightblue" d="M1232.54,-202.474C1235.57,-201.955 1238.56,-201.46 1241.5,-201 1379.4,-179.385 1417.51,-196.47 1553.5,-165 1556.74,-164.251 1560.07,-163.331 1563.38,-162.321"/>
<polygon fill="midnightblue" stroke="midnightblue" points="1564.68,-165.576 1573.07,-159.103 1562.47,-158.933 1564.68,-165.576"/>
</g>
<!-- Node32 -->
<g id="node32" class="node"><title>Node32</title>
<polygon fill="none" stroke="#bfbfbf" points="1645,-140 1645,-159 1774,-159 1774,-140 1645,-140"/>
<text text-anchor="middle" x="1709.5" y="-147" font-family="Helvetica,sans-Serif" font-size="10.00">boost/filesystem/path.hpp</text>
</g>
<!-- Node28&#45;&gt;Node32 -->
<g id="edge53" class="edge"><title>Node28&#45;&gt;Node32</title>
<path fill="none" stroke="midnightblue" d="M1232.53,-202.386C1235.56,-201.891 1238.56,-201.425 1241.5,-201 1415.97,-175.793 1462.03,-190.207 1636.5,-165 1644.32,-163.87 1652.58,-162.452 1660.61,-160.948"/>
<polygon fill="midnightblue" stroke="midnightblue" points="1661.46,-164.349 1670.61,-159.013 1660.13,-157.476 1661.46,-164.349"/>
</g>
</g>
</svg>
